<?xml version="1.0" encoding="UTF-8" standalone="no"?>
<svg width="32px" height="32px" viewBox="0 0 32 32" version="1.1" xmlns="http://www.w3.org/2000/svg" xmlns:xlink="http://www.w3.org/1999/xlink">
    <!-- Generator: Sketch 3.7 (28169) - http://www.bohemiancoding.com/sketch -->
    <title>engl</title>
    <desc>Created with Sketch.</desc>
    <defs></defs>
    <g id="Page-1" stroke="none" stroke-width="1" fill="none" fill-rule="evenodd">
        <g id="engl">
            <g id="Group" transform="translate(3.250000, 3.250000)">
                <path d="M25.5444222,9.9216 C25.3335333,9.04337778 25.0359778,8.19982222 24.6575333,7.40248889 L20.7488667,9.9216 L25.5444222,9.9216 Z" id="Fill-36" fill="#3946A1"></path>
                <path d="M9.92131111,0.3614 C7.11908889,1.03451111 4.66931111,2.61762222 2.90708889,4.7814 L9.92131111,9.29962222 L9.92131111,0.3614 Z" id="Fill-38" fill="#3946A1"></path>
                <path d="M0.506422222,16.5354222 C0.757755556,17.4107556 1.09864444,18.2485333 1.51753333,19.0400889 L5.40308889,16.5354222 L0.506422222,16.5354222 Z" id="Fill-40" fill="#3946A1"></path>
                <path d="M16.5351333,25.3991111 C19.1524667,24.648 21.4289111,23.0937778 23.0813556,21.0195556 L16.5351333,16.8046667 L16.5351333,25.3991111 Z" id="Fill-42" fill="#3946A1"></path>
                <path d="M24.5520889,18.7153778 C24.8958667,18.0220444 25.1818667,17.2940444 25.3985333,16.5342667 L21.1663111,16.5342667 L24.5520889,18.7153778 Z" id="Fill-44" fill="#3946A1"></path>
                <path d="M1.41353333,7.07286667 C0.957088889,7.96842222 0.601755556,8.92175556 0.361977778,9.92131111 L5.83931111,9.92131111 L1.41353333,7.07286667 Z" id="Fill-46" fill="#3946A1"></path>
                <path d="M23.2128,5.05266667 C21.5488,2.89466667 19.2203556,1.27977778 16.5336889,0.505555556 L16.5336889,9.36 L23.2128,5.05266667 Z" id="Fill-48" fill="#3946A1"></path>
                <path d="M3.06944444,21.3202889 C4.82011111,23.3858444 7.20344444,24.8938444 9.92188889,25.5438444 L9.92188889,16.9002889 L3.06944444,21.3202889 Z" id="Fill-50" fill="#3946A1"></path>
                <path d="M9.92131111,16.5354222 L9.64397778,16.5354222 L2.77708889,20.9612 C2.87242222,21.0825333 2.97064444,21.2009778 3.06886667,21.3194222 L9.92131111,16.9023111 L9.92131111,16.5354222 Z" id="Fill-52" fill="#F2F6FF"></path>
                <path d="M5.40193333,16.5354222 L1.51926667,19.0400889 C1.59148889,19.1758667 1.6666,19.3087556 1.7446,19.4416444 L6.25126667,16.5354222 L5.40193333,16.5354222 Z" id="Fill-54" fill="#F2F6FF"></path>
                <path d="M6.67535556,9.9216 L1.62557778,6.6716 C1.55335556,6.80448889 1.48113333,6.93737778 1.41468889,7.07315556 L5.83757778,9.9216 L6.67535556,9.9216 Z" id="Fill-56" fill="#F2F6FF"></path>
                <path d="M20.3302667,16.5354222 L24.3458222,19.1180889 C24.4180444,18.9852 24.4844889,18.8494222 24.5509333,18.7165333 L21.1651556,16.5354222 L20.3302667,16.5354222 Z" id="Fill-58" fill="#F2F6FF"></path>
                <path d="M20.7477111,9.9216 L24.6563778,7.40248889 C24.5899333,7.26093333 24.5206,7.12515556 24.4483778,6.98937778 L19.8983778,9.9216 L20.7477111,9.9216 Z" id="Fill-60" fill="#F2F6FF"></path>
                <path d="M16.5351333,9.90686667 L23.4886889,5.42331111 C23.3991333,5.29908889 23.3066889,5.17486667 23.2142444,5.05353333 L16.5351333,9.35797778 L16.5351333,9.90686667 Z" id="Fill-62" fill="#F2F6FF"></path>
                <path d="M16.5351333,16.5354222 L16.5351333,16.8040889 L23.0813556,21.0189778 C23.1766889,20.9005333 23.2720222,20.7792 23.3644667,20.6578667 L16.9569111,16.5354222 L16.5351333,16.5354222 Z" id="Fill-64" fill="#F2F6FF"></path>
                <path d="M9.92131111,9.29817778 L2.90708889,4.77995556 C2.80886667,4.8984 2.71353333,5.01973333 2.62108889,5.14106667 L9.92131111,9.8384 L9.92131111,9.29817778 Z" id="Fill-66" fill="#F2F6FF"></path>
                <path d="M9.92131111,9.9216 L9.92131111,9.83782222 L2.62108889,5.14337778 C2.2542,5.62582222 1.92197778,6.13715556 1.62442222,6.6716 L6.6742,9.9216 L9.92131111,9.9216 Z" id="Fill-68" fill="#F83E4F"></path>
                <path d="M6.25213333,16.5354222 L1.74546667,19.4416444 C2.05168889,19.9732 2.39835556,20.4816444 2.7768,20.9612 L9.64368889,16.5354222 L6.25213333,16.5354222 Z" id="Fill-70" fill="#F83E4F"></path>
                <path d="M16.5351333,9.9216 L19.8978,9.9216 L24.4478,6.98937778 C24.1646889,6.44337778 23.8440222,5.92048889 23.4886889,5.4236 L16.5351333,9.90715556 L16.5351333,9.9216 Z" id="Fill-72" fill="#F83E4F"></path>
                <path d="M16.9569111,16.5354222 L23.3644667,20.6578667 C23.7255778,20.1696444 24.0549111,19.6554222 24.3438,19.1180889 L20.3311333,16.5354222 L16.9569111,16.5354222 Z" id="Fill-74" fill="#F83E4F"></path>
                <path d="M15.4327333,11.024 L25.7605111,11.024 C25.7056222,10.6513333 25.6305111,10.2844444 25.5438444,9.92044444 L20.7482889,9.92044444 L19.8960667,9.92044444 L16.5362889,9.92044444 L16.5362889,9.906 L16.5362889,9.36 L16.5362889,0.505555556 C16.1722889,0.404444444 15.8054,0.312 15.4327333,0.239777778 L15.4327333,11.024 Z" id="Fill-76" fill="#F2F6FF"></path>
                <path d="M11.0237111,11.024 L11.0237111,0.144444444 C10.6510444,0.199333333 10.2841556,0.274444444 9.92015556,0.361111111 L9.92015556,9.29933333 L9.92015556,9.83955556 L9.92015556,9.92044444 L6.67593333,9.92044444 L5.83815556,9.92044444 L0.360822222,9.92044444 C0.274155556,10.2844444 0.199044444,10.6513333 0.144155556,11.024 L11.0237111,11.024 Z" id="Fill-78" fill="#F2F6FF"></path>
                <path d="M11.0237111,15.4333111 L0.239488889,15.4333111 C0.311711111,15.8059778 0.404155556,16.1728667 0.505266667,16.5368667 L5.40193333,16.5368667 L6.25126667,16.5368667 L9.64282222,16.5368667 L9.92015556,16.5368667 L9.92015556,16.9008667 L9.92015556,25.5444222 C10.2841556,25.6310889 10.6510444,25.7062 11.0237111,25.7610889 L11.0237111,15.4333111 Z" id="Fill-80" fill="#F2F6FF"></path>
                <path d="M15.4327333,15.4333111 L15.4327333,25.6657556 C15.8054,25.5935333 16.1722889,25.5039778 16.5362889,25.3999778 L16.5362889,16.8055333 L16.5362889,16.5368667 L16.9580667,16.5368667 L20.3294,16.5368667 L21.1671778,16.5368667 L25.3994,16.5368667 C25.5034,16.1728667 25.5929556,15.8059778 25.6651778,15.4333111 L15.4327333,15.4333111 Z" id="Fill-82" fill="#F2F6FF"></path>
                <path d="M15.4327333,15.4333111 L25.6651778,15.4333111 C25.8211778,14.6302 25.9049556,13.8010889 25.9049556,12.9517556 C25.9049556,12.2988667 25.8558444,11.6546444 25.7605111,11.0248667 L15.4327333,11.0248667 L15.4327333,0.240644444 C14.6296222,0.0846444444 13.8005111,0.000866666667 12.9511778,0.000866666667 C12.2982889,0.000866666667 11.6540667,0.0499777778 11.0242889,0.145311111 L11.0242889,11.0248667 L0.144733333,11.0248667 C0.0494,11.6546444 0.000288888889,12.2988667 0.000288888889,12.9517556 C0.000288888889,13.8010889 0.0840666667,14.6302 0.240066667,15.4333111 L11.0242889,15.4333111 L11.0242889,25.7610889 C11.6540667,25.8564222 12.2982889,25.9055333 12.9511778,25.9055333 C13.8005111,25.9055333 14.6296222,25.8217556 15.4327333,25.6657556 L15.4327333,15.4333111 Z" id="Fill-84" fill="#F83E4F"></path>
                <path d="M12.9537778,25.3528889 C6.10422222,25.3528889 0.551777778,19.8004444 0.551777778,12.9537778 C0.551777778,6.10422222 6.10422222,0.551777778 12.9537778,0.551777778 C19.8004444,0.551777778 25.3528889,6.10422222 25.3528889,12.9537778 C25.3528889,19.8004444 19.8004444,25.3528889 12.9537778,25.3528889 M12.9537778,0 C5.798,0 0,5.80088889 0,12.9537778 C0,20.1066667 5.798,25.9046667 12.9537778,25.9046667 C20.1066667,25.9046667 25.9046667,20.1066667 25.9046667,12.9537778 C25.9046667,5.80088889 20.1066667,0 12.9537778,0" id="Fill-86"></path>
            </g>
        </g>
    </g>
</svg>