<?xml version="1.0" encoding="UTF-8" standalone="no"?>
<svg width="32px" height="32px" viewBox="0 0 32 32" version="1.1" xmlns="http://www.w3.org/2000/svg" xmlns:xlink="http://www.w3.org/1999/xlink">
    <!-- Generator: Sketch 3.7 (28169) - http://www.bohemiancoding.com/sketch -->
    <title>rus</title>
    <desc>Created with Sketch.</desc>
    <defs></defs>
    <g id="Page-1" stroke="none" stroke-width="1" fill="none" fill-rule="evenodd">
        <g id="rus">
            <g id="Group" transform="translate(3.250000, 3.250000)">
                <path d="M25.4065,12.7029667 C25.4065,11.2834667 25.1713333,9.92346667 24.7406667,8.64846667 L0.665833333,8.64846667 C0.235166667,9.92346667 0,11.2834667 0,12.7029667 C0,14.1224667 0.235166667,15.4824667 0.665833333,16.7574667 L24.7406667,16.7574667 C25.1713333,15.4824667 25.4065,14.1224667 25.4065,12.7029667" id="Fill-10" fill="#4375C5"></path>
                <path d="M24.7418,16.7571833 L0.664133333,16.7571833 C2.35846667,21.7835167 7.10713333,25.40735 12.7029667,25.40735 C18.3016333,25.40735 23.0503,21.7835167 24.7418,16.7571833" id="Fill-12" fill="#F83E4F"></path>
                <path d="M12.7035333,0 C7.10486667,0 2.35903333,3.621 0.6647,8.65016667 L24.7423667,8.65016667 C23.0480333,3.621 18.3022,0 12.7035333,0" id="Fill-14" fill="#F2F6FF"></path>
            </g>
        </g>
    </g>
</svg>