<?xml version="1.0" encoding="UTF-8" standalone="no"?>
<svg width="32px" height="32px" viewBox="0 0 32 32" version="1.1" xmlns="http://www.w3.org/2000/svg" xmlns:xlink="http://www.w3.org/1999/xlink">
    <!-- Generator: Sketch 3.7 (28169) - http://www.bohemiancoding.com/sketch -->
    <title>usa</title>
    <desc>Created with Sketch.</desc>
    <defs>
        <polygon id="path-1" points="0.91158539 5.6082962 21.48562 5.6082962 21.48562 0.258542455 0.91158539 0.258542455"></polygon>
        <polygon id="path-3" points="9.7482973 6.1166451 9.7482973 0.766330518 0.654725424 0.766330518 0.654725424 6.1166451 9.7482973 6.1166451"></polygon>
    </defs>
    <g id="Page-1" stroke="none" stroke-width="1" fill="none" fill-rule="evenodd">
        <g id="usa">
            <g id="Group-2" transform="translate(3.250000, 3.250000)">
                <path d="M24.7934363,15.515071 L16.0472983,15.515071 L0.349677268,15.515071 C0.722628966,17.0741774 1.38721207,18.5211178 2.28453946,19.794201 L22.8585741,19.794201 C23.7530973,18.5211178 24.4176804,17.0741774 24.7934363,15.515071" id="Fill-18" fill="#F2F6FF"></path>
                <path d="M16.04842,10.1653173 L24.909528,10.1653173 C24.5674219,8.40150813 23.8551683,6.76949393 22.8596957,5.35059499 L16.04842,5.35059499 L16.04842,10.1653173 Z" id="Fill-20" fill="#F2F6FF"></path>
                <path d="M22.8585741,5.35031458 C21.229364,3.03408825 18.8374257,1.29271228 16.0472983,0.490725918 L16.0472983,5.35031458 L22.8585741,5.35031458 Z" id="Fill-22" fill="#F83E4F"></path>
                <g id="Group-26" transform="translate(1.372954, 19.536500)">
                    <mask id="mask-2" fill="white">
                        <use xlink:href="#path-1"></use>
                    </mask>
                    <g id="Clip-25"></g>
                    <path d="M21.48562,0.258542455 L0.91158539,0.258542455 C3.1857495,3.49172522 6.94330796,5.60885703 11.1972006,5.60885703 C15.4538974,5.60885703 19.2114559,3.49172522 21.48562,0.258542455" id="Fill-24" fill="#F83E4F" mask="url(#mask-2)"></path>
                </g>
                <g id="Group-29" transform="translate(15.393695, 9.398426)">
                    <mask id="mask-4" fill="white">
                        <use xlink:href="#path-3"></use>
                    </mask>
                    <g id="Clip-28"></g>
                    <path d="M0.654725424,6.1166451 L9.40086336,6.1166451 C9.6251952,5.17164719 9.74857772,4.1873912 9.74857772,3.17509374 C9.74857772,2.3506742 9.66725742,1.54588369 9.51583343,0.766330518 L0.654725424,0.766330518 L0.654725424,6.1166451 Z" id="Fill-27" fill="#F83E4F" mask="url(#mask-4)"></path>
                </g>
                <path d="M10.6249172,11.9630566 L9.04618178,10.9872131 C8.61153882,10.7180149 7.91330595,10.7404481 7.49548788,11.0376878 L5.91394835,12.1621511 C5.49613028,12.4565867 5.25497354,12.291142 5.37555191,11.7920036 L5.82421561,9.93004926 C5.94479398,9.4309109 5.72887457,8.74669876 5.34190214,8.41300514 L3.97908616,7.23526293 C3.59211372,6.89876516 3.69306305,6.61274206 4.20341801,6.59872131 L6.10743457,6.5454425 C6.61778952,6.53142176 7.15338181,6.11640784 7.29919751,5.62287778 L7.89648106,3.5898704 C8.03949261,3.09634033 8.30027838,3.08792789 8.47413557,3.57304551 L9.19199748,5.57801141 C9.36585466,6.06312903 9.92388013,6.46131806 10.4342351,6.46692635 L12.3775097,6.48655539 C12.8878647,6.49216369 12.988814,6.7725785 12.6046457,7.10907627 L11.1268597,8.40459269 C10.7398872,8.74109046 10.5407927,9.42249845 10.6838043,9.91602852 L11.1577053,11.553651 C11.2979127,12.0471811 11.0595601,12.2322549 10.6249172,11.9630566 L10.6249172,11.9630566 Z M16.0481396,10.1655977 L16.0481396,5.35087541 L16.0481396,0.491286748 C14.9433052,0.174418012 13.7767796,0.00056082962 12.5709959,0.00056082962 C5.62792524,0.00056082962 0,5.62848607 0,12.5715568 C0,13.5866584 0.120578368,14.5709144 0.347714365,15.5159123 L16.0481396,15.5159123 L16.0481396,10.1655977 Z" id="Fill-30" fill="#4375C5"></path>
                <path d="M10.6846455,9.91658935 C10.541634,9.42305928 10.7407285,8.74165129 11.1248968,8.40515352 L12.605487,7.1096371 C12.9896553,6.77313933 12.8887059,6.49272452 12.378351,6.48711622 L10.4350763,6.46748718 C9.92472138,6.46187889 9.36389176,6.06088571 9.19283872,5.57857223 L8.47497681,3.57360634 C8.30111963,3.08848872 8.04033385,3.09690116 7.89451815,3.59043123 L7.30003876,5.6234386 C7.15422305,6.11696867 6.61863077,6.53198259 6.10827581,6.54600333 L4.20425925,6.59928214 C3.6939043,6.61330288 3.59295496,6.89932599 3.9799274,7.23582376 L5.33993923,8.41356597 C5.72691167,8.74725959 5.94563522,9.43147173 5.82505685,9.93061009 L5.37639316,11.7897603 C5.25581479,12.2917028 5.49697153,12.4571475 5.91478959,12.162712 L7.49632912,11.0382486 C7.91414719,10.7410089 8.61238007,10.7185757 9.04702302,10.9877739 L10.6257584,11.9636175 C11.0604014,12.2328157 11.2987539,12.0477419 11.1557424,11.5542118 L10.6846455,9.91658935 Z" id="Fill-32" fill="#F2F6FF"></path>
                <path d="M12.5709959,24.6092037 C5.92236079,24.6092037 0.532788139,19.2196311 0.532788139,12.5738001 C0.532788139,5.92516494 5.92236079,0.535592288 12.5709959,0.535592288 C19.2196311,0.535592288 24.6092037,5.92516494 24.6092037,12.5738001 C24.6092037,19.2196311 19.2196311,24.6092037 12.5709959,24.6092037 M12.5709959,0 C5.62792524,0 0,5.62792524 0,12.5738001 C0,19.5168708 5.62792524,25.144796 12.5709959,25.144796 C19.5140666,25.144796 25.1419919,19.5168708 25.1419919,12.5738001 C25.1419919,5.62792524 19.5140666,0 12.5709959,0" id="Fill-34"></path>
            </g>
        </g>
    </g>
</svg>