<?xml version="1.0" encoding="utf-8"?>
<!-- Generator: Adobe Illustrator 19.1.0, SVG Export Plug-In . SVG Version: 6.00 Build 0)  -->
<svg version="1.1" id="Слой_1" xmlns="http://www.w3.org/2000/svg" xmlns:xlink="http://www.w3.org/1999/xlink" x="0px" y="0px"
	 viewBox="252.6400146 365.9450073 90 110" style="enable-background:new 252.6400146 365.9450073 90 110;" xml:space="preserve">
<style type="text/css">
	.st0{fill:#FFFFFF;}
	.st1{fill:url(#SVGID_1_);}
</style>
<g>
	<g>
		<g>
			<path class="st0" d="M325.9452209,475.9450073l-0.0044556-0.1085815c-0.04953-1.1652527-1.0071106-2.0963135-2.1847534-2.0957336
				l0,0c-1.1773376-0.0005798-2.1343079,0.930481-2.1847534,2.0957336l0,0l-0.004425,0.1079712h-2.2481995l-0.0044556-0.1079712
				c-0.04953-1.1652527-1.0071106-2.0963135-2.1841431-2.0957336l0,0c-1.1779785-0.0005798-2.1358337,0.930481-2.1848145,2.0957336
				l0,0l-0.0050049,0.1085815h-2.2481995l-0.0043945-0.1085815c-0.0489807-1.1652527-1.0065613-2.0963135-2.1842041-2.0957336l0,0
				c-1.177948-0.0005798-2.1351929,0.930481-2.1847534,2.0957336l0,0l-0.004425,0.1079712h-2.2488098l-0.0043945-0.1079712
				c-0.0495911-1.1652527-1.0068359-2.0963135-2.1842041-2.0957336l0,0
				c-1.1776123-0.0005798-2.1352234,0.930481-2.1847534,2.0957336l0,0l-0.0044556,0.1085815h-2.2481689l-0.004425-0.1085815
				c-0.0495911-1.1652527-1.0074463-2.0963135-2.1847839-2.0957336l0,0c-1.1776428-0.0005798-2.134613,0.930481-2.1841736,2.0957336
				l0,0l-0.0050354,0.1079712h-2.2484741l-0.004425-0.1079712c-0.0495605-1.1652527-1.0065308-2.0963135-2.1838989-2.0957336l0,0
				c-1.1776123-0.0005798-2.1361084,0.930481-2.1847534,2.0957336l0,0l-0.0053101,0.1085815h-2.247467l-0.004425-0.1085815
				c-0.0495605-1.1652527-1.0072937-2.0963135-2.1847839-2.0957336l0,0c-1.1774597-0.0005798-2.1352234,0.930481-2.184021,2.0957336
				l0,0l-0.004425,0.1079712h-2.2489624l-0.0043945-0.1079712c-0.0495911-1.1652527-1.0072937-2.0963135-2.1842041-2.0957336l0,0
				c-1.1774597-0.0005798-2.1358032,0.930481-2.1847534,2.0957336l0,0l-0.0050354,0.1085815h-2.2483215l-0.004425-0.1085815
				c-0.0488281-1.1652527-1.0065308-2.0963135-2.1840515-2.0957336l0,0
				c-1.1774597-0.0005798-2.1352234,0.930481-2.1847534,2.0957336l0,0l-0.0044556,0.1079712h-2.2489014l-0.004425-0.1079712
				c-0.0489807-1.1652527-1.0067139-2.0963135-2.1842041-2.0957336l0,0c-1.1774902-0.0005798-2.1351929,0.930481-2.184021,2.0957336
				l0,0l-0.0051575,0.1085815h-2.2481995l-0.004425-0.1085815c-0.0489807-1.1652527-1.0072937-2.0963135-2.1847534-2.0957336l0,0
				c-1.1775208-0.0005798-2.1346283,0.930481-2.1842041,2.0957336l0,0l-0.0044098,0.1085815h-1.7402191l-0.0336304-0.0477905
				c-0.2126923-0.2932434-0.4953156-0.5316162-0.8249664-0.6903381l0,0l-0.0635681-0.0312805v-2.3435364l0.1035614-0.0082397
				c1.122879-0.0932312,2.0062866-1.0325317,2.0062866-2.1795349l0,0c0-1.147583-0.8834076-2.0868835-2.0062866-2.1801147l0,0
				l-0.1035614-0.0088501v-2.2491455l0.1035614-0.0088501c1.122879-0.0932007,2.0062866-1.0319214,2.0062866-2.1795044l0,0
				c0-1.1481628-0.8834076-2.0874939-2.0062866-2.1806946l0,0l-0.1035614-0.0082397v-2.2497559l0.1035614-0.0082397
				c1.122879-0.0932312,2.0062866-1.0325623,2.0062866-2.1795349l0,0c0-1.147583-0.8834076-2.0869141-2.0062866-2.180542l0,0
				l-0.1035614-0.0088501v-2.2488708l0.1035614-0.0088501c1.122879-0.092926,2.0062866-1.0322571,2.0062866-2.1798096l0,0
				c0-1.1470032-0.8834076-2.0868835-2.0062866-2.179657l0,0l-0.1035614-0.0088501v-2.2496033l0.1035614-0.0082397
				c1.122879-0.0933838,2.0062866-1.0326843,2.0062866-2.1798401l0,0c0-1.147583-0.8834076-2.0868835-2.0062866-2.1802673l0,0
				l-0.1041565-0.0089722v-2.2488708l0.1041565-0.0082397c1.122879-0.0933838,2.0062866-1.0334167,2.0062866-2.1804199l0,0
				c0-1.1477356-0.8834076-2.0870361-2.0062866-2.1798096l0,0l-0.1035614-0.0088501v-2.2496033l0.1035614-0.0082397
				c1.122879-0.0933533,2.0062866-1.0326843,2.0062866-2.1803894l0,0c0-1.1470032-0.8834076-2.0869141-2.0062866-2.179657l0,0
				l-0.1041565-0.0088806v-2.2489929l0.1041565-0.0088501c1.122879-0.0933533,2.0062866-1.0326538,2.0062866-2.1798096l0,0
				c0-1.147583-0.8834076-2.0869141-2.0062866-2.1802673l0,0l-0.1035614-0.0082703v-2.2495728l0.1035614-0.0090027
				c1.122879-0.0926208,2.0062866-1.0326538,2.0062866-2.179657l0,0c0-1.1470032-0.8834076-2.0870361-2.0062866-2.1804199l0,0
				l-0.1041565-0.0082397v-2.2496033l0.1041565-0.0082397c1.122879-0.0933838,2.0062866-1.0332642,2.0062866-2.1804199l0,0
				c0-1.1470032-0.8834076-2.0868835-2.0062866-2.179657l0,0l-0.1035614-0.0088501v-2.2495728l0.1035614-0.0082703
				c1.122879-0.0933533,2.0062866-1.0328369,2.0062866-2.1798096l0,0c0-1.147583-0.8834076-2.0870361-2.0062866-2.1802673l0,0
				l-0.1041565-0.0089722v-2.2490234l0.1041565-0.0081177c1.122879-0.0933533,2.0062866-1.0333862,2.0062866-2.1803894l0,0
				c0-1.1470032-0.8834076-2.0870361-2.0062866-2.1798096l0,0l-0.1035614-0.0088501v-2.2496033l0.1035614-0.0082397
				c1.122879-0.0933838,2.0062866-1.0326843,2.0062866-2.1796875l0,0c0-1.1477356-0.8834076-2.087616-2.0062866-2.1803894l0,0
				l-0.1041565-0.0088501v-2.2490234l0.1041565-0.0088501c1.122879-0.0933533,2.0062866-1.0328064,2.0062866-2.1798096l0,0
				c0-1.1475525-0.8834076-2.0870361-2.0062866-2.1804199l0,0l-0.1035614-0.0088196v-2.2489929l0.1035614-0.0088806
				c1.122879-0.0925903,2.0062866-1.0326538,2.0062866-2.1796265l0,0c0-1.1470032-0.8834076-2.0870667-2.0062866-2.1804199l0,0
				l-0.1041565-0.0082397v-2.2496033l0.1041565-0.0082397c1.122879-0.0933838,2.0062866-1.0332947,2.0062866-2.1804199l0,0
				c0-1.1470032-0.8834076-2.0868835-2.0062866-2.179657l0,0l-0.1041565-0.0088501v-1.6501465l0.0641632-0.030365
				c0.5511932-0.2662659,0.9736633-0.7546692,1.1501923-1.3496704l0,0l0.0240479-0.0812988h1.4258728l0.010788,0.1016541
				c0.1162415,1.0987549,1.0459137,1.9567871,2.1765289,1.9560547l0,0c1.1304321,0.0007324,2.0608215-0.8572998,2.1770935-1.9560547
				l0,0l0.0107422-0.1016541h2.2508545l0.0113525,0.1016541c0.1162415,1.0987549,1.0460815,1.9567871,2.1765137,1.9560547l0,0
				c1.1304626,0.0007324,2.0603027-0.8572998,2.1765442-1.9560547l0,0l0.0107422-0.1016541h2.2521973l0.0100098,0.1016541
				c0.1162415,1.0987549,1.0466614,1.9567871,2.1772461,1.9560547l0,0c1.1298523,0.0007324,2.0603027-0.8572998,2.1765137-1.9560547
				l0,0l0.0107727-0.1016541h2.2514648l0.0107422,0.1016541c0.1162415,1.0987549,1.0466614,1.9567871,2.1770935,1.9560547l0,0
				c1.1298828,0.0007324,2.0602722-0.8572998,2.1765137-1.9560547l0,0l0.0108032-0.1016541h2.2514343l0.0107422,0.1016541
				c0.1162415,1.0987549,1.0460815,1.9567871,2.1765137,1.9560547l0,0c1.1306152,0.0007324,2.0602722-0.8572998,2.1770935-1.9560547
				l0,0l0.0109558-0.1016541h2.2500916l0.0112,0.1016541c0.1162415,1.0987549,1.0466614,1.9567871,2.1773987,1.9560547l0,0
				c1.1304321,0.0007324,2.0602722-0.85672,2.1765137-1.9560547l0,0l0.0106201-0.1016541h2.2514648l0.0108948,0.1016541
				c0.1162415,1.0993347,1.0460815,1.9567871,2.1765137,1.9560547l0,0c1.1304626,0.0007324,2.0602722-0.8572998,2.1770935-1.9560547
				l0,0l0.0100403-0.1016541h2.2514343l0.0109253,0.1016541c0.1168213,1.0987549,1.0466614,1.9567871,2.1770935,1.9560547l0,0
				c1.1304321,0.0007324,2.0602722-0.8572998,2.1765137-1.9560547l0,0l0.0106201-0.1016541h2.2514648l0.0108948,0.1016541
				c0.1168213,1.0987549,1.0466614,1.9567871,2.1770935,1.9560547l0,0c1.1298828,0.0007324,2.0602722-0.8572998,2.1765137-1.9560547
				l0,0l0.0108948-0.1016541h2.2505798l0.0115051,0.1016541c0.1162415,1.0987549,1.0460815,1.9567871,2.177124,1.9560547l0,0
				c1.1304016,0.0007324,2.0596619-0.85672,2.1764832-1.9560547l0,0l0.0103149-0.1016541h2.2514648l0.0112,0.1016541
				c0.1162415,1.0993347,1.0460815,1.9567871,2.1765137,1.9560547l0,0c1.1307373,0.0007324,2.0602722-0.8572998,2.1773987-1.9560547
				l0,0l0.0100098-0.1016541h2.250885l0.0115051,0.1016541c0.1162415,1.0987549,1.0464783,1.9567871,2.1769409,1.9560547l0,0
				c1.1298523,0.0007324,2.0596924-0.8572998,2.1765137-1.9560547l0,0l0.0106201-0.1016541h2.2514343l0.0112305,0.1016541
				c0.1162415,1.0987549,1.046051,1.9567871,2.1765137,1.9560547l0,0c1.1304321,0.0007324,2.0602722-0.8572998,2.1765137-1.9560547
				l0,0l0.0105896-0.1016541h1.8656006l0.0247803,0.0812988c0.2088318,0.7068176,0.7658081,1.2651367,1.4726257,1.4758911l0,0
				l0.0808411,0.0242004v1.5300903l-0.1038208,0.0088501c-1.1227722,0.0933533-2.0065918,1.0326538-2.0065918,2.179657l0,0
				c0,1.1471252,0.8838196,2.0870361,2.0065918,2.1804199l0,0l0.1038208,0.0082397v2.2496033l-0.1038208,0.0082397
				c-1.1227722,0.0933533-2.0065918,1.0334167-2.0065918,2.1804199l0,0c0,1.1469727,0.8838196,2.0862732,2.0065918,2.1796265l0,0
				l0.103241,0.0083008v2.2501526l-0.103241,0.0082397c-1.1227722,0.0933838-2.0065918,1.0328674-2.0065918,2.1804199l0,0
				c0,1.1470032,0.8838196,2.0864563,2.0065918,2.1798096l0,0l0.1038208,0.0082703v2.2496033l-0.1038208,0.0088501
				c-1.1227722,0.0933533-2.0065918,1.0326538-2.0065918,2.1803894l0,0c0,1.1464233,0.8838196,2.0863037,2.0065918,2.1796875l0,0
				l0.103241,0.0082397v2.2496033l-0.103241,0.0088501c-1.1227722,0.0933838-2.0065918,1.0328064-2.0065918,2.1798096l0,0
				c0,1.1470032,0.8838196,2.0870361,2.0065918,2.1803894l0,0l0.1038208,0.0081177v2.2497253l-0.1038208,0.0082703
				c-1.1227722,0.0932312-2.0065918,1.0332642-2.0065918,2.1802673l0,0c0,1.1469727,0.8838196,2.0864563,2.0065918,2.1798096l0,0
				l0.103241,0.0082703v2.2495728l-0.103241,0.0088501c-1.1227722,0.0933533-2.0065918,1.0326538-2.0065918,2.179657l0,0
				c0,1.1471558,0.8838196,2.0870361,2.0065918,2.1804199l0,0l0.1038208,0.0082397v2.2496033l-0.1038208,0.0082397
				c-1.1227722,0.0933838-2.0065918,1.0334167-2.0065918,2.1804199l0,0c0,1.1470032,0.8838196,2.0863037,2.0065918,2.179657l0,0
				l0.103241,0.0082703v2.2503052l-0.103241,0.0082703c-1.1227722,0.0933533-2.0065918,1.0326843-2.0065918,2.1802673l0,0
				c0,1.1471558,0.8838196,2.0864563,2.0065918,2.1798096l0,0l0.1038208,0.0082703v2.2495728l-0.1038208,0.0088806
				c-1.1227722,0.0933228-2.0065918,1.0326538-2.0065918,2.179657l0,0c0,1.1471558,0.8838196,2.0870361,2.0065918,2.1803894l0,0
				l0.103241,0.0082397v2.2496033l-0.103241,0.0088501c-1.1227722,0.0933838-2.0065918,1.0328064-2.0065918,2.1798096l0,0
				c0,1.1470032,0.8838196,2.0863342,2.0065918,2.1804199l0,0l0.1038208,0.0082397v2.2496033l-0.1038208,0.0082397
				c-1.1227722,0.0933838-2.0065918,1.0332947-2.0065918,2.1802673l0,0c0,1.1471558,0.8838196,2.0864563,2.0065918,2.1798401l0,0
				l0.103241,0.0082397v2.2496033l-0.103241,0.0088501c-1.1227722,0.0933838-2.0065918,1.0326538-2.0065918,2.179657l0,0
				c0,1.1470032,0.8838196,2.0863037,2.0065918,2.1798096l0,0l0.103241,0.0082703v2.2500305l-0.103241,0.0082703
				c-1.1227722,0.0936279-2.0065918,1.032959-2.006012,2.180542l0,0c-0.0005798,1.1469727,0.8832397,2.0863037,2.006012,2.1795349
				l0,0l0.103241,0.0082397v2.2497559l-0.103241,0.0082397c-1.1227722,0.093811-2.0065918,1.0331116-2.006012,2.1806946l0,0
				c-0.0005798,1.1463928,0.8832397,2.0863037,2.006012,2.1795044l0,0l0.103241,0.0082703v2.2497253l-0.103241,0.0088501
				c-1.1227722,0.0932312-2.0065918,1.0325317-2.006012,2.1801147l0,0c-0.0005798,1.1463928,0.8832397,2.0857239,2.006012,2.1795349
				l0,0l0.103241,0.0082397v2.2237549l-0.0802612,0.0242004c-0.4672546,0.1398621-0.8684692,0.4313049-1.1475525,0.8177795l0,0
				l-0.03479,0.0466003h-2.1794739l-0.0047302-0.1079712c-0.0489502-1.1652527-1.0065308-2.0963135-2.1835632-2.0957336l0,0
				c-1.1776733-0.0005798-2.134613,0.930481-2.1842041,2.0957336l0,0l-0.0053101,0.1079712h-2.2484741l-0.0041504-0.1079712
				c-0.0495605-1.1652527-1.0065308-2.0963135-2.1841736-2.0957336l0,0
				c-1.1776428-0.0005798-2.1359558,0.930481-2.1846313,2.0957336l0,0l-0.0053101,0.1085815H325.9452209L325.9452209,475.9450073z
				 M341.2623901,475.7184448c0.2890625-0.3805847,0.6878967-0.6738281,1.151062-0.8295898l0,0v-1.8502808
				c-1.1894531-0.1504822-2.1098328-1.164093-2.1104126-2.3942871l0,0c0.0005798-1.2307739,0.9209595-2.2444153,2.1104126-2.3948669
				l0,0v-1.8373108c-1.1894531-0.1504517-2.1098328-1.1641235-2.1104126-2.3942871l0,0
				c0.0005798-1.2313538,0.9209595-2.2450256,2.1104126-2.3954468l0,0v-1.836731
				c-1.1894531-0.1504517-2.1098328-1.164093-2.1104126-2.3942871l0,0c0.0005798-1.2307739,0.9209595-2.244873,2.1104126-2.39505
				l0,0v-1.8370056c-1.1894531-0.1501465-2.1098328-1.1646729-2.1098328-2.3948669l0,0
				c0-1.2303162,0.9203796-2.243988,2.1098328-2.3948669l0,0v-1.8362732
				c-1.1894531-0.1510315-2.1098328-1.1647034-2.1098328-2.39505l0,0c0-1.2306213,0.9203796-2.2442932,2.1092529-2.3954773l0,0
				v-1.8364258c-1.1888733-0.1505737-2.1092529-1.1648254-2.1092529-2.3948669l0,0
				c0-1.2309265,0.9203796-2.2447205,2.1098328-2.3950195l0,0v-1.836853
				c-1.1894531-0.1502991-2.1098328-1.1639709-2.1098328-2.3950195l0,0c0-1.2300415,0.9203796-2.2441406,2.1092529-2.3948669l0,0
				v-1.8364258c-1.1888733-0.1511841-2.1092529-1.1647034-2.1092529-2.3948975l0,0
				c0-1.2309265,0.9203796-2.2445679,2.1098328-2.3948669l0,0v-1.8370361
				c-1.1894531-0.1502686-2.1098328-1.1639404-2.1098328-2.3948669l0,0c0-1.2301941,0.9203796-2.2442627,2.1092529-2.3948669l0,0
				v-1.8371887c-1.1888733-0.1505737-2.1092529-1.164093-2.1092529-2.3948669l0,0
				c0-1.2303162,0.9203796-2.2439575,2.1098328-2.3948669l0,0v-1.8364258
				c-1.1894531-0.1509094-2.1098328-1.1645508-2.1098328-2.3948669l0,0c0-1.2306213,0.9203796-2.2442932,2.1092529-2.3954773l0,0
				v-1.8364258c-1.1888733-0.1507568-2.1092529-1.1648254-2.1092529-2.3948669l0,0
				c0-1.2309265,0.9203796-2.2447205,2.1098328-2.3950195l0,0v-1.8368835
				c-1.1894531-0.1502991-2.1098328-1.1639404-2.1098328-2.3942871l0,0c0-1.2307739,0.9203796-2.2448425,2.1092529-2.3955994l0,0
				v-1.8364258c-1.1888733-0.1511841-2.1092529-1.1647034-2.1092529-2.3948975l0,0
				c0-1.230896,0.9203796-2.2445679,2.1098328-2.3948669l0,0v-1.8370056
				c-1.1894531-0.1502991-2.1098328-1.1639709-2.1098328-2.3948669l0,0c0-1.2301941,0.9203796-2.2442932,2.1092529-2.3948975l0,0
				v-1.8371582c-1.1888733-0.1506042-2.1092529-1.164093-2.1092529-2.3948669l0,0
				c0-1.2300415,0.9203796-2.2435608,2.1092529-2.3947449l0,0v-1.1567383
				c-0.7145081-0.2413025-1.2785339-0.8063965-1.5180664-1.5217896l0,0h-1.4968262
				c-0.1734619,1.1650085-1.177063,2.0577087-2.388916,2.0577087l0,0c-1.2124634,0-2.2154541-0.8927002-2.388916-2.0577087l0,0
				h-1.8490601c-0.1728821,1.1650085-1.1758728,2.0577087-2.3883362,2.0577087l0,0
				c-1.2124329,0-2.2158813-0.8927002-2.3890686-2.0577087l0,0h-1.8484497
				c-0.1731567,1.1650085-1.1767578,2.0577087-2.3892212,2.0577087l0,0c-1.212738,0-2.2157288-0.8933105-2.388916-2.0577087l0,0
				h-1.8487549c-0.1728821,1.1643982-1.1758728,2.0577087-2.3883057,2.0577087l0,0
				c-1.2127686,0-2.2163696-0.8927002-2.3895264-2.0577087l0,0h-1.848175
				c-0.1731567,1.1650085-1.1764526,2.0577087-2.388916,2.0577087l0,0c-1.2130432,0-2.2157288-0.8927002-2.388916-2.0577087l0,0
				h-1.8487549c-0.1731567,1.1650085-1.1767578,2.0577087-2.388916,2.0577087l0,0
				c-1.2124634,0-2.2157593-0.8927002-2.388916-2.0577087l0,0h-1.8487549
				c-0.1731873,1.1650085-1.176178,2.0577087-2.388916,2.0577087l0,0c-1.2124634,0-2.2154541-0.8933105-2.388916-2.0577087l0,0
				h-1.8487549c-0.1731873,1.1643982-1.176178,2.0577087-2.3883362,2.0577087l0,0
				c-1.2130127,0-2.2160339-0.8927002-2.3892212-2.0577087l0,0h-1.8484497
				c-0.1731873,1.1650085-1.1767578,2.0577087-2.3890686,2.0577087l0,0c-1.2128601,0-2.2158813-0.8927002-2.388916-2.0577087l0,0
				h-1.8487549c-0.1730347,1.1650085-1.1760254,2.0577087-2.3883362,2.0577087l0,0
				c-1.2128906,0-2.2158813-0.8927002-2.3896179-2.0577087l0,0h-1.848053
				c-0.1731567,1.1650085-1.1766052,2.0577087-2.388916,2.0577087l0,0c-1.2130127,0-2.2158813-0.8927002-2.3890381-2.0577087l0,0
				h-1.8486023c-0.1731873,1.1650085-1.1762085,2.0577087-2.3890991,2.0577087l0,0
				c-1.2122803,0-2.2157593-0.8927002-2.3888855-2.0577087l0,0h-1.8482056
				c-0.1737671,1.1650085-1.1766052,2.0577087-2.3894653,2.0577087l0,0c-1.2123108,0-2.2153168-0.8927002-2.388504-2.0577087l0,0
				h-1.0572815c-0.2005768,0.5974121-0.627594,1.0891724-1.1791077,1.3757629l0,0v1.3026123
				c1.1894379,0.1503296,2.109848,1.1639709,2.109848,2.3948975l0,0c0,1.2309265-0.9204102,2.2446899-2.109848,2.3950195l0,0
				v1.8368835c1.1894379,0.1502686,2.109848,1.164093,2.109848,2.3950195l0,0c0,1.230896-0.9204102,2.2445679-2.109848,2.3948669
				l0,0v1.8370056c1.1894379,0.1502991,2.109848,1.1639709,2.109848,2.3948669l0,0
				c0,1.2303467-0.9204102,2.2445984-2.109848,2.3950195l0,0v1.8363037c1.1894379,0.1502991,2.109848,1.1645203,2.109848,2.3955994
				l0,0c0,1.2303467-0.9204102,2.243988-2.109848,2.3942871l0,0v1.8368835
				c1.1894379,0.1502991,2.109848,1.164093,2.109848,2.3950195l0,0c0,1.2309265-0.9204102,2.2445679-2.109848,2.3948669l0,0
				v1.8364258c1.1894379,0.1508789,2.109848,1.1645508,2.109848,2.3954773l0,0c0,1.2303162-0.9204102,2.2445679-2.109848,2.394989
				l0,0v1.8363037c1.1894379,0.1502991,2.109848,1.1639709,2.109848,2.3948669l0,0
				c0,1.2310791-0.9204102,2.244751-2.109848,2.3950195l0,0v1.8368835c1.1894379,0.1502991,2.109848,1.164093,2.109848,2.3950195
				l0,0c0,1.2309265-0.9204102,2.2445984-2.109848,2.3948669l0,0v1.8370361
				c1.1894379,0.1502991,2.109848,1.1639404,2.109848,2.3948669l0,0c0,1.2303467-0.9204102,2.2447205-2.109848,2.39505l0,0
				v1.8362732c1.1894379,0.1502686,2.109848,1.1645203,2.109848,2.3948669l0,0c0,1.2310486-0.9204102,2.2447205-2.109848,2.3950195
				l0,0v1.836853c1.1894379,0.1502991,2.109848,1.164093,2.109848,2.3950195l0,0
				c0,1.2309265-0.9204102,2.2445984-2.109848,2.3948669l0,0v1.8364258c1.1894379,0.1509094,2.109848,1.1645508,2.109848,2.3954773
				l0,0c0,1.2303467-0.9204102,2.2447205-2.109848,2.39505l0,0v1.8362732
				c1.1894379,0.1502686,2.109848,1.1639404,2.1104279,2.3948669l0,0c-0.0005798,1.2310486-0.92099,2.2447205-2.1104279,2.3948669
				l0,0v1.8370056c1.1894379,0.1495972,2.109848,1.1642761,2.109848,2.39505l0,0
				c0,1.2301941-0.9204102,2.2438354-2.109848,2.3942871l0,0v1.836731c1.1894379,0.1504211,2.109848,1.164093,2.109848,2.3954468
				l0,0c0,1.2307739-0.9204102,2.2444458-2.109848,2.3948669l0,0v1.836731
				c1.1894379,0.1498718,2.109848,1.1634827,2.109848,2.3948669l0,0c0,1.2301941-0.9204102,2.2438049-2.109848,2.3942871l0,0
				v1.9966125c0.3187561,0.1646118,0.5948944,0.3988647,0.8106689,0.6826477l0,0h1.4109955
				c0.1070862-1.234314,1.140625-2.2042847,2.4032288-2.2042847l0,0c1.2631531,0,2.2966919,0.9699707,2.4037781,2.2042847l0,0
				h1.8190002c0.107666-1.234314,1.1411743-2.2042847,2.4037781-2.2042847l0,0c1.2634888,0,2.2966003,0.9699707,2.4038086,2.204895
				l0,0h1.8190002c0.106781-1.2349243,1.1404724-2.204895,2.4039307-2.204895l0,0
				c1.2626038,0,2.2961426,0.9699707,2.403656,2.2042847l0,0h1.818573c0.1076355-1.234314,1.1412048-2.2042847,2.4043579-2.2042847
				l0,0c1.2629089,0,2.2966003,0.9699707,2.4032288,2.204895l0,0h1.8189697
				c0.1073608-1.2349243,1.1408997-2.204895,2.4038086-2.204895l0,0c1.2626038,0,2.2961426,0.9699707,2.4038086,2.2042847l0,0
				h1.8189697c0.107666-1.234314,1.1404724-2.2042847,2.4039612-2.2042847l0,0c1.2634888,0,2.2962952,0.9699707,2.4030762,2.204895
				l0,0h1.8195496c0.106781-1.2349243,1.1398926-2.204895,2.4033813-2.204895l0,0c1.2631836,0,2.29599,0.9699707,2.403656,2.2042847
				l0,0h1.8192749c0.1073608-1.234314,1.1404724-2.2042847,2.403656-2.2042847l0,0
				c1.2634888,0,2.2965698,0.9699707,2.403656,2.204895l0,0h1.8189697c0.106781-1.2349243,1.1404724-2.204895,2.4039612-2.204895
				l0,0c1.2626038,0,2.2962952,0.9699707,2.4036865,2.2042847l0,0h1.8186646
				c0.107666-1.234314,1.1410522-2.2042847,2.4042664-2.2042847l0,0c1.2628784,0,2.2965698,0.9699707,2.4033508,2.204895l0,0
				h1.8189697c0.1073914-1.2349243,1.1401672-2.204895,2.403656-2.204895l0,0c1.2634888,0,2.2962952,0.9699707,2.4039612,2.2042847
				l0,0h1.8189697c0.1076965-1.234314,1.140625-2.2042847,2.4038086-2.2042847l0,0
				c1.2632141,0,2.2962952,0.9699707,2.4030762,2.204895l0,0h1.8195801c0.106781-1.2349243,1.1398621-2.204895,2.403656-2.204895
				l0,0c1.2631836,0,2.2962646,0.9699707,2.403656,2.204895l0,0H341.2623901L341.2623901,475.7184448z"/>
			<path class="st0" d="M340.4169006,470.6442871c0-1.2065735,0.9286804-2.1948547,2.1098328-2.2927856v-2.0408936
				c-1.1811523-0.0985107-2.1098328-1.0862122-2.1098328-2.2927856c0-1.206604,0.9286804-2.1948853,2.1098328-2.2928162v-2.040863
				c-1.1811523-0.0985107-2.1098328-1.0861816-2.1098328-2.2927856s0.9286804-2.1947327,2.1098328-2.2929688v-2.040863
				c-1.1811523-0.0982361-2.1098328-1.0862122-2.1098328-2.2927856c0-1.206604,0.9286804-2.1946106,2.1098328-2.2928162v-2.040863
				c-1.1811523-0.0982361-2.1098328-1.0862122-2.1098328-2.2928162c0-1.2065735,0.9286804-2.1948547,2.1098328-2.2930908v-2.0405884
				c-1.1811523-0.0982361-2.1098328-1.0864868-2.1098328-2.2930908c0-1.2065735,0.9286804-2.1945496,2.1098328-2.2927856v-2.0408936
				c-1.1811523-0.0982361-2.1098328-1.0862122-2.1098328-2.2927551c0-1.206604,0.9286804-2.1948853,2.1098328-2.2931519v-2.0405273
				c-1.1811523-0.0982361-2.1098328-1.0865173-2.1098328-2.2931213c0-1.2065735,0.9286804-2.1945496,2.1098328-2.2927856v-2.0408936
				c-1.1811523-0.0982361-2.1098328-1.0862122-2.1098328-2.2927856s0.9286804-2.1948547,2.1098328-2.2930908v-2.0405579
				c-1.1811523-0.0982666-2.1098328-1.0865479-2.1098328-2.2931213c0-1.206604,0.9286804-2.1945801,2.1098328-2.2928162v-2.0408325
				c-1.1811523-0.0982361-2.1098328-1.0862427-2.1098328-2.2928162c0-1.206604,0.9286804-2.1948853,2.1098328-2.2931213v-2.0405579
				c-1.1811523-0.0982361-2.1098328-1.0865173-2.1098328-2.2930908s0.9286804-2.1945496,2.1098328-2.2927856v-2.0408936
				c-1.1811523-0.0982361-2.1098328-1.0862122-2.1098328-2.2927856c0-1.206604,0.9286804-2.1948853,2.1098328-2.2931213v-2.0405579
				c-1.1811523-0.0982361-2.1098328-1.0865173-2.1098328-2.2931213c0-1.2065735,0.9286804-2.1945496,2.1098328-2.2927856v-2.040863
				c-1.1811523-0.0982361-2.1098328-1.0862427-2.1098328-2.2927856c0-1.2066345,0.9286804-2.1948547,2.1098328-2.2930908v-2.0405884
				c-1.1811523-0.0982361-2.1098328-1.0865173-2.1098328-2.2930908c0-1.206604,0.9286804-2.1945801,2.1098328-2.2928162v-1.3415527
				c-0.7433777-0.2217102-1.3286743-0.8083191-1.5487366-1.5524902h-1.6797485
				c-0.1221313,1.1565857-1.1003418,2.0579834-2.2891846,2.0579834c-1.1888733,0-2.1665039-0.9013977-2.2892151-2.0579834
				h-2.0478821c-0.1221313,1.1565857-1.1003418,2.0579834-2.2892151,2.0579834
				c-1.1888428,0-2.1669312-0.9013977-2.2893677-2.0579834h-2.0475769
				c-0.1224365,1.1565857-1.1003418,2.0579834-2.2894897,2.0579834s-2.1668091-0.9013977-2.2891846-2.0579834H319.41922
				c-0.1224365,1.1565857-1.1000366,2.0579834-2.2891846,2.0579834c-1.1891785,0-2.1670837-0.9013977-2.2894897-2.0579834
				h-2.0476379c-0.122406,1.1565857-1.1006165,2.0579834-2.2894897,2.0579834c-1.1888428,0-2.1667786-0.9013977-2.2891846-2.0579834
				h-2.0479126c-0.1224365,1.1565857-1.1003418,2.0579834-2.2891846,2.0579834
				c-1.1888733,0-2.1670532-0.9013977-2.2894897-2.0579834h-2.0476074
				c-0.1224365,1.1565857-1.1003418,2.0579834-2.2894897,2.0579834c-1.1891785,0-2.1667786-0.9013977-2.2892151-2.0579834
				h-2.0478821c-0.122406,1.1565857-1.1000671,2.0579834-2.2892151,2.0579834s-2.1670532-0.9013977-2.2894897-2.0579834h-2.0476074
				c-0.1224365,1.1565857-1.1004944,2.0579834-2.2894897,2.0579834s-2.1669312-0.9013977-2.2891846-2.0579834h-2.0478821
				c-0.1222839,1.1565857-1.1002197,2.0579834-2.2892456,2.0579834c-1.1889954,0-2.1670532-0.9013977-2.2894897-2.0579834
				h-2.0475769c-0.1224365,1.1565857-1.1004944,2.0579834-2.2895203,2.0579834
				c-1.1889648,0-2.1669006-0.9013977-2.2891846-2.0579834h-2.0478821
				c-0.1222839,1.1565857-1.1002197,2.0579834-2.2891846,2.0579834c-1.1890259,0-2.1671143-0.9013977-2.2895203-2.0579834
				h-2.0476074c-0.122406,1.1565857-1.1004944,2.0579834-2.2895203,2.0579834c-1.1889648,0-2.1668854-0.9013977-2.2891693-2.0579834
				h-1.2398834c-0.1852722,0.6263123-0.6298218,1.1396179-1.2090607,1.419281v1.474762
				c1.1811676,0.0979309,2.1100006,1.0860596,2.1100006,2.2928162c0,1.2067261-0.928833,2.1950073-2.1100006,2.2930908v2.0405884
				c1.1811676,0.0980835,2.1100006,1.0863647,2.1100006,2.2930908c0,1.2066956-0.928833,2.1948242-2.1100006,2.2927856v2.040863
				c1.1811676,0.0979309,2.1100006,1.0860596,2.1100006,2.2927856c0,1.2067566-0.928833,2.1950073-2.1100006,2.2931213v2.0405579
				c1.1811676,0.0980835,2.1100006,1.0863647,2.1100006,2.2931213c0,1.2067261-0.928833,2.1948547-2.1100006,2.2927856v2.0408936
				c1.1811676,0.0979309,2.1100006,1.0860596,2.1100006,2.2927856s-0.928833,2.1950073-2.1100006,2.2930908v2.0405579
				c1.1811676,0.098114,2.1100006,1.0863953,2.1100006,2.2931213s-0.928833,2.1948547-2.1100006,2.2928162v2.0408325
				c1.1811676,0.0979309,2.1100006,1.0860901,2.1100006,2.2928162s-0.928833,2.1950073-2.1100006,2.2931213v2.0405579
				c1.1811676,0.0980835,2.1100006,1.0863647,2.1100006,2.2930908s-0.928833,2.1948547-2.1100006,2.2927856v2.0408936
				c1.1811676,0.0979309,2.1100006,1.0860596,2.1100006,2.2927856c0,1.2067566-0.928833,2.1950378-2.1100006,2.2931213v2.0405273
				c1.1811676,0.0981445,2.1100006,1.0863647,2.1100006,2.2931519c0,1.2066956-0.928833,2.1948547-2.1100006,2.2927551v2.0408936
				c1.1811676,0.0979309,2.1100006,1.0860596,2.1100006,2.2927856s-0.928833,2.1950073-2.1100006,2.2930908v2.0405884
				c1.1811676,0.0980835,2.1100006,1.0863647,2.1100006,2.2930908c0,1.2067566-0.928833,2.1948853-2.1100006,2.2928162v2.040863
				c1.1811676,0.0979614,2.1100006,1.0860901,2.1100006,2.2928162c0,1.2068481-0.928833,2.1948547-2.1100006,2.2927856v2.040863
				c1.1811676,0.0979309,2.1100006,1.0857849,2.1100006,2.2929688c0,1.206604-0.928833,2.1948547-2.1100006,2.2927856v2.040863
				c1.1811676,0.0979309,2.1100006,1.0856323,2.1100006,2.2928162c0,1.2065735-0.928833,2.1948547-2.1100006,2.2927856v2.0408936
				c1.1811676,0.0979309,2.1100006,1.0856018,2.1100006,2.2927856c0,1.206604-0.928833,2.1948547-2.1100006,2.2928162v2.1683044
				c0.346344,0.1669617,0.6439667,0.4171143,0.8673096,0.7263184h1.5733795
				c0.0517883-1.2254944,1.0588989-2.2043152,2.2974243-2.2043152c1.2385864,0,2.2460327,0.9788208,2.2977905,2.2043152h2.0310669
				c0.0517578-1.2254944,1.0592041-2.2043152,2.2977905-2.2043152c1.2385559,0,2.245697,0.9788208,2.2974243,2.2043152h2.0313721
				c0.0517578-1.2254944,1.0588989-2.2043152,2.2974548-2.2043152c1.2385864,0,2.2460022,0.9788208,2.2977905,2.2043152h2.0310669
				c0.0517578-1.2254944,1.0591736-2.2043152,2.2977295-2.2043152c1.2385864,0,2.245697,0.9788208,2.2974854,2.2043152h2.0313721
				c0.0517578-1.2254944,1.0588989-2.2043152,2.2974548-2.2043152s2.2459717,0.9788208,2.29776,2.2043152h2.0310974
				c0.0518799-1.2254944,1.059021-2.2043152,2.2977295-2.2043152s2.2455444,0.9788208,2.2974854,2.2043152h2.0313721
				c0.0519104-1.2254944,1.0587463-2.2043152,2.2974548-2.2043152c1.238678,0,2.2458191,0.9788208,2.2977295,2.2043152h2.0310974
				c0.0519104-1.2254944,1.0590515-2.2043152,2.29776-2.2043152s2.2455444,0.9788208,2.2974548,2.2043152h2.0313721
				c0.0519104-1.2254944,1.0587463-2.2043152,2.2974548-2.2043152s2.2458496,0.9788208,2.29776,2.2043152h2.0310669
				c0.0519409-1.2254944,1.059082-2.2043152,2.2977905-2.2043152c1.238678,0,2.2455139,0.9788208,2.2974243,2.2043152h2.0313721
				c0.0519409-1.2254944,1.0587769-2.2043152,2.2974854-2.2043152s2.2458496,0.9788208,2.2977295,2.2043152h2.0310974
				c0.0519409-1.2254944,1.0592041-2.2043152,2.2976074-2.2043152c1.2390137,0,2.2455444,0.9788208,2.2974548,2.2043152h2.0313721
				c0.0519409-1.2254944,1.059082-2.2043152,2.2974854-2.2043152c1.2389832,0,2.2455444,0.9788208,2.2974548,2.2043152h2.0130615
				c0.2938538-0.4065247,0.7156982-0.7133179,1.2071533-0.8596497v-2.0349731
				C341.3455811,472.838562,340.4169006,471.8508911,340.4169006,470.6442871z"/>
		</g>
		
			<linearGradient id="SVGID_1_" gradientUnits="userSpaceOnUse" x1="297.6403809" y1="470.6446838" x2="297.6403809" y2="371.2453918" gradientTransform="matrix(1 0 0 -1 0 841.8900146)">
			<stop  offset="0" style="stop-color:#E1C030"/>
			<stop  offset="1" style="stop-color:#CDA33C"/>
		</linearGradient>
		<polygon class="st1" points="336.8407898,470.6445923 258.4400024,470.6445923 258.4400024,371.2453003 336.8407898,371.2453003 
					"/>
	</g>
	<g>
		<path class="st0" d="M290.6159973,463.2816162c-0.1275635,0.1849976-0.3601074,0.3575745-0.6974182,0.5175781
			c-0.3371582,0.1603394-0.7622986,0.2403564-1.2754517,0.2403564c-0.6615601,0-1.2039185-0.2252502-1.6270142-0.6758728
			c-0.4232788-0.4506531-0.6349182-1.0339355-0.6349182-1.7502441v-1.0431213c0-0.703186,0.2011108-1.276123,0.6036682-1.7189636
			c0.4021912-0.4428101,0.9238281-0.6641541,1.5645142-0.6641541c0.6119995,0,1.0906372,0.1530457,1.435791,0.459137
			c0.3449707,0.3059387,0.5448914,0.7037354,0.5995789,1.1934509l-0.0078125,0.0234375H290.14328
			c-0.067749-0.3803101-0.2279358-0.6882935-0.4804993-0.9240417c-0.252594-0.2355957-0.6237183-0.3534851-1.1134033-0.3534851
			c-0.5104065,0-0.9212952,0.1848145-1.2326355,0.5542603c-0.3111572,0.3695984-0.4667664,0.8433533-0.4667664,1.421051v1.0500488
			c0,0.5933228,0.1654358,1.0801392,0.4961548,1.4601135c0.3306885,0.3799744,0.7631531,0.5698853,1.2969971,0.5698853
			c0.377594,0,0.6986084-0.0526733,0.9629211-0.1579895c0.2644653-0.1051331,0.4448547-0.2203064,0.5411377-0.3449707v-1.4816895
			h-1.5118713v-0.3984985h1.9806824V463.2816162z"/>
		<path class="st0" d="M296.9830017,461.5782776c0,0.7344666-0.2011108,1.3283081-0.6036682,1.7814941
			c-0.4022217,0.453186-0.9420166,0.6797791-1.6192322,0.6797791c-0.6666565,0-1.1986694-0.226593-1.5957642-0.6797791
			c-0.3973083-0.453186-0.5958557-1.0470276-0.5958557-1.7814941v-0.9259033c0-0.7319336,0.197876-1.3257446,0.593811-1.7814941
			c0.3959351-0.455719,0.9272461-0.6836853,1.5939026-0.6836853c0.6772156,0,1.2175293,0.2279663,1.6212769,0.6836853
			c0.4037476,0.4557495,0.6055298,1.0495605,0.6055298,1.7814941V461.5782776z M296.5180969,460.6477966
			c0-0.6155701-0.1555786-1.1112366-0.4669189-1.4869385c-0.3111877-0.3755798-0.7427673-0.563446-1.2949829-0.563446
			c-0.5416565,0-0.963562,0.1878662-1.2657471,0.563446c-0.3021851,0.3757019-0.453186,0.8713684-0.453186,1.4869385v0.9350586
			c0,0.6208496,0.1517029,1.1190491,0.4552307,1.494751c0.3033447,0.3757324,0.7259521,0.563446,1.2676086,0.563446
			c0.5547485,0,0.9863586-0.1871948,1.2951355-0.561554c0.3084717-0.3742065,0.4628601-0.8730774,0.4628601-1.4966431V460.6477966z"
			/>
		<path class="st0" d="M299.4825745,463.5589905h2.8127747v0.3984985h-3.2815857v-5.6882324h0.468811V463.5589905z"/>
		<path class="st0" d="M304.0290833,463.957489v-5.6882324h1.6524963c0.6953735,0,1.2696533,0.231842,1.7228394,0.6954041
			c0.453186,0.4635315,0.6797485,1.0587158,0.6797485,1.7853699v0.7305603c0,0.7292175-0.2265625,1.3244019-0.6797485,1.7854004
			s-1.0274658,0.6914978-1.7228394,0.6914978H304.0290833z M304.4939575,458.6677551v4.8912354h1.1876221
			c0.562561,0,1.0255737-0.1963501,1.3887329-0.589386c0.3634949-0.3930664,0.5450745-0.8900757,0.5450745-1.4912109v-0.7417603
			c0-0.5933228-0.182251-1.0864258-0.546936-1.4794922c-0.3646851-0.3928833-0.8268433-0.589386-1.3868713-0.589386H304.4939575z"/>
	</g>
	<g>
		<g id="Rounded_Rectangle_1_4_">
			<g>
				<path class="st0" d="M300.45047,451.0307617h-5.5994568c-1.283783,0-2.328186-1.0443726-2.328186-2.328125v-5.5997009
					c0-1.2837524,1.0444031-2.3281555,2.328186-2.3281555h5.5994568c1.2837524,0,2.3281555,1.0444031,2.3281555,2.3281555v5.5997009
					C302.7786255,449.9863892,301.7342224,451.0307617,300.45047,451.0307617z M294.8510132,440.8016357
					c-1.2689514,0-2.3013306,1.0323486-2.3013306,2.3013v5.5997009c0,1.2689209,1.0323792,2.3013,2.3013306,2.3013h5.5994568
					c1.2689514,0,2.3013306-1.0323792,2.3013306-2.3013v-5.5997009c0-1.2689514-1.0323792-2.3013-2.3013306-2.3013H294.8510132z"/>
			</g>
			<g>
				<path class="st0" d="M300.45047,440.9438782c1.1904907,0,2.1589966,0.9685364,2.1589966,2.1590576v5.5996704
					c0,1.1905212-0.9685059,2.1590576-2.1589966,2.1590576h-5.5994873c-1.1904907,0-2.1590271-0.9685364-2.1590271-2.1590576
					v-5.5996704c0-1.1905212,0.9685364-2.1590576,2.1590271-2.1590576H300.45047 M300.45047,440.6325073h-5.5994873
					c-1.3643799,0-2.4703674,1.1060486-2.4703674,2.4704285v5.5996704c0,1.3643799,1.1059875,2.4704285,2.4703674,2.4704285
					h5.5994873c1.3643494,0,2.4703674-1.1060486,2.4703674-2.4704285v-5.5996704
					C302.9208374,441.7385559,301.8148193,440.6325073,300.45047,440.6325073L300.45047,440.6325073z"/>
			</g>
		</g>
		<path class="st0" d="M293.7078857,436.715271c0.0895386,0.2796326,0.1783447,0.5530396,0.2755432,0.8581848
			c-0.4179993,0.1471863-0.7227783,0.2098083-0.9760132-0.2596436c-1.9326782-3.5826721-3.9884033-7.1060791-5.803894-10.7466431
			c-1.7055359-3.4200439-3.2705994-6.9345703-4.7059631-10.4770508c-0.0222473-0.0549011-0.0437622-0.0778809-0.0659485-0.1852722
			h5.2406311c0.9293213,4.0803833,2.0343323,7.9937439,3.213501,11.9375916
			C291.7722778,430.8075867,292.7637939,433.767334,293.7078857,436.715271z"/>
		<path class="st0" d="M278.8349609,404.3885498h6.6912537c-0.1231995-0.8321838-0.2414551-1.6598816-0.3555298-2.4973755
			c-0.5278931-3.8763428-0.6436157-7.7605286,0.0151062-11.6456604c0.4442139-2.6201172,1.2156067-5.1179199,2.7686768-7.3009338
			c0.699646-0.9833984,1.563385-1.8482361,2.3526611-2.7678528c-0.0029907-0.0331726-0.006012-0.0654602-0.0090332-0.0986023
			c-1.1519775,0.4742126-2.3382263,0.880249-3.4497986,1.4354553c-3.937439,1.9665833-6.5678711,5.081665-7.8901367,9.2768555
			c-1.0231018,3.2461548-1.1196594,6.5628357-0.7221985,9.9118652
			C278.3839417,401.9491882,278.5874329,403.2610779,278.8349609,404.3885498z"/>
		<path class="st0" d="M307.7665405,415.9048462c-0.5516663,2.4160156-1.1589661,4.6941528-1.8150024,7.012146
			c-1.032196,3.6472778-2.1562805,7.2787781-3.2581177,10.9060669c-0.3786316,1.2464905-0.8134155,2.4809875-1.2344666,3.7542419
			c0.7137756,0.1666565,0.7121582,0.1682129,1.0174255-0.3492432c0.194397-0.3294983,0.408844-0.646698,0.5897522-0.9833069
			c1.7290649-3.21698,3.4792175-6.4425964,5.1715088-9.6788635c1.8052673-3.45224,3.3750916-6.929657,4.7836609-10.6610413
			H307.7665405z"/>
		<path class="st0" d="M305.2679443,380.4555664c1.6944275,1.4396362,2.9006958,3.2265015,3.7351685,5.2736816
			c1.1390076,2.7943726,1.5844727,5.7130432,1.6676025,8.7063599c0.0931091,3.3526611-0.206543,6.6242065-0.6856689,9.9529419
			h6.619812c0.3260803-1.6912231,0.5700989-3.1875,0.7078857-4.8240051
			c0.2879028-3.418396,0.0117493-6.7717896-1.2607422-10.0052185c-0.6708069-1.7045288-1.6130981-3.2392578-2.8427429-4.5793152
			c-1.3977356-1.5233459-3.0161743-2.7891541-4.9165039-3.6393433c-1.036377-0.4636536-2.1143188-0.8335571-3.2497864-1.2759094
			c0.0298767,0.178894,0.0266113,0.2026367,0.0366211,0.212677
			C305.140564,380.3385925,305.2021484,380.3997192,305.2679443,380.4555664z"/>
		<path class="st0" d="M277.3205872,418.0343933c-0.3793945-0.6965332-0.7435608-1.3778992-1.0945129-2.1295471h-1.2146606
			c1.9440613,3.5434875,4.1474304,6.7875671,6.4862366,9.9993286c0.577301,0.7927246,1.1810303,1.5762939,1.7726135,2.3586121
			c-0.0827637-0.3133545-0.2504272-0.561676-0.406189-0.8234863
			C281.0061951,424.3163147,279.0575867,421.2232971,277.3205872,418.0343933z"/>
		<path class="st0" d="M270.1480713,404.3885498h1.8633728c-0.5959167-2.6307678-0.8840027-5.2662659-0.6280518-8.0126343
			c0.2983398-3.2015076,1.1672974-6.2130432,2.9342651-8.9317627c0.4132385-0.6358032,0.8699036-1.2398682,1.3066101-1.8604126
			c-1.6452332,1.1959229-3.3833313,3.3157959-4.3567505,5.2203674c-1.9894409,3.8924866-2.2632751,7.9838867-1.4328308,12.196991
			C269.9275818,403.4723511,270.033844,403.8516541,270.1480713,404.3885498z"/>
		<path class="st0" d="M316.9020996,420.261322c-1.0315552,1.8718567-2.1716614,3.6943054-3.2757568,5.5257568
			c-0.4696045,0.7788696-0.9692383,1.5446777-1.4552307,2.3136902c0.0370483,0.0298767,0.0740967,0.0622864,0.111145,0.0921631
			c0.0318298-0.0600586,0.0570374-0.1236572,0.0964355-0.1782227c1.2321167-1.7049561,2.5397339-3.3804932,3.6815186-5.1438904
			c1.4781189-2.2828979,2.901062-4.5499573,4.283844-6.9659729h-1.1571655
			C318.4640808,417.3544617,317.690094,418.8313904,316.9020996,420.261322z"/>
		<path class="st0" d="M322.3421326,389.6985779c1.6454773,3.5975647,2.1100769,7.4013062,1.6751404,11.314209
			c-0.1275024,1.1470642-0.3201294,2.248291-0.5664978,3.3757629h1.8418884
			c0.8603516-3.4361267,1.0700378-6.8384705,0.1437988-10.3192139c-0.9223328-3.4661255-2.8616333-6.2528076-5.645874-8.4754333
			c0.1147156,0.1495667,0.2433472,0.2940674,0.3419189,0.4536133
			C320.8807068,387.2583313,321.754425,388.4136658,322.3421326,389.6985779z"/>
		<path class="st0" d="M295.9543457,424.3209229c0.3055725,3.0539551,0.6421814,6.1160583,0.9769897,9.1680908
			c0.1444397,1.3162537,0.3127136,2.6359863,0.4907837,3.9496155c0.0160522,0.1184692,0.1836243,0.2264099,0.2808838,0.3378601
			c0.1132812-0.1187439,0.2990723-0.226532,0.3265381-0.3567505c0.0896301-0.4256287,0.1273193-0.8579407,0.1749573-1.2887573
			c0.4023743-3.6412659,0.8339539-7.3005981,1.1953735-10.944458c0.3061218-3.0863037,0.6036682-6.1408691,0.8761597-9.2816772
			h-5.1288147C295.3993835,418.6161499,295.6744385,421.5230103,295.9543457,424.3209229z"/>
		<path class="st0" d="M294.2206421,404.3885498h3.4456787h3.477478c0.0491028-0.5905762,0.0983887-1.3964233,0.1434631-2.1017151
			c0.2976685-4.6603699,0.5811462-9.3070679,0.1638794-13.973175c-0.1820374-2.035675-0.490448-4.0665894-1.3588867-5.9957275
			c-0.3464355-0.7695312-0.9147949-1.5141907-1.5421448-2.1637573c-0.2666626-0.2760315-0.5346375-0.4215393-0.8837891-0.4405823
			c-0.3491516,0.019043-0.6012268,0.1640015-0.8678894,0.4400635c-0.6273804,0.6495361-1.1764526,1.3933716-1.5228882,2.1629333
			c-0.8684387,1.9291382-1.1785278,3.9585266-1.3605652,5.9942017c-0.4172668,4.6661072-0.134613,9.3157043,0.1630249,13.9760437
			C294.1230774,402.9921265,294.1715393,403.7979736,294.2206421,404.3885498z"/>
		<path class="st0" d="M300.0127563,444.8389587c-0.5387268-1.6463928-1.684082-2.1547546-3.2651672-1.6373596l-1.7610779,0.5762634
			l1.6793518,5.1323242l1.7610779-0.5762634C300.1376953,447.7741089,300.5748596,446.5567627,300.0127563,444.8389587z
			 M298.2962341,447.7404175l-1.1357117,0.3716125l-1.3030396-3.9822388l1.1500549-0.3763428
			c1.2580261-0.4116516,1.9529724,0.1805725,2.3526917,1.4020691
			C299.9787903,447.04599,298.7635498,447.5874939,298.2962341,447.7404175z"/>
		<g>
			<g>
				<polygon class="st0" points="267.8831787,406.5629578 267.8831787,413.8109741 268.7421875,413.8109741 268.7421875,407.824646 
					268.7984619,407.824646 271.056488,413.8109741 271.8766479,413.8109741 274.1346436,407.824646 274.1378174,407.824646 
					274.1378174,413.8109741 275.0505066,413.8109741 275.0505066,406.5629578 273.7498474,406.5629578 271.4615173,412.6384583 
					269.1832275,406.5629578 				"/>
			</g>
			<g>
				<polygon class="st0" points="279.6139526,410.8476257 282.4172363,406.5629578 281.3236694,406.5629578 
					279.2073975,410.0057373 277.0405273,406.5629578 275.8963318,406.5629578 278.7012634,410.8476257 278.7012634,413.8109741 
					279.6139526,413.8109741 				"/>
			</g>
			<path class="st0" d="M291.0947876,407.4297485c-0.6009216-0.5669556-1.4581299-0.8485107-2.5718994-0.8485107h-2.4510498
				v7.2653503h2.4510498c0.600708,0,1.1204529-0.1054382,1.5593262-0.274231
				c0.4386902-0.1686707,0.7999268-0.4239197,1.0834351-0.7446899c0.2835388-0.3205261,0.4926453-0.7206421,0.6277771-1.1900635
				c0.1349182-0.4689636,0.2025146-1.0101013,0.2025146-1.6176453
				C291.9959412,408.8589172,291.6954651,407.9969177,291.0947876,407.4297485z M290.8972778,411.289032
				c-0.0910645,0.3139038-0.2075195,0.5751343-0.3493042,0.7842712c-0.1417542,0.2093811-0.3021545,0.3744202-0.4809265,0.4960327
				c-0.1789551,0.1213989-0.3594971,0.2142639-0.5417786,0.2782593c-0.182251,0.064209-0.3543701,0.1156006-0.5163879,0.1324158
				c-0.1620178,0.0169373-0.2971191,0.0362549-0.4050293,0.0362549h-1.5979309v-5.6046753h1.6182251
				c0.4454956,0,0.8201599,0.0490112,1.1239014,0.1737976c0.3037415,0.1250305,0.5518494,0.3005981,0.7442322,0.5401001
				c0.1923828,0.2397156,0.3306885,0.5266418,0.4151611,0.8673706c0.0843201,0.3410034,0.1265259,0.7258606,0.1265259,1.1577759
				C291.0339661,410.5961914,290.9884644,410.9750977,290.8972778,411.289032z"/>
			<path class="st0" d="M298.795166,413.405304c-0.0505676-0.1585693-0.0895386-0.3361816-0.116394-0.5118103
				c-0.0270386-0.1753845-0.0439758-0.3596497-0.0506592-0.5418396c-0.0068359-0.1823425-0.0168457-0.363739-0.030365-0.5393372
				c-0.0202332-0.1755066-0.0489807-0.3457336-0.0860596-0.5075989c-0.037262-0.1620483-0.0945435-0.3096008-0.1720581-0.4411926
				c-0.0777588-0.1316223-0.1951904-0.2449341-0.3268127-0.3395081s-0.3167725-0.162384-0.524353-0.2028809v-0.0202026
				c0.4151611-0.1216431,0.7706604-0.3475952,0.9699097-0.6785583c0.1988831-0.3305359,0.3051147-0.7153931,0.3051147-1.1543579
				c0-0.5871582-0.190918-1.0461731-0.5790405-1.3837585c-0.3882751-0.3375549-0.9232178-0.5030212-1.6118164-0.5030212h-3.4432373
				v7.2653503h1.0378723v-3.113739h2.3142395c0.2362366,0,0.4253235,0.0270386,0.5669861,0.0979614
				c0.1418457,0.0708008,0.2565308,0.1612854,0.3443604,0.2792664c0.0875244,0.1182251,0.1518555,0.2545471,0.1923218,0.4129639
				c0.0404358,0.1588135,0.0741882,0.3248291,0.1012573,0.5002136c0.0337524,0.1757202,0.0540161,0.3538513,0.0608215,0.5361633
				c0.0065918,0.1823425,0.0133972,0.3525696,0.0202332,0.5111084c0.0065613,0.158783,0.0217896,0.3231812,0.0454407,0.4513855
				c0.0236511,0.1282349,0.0692139,0.2208862,0.1368408,0.3246765h1.0731506
				C298.9217834,413.6389771,298.8458557,413.5639648,298.795166,413.405304z M297.3067017,409.6595154
				c-0.1518555,0.0979919-0.3290405,0.1612244-0.5315857,0.1949768c-0.2024841,0.033905-0.4151306,0.0480347-0.6378784,0.0480347
				h-1.9699707v-2.4909363h2.3547363c0.4521484,0,0.7796936,0.1014099,0.9822083,0.3307495
				c0.2025757,0.2296143,0.3037415,0.5198669,0.3037415,0.8843994c0,0.2632446-0.0454712,0.4743347-0.1366577,0.6396179
				C297.5801697,409.4318542,297.4585571,409.5617676,297.3067017,409.6595154z"/>
			<g>
				<polygon class="st0" points="300.0689392,406.5629578 300.0689392,413.8109741 305.169281,413.8109741 305.169281,413.0056458 
					301.0084839,413.0056458 301.0084839,410.5090942 304.8471375,410.5090942 304.8471375,409.6500854 301.0084839,409.6500854 
					301.0084839,407.4219666 305.0887451,407.4219666 305.0887451,406.5629578 				"/>
			</g>
			<path class="st0" d="M309.3205872,406.5812378h-1.0631714l-2.8149719,7.2653503h0.9822388l0.8100281-2.1795959h3.0579834
				l0.7897034,2.1795959h1.0632629L309.3205872,406.5812378z M307.5385132,410.8366699l1.2251587-3.4250793h0.0203247
				l1.204895,3.4250793H307.5385132z"/>
			<g>
				<polygon class="st0" points="312.8734436,406.5629578 312.8734436,413.8109741 313.7861328,413.8109741 313.7861328,407.824646 
					313.8062134,407.824646 316.0642395,413.8109741 316.8843994,413.8109741 319.1424561,407.824646 319.1817627,407.824646 
					319.1817627,413.8109741 320.1212769,413.8109741 320.1212769,406.5629578 318.7575989,406.5629578 316.4692078,412.6384583 
					314.1909485,406.5629578 				"/>
			</g>
			<g>
				<path class="st0" d="M325.8554382,408.6568298h0.9112854c-0.0136108-0.4026794-0.0895386-0.7237549-0.2277527-1.0107422
					c-0.1384277-0.2868652-0.3275757-0.5162964-0.5670471-0.7052917c-0.2397156-0.1889038-0.518158-0.3230896-0.8353882-0.4109497
					c-0.3173218-0.0876465-0.6615906-0.1296082-1.0328064-0.1296082c-0.3308716,0-0.6530762,0.043335-0.9670105,0.127655
					c-0.3139038,0.0845642-0.5940857,0.2131958-0.8403625,0.3854065c-0.2465515,0.1720581-0.4439697,0.3918152-0.5924072,0.6583557
					c-0.1485596,0.2667542-0.2227783,0.582428-0.2227783,0.9469299c0,0.3307495,0.0658264,0.6061096,0.1974487,0.8252258
					c0.1317139,0.2196045,0.3070984,0.3985596,0.5265808,0.5367737c0.2192383,0.1384277,0.4673462,0.2498169,0.7442322,0.3341675
					c0.2767334,0.0845642,0.5585022,0.1586914,0.8454895,0.2227783c0.2867432,0.0643311,0.568634,0.1266174,0.8454895,0.1873169
					c0.2766418,0.0608215,0.5247803,0.1402588,0.7442322,0.2380066c0.2192688,0.0979919,0.3948669,0.2244873,0.5264587,0.3796387
					c0.1316223,0.1554871,0.1974487,0.3580322,0.1974487,0.6076355c0,0.2632446-0.0541077,0.4794312-0.1619873,0.6481018
					c-0.1080627,0.1687622-0.2498169,0.3020935-0.425293,0.3998413c-0.1755981,0.0979614-0.3730164,0.1670837-0.5922852,0.2076721
					c-0.2194519,0.0405579-0.4371033,0.060791-0.6531677,0.060791c-0.27005,0-0.5332947-0.0337524-0.7897034-0.1013794
					c-0.2566528-0.0672913-0.4810181-0.1720886-0.6734314-0.3138123c-0.1922913-0.1417236-0.3476868-0.3103027-0.4657593-0.5299072
					c-0.1181946-0.2191162-0.1771851-0.4506531-0.1771851-0.7727661h-0.9113159
					c0,0.4026489,0.0793152,0.8066406,0.2379761,1.1271667c0.1585693,0.3207397,0.3746338,0.5780334,0.6479797,0.7839966
					c0.273468,0.2059326,0.5906677,0.3564148,0.9518738,0.4576721c0.3609924,0.1012573,0.7442322,0.1504822,1.1492004,0.1504822
					c0.3306274,0,0.663208-0.0397339,0.997345-0.1172485c0.3341675-0.0775146,0.636261-0.2029419,0.906311-0.3751221
					c0.269928-0.1720886,0.4911194-0.39505,0.663208-0.668396c0.1721802-0.2733459,0.2582397-0.6026306,0.2582397-0.9873657
					c0-0.3576965-0.0658264-0.6548462-0.1974487-0.8911438c-0.1317139-0.2361755-0.307312-0.4319458-0.5265808-0.5873108
					c-0.2194519-0.1552429-0.4674683-0.2784729-0.7442322-0.3696289c-0.2768555-0.091156-0.5586243-0.1703796-0.8454895-0.2380066
					c-0.2869873-0.0672913-0.5687256-0.1297913-0.8454895-0.1873169c-0.276886-0.0572815-0.5248718-0.1298218-0.7442322-0.2176819
					c-0.2193604-0.087616-0.3948669-0.2008362-0.5264587-0.3392639c-0.1316223-0.1382141-0.1974487-0.3189392-0.1974487-0.5417175
					c0-0.2361755,0.0454712-0.4335938,0.1366272-0.5922852c0.091156-0.1585388,0.2126465-0.2851868,0.364502-0.3797302
					c0.151947-0.0944519,0.3256226-0.1620789,0.5214539-0.2025452c0.1957397-0.0404663,0.3949585-0.0606995,0.5975037-0.0606995
					c0.4994202,0,0.9094849,0.0993958,1.2302246,0.3323059C325.6140137,407.77771,325.8013306,408.1199341,325.8554382,408.6568298z
					"/>
			</g>
		</g>
		<path class="st0" d="M328.5591125,405.8018188c-0.4916992,0-0.8916931-0.4000244-0.8916931-0.8917236
			c0-0.4916687,0.3999939-0.8916931,0.8916931-0.8916931c0.4916687,0,0.8916931,0.4000244,0.8916931,0.8916931
			C329.4508057,405.4017944,329.0507812,405.8018188,328.5591125,405.8018188z M328.5591125,404.098938
			c-0.4472656,0-0.8111572,0.3638916-0.8111572,0.8111572c0,0.4472961,0.3638916,0.8111877,0.8111572,0.8111877
			s0.8111572-0.3638916,0.8111572-0.8111877C329.3702698,404.4628296,329.0063782,404.098938,328.5591125,404.098938z"/>
		<path class="st0" d="M328.9260864,405.3067017c-0.0062866-0.0196838-0.0111084-0.0404053-0.0144348-0.0622253
			c-0.0033569-0.0217896-0.0054626-0.0440063-0.0063171-0.0666199c-0.000824-0.022644-0.0021057-0.0447998-0.0037537-0.0666199
			c-0.002533-0.0217896-0.006073-0.0427551-0.0106812-0.0628357c-0.0046082-0.0201416-0.0117493-0.0383606-0.0213928-0.0546875
			c-0.009613-0.0163574-0.022583-0.0303955-0.0389404-0.0421143c-0.0163574-0.0117493-0.0375366-0.0201111-0.0634766-0.0251465
			v-0.0025024c0.0544739-0.0151062,0.0940552-0.0431519,0.1187744-0.0842285
			c0.0247192-0.0410461,0.0370789-0.0888062,0.0370789-0.1433105c0-0.072876-0.0240784-0.1302795-0.0722961-0.1721802
			c-0.0481873-0.0419006-0.1149902-0.0628662-0.20047-0.0628662h-0.4223328v0.897522h0.1194153v-0.3833923h0.291626
			c0.0293274,0,0.0527649,0.004364,0.0703735,0.0131531c0.0176086,0.0088501,0.0318298,0.0205688,0.0427551,0.0352173
			c0.0108643,0.014679,0.0188599,0.0318604,0.0238647,0.0515442c0.0050354,0.0197144,0.0092163,0.0404358,0.0125732,0.0622253
			c0.0041809,0.0217896,0.0067139,0.0439758,0.0075378,0.0666199c0.000824,0.0226135,0.0016785,0.0437927,0.002533,0.0634766
			c0.0007935,0.0196838,0.0027161,0.0375366,0.0056458,0.0534363c0.0028992,0.0158997,0.0085754,0.0284729,0.0169373,0.0377197
			h0.1332703C328.941803,405.3437805,328.932373,405.3263855,328.9260864,405.3067017z M328.741333,404.8441162
			c-0.0188599,0.0121765-0.040863,0.0203247-0.0660095,0.0245056c-0.0251465,0.0042114-0.0515137,0.0062866-0.0791626,0.0062866
			h-0.2489014v-0.3129883h0.2966309c0.0561218,0,0.0968018,0.0142822,0.1219482,0.0427551
			c0.025116,0.0284729,0.0376892,0.0653381,0.0376892,0.1105957c0,0.0326843-0.0056458,0.0592957-0.0169678,0.079834
			C328.7752686,404.8156433,328.7601624,404.8319702,328.741333,404.8441162z"/>
	</g>
</g>
</svg>
