<?xml version="1.0" encoding="utf-8"?>
<!-- Generator: Adobe Illustrator 19.1.0, SVG Export Plug-In . SVG Version: 6.00 Build 0)  -->
<svg version="1.1" id="Слой_1" xmlns="http://www.w3.org/2000/svg" xmlns:xlink="http://www.w3.org/1999/xlink" x="0px" y="0px"
	 viewBox="252.6400146 365.9450073 90 110" style="enable-background:new 252.6400146 365.9450073 90 110;" xml:space="preserve">
<style type="text/css">
	.st0{fill:#FFFFFF;}
	.st1{fill:url(#SVGID_1_);}
</style>
<g>
	<g>
		<g>
			<path class="st0" d="M325.9452209,475.9450073l-0.0044556-0.1085815c-0.04953-1.1652527-1.0070801-2.0963135-2.1847534-2.0957336
				l0,0c-1.1773376-0.0005798-2.1343079,0.930481-2.1847534,2.0957336l0,0l-0.004425,0.1079712h-2.2481995l-0.004425-0.1079712
				c-0.0495605-1.1652527-1.0071411-2.0963135-2.1841736-2.0957336l0,0c-1.177948-0.0005798-2.1358337,0.930481-2.1847839,2.0957336
				l0,0l-0.0050354,0.1085815h-2.2481995l-0.0043945-0.1085815c-0.0489807-1.1652527-1.0065308-2.0963135-2.1842041-2.0957336l0,0
				c-1.1779175-0.0005798-2.1351929,0.930481-2.1847534,2.0957336l0,0l-0.004425,0.1079712h-2.2488098l-0.0043945-0.1079712
				c-0.0495605-1.1652527-1.0068359-2.0963135-2.1842041-2.0957336l0,0
				c-1.1776123-0.0005798-2.1352234,0.930481-2.1847534,2.0957336l0,0l-0.0044556,0.1085815h-2.2481689l-0.004425-0.1085815
				c-0.0495911-1.1652527-1.0074463-2.0963135-2.1847839-2.0957336l0,0c-1.1776428-0.0005798-2.134613,0.930481-2.1841736,2.0957336
				l0,0l-0.0050049,0.1079712h-2.2485046l-0.004425-0.1079712c-0.0495605-1.1652527-1.0065308-2.0963135-2.1838989-2.0957336l0,0
				c-1.1776123-0.0005798-2.1361084,0.930481-2.1847534,2.0957336l0,0l-0.0053101,0.1085815h-2.247467l-0.004425-0.1085815
				c-0.0495605-1.1652527-1.0072937-2.0963135-2.1847839-2.0957336l0,0c-1.1774597-0.0005798-2.1352234,0.930481-2.184021,2.0957336
				l0,0l-0.004425,0.1079712h-2.2489624l-0.0043945-0.1079712c-0.0495605-1.1652527-1.0072937-2.0963135-2.1841736-2.0957336l0,0
				c-1.1774902-0.0005798-2.1358032,0.930481-2.1847839,2.0957336l0,0l-0.0050354,0.1085815h-2.2483215l-0.004425-0.1085815
				c-0.0487976-1.1652527-1.0065308-2.0963135-2.184021-2.0957336l0,0c-1.1774902-0.0005798-2.1352234,0.930481-2.1847839,2.0957336
				l0,0l-0.0044556,0.1079712h-2.2489014l-0.004425-0.1079712c-0.0489502-1.1652527-1.0067139-2.0963135-2.1842041-2.0957336l0,0
				c-1.1774902-0.0005798-2.1351929,0.930481-2.184021,2.0957336l0,0l-0.0051575,0.1085815h-2.2481995l-0.004425-0.1085815
				c-0.0489807-1.1652527-1.0072937-2.0963135-2.1847534-2.0957336l0,0
				c-1.1775208-0.0005798-2.1346283,0.930481-2.1841888,2.0957336l0,0l-0.004425,0.1085815h-1.7402191l-0.0336151-0.0477905
				c-0.2126923-0.2932434-0.4953308-0.5316162-0.8249817-0.6903381l0,0l-0.0635529-0.03125v-2.3435669l0.1035461-0.0082397
				c1.1228943-0.0932007,2.0063019-1.0325317,2.0063019-2.1795349l0,0c0-1.147583-0.8834076-2.0868835-2.0063019-2.1801147l0,0
				l-0.1035461-0.0088501v-2.2491455l0.1035461-0.0088196c1.1228943-0.0932312,2.0063019-1.0319519,2.0063019-2.1795349l0,0
				c0-1.1481628-0.8834076-2.0874634-2.0063019-2.1806946l0,0l-0.1035461-0.0082703v-2.2497253l0.1035461-0.0082397
				c1.1228943-0.0932312,2.0063019-1.0325623,2.0063019-2.1795349l0,0c0-1.147583-0.8834076-2.0868835-2.0063019-2.180542l0,0
				l-0.1035461-0.0088501v-2.2488708l0.1035461-0.0088501c1.1228943-0.092926,2.0063019-1.0322266,2.0063019-2.1798096l0,0
				c0-1.1470032-0.8834076-2.0868835-2.0063019-2.179657l0,0l-0.1035461-0.0088501v-2.2496033l0.1035461-0.0082397
				c1.1228943-0.0933838,2.0063019-1.0326843,2.0063019-2.1798401l0,0c0-1.147583-0.8834076-2.0868835-2.0063019-2.1802673l0,0
				l-0.1041565-0.0089722v-2.2488708l0.1041565-0.0082397c1.1228943-0.0933838,2.0063019-1.0334167,2.0063019-2.1804199l0,0
				c0-1.1477051-0.8834076-2.0870361-2.0063019-2.1798096l0,0l-0.1035461-0.0088501v-2.2495728l0.1035461-0.0082397
				c1.1228943-0.0933838,2.0063019-1.0327148,2.0063019-2.1804199l0,0c0-1.1470032-0.8834076-2.0868835-2.0063019-2.179657l0,0
				l-0.1041565-0.0088501v-2.2490234l0.1041565-0.0088501c1.1228943-0.0933533,2.0063019-1.0326538,2.0063019-2.1798096l0,0
				c0-1.147583-0.8834076-2.0868835-2.0063019-2.1802673l0,0l-0.1035461-0.0082397v-2.2496033l0.1035461-0.0090027
				c1.1228943-0.0926208,2.0063019-1.0326538,2.0063019-2.179657l0,0c0-1.1470032-0.8834076-2.0870361-2.0063019-2.1804199l0,0
				l-0.1041565-0.0082397v-2.2496033l0.1041565-0.0082397c1.1228943-0.0933533,2.0063019-1.0332642,2.0063019-2.1804199l0,0
				c0-1.1470032-0.8834076-2.0868835-2.0063019-2.179657l0,0l-0.1035461-0.0088501v-2.2495728l0.1035461-0.0082703
				c1.1228943-0.0933533,2.0063019-1.0328369,2.0063019-2.1798096l0,0c0-1.147583-0.8834076-2.0870361-2.0063019-2.1802673l0,0
				l-0.1041565-0.0089722v-2.2490234l0.1041565-0.0080872c1.1228943-0.0933838,2.0063019-1.0334167,2.0063019-2.1804199l0,0
				c0-1.1470032-0.8834076-2.0870361-2.0063019-2.1798096l0,0l-0.1035461-0.0088501v-2.2496033l0.1035461-0.0082397
				c1.1228943-0.0933838,2.0063019-1.0326843,2.0063019-2.1796875l0,0c0-1.1477356-0.8834076-2.087616-2.0063019-2.1803894l0,0
				l-0.1041565-0.0088501v-2.2490234l0.1041565-0.0088501c1.1228943-0.0933533,2.0063019-1.0328064,2.0063019-2.1798096l0,0
				c0-1.1475525-0.8834076-2.0870361-2.0063019-2.1803894l0,0l-0.1035461-0.0088501v-2.2489929l0.1035461-0.0088501
				c1.1228943-0.0926208,2.0063019-1.0326538,2.0063019-2.179657l0,0c0-1.1470032-0.8834076-2.0870667-2.0063019-2.1804199l0,0
				l-0.1041565-0.0082397v-2.2496033l0.1041565-0.0082397c1.1228943-0.0933838,2.0063019-1.0332947,2.0063019-2.1804199l0,0
				c0-1.1470032-0.8834076-2.0868835-2.0063019-2.179657l0,0l-0.1041565-0.0088501v-1.650116l0.0641632-0.0303955
				c0.5512085-0.2662659,0.9736633-0.7546692,1.1501923-1.3496704l0,0l0.0240479-0.0812988h1.4258728l0.010788,0.1016541
				c0.1162567,1.0987549,1.0459137,1.9567871,2.1765289,1.9560547l0,0c1.1304321,0.0007324,2.0608521-0.8572998,2.1770935-1.9560547
				l0,0l0.0107422-0.1016541h2.2508545l0.0113525,0.1016541c0.1162415,1.0987549,1.0460815,1.9567871,2.1765137,1.9560547l0,0
				c1.1304626,0.0007324,2.0603027-0.8572998,2.1765442-1.9560547l0,0l0.0107422-0.1016541h2.2521973l0.0100403,0.1016541
				c0.1162109,1.0987549,1.0466309,1.9567871,2.1772461,1.9560547l0,0c1.1298218,0.0007324,2.0602722-0.8572998,2.1765137-1.9560547
				l0,0l0.0107422-0.1016541h2.2514648l0.0107422,0.1016541c0.1162415,1.0987549,1.0466614,1.9567871,2.177124,1.9560547l0,0
				c1.1298523,0.0007324,2.0602417-0.8572998,2.1764832-1.9560547l0,0l0.0108032-0.1016541h2.2514343l0.0107422,0.1016541
				c0.1162415,1.0987549,1.0460815,1.9567871,2.1765137,1.9560547l0,0c1.1306152,0.0007324,2.0603027-0.8572998,2.1770935-1.9560547
				l0,0l0.0109558-0.1016541h2.2500916l0.0112305,0.1016541c0.1162109,1.0987549,1.0466309,1.9567871,2.1773682,1.9560547l0,0
				c1.1304626,0.0007324,2.0602722-0.85672,2.1765137-1.9560547l0,0l0.0106201-0.1016541h2.2514648l0.0108948,0.1016541
				c0.1162415,1.0993347,1.0460815,1.9567871,2.1765137,1.9560547l0,0c1.1304626,0.0007324,2.0602722-0.8572998,2.1770935-1.9560547
				l0,0l0.0100403-0.1016541h2.2514343l0.0109253,0.1016541c0.1168213,1.0987549,1.0466614,1.9567871,2.1770935,1.9560547l0,0
				c1.1304626,0.0007324,2.0602722-0.8572998,2.1765137-1.9560547l0,0l0.0106201-0.1016541h2.2514648l0.0108948,0.1016541
				c0.1168213,1.0987549,1.0466614,1.9567871,2.1770935,1.9560547l0,0c1.1298828,0.0007324,2.0602722-0.8572998,2.1765137-1.9560547
				l0,0l0.0109253-0.1016541h2.2505493l0.0115051,0.1016541c0.1162415,1.0987549,1.0460815,1.9567871,2.177124,1.9560547l0,0
				c1.1304016,0.0007324,2.0596619-0.85672,2.1764832-1.9560547l0,0l0.0103455-0.1016541h2.2514343l0.0112,0.1016541
				c0.1162415,1.0993347,1.0460815,1.9567871,2.1765137,1.9560547l0,0c1.1307373,0.0007324,2.0602722-0.8572998,2.1773987-1.9560547
				l0,0l0.0100403-0.1016541h2.2508545l0.0115051,0.1016541c0.1162415,1.0987549,1.0465088,1.9567871,2.1769409,1.9560547l0,0
				c1.1298828,0.0007324,2.0596924-0.8572998,2.1765137-1.9560547l0,0l0.0106201-0.1016541h2.2514648l0.0112,0.1016541
				c0.1162415,1.0987549,1.046051,1.9567871,2.1765137,1.9560547l0,0c1.1304321,0.0007324,2.0602722-0.8572998,2.1765137-1.9560547
				l0,0l0.0106201-0.1016541h1.8655701l0.0247803,0.0812988c0.2088623,0.7068176,0.7658386,1.2651367,1.4726257,1.4758911l0,0
				l0.0808411,0.0242004v1.5300903l-0.1038208,0.0088501c-1.1227722,0.0933533-2.0065918,1.0326538-2.0065918,2.179657l0,0
				c0,1.1471252,0.8838196,2.0870361,2.0065918,2.1804199l0,0l0.1038208,0.0082397v2.2496033l-0.1038208,0.0082397
				c-1.1227722,0.0933533-2.0065918,1.0334167-2.0065918,2.1804199l0,0c0,1.1470032,0.8838196,2.0862732,2.0065918,2.179657l0,0
				l0.103241,0.0082703v2.2501526l-0.103241,0.0082703c-1.1227722,0.0933533-2.0065918,1.0328369-2.0065918,2.1803894l0,0
				c0,1.1470032,0.8838196,2.0864563,2.0065918,2.1798096l0,0l0.1038208,0.0083008v2.2495728l-0.1038208,0.0088501
				c-1.1227722,0.0933533-2.0065918,1.0326538-2.0065918,2.1803894l0,0c0,1.1464233,0.8838196,2.0863037,2.0065918,2.1796875l0,0
				l0.103241,0.0082397v2.2496033l-0.103241,0.0088501c-1.1227722,0.0933838-2.0065918,1.0328064-2.0065918,2.1798096l0,0
				c0,1.1470032,0.8838196,2.0870361,2.0065918,2.1804199l0,0l0.1038208,0.0080872v2.2497559l-0.1038208,0.0082397
				c-1.1227722,0.0932312-2.0065918,1.0332642-2.0065918,2.1802673l0,0c0,1.1469727,0.8838196,2.0864563,2.0065918,2.1798096l0,0
				l0.103241,0.0082703v2.2495728l-0.103241,0.0088501c-1.1227722,0.0933533-2.0065918,1.0326538-2.0065918,2.179657l0,0
				c0,1.1471558,0.8838196,2.0870667,2.0065918,2.1804199l0,0l0.1038208,0.0082397v2.2496033l-0.1038208,0.0082397
				c-1.1227722,0.0933838-2.0065918,1.0334167-2.0065918,2.1804199l0,0c0,1.1470032,0.8838196,2.0863037,2.0065918,2.179657l0,0
				l0.103241,0.0082703v2.2503357l-0.103241,0.0082397c-1.1227722,0.0933838-2.0065918,1.0326843-2.0065918,2.1802673l0,0
				c0,1.1471558,0.8838196,2.0864563,2.0065918,2.1798096l0,0l0.1038208,0.0082703v2.2496033l-0.1038208,0.0088501
				c-1.1227722,0.0933228-2.0065918,1.0326538-2.0065918,2.179657l0,0c0,1.1471558,0.8838196,2.0870361,2.0065918,2.1804199l0,0
				l0.103241,0.0082397v2.2495728l-0.103241,0.0088501c-1.1227722,0.0933838-2.0065918,1.0328369-2.0065918,2.1798096l0,0
				c0,1.1470032,0.8838196,2.0863342,2.0065918,2.1804199l0,0l0.1038208,0.0082397v2.2496033l-0.1038208,0.0082397
				c-1.1227722,0.0933838-2.0065918,1.0332947-2.0065918,2.1802673l0,0c0,1.1471558,0.8838196,2.0864563,2.0065918,2.1798401l0,0
				l0.103241,0.0082397v2.2496033l-0.103241,0.0088501c-1.1227722,0.0933838-2.0065918,1.0326538-2.0065918,2.179657l0,0
				c0,1.1470032,0.8838196,2.0863037,2.0065918,2.1798096l0,0l0.103241,0.0082703v2.2500305l-0.103241,0.0082703
				c-1.1227722,0.0936584-2.0065918,1.032959-2.006012,2.180542l0,0c-0.0005798,1.1469727,0.8832397,2.0863037,2.006012,2.1795349
				l0,0l0.103241,0.0082397v2.2497253l-0.103241,0.0082703c-1.1227722,0.093811-2.0065918,1.0331116-2.006012,2.1806946l0,0
				c-0.0005798,1.1464233,0.8832397,2.0863037,2.006012,2.1795349l0,0l0.103241,0.0082703v2.2496948l-0.103241,0.0088501
				c-1.1227722,0.0932312-2.0065918,1.0325317-2.006012,2.1801147l0,0c-0.0005798,1.1463928,0.8832397,2.0857239,2.006012,2.1795349
				l0,0l0.103241,0.0082397v2.2237854l-0.0802612,0.0242004c-0.4672546,0.1398315-0.8684692,0.4312744-1.147522,0.817749l0,0
				l-0.0348206,0.0466003h-2.1794739l-0.0046997-0.1079712c-0.0489807-1.1652527-1.0065308-2.0963135-2.1835938-2.0957336l0,0
				c-1.1776733-0.0005798-2.134613,0.930481-2.1842041,2.0957336l0,0l-0.0053101,0.1079712h-2.2484741l-0.0041199-0.1079712
				c-0.0495911-1.1652527-1.0065613-2.0963135-2.1842041-2.0957336l0,0
				c-1.1776428-0.0005798-2.1359558,0.930481-2.1846313,2.0957336l0,0l-0.0053101,0.1085815H325.9452209L325.9452209,475.9450073z
				 M341.2623901,475.7184448c0.289093-0.3805847,0.6879272-0.6737976,1.151062-0.8295593l0,0v-1.8503113
				c-1.1894226-0.1504517-2.1098328-1.164093-2.1104126-2.3942871l0,0c0.0005798-1.2307739,0.92099-2.2444153,2.1104126-2.3948669
				l0,0v-1.8373413c-1.1894226-0.1504211-2.1098328-1.164093-2.1104126-2.3942566l0,0
				c0.0005798-1.2313538,0.92099-2.2450256,2.1104126-2.3954468l0,0v-1.836731
				c-1.1894226-0.1504517-2.1098328-1.164093-2.1104126-2.3942871l0,0c0.0005798-1.2307739,0.92099-2.244873,2.1104126-2.3950195
				l0,0v-1.8370361c-1.1894226-0.1501465-2.1098328-1.1646729-2.1098328-2.3948669l0,0
				c0-1.2303162,0.9204102-2.243988,2.1098328-2.3948669l0,0v-1.8362732
				c-1.1894226-0.1510315-2.1098328-1.1647034-2.1098328-2.39505l0,0c0-1.2306213,0.9204102-2.2442627,2.1092529-2.3954773l0,0
				v-1.8364258c-1.1888428-0.1505737-2.1092529-1.1648254-2.1092529-2.3948669l0,0
				c0-1.230896,0.9204102-2.2447205,2.1098328-2.3950195l0,0v-1.836853
				c-1.1894226-0.1502991-2.1098328-1.1639709-2.1098328-2.3950195l0,0c0-1.2300415,0.9204102-2.2441406,2.1092529-2.3948669l0,0
				v-1.8364258c-1.1888428-0.1512146-2.1092529-1.1647034-2.1092529-2.3948975l0,0
				c0-1.2309265,0.9204102-2.2445374,2.1098328-2.3948669l0,0v-1.8370361
				c-1.1894226-0.1502991-2.1098328-1.1639404-2.1098328-2.3948669l0,0c0-1.2301941,0.9204102-2.2442627,2.1092529-2.3948669l0,0
				v-1.8371887c-1.1888428-0.1505737-2.1092529-1.164093-2.1092529-2.3948669l0,0
				c0-1.2303162,0.9204102-2.2439575,2.1098328-2.3948364l0,0v-1.8364258
				c-1.1894226-0.1509399-2.1098328-1.1645508-2.1098328-2.3948975l0,0c0-1.2306213,0.9204102-2.2442932,2.1092529-2.3954773l0,0
				v-1.8364258c-1.1888428-0.1507568-2.1092529-1.1648254-2.1092529-2.3948669l0,0
				c0-1.2309265,0.9204102-2.2447205,2.1098328-2.3950195l0,0v-1.8368835
				c-1.1894226-0.1502686-2.1098328-1.1639404-2.1098328-2.3942871l0,0c0-1.2307739,0.9204102-2.2448425,2.1092529-2.3955994l0,0
				v-1.8364258c-1.1888428-0.1511841-2.1092529-1.1647034-2.1092529-2.3948975l0,0
				c0-1.230896,0.9204102-2.2445679,2.1098328-2.3948669l0,0v-1.8370056
				c-1.1894226-0.1502991-2.1098328-1.1639709-2.1098328-2.3948669l0,0c0-1.2301941,0.9204102-2.2442932,2.1092529-2.3948669l0,0
				v-1.8371887c-1.1888428-0.1506042-2.1092529-1.164093-2.1092529-2.3948669l0,0
				c0-1.2300415,0.9204102-2.2435608,2.1092529-2.3947449l0,0v-1.1567383
				c-0.7145081-0.2413025-1.2785339-0.8063965-1.5180664-1.5217896l0,0h-1.4968262
				c-0.1734619,1.1650085-1.177063,2.0577087-2.388916,2.0577087l0,0c-1.2124634,0-2.2154541-0.8927002-2.388916-2.0577087l0,0
				h-1.8490601c-0.1728821,1.1650085-1.1758728,2.0577087-2.3883362,2.0577087l0,0
				c-1.2124329,0-2.2158813-0.8927002-2.3890686-2.0577087l0,0h-1.8484497
				c-0.1731567,1.1650085-1.1767578,2.0577087-2.3892212,2.0577087l0,0c-1.212738,0-2.2157288-0.8933105-2.388916-2.0577087l0,0
				h-1.8487549c-0.1728821,1.1643982-1.1758728,2.0577087-2.3883057,2.0577087l0,0
				c-1.2127686,0-2.2163696-0.8927002-2.3895264-2.0577087l0,0h-1.848175
				c-0.1731567,1.1650085-1.1764526,2.0577087-2.388916,2.0577087l0,0c-1.2130432,0-2.2157288-0.8927002-2.388916-2.0577087l0,0
				h-1.8487549c-0.1731567,1.1650085-1.1767578,2.0577087-2.388916,2.0577087l0,0
				c-1.2124634,0-2.2157593-0.8927002-2.388916-2.0577087l0,0h-1.8487549
				c-0.1731873,1.1650085-1.176178,2.0577087-2.388916,2.0577087l0,0c-1.2124634,0-2.2154541-0.8933105-2.388916-2.0577087l0,0
				h-1.8487549c-0.1731873,1.1643982-1.176178,2.0577087-2.3883362,2.0577087l0,0
				c-1.2130127,0-2.2160339-0.8927002-2.3891907-2.0577087l0,0h-1.8484802
				c-0.1731873,1.1650085-1.1767578,2.0577087-2.3890686,2.0577087l0,0c-1.2128601,0-2.2158508-0.8927002-2.3888855-2.0577087l0,0
				h-1.8487854c-0.1730347,1.1650085-1.1760254,2.0577087-2.3883057,2.0577087l0,0
				c-1.2128906,0-2.2159119-0.8927002-2.3896484-2.0577087l0,0h-1.848053
				c-0.1731567,1.1650085-1.1765747,2.0577087-2.3888855,2.0577087l0,0c-1.2130432,0-2.2159119-0.8927002-2.3890686-2.0577087l0,0
				h-1.8486023c-0.1731873,1.1650085-1.1762085,2.0577087-2.3890991,2.0577087l0,0
				c-1.2122803,0-2.2157288-0.8927002-2.3888855-2.0577087l0,0h-1.8482056
				c-0.1737366,1.1650085-1.1766052,2.0577087-2.3894653,2.0577087l0,0c-1.2123108,0-2.2153168-0.8927002-2.388504-2.0577087l0,0
				h-1.0572662c-0.200592,0.5974121-0.6276093,1.0891724-1.1791229,1.3757629l0,0v1.3026123
				c1.1894379,0.1503296,2.109848,1.1639709,2.109848,2.3948975l0,0c0,1.2309265-0.9204102,2.2446899-2.109848,2.3950195l0,0
				v1.8368835c1.1894379,0.1502686,2.109848,1.164093,2.109848,2.3950195l0,0c0,1.230896-0.9204102,2.2445679-2.109848,2.3948669
				l0,0v1.8370056c1.1894379,0.1502991,2.109848,1.1639709,2.109848,2.3948669l0,0
				c0,1.2303467-0.9204102,2.2445984-2.109848,2.3950195l0,0v1.8363037c1.1894379,0.1502991,2.109848,1.1645203,2.109848,2.3955994
				l0,0c0,1.2303467-0.9204102,2.2440186-2.109848,2.3942871l0,0v1.8368835
				c1.1894379,0.1502991,2.109848,1.164093,2.109848,2.3950195l0,0c0,1.2309265-0.9204102,2.2445679-2.109848,2.3948669l0,0
				v1.8364258c1.1894379,0.1508789,2.109848,1.1645508,2.109848,2.3954773l0,0c0,1.2303467-0.9204102,2.2445679-2.109848,2.3950195
				l0,0v1.8363037c1.1894379,0.1502686,2.109848,1.1639404,2.109848,2.3948364l0,0
				c0,1.2310791-0.9204102,2.244751-2.109848,2.3950195l0,0v1.8368835c1.1894379,0.1502991,2.109848,1.164093,2.109848,2.3950195
				l0,0c0,1.2309265-0.9204102,2.2445679-2.109848,2.3948669l0,0v1.8370361
				c1.1894379,0.1503296,2.109848,1.1639404,2.109848,2.3948669l0,0c0,1.2303467-0.9204102,2.2447205-2.109848,2.39505l0,0
				v1.8362732c1.1894379,0.1502686,2.109848,1.1645203,2.109848,2.3948669l0,0c0,1.2310486-0.9204102,2.2447205-2.109848,2.3950195
				l0,0v1.836853c1.1894379,0.1502991,2.109848,1.1641235,2.109848,2.3950195l0,0
				c0,1.2309265-0.9204102,2.2445984-2.109848,2.3948669l0,0v1.8364258c1.1894379,0.1509399,2.109848,1.1645508,2.109848,2.3954773
				l0,0c0,1.2303467-0.9204102,2.2447205-2.109848,2.39505l0,0v1.8362732
				c1.1894379,0.1502991,2.109848,1.1639404,2.1104279,2.3948669l0,0c-0.0005798,1.2310791-0.92099,2.2447205-2.1104279,2.3948669
				l0,0v1.8370361c1.1894379,0.1495361,2.109848,1.1642456,2.109848,2.3950195l0,0
				c0,1.2301941-0.9204102,2.2438354-2.109848,2.3942871l0,0v1.836731c1.1894379,0.1504211,2.109848,1.164093,2.109848,2.3954468
				l0,0c0,1.2307739-0.9204102,2.2444458-2.109848,2.3948669l0,0v1.836731
				c1.1894379,0.1498718,2.109848,1.1634827,2.109848,2.3948669l0,0c0,1.2301941-0.9204102,2.2438354-2.109848,2.3942871l0,0
				v1.9966431c0.3187714,0.1646118,0.5948944,0.3988342,0.8106689,0.6826172l0,0h1.4109955
				c0.1070862-1.234314,1.140625-2.2042847,2.4032288-2.2042847l0,0c1.2631531,0,2.2966919,0.9699707,2.4037781,2.2042847l0,0
				h1.8190002c0.107666-1.234314,1.1411743-2.2042847,2.4037781-2.2042847l0,0c1.2634888,0,2.2966003,0.9699707,2.4038086,2.204895
				l0,0h1.8190002c0.106781-1.2349243,1.1404724-2.204895,2.4039612-2.204895l0,0
				c1.2626038,0,2.2961426,0.9699707,2.4036255,2.2042847l0,0h1.818573c0.107666-1.234314,1.1412048-2.2042847,2.4043884-2.2042847
				l0,0c1.2628784,0,2.2965698,0.9699707,2.4031982,2.204895l0,0h1.8190002
				c0.1073303-1.2349243,1.1408691-2.204895,2.4037781-2.204895l0,0c1.2626038,0,2.2961426,0.9699707,2.4038086,2.2042847l0,0
				h1.8190002c0.1076355-1.234314,1.1404419-2.2042847,2.4039307-2.2042847l0,0c1.2634888,0,2.2962952,0.9699707,2.4030762,2.204895
				l0,0h1.8195496c0.106781-1.2349243,1.1399231-2.204895,2.4033813-2.204895l0,0c1.2631836,0,2.29599,0.9699707,2.403656,2.2042847
				l0,0h1.8192749c0.1073608-1.234314,1.1404724-2.2042847,2.403656-2.2042847l0,0
				c1.2634888,0,2.2965698,0.9699707,2.403656,2.204895l0,0h1.8189697c0.106781-1.2349243,1.1404724-2.204895,2.4039612-2.204895
				l0,0c1.2626038,0,2.2962952,0.9699707,2.4036865,2.2042847l0,0h1.8186646
				c0.107666-1.234314,1.1410522-2.2042847,2.4042664-2.2042847l0,0c1.2628784,0,2.2965698,0.9699707,2.4033508,2.204895l0,0
				h1.8189697c0.1073914-1.2349243,1.1401672-2.204895,2.403656-2.204895l0,0c1.2634888,0,2.2962952,0.9699707,2.4039612,2.2042847
				l0,0h1.8189697c0.1076965-1.234314,1.140625-2.2042847,2.4038086-2.2042847l0,0
				c1.2632141,0,2.2962952,0.9699707,2.4030762,2.204895l0,0h1.8195801c0.106781-1.2349243,1.1398621-2.204895,2.403656-2.204895
				l0,0c1.2631836,0,2.2962646,0.9699707,2.403656,2.204895l0,0H341.2623901L341.2623901,475.7184448z"/>
			<path class="st0" d="M340.4169006,470.6442871c0-1.2065735,0.9286804-2.1948547,2.1098328-2.2927856v-2.040863
				c-1.1811523-0.0985413-2.1098328-1.0862427-2.1098328-2.2928162c0-1.206604,0.9286804-2.1948853,2.1098328-2.2928162v-2.0408325
				c-1.1811523-0.0985413-2.1098328-1.0862122-2.1098328-2.2928162c0-1.2065735,0.9286804-2.1947327,2.1098328-2.2929688v-2.040863
				c-1.1811523-0.0982361-2.1098328-1.0862122-2.1098328-2.2927856c0-1.206604,0.9286804-2.1945801,2.1098328-2.2928162v-2.040863
				c-1.1811523-0.0982361-2.1098328-1.0862122-2.1098328-2.2928162c0-1.2065735,0.9286804-2.1948547,2.1098328-2.2930908v-2.0405884
				c-1.1811523-0.0982361-2.1098328-1.0864868-2.1098328-2.2930908c0-1.2065735,0.9286804-2.1945496,2.1098328-2.2927856v-2.040863
				c-1.1811523-0.0982361-2.1098328-1.0862427-2.1098328-2.2927856c0-1.206604,0.9286804-2.1948853,2.1098328-2.2931213v-2.0405579
				c-1.1811523-0.0982361-2.1098328-1.0865173-2.1098328-2.2931213c0-1.2065735,0.9286804-2.1945496,2.1098328-2.2927856v-2.0408936
				c-1.1811523-0.0982361-2.1098328-1.0862122-2.1098328-2.2927856s0.9286804-2.1948547,2.1098328-2.2930908v-2.0405884
				c-1.1811523-0.0982361-2.1098328-1.0865173-2.1098328-2.2930908c0-1.206604,0.9286804-2.1945801,2.1098328-2.2928162v-2.0408325
				c-1.1811523-0.0982666-2.1098328-1.0862122-2.1098328-2.2928162c0-1.2065735,0.9286804-2.1948547,2.1098328-2.2930908v-2.0405884
				c-1.1811523-0.0982361-2.1098328-1.0865173-2.1098328-2.2930908s0.9286804-2.1945496,2.1098328-2.2927856v-2.0408936
				c-1.1811523-0.0982361-2.1098328-1.0862122-2.1098328-2.2927856c0-1.206604,0.9286804-2.1948853,2.1098328-2.2931213v-2.0405579
				c-1.1811523-0.0982361-2.1098328-1.0865173-2.1098328-2.2931213c0-1.206543,0.9286804-2.1945496,2.1098328-2.2927856v-2.040863
				c-1.1811523-0.0982361-2.1098328-1.0862122-2.1098328-2.2927856c0-1.206604,0.9286804-2.1948547,2.1098328-2.2930908v-2.0405884
				c-1.1811523-0.0982361-2.1098328-1.0865173-2.1098328-2.2930908c0-1.206604,0.9286804-2.1945801,2.1098328-2.2928162v-1.3415527
				c-0.7433777-0.2217102-1.3286743-0.8083191-1.5487366-1.5524902h-1.6797485
				c-0.1221313,1.1566162-1.1003418,2.0579834-2.2891846,2.0579834c-1.1888733,0-2.1665039-0.9013672-2.2891846-2.0579834
				h-2.0479126c-0.1221313,1.1566162-1.1003418,2.0579834-2.2892151,2.0579834
				c-1.1888428,0-2.1669006-0.9013672-2.2893372-2.0579834h-2.0476074
				c-0.1224365,1.1566162-1.1003418,2.0579834-2.2894897,2.0579834s-2.1667786-0.9013672-2.2891846-2.0579834H319.41922
				c-0.1224365,1.1566162-1.1000366,2.0579834-2.2891846,2.0579834c-1.1891785,0-2.1670837-0.9013672-2.2894897-2.0579834
				h-2.0476379c-0.122406,1.1566162-1.1006165,2.0579834-2.2894897,2.0579834c-1.1888428,0-2.166748-0.9013672-2.2891846-2.0579834
				h-2.0478821c-0.1224365,1.1566162-1.1003723,2.0579834-2.2892151,2.0579834
				c-1.1888733,0-2.1670532-0.9013672-2.2894897-2.0579834h-2.0476074
				c-0.1224365,1.1566162-1.1003418,2.0579834-2.2894897,2.0579834c-1.1891785,0-2.1667786-0.9013672-2.2892151-2.0579834
				h-2.0478821c-0.122406,1.1566162-1.1000671,2.0579834-2.2892151,2.0579834c-1.1891174,0-2.1670532-0.9013672-2.2894897-2.0579834
				h-2.0475769c-0.1224365,1.1566162-1.1005249,2.0579834-2.2894897,2.0579834
				c-1.1889954,0-2.1669617-0.9013672-2.2892151-2.0579834h-2.0478821
				c-0.1222839,1.1566162-1.1002197,2.0579834-2.2892456,2.0579834c-1.1889954,0-2.1670532-0.9013672-2.2894897-2.0579834
				h-2.0475769c-0.1224365,1.1566162-1.1004944,2.0579834-2.2895203,2.0579834
				c-1.1889648,0-2.1669006-0.9013672-2.2891846-2.0579834h-2.0478821
				c-0.1222839,1.1566162-1.1002197,2.0579834-2.2891846,2.0579834c-1.1890259,0-2.1671143-0.9013672-2.2894897-2.0579834
				h-2.0476379c-0.122406,1.1566162-1.1004944,2.0579834-2.2894897,2.0579834s-2.1669159-0.9013672-2.2891998-2.0579834h-1.2398834
				c-0.1852722,0.6263123-0.6298065,1.1396179-1.2090454,1.4193115v1.4747314
				c1.1811523,0.0979309,2.1099854,1.0860596,2.1099854,2.2928162c0,1.2067261-0.928833,2.1950073-2.1099854,2.2930908v2.0405884
				c1.1811523,0.0980835,2.1099854,1.0863647,2.1099854,2.2930908c0,1.2066956-0.928833,2.1948547-2.1099854,2.2927856v2.040863
				c1.1811523,0.0979614,2.1099854,1.0860901,2.1099854,2.2927856c0,1.2067566-0.928833,2.1950073-2.1099854,2.2931213v2.0405579
				c1.1811523,0.0980835,2.1099854,1.0863647,2.1099854,2.2931213c0,1.2067261-0.928833,2.1948547-2.1099854,2.2927856v2.0408936
				c1.1811523,0.0979309,2.1099854,1.0860596,2.1099854,2.2927856s-0.928833,2.1950073-2.1099854,2.2930908v2.0405884
				c1.1811523,0.0980835,2.1099854,1.0863647,2.1099854,2.2930908s-0.928833,2.1948547-2.1099854,2.2928162v2.0408325
				c1.1811523,0.0979309,2.1099854,1.0860901,2.1099854,2.2928162s-0.928833,2.1950073-2.1099854,2.2930908v2.0405884
				c1.1811523,0.0980835,2.1099854,1.0863647,2.1099854,2.2930908s-0.928833,2.1948547-2.1099854,2.2927856v2.0408936
				c1.1811523,0.0979309,2.1099854,1.0860596,2.1099854,2.2927856c0,1.2067566-0.928833,2.1950378-2.1099854,2.2931213v2.0405579
				c1.1811523,0.098114,2.1099854,1.0863647,2.1099854,2.2931213c0,1.2066956-0.928833,2.1948547-2.1099854,2.2927856v2.040863
				c1.1811523,0.0979309,2.1099854,1.0860596,2.1099854,2.2927856s-0.928833,2.1950073-2.1099854,2.2930908v2.0405884
				c1.1811523,0.0980835,2.1099854,1.0863647,2.1099854,2.2930908c0,1.2067566-0.928833,2.1948853-2.1099854,2.2928162v2.040863
				c1.1811523,0.0979614,2.1099854,1.0860901,2.1099854,2.2928162c0,1.2068787-0.928833,2.1948547-2.1099854,2.2927856v2.040863
				c1.1811523,0.0979614,2.1099854,1.0857849,2.1099854,2.2929688c0,1.206604-0.928833,2.1948547-2.1099854,2.2928162v2.0408325
				c1.1811523,0.0979309,2.1099854,1.0856628,2.1099854,2.2928162c0,1.2065735-0.928833,2.1948547-2.1099854,2.2928162v2.040863
				c1.1811523,0.0979309,2.1099854,1.0856018,2.1099854,2.2927856c0,1.206604-0.928833,2.1948547-2.1099854,2.2928162v2.1683044
				c0.3463287,0.1669617,0.6439514,0.4171143,0.8672943,0.7263184h1.5733795
				c0.0517883-1.2254944,1.0589294-2.2043152,2.2974548-2.2043152c1.2385559,0,2.2460022,0.9788208,2.29776,2.2043152h2.0310669
				c0.0517883-1.2254944,1.0592041-2.2043152,2.2977905-2.2043152c1.2385559,0,2.245697,0.9788208,2.2974243,2.2043152h2.0313721
				c0.0517883-1.2254944,1.0589294-2.2043152,2.2974548-2.2043152c1.2385864,0,2.2460022,0.9788208,2.2977905,2.2043152h2.0310669
				c0.0517578-1.2254944,1.0592041-2.2043152,2.2977295-2.2043152c1.2385864,0,2.245697,0.9788208,2.2974854,2.2043152h2.0313721
				c0.0517578-1.2254944,1.0588989-2.2043152,2.2974854-2.2043152c1.2385254,0,2.2459412,0.9788208,2.2977295,2.2043152h2.0310974
				c0.0518799-1.2254944,1.059021-2.2043152,2.2977295-2.2043152s2.2455444,0.9788208,2.2974854,2.2043152h2.0313721
				c0.0519104-1.2254944,1.0587463-2.2043152,2.2974548-2.2043152c1.238678,0,2.2458191,0.9788208,2.29776,2.2043152h2.0310669
				c0.0519104-1.2254944,1.0590515-2.2043152,2.29776-2.2043152s2.2455444,0.9788208,2.2974854,2.2043152h2.0313416
				c0.0519104-1.2254944,1.0587463-2.2043152,2.2974548-2.2043152s2.2458496,0.9788208,2.29776,2.2043152h2.0310974
				c0.0519104-1.2254944,1.0590515-2.2043152,2.29776-2.2043152c1.238678,0,2.2455139,0.9788208,2.2974548,2.2043152h2.0313416
				c0.0519409-1.2254944,1.0587769-2.2043152,2.2974854-2.2043152s2.2458496,0.9788208,2.2977295,2.2043152h2.0310974
				c0.0519409-1.2254944,1.0592041-2.2043152,2.2976074-2.2043152c1.2390137,0,2.2455444,0.9788208,2.2974854,2.2043152h2.0313416
				c0.0519409-1.2254944,1.059082-2.2043152,2.2974854-2.2043152c1.2389832,0,2.2455444,0.9788208,2.2974548,2.2043152h2.0130615
				c0.2938538-0.4065247,0.7156982-0.7133179,1.2071533-0.8596497v-2.0349731
				C341.3455811,472.838562,340.4169006,471.8508911,340.4169006,470.6442871z"/>
		</g>
		
			<linearGradient id="SVGID_1_" gradientUnits="userSpaceOnUse" x1="297.6403809" y1="470.6446838" x2="297.6403809" y2="371.2453918" gradientTransform="matrix(1 0 0 -1 0 841.8900146)">
			<stop  offset="0" style="stop-color:#CDCDCD"/>
			<stop  offset="1" style="stop-color:#ADADAD"/>
		</linearGradient>
		<polygon class="st1" points="336.8407898,470.6445923 258.4400024,470.6445923 258.4400024,371.2453003 336.8407898,371.2453003 
					"/>
	</g>
	<g>
		<path class="st0" d="M286.5685425,462.3220215c0-0.3092957-0.1158142-0.5622253-0.3476868-0.7585754
			c-0.231842-0.1961975-0.6354065-0.3697815-1.2110596-0.5206299c-0.6225281-0.1562805-1.0938721-0.3594055-1.4142151-0.6094666
			c-0.320343-0.2500305-0.4804993-0.5873718-0.4804993-1.0118408c0-0.4349976,0.1790161-0.7891541,0.5370789-1.0626221
			c0.3582153-0.2734985,0.818512-0.4102173,1.381073-0.4102173c0.5859985,0,1.0587158,0.1627197,1.4181213,0.4883423
			s0.533844,0.7227478,0.5234985,1.1915588l-0.0117188,0.0234375h-0.4297485c0-0.3803101-0.1346741-0.6928406-0.4044189-0.9376221
			c-0.2693787-0.244751-0.6347351-0.367218-1.0957336-0.367218c-0.455719,0-0.8118896,0.1015625-1.0685425,0.304718
			c-0.2565002,0.2031555-0.3847351,0.455719-0.3847351,0.7579041c0,0.2865601,0.1185608,0.5253906,0.3555298,0.71698
			c0.2369385,0.1912537,0.6459351,0.3599243,1.2266846,0.5058289c0.611969,0.1562805,1.0775452,0.3672485,1.3965454,0.6329041
			c0.3191528,0.2656555,0.4786377,0.6159058,0.4786377,1.0509033c0,0.453186-0.1854858,0.8139648-0.5567932,1.0821838
			c-0.3709412,0.268219-0.8443298,0.4024048-1.4199829,0.4024048c-0.5678101,0-1.0632935-0.1425171-1.4865723-0.427887
			c-0.4230957-0.2850037-0.6282654-0.7011719-0.6152039-1.2481079l0.0078125-0.0234375h0.4297485
			c0,0.4414368,0.1654358,0.7685852,0.4961243,0.9815979c0.330719,0.2128296,0.7201843,0.3193359,1.1680908,0.3193359
			c0.4506226,0,0.8146362-0.0986938,1.0918274-0.2963867C286.4299622,462.9085388,286.5685425,462.6471252,286.5685425,462.3220215z
			"/>
		<path class="st0" d="M289.4937744,463.7189331h-0.4687805v-5.6882324h0.4687805V463.7189331z"/>
		<path class="st0" d="M292.3566895,463.3204651h2.8127747v0.398468h-3.2815857v-5.6882324h0.468811V463.3204651z"/>
		<path class="st0" d="M297.8173523,462.7578735l0.1132812,0.3789673h0.0234375l0.1132812-0.3789673l1.7072144-4.7271729h0.5078735
			l-2.1213074,5.6882324h-0.4414673l-2.1213074-5.6882324h0.5078735L297.8173523,462.7578735z"/>
		<path class="st0" d="M305.1572571,460.9646912h-2.7385559v2.3557739h3.1370544v0.398468h-3.6019592v-5.6882324h3.5823975
			v0.3984985h-3.1174927v2.1369934h2.7385559V460.9646912z"/>
		<path class="st0" d="M307.8168335,461.1482849v2.5706482h-0.4648743v-5.6843262h1.9259644
			c0.609436,0,1.0769043,0.1335144,1.4024963,0.4003601c0.3256226,0.2670288,0.4883423,0.6570129,0.4883423,1.170166
			c0,0.3021851-0.0873108,0.5722656-0.2617493,0.81073c-0.1744385,0.2381592-0.4205627,0.4120789-0.7383728,0.5214844
			c0.351593,0.0884705,0.6048584,0.2467957,0.7597656,0.4745789c0.1550903,0.2279358,0.2325439,0.5138245,0.2325439,0.857605
			v0.5352478c0,0.1771545,0.020874,0.335968,0.0625,0.4766235c0.0415955,0.140625,0.1107483,0.2552795,0.2070618,0.3437805v0.09375
			h-0.4766235c-0.0963135-0.09375-0.164093-0.2252197-0.2031555-0.3945618s-0.0585938-0.3451538-0.0585938-0.5274048v-0.5196228
			c0-0.3490601-0.1126099-0.6243896-0.3378296-0.826355c-0.2254028-0.2017822-0.5397949-0.3027039-0.9435425-0.3027039H307.8168335z
			 M307.8168335,460.7498169h1.4024963c0.5131226,0,0.8881836-0.1036072,1.1251221-0.3105164
			c0.2369385-0.2072144,0.3554993-0.4864807,0.3554993-0.8380737c0-0.375061-0.1178894-0.6634827-0.3534546-0.8652649
			c-0.2357788-0.2019653-0.5919495-0.3028564-1.068573-0.3028564h-1.4610901V460.7498169z"/>
	</g>
	<g>
		<g id="Rounded_Rectangle_1_3_">
			<g>
				<path class="st0" d="M300.45047,450.858551h-5.5994568c-1.2837524,0-2.3281555-1.0444031-2.3281555-2.3281555v-5.5997009
					c0-1.2837524,1.0444031-2.328125,2.3281555-2.328125h5.5994568c1.2837524,0,2.3281555,1.0443726,2.3281555,2.328125v5.5997009
					C302.7786255,449.8141479,301.7342224,450.858551,300.45047,450.858551z M294.8510132,440.6293945
					c-1.2689514,0-2.3013306,1.0323792-2.3013306,2.3013v5.5997009c0,1.2689209,1.0323792,2.3013,2.3013306,2.3013h5.5994568
					c1.2689514,0,2.3013306-1.0323792,2.3013306-2.3013v-5.5997009c0-1.2689209-1.0323792-2.3013-2.3013306-2.3013H294.8510132z"/>
			</g>
			<g>
				<path class="st0" d="M300.45047,440.771637c1.1904907,0,2.1590271,0.9685364,2.1590271,2.1590576v5.5996704
					c0,1.1905212-0.9685364,2.1590881-2.1590271,2.1590881h-5.5994873c-1.1904907,0-2.1590271-0.9685669-2.1590271-2.1590881
					v-5.5996704c0-1.1905212,0.9685364-2.1590576,2.1590271-2.1590576H300.45047 M300.45047,440.4602661h-5.5994873
					c-1.3643494,0-2.4703674,1.1060486-2.4703674,2.4704285v5.5996704c0,1.3643799,1.1060181,2.470459,2.4703674,2.470459h5.5994873
					c1.3643799,0,2.4703674-1.1060791,2.4703674-2.470459v-5.5996704
					C302.9208374,441.5663147,301.8148499,440.4602661,300.45047,440.4602661L300.45047,440.4602661z"/>
			</g>
		</g>
		<path class="st0" d="M293.7078857,436.5430298c0.0895386,0.2796326,0.1783447,0.5530396,0.2755737,0.8581848
			c-0.4180298,0.1471863-0.7227783,0.2098389-0.9760437-0.259613c-1.9326782-3.5827026-3.9883728-7.1060791-5.803894-10.7466736
			c-1.7055359-3.4200439-3.2705994-6.9345703-4.7059631-10.4770203c-0.0222473-0.0549316-0.0437622-0.0779114-0.0659485-0.1853027
			h5.2406311c0.9293213,4.0803833,2.0343323,7.9937744,3.213501,11.9375916
			C291.7722778,430.635376,292.7637939,433.5950928,293.7078857,436.5430298z"/>
		<path class="st0" d="M278.8349609,404.2163086h6.6912537c-0.1231995-0.8321838-0.2414551-1.6598816-0.3555298-2.497345
			c-0.5278931-3.8763733-0.6435852-7.7605591,0.0151062-11.6456909c0.4442139-2.6200867,1.2156067-5.1179199,2.7687073-7.3009338
			c0.6996155-0.9833679,1.5633545-1.8482361,2.3526611-2.7678528c-0.0030212-0.0331421-0.006012-0.0654297-0.0090332-0.0986023
			c-1.1520081,0.4742126-2.3382568,0.8802795-3.4498291,1.4354553c-3.937439,1.9666138-6.5678711,5.081665-7.8901062,9.2768555
			c-1.0231323,3.2461548-1.1196899,6.5628357-0.722229,9.9118652
			C278.3839417,401.7769775,278.5874329,403.0888367,278.8349609,404.2163086z"/>
		<path class="st0" d="M307.7665405,415.732605c-0.5516663,2.4160156-1.1589661,4.6941833-1.8149719,7.0121765
			c-1.0322266,3.6472473-2.156311,7.2787781-3.2581482,10.9060364c-0.3786316,1.2464905-0.8134155,2.4810181-1.2344666,3.7542419
			c0.7137756,0.1666565,0.7121582,0.1682434,1.0174255-0.3492432c0.1944275-0.3294983,0.408844-0.646698,0.5897522-0.9832764
			c1.7290649-3.21698,3.4792175-6.442627,5.1715088-9.678894c1.8052673-3.45224,3.3750916-6.9296265,4.7836609-10.6610413
			H307.7665405z"/>
		<path class="st0" d="M305.2679443,380.2833557c1.6944275,1.4396057,2.9006958,3.2264709,3.7351685,5.2736511
			c1.1390076,2.7944031,1.5844727,5.7130432,1.6676025,8.7063599c0.0931091,3.3526611-0.206543,6.6242065-0.6856689,9.9529419
			h6.6198425c0.3260498-1.6911926,0.5700684-3.1875,0.7078552-4.8240051
			c0.2879028-3.418396,0.0117493-6.7717896-1.2607422-10.005188c-0.6708069-1.7045288-1.6130981-3.2392578-2.8427429-4.5793457
			c-1.3977356-1.5233459-3.0161743-2.7891541-4.9164734-3.6393433c-1.036377-0.4636536-2.1143494-0.8335266-3.2498169-1.2759094
			c0.0298767,0.1789246,0.0266113,0.2026672,0.0366211,0.212677
			C305.140564,380.1663513,305.2021484,380.227478,305.2679443,380.2833557z"/>
		<path class="st0" d="M277.3205872,417.8621826c-0.3793945-0.6965637-0.7435608-1.3779297-1.0945129-2.1295776h-1.2146606
			c1.9440613,3.5434875,4.1474304,6.7875977,6.4862366,9.9993286c0.577301,0.7927246,1.1810303,1.5762939,1.7726135,2.3586426
			c-0.0827637-0.3133545-0.2503967-0.5617065-0.4061584-0.8235168
			C281.0062256,424.1440735,279.0575867,421.0510559,277.3205872,417.8621826z"/>
		<path class="st0" d="M270.1480713,404.2163086h1.8633728c-0.5959167-2.6307678-0.8840027-5.2662659-0.6280518-8.0126343
			c0.2983398-3.2014771,1.1673279-6.2130127,2.9342651-8.9317322c0.4132385-0.6358337,0.8699036-1.2398682,1.3066101-1.8604431
			c-1.6452332,1.1959229-3.3833008,3.3158264-4.3567505,5.2203979c-1.9894104,3.8924866-2.2632751,7.9838562-1.4328308,12.1969604
			C269.9275818,403.3001099,270.0338745,403.6794128,270.1480713,404.2163086z"/>
		<path class="st0" d="M316.9020996,420.0890808c-1.0315552,1.8718567-2.1716309,3.6943054-3.2757568,5.5257568
			c-0.469574,0.7789001-0.9692383,1.5447083-1.4552307,2.3136902c0.0370483,0.0298767,0.0740967,0.0622864,0.1111755,0.0921936
			c0.0317993-0.0600586,0.0570068-0.1236572,0.096405-0.1782532c1.2321167-1.7049561,2.5397339-3.3804932,3.6815186-5.1438599
			c1.4781189-2.2829285,2.901062-4.5499878,4.283844-6.9660034h-1.1571655
			C318.4640808,417.1822205,317.6901245,418.6591492,316.9020996,420.0890808z"/>
		<path class="st0" d="M322.3421326,389.5263367c1.6454773,3.5975647,2.1100769,7.4013062,1.6751404,11.314209
			c-0.1275024,1.1470642-0.3201294,2.248291-0.5664978,3.3757629h1.8418884
			c0.8603516-3.4360962,1.0700378-6.8384705,0.1437988-10.3192139c-0.9223022-3.466095-2.8616333-6.2527771-5.645874-8.4754333
			c0.1147156,0.1495667,0.2433472,0.2940674,0.3419189,0.4536133
			C320.8807068,387.0860901,321.754425,388.2414551,322.3421326,389.5263367z"/>
		<path class="st0" d="M295.9543457,424.1487122c0.3055725,3.0539551,0.6421814,6.1160278,0.9769897,9.1680603
			c0.1444397,1.3162537,0.3127136,2.6359863,0.4907837,3.9496155c0.0160522,0.1184692,0.1836243,0.2264099,0.2808838,0.3378601
			c0.1132812-0.1187439,0.2990723-0.2265015,0.3265381-0.35672c0.0896301-0.4256287,0.1273193-0.8579407,0.1749573-1.2887878
			c0.4023743-3.6412354,0.8339539-7.3005981,1.1953735-10.9444275c0.3061218-3.0863037,0.6036682-6.1408691,0.8761597-9.2817078
			h-5.1288147C295.3994141,418.4439087,295.6744385,421.3507996,295.9543457,424.1487122z"/>
		<path class="st0" d="M294.2206421,404.2163086h3.4456787h3.477478c0.0491028-0.5905762,0.0983887-1.3964233,0.1434631-2.1017151
			c0.2976685-4.6603699,0.5811462-9.3070679,0.1638794-13.9731445c-0.1820068-2.0357056-0.4904175-4.0665894-1.3588867-5.9957275
			c-0.3464355-0.7695618-0.9147644-1.5142212-1.5421448-2.1637573c-0.2666626-0.276062-0.5346375-0.4215393-0.8837891-0.4406128
			c-0.3491516,0.019043-0.6012268,0.1640015-0.8678894,0.4400635c-0.6273499,0.6495361-1.1764221,1.3933716-1.5228882,2.1629333
			c-0.8684387,1.9291382-1.1785278,3.9585266-1.3605652,5.9942322c-0.4172668,4.6660767-0.134613,9.3156738,0.1630554,13.9760437
			C294.1230774,402.8199158,294.1715393,403.6257324,294.2206421,404.2163086z"/>
		<path class="st0" d="M300.0127563,444.6667175c-0.5387268-1.6463928-1.684082-2.1547546-3.2651672-1.6373596l-1.7610779,0.5762634
			l1.6793518,5.1323242l1.7610779-0.5762634C300.1376953,447.6018677,300.5748596,446.3845215,300.0127563,444.6667175z
			 M298.2962341,447.5681763l-1.1357117,0.3716431l-1.3030396-3.9822693l1.1500549-0.3763428
			c1.2580261-0.4116516,1.9529724,0.1805725,2.3526917,1.4020691
			C299.9787903,446.8737488,298.7635803,447.4152527,298.2962341,447.5681763z"/>
		<g>
			<g>
				<polygon class="st0" points="267.8832092,406.3907166 267.8832092,413.6387329 268.7421875,413.6387329 
					268.7421875,407.6524048 268.7984619,407.6524048 271.056488,413.6387329 271.8766479,413.6387329 274.1346436,407.6524048 
					274.1378174,407.6524048 274.1378174,413.6387329 275.0505066,413.6387329 275.0505066,406.3907166 273.7498474,406.3907166 
					271.4615173,412.4662476 269.1832275,406.3907166 				"/>
			</g>
			<g>
				<polygon class="st0" points="279.6139526,410.6753845 282.4172363,406.3907166 281.3236694,406.3907166 
					279.2073975,409.8334961 277.0405273,406.3907166 275.8963318,406.3907166 278.7012634,410.6753845 278.7012634,413.6387329 
					279.6139526,413.6387329 				"/>
			</g>
			<path class="st0" d="M291.0947876,407.2575073c-0.6009216-0.5669556-1.4581299-0.8484802-2.5718994-0.8484802h-2.4510498
				v7.2653198h2.4510498c0.6007385,0,1.1204529-0.1054077,1.5593262-0.274231
				c0.4386902-0.1686401,0.7999268-0.4238892,1.0834351-0.7446594c0.2835388-0.3205261,0.4926453-0.7206726,0.6277771-1.1900635
				c0.1349182-0.4689636,0.2025146-1.0101318,0.2025146-1.6176453
				C291.9959412,408.686676,291.6954651,407.8246765,291.0947876,407.2575073z M290.8973083,411.1167908
				c-0.091095,0.3139343-0.2075195,0.5751343-0.3493347,0.7843018c-0.1417236,0.2093506-0.3021545,0.3744202-0.4809265,0.4960022
				c-0.1789551,0.1214294-0.3594971,0.2142944-0.5417786,0.2782593c-0.182251,0.064209-0.3543701,0.1156006-0.5163879,0.1324463
				c-0.1620178,0.0169067-0.2970886,0.0362244-0.4050293,0.0362244h-1.5979309v-5.6046753h1.6182251
				c0.4454956,0,0.8201599,0.0490112,1.1239014,0.1738281c0.3037415,0.1250305,0.5518494,0.3005981,0.7442322,0.5400696
				c0.1923828,0.2397156,0.3306885,0.5266418,0.4151611,0.8673706c0.0843201,0.3410034,0.1265259,0.7258911,0.1265259,1.1577759
				C291.0339661,410.4239502,290.9884644,410.8028564,290.8973083,411.1167908z"/>
			<path class="st0" d="M298.795166,413.2330627c-0.0505676-0.1585693-0.0895386-0.3361816-0.116394-0.5117798
				c-0.0270386-0.175415-0.0439758-0.3596802-0.0506592-0.5418701c-0.0068359-0.1823425-0.0168457-0.363739-0.030365-0.5393372
				c-0.0202332-0.1755066-0.0489807-0.3457031-0.0860596-0.5075684c-0.037262-0.1620789-0.0945435-0.3096008-0.1720581-0.4412231
				c-0.0777588-0.1316223-0.1951904-0.2449341-0.3268127-0.3395081c-0.1316223-0.0945435-0.3167725-0.162384-0.524353-0.2028503
				v-0.0202332c0.4151611-0.1216125,0.7706604-0.3475647,0.9699097-0.6785583
				c0.1988831-0.3305359,0.3051147-0.7153931,0.3051147-1.1543274c0-0.5871887-0.1908875-1.0462036-0.5790405-1.3837891
				c-0.3882751-0.3375549-0.9232178-0.5029907-1.6117859-0.5029907h-3.4432678v7.2653198h1.0378723v-3.1137085h2.3142395
				c0.2362366,0,0.4253235,0.0270386,0.5669861,0.0979614c0.1418457,0.0708008,0.2565308,0.1612549,0.3443604,0.2792358
				c0.0875244,0.1182251,0.1518555,0.2545471,0.1923218,0.4129944c0.0404663,0.158783,0.0742188,0.3248291,0.1012573,0.5001831
				c0.0337524,0.1757202,0.0540161,0.3538818,0.0608215,0.5361938c0.0065918,0.182312,0.0133972,0.3525391,0.0202332,0.5110779
				c0.0065613,0.158783,0.0218201,0.3231812,0.0454407,0.451416c0.0236511,0.1282043,0.0692444,0.2208557,0.1368713,0.324646
				h1.0731506C298.9217834,413.4667664,298.8458557,413.3917236,298.795166,413.2330627z M297.3067017,409.4872742
				c-0.1518555,0.0979919-0.3290405,0.1612549-0.5315552,0.1950073c-0.2024841,0.0338745-0.4151611,0.0480347-0.6379089,0.0480347
				h-1.9699707v-2.4909668h2.3547363c0.4521484,0,0.7796936,0.1014404,0.9822388,0.33078
				c0.2025452,0.2295837,0.3037109,0.5198669,0.3037109,0.8843689c0,0.2632446-0.0454712,0.4743652-0.1366272,0.6396179
				C297.5801697,409.259613,297.4585571,409.3895569,297.3067017,409.4872742z"/>
			<g>
				<polygon class="st0" points="300.0689392,406.3907166 300.0689392,413.6387329 305.169281,413.6387329 305.169281,412.8334045 
					301.0084839,412.8334045 301.0084839,410.336853 304.8471375,410.336853 304.8471375,409.4778442 301.0084839,409.4778442 
					301.0084839,407.2497559 305.0887451,407.2497559 305.0887451,406.3907166 				"/>
			</g>
			<path class="st0" d="M309.3205872,406.4090271h-1.0631714l-2.8149719,7.2653198h0.9822388l0.8100281-2.1795959h3.0579834
				l0.7897034,2.1795959h1.0632629L309.3205872,406.4090271z M307.5385437,410.6644287l1.2251282-3.4250793h0.0203247
				l1.204895,3.4250793C309.9888916,410.6644287,307.5385437,410.6644287,307.5385437,410.6644287z"/>
			<g>
				<polygon class="st0" points="312.8734436,406.3907166 312.8734436,413.6387329 313.7861328,413.6387329 
					313.7861328,407.6524048 313.8062134,407.6524048 316.0642395,413.6387329 316.8843994,413.6387329 319.1424561,407.6524048 
					319.1817627,407.6524048 319.1817627,413.6387329 320.1212769,413.6387329 320.1212769,406.3907166 318.7575989,406.3907166 
					316.4692078,412.4662476 314.1909485,406.3907166 				"/>
			</g>
			<g>
				<path class="st0" d="M325.8554382,408.4845886h0.9113159c-0.0136414-0.4026794-0.0895691-0.7237244-0.2277832-1.0107422
					c-0.1384277-0.2868652-0.3275757-0.5162659-0.5670471-0.7052917c-0.2396851-0.1889038-0.518158-0.3230896-0.8353882-0.4109497
					c-0.3173218-0.0876465-0.6615906-0.1296082-1.0328064-0.1296082c-0.3308411,0-0.6530762,0.043335-0.9670105,0.1276855
					c-0.3139038,0.0845642-0.5940857,0.2131958-0.8403625,0.385376c-0.246521,0.1720886-0.4439697,0.3918152-0.5924072,0.6583557
					c-0.1485291,0.2667847-0.2227478,0.582428-0.2227478,0.9469299c0,0.3307495,0.0657959,0.6061096,0.1974182,0.8252563
					c0.1317139,0.2196045,0.3070984,0.3985291,0.5265808,0.5367432c0.2192383,0.1384277,0.4673462,0.2498474,0.7442322,0.3341675
					c0.2767334,0.0845642,0.5585022,0.1586914,0.8454895,0.2227783c0.2867737,0.0643311,0.568634,0.1266479,0.8454895,0.1873169
					c0.2766418,0.0608215,0.5247803,0.1402588,0.7442322,0.2380066c0.2192688,0.0979919,0.3948669,0.2244873,0.5264893,0.3796387
					c0.1315918,0.1554871,0.1974182,0.3580322,0.1974182,0.6076355c0,0.2632446-0.0541077,0.4794312-0.1619568,0.6481018
					c-0.1080933,0.1687927-0.2498169,0.3020935-0.4253235,0.3998413c-0.1755981,0.0979919-0.3730164,0.1670837-0.5922852,0.2076721
					c-0.2194519,0.0405884-0.4371033,0.0608215-0.6531677,0.0608215c-0.27005,0-0.5332947-0.033783-0.7897034-0.1014099
					c-0.2566528-0.0672913-0.4809875-0.1720581-0.6734314-0.3138123c-0.1922913-0.1417236-0.3476868-0.3103027-0.4657593-0.5298767
					c-0.1181946-0.2191467-0.1771851-0.4506531-0.1771851-0.7727966h-0.9113159
					c0,0.4026794,0.0793457,0.8066406,0.2380066,1.1271667c0.1585388,0.3207703,0.3746033,0.5780334,0.6479492,0.7839966
					c0.273468,0.2059631,0.5906677,0.3564148,0.9518738,0.4576721c0.3609924,0.1012878,0.7442627,0.1504822,1.1492004,0.1504822
					c0.3306274,0,0.663208-0.0397339,0.997345-0.1172485c0.3341675-0.0775146,0.636261-0.2029114,0.906311-0.3751221
					c0.2699585-0.1720581,0.4911194-0.3950195,0.663208-0.668396c0.1721802-0.2733459,0.2582397-0.6026001,0.2582397-0.9873352
					c0-0.3576965-0.0658264-0.6548462-0.1974487-0.8911438c-0.1317139-0.2362061-0.307312-0.4319458-0.5265503-0.5873108
					c-0.2194824-0.1552734-0.4674988-0.2785034-0.7442322-0.3696594c-0.276886-0.091156-0.5586548-0.1703796-0.84552-0.2380066
					c-0.2869873-0.0672913-0.5687256-0.1297913-0.8454895-0.1873169c-0.276886-0.0572815-0.5248718-0.1297913-0.7442322-0.2176514
					c-0.2193604-0.0876465-0.3948669-0.2008362-0.5264587-0.3392944c-0.1316223-0.1382141-0.1974487-0.3189392-0.1974487-0.541687
					c0-0.2362061,0.0454712-0.4336243,0.1366272-0.5923157c0.091156-0.1585388,0.2126465-0.2851562,0.364502-0.3797302
					c0.151947-0.0944519,0.3256226-0.1620789,0.5214539-0.2025452c0.1957397-0.0404663,0.3949585-0.0606995,0.5975037-0.0606995
					c0.4994202,0,0.9094849,0.0993958,1.2302246,0.3323059
					C325.6140137,407.6054688,325.8013306,407.9476929,325.8554382,408.4845886z"/>
			</g>
		</g>
		<path class="st0" d="M328.5591125,405.6296082c-0.4916992,0-0.8916931-0.4000244-0.8916931-0.8917236
			s0.3999939-0.8917236,0.8916931-0.8917236c0.4916687,0,0.8916931,0.4000244,0.8916931,0.8917236
			S329.0507812,405.6296082,328.5591125,405.6296082z M328.5591125,403.9266968
			c-0.4472656,0-0.8111572,0.3638916-0.8111572,0.8111877s0.3638916,0.8111877,0.8111572,0.8111877
			s0.8111572-0.3638916,0.8111572-0.8111877S329.0063782,403.9266968,328.5591125,403.9266968z"/>
		<path class="st0" d="M328.9260864,405.1344604c-0.0062866-0.0196838-0.0111084-0.0404053-0.0144348-0.0622253
			c-0.0033569-0.021759-0.0054626-0.0439758-0.0063171-0.0666199c-0.000824-0.0226135-0.0021057-0.0447998-0.0037537-0.0666199
			c-0.002533-0.021759-0.006073-0.0427551-0.0106812-0.0628357c-0.0046082-0.0201111-0.0117493-0.0383301-0.0213928-0.0546875
			c-0.009613-0.0163269-0.022583-0.030365-0.0389404-0.0421143c-0.0163269-0.0117188-0.0375366-0.0201111-0.0634766-0.0251465
			v-0.0025024c0.0544739-0.0151062,0.0940552-0.0431519,0.1187744-0.0842285
			c0.0247192-0.0410461,0.0370789-0.0888062,0.0370789-0.14328c0-0.0729065-0.0240784-0.1303101-0.0722656-0.1722107
			c-0.0482178-0.0419006-0.1150208-0.0628662-0.2005005-0.0628662h-0.4223022v0.897522h0.1193848v-0.3833923h0.291626
			c0.0293274,0,0.0527649,0.0043945,0.0704041,0.0131836c0.0175781,0.0088196,0.0317993,0.0205383,0.0427246,0.0351868
			c0.0108643,0.014679,0.0188599,0.0318909,0.0238647,0.0515442c0.0050659,0.0197144,0.0092163,0.0404358,0.0125732,0.0622253
			c0.0041809,0.0217896,0.0067139,0.0440063,0.0075684,0.0666199c0.0007935,0.022644,0.0016479,0.0437927,0.0025024,0.0634766
			c0.0007935,0.0196838,0.0027161,0.0375366,0.0056458,0.0534363c0.0028992,0.0159302,0.0085754,0.0285034,0.0169373,0.0377197
			h0.1332703C328.941803,405.1715393,328.932373,405.1541443,328.9260864,405.1344604z M328.741333,404.6719055
			c-0.0188599,0.012146-0.040863,0.0203247-0.0660095,0.0245056c-0.0251465,0.0042114-0.0515137,0.0062866-0.0791626,0.0062866
			h-0.2489014v-0.3130188h0.2966309c0.0561523,0,0.0968018,0.0142822,0.1219482,0.0427551
			c0.025116,0.0284729,0.0376892,0.0653687,0.0376892,0.1106262c0,0.0326843-0.0056458,0.0592957-0.0169678,0.0798035
			C328.7752686,404.6434021,328.7601624,404.659729,328.741333,404.6719055z"/>
	</g>
</g>
</svg>
