<?xml version="1.0" encoding="utf-8"?>
<!-- Generator: Adobe Illustrator 19.1.0, SVG Export Plug-In . SVG Version: 6.00 Build 0)  -->
<svg version="1.1" id="Слой_1" xmlns="http://www.w3.org/2000/svg" xmlns:xlink="http://www.w3.org/1999/xlink" x="0px" y="0px"
	 viewBox="252.6400146 365.9450073 90 110" style="enable-background:new 252.6400146 365.9450073 90 110;" xml:space="preserve">
<style type="text/css">
	.st0{fill:#FFFFFF;}
	.st1{fill:url(#SVGID_1_);}
</style>
<g>
	<g>
		<g>
			<path class="st0" d="M325.9452209,475.9449463l-0.0044556-0.1085815c-0.04953-1.1652527-1.0070801-2.0963135-2.1847534-2.0957336
				l0,0c-1.1773376-0.0005798-2.1343079,0.930481-2.1847534,2.0957336l0,0l-0.004425,0.1079712h-2.2481995l-0.004425-0.1079712
				c-0.0495605-1.1652527-1.0071411-2.0963135-2.1841736-2.0957336l0,0
				c-1.1779785-0.0005798-2.1358337,0.930481-2.1847839,2.0957336l0,0l-0.0050354,0.1085815h-2.2481995l-0.0043945-0.1085815
				c-0.0489807-1.1652527-1.0065308-2.0963135-2.1842041-2.0957336l0,0
				c-1.1779175-0.0005798-2.1351929,0.930481-2.1847534,2.0957336l0,0l-0.004425,0.1079712h-2.2488098l-0.0043945-0.1079712
				c-0.0495911-1.1652527-1.0068359-2.0963135-2.1842041-2.0957336l0,0
				c-1.1776123-0.0005798-2.1352234,0.930481-2.1847534,2.0957336l0,0l-0.0044556,0.1085815h-2.2481689l-0.004425-0.1085815
				c-0.0495911-1.1652527-1.0074463-2.0963135-2.1847839-2.0957336l0,0c-1.1776428-0.0005798-2.134613,0.930481-2.1841736,2.0957336
				l0,0l-0.0050049,0.1079712h-2.2485046l-0.004425-0.1079712c-0.0495605-1.1652527-1.0065308-2.0963135-2.1838989-2.0957336l0,0
				c-1.1776123-0.0005798-2.1361084,0.930481-2.1847534,2.0957336l0,0l-0.0053101,0.1085815h-2.247467l-0.004425-0.1085815
				c-0.0495605-1.1652527-1.0072937-2.0963135-2.1847839-2.0957336l0,0c-1.1774597-0.0005798-2.1352234,0.930481-2.184021,2.0957336
				l0,0l-0.004425,0.1079712h-2.2489624l-0.0043945-0.1079712c-0.0495911-1.1652527-1.0072937-2.0963135-2.1842041-2.0957336l0,0
				c-1.1774597-0.0005798-2.1357727,0.930481-2.1847534,2.0957336l0,0l-0.0050354,0.1085815h-2.2483215l-0.004425-0.1085815
				c-0.0487976-1.1652527-1.0065308-2.0963135-2.184021-2.0957336l0,0c-1.1774902-0.0005798-2.1352539,0.930481-2.1847839,2.0957336
				l0,0l-0.0044556,0.1079712h-2.2489014l-0.004425-0.1079712c-0.0489807-1.1652527-1.0067139-2.0963135-2.1842041-2.0957336l0,0
				c-1.1774902-0.0005798-2.1351929,0.930481-2.184021,2.0957336l0,0l-0.0051575,0.1085815h-2.2481995l-0.004425-0.1085815
				c-0.0489807-1.1652527-1.0072937-2.0963135-2.1847534-2.0957336l0,0
				c-1.1775208-0.0005798-2.1346283,0.930481-2.1842041,2.0957336l0,0l-0.0044098,0.1085815h-1.7402191l-0.0336304-0.0477905
				c-0.2126923-0.2932434-0.4953156-0.5316162-0.8249664-0.6903381l0,0l-0.0635681-0.03125v-2.3435669l0.1035614-0.0082397
				c1.1228943-0.0932007,2.0063019-1.0325317,2.0063019-2.1795349l0,0c0-1.147583-0.8834076-2.0868835-2.0063019-2.1801147l0,0
				l-0.1035614-0.0088501v-2.2491455l0.1035614-0.0088196c1.1228943-0.0932312,2.0063019-1.0319519,2.0063019-2.1795349l0,0
				c0-1.1481628-0.8834076-2.0874634-2.0063019-2.1806946l0,0l-0.1035614-0.0082703v-2.2497253l0.1035614-0.0082397
				c1.1228943-0.0932312,2.0063019-1.0325623,2.0063019-2.1795349l0,0c0-1.147583-0.8834076-2.0868835-2.0063019-2.180542l0,0
				l-0.1035614-0.0088501v-2.2488708l0.1035614-0.0088501c1.1228943-0.092926,2.0063019-1.0322266,2.0063019-2.1798096l0,0
				c0-1.1470032-0.8834076-2.0868835-2.0063019-2.179657l0,0l-0.1035614-0.0088501v-2.2496033l0.1035614-0.0082397
				c1.1228943-0.0933838,2.0063019-1.0326843,2.0063019-2.1798401l0,0c0-1.147583-0.8834076-2.0868835-2.0063019-2.1802673l0,0
				l-0.1041565-0.0089722v-2.2488708l0.1041565-0.0082397c1.1228943-0.0933838,2.0063019-1.0334167,2.0063019-2.1804199l0,0
				c0-1.1477051-0.8834076-2.0870361-2.0063019-2.1798096l0,0l-0.1035614-0.0088501v-2.2495728l0.1035614-0.0082397
				c1.1228943-0.0933838,2.0063019-1.0327148,2.0063019-2.1804199l0,0c0-1.1470032-0.8834076-2.0868835-2.0063019-2.179657l0,0
				l-0.1041565-0.0088501v-2.2490234l0.1041565-0.0088501c1.1228943-0.0933533,2.0063019-1.0326538,2.0063019-2.1798096l0,0
				c0-1.147583-0.8834076-2.0868835-2.0063019-2.1802673l0,0l-0.1035614-0.0082397v-2.2496033l0.1035614-0.0090027
				c1.1228943-0.0926208,2.0063019-1.0326538,2.0063019-2.179657l0,0c0-1.1470032-0.8834076-2.0870361-2.0063019-2.1804199l0,0
				l-0.1041565-0.0082397v-2.2496033l0.1041565-0.0082397c1.1228943-0.0933838,2.0063019-1.0332642,2.0063019-2.1804199l0,0
				c0-1.1470032-0.8834076-2.0868835-2.0063019-2.179657l0,0l-0.1035614-0.0088501v-2.2495728l0.1035614-0.0082703
				c1.1228943-0.0933533,2.0063019-1.0328369,2.0063019-2.1798096l0,0c0-1.147583-0.8834076-2.0870361-2.0063019-2.1802673l0,0
				l-0.1041565-0.0089722v-2.2490234l0.1041565-0.0081177c1.1228943-0.0933533,2.0063019-1.0333862,2.0063019-2.1803894l0,0
				c0-1.1470032-0.8834076-2.0870361-2.0063019-2.1798096l0,0l-0.1035614-0.0088501v-2.2496033l0.1035614-0.0082397
				c1.1228943-0.0933838,2.0063019-1.0326843,2.0063019-2.1796875l0,0c0-1.1477356-0.8834076-2.087616-2.0063019-2.1803894l0,0
				l-0.1041565-0.0088501v-2.2490234l0.1041565-0.0088501c1.1228943-0.0933533,2.0063019-1.0328064,2.0063019-2.1798096l0,0
				c0-1.1475525-0.8834076-2.0870361-2.0063019-2.1803894l0,0l-0.1035614-0.0088806v-2.2489624l0.1035614-0.0088806
				c1.1228943-0.0926208,2.0063019-1.0326233,2.0063019-2.1796265l0,0c0-1.1470032-0.8834076-2.0870667-2.0063019-2.1804199l0,0
				l-0.1041565-0.0082397v-2.2496033l0.1041565-0.0082397c1.1228943-0.0933838,2.0063019-1.0333252,2.0063019-2.1804199l0,0
				c0-1.1470032-0.8834076-2.0868835-2.0063019-2.179657l0,0l-0.1041565-0.0088501v-1.650116l0.0641632-0.0303955
				c0.5511932-0.2662659,0.9736633-0.7546692,1.1501923-1.3497009l0,0l0.0240479-0.0812683h1.4258728l0.010788,0.1016541
				c0.1162415,1.0987549,1.0459137,1.9567566,2.1765289,1.9560547l0,0c1.1304321,0.0007019,2.0608521-0.8572998,2.1770935-1.9560547
				l0,0l0.0107422-0.1016541h2.2508545l0.0113525,0.1016541c0.1162415,1.0987549,1.0460815,1.9567566,2.1765137,1.9560547l0,0
				c1.1304626,0.0007019,2.0603027-0.8572998,2.1765442-1.9560547l0,0l0.0107422-0.1016541h2.2521973l0.0100098,0.1016541
				c0.1162415,1.0987549,1.0466614,1.9567566,2.1772766,1.9560547l0,0c1.1298218,0.0007019,2.0602722-0.8572998,2.1764832-1.9560547
				l0,0l0.0107727-0.1016541h2.2514648l0.0107422,0.1016541c0.1162415,1.0987549,1.0466614,1.9567566,2.1770935,1.9560547l0,0
				c1.1298828,0.0007019,2.0603027-0.8572998,2.1765137-1.9560547l0,0l0.0108032-0.1016541h2.2514343l0.0107422,0.1016541
				c0.1162415,1.0987549,1.0460815,1.9567566,2.1765137,1.9560547l0,0c1.1306152,0.0007019,2.0602722-0.8572998,2.1770935-1.9560547
				l0,0l0.0109558-0.1016541h2.2500916l0.0112,0.1016541c0.1162415,1.0987549,1.0466614,1.9567566,2.1773987,1.9560547l0,0
				c1.1304626,0.0007019,2.0602722-0.85672,2.1765137-1.9560547l0,0l0.0106201-0.1016541h2.2514648l0.0108948,0.1016541
				c0.1162415,1.0993347,1.0460815,1.9567566,2.1765137,1.9560547l0,0c1.1304626,0.0007019,2.0602722-0.8572998,2.1770935-1.9560547
				l0,0l0.0100403-0.1016541h2.2514343l0.0109253,0.1016541c0.1168213,1.0987549,1.0466614,1.9567566,2.1770935,1.9560547l0,0
				c1.1304626,0.0007019,2.0602722-0.8572998,2.1765137-1.9560547l0,0l0.0106201-0.1016541h2.2514648l0.0108948,0.1016541
				c0.1168213,1.0987549,1.0466614,1.9567566,2.1770935,1.9560547l0,0c1.1298828,0.0007019,2.0602722-0.8572998,2.1765137-1.9560547
				l0,0l0.0108948-0.1016541h2.2505798l0.0115051,0.1016541c0.1162415,1.0987549,1.0460815,1.9567566,2.177124,1.9560547l0,0
				c1.1304016,0.0007019,2.0596619-0.85672,2.1764832-1.9560547l0,0l0.0103455-0.1016541h2.2514343l0.0112,0.1016541
				c0.1162415,1.0993347,1.0460815,1.9567566,2.1765137,1.9560547l0,0c1.1307373,0.0007019,2.0602722-0.8572998,2.1773987-1.9560547
				l0,0l0.0100098-0.1016541h2.250885l0.0115051,0.1016541c0.1162415,1.0987549,1.0464783,1.9567566,2.1769409,1.9560547l0,0
				c1.1298523,0.0007019,2.0596924-0.8572998,2.1765137-1.9560547l0,0l0.0106201-0.1016541h2.2514343l0.0112305,0.1016541
				c0.1162415,1.0987549,1.046051,1.9567566,2.1765137,1.9560547l0,0c1.1304321,0.0007019,2.0602722-0.8572998,2.1765137-1.9560547
				l0,0l0.0106201-0.1016541h1.8655701l0.0247803,0.0812683c0.2088318,0.7068481,0.7658386,1.2651672,1.4726257,1.4759216l0,0
				l0.0808411,0.0242004v1.5300903l-0.1038208,0.0088501c-1.1227722,0.0933228-2.0065918,1.0326538-2.0065918,2.179657l0,0
				c0,1.1470947,0.8838196,2.0870361,2.0065918,2.1804199l0,0l0.1038208,0.0082397v2.2496033l-0.1038208,0.0082397
				c-1.1227722,0.0933533-2.0065918,1.0334167-2.0065918,2.1804199l0,0c0,1.1470032,0.8838196,2.0862732,2.0065918,2.1796265l0,0
				l0.103241,0.0083008v2.2501526l-0.103241,0.0082703c-1.1227722,0.0933533-2.0065918,1.0328369-2.0065918,2.1803894l0,0
				c0,1.1470032,0.8838196,2.0864563,2.0065918,2.1798096l0,0l0.1038208,0.0082703v2.2496033l-0.1038208,0.0088501
				c-1.1227722,0.0933533-2.0065918,1.0326538-2.0065918,2.1803894l0,0c0,1.1464233,0.8838196,2.0863037,2.0065918,2.1796875l0,0
				l0.103241,0.0082397v2.2496033l-0.103241,0.0088501c-1.1227722,0.0933838-2.0065918,1.0328064-2.0065918,2.1798096l0,0
				c0,1.1470032,0.8838196,2.0870361,2.0065918,2.1803894l0,0l0.1038208,0.0081177v2.2497253l-0.1038208,0.0082703
				c-1.1227722,0.0932312-2.0065918,1.0332642-2.0065918,2.1802673l0,0c0,1.1469727,0.8838196,2.0864563,2.0065918,2.1798096l0,0
				l0.103241,0.0082703v2.2495728l-0.103241,0.0088501c-1.1227722,0.0933533-2.0065918,1.0326538-2.0065918,2.179657l0,0
				c0,1.1471558,0.8838196,2.0870361,2.0065918,2.1804199l0,0l0.1038208,0.0082397v2.2496033l-0.1038208,0.0082397
				c-1.1227722,0.0933838-2.0065918,1.0334167-2.0065918,2.1804199l0,0c0,1.1470032,0.8838196,2.0863037,2.0065918,2.179657l0,0
				l0.103241,0.0082703v2.2503357l-0.103241,0.0082397c-1.1227722,0.0933838-2.0065918,1.0326843-2.0065918,2.1802673l0,0
				c0,1.1471558,0.8838196,2.0864563,2.0065918,2.1798096l0,0l0.1038208,0.0082703v2.2496033l-0.1038208,0.0088501
				c-1.1227722,0.0933228-2.0065918,1.0326538-2.0065918,2.179657l0,0c0,1.1471252,0.8838196,2.0870361,2.0065918,2.1804199l0,0
				l0.103241,0.0082397v2.2495728l-0.103241,0.0088501c-1.1227722,0.0933838-2.0065918,1.0328064-2.0065918,2.1798096l0,0
				c0,1.1470032,0.8838196,2.0863342,2.0065918,2.1804199l0,0l0.1038208,0.0082397v2.2496033l-0.1038208,0.0082397
				c-1.1227722,0.0933838-2.0065918,1.0332947-2.0065918,2.1802673l0,0c0,1.1471558,0.8838196,2.0864563,2.0065918,2.1798401l0,0
				l0.103241,0.0082397v2.2496033l-0.103241,0.0088501c-1.1227722,0.0933838-2.0065918,1.0326538-2.0065918,2.179657l0,0
				c0,1.1470032,0.8838196,2.0863037,2.0065918,2.1798096l0,0l0.103241,0.0082703v2.2500305l-0.103241,0.0082703
				c-1.1227722,0.0936584-2.0065918,1.032959-2.006012,2.180542l0,0c-0.0005798,1.1469727,0.8832397,2.0863037,2.006012,2.1795349
				l0,0l0.103241,0.0082397v2.2497253l-0.103241,0.0082703c-1.1227722,0.093811-2.0065918,1.0331116-2.006012,2.1806946l0,0
				c-0.0005798,1.1463928,0.8832397,2.0863037,2.006012,2.1795349l0,0l0.103241,0.0082703v2.2496948l-0.103241,0.0088501
				c-1.1227722,0.0932312-2.0065918,1.0325317-2.006012,2.1801147l0,0c-0.0005798,1.1463928,0.8832397,2.0857239,2.006012,2.1795349
				l0,0l0.103241,0.0082397v2.2237854l-0.0802612,0.0242004c-0.4672546,0.1398315-0.8684692,0.4312744-1.147522,0.817749l0,0
				l-0.0348206,0.0466003h-2.1794739l-0.0046997-0.1079712c-0.0489807-1.1652527-1.0065613-2.0963135-2.1835938-2.0957336l0,0
				c-1.1776733-0.0005798-2.1346436,0.930481-2.1842041,2.0957336l0,0l-0.0053101,0.1079712h-2.2484741l-0.0041504-0.1079712
				c-0.0495605-1.1652527-1.0065308-2.0963135-2.1841736-2.0957336l0,0
				c-1.1776428-0.0005798-2.1359558,0.930481-2.1846313,2.0957336l0,0l-0.0053101,0.1085815H325.9452209L325.9452209,475.9449463z
				 M341.2623901,475.7183838c0.2890625-0.3805847,0.6879272-0.6737976,1.151062-0.8295593l0,0v-1.8503113
				c-1.1894531-0.1504517-2.1098328-1.164093-2.1104126-2.3942871l0,0c0.0005798-1.2307739,0.9209595-2.2444153,2.1104126-2.3948669
				l0,0v-1.8373413c-1.1894531-0.1504211-2.1098328-1.164093-2.1104126-2.3942566l0,0
				c0.0005798-1.2313538,0.9209595-2.2450256,2.1104126-2.3954773l0,0v-1.8367004
				c-1.1894531-0.1504517-2.1098328-1.164093-2.1104126-2.3942871l0,0c0.0005798-1.2307739,0.9209595-2.244873,2.1104126-2.3950195
				l0,0v-1.8370361c-1.1894531-0.1501465-2.1098328-1.1646729-2.1098328-2.3948669l0,0
				c0-1.2303162,0.9203796-2.2439575,2.1098328-2.3948669l0,0v-1.8362732
				c-1.1894531-0.1510315-2.1098328-1.1647034-2.1098328-2.39505l0,0c0-1.2306213,0.9203796-2.2442627,2.1092529-2.3954773l0,0
				v-1.8364258c-1.1888733-0.1505737-2.1092529-1.1648254-2.1092529-2.3948669l0,0
				c0-1.230896,0.9203796-2.2447205,2.1098328-2.3950195l0,0v-1.836853
				c-1.1894531-0.1502991-2.1098328-1.1639709-2.1098328-2.3950195l0,0c0-1.2300415,0.9203796-2.2441406,2.1092529-2.3948669l0,0
				v-1.8364258c-1.1888733-0.1512146-2.1092529-1.1647034-2.1092529-2.3948975l0,0
				c0-1.2309265,0.9203796-2.2445679,2.1098328-2.3948669l0,0v-1.8370361
				c-1.1894531-0.1502686-2.1098328-1.1639404-2.1098328-2.3948669l0,0c0-1.2301941,0.9203796-2.2442627,2.1092529-2.3948669l0,0
				v-1.8371887c-1.1888733-0.1505737-2.1092529-1.164093-2.1092529-2.3948669l0,0
				c0-1.2303162,0.9203796-2.2439575,2.1098328-2.3948669l0,0v-1.8364258
				c-1.1894531-0.1509094-2.1098328-1.1645508-2.1098328-2.3948669l0,0c0-1.2306213,0.9203796-2.2442932,2.1092529-2.3954773l0,0
				v-1.8364258c-1.1888733-0.1507568-2.1092529-1.1648254-2.1092529-2.3948669l0,0
				c0-1.2309265,0.9203796-2.244751,2.1098328-2.3950195l0,0v-1.8368835
				c-1.1894531-0.1502991-2.1098328-1.1639404-2.1098328-2.3942871l0,0c0-1.2307739,0.9203796-2.2448425,2.1092529-2.3955994l0,0
				v-1.8364258c-1.1888733-0.1511841-2.1092529-1.1647034-2.1092529-2.3948975l0,0
				c0-1.2309265,0.9203796-2.2445679,2.1098328-2.3948669l0,0v-1.8370056
				c-1.1894531-0.1502991-2.1098328-1.1639709-2.1098328-2.3948669l0,0c0-1.2301941,0.9203796-2.2442932,2.1092529-2.3948669l0,0
				v-1.8371887c-1.1888733-0.1506042-2.1092529-1.164093-2.1092529-2.3948669l0,0
				c0-1.2300415,0.9203796-2.2435608,2.1092529-2.3947449l0,0v-1.1567383
				c-0.7145081-0.2413025-1.2785339-0.8063965-1.5180664-1.5217896l0,0h-1.4968262
				c-0.1734619,1.1650085-1.177063,2.0577087-2.388916,2.0577087l0,0c-1.2124634,0-2.2154541-0.8927002-2.388916-2.0577087l0,0
				h-1.8490601c-0.1728821,1.1650085-1.1758728,2.0577087-2.3883362,2.0577087l0,0
				c-1.2124329,0-2.2158813-0.8927002-2.3890686-2.0577087l0,0h-1.8484497
				c-0.1731567,1.1650085-1.1767578,2.0577087-2.3892212,2.0577087l0,0c-1.212738,0-2.2157288-0.8933105-2.388916-2.0577087l0,0
				h-1.8487549c-0.1728821,1.1643982-1.1758728,2.0577087-2.3883057,2.0577087l0,0
				c-1.2127686,0-2.2163696-0.8927002-2.3895264-2.0577087l0,0h-1.848175
				c-0.1731567,1.1650085-1.1764526,2.0577087-2.388916,2.0577087l0,0c-1.2130432,0-2.2157288-0.8927002-2.388916-2.0577087l0,0
				h-1.8487549c-0.1731567,1.1650085-1.1767578,2.0577087-2.388916,2.0577087l0,0
				c-1.2124634,0-2.2157593-0.8927002-2.388916-2.0577087l0,0h-1.8487549
				c-0.1731873,1.1650085-1.176178,2.0577087-2.388916,2.0577087l0,0c-1.2124634,0-2.2154541-0.8933105-2.388916-2.0577087l0,0
				h-1.8487549c-0.1731873,1.1643982-1.176178,2.0577087-2.3883362,2.0577087l0,0
				c-1.2130127,0-2.2160339-0.8927002-2.3892212-2.0577087l0,0h-1.8484497
				c-0.1731873,1.1650085-1.1767578,2.0577087-2.3890686,2.0577087l0,0c-1.2128601,0-2.2158508-0.8927002-2.388916-2.0577087l0,0
				h-1.8487549c-0.1730347,1.1650085-1.1760254,2.0577087-2.3883362,2.0577087l0,0
				c-1.2128601,0-2.2158813-0.8927002-2.3896179-2.0577087l0,0h-1.848053
				c-0.1731567,1.1650085-1.1765747,2.0577087-2.3888855,2.0577087l0,0c-1.2130432,0-2.2159119-0.8927002-2.3890686-2.0577087l0,0
				h-1.8486023c-0.1731873,1.1650085-1.1762085,2.0577087-2.3890991,2.0577087l0,0
				c-1.2122803,0-2.2157288-0.8927002-2.3888855-2.0577087l0,0h-1.8482056
				c-0.1737671,1.1650085-1.1766052,2.0577087-2.3894653,2.0577087l0,0c-1.2123108,0-2.2153168-0.8927002-2.388504-2.0577087l0,0
				h-1.0572815c-0.2005768,0.5974121-0.627594,1.0891724-1.1791077,1.3757629l0,0v1.3026123
				c1.1894379,0.1502991,2.109848,1.1639709,2.109848,2.3948975l0,0c0,1.2309265-0.9204102,2.2446899-2.109848,2.3950195l0,0
				v1.836853c1.1894379,0.1502991,2.109848,1.164093,2.109848,2.39505l0,0c0,1.230896-0.9204102,2.2445679-2.109848,2.3948669l0,0
				v1.8370056c1.1894379,0.1502991,2.109848,1.1639404,2.109848,2.3948669l0,0c0,1.2303467-0.9204102,2.2445984-2.109848,2.3950195
				l0,0v1.8363037c1.1894379,0.1502991,2.109848,1.1645203,2.109848,2.3955994l0,0
				c0,1.2303467-0.9204102,2.243988-2.109848,2.3942871l0,0v1.8368835c1.1894379,0.1502686,2.109848,1.164093,2.109848,2.3950195
				l0,0c0,1.230896-0.9204102,2.2445679-2.109848,2.3948669l0,0v1.8364258
				c1.1894379,0.1508789,2.109848,1.1645508,2.109848,2.3954773l0,0c0,1.2303162-0.9204102,2.2445679-2.109848,2.394989l0,0
				v1.8363037c1.1894379,0.1502991,2.109848,1.1639709,2.109848,2.3948669l0,0c0,1.2310791-0.9204102,2.244751-2.109848,2.3950195
				l0,0v1.8368835c1.1894379,0.1502991,2.109848,1.164093,2.109848,2.3950195l0,0
				c0,1.2309265-0.9204102,2.2445984-2.109848,2.3948669l0,0v1.8370361c1.1894379,0.1502991,2.109848,1.1639404,2.109848,2.3948669
				l0,0c0,1.2303467-0.9204102,2.2447205-2.109848,2.39505l0,0v1.8362732
				c1.1894379,0.1502686,2.109848,1.1645203,2.109848,2.3948669l0,0c0,1.2310486-0.9204102,2.2447205-2.109848,2.3950195l0,0
				v1.836853c1.1894379,0.1502991,2.109848,1.1641235,2.109848,2.3950195l0,0c0,1.2309265-0.9204102,2.2445984-2.109848,2.3948669
				l0,0v1.8364258c1.1894379,0.1509399,2.109848,1.1645508,2.109848,2.3954773l0,0
				c0,1.2303467-0.9204102,2.2447205-2.109848,2.39505l0,0v1.8362732c1.1894379,0.1502991,2.109848,1.1639404,2.1104279,2.3948669
				l0,0c-0.0005798,1.2310791-0.92099,2.2447205-2.1104279,2.3948669l0,0v1.8370361
				c1.1894379,0.1495361,2.109848,1.1642456,2.109848,2.3950195l0,0c0,1.2301941-0.9204102,2.2438354-2.109848,2.3942871l0,0
				v1.8367004c1.1894379,0.1504517,2.109848,1.1641235,2.109848,2.3954773l0,0c0,1.2307739-0.9204102,2.2444458-2.109848,2.3948669
				l0,0v1.836731c1.1894379,0.1498718,2.109848,1.1634827,2.109848,2.3948669l0,0
				c0,1.2301941-0.9204102,2.2438354-2.109848,2.3942871l0,0v1.9966431
				c0.3187561,0.1646118,0.5948944,0.3988342,0.8106689,0.6826172l0,0h1.4109955
				c0.1070862-1.234314,1.140625-2.2042847,2.4032288-2.2042847l0,0c1.2631531,0,2.2966919,0.9699707,2.4037781,2.2042847l0,0
				h1.8190002c0.107666-1.234314,1.1411743-2.2042847,2.4037781-2.2042847l0,0c1.2634888,0,2.2966003,0.9699707,2.4038086,2.204895
				l0,0h1.8190002c0.106781-1.2349243,1.1404724-2.204895,2.4039612-2.204895l0,0
				c1.2626038,0,2.2961426,0.9699707,2.4036255,2.2042847l0,0h1.818573c0.107666-1.234314,1.1412048-2.2042847,2.4043579-2.2042847
				l0,0c1.2629089,0,2.2966003,0.9699707,2.4032593,2.204895l0,0h1.8189697
				c0.1073303-1.2349243,1.1408691-2.204895,2.4037781-2.204895l0,0c1.2626038,0,2.2961426,0.9699707,2.4038086,2.2042847l0,0
				h1.8190002c0.1076355-1.234314,1.1404419-2.2042847,2.4039307-2.2042847l0,0c1.2634888,0,2.2962952,0.9699707,2.4030762,2.204895
				l0,0h1.8195496c0.106781-1.2349243,1.1398926-2.204895,2.4033813-2.204895l0,0c1.2631836,0,2.29599,0.9699707,2.403656,2.2042847
				l0,0h1.8192749c0.1073608-1.234314,1.1404724-2.2042847,2.403656-2.2042847l0,0
				c1.2634888,0,2.2965698,0.9699707,2.403656,2.204895l0,0h1.8189697c0.106781-1.2349243,1.1404724-2.204895,2.4039612-2.204895
				l0,0c1.2626038,0,2.2962952,0.9699707,2.4036865,2.2042847l0,0h1.8186646
				c0.107666-1.234314,1.1410522-2.2042847,2.4042664-2.2042847l0,0c1.2628784,0,2.2965698,0.9699707,2.4033508,2.204895l0,0
				h1.8189697c0.1073914-1.2349243,1.1401672-2.204895,2.403656-2.204895l0,0c1.2634888,0,2.2962952,0.9699707,2.4039612,2.2042847
				l0,0h1.8189697c0.1076965-1.234314,1.140625-2.2042847,2.4038086-2.2042847l0,0
				c1.2632141,0,2.2962952,0.9699707,2.4030762,2.204895l0,0h1.8195801c0.106781-1.2349243,1.1398621-2.204895,2.403656-2.204895
				l0,0c1.2631836,0,2.2962646,0.9699707,2.403656,2.204895l0,0H341.2623901L341.2623901,475.7183838z"/>
			<path class="st0" d="M340.4169006,470.6442261c0-1.2065735,0.9286804-2.1948547,2.1098328-2.2927856v-2.040863
				c-1.1811523-0.0985413-2.1098328-1.0862427-2.1098328-2.2928162c0-1.206604,0.9286804-2.1948853,2.1098328-2.2928162v-2.0408325
				c-1.1811523-0.0985413-2.1098328-1.0862427-2.1098328-2.2928162s0.9286804-2.1947021,2.1098328-2.2929382v-2.0408936
				c-1.1811523-0.0982361-2.1098328-1.0862122-2.1098328-2.2927856c0-1.206604,0.9286804-2.1945801,2.1098328-2.2928162v-2.040863
				c-1.1811523-0.0982361-2.1098328-1.0862122-2.1098328-2.2928162c0-1.2065735,0.9286804-2.1948547,2.1098328-2.2930908v-2.0405884
				c-1.1811523-0.0982361-2.1098328-1.0864868-2.1098328-2.2930908c0-1.2065735,0.9286804-2.1945496,2.1098328-2.2927856v-2.040863
				c-1.1811523-0.0982361-2.1098328-1.0862427-2.1098328-2.2927856c0-1.206604,0.9286804-2.1949158,2.1098328-2.2931519V426.5513
				c-1.1811523-0.0982361-2.1098328-1.0865173-2.1098328-2.2931213c0-1.2065735,0.9286804-2.1945496,2.1098328-2.2927856v-2.0408936
				c-1.1811523-0.0982361-2.1098328-1.0862122-2.1098328-2.2927856s0.9286804-2.1948547,2.1098328-2.2930908v-2.0405579
				c-1.1811523-0.0982666-2.1098328-1.0865479-2.1098328-2.2931213c0-1.206604,0.9286804-2.1945801,2.1098328-2.2928162v-2.0408325
				c-1.1811523-0.0982361-2.1098328-1.0862427-2.1098328-2.2928162c0-1.206604,0.9286804-2.1948853,2.1098328-2.2931213v-2.0405579
				c-1.1811523-0.0982361-2.1098328-1.0865173-2.1098328-2.2930908s0.9286804-2.1945496,2.1098328-2.2928162v-2.040863
				c-1.1811523-0.0982361-2.1098328-1.0862122-2.1098328-2.2927856c0-1.206604,0.9286804-2.1948853,2.1098328-2.2931213v-2.0405579
				c-1.1811523-0.0982361-2.1098328-1.0865173-2.1098328-2.2931213c0-1.206543,0.9286804-2.1945496,2.1098328-2.2927856v-2.0408936
				c-1.1811523-0.0982056-2.1098328-1.0862122-2.1098328-2.2927856c0-1.206604,0.9286804-2.1948242,2.1098328-2.2930908v-2.0405579
				c-1.1811523-0.0982361-2.1098328-1.0865173-2.1098328-2.2930908c0-1.206604,0.9286804-2.1945801,2.1098328-2.2928162v-1.3415527
				c-0.7433777-0.2217102-1.3286743-0.8083191-1.5487366-1.5524902h-1.6797485
				c-0.1221313,1.1565857-1.1003418,2.0579834-2.2891846,2.0579834c-1.1888733,0-2.1665039-0.9013977-2.2891846-2.0579834
				h-2.0479126c-0.1221313,1.1565857-1.1003418,2.0579834-2.2892151,2.0579834
				c-1.1888428,0-2.1669312-0.9013977-2.2893677-2.0579834h-2.0475769
				c-0.1224365,1.1565857-1.1003418,2.0579834-2.2894897,2.0579834s-2.1667786-0.9013977-2.2891846-2.0579834H319.41922
				c-0.1224365,1.1565857-1.1000366,2.0579834-2.2891846,2.0579834c-1.1891785,0-2.1670837-0.9013977-2.2894897-2.0579834
				h-2.0476379c-0.122406,1.1565857-1.1006165,2.0579834-2.2894897,2.0579834c-1.1888428,0-2.1667786-0.9013977-2.2891846-2.0579834
				h-2.0479126c-0.1224365,1.1565857-1.1003418,2.0579834-2.2891846,2.0579834
				c-1.1888733,0-2.1670532-0.9013977-2.2894897-2.0579834h-2.0476074
				c-0.1224365,1.1565857-1.1003418,2.0579834-2.2894897,2.0579834c-1.1891785,0-2.1667786-0.9013977-2.2892151-2.0579834
				h-2.0478821c-0.122406,1.1565857-1.1000671,2.0579834-2.2892151,2.0579834c-1.1891174,0-2.1670532-0.9013977-2.2894897-2.0579834
				h-2.0475769c-0.1224365,1.1565857-1.1005249,2.0579834-2.2895203,2.0579834
				c-1.1889648,0-2.1669312-0.9013977-2.2891846-2.0579834h-2.0478821
				c-0.1222839,1.1565857-1.1002197,2.0579834-2.2892456,2.0579834c-1.1889954,0-2.1670532-0.9013977-2.2894897-2.0579834
				h-2.0475769c-0.1224365,1.1565857-1.1004944,2.0579834-2.2895203,2.0579834
				c-1.1889648,0-2.1669006-0.9013977-2.2891846-2.0579834h-2.0478821
				c-0.1222839,1.1565857-1.1002197,2.0579834-2.2891846,2.0579834c-1.1890259,0-2.1671143-0.9013977-2.2895203-2.0579834
				h-2.0476074c-0.122406,1.1565857-1.1004944,2.0579834-2.2895203,2.0579834c-1.1889648,0-2.1668854-0.9013977-2.2891693-2.0579834
				h-1.2398834c-0.1852722,0.6263123-0.6298065,1.1396179-1.2090454,1.419281v1.474762
				c1.1811523,0.0979309,2.1099854,1.0860596,2.1099854,2.2928162c0,1.2067261-0.928833,2.1950073-2.1099854,2.2930908v2.0405579
				c1.1811523,0.098114,2.1099854,1.0863953,2.1099854,2.2930908c0,1.2067566-0.928833,2.1948547-2.1099854,2.2927856v2.0408936
				c1.1811523,0.0979309,2.1099854,1.0860596,2.1099854,2.2927856c0,1.2067566-0.928833,2.1950073-2.1099854,2.2931213v2.0405579
				c1.1811523,0.0980835,2.1099854,1.0863647,2.1099854,2.2931213c0,1.2067261-0.928833,2.1948547-2.1099854,2.2927856v2.040863
				c1.1811523,0.0979614,2.1099854,1.0860901,2.1099854,2.2928162s-0.928833,2.1950073-2.1099854,2.2930908v2.0405579
				c1.1811523,0.098114,2.1099854,1.0863953,2.1099854,2.2931213s-0.928833,2.1948547-2.1099854,2.2928162v2.0408325
				c1.1811523,0.0979309,2.1099854,1.0860901,2.1099854,2.2928162s-0.928833,2.1950073-2.1099854,2.2931213v2.0405579
				c1.1811523,0.0980835,2.1099854,1.0863647,2.1099854,2.2930908s-0.928833,2.1948547-2.1099854,2.2927856v2.0408936
				c1.1811523,0.0979309,2.1099854,1.0860596,2.1099854,2.2927856c0,1.2067566-0.928833,2.1950378-2.1099854,2.2931213v2.0405273
				c1.1811523,0.0981445,2.1099854,1.0863953,2.1099854,2.2931519c0,1.2066956-0.928833,2.1948242-2.1099854,2.2927856v2.040863
				c1.1811523,0.0979309,2.1099854,1.0860596,2.1099854,2.2927856s-0.928833,2.1950073-2.1099854,2.2930908v2.0405884
				c1.1811523,0.0980835,2.1099854,1.0863647,2.1099854,2.2930908c0,1.2067566-0.928833,2.1948853-2.1099854,2.2928162v2.040863
				c1.1811523,0.0979614,2.1099854,1.0860901,2.1099854,2.2928162c0,1.2068787-0.928833,2.1948547-2.1099854,2.2927856v2.0408936
				c1.1811523,0.0979309,2.1099854,1.0857544,2.1099854,2.2929382c0,1.2065735-0.928833,2.1948547-2.1099854,2.2928162v2.0408325
				c1.1811523,0.0979309,2.1099854,1.0856628,2.1099854,2.2928162c0,1.2065735-0.928833,2.1948547-2.1099854,2.2928162v2.040863
				c1.1811523,0.0979309,2.1099854,1.0856018,2.1099854,2.2927856c0,1.206604-0.928833,2.1948547-2.1099854,2.2928162v2.1683044
				c0.3463287,0.1669617,0.6439514,0.4171448,0.8672943,0.7263184h1.5733795
				c0.0517883-1.2254944,1.0588989-2.2043152,2.2974243-2.2043152c1.2385864,0,2.2460327,0.9788208,2.2977905,2.2043152h2.0310669
				c0.0517883-1.2254944,1.0592041-2.2043152,2.2977905-2.2043152c1.2385559,0,2.245697,0.9788208,2.2974243,2.2043152h2.0313721
				c0.0517578-1.2254944,1.0588989-2.2043152,2.2974548-2.2043152c1.2385864,0,2.2460022,0.9788208,2.2977905,2.2043152h2.0310669
				c0.0517578-1.2254944,1.0591736-2.2043152,2.2977295-2.2043152c1.2385864,0,2.245697,0.9788208,2.2974854,2.2043152h2.0313721
				c0.0517578-1.2254944,1.0588989-2.2043152,2.2974548-2.2043152s2.2459717,0.9788208,2.29776,2.2043152h2.0310974
				c0.0518799-1.2254944,1.059021-2.2043152,2.2977295-2.2043152s2.2455444,0.9788208,2.2974854,2.2043152h2.0313721
				c0.0519104-1.2254944,1.0587463-2.2043152,2.2974548-2.2043152c1.238678,0,2.2458191,0.9788208,2.29776,2.2043152h2.0310669
				c0.0519104-1.2254944,1.0590515-2.2043152,2.29776-2.2043152s2.2455444,0.9788208,2.2974548,2.2043152h2.0313721
				c0.0519104-1.2254944,1.0587463-2.2043152,2.2974548-2.2043152s2.2458496,0.9788208,2.29776,2.2043152h2.0310669
				c0.0519409-1.2254944,1.059082-2.2043152,2.2977905-2.2043152c1.238678,0,2.2455139,0.9788208,2.2974243,2.2043152h2.0313721
				c0.0519409-1.2254944,1.0587769-2.2043152,2.2974854-2.2043152s2.2458496,0.9788208,2.2977295,2.2043152h2.0310974
				c0.0519409-1.2254944,1.0592041-2.2043152,2.2976074-2.2043152c1.2390137,0,2.2455444,0.9788208,2.2974548,2.2043152h2.0313721
				c0.0519409-1.2254944,1.059082-2.2043152,2.2974854-2.2043152c1.2389832,0,2.2455444,0.9788208,2.2974548,2.2043152h2.0130615
				c0.2938538-0.4065247,0.7156982-0.7133179,1.2071533-0.8596497v-2.0349731
				C341.3455811,472.838501,340.4169006,471.8508301,340.4169006,470.6442261z"/>
		</g>
		
			<linearGradient id="SVGID_1_" gradientUnits="userSpaceOnUse" x1="297.6403809" y1="470.6447449" x2="297.6403809" y2="371.2454529" gradientTransform="matrix(1 0 0 -1 0 841.8900146)">
			<stop  offset="0" style="stop-color:#BB8B86"/>
			<stop  offset="1" style="stop-color:#8F7472"/>
		</linearGradient>
		<polygon class="st1" points="336.8407898,470.6445312 258.4400024,470.6445312 258.4400024,371.2452393 336.8407898,371.2452393 
					"/>
	</g>
	<g>
		<path class="st0" d="M280.9698181,463.8531189v-5.6882629h1.6603088c0.5912781,0,1.0515747,0.1245117,1.3809204,0.3733521
			c0.3295288,0.2488708,0.4942932,0.6235657,0.4942932,1.1238098c0,0.2919922-0.0827332,0.545929-0.2479858,0.7623291
			c-0.1654358,0.216217-0.3901672,0.3660278-0.6739807,0.4494324c0.3463135,0.0625,0.627594,0.2252197,0.843811,0.4881897
			c0.2162476,0.2629395,0.3242798,0.5661316,0.3242798,0.9097595c0,0.5075378-0.1647644,0.8980408-0.4941101,1.1713257
			c-0.3295288,0.2734985-0.7702942,0.4100647-1.3225098,0.4100647H280.9698181z M281.4346924,460.7159729h1.3087463
			c0.4115601,0,0.7298584-0.0905151,0.9550781-0.2716064c0.2254028-0.1808777,0.3380127-0.4472351,0.3380127-0.7988281
			c0-0.359436-0.119751-0.6296692-0.3594055-0.8107605c-0.2396545-0.1808777-0.5885315-0.2714233-1.0469971-0.2714233h-1.1954346
			V460.7159729z M281.4346924,461.1144714v2.3401489h1.5001526c0.4193726,0,0.7487183-0.1030884,0.9884033-0.3094788
			c0.2396545-0.2063904,0.3594055-0.4951477,0.3594055-0.8664551c0-0.3400574-0.1087036-0.6191406-0.3262939-0.8370667
			c-0.2174072-0.2181091-0.5331726-0.3271484-0.9472656-0.3271484H281.4346924z"/>
		<path class="st0" d="M287.180542,461.2824707v2.5706482h-0.4649048v-5.6843567h1.9259949
			c0.609436,0,1.0768738,0.1335144,1.4024963,0.4003601c0.325592,0.2670288,0.4883118,0.6570129,0.4883118,1.170166
			c0,0.3021851-0.0873108,0.5722656-0.2617493,0.81073c-0.1744385,0.2381592-0.4205627,0.4120789-0.7383423,0.5214844
			c0.351593,0.088501,0.6048584,0.2467957,0.7597656,0.4745789c0.1550598,0.2279663,0.2325134,0.5138245,0.2325134,0.857605
			v0.5352478c0,0.1771545,0.0209045,0.335968,0.0625,0.4766235c0.041626,0.140625,0.1107483,0.2553101,0.2070618,0.3437805
			v0.0937805h-0.476593c-0.0963135-0.0937805-0.164093-0.2252502-0.2031555-0.3945923s-0.0585938-0.3451538-0.0585938-0.5274048
			v-0.5195923c0-0.3490601-0.1126099-0.6244202-0.3378601-0.8263855c-0.2253723-0.2017822-0.5397949-0.3026733-0.9435425-0.3026733
			H287.180542z M287.180542,460.8839722h1.4024963c0.5131226,0,0.8881531-0.1036072,1.1250916-0.3104858
			c0.236969-0.2072449,0.3555298-0.4864807,0.3555298-0.8381042c0-0.3750305-0.1178894-0.6634521-0.3534851-0.8652649
			c-0.2357483-0.2019653-0.5919189-0.3028564-1.0685425-0.3028564h-1.4610901V460.8839722z"/>
		<path class="st0" d="M296.9465027,461.4739075c0,0.7344666-0.2011108,1.3282776-0.6036682,1.7814636
			c-0.4022217,0.453186-0.9420166,0.6797791-1.6192322,0.6797791c-0.666687,0-1.1986389-0.226593-1.5957642-0.6797791
			c-0.3973083-0.453186-0.5958557-1.0469971-0.5958557-1.7814636v-0.9259033c0-0.7319336,0.197876-1.3257751,0.593811-1.7814941
			s0.9272156-0.6836853,1.5939026-0.6836853c0.6772156,0,1.2175293,0.2279663,1.6212769,0.6836853
			s0.6055298,1.0495605,0.6055298,1.7814941V461.4739075z M296.4815979,460.543396
			c0-0.6155701-0.1555786-1.1112061-0.4669189-1.4869385c-0.3111877-0.3755493-0.7427673-0.5634155-1.2949829-0.5634155
			c-0.5416565,0-0.9635925,0.1878662-1.2657471,0.5634155c-0.3021851,0.3757324-0.453186,0.8713684-0.453186,1.4869385v0.9350891
			c0,0.6208191,0.1517029,1.1190186,0.4552307,1.494751c0.3033447,0.3757324,0.7259521,0.5634155,1.2676086,0.5634155
			c0.5547485,0,0.9863586-0.1871643,1.2951355-0.561554c0.3084717-0.374176,0.4628601-0.8730774,0.4628601-1.4966125V460.543396z"/>
		<path class="st0" d="M303.1650391,463.8531189h-0.4649048l-3.2308044-4.8912659l-0.0234375,0.0039062v4.8873596h-0.4687805
			v-5.6882629h0.4687805l3.2308044,4.8834534l0.0234375-0.0039062v-4.8795471h0.4649048V463.8531189z"/>
		<path class="st0" d="M305.6411743,463.4546204h3.4886475v0.3984985h-4.0473022v-0.3630066l3.3519287-4.9267578h-3.24646
			v-0.3984985h3.8168335v0.3399048L305.6411743,463.4546204z"/>
		<path class="st0" d="M314.2427673,461.0988464h-2.7385559v2.3557739h3.1370544v0.3984985h-3.6019287v-5.6882629h3.5823975
			v0.3984985h-3.1175232v2.1369934h2.7385559V461.0988464z"/>
	</g>
	<g>
		<g id="Rounded_Rectangle_1_1_">
			<g>
				<path class="st0" d="M301.2238464,450.4987488h-5.5994568c-1.283783,0-2.328186-1.0444031-2.328186-2.328125v-5.5997314
					c0-1.2837219,1.0444031-2.328125,2.328186-2.328125h5.5994568c1.2837524,0,2.3281555,1.0444031,2.3281555,2.328125v5.5997314
					C303.552002,449.4543457,302.5075989,450.4987488,301.2238464,450.4987488z M295.6243896,440.2696228
					c-1.2689514,0-2.3013306,1.0323486-2.3013306,2.3012695v5.5997314c0,1.2689209,1.0323792,2.3012695,2.3013306,2.3012695
					h5.5994568c1.2689514,0,2.3013306-1.0323486,2.3013306-2.3012695v-5.5997314
					c0-1.2689209-1.0323792-2.3012695-2.3013306-2.3012695H295.6243896z"/>
			</g>
			<g>
				<path class="st0" d="M301.2238464,440.4118347c1.1904907,0,2.1589966,0.9685669,2.1589966,2.1590881v5.5996704
					c0,1.1905212-0.9685059,2.1590576-2.1589966,2.1590576h-5.5994873c-1.1904907,0-2.1590271-0.9685364-2.1590271-2.1590576
					v-5.5996704c0-1.1905212,0.9685364-2.1590881,2.1590271-2.1590881H301.2238464 M301.2238464,440.1004639h-5.5994873
					c-1.3643799,0-2.4703674,1.1060791-2.4703674,2.470459v5.5996704c0,1.3643494,1.1059875,2.4704285,2.4703674,2.4704285
					h5.5994873c1.3643494,0,2.4703674-1.1060791,2.4703674-2.4704285v-5.5996704
					C303.6942139,441.206543,302.5881958,440.1004639,301.2238464,440.1004639L301.2238464,440.1004639z"/>
			</g>
		</g>
		<path class="st0" d="M294.4812622,436.1832581c0.0895386,0.2796326,0.1783447,0.553009,0.2755432,0.8581848
			c-0.4179993,0.1471863-0.7227783,0.2098083-0.9760132-0.2596436c-1.9326782-3.5827026-3.9884033-7.1060791-5.803894-10.7466431
			c-1.7055359-3.4200439-3.2705994-6.9346008-4.7059631-10.4770508c-0.0222778-0.0549316-0.0437622-0.0779114-0.0659485-0.1852722
			h5.2406311c0.9293213,4.0803528,2.0343323,7.9937439,3.213501,11.9375916
			C292.5456543,430.2755737,293.5371704,433.235321,294.4812622,436.1832581z"/>
		<path class="st0" d="M279.6083374,403.8565063h6.6912537c-0.1231995-0.8321838-0.2414551-1.6598511-0.3555298-2.497345
			c-0.5278931-3.8763428-0.6436157-7.7605286,0.0151062-11.6456604c0.4442139-2.6201172,1.2156067-5.1179504,2.7686768-7.3009338
			c0.699646-0.9833984,1.563385-1.8482666,2.3526611-2.7678833c-0.0029907-0.0331421-0.006012-0.0654297-0.0090332-0.0986023
			c-1.1519775,0.4742126-2.3382263,0.8802795-3.4497986,1.4354553c-3.937439,1.9666138-6.5678711,5.081665-7.8901367,9.2768555
			c-1.0231018,3.2461548-1.1196594,6.5628662-0.7221985,9.9118958
			C279.1573181,401.4171753,279.3607788,402.7290344,279.6083374,403.8565063z"/>
		<path class="st0" d="M308.539917,415.3728333c-0.5516663,2.4160156-1.1589661,4.6941528-1.8150024,7.012146
			c-1.0322266,3.6472473-2.1562805,7.2787781-3.2581177,10.9060669c-0.3786316,1.2464905-0.8134155,2.4809875-1.2344666,3.7542419
			c0.7137756,0.1666565,0.7121582,0.1682129,1.0174255-0.3492737c0.194397-0.3294983,0.408844-0.6466675,0.5897522-0.9832764
			c1.7290649-3.21698,3.4792175-6.442627,5.1715088-9.678894c1.8052368-3.45224,3.3750916-6.9296265,4.7836609-10.6610107
			H308.539917z"/>
		<path class="st0" d="M306.0413208,379.9235535c1.6944275,1.4396057,2.9006958,3.2264709,3.7351685,5.2736816
			c1.1390076,2.7943726,1.5844727,5.7130127,1.6676025,8.7063293c0.0931091,3.3526917-0.2065735,6.6242371-0.6856689,9.9529419
			h6.619812c0.3260803-1.6911926,0.5700989-3.1875,0.7078857-4.8240051c0.2879028-3.418396,0.0117188-6.771759-1.2607422-10.005188
			c-0.6708069-1.7045288-1.6130981-3.2392578-2.8427429-4.5793457c-1.3977356-1.5233154-3.0162048-2.7891235-4.9165039-3.6393433
			c-1.036377-0.4636536-2.1143188-0.8335266-3.2497864-1.2759094c0.0298767,0.1789246,0.0266113,0.2026672,0.0366211,0.2127075
			C305.9139404,379.8065796,305.9755249,379.8676758,306.0413208,379.9235535z"/>
		<path class="st0" d="M278.0939636,417.5023804c-0.3793945-0.6965332-0.7435608-1.3778992-1.0945129-2.1295471H275.78479
			c1.9440613,3.5434875,4.1474304,6.7875671,6.4862366,9.9993286c0.577301,0.7927246,1.1810303,1.5762939,1.7726135,2.3586121
			c-0.0827637-0.3133545-0.2504272-0.561676-0.406189-0.8235168
			C281.7795715,423.7843018,279.8309631,420.6912537,278.0939636,417.5023804z"/>
		<path class="st0" d="M270.9214478,403.8565063h1.8633728c-0.5959167-2.6307678-0.8840027-5.2662354-0.6280518-8.0126038
			c0.2983398-3.2015076,1.1672974-6.2130432,2.9342651-8.9317627c0.4132385-0.6358032,0.8699036-1.2398682,1.3066101-1.8604126
			c-1.6452332,1.1958923-3.3833313,3.3157959-4.3567505,5.2203674c-1.9894409,3.8924866-2.2632751,7.9838562-1.4328308,12.196991
			C270.7009583,402.9403381,270.8072205,403.3196106,270.9214478,403.8565063z"/>
		<path class="st0" d="M317.6754761,419.7292786c-1.0315552,1.8718872-2.1716614,3.6943359-3.2757568,5.5257568
			c-0.4696045,0.7789001-0.9692383,1.5447083-1.4552307,2.3136902c0.0370483,0.0299072,0.0740967,0.0623169,0.111145,0.0921936
			c0.0318298-0.0600586,0.0570374-0.1236572,0.0964355-0.1782227c1.2321167-1.7049561,2.5397339-3.3805237,3.6815186-5.1438904
			c1.4781189-2.2829285,2.901062-4.5499573,4.283844-6.9659729h-1.1571655
			C319.2374573,416.8224487,318.4634705,418.2993774,317.6754761,419.7292786z"/>
		<path class="st0" d="M323.115509,389.1665344c1.6454773,3.5975952,2.1100769,7.4013062,1.6751404,11.314209
			c-0.1275024,1.1470642-0.3201294,2.248291-0.5664978,3.3757629h1.8418884
			c0.8603516-3.4360962,1.0700378-6.8384705,0.1437988-10.3192139c-0.9223328-3.466095-2.8616333-6.2527771-5.645874-8.4754333
			c0.1147156,0.1495972,0.2433472,0.2940979,0.3419189,0.4536438
			C321.6540833,386.7262878,322.5278015,387.8816528,323.115509,389.1665344z"/>
		<path class="st0" d="M296.7277222,423.7889099c0.3055725,3.0539551,0.6421814,6.1160583,0.9769897,9.1680603
			c0.1444397,1.3162537,0.3127136,2.6360168,0.4907837,3.949646c0.0160217,0.1184387,0.1836243,0.2263794,0.2808838,0.3378601
			c0.1132812-0.1187439,0.2990723-0.226532,0.3265076-0.3567505c0.0896606-0.4256287,0.1273499-0.8579407,0.1749878-1.2887878
			c0.4023743-3.6412354,0.8339233-7.3005981,1.1953735-10.9444275c0.3061218-3.0863037,0.6036682-6.1408691,0.8761597-9.2816772
			h-5.1288147C296.17276,418.084137,296.4478149,420.9909973,296.7277222,423.7889099z"/>
		<path class="st0" d="M294.9940186,403.8565063h3.4456787h3.477478c0.0491028-0.5905762,0.0983887-1.3964233,0.1434631-2.1017151
			c0.2976685-4.6603394,0.5811462-9.3070374,0.1638794-13.9731445c-0.1820374-2.0357056-0.490448-4.0665894-1.3588867-5.9957275
			c-0.3464355-0.7695618-0.9147949-1.5142212-1.5421448-2.1637573c-0.2666626-0.276062-0.5346375-0.4215393-0.8837891-0.4405823
			c-0.3491516,0.019043-0.6012268,0.1639709-0.8678894,0.440033c-0.6273804,0.6495667-1.1764526,1.3934021-1.5228882,2.1629333
			c-0.8684387,1.9291382-1.1785278,3.9585571-1.3605652,5.9942322c-0.4172668,4.6660767-0.1346436,9.3157043,0.1630249,13.9760437
			C294.8964539,402.4601135,294.9449158,403.2659302,294.9940186,403.8565063z"/>
		<path class="st0" d="M300.7861328,444.3069153c-0.5387268-1.6463623-1.684082-2.1547241-3.2651672-1.6373596l-1.7610779,0.5762634
			l1.6793518,5.1323547l1.7610779-0.5762939C300.9110718,447.2420959,301.3482361,446.0247498,300.7861328,444.3069153z
			 M299.0696106,447.2084045l-1.1357117,0.3716125l-1.3030396-3.9822388l1.1500549-0.3763428
			c1.2580261-0.4116821,1.9529724,0.1805725,2.3526611,1.4020691
			C300.7521667,446.5139465,299.5369263,447.055481,299.0696106,447.2084045z"/>
		<g>
			<g>
				<polygon class="st0" points="268.6565552,406.0309143 268.6565552,413.2789612 269.515564,413.2789612 269.515564,407.2926331 
					269.5718384,407.2926331 271.8298645,413.2789612 272.6500244,413.2789612 274.90802,407.2926331 274.9111633,407.2926331 
					274.9111633,413.2789612 275.8238831,413.2789612 275.8238831,406.0309143 274.5232239,406.0309143 272.2348938,412.1064453 
					269.956604,406.0309143 				"/>
			</g>
			<g>
				<polygon class="st0" points="280.3873291,410.3156128 283.1906128,406.0309143 282.0970459,406.0309143 
					279.9807739,409.4737244 277.8139038,406.0309143 276.6697083,406.0309143 279.4746399,410.3156128 279.4746399,413.2789612 
					280.3873291,413.2789612 				"/>
			</g>
			<path class="st0" d="M291.8681641,406.8977356c-0.6009216-0.5669556-1.4581299-0.8485107-2.5718994-0.8485107h-2.4510498
				v7.2653198h2.4510498c0.600708,0,1.1204529-0.1054077,1.5592957-0.274231
				c0.4387207-0.1686401,0.7999573-0.4238892,1.0834656-0.7446594c0.2835388-0.3205261,0.4926453-0.7206726,0.6277771-1.1900635
				c0.1349182-0.4689636,0.2025146-1.0101013,0.2025146-1.6176453
				C292.7693176,408.3269043,292.4688416,407.4649048,291.8681641,406.8977356z M291.6706543,410.7569885
				c-0.0910645,0.3139343-0.2075195,0.5751648-0.3493042,0.7843018c-0.1417542,0.2093506-0.3021545,0.3744202-0.4809265,0.4960327
				c-0.1789551,0.1213989-0.3594971,0.2142639-0.5417786,0.2782288c-0.182251,0.0642395-0.3543701,0.1156311-0.5163879,0.1324463
				c-0.1620178,0.0169373-0.2971191,0.0362244-0.4050293,0.0362244h-1.5979309v-5.6046753h1.6182251
				c0.4454956,0,0.8201599,0.0490417,1.1239014,0.1738281c0.3037415,0.1250305,0.5518494,0.3005981,0.7442322,0.5401001
				c0.1923828,0.2397156,0.3306885,0.5266113,0.4151611,0.8673401c0.0843201,0.3410034,0.1265259,0.7258911,0.1265259,1.1578064
				C291.8073425,410.0641479,291.7618408,410.4430542,291.6706543,410.7569885z"/>
			<path class="st0" d="M299.5685425,412.8732605c-0.0505981-0.1585388-0.0895386-0.3361816-0.116394-0.5117798
				c-0.0270691-0.1753845-0.0439758-0.3596497-0.0506897-0.5418701c-0.0068054-0.1823425-0.0168152-0.363739-0.0303345-0.5393372
				c-0.0202332-0.1755066-0.0489807-0.3457031-0.0860596-0.5075684c-0.037262-0.1620789-0.094574-0.3096008-0.1720581-0.4412231
				c-0.0777588-0.1315918-0.1951904-0.2449341-0.3268127-0.3394775c-0.1316223-0.094574-0.3167725-0.1624146-0.524353-0.2028809
				v-0.0202026c0.4151611-0.1216431,0.7706604-0.3475952,0.9698792-0.6785889
				c0.1988831-0.3305054,0.3051453-0.7153625,0.3051453-1.1543274c0-0.5871582-0.190918-1.0462036-0.5790405-1.3837585
				c-0.3882751-0.3375854-0.9232178-0.5030212-1.6118164-0.5030212h-3.4432373v7.2653198h1.0378723v-3.1137085h2.3142395
				c0.2362366,0,0.4253235,0.0270386,0.5669861,0.0979614c0.1418457,0.0708008,0.2565308,0.1612549,0.3443604,0.2792358
				c0.0875244,0.1182556,0.1518555,0.2545776,0.1923218,0.4129944c0.0404358,0.1588135,0.0741882,0.3248291,0.1012573,0.5001831
				c0.0337524,0.1757507,0.0540161,0.3538818,0.0608215,0.5361938c0.0065918,0.1823425,0.0133972,0.3525696,0.0202026,0.5111084
				c0.0065918,0.158783,0.0218201,0.3231812,0.0454712,0.4513855c0.0236511,0.1282349,0.0692139,0.2208557,0.1368408,0.324646
				h1.0731506C299.6951599,413.1069641,299.6192322,413.0319519,299.5685425,412.8732605z M298.0800781,409.1274719
				c-0.1518555,0.0979919-0.3290405,0.1612549-0.5315857,0.1950073c-0.2024841,0.0338745-0.4151306,0.0480347-0.6378784,0.0480347
				h-1.9699707v-2.4909668h2.3547363c0.4521179,0,0.7796936,0.1014404,0.9822083,0.33078
				c0.2025757,0.2296143,0.3037415,0.5198669,0.3037415,0.8843689c0,0.2632751-0.0454712,0.4743652-0.1366577,0.6396179
				C298.3535461,408.8998108,298.2319336,409.0297546,298.0800781,409.1274719z"/>
			<g>
				<polygon class="st0" points="300.8423157,406.0309143 300.8423157,413.2789612 305.9426575,413.2789612 
					305.9426575,412.4736023 301.7818604,412.4736023 301.7818604,409.9770813 305.6205139,409.9770813 305.6205139,409.118042 
					301.7818604,409.118042 301.7818604,406.8899536 305.8621216,406.8899536 305.8621216,406.0309143 				"/>
			</g>
			<path class="st0" d="M310.0939636,406.0492249h-1.0631714l-2.8149719,7.2653198h0.9822388l0.8100281-2.1795959h3.0579834
				l0.7896729,2.1795959h1.0632935L310.0939636,406.0492249z M308.3118896,410.3046265l1.2251282-3.4250793h0.0203552
				l1.204895,3.4250793H308.3118896z"/>
			<g>
				<polygon class="st0" points="313.6468201,406.0309143 313.6468201,413.2789612 314.5595093,413.2789612 
					314.5595093,407.2926331 314.5795898,407.2926331 316.837616,413.2789612 317.6577759,413.2789612 319.9158325,407.2926331 
					319.9551392,407.2926331 319.9551392,413.2789612 320.8946533,413.2789612 320.8946533,406.0309143 319.5309753,406.0309143 
					317.2425842,412.1064453 314.9642944,406.0309143 				"/>
			</g>
			<g>
				<path class="st0" d="M326.6287842,408.1247864h0.9113159c-0.0136414-0.4026489-0.0895386-0.7237244-0.2277527-1.0107117
					c-0.1384277-0.2868958-0.3275757-0.5162964-0.5670471-0.7053223c-0.2397156-0.1889038-0.518158-0.3230896-0.8353882-0.4109497
					c-0.3173218-0.087616-0.6615906-0.1296082-1.0328064-0.1296082c-0.3308716,0-0.6530762,0.043335-0.9670105,0.1276855
					c-0.3139038,0.0845642-0.5940857,0.2131958-0.8403931,0.385376c-0.246521,0.1720886-0.4439392,0.3918457-0.5923767,0.6583862
					c-0.1485596,0.2667542-0.2227783,0.5823975-0.2227783,0.9469299c0,0.3307495,0.0658264,0.6060791,0.1974182,0.8252258
					c0.1317444,0.2196045,0.3071289,0.3985291,0.5265808,0.5367432c0.2192688,0.1384583,0.4673767,0.2498474,0.7442627,0.334198
					c0.2767334,0.0845337,0.5585022,0.1586609,0.8454895,0.2227783c0.2867432,0.0643311,0.568634,0.1266174,0.8454895,0.1873169
					c0.2766418,0.060791,0.5247498,0.1402588,0.7442322,0.2380066c0.2192688,0.0979614,0.3948669,0.2244873,0.5264587,0.3796082
					c0.1316223,0.1555176,0.1974487,0.3580627,0.1974487,0.6076355c0,0.2632446-0.0541077,0.4794312-0.1619873,0.6481018
					c-0.1080627,0.1687927-0.2498169,0.302124-0.425293,0.3998718c-0.1755981,0.0979614-0.3730164,0.1670837-0.5922852,0.2076416
					c-0.2194519,0.0405884-0.4371033,0.0608215-0.6531677,0.0608215c-0.27005,0-0.5332947-0.0337524-0.7897034-0.1013794
					c-0.2566528-0.0672913-0.4810181-0.1720886-0.6734314-0.3138123c-0.1922913-0.1417542-0.3476868-0.3103027-0.4657593-0.5299072
					c-0.1182251-0.2191467-0.1772156-0.4506531-0.1772156-0.7727966h-0.9112854
					c0,0.4026794,0.0793152,0.8066711,0.2379761,1.1271973c0.1585693,0.3207397,0.3746338,0.5780029,0.6479797,0.7839661
					c0.273468,0.2059631,0.5906677,0.3564148,0.9518738,0.4577026c0.3609924,0.1012573,0.7442322,0.1504517,1.1492004,0.1504517
					c0.3306274,0,0.663208-0.0397034,0.997345-0.1172485c0.3341675-0.0775146,0.636261-0.2029114,0.906311-0.3750916
					c0.269928-0.1720886,0.4911194-0.39505,0.663208-0.668396c0.1721802-0.2733765,0.2582397-0.6026306,0.2582397-0.9873657
					c0-0.3576965-0.0658264-0.6548462-0.1974487-0.8911438c-0.1317139-0.2362061-0.307312-0.4319458-0.5265808-0.5873108
					c-0.2194519-0.1552734-0.4674683-0.2784729-0.7442322-0.3696289c-0.2768555-0.0911865-0.5586243-0.1703796-0.8454895-0.2380066
					c-0.2869873-0.0672913-0.5687561-0.1298218-0.8454895-0.1873474c-0.276886-0.057251-0.5248718-0.1297913-0.7442322-0.2176514
					c-0.2193604-0.087616-0.3948669-0.2008362-0.5264587-0.3392944c-0.1316223-0.1381836-0.1974487-0.3189087-0.1974487-0.541687
					c0-0.2361755,0.0454712-0.4336243,0.1366272-0.5922852c0.091156-0.1585693,0.2126465-0.2851868,0.364502-0.3797302
					c0.151947-0.0944519,0.3256226-0.1621094,0.5214539-0.2025757c0.1957092-0.0404663,0.3949585-0.0606689,0.5975037-0.0606689
					c0.4994202,0,0.9094849,0.0993958,1.2302246,0.3322754C326.3873901,407.2456665,326.574707,407.5879211,326.6287842,408.1247864
					z"/>
			</g>
		</g>
		<path class="st0" d="M329.332489,405.2698059c-0.4916992,0-0.8916931-0.4000244-0.8916931-0.8917236
			s0.3999939-0.8916931,0.8916931-0.8916931c0.4916687,0,0.8916931,0.3999939,0.8916931,0.8916931
			S329.8241577,405.2698059,329.332489,405.2698059z M329.332489,403.566925c-0.4472961,0-0.8111572,0.3638611-0.8111572,0.8111572
			s0.3638611,0.8111877,0.8111572,0.8111877c0.4472656,0,0.8111572-0.3638916,0.8111572-0.8111877
			S329.7797546,403.566925,329.332489,403.566925z"/>
		<path class="st0" d="M329.6994629,404.7746887c-0.0062866-0.0197144-0.0111084-0.0404358-0.0144348-0.0622253
			c-0.0033875-0.0217896-0.0054932-0.0440063-0.0063171-0.0666504c-0.000824-0.0226135-0.0021057-0.0447693-0.0037537-0.0665894
			c-0.002533-0.0217896-0.006073-0.0427551-0.0106812-0.0628662s-0.0117493-0.0383301-0.0213928-0.054657
			c-0.009613-0.0163574-0.022583-0.0303955-0.0389404-0.0421448c-0.0163574-0.0117188-0.0375366-0.0201111-0.0634766-0.025116
			v-0.0025024c0.0544434-0.0151062,0.0940552-0.0431519,0.1187744-0.0842285s0.0370789-0.0888367,0.0370789-0.1433105
			c0-0.0729065-0.0240784-0.1302795-0.0722961-0.1722107c-0.0481873-0.0418701-0.1149902-0.0628662-0.20047-0.0628662h-0.4223328
			v0.897522h0.1194153v-0.3833923h0.291626c0.0292969,0,0.0527649,0.0043945,0.0703735,0.0131836
			c0.0175781,0.0088196,0.0318298,0.0205688,0.0427551,0.0351868c0.0108643,0.014679,0.0188599,0.0318909,0.0238647,0.0515747
			c0.0050354,0.0197144,0.0092163,0.0404358,0.0125732,0.0622253c0.0041809,0.0217896,0.0067139,0.0439758,0.0075378,0.0666199
			c0.000824,0.0226135,0.0016479,0.0437622,0.002533,0.063446c0.0007935,0.0197144,0.0026855,0.0375366,0.0056458,0.0534668
			c0.0028992,0.0158997,0.0085754,0.0284729,0.0169373,0.0376892h0.1332703
			C329.7151794,404.8117676,329.7057495,404.7943726,329.6994629,404.7746887z M329.5147095,404.3121033
			c-0.0188599,0.0121765-0.040863,0.0203247-0.0660095,0.0245056c-0.0251465,0.0042114-0.0515137,0.0062866-0.0791626,0.0062866
			h-0.2489014v-0.3129883h0.2966309c0.0561218,0,0.0968018,0.0142517,0.1219482,0.0427551
			c0.025116,0.0284729,0.0376892,0.0653381,0.0376892,0.1105957c0,0.0326843-0.0056458,0.0592957-0.0169678,0.079834
			S329.5335388,404.2999573,329.5147095,404.3121033z"/>
	</g>
</g>
</svg>
