<?xml version="1.0" encoding="utf-8"?>
<!-- Generator: Adobe Illustrator 19.1.0, SVG Export Plug-In . SVG Version: 6.00 Build 0)  -->
<svg version="1.1" id="Слой_1" xmlns="http://www.w3.org/2000/svg" xmlns:xlink="http://www.w3.org/1999/xlink" x="0px" y="0px"
	 viewBox="252.6400146 365.9450073 90 110" style="enable-background:new 252.6400146 365.9450073 90 110;" xml:space="preserve">
<style type="text/css">
	.st0{fill:#FFFFFF;}
	.st1{fill:url(#SVGID_1_);}
</style>
<g>
	<g>
		<g>
			<path class="st0" d="M325.9451904,475.9450073l-0.004425-0.1085815c-0.04953-1.1652527-1.0071106-2.0963135-2.1847839-2.0957336
				l0,0c-1.1773071-0.0005798-2.1343079,0.930481-2.1847534,2.0957336l0,0l-0.0043945,0.1079712h-2.2481995l-0.0044556-0.1079712
				c-0.04953-1.1652527-1.0071411-2.0963135-2.1841431-2.0957336l0,0c-1.1779785-0.0005798-2.1358337,0.930481-2.1848145,2.0957336
				l0,0l-0.0050049,0.1085815h-2.2481995l-0.004425-0.1085815c-0.0489502-1.1652527-1.0065308-2.0963135-2.1841736-2.0957336l0,0
				c-1.177948-0.0005798-2.1351929,0.930481-2.1847839,2.0957336l0,0l-0.0043945,0.1079712h-2.2488098l-0.004425-0.1079712
				c-0.0495605-1.1652527-1.0068359-2.0963135-2.1841736-2.0957336l0,0
				c-1.1776428-0.0005798-2.1352234,0.930481-2.1847839,2.0957336l0,0l-0.004425,0.1085815h-2.2481689l-0.0044556-0.1085815
				c-0.0495605-1.1652527-1.0074158-2.0963135-2.1847534-2.0957336l0,0c-1.1776733-0.0005798-2.134613,0.930481-2.1842041,2.0957336
				l0,0l-0.0050049,0.1079712h-2.2484741l-0.004425-0.1079712c-0.0495911-1.1652527-1.0065308-2.0963135-2.1838989-2.0957336l0,0
				c-1.1776428-0.0005798-2.1361084,0.930481-2.1847839,2.0957336l0,0l-0.0053101,0.1085815h-2.2474365l-0.0044556-0.1085815
				c-0.04953-1.1652527-1.0072632-2.0963135-2.1847534-2.0957336l0,0c-1.1774902-0.0005798-2.1352234,0.930481-2.1840515,2.0957336
				l0,0l-0.0043945,0.1079712h-2.2489624l-0.0043945-0.1079712c-0.0495911-1.1652527-1.0072937-2.0963135-2.1842041-2.0957336l0,0
				c-1.1774902-0.0005798-2.1358032,0.930481-2.1847534,2.0957336l0,0l-0.0050354,0.1085815h-2.2483521l-0.0043945-0.1085815
				c-0.0488281-1.1652527-1.0065308-2.0963135-2.1840515-2.0957336l0,0
				c-1.1774902-0.0005798-2.1352234,0.930481-2.1847534,2.0957336l0,0l-0.0044556,0.1079712h-2.2489319l-0.0043945-0.1079712
				c-0.0489807-1.1652527-1.0067139-2.0963135-2.1842041-2.0957336l0,0c-1.1774902-0.0005798-2.1352234,0.930481-2.184021,2.0957336
				l0,0l-0.005188,0.1085815h-2.2481995l-0.0043945-0.1085815c-0.0489807-1.1652527-1.0072937-2.0963135-2.1847839-2.0957336l0,0
				c-1.1774902-0.0005798-2.134613,0.930481-2.1841736,2.0957336l0,0l-0.0044098,0.1085815h-1.7402344l-0.0336151-0.0477905
				c-0.2126923-0.2932434-0.4953156-0.5316162-0.8249817-0.6903381l0,0l-0.0635529-0.0312805v-2.3435364l0.1035461-0.0082397
				c1.1228943-0.0932007,2.0063019-1.0325317,2.0063019-2.1795349l0,0c0-1.147583-0.8834076-2.0868835-2.0063019-2.1801147l0,0
				l-0.1035461-0.0088501v-2.2491455l0.1035461-0.0088196c1.1228943-0.0932312,2.0063019-1.0319519,2.0063019-2.1795349l0,0
				c0-1.1481628-0.8834076-2.0874939-2.0063019-2.1806946l0,0l-0.1035461-0.0082397v-2.2497559l0.1035461-0.0082397
				c1.1228943-0.0932312,2.0063019-1.0325623,2.0063019-2.1795349l0,0c0-1.147583-0.8834076-2.0868835-2.0063019-2.180542l0,0
				l-0.1035461-0.0088501v-2.2488708l0.1035461-0.0088501c1.1228943-0.092926,2.0063019-1.0322266,2.0063019-2.1798096l0,0
				c0-1.1470032-0.8834076-2.0868835-2.0063019-2.179657l0,0l-0.1035461-0.0088501v-2.2496033l0.1035461-0.0082397
				c1.1228943-0.0933838,2.0063019-1.0326843,2.0063019-2.1798401l0,0c0-1.147583-0.8834076-2.0868835-2.0063019-2.1802673l0,0
				l-0.1041565-0.0089722v-2.2488708l0.1041565-0.0082397c1.1228943-0.0933838,2.0063019-1.0334167,2.0063019-2.1804199l0,0
				c0-1.1477051-0.8834076-2.0870361-2.0063019-2.1797791l0,0l-0.1035461-0.0088806v-2.2495728l0.1035461-0.0082703
				c1.1228943-0.0933533,2.0063019-1.0326843,2.0063019-2.1803894l0,0c0-1.1470032-0.8834076-2.0869141-2.0063019-2.179657l0,0
				l-0.1041565-0.0088806v-2.2489929l0.1041565-0.0088501c1.1228943-0.0933533,2.0063019-1.0326538,2.0063019-2.1798096l0,0
				c0-1.147583-0.8834076-2.0868835-2.0063019-2.1802673l0,0l-0.1035461-0.0082397v-2.2496033l0.1035461-0.0090027
				c1.1228943-0.0926208,2.0063019-1.0326538,2.0063019-2.179657l0,0c0-1.1470032-0.8834076-2.0870361-2.0063019-2.1804199l0,0
				l-0.1041565-0.0082397v-2.2496033l0.1041565-0.0082397c1.1228943-0.0933838,2.0063019-1.0332642,2.0063019-2.1804199l0,0
				c0-1.1469727-0.8834076-2.0868835-2.0063019-2.179657l0,0l-0.1035461-0.0088501v-2.2495728l0.1035461-0.0082703
				c1.1228943-0.0933533,2.0063019-1.0328064,2.0063019-2.1798096l0,0c0-1.147583-0.8834076-2.0870361-2.0063019-2.1802673l0,0
				l-0.1041565-0.0089722v-2.2490234l0.1041565-0.0080872c1.1228943-0.0933838,2.0063019-1.0334167,2.0063019-2.1804199l0,0
				c0-1.1470032-0.8834076-2.0870361-2.0063019-2.1798096l0,0l-0.1035461-0.0088501v-2.2496033l0.1035461-0.0082397
				c1.1228943-0.0933838,2.0063019-1.0326843,2.0063019-2.1796875l0,0c0-1.1477356-0.8834076-2.087616-2.0063019-2.1803894l0,0
				l-0.1041565-0.0088501v-2.2490234l0.1041565-0.0088501c1.1228943-0.0933533,2.0063019-1.0328064,2.0063019-2.1798096l0,0
				c0-1.1475525-0.8834076-2.0870361-2.0063019-2.1803894l0,0l-0.1035461-0.0088501v-2.2489929l0.1035461-0.0088501
				c1.1228943-0.0926208,2.0063019-1.0326843,2.0063019-2.179657l0,0c0-1.1470032-0.8834076-2.0870667-2.0063019-2.1804199l0,0
				l-0.1041565-0.0082397v-2.2496033l0.1041565-0.0082397c1.1228943-0.0933838,2.0063019-1.0332947,2.0063019-2.1804199l0,0
				c0-1.1470032-0.8834076-2.0868835-2.0063019-2.179657l0,0l-0.1041565-0.0088501v-1.6501465l0.0641632-0.030365
				c0.5512085-0.2662659,0.9736633-0.7546692,1.1501923-1.3496704l0,0l0.0240479-0.0812988h1.4258881l0.010788,0.1016541
				c0.1162262,1.0987549,1.0459137,1.9567871,2.1764984,1.9560547l0,0c1.1304626,0.0007324,2.0608521-0.8572998,2.1770935-1.9560547
				l0,0l0.0107727-0.1016541h2.2508545l0.0113525,0.1016541c0.1162415,1.0987549,1.0460815,1.9567871,2.1765137,1.9560547l0,0
				c1.1304626,0.0007324,2.0602722-0.8572998,2.1765137-1.9560547l0,0l0.0107727-0.1016541h2.2521973l0.0100098,0.1016541
				c0.1162415,1.0987549,1.0466614,1.9567871,2.1772461,1.9560547l0,0c1.1298523,0.0007324,2.0602722-0.8572998,2.1765137-1.9560547
				l0,0l0.0107727-0.1016541h2.2514648l0.0107422,0.1016541c0.1162415,1.0987549,1.0466614,1.9567871,2.1770935,1.9560547l0,0
				c1.1298828,0.0007324,2.0602722-0.8572998,2.1765137-1.9560547l0,0l0.0107727-0.1016541h2.2514343l0.0107727,0.1016541
				c0.1162415,1.0987549,1.0460815,1.9567871,2.1765137,1.9560547l0,0c1.1305847,0.0007324,2.0602722-0.8572998,2.1770935-1.9560547
				l0,0l0.0109253-0.1016541h2.2501221l0.0112,0.1016541c0.1162415,1.0987549,1.0466614,1.9567871,2.1773987,1.9560547l0,0
				c1.1304321,0.0007324,2.0602722-0.85672,2.1765137-1.9560547l0,0l0.0105896-0.1016541h2.2514648l0.0109253,0.1016541
				c0.1162415,1.0993347,1.046051,1.9567871,2.1765137,1.9560547l0,0c1.1304321,0.0007324,2.0602722-0.8572998,2.1770935-1.9560547
				l0,0l0.0100098-0.1016541h2.2514343l0.0109558,0.1016541c0.1168213,1.0987549,1.0466309,1.9567871,2.1770935,1.9560547l0,0
				c1.1304321,0.0007324,2.0602722-0.8572998,2.1765137-1.9560547l0,0l0.0105896-0.1016541h2.2514648l0.0109253,0.1016541
				c0.1167908,1.0987549,1.0466309,1.9567871,2.1770935,1.9560547l0,0c1.1298523,0.0007324,2.0602722-0.8572998,2.1765137-1.9560547
				l0,0l0.0108948-0.1016541h2.2505493l0.0115356,0.1016541c0.1162109,1.0987549,1.046051,1.9567871,2.177124,1.9560547l0,0
				c1.1304016,0.0007324,2.0596619-0.85672,2.1764832-1.9560547l0,0l0.0103149-0.1016541h2.2514343l0.0112,0.1016541
				c0.1162415,1.0993347,1.0460815,1.9567871,2.1765137,1.9560547l0,0c1.1307678,0.0007324,2.0603027-0.8572998,2.1773987-1.9560547
				l0,0l0.0100403-0.1016541h2.2508545l0.0115051,0.1016541c0.1162415,1.0987549,1.0465088,1.9567871,2.1769409,1.9560547l0,0
				c1.1298828,0.0007324,2.0597229-0.8572998,2.1765442-1.9560547l0,0l0.0106201-0.1016541h2.2514343l0.0112,0.1016541
				c0.1162415,1.0987549,1.0460815,1.9567871,2.1765137,1.9560547l0,0c1.1304626,0.0007324,2.0603027-0.8572998,2.1765137-1.9560547
				l0,0l0.0106201-0.1016541h1.8655701l0.0247803,0.0812988c0.2088623,0.7068176,0.7658386,1.2651367,1.4726562,1.4758911l0,0
				l0.0808411,0.0242004v1.5300903l-0.1038513,0.0088501c-1.1227722,0.0933533-2.0065918,1.0326538-2.0065918,2.179657l0,0
				c0,1.1471252,0.8838196,2.0870361,2.0065918,2.1804199l0,0l0.1038513,0.0082397v2.2496033l-0.1038513,0.0082397
				c-1.1227722,0.0933533-2.0065918,1.0334167-2.0065918,2.1804199l0,0c0,1.1469727,0.8838196,2.0862732,2.0065918,2.179657l0,0
				l0.1032715,0.0082703v2.2501526l-0.1032715,0.0082703c-1.1227722,0.0933533-2.0065918,1.0328369-2.0065918,2.1803894l0,0
				c0,1.1470032,0.8838196,2.0864563,2.0065918,2.1798096l0,0l0.1038513,0.0083008v2.2495728l-0.1038513,0.0088501
				c-1.1227722,0.0933533-2.0065918,1.0326538-2.0065918,2.1803894l0,0c0,1.1464233,0.8838196,2.0863037,2.0065918,2.1796875l0,0
				l0.1032715,0.0082397v2.2496033l-0.1032715,0.0088501c-1.1227722,0.0933838-2.0065918,1.0328064-2.0065918,2.1798096l0,0
				c0,1.1470032,0.8838196,2.0870361,2.0065918,2.1804199l0,0l0.1038513,0.0080872v2.2497253l-0.1038513,0.0082703
				c-1.1227722,0.0932312-2.0065918,1.0332642-2.0065918,2.1802673l0,0c0,1.1470032,0.8838196,2.0864563,2.0065918,2.1798096l0,0
				l0.1032715,0.0082703v2.2495728l-0.1032715,0.0088501c-1.1227722,0.0933533-2.0065918,1.0326843-2.0065918,2.179657l0,0
				c0,1.1471558,0.8838196,2.0870361,2.0065918,2.1804199l0,0l0.1038513,0.0082397v2.2496033l-0.1038513,0.0082397
				c-1.1227722,0.0933838-2.0065918,1.0334167-2.0065918,2.1804199l0,0c0,1.1470032,0.8838196,2.0863037,2.0065918,2.179657l0,0
				l0.1032715,0.0082703v2.2503357l-0.1032715,0.0082397c-1.1227722,0.0933838-2.0065918,1.0326843-2.0065918,2.1802673l0,0
				c0,1.1471558,0.8838196,2.0864563,2.0065918,2.1798096l0,0l0.1038513,0.0082703v2.2495728l-0.1038513,0.0088806
				c-1.1227722,0.0933228-2.0065918,1.0326538-2.0065918,2.179657l0,0c0,1.1471558,0.8838196,2.0870361,2.0065918,2.1803894l0,0
				l0.1032715,0.0082703v2.2495728l-0.1032715,0.0088806c-1.1227722,0.0933533-2.0065918,1.0328064-2.0065918,2.1797791l0,0
				c0,1.1470032,0.8838196,2.0863342,2.0065918,2.1804199l0,0l0.1038513,0.0082397v2.2496033l-0.1038513,0.0082397
				c-1.1227722,0.0933838-2.0065918,1.0332947-2.0065918,2.1802673l0,0c0,1.1471558,0.8838196,2.0864563,2.0065918,2.1798401l0,0
				l0.1032715,0.0082397v2.2496033l-0.1032715,0.0088501c-1.1227722,0.0933838-2.0065918,1.0326538-2.0065918,2.179657l0,0
				c0,1.1470032,0.8838196,2.0863037,2.0065918,2.1798096l0,0l0.1032715,0.0082703v2.2500305l-0.1032715,0.0082703
				c-1.1227722,0.0936584-2.0065918,1.032959-2.006012,2.180542l0,0c-0.0005798,1.1469727,0.8832397,2.0863037,2.006012,2.1795349
				l0,0l0.1032715,0.0082397v2.2497559l-0.1032715,0.0082397c-1.1227722,0.093811-2.0065918,1.0331116-2.006012,2.1806946l0,0
				c-0.0005798,1.1464233,0.8832397,2.0863037,2.006012,2.1795349l0,0l0.1032715,0.0082703v2.2496948l-0.1032715,0.0088501
				c-1.1227722,0.0932312-2.0065918,1.0325317-2.006012,2.1801147l0,0c-0.0005798,1.1463928,0.8832397,2.0857239,2.006012,2.1795349
				l0,0l0.1032715,0.0082397v2.2237854l-0.0802612,0.0241699c-0.4672546,0.1398621-0.8684998,0.4313049-1.1475525,0.8177795l0,0
				l-0.03479,0.0466003h-2.1795044l-0.0046997-0.1079712c-0.0489502-1.1652527-1.0065308-2.0963135-2.1835938-2.0957336l0,0
				c-1.1776428-0.0005798-2.134613,0.930481-2.1841736,2.0957336l0,0l-0.0053101,0.1079712h-2.2484741l-0.0041504-0.1079712
				c-0.0495605-1.1652527-1.0065308-2.0963135-2.1842041-2.0957336l0,0
				c-1.1776123-0.0005798-2.1359253,0.930481-2.1846008,2.0957336l0,0l-0.0053101,0.1085815H325.9451904L325.9451904,475.9450073z
				 M341.2623596,475.7184448c0.289093-0.3805847,0.6879272-0.6738281,1.1510925-0.8295898l0,0v-1.8502808
				c-1.1894531-0.1504517-2.1098633-1.164093-2.1104431-2.3942871l0,0c0.0005798-1.2307739,0.92099-2.2444153,2.1104431-2.3948669
				l0,0v-1.8373108c-1.1894531-0.1504517-2.1098633-1.1641235-2.1104431-2.3942871l0,0
				c0.0005798-1.2313538,0.92099-2.2450256,2.1104431-2.3954468l0,0v-1.836731
				c-1.1894531-0.1504517-2.1098633-1.164093-2.1104431-2.3942871l0,0c0.0005798-1.2307739,0.92099-2.244873,2.1104431-2.3950195
				l0,0v-1.8370361c-1.1894531-0.1501465-2.1098633-1.1646729-2.1098633-2.3948669l0,0
				c0-1.2303162,0.9204102-2.243988,2.1098633-2.3948669l0,0v-1.8362732
				c-1.1894531-0.1510315-2.1098633-1.1647034-2.1098633-2.39505l0,0c0-1.2306213,0.9204102-2.2442627,2.1092834-2.3954773l0,0
				v-1.8364258c-1.1888733-0.1505737-2.1092834-1.1648254-2.1092834-2.3948669l0,0
				c0-1.2309265,0.9204102-2.2447205,2.1098633-2.3950195l0,0v-1.836853
				c-1.1894531-0.1502991-2.1098633-1.1639709-2.1098633-2.3950195l0,0c0-1.2300415,0.9204102-2.2441406,2.1092834-2.3948669l0,0
				v-1.8364258c-1.1888733-0.1511841-2.1092834-1.1647034-2.1092834-2.3948975l0,0
				c0-1.2309265,0.9204102-2.2445679,2.1098633-2.3948669l0,0v-1.8370361
				c-1.1894531-0.1502686-2.1098633-1.1639404-2.1098633-2.3948669l0,0c0-1.2301941,0.9204102-2.2442627,2.1092834-2.3948669l0,0
				v-1.8371887c-1.1888733-0.1505737-2.1092834-1.164093-2.1092834-2.3948669l0,0
				c0-1.2303162,0.9204102-2.2439575,2.1098633-2.3948364l0,0v-1.8364563
				c-1.1894531-0.1509094-2.1098633-1.1645508-2.1098633-2.3948669l0,0c0-1.2306213,0.9204102-2.2442932,2.1092834-2.3954773l0,0
				v-1.8364258c-1.1888733-0.1507568-2.1092834-1.1648254-2.1092834-2.3948669l0,0
				c0-1.2309265,0.9204102-2.2447205,2.1098633-2.3950195l0,0v-1.8368835
				c-1.1894531-0.1502686-2.1098633-1.1639404-2.1098633-2.3942871l0,0c0-1.2307739,0.9204102-2.2448425,2.1092834-2.3955994l0,0
				v-1.8364258c-1.1888733-0.1511841-2.1092834-1.1647034-2.1092834-2.3948975l0,0
				c0-1.230896,0.9204102-2.2445679,2.1098633-2.3948669l0,0v-1.8370056
				c-1.1894531-0.1502991-2.1098633-1.1639709-2.1098633-2.3948669l0,0c0-1.2301941,0.9204102-2.2442932,2.1092834-2.3948669l0,0
				v-1.8371887c-1.1888733-0.1506042-2.1092834-1.164093-2.1092834-2.3948669l0,0
				c0-1.2300415,0.9204102-2.2435608,2.1092834-2.3947449l0,0v-1.1567383
				c-0.7145081-0.2413025-1.2785645-0.8063965-1.5180969-1.5217896l0,0h-1.4968262
				c-0.1734619,1.1650085-1.177063,2.0577087-2.388916,2.0577087l0,0c-1.2124634,0-2.2154541-0.8927002-2.388916-2.0577087l0,0
				h-1.8490601c-0.1728821,1.1650085-1.1758728,2.0577087-2.3883362,2.0577087l0,0
				c-1.2124329,0-2.2158813-0.8927002-2.3890381-2.0577087l0,0h-1.8484802
				c-0.1731567,1.1650085-1.1767578,2.0577087-2.3892212,2.0577087l0,0c-1.2127075,0-2.2156982-0.8933105-2.3888855-2.0577087l0,0
				h-1.8487854c-0.1728516,1.1643982-1.1758728,2.0577087-2.3882751,2.0577087l0,0
				c-1.2127686,0-2.2163696-0.8927002-2.3895264-2.0577087l0,0h-1.8482056
				c-0.1731262,1.1650085-1.1764526,2.0577087-2.3888855,2.0577087l0,0c-1.2130432,0-2.2157288-0.8927002-2.388916-2.0577087l0,0
				h-1.8487549c-0.1731567,1.1650085-1.1767578,2.0577087-2.388916,2.0577087l0,0
				c-1.2124634,0-2.2157593-0.8927002-2.388916-2.0577087l0,0h-1.8487549
				c-0.1731873,1.1650085-1.176178,2.0577087-2.388916,2.0577087l0,0c-1.2124634,0-2.2154541-0.8933105-2.388916-2.0577087l0,0
				h-1.8487549c-0.1731873,1.1643982-1.176178,2.0577087-2.3883362,2.0577087l0,0
				c-1.2130432,0-2.2160339-0.8927002-2.3892212-2.0577087l0,0h-1.8484497
				c-0.1731873,1.1650085-1.1767578,2.0577087-2.3890686,2.0577087l0,0c-1.2128906,0-2.2158813-0.8927002-2.388916-2.0577087l0,0
				h-1.8487549c-0.1730347,1.1650085-1.1760254,2.0577087-2.3883362,2.0577087l0,0
				c-1.2128906,0-2.2158813-0.8927002-2.3896484-2.0577087l0,0h-1.8480225
				c-0.1731567,1.1650085-1.1766052,2.0577087-2.388916,2.0577087l0,0c-1.2130432,0-2.2158813-0.8927002-2.3890686-2.0577087l0,0
				h-1.8486023c-0.1731873,1.1650085-1.176178,2.0577087-2.3890686,2.0577087l0,0
				c-1.2123108,0-2.2157593-0.8927002-2.388916-2.0577087l0,0h-1.848175
				c-0.1737671,1.1650085-1.1766052,2.0577087-2.3894958,2.0577087l0,0c-1.2123108,0-2.2152863-0.8927002-2.3884735-2.0577087l0,0
				h-1.0572815c-0.2005768,0.5974121-0.6276093,1.0891724-1.1791077,1.3757629l0,0v1.3026123
				c1.1894379,0.1503296,2.109848,1.1639709,2.109848,2.3948975l0,0c0,1.2309265-0.9204102,2.2446899-2.109848,2.3950195l0,0
				v1.8368835c1.1894379,0.1502686,2.109848,1.164093,2.109848,2.3950195l0,0c0,1.230896-0.9204102,2.2445679-2.109848,2.3948669
				l0,0v1.8370056c1.1894379,0.1502991,2.109848,1.1639709,2.109848,2.3948669l0,0
				c0,1.2303467-0.9204102,2.2445984-2.109848,2.3950195l0,0v1.8363037c1.1894379,0.1502991,2.109848,1.1645203,2.109848,2.3955994
				l0,0c0,1.2303467-0.9204102,2.2440186-2.109848,2.3942871l0,0v1.8368835
				c1.1894379,0.1502991,2.109848,1.164093,2.109848,2.3950195l0,0c0,1.2309265-0.9204102,2.2445679-2.109848,2.3948669l0,0
				v1.8364258c1.1894379,0.1508789,2.109848,1.1645508,2.109848,2.3954773l0,0c0,1.2303162-0.9204102,2.2445679-2.109848,2.394989
				l0,0v1.8363342c1.1894379,0.1502686,2.109848,1.1639404,2.109848,2.3948364l0,0
				c0,1.2310791-0.9204102,2.244751-2.109848,2.3950195l0,0v1.8368835c1.1894379,0.1502991,2.109848,1.164093,2.109848,2.3950195
				l0,0c0,1.2309265-0.9204102,2.2445984-2.109848,2.3948669l0,0v1.8370361
				c1.1894379,0.1502991,2.109848,1.1639404,2.109848,2.3948669l0,0c0,1.2303467-0.9204102,2.2447205-2.109848,2.39505l0,0
				v1.8362732c1.1894379,0.1502686,2.109848,1.1645203,2.109848,2.3948669l0,0c0,1.2310486-0.9204102,2.2447205-2.109848,2.3950195
				l0,0v1.836853c1.1894379,0.1502991,2.109848,1.164093,2.109848,2.3950195l0,0
				c0,1.2309265-0.9204102,2.2445984-2.109848,2.3948669l0,0v1.8364258c1.1894379,0.1509399,2.109848,1.1645508,2.109848,2.3954773
				l0,0c0,1.2303467-0.9204102,2.2447205-2.109848,2.39505l0,0v1.8362732
				c1.1894379,0.1502991,2.109848,1.1639404,2.1104279,2.3948669l0,0c-0.0005798,1.2310791-0.92099,2.2447205-2.1104279,2.3948669
				l0,0v1.8370361c1.1894379,0.1495667,2.109848,1.1642456,2.109848,2.3950195l0,0
				c0,1.2301941-0.9204102,2.2438354-2.109848,2.3942871l0,0v1.836731c1.1894379,0.1504211,2.109848,1.164093,2.109848,2.3954468
				l0,0c0,1.2307739-0.9204102,2.2444458-2.109848,2.3948669l0,0v1.836731
				c1.1894379,0.1498718,2.109848,1.1635132,2.109848,2.3948669l0,0c0,1.2301941-0.9204102,2.2438354-2.109848,2.3942871l0,0
				v1.9966125c0.3187561,0.1646118,0.5948792,0.3988647,0.8106537,0.6826477l0,0h1.4109955
				c0.1070862-1.2342834,1.1406097-2.2042847,2.4032135-2.2042847l0,0c1.2631836,0,2.2967224,0.9700012,2.4038086,2.2042847l0,0
				h1.8189697c0.107666-1.2342834,1.1412048-2.2042847,2.4038086-2.2042847l0,0c1.2634888,0,2.2965698,0.9700012,2.4038086,2.204895
				l0,0h1.8189697c0.106781-1.2348938,1.1404724-2.204895,2.4039612-2.204895l0,0
				c1.2626038,0,2.2961426,0.9700012,2.403656,2.2042847l0,0h1.8185425c0.107666-1.2342834,1.1412048-2.2042847,2.4043884-2.2042847
				l0,0c1.2629089,0,2.2966003,0.9700012,2.4032288,2.204895l0,0h1.8189697
				c0.1073608-1.2348938,1.1408997-2.204895,2.4038086-2.204895l0,0c1.2626038,0,2.2961426,0.9700012,2.4038086,2.2042847l0,0
				h1.8189697c0.107666-1.2342834,1.1404724-2.2042847,2.4039612-2.2042847l0,0c1.2634888,0,2.2962952,0.9700012,2.4030762,2.204895
				l0,0h1.8195496c0.106781-1.2348938,1.1398926-2.204895,2.4033813-2.204895l0,0c1.2631836,0,2.29599,0.9700012,2.403656,2.2042847
				l0,0h1.8192749c0.1073608-1.2342834,1.1404724-2.2042847,2.403656-2.2042847l0,0
				c1.2634888,0,2.2965698,0.9700012,2.403656,2.204895l0,0h1.8189697c0.106781-1.2348938,1.1404724-2.204895,2.4039612-2.204895
				l0,0c1.2626038,0,2.2962952,0.9700012,2.403656,2.2042847l0,0h1.8186951
				c0.107666-1.2342834,1.1410522-2.2042847,2.4042664-2.2042847l0,0c1.2628479,0,2.2965393,0.9700012,2.4033203,2.204895l0,0
				h1.8190002c0.1073914-1.2348938,1.1401672-2.204895,2.4036255-2.204895l0,0c1.2634888,0,2.2962952,0.9700012,2.4039612,2.2042847
				l0,0h1.8190002c0.107666-1.2342834,1.1405945-2.2042847,2.4037781-2.2042847l0,0
				c1.2632141,0,2.2962952,0.9700012,2.4030762,2.204895l0,0h1.8195801c0.1068115-1.2348938,1.1398926-2.204895,2.403656-2.204895
				l0,0c1.2631836,0,2.2962646,0.9700012,2.403656,2.204895l0,0H341.2623596L341.2623596,475.7184448z"/>
			<path class="st0" d="M340.4168701,470.6442871c0-1.2065735,0.9286804-2.1948547,2.1098633-2.2927856v-2.0408936
				c-1.1811829-0.0985107-2.1098633-1.0862122-2.1098633-2.2927856c0-1.206604,0.9286804-2.1948547,2.1098633-2.2928162v-2.040863
				c-1.1811829-0.0985107-2.1098633-1.0861816-2.1098633-2.2927856c0-1.2065735,0.9286804-2.1947327,2.1098633-2.2929382v-2.0408936
				c-1.1811829-0.0982361-2.1098633-1.0862122-2.1098633-2.2927856c0-1.206604,0.9286804-2.1945801,2.1098633-2.2928162v-2.040863
				c-1.1811829-0.0982361-2.1098633-1.0862122-2.1098633-2.2928162c0-1.2065735,0.9286804-2.1948547,2.1098633-2.2930908v-2.0405884
				c-1.1811829-0.0982361-2.1098633-1.0864868-2.1098633-2.2930908c0-1.2065735,0.9286804-2.1945496,2.1098633-2.2927856v-2.040863
				c-1.1811829-0.0982666-2.1098633-1.0862427-2.1098633-2.2927856c0-1.206604,0.9286804-2.1948853,2.1098633-2.2931213v-2.0405579
				c-1.1811829-0.0982361-2.1098633-1.0865173-2.1098633-2.2931213c0-1.2065735,0.9286804-2.1945496,2.1098633-2.2927856v-2.0408936
				c-1.1811829-0.0982361-2.1098633-1.0862122-2.1098633-2.2927856s0.9286804-2.1948547,2.1098633-2.2930908v-2.0405579
				c-1.1811829-0.0982666-2.1098633-1.0865479-2.1098633-2.2931213c0-1.206604,0.9286804-2.1945801,2.1098633-2.2928162v-2.0408325
				c-1.1811829-0.0982361-2.1098633-1.0862122-2.1098633-2.2928162c0-1.2065735,0.9286804-2.1948547,2.1098633-2.2931213v-2.0405579
				c-1.1811829-0.0982361-2.1098633-1.0865173-2.1098633-2.2930908s0.9286804-2.1945496,2.1098633-2.2927856v-2.0408936
				c-1.1811829-0.0982361-2.1098633-1.0862122-2.1098633-2.2927856c0-1.206604,0.9286804-2.1948853,2.1098633-2.2931213v-2.0405579
				c-1.1811829-0.0982361-2.1098633-1.0865173-2.1098633-2.2931213c0-1.2065735,0.9286804-2.1945496,2.1098633-2.2927856v-2.040863
				c-1.1811829-0.0982361-2.1098633-1.0862122-2.1098633-2.2927856c0-1.206604,0.9286804-2.1948547,2.1098633-2.2930908v-2.0405884
				c-1.1811829-0.0982361-2.1098633-1.0865173-2.1098633-2.2930908c0-1.206604,0.9286804-2.1945801,2.1098633-2.2928162v-1.3415527
				c-0.7434082-0.2217102-1.3286743-0.8083191-1.5487366-1.5524902h-1.6797485
				c-0.1221313,1.1566162-1.1003723,2.0579834-2.2892151,2.0579834s-2.1664734-0.9013672-2.2891846-2.0579834h-2.0478821
				c-0.1221313,1.1566162-1.1003723,2.0579834-2.2892456,2.0579834c-1.1888123,0-2.1669006-0.9013672-2.2893372-2.0579834
				h-2.0475769c-0.1224365,1.1566162-1.1003723,2.0579834-2.2895203,2.0579834
				c-1.1891174,0-2.1667786-0.9013672-2.2891846-2.0579834H319.41922c-0.1224365,1.1566162-1.1000671,2.0579834-2.2891846,2.0579834
				c-1.1891785,0-2.1671143-0.9013672-2.2895203-2.0579834h-2.0476074c-0.122406,1.1566162-1.100647,2.0579834-2.2894897,2.0579834
				s-2.1667786-0.9013672-2.2892151-2.0579834h-2.0478821c-0.1224365,1.1566162-1.1003723,2.0579834-2.2891846,2.0579834
				c-1.1888733,0-2.1670837-0.9013672-2.2895203-2.0579834h-2.0475769
				c-0.1224365,1.1566162-1.1003723,2.0579834-2.2894897,2.0579834c-1.1891785,0-2.1668091-0.9013672-2.2892456-2.0579834
				h-2.0478821c-0.122406,1.1566162-1.1000366,2.0579834-2.2891846,2.0579834s-2.1670837-0.9013672-2.2894897-2.0579834h-2.0476074
				c-0.1224365,1.1566162-1.1004944,2.0579834-2.2894897,2.0579834s-2.1669312-0.9013672-2.2891846-2.0579834h-2.0479126
				c-0.1222839,1.1566162-1.1001892,2.0579834-2.2892151,2.0579834c-1.1889954,0-2.1670532-0.9013672-2.2894897-2.0579834
				h-2.0476074c-0.1224365,1.1566162-1.1004639,2.0579834-2.2894897,2.0579834
				c-1.1889954,0-2.1669006-0.9013672-2.2891846-2.0579834h-2.0478821
				c-0.1222839,1.1566162-1.1002197,2.0579834-2.2892151,2.0579834c-1.1890259,0-2.1670837-0.9013672-2.2894897-2.0579834
				h-2.0476074c-0.122406,1.1566162-1.1004944,2.0579834-2.2895203,2.0579834c-1.1889648,0-2.1669006-0.9013672-2.2891846-2.0579834
				h-1.2398834c-0.1852722,0.6263123-0.6298065,1.1396179-1.2090454,1.419281v1.474762
				c1.1811523,0.0979309,2.1100006,1.0860596,2.1100006,2.2928162c0,1.2067261-0.9288483,2.1950073-2.1100006,2.2930908v2.0405884
				c1.1811523,0.0980835,2.1100006,1.0863647,2.1100006,2.2930908c0,1.2066956-0.9288483,2.1948547-2.1100006,2.2927856v2.040863
				c1.1811523,0.0979614,2.1100006,1.0860901,2.1100006,2.2927856c0,1.2067566-0.9288483,2.1950073-2.1100006,2.2931213v2.0405579
				c1.1811523,0.0980835,2.1100006,1.0863647,2.1100006,2.2931213c0,1.2067261-0.9288483,2.1948547-2.1100006,2.2927856v2.0408936
				c1.1811523,0.0979309,2.1100006,1.0860596,2.1100006,2.2927856s-0.9288483,2.1950073-2.1100006,2.2930908v2.0405579
				c1.1811523,0.098114,2.1100006,1.0863953,2.1100006,2.2931213s-0.9288483,2.1948547-2.1100006,2.2928162v2.0408325
				c1.1811523,0.0979309,2.1100006,1.0860901,2.1100006,2.2928162s-0.9288483,2.1950073-2.1100006,2.2931213v2.0405579
				c1.1811523,0.0980835,2.1100006,1.0863647,2.1100006,2.2930908s-0.9288483,2.1948547-2.1100006,2.2927856v2.0408936
				c1.1811523,0.0979309,2.1100006,1.0860596,2.1100006,2.2927856c0,1.2067566-0.9288483,2.1950378-2.1100006,2.2931213v2.0405579
				c1.1811523,0.098114,2.1100006,1.0863647,2.1100006,2.2931213c0,1.2066956-0.9288483,2.1948547-2.1100006,2.2927856v2.040863
				c1.1811523,0.0979309,2.1100006,1.0860596,2.1100006,2.2927856s-0.9288483,2.1950073-2.1100006,2.2930908v2.0405884
				c1.1811523,0.0980835,2.1100006,1.0863647,2.1100006,2.2930908c0,1.2067566-0.9288483,2.1948853-2.1100006,2.2928162v2.040863
				c1.1811523,0.0979614,2.1100006,1.0860901,2.1100006,2.2928162c0,1.2068787-0.9288483,2.1948547-2.1100006,2.2927856v2.0408936
				c1.1811523,0.0979004,2.1100006,1.0857544,2.1100006,2.2929382c0,1.206604-0.9288483,2.1948547-2.1100006,2.2927856v2.040863
				c1.1811523,0.0979614,2.1100006,1.0856628,2.1100006,2.2928162c0,1.2065735-0.9288483,2.1948547-2.1100006,2.2927856v2.0408936
				c1.1811523,0.0979309,2.1100006,1.0856018,2.1100006,2.2927856c0,1.206604-0.9288483,2.1948547-2.1100006,2.2928162v2.1683044
				c0.3463287,0.1669617,0.6439667,0.4171143,0.8672943,0.7263184h1.5733795
				c0.0517883-1.2254944,1.0589142-2.2043152,2.2974396-2.2043152c1.2385559,0,2.2460022,0.9788208,2.2977905,2.2043152h2.0310669
				c0.0517578-1.2254944,1.0592041-2.2043152,2.29776-2.2043152s2.245697,0.9788208,2.2974548,2.2043152h2.0313721
				c0.0517578-1.2254944,1.0588989-2.2043152,2.2974548-2.2043152s2.2460022,0.9788208,2.2977905,2.2043152h2.0310669
				c0.0517578-1.2254944,1.0591736-2.2043152,2.2977295-2.2043152s2.245697,0.9788208,2.2974854,2.2043152h2.0313416
				c0.0517883-1.2254944,1.0589294-2.2043152,2.2974854-2.2043152s2.2459717,0.9788208,2.2977295,2.2043152h2.0310974
				c0.0519104-1.2254944,1.0590515-2.2043152,2.29776-2.2043152s2.2455444,0.9788208,2.2974548,2.2043152h2.0313721
				c0.0519409-1.2254944,1.0587769-2.2043152,2.2974854-2.2043152c1.238678,0,2.2458191,0.9788208,2.2977295,2.2043152h2.0310669
				c0.0519409-1.2254944,1.059082-2.2043152,2.2977905-2.2043152s2.2455444,0.9788208,2.2974548,2.2043152h2.0313721
				c0.0519104-1.2254944,1.0587463-2.2043152,2.2974548-2.2043152s2.2458191,0.9788208,2.29776,2.2043152h2.0310669
				c0.0519409-1.2254944,1.0590515-2.2043152,2.2977905-2.2043152c1.238678,0,2.2454834,0.9788208,2.2974243,2.2043152h2.0313721
				c0.0519104-1.2254944,1.0587463-2.2043152,2.2974548-2.2043152s2.2458496,0.9788208,2.29776,2.2043152h2.0310974
				c0.0519104-1.2254944,1.0591736-2.2043152,2.2975769-2.2043152c1.2390137,0,2.2455444,0.9788208,2.2974854,2.2043152h2.0313721
				c0.0519104-1.2254944,1.0590515-2.2043152,2.2974548-2.2043152c1.2389832,0,2.2455444,0.9788208,2.2974854,2.2043152h2.0130615
				c0.2938232-0.4065247,0.7156677-0.7133179,1.2071533-0.8596497v-2.0349731
				C341.3455505,472.838562,340.4168701,471.8508911,340.4168701,470.6442871z"/>
		</g>
		
			<linearGradient id="SVGID_1_" gradientUnits="userSpaceOnUse" x1="297.6403809" y1="371.2453918" x2="297.6403809" y2="470.6446838" gradientTransform="matrix(1 0 0 -1 0 841.8900146)">
			<stop  offset="0" style="stop-color:#4B35D5"/>
			<stop  offset="0.9957474" style="stop-color:#4759E8"/>
		</linearGradient>
		<polygon class="st1" points="336.8407593,470.6445923 258.4400024,470.6445923 258.4400024,371.2453003 336.8407593,371.2453003 
					"/>
	</g>
	<g>
		<g id="Rounded_Rectangle_1_5_">
			<g>
				<path class="st0" d="M300.9765015,450.858551h-5.5994873c-1.2837524,0-2.3281555-1.0444031-2.3281555-2.3281555v-5.5997009
					c0-1.2837524,1.0444031-2.328125,2.3281555-2.328125h5.5994873c1.2837524,0,2.3281555,1.0443726,2.3281555,2.328125v5.5997009
					C303.304657,449.8141479,302.2602539,450.858551,300.9765015,450.858551z M295.3770142,440.6293945
					c-1.2689514,0-2.3013,1.0323792-2.3013,2.3013v5.5997009c0,1.2689209,1.0323486,2.3013,2.3013,2.3013h5.5994873
					c1.2689514,0,2.3013-1.0323792,2.3013-2.3013v-5.5997009c0-1.2689209-1.0323486-2.3013-2.3013-2.3013H295.3770142z"/>
			</g>
			<g>
				<path class="st0" d="M300.9765015,440.771637c1.1904907,0,2.1589966,0.9685669,2.1589966,2.1590576v5.5996704
					c0,1.1905212-0.9685059,2.1590881-2.1589966,2.1590881h-5.5994873c-1.1904907,0-2.1590271-0.9685669-2.1590271-2.1590881
					v-5.5996704c0-1.1904907,0.9685364-2.1590576,2.1590271-2.1590576H300.9765015 M300.9765015,440.4602661h-5.5994873
					c-1.3643799,0-2.4703979,1.1060486-2.4703979,2.4704285v5.5996704c0,1.3643799,1.1060181,2.470459,2.4703979,2.470459h5.5994873
					c1.3643494,0,2.4703674-1.1060791,2.4703674-2.470459v-5.5996704
					C303.4468689,441.5663147,302.3408508,440.4602661,300.9765015,440.4602661L300.9765015,440.4602661z"/>
			</g>
		</g>
		<path class="st0" d="M294.2338867,436.5430298c0.0895691,0.2796326,0.1783447,0.5530396,0.2755737,0.8581848
			c-0.4180298,0.1471863-0.7227783,0.2098389-0.9760132-0.259613c-1.9327087-3.5827026-3.9884033-7.1060791-5.803894-10.7466736
			c-1.7055359-3.4200439-3.2705994-6.9345703-4.7059631-10.4770203c-0.0222778-0.0549316-0.0437927-0.0779114-0.0659485-0.1853027
			h5.2406311c0.9293213,4.0803833,2.0343323,7.9937744,3.2134705,11.9375916
			C292.2982788,430.635376,293.2897949,433.5950928,294.2338867,436.5430298z"/>
		<path class="st0" d="M279.3609924,404.2163086h6.6912231c-0.1231995-0.8321838-0.2414246-1.6598816-0.3554993-2.497345
			c-0.5279236-3.8763733-0.6436157-7.7605591,0.0150757-11.6456909c0.4442444-2.6200867,1.2156372-5.1179199,2.7687073-7.3009338
			c0.699646-0.9833984,1.563385-1.8482361,2.3526611-2.7678528c-0.0029907-0.0331421-0.006012-0.0654602-0.0090332-0.0986023
			c-1.1519775,0.4742126-2.3382568,0.8802795-3.4497986,1.4354553c-3.9374695,1.9666138-6.5679016,5.081665-7.8901367,9.2768555
			c-1.0231323,3.2461548-1.1196594,6.5628357-0.7221985,9.9118652
			C278.9099731,401.7769775,279.1134338,403.0888367,279.3609924,404.2163086z"/>
		<path class="st0" d="M308.2925415,415.732605c-0.5516357,2.4160156-1.1589355,4.6941528-1.8149719,7.0121765
			c-1.0322266,3.6472473-2.156311,7.2787781-3.2581177,10.9060364c-0.3786316,1.2464905-0.8134155,2.4810181-1.2344666,3.7542419
			c0.7137451,0.1666565,0.7121582,0.1682434,1.0174255-0.3492432c0.194397-0.3294983,0.4088135-0.6466675,0.5897522-0.9832764
			c1.7290649-3.21698,3.4792175-6.442627,5.1715088-9.678894c1.8052368-3.45224,3.3750916-6.9296265,4.7836304-10.6610413
			H308.2925415z"/>
		<path class="st0" d="M305.7939453,380.2833557c1.694458,1.4396057,2.9007263,3.2264709,3.735199,5.2736511
			c1.1390076,2.7944031,1.5844421,5.7130432,1.667572,8.7063599c0.0931396,3.3526611-0.206543,6.6242065-0.6856689,9.9529419
			h6.6198425c0.3260803-1.6911926,0.5700989-3.1875,0.7078857-4.8240051
			c0.2879028-3.418396,0.0117188-6.7717896-1.2607727-10.005188c-0.6708069-1.7045288-1.6130676-3.2392578-2.8427124-4.5793457
			c-1.3977356-1.5233459-3.0162048-2.7891541-4.9165039-3.6393433c-1.036377-0.4636536-2.1143188-0.8335571-3.2497864-1.2759094
			c0.0298767,0.178894,0.0265808,0.2026672,0.0365906,0.2127075
			C305.6665649,380.1663513,305.7281799,380.227478,305.7939453,380.2833557z"/>
		<path class="st0" d="M277.8466187,417.8621826c-0.3793945-0.6965637-0.7435608-1.3779297-1.0945129-2.1295776h-1.2146606
			c1.9440308,3.5434875,4.1474304,6.7875671,6.4862366,9.9993286c0.5772705,0.7927246,1.1810303,1.5762939,1.7726135,2.3586426
			c-0.0827637-0.3133545-0.2504272-0.5617065-0.406189-0.8235168
			C281.5322266,424.1440735,279.5836182,421.0510559,277.8466187,417.8621826z"/>
		<path class="st0" d="M270.6740723,404.2163086h1.8633728c-0.5958862-2.6307678-0.8839722-5.2662659-0.6280518-8.0126343
			c0.2983704-3.2014771,1.1673279-6.2130127,2.9342957-8.9317322c0.413208-0.6358337,0.8699036-1.2398682,1.3065796-1.8604431
			c-1.6452026,1.1959229-3.3833008,3.3158264-4.35672,5.2203979c-1.9894409,3.8924866-2.2632751,7.9838562-1.4328613,12.1969604
			C270.4535828,403.3001099,270.5598755,403.6794128,270.6740723,404.2163086z"/>
		<path class="st0" d="M317.4281311,420.0890808c-1.0315857,1.8718567-2.1716614,3.6943359-3.2757568,5.5257568
			c-0.4696045,0.7788696-0.9692688,1.5447083-1.4552612,2.3136902c0.0370483,0.0298767,0.0741272,0.0622864,0.1111755,0.0921936
			c0.0318298-0.0600586,0.0570068-0.1236572,0.096405-0.1782227c1.2321472-1.7049866,2.5397339-3.3805237,3.6815186-5.1438904
			c1.4781494-2.2829285,2.9010925-4.5499878,4.2838745-6.9660034h-1.157196
			C318.9900818,417.1822205,318.2161255,418.6591492,317.4281311,420.0890808z"/>
		<path class="st0" d="M322.8681335,389.5263367c1.6454773,3.5975647,2.1100769,7.4013062,1.6751404,11.314209
			c-0.1274719,1.1470642-0.3201294,2.248291-0.5664978,3.3757629h1.8419189
			c0.860321-3.4360962,1.0700073-6.8384705,0.1437988-10.3192139c-0.9223328-3.466095-2.8616333-6.2527771-5.6459045-8.4754333
			c0.1147156,0.1495667,0.2433472,0.2940674,0.3419495,0.4536133
			C321.4067383,387.0860901,322.2804565,388.2414551,322.8681335,389.5263367z"/>
		<path class="st0" d="M296.4803772,424.1487122c0.3055725,3.0539551,0.6421509,6.1160278,0.9769897,9.1680603
			c0.1444397,1.3162537,0.3127136,2.6359863,0.4907532,3.9496155c0.0160522,0.1184692,0.1836548,0.2264099,0.2808838,0.3378906
			c0.1133118-0.1187744,0.2991028-0.226532,0.3265381-0.3567505c0.0896606-0.4256592,0.1273499-0.8579407,0.1749573-1.2887878
			c0.4023743-3.6412354,0.8339539-7.3005981,1.1953735-10.9444275c0.3061218-3.0863037,0.6036987-6.1408691,0.8761902-9.2817078
			h-5.1288147C295.925415,418.4439087,296.2004395,421.3507996,296.4803772,424.1487122z"/>
		<path class="st0" d="M294.7466736,404.2163086h3.4456787h3.477478c0.0490723-0.5905762,0.0983887-1.3964233,0.1434631-2.1017151
			c0.2976685-4.6603699,0.5811462-9.3070679,0.1638794-13.9731445c-0.1820374-2.0357056-0.490448-4.0665894-1.3588867-5.9957275
			c-0.3464355-0.7695618-0.9147949-1.5142212-1.5421753-2.1637573c-0.2666321-0.276062-0.5346069-0.4215393-0.8837585-0.4406128
			c-0.3491821,0.0190735-0.6012573,0.1640015-0.8678894,0.4400635c-0.6273804,0.6495361-1.1764526,1.3933716-1.5228882,2.1629333
			c-0.8684387,1.9291382-1.1785583,3.9585266-1.3605652,5.9942322c-0.4172668,4.6660767-0.1346436,9.3156738,0.1630249,13.9760132
			C294.6491089,402.8199158,294.6975708,403.6257324,294.7466736,404.2163086z"/>
		<path class="st0" d="M300.5387878,444.6667175c-0.5387268-1.6463928-1.684082-2.1547546-3.2651672-1.6373596l-1.7610779,0.5762634
			l1.6793518,5.1323242l1.7610779-0.5762634C300.6636963,447.6018677,301.1008606,446.3845215,300.5387878,444.6667175z
			 M298.8222656,447.5681763l-1.1357117,0.3716431l-1.3030396-3.9822693l1.1500549-0.3763428
			c1.2579956-0.4116516,1.9529724,0.1805725,2.3526611,1.4020691
			C300.5047913,446.8737488,299.2895813,447.4152527,298.8222656,447.5681763z"/>
		<g>
			<g>
				<polygon class="st0" points="268.4092102,406.3907166 268.4092102,413.6387329 269.268219,413.6387329 269.268219,407.6524048 
					269.3244629,407.6524048 271.5825195,413.6387329 272.4026794,413.6387329 274.6606445,407.6524048 274.6638184,407.6524048 
					274.6638184,413.6387329 275.5765076,413.6387329 275.5765076,406.3907166 274.2758789,406.3907166 271.9875183,412.4662476 
					269.709259,406.3907166 				"/>
			</g>
			<g>
				<polygon class="st0" points="280.1399536,410.6753845 282.9432373,406.3907166 281.8497009,406.3907166 279.733429,409.8334961 
					277.5665588,406.3907166 276.4223633,406.3907166 279.2272644,410.6753845 279.2272644,413.6387329 280.1399536,413.6387329 
									"/>
			</g>
			<path class="st0" d="M291.6208191,407.2575073c-0.6009216-0.566925-1.4581299-0.8484802-2.5719299-0.8484802h-2.4510498
				v7.2653198h2.4510498c0.6007385,0,1.1204529-0.1054077,1.5593262-0.274231
				c0.4387207-0.1686401,0.7999573-0.4238892,1.0834656-0.7446594c0.2835083-0.3205261,0.4926453-0.7206726,0.6277771-1.190094
				c0.1349182-0.4689331,0.2024841-1.0101013,0.2024841-1.6176147
				C292.5219421,408.686676,292.2214966,407.8246765,291.6208191,407.2575073z M291.4233093,411.1167908
				c-0.091095,0.3139343-0.2075195,0.5751343-0.3493042,0.7843018c-0.1417542,0.2093506-0.3021851,0.3744202-0.4809265,0.4960022
				c-0.1789856,0.1213989-0.3595276,0.2142944-0.5417786,0.2782593c-0.182251,0.064209-0.3544006,0.1156006-0.5164185,0.1324158
				c-0.1620178,0.0169373-0.2970886,0.0362549-0.4049988,0.0362549h-1.5979309v-5.6046753h1.6182251
				c0.4454651,0,0.8201294,0.0490112,1.1239014,0.1738281c0.3037415,0.125,0.5518494,0.3005981,0.7442322,0.5400696
				c0.1923523,0.2397156,0.3306885,0.5266418,0.4151306,0.8673706c0.0843506,0.3410034,0.1265564,0.7258911,0.1265564,1.1578064
				C291.5599976,410.4239502,291.5144958,410.8028564,291.4233093,411.1167908z"/>
			<path class="st0" d="M299.321167,413.2330627c-0.0505676-0.1585388-0.0895386-0.3361816-0.1163635-0.5117798
				c-0.0270691-0.175415-0.0440063-0.3596802-0.0506897-0.5418701c-0.0068359-0.1823425-0.0168152-0.363739-0.0303345-0.5393372
				c-0.0202332-0.1755066-0.0489807-0.3457336-0.0860596-0.5075989c-0.037262-0.1620483-0.094574-0.3095703-0.1720886-0.4411926
				c-0.0777283-0.1316223-0.1951599-0.2449341-0.3267822-0.3395081c-0.1316223-0.0945435-0.3167725-0.162384-0.524353-0.2028503
				v-0.0202332c0.4151306-0.1216431,0.7706299-0.3475952,0.9698792-0.6785583
				c0.1988831-0.3305359,0.3051453-0.7153931,0.3051453-1.1543579c0-0.5871582-0.190918-1.0461731-0.5790405-1.383728
				c-0.3882751-0.3375854-0.9232178-0.5030212-1.6118164-0.5030212h-3.4432678v7.2653198h1.0379028v-3.1137085h2.3142395
				c0.2362061,0,0.4253235,0.0270386,0.5669556,0.0979614c0.1418457,0.0708008,0.2565308,0.1612549,0.3443909,0.2792358
				c0.0875244,0.1182251,0.1518555,0.2545471,0.1922913,0.4129944c0.0404663,0.158783,0.0742188,0.3248291,0.1012878,0.5001831
				c0.0337524,0.1757202,0.0539856,0.3538818,0.0608215,0.5361938c0.0065613,0.182312,0.0133972,0.3525391,0.0202026,0.5110779
				c0.0065918,0.158783,0.0218201,0.3231812,0.0454712,0.451416c0.0236206,0.1282043,0.0692139,0.2208557,0.1368408,0.324646
				h1.0731506C299.4477844,413.4667664,299.3718872,413.3917236,299.321167,413.2330627z M297.8327332,409.4872742
				c-0.1518555,0.0979919-0.3290405,0.1612549-0.5315857,0.1950073c-0.2024841,0.0338745-0.4151611,0.0480347-0.6379089,0.0480347
				h-1.9699402v-2.4909668h2.3547058c0.4521484,0,0.7797241,0.1014404,0.9822388,0.33078
				c0.2025757,0.2295837,0.3037109,0.5198669,0.3037109,0.8843689c0,0.2632446-0.0454407,0.4743652-0.1366272,0.6396179
				C298.1062012,409.259613,297.9845886,409.3895569,297.8327332,409.4872742z"/>
			<g>
				<polygon class="st0" points="300.5949707,406.3907166 300.5949707,413.6387329 305.695282,413.6387329 305.695282,412.8334045 
					301.5344849,412.8334045 301.5344849,410.336853 305.3731689,410.336853 305.3731689,409.4778442 301.5344849,409.4778442 
					301.5344849,407.2497559 305.6147461,407.2497559 305.6147461,406.3907166 				"/>
			</g>
			<path class="st0" d="M309.8465881,406.4090271h-1.0631409l-2.8149719,7.2653198h0.9822388l0.8100281-2.1795959h3.0579834
				l0.7896729,2.1795959h1.0632935L309.8465881,406.4090271z M308.0645447,410.6644287l1.2251282-3.4250793h0.0203552
				l1.204895,3.4250793H308.0645447z"/>
			<g>
				<polygon class="st0" points="313.3994751,406.3907166 313.3994751,413.6387329 314.3121643,413.6387329 
					314.3121643,407.6524048 314.3322144,407.6524048 316.590271,413.6387329 317.4104309,413.6387329 319.668457,407.6524048 
					319.7077637,407.6524048 319.7077637,413.6387329 320.6473083,413.6387329 320.6473083,406.3907166 319.2836304,406.3907166 
					316.9952393,412.4662476 314.7169495,406.3907166 				"/>
			</g>
			<g>
				<path class="st0" d="M326.3814392,408.4845886h0.9113159c-0.0136414-0.4026794-0.0895691-0.7237244-0.2277832-1.0107422
					c-0.1384277-0.2868652-0.3275452-0.5162659-0.5670166-0.7052917c-0.2397156-0.1889038-0.5181885-0.3230896-0.8353882-0.4109497
					c-0.3173523-0.0876465-0.6616211-0.1296082-1.0328064-0.1296082c-0.3308716,0-0.6531067,0.043335-0.9670105,0.127655
					c-0.3139343,0.0845947-0.5940857,0.2132263-0.8403931,0.3854065c-0.246521,0.1720886-0.4439392,0.3918152-0.5923767,0.6583557
					c-0.1485596,0.2667847-0.2227783,0.582428-0.2227783,0.9469299c0,0.3307495,0.0657959,0.6061096,0.1974182,0.8252563
					c0.1317444,0.219574,0.3070984,0.3985291,0.5265808,0.5367432c0.2192383,0.1384277,0.4673767,0.2498474,0.7442322,0.3341675
					c0.2767639,0.0845642,0.5585327,0.1586914,0.84552,0.2227783c0.2867432,0.0643311,0.5686035,0.1266174,0.8454895,0.1873169
					c0.2766418,0.0608215,0.5247498,0.1402893,0.7442322,0.2380371c0.2192383,0.0979614,0.3948364,0.2244568,0.5264587,0.3796082
					c0.1316223,0.1554871,0.1974182,0.3580322,0.1974182,0.6076355c0,0.2632446-0.0540771,0.4794312-0.1619568,0.6481018
					c-0.1080933,0.1687927-0.2498169,0.3020935-0.425293,0.3998718c-0.1756287,0.0979614-0.3730469,0.1670837-0.5922852,0.2076416
					c-0.2194824,0.0405884-0.4371338,0.060791-0.6531982,0.060791c-0.27005,0-0.5332642-0.0337524-0.7897034-0.1013489
					c-0.2566223-0.0673218-0.4809875-0.1721191-0.6734009-0.3138428c-0.1923218-0.1417236-0.3476868-0.3103027-0.4657898-0.5298767
					c-0.1181946-0.2191467-0.1771851-0.4506531-0.1771851-0.7727966h-0.9113159
					c0,0.4026794,0.0793457,0.8066711,0.2380066,1.1271667c0.1585693,0.3207703,0.3746338,0.5780334,0.6479797,0.7839966
					c0.2734375,0.2059326,0.5906677,0.3564148,0.9518738,0.4576721c0.3609619,0.1012878,0.7442322,0.1504822,1.1492004,0.1504822
					c0.3306274,0,0.6631775-0.0397339,0.997345-0.1172485s0.636261-0.2029114,0.906311-0.3751221
					c0.269928-0.1720581,0.4911194-0.3950195,0.6631775-0.668396c0.1722107-0.2733459,0.2582397-0.6026001,0.2582397-0.9873352
					c0-0.3576965-0.0657959-0.6548462-0.1974182-0.8911743c-0.1317444-0.2361755-0.3073425-0.4319153-0.5265808-0.5872803
					c-0.2194824-0.1552734-0.4674683-0.2785034-0.7442322-0.3696594c-0.2768555-0.091156-0.5586243-0.1703796-0.8454895-0.2380066
					c-0.2869873-0.0672913-0.5687561-0.1297913-0.84552-0.1873169c-0.2768555-0.0572815-0.5248718-0.1297913-0.7442322-0.2176514
					c-0.2193604-0.0876465-0.3948364-0.2008362-0.5264587-0.3392944c-0.1316223-0.1382141-0.1974182-0.3189087-0.1974182-0.541687
					c0-0.2362061,0.0454712-0.4336243,0.1366272-0.5922852c0.0911255-0.1585693,0.2126465-0.2851868,0.3644714-0.3797607
					c0.1519775-0.0944519,0.3256531-0.1620789,0.5214844-0.2025452c0.1957092-0.0404663,0.3949585-0.0606995,0.5975037-0.0606995
					c0.4993896,0,0.9094849,0.0993958,1.2302246,0.3323059
					C326.1400452,407.6054688,326.3273315,407.9476929,326.3814392,408.4845886z"/>
			</g>
		</g>
		<path class="st0" d="M329.0851135,405.6295776c-0.4916687,0-0.8916931-0.4000244-0.8916931-0.8916931
			s0.4000244-0.8916931,0.8916931-0.8916931c0.4916992,0,0.8916931,0.4000244,0.8916931,0.8916931
			S329.5768127,405.6295776,329.0851135,405.6295776z M329.0851135,403.9267273
			c-0.4472656,0-0.8111572,0.3638916-0.8111572,0.8111572s0.3638916,0.8111572,0.8111572,0.8111572
			c0.4472961,0,0.8111572-0.3638916,0.8111572-0.8111572S329.5324097,403.9267273,329.0851135,403.9267273z"/>
		<path class="st0" d="M329.4521179,405.1344604c-0.0062866-0.0196838-0.0111389-0.0404053-0.0144348-0.0622253
			c-0.0033875-0.021759-0.0054932-0.0439758-0.0063171-0.0666199c-0.0008545-0.0226135-0.0021057-0.0447998-0.0037537-0.0666199
			c-0.002533-0.021759-0.006073-0.0427246-0.0106812-0.0628357c-0.0046387-0.0201111-0.0117798-0.0383301-0.0213928-0.0546875
			c-0.0096436-0.0163269-0.0226135-0.030365-0.0389404-0.0421143c-0.0163574-0.0117188-0.0375366-0.0201111-0.0634766-0.0251465
			v-0.0025024c0.0544434-0.0151062,0.0940552-0.0431519,0.1187439-0.0842285
			c0.0247498-0.0410461,0.0371094-0.0888062,0.0371094-0.14328c0-0.0729065-0.0241089-0.1303101-0.0722961-0.1722107
			c-0.0481873-0.0418701-0.1150208-0.0628662-0.20047-0.0628662h-0.4223328v0.897522h0.1193848v-0.3833923h0.291626
			c0.0293274,0,0.0527954,0.0043945,0.0704041,0.0131836c0.0175781,0.0088196,0.0318298,0.0205383,0.0427551,0.0351868
			c0.0108643,0.014679,0.0188293,0.0318909,0.0238647,0.0515442c0.0050354,0.0197144,0.0091858,0.0404358,0.0125732,0.0622253
			c0.0041809,0.0217896,0.0067139,0.0440063,0.0075378,0.0666199c0.000824,0.022644,0.0016479,0.0437927,0.0025024,0.0634766
			c0.000824,0.0196838,0.0027161,0.0375366,0.0056458,0.0534363c0.0029297,0.0159302,0.008606,0.0285034,0.0169678,0.0377197
			h0.1332397C329.4678345,405.1715393,329.4584045,405.1541748,329.4521179,405.1344604z M329.267334,404.6719055
			c-0.0188293,0.012146-0.0408325,0.0203247-0.0660095,0.0245056c-0.025116,0.0042114-0.0515137,0.0062561-0.0791626,0.0062561
			h-0.2489014v-0.3129578h0.2966614c0.0561218,0,0.0967712,0.0142517,0.1219177,0.0427246
			c0.0251465,0.0285034,0.0377197,0.0653687,0.0377197,0.1105957c0,0.0327148-0.0056763,0.0593262-0.0169983,0.079834
			C329.3012695,404.6434326,329.2861938,404.659729,329.267334,404.6719055z"/>
	</g>
	<g>
		<path class="st0" d="M268.1820068,461.6333313v2.3635864h-0.4647217v-5.6882324h1.9570618
			c0.5965271,0,1.058197,0.1516724,1.3849792,0.4552307c0.3268127,0.3033447,0.4902039,0.7050781,0.4902039,1.2051392
			c0,0.5053406-0.1633911,0.908905-0.4902039,1.2110901c-0.3267822,0.3021851-0.7884521,0.453186-1.3849792,0.453186H268.1820068z
			 M268.1820068,461.2348633h1.4923401c0.468811,0,0.8210754-0.1190796,1.0568237-0.3575745
			c0.2357788-0.2381592,0.3536377-0.5384521,0.3536377-0.9004211c0-0.3646851-0.1171875-0.6673889-0.351593-0.9082336
			c-0.2344055-0.2410278-0.5873413-0.3614502-1.0588684-0.3614502h-1.4923401V461.2348633z"/>
		<path class="st0" d="M273.9200439,461.4262695v2.5706482h-0.4647217v-5.6843262h1.9258118
			c0.609436,0,1.0768738,0.1335144,1.4026489,0.4003601c0.3254395,0.2669983,0.4881592,0.6570129,0.4881592,1.170166
			c0,0.3021851-0.0873108,0.5722351-0.2615662,0.81073c-0.1746216,0.2381287-0.4205627,0.4120789-0.7385254,0.5214539
			c0.351593,0.088501,0.605011,0.2467957,0.7599182,0.4746094c0.1549072,0.2279358,0.2323608,0.5137939,0.2323608,0.857605
			v0.5352173c0,0.1771851,0.0210571,0.3359985,0.0625,0.4766235c0.0417786,0.1406555,0.1107483,0.2553101,0.2072144,0.343811
			v0.09375h-0.476593c-0.0964966-0.09375-0.164093-0.2252197-0.2031555-0.3945923
			c-0.0390625-0.169342-0.0587769-0.3451538-0.0587769-0.5274048v-0.5195923c0-0.3490601-0.1124268-0.6244202-0.3376465-0.826355
			c-0.2255859-0.2017822-0.5398254-0.3027039-0.9437256-0.3027039H273.9200439z M273.9200439,461.0278015h1.4026489
			c0.51297,0,0.8880005-0.1036377,1.1251221-0.3105164c0.2367554-0.2072144,0.3553162-0.4864807,0.3553162-0.8380737
			c0-0.375061-0.1178589-0.6634827-0.353302-0.8652649c-0.2357483-0.2019653-0.5921021-0.3028564-1.0686951-0.3028564h-1.4610901
			V461.0278015z"/>
		<path class="st0" d="M282.7368469,461.2426758h-2.738739v2.3557434h3.137207v0.3984985h-3.6019287v-5.6882324h3.5822144v0.3984985
			h-3.1174927v2.1369934h2.738739V461.2426758z"/>
		<path class="st0" d="M288.1973267,462.6000061c0-0.3093262-0.1158447-0.5622253-0.3475342-0.758606
			c-0.2320251-0.196167-0.6355896-0.3697815-1.2110596-0.5205994c-0.6226807-0.1562805-1.0938721-0.359436-1.4142151-0.6094666
			s-0.4806824-0.5873718-0.4806824-1.0118408c0-0.4350281,0.1790161-0.7891846,0.5370789-1.0626526
			c0.3583984-0.273468,0.8186951-0.4102173,1.3812561-0.4102173c0.5859985,0,1.0585327,0.1627502,1.4179382,0.4883728
			c0.359436,0.3256226,0.5340271,0.7227478,0.5234985,1.1915588l-0.0115356,0.0234375h-0.4297485
			c0-0.3803101-0.1348572-0.6928711-0.4045715-0.9376221c-0.2694092-0.2447815-0.6345825-0.3672485-1.0955811-0.3672485
			c-0.4558716,0-0.8118896,0.101593-1.0687256,0.3047485c-0.2564697,0.203125-0.384552,0.455719-0.384552,0.7579041
			c0,0.2865601,0.1185608,0.5253601,0.3553467,0.71698c0.2371216,0.1912537,0.6461182,0.3599243,1.2266846,0.5058289
			c0.6121521,0.15625,1.0775452,0.367218,1.3965454,0.6329041c0.3193359,0.2656555,0.4786377,0.6159058,0.4786377,1.0509033
			c0,0.453186-0.1854553,0.8139648-0.5567627,1.0821838c-0.3709717,0.2681885-0.8441772,0.4024048-1.4199829,0.4024048
			c-0.5676575,0-1.0632935-0.1425171-1.4865723-0.427887c-0.4229431-0.2850342-0.6281128-0.7011719-0.6152039-1.2481384
			l0.0078125-0.0234375h0.429718c0,0.4414673,0.1654358,0.7686157,0.4963074,0.9816284
			c0.3305359,0.2128296,0.7201843,0.3193359,1.1679382,0.3193359c0.4507751,0,0.8146057-0.0986938,1.0918274-0.2964172
			C288.0587158,463.1865234,288.1973267,462.9251099,288.1973267,462.6000061z"/>
		<path class="st0" d="M291.1228943,463.9969177h-0.468811v-5.6882324h0.468811V463.9969177z"/>
		<path class="st0" d="M293.5168152,463.9969177v-5.6882324h1.6523438c0.6954041,0,1.2698364,0.231842,1.7230225,0.6954041
			c0.4531555,0.4635315,0.6797485,1.0587158,0.6797485,1.7854004v0.7305298c0,0.7292175-0.226593,1.3244019-0.6797485,1.7854004
			c-0.453186,0.4609985-1.0276184,0.6914978-1.7230225,0.6914978H293.5168152z M293.9815369,458.7071838v4.8912354h1.1876221
			c0.562561,0,1.0256042-0.1963501,1.3887329-0.589386c0.3634949-0.3930664,0.5452271-0.8900757,0.5452271-1.4912109v-0.7417603
			c0-0.5933228-0.1824036-1.0864258-0.5469055-1.4794922c-0.3648682-0.3928833-0.8268738-0.589386-1.3870544-0.589386H293.9815369z"
			/>
		<path class="st0" d="M302.7708435,461.2426758h-2.738739v2.3557434h3.137207v0.3984985h-3.6019287v-5.6882324h3.5822449v0.3984985
			h-3.1175232v2.1369934h2.738739V461.2426758z"/>
		<path class="st0" d="M309.1651917,463.9969177H308.70047l-3.2309875-4.8912659l-0.0234375,0.0039062v4.8873596h-0.468811
			v-5.6882324h0.468811l3.2309875,4.8834534l0.0234375-0.0039062v-4.8795471h0.4647217V463.9969177z"/>
		<path class="st0" d="M315.1573181,458.7071838h-1.957428v5.2897339h-0.4687805v-5.2897339h-1.9570618v-0.3984985h4.3832703
			V458.7071838z"/>
		<path class="st0" d="M317.4537354,463.9969177h-0.4687805v-5.6882324h0.4687805V463.9969177z"/>
		<path class="st0" d="M322.9729919,462.4107666h-2.605896l-0.5859985,1.5861511h-0.484436l2.160553-5.6882324h0.4412842
			l2.144928,5.6882324h-0.484436L322.9729919,462.4107666z M320.5233459,461.9927368h2.2971191l-1.1329346-3.0785217h-0.0234375
			L320.5233459,461.9927368z"/>
		<path class="st0" d="M326.1832275,463.5984192h2.8128052v0.3984985h-3.2815857v-5.6882324h0.4687805V463.5984192z"/>
	</g>
</g>
</svg>
