<?xml version="1.0" encoding="utf-8"?>
<!-- Generator: Adobe Illustrator 17.0.0, SVG Export Plug-In . SVG Version: 6.00 Build 0)  -->
<!DOCTYPE svg PUBLIC "-//W3C//DTD SVG 1.1//EN" "http://www.w3.org/Graphics/SVG/1.1/DTD/svg11.dtd">
<svg version="1.1" id="Слой_1" xmlns="http://www.w3.org/2000/svg" xmlns:xlink="http://www.w3.org/1999/xlink" x="0px" y="0px"
	 width="50px" height="50px" viewBox="0 0 50 50" enable-background="new 0 0 50 50" xml:space="preserve">
<g>
	<g>
		<defs>
			<circle id="SVGID_1_" cx="25" cy="25" r="25"/>
		</defs>
		<clipPath id="SVGID_2_">
			<use xlink:href="#SVGID_1_"  overflow="visible"/>
		</clipPath>
		<rect id="rect2987_3_" y="0.0000153" clip-path="url(#SVGID_2_)" fill="none" width="50" height="50"/>
	</g>
	<path id="path9-6" d="M33.6269913,10.83986H16.3729458c-2.9973669,0-5.4355698,2.4377499-5.4355698,5.4355898v5.7407532v11.513876
		c0,2.9971313,2.4382029,5.4347801,5.4355698,5.4347801h17.2546558c2.9969597,0,5.434761-2.4376488,5.434761-5.4347801V22.0151882
		v-5.7415657C39.061348,13.2766962,36.624157,10.83986,33.6269951,10.83986H33.6269913z M35.1861572,14.0809565l0.6214752-0.0023279
		v0.6186466v4.1485691l-4.7511787,0.0152225l-0.0162334-4.7668104l4.145937-0.0132952V14.0809565z M20.9854012,22.0151882
		c0.9014606-1.2463264,2.3624992-2.0631733,4.0145149-2.0631733c1.6520309,0,3.1135712,0.8168468,4.0132122,2.0631733
		c0.5862579,0.8134956,0.9374828,1.8096638,0.9374828,2.8867149c0,2.729517-2.2228661,4.9504929-4.9513054,4.9504929
		c-2.7294521,0-4.9499683-2.2209778-4.9499683-4.9504948c0.0010147-1.0770512,0.3506088-2.0732174,0.9360619-2.8867149
		L20.9854012,22.0151882z M36.3213387,33.5288658c0,1.4871483-1.2086563,2.6947021-2.6944466,2.6947021H16.3729458
		c-1.4864054,0-2.6952572-1.2074547-2.6952572-2.6947021V22.0151882h4.1985073
		c-0.3627968,0.8917408-0.5664768,1.8657856-0.5664768,2.8867149c0,4.2389908,3.4493752,7.6901608,7.6902981,7.6901608
		c4.2411251,0,7.6900921-3.4512711,7.6900921-7.6901588c0-1.0210323-0.2050858-1.994976-0.5672798-2.8867149h4.1986084v11.5136795
		L36.3213387,33.5288658z"/>
</g>
</svg>
