<?xml version="1.0" encoding="utf-8"?>
<!-- Generator: Adobe Illustrator 17.0.0, SVG Export Plug-In . SVG Version: 6.00 Build 0)  -->
<!DOCTYPE svg PUBLIC "-//W3C//DTD SVG 1.1//EN" "http://www.w3.org/Graphics/SVG/1.1/DTD/svg11.dtd">
<svg version="1.1" id="Слой_1" xmlns="http://www.w3.org/2000/svg" xmlns:xlink="http://www.w3.org/1999/xlink" x="0px" y="0px"
	 width="50px" height="50px" viewBox="0 0 50 50" enable-background="new 0 0 50 50" xml:space="preserve">
<g>
	<defs>
		<circle id="SVGID_1_" cx="25" cy="25" r="25"/>
	</defs>
	<clipPath id="SVGID_2_">
		<use xlink:href="#SVGID_1_"  overflow="visible"/>
	</clipPath>
	<rect id="rect2987_6_" y="0.0000153" clip-path="url(#SVGID_2_)" fill="none" width="50" height="50"/>
</g>
<g id="layer1_2_" transform="matrix(1.418485,0,0,1.418485,-507.62367,-651.3318)">
	<path id="path5_1_" d="M386.5029602,469.9660034c-0.8105469,0.3596802-1.6813049,0.602417-2.5956116,0.711792
		c0.9327393-0.5593567,1.6495361-1.4453735,1.9871826-2.5003052c-0.873291,0.5179749-1.8408508,0.8936768-2.870636,1.0964966
		c-0.8239746-0.8786011-1.999054-1.4272766-3.2986755-1.4272766c-2.4963074,0-4.5202332,2.0238953-4.5202332,4.519928
		c0,0.354126,0.0401001,0.6988831,0.1172791,1.0301514c-3.7566528-0.1889954-7.086731-1.9879761-9.3160095-4.7229614
		c-0.3891602,0.667572-0.611969,1.4437256-0.611969,2.2725525c0,1.5681458,0.7976685,2.9513245,2.0105591,3.7618713
		c-0.7405701-0.0235901-1.4373474-0.2267151-2.0472107-0.565155l-0.0002136,0.0567322
		c0,2.1897583,1.5581055,4.0164185,3.6255493,4.4323425c-0.379303,0.1027222-0.7787476,0.1583557-1.1904907,0.1583557
		c-0.291626,0-0.5745239-0.0291443-0.8502197-0.0813293c0.5749817,1.7953186,2.2443848,3.1022644,4.2218018,3.1387634
		c-1.5465088,1.2124939-3.4954834,1.9351501-5.6136169,1.9351501c-0.3644409,0-0.7242126-0.0214844-1.0780334-0.0637512
		c2.0007019,1.282959,4.3764038,2.0313416,6.9287415,2.0313416c8.313446,0,12.8598633-6.887207,12.8598633-12.8598633
		c0-0.1964111-0.0045471-0.3911743-0.0129089-0.585144C385.1305542,471.6682739,385.8973389,470.8725586,386.5029602,469.9660034
		L386.5029602,469.9660034L386.5029602,469.9660034z"/>
</g>
</svg>
