<?xml version="1.0" encoding="utf-8"?>
<!-- Generator: Adobe Illustrator 17.0.0, SVG Export Plug-In . SVG Version: 6.00 Build 0)  -->
<!DOCTYPE svg PUBLIC "-//W3C//DTD SVG 1.1//EN" "http://www.w3.org/Graphics/SVG/1.1/DTD/svg11.dtd">
<svg version="1.1" id="Слой_1" xmlns="http://www.w3.org/2000/svg" xmlns:xlink="http://www.w3.org/1999/xlink" x="0px" y="0px"
	 width="50px" height="50px" viewBox="0 0 50 50" enable-background="new 0 0 50 50" xml:space="preserve">
<g>
	<defs>
		<circle id="SVGID_1_" cx="25" cy="24.9708061" r="25"/>
	</defs>
	<clipPath id="SVGID_2_">
		<use xlink:href="#SVGID_1_"  overflow="visible"/>
	</clipPath>
	<rect id="rect2987" y="-0.0291767" clip-path="url(#SVGID_2_)" fill="none" width="50" height="50"/>
</g>
<path id="path9" d="M24.6648083,33.8102417h1.8677521c0,0,0.5640049-0.0623131,0.8523483-0.3725815
	c0.2653961-0.2851715,0.2569084-0.8204422,0.2569084-0.8204422s-0.0368557-2.5062962,1.1266041-2.8752365
	c1.1468449-0.3636246,2.619257,2.4221497,4.1799164,3.493248c1.1802444,0.8105545,2.0771866,0.6331253,2.0771866,0.6331253
	l4.1732903-0.0581169c0,0,2.1825943-0.1347961,1.1476936-1.8513355c-0.0847015-0.1401138-0.6031837-1.269516-3.1028519-3.5897999
	c-2.6173973-2.4292393-2.266552-2.0360413,0.885746-6.2373257c1.9195213-2.5586262,2.6872559-4.1202202,2.4471436-4.7894459
	c-0.22855-0.6373234-1.6404228-0.4692249-1.6404228-0.4692249l-4.6990509,0.0293865c0,0-0.3481407-0.0475769-0.606636,0.106905
	c-0.2523346,0.1513081-0.4144592,0.5042057-0.4144592,0.5042057s-0.7443237,1.9798851-1.7358532,3.6636829
	c-2.0920143,3.5526714-2.9287777,3.7407341-3.2707615,3.5196495c-0.7956314-0.5141888-0.5966568-2.0651474-0.5966568-3.1674995
	c0-3.4431553,0.5222111-4.8789062-1.0172729-5.2503681c-0.510828-0.1233215-0.8869514-0.2051334-2.1933212-0.2182865
	c-1.6764221-0.0170708-3.0955715,0.0053215-3.8988476,0.3987007c-0.5345287,0.2624111-0.9471283,0.8451633-0.6955318,0.878933
	c0.3105392,0.04142,1.0137234,0.1894627,1.386488,0.6970272c0.4815445,0.6552353,0.4646606,2.1262493,0.4646606,2.1262493
	s0.2768688,4.0531464-0.6460953,4.5563259c-0.6334934,0.3454361-1.5022659-0.35952-3.3678741-3.5828972
	c-0.9555168-1.6508675-1.6771755-3.4763641-1.6771755-3.4763641s-0.1388073-0.3406773-0.3872261-0.5234222
	c-0.3011255-0.2213669-0.7220211-0.2913322-0.7220211-0.2913322l-4.4651947,0.0289192c0,0-0.6703415,0.0190296-0.9160566,0.3105469
	c-0.2193165,0.2594261-0.0175371,0.7954426-0.0175371,0.7954426s3.4954891,8.1785889,7.4536686,12.2999287
	c3.6302834,3.7797279,7.7514439,3.5314026,7.7514439,3.5314026l0,0H24.6648083z"/>
<circle fill="none" cx="25" cy="24.9708061" r="25"/>
</svg>
