<?xml version="1.0" encoding="UTF-8" standalone="no"?>
<svg width="32px" height="32px" viewBox="0 0 32 32" version="1.1" xmlns="http://www.w3.org/2000/svg" xmlns:xlink="http://www.w3.org/1999/xlink">
    <!-- Generator: Sketch 3.7 (28169) - http://www.bohemiancoding.com/sketch -->
    <title>add dream</title>
    <desc>Created with Sketch.</desc>
    <defs></defs>
    <g id="Page-1" stroke="none" stroke-width="1" fill="none" fill-rule="evenodd">
        <g id="add-dream" fill="#FFF">
            <path d="M20.0189145,14.6603618 L17.3396382,14.6603618 L17.3396382,11.9810855 C17.3396382,11.2409354 16.7398152,10.6414474 16,10.6414474 C15.2601848,10.6414474 14.6603618,11.2409354 14.6603618,11.9810855 L14.6603618,14.6603618 L11.9810855,14.6603618 C11.2412704,14.6603618 10.6414474,15.2598499 10.6414474,16 C10.6414474,16.7401501 11.2412704,17.3396382 11.9810855,17.3396382 L14.6603618,17.3396382 L14.6603618,20.0189145 C14.6603618,20.7590646 15.2601848,21.3585526 16,21.3585526 C16.7398152,21.3585526 17.3396382,20.7590646 17.3396382,20.0189145 L17.3396382,17.3396382 L20.0189145,17.3396382 C20.7587296,17.3396382 21.3585526,16.7401501 21.3585526,16 C21.3585526,15.2598499 20.7587296,14.6603618 20.0189145,14.6603618" id="Fill-37"></path>
        </g>
    </g>
</svg>
