<?xml version="1.0" encoding="UTF-8" standalone="no"?>
<svg width="32px" height="32px" viewBox="0 0 32 32" version="1.1" xmlns="http://www.w3.org/2000/svg" xmlns:xlink="http://www.w3.org/1999/xlink">
    <!-- Generator: Sketch 3.7 (28169) - http://www.bohemiancoding.com/sketch -->
    <title>send friend</title>
    <desc>Created with Sketch.</desc>
    <defs></defs>
    <g id="Page-1" stroke="none" stroke-width="1" fill="none" fill-rule="evenodd">
        <g id="send-friend" fill="#0C95FF">
            <g id="Group" transform="translate(7.000000, 9.500000)">
                <path d="M6.11350958,7.27236147 C5.63421015,7.27236147 5.20816621,7.11254499 4.83537776,6.89945635 C3.93003439,6.31346258 3.45073496,5.08820289 3.45073496,3.54331023 C3.45073496,2.05168973 4.62235579,0.879702194 6.11350958,0.879702194 C7.60466336,0.879702194 8.77628419,2.05168973 8.77628419,3.54331023 C8.77628419,5.08820289 8.29698476,6.31346258 7.39164139,6.89945635 C7.01885294,7.11254499 6.59280901,7.27236147 6.11350958,7.27236147 L6.11350958,7.27236147 Z" id="Shape"></path>
                <polygon id="Page-1" points="11.6295785 0.879702194 11.6295785 3.20206467 16.3927363 3.55951684 11.6295785 3.91696902 11.6295785 6.23825483 17.5835258 3.55951684"></polygon>
                <path d="M0.912473189,10.4467555 C0.912473189,8.47568557 2.35037148,7.78314749 3.94803625,7.30369804 C4.05454723,7.25042588 4.48059117,7.0906094 4.64035765,6.29152699 L5.70546749,6.50461563 C5.57323904,7.29823467 6.98359931,7.41024236 6.77057734,6.45134347 L7.83568719,6.23825483 C7.99545366,7.03733724 8.4214976,7.19715372 8.58126408,7.25042588 C10.1789288,7.78314749 11.6168271,8.42241341 11.6168271,10.3934834 C11.5635716,10.926205 11.1907832,12.5776419 6.23802242,12.5776419 C5.01314609,12.5776419 0.912473189,12.4178255 0.912473189,10.4467555 Z" id="Shape"></path>
            </g>
        </g>
    </g>
</svg>
