<?xml version="1.0" encoding="UTF-8" standalone="no"?>
<svg width="32px" height="32px" viewBox="0 0 32 32" version="1.1" xmlns="http://www.w3.org/2000/svg" xmlns:xlink="http://www.w3.org/1999/xlink">
    <!-- Generator: Sketch 3.7 (28169) - http://www.bohemiancoding.com/sketch -->
    <title>starts</title>
    <desc>Created with Sketch.</desc>
    <defs></defs>
    <g id="Page-1" stroke="none" stroke-width="1" fill="none" fill-rule="evenodd">
        <g id="starts">
            <g transform="translate(2.000000, 2.000000)" id="Stroke-1">
                <g transform="translate(0.500000, 0.500000)">
                    <path d="M27,13.5 C27,20.9557241 20.9566552,27 13.5,27 C6.04427586,27 0,20.9557241 0,13.5 C0,6.04474138 6.04427586,0 13.5,0 C20.9566552,0 27,6.04474138 27,13.5 L27,13.5 Z" stroke="#F8BA1C" stroke-width="1" stroke-linecap="round" stroke-linejoin="round"></path>
                    <path d="M24.0652174,13.5 C24.0652174,19.3351696 19.3356978,24.0652174 13.5,24.0652174 C7.66430217,24.0652174 2.93478261,19.3351696 2.93478261,13.5 C2.93478261,7.6653587 7.66430217,2.93478261 13.5,2.93478261 C19.3356978,2.93478261 24.0652174,7.6653587 24.0652174,13.5 L24.0652174,13.5 Z" id="Stroke-3" stroke="#F8BA1C" stroke-width="1" stroke-linecap="round" stroke-dasharray="1,2.890000104904175"></path>
                    <path d="M10.5802322,13.3415709 C10.6182926,13.3050329 10.6345825,13.2511392 10.6234689,13.199377 C10.5124846,12.6878445 10.4563073,12.1636758 10.4563073,11.6427043 C10.4563073,9.26529579 11.6115184,7.05687574 13.477242,5.85431749 C15.3434225,7.05657125 16.4986335,9.26514354 16.4986335,11.6427043 C16.4986335,12.1773776 16.4388024,12.7150958 16.322033,13.2412435 C16.3165523,13.2659067 16.3188359,13.2980297 16.3255345,13.3223884 C16.3332989,13.3479651 16.3473051,13.3712581 16.3666398,13.3896793 C16.5910443,13.6058627 16.8057053,13.8544736 17.0052943,14.1286612 L15.9753783,17.5238063 C15.5924901,17.1432017 15.0940503,16.8559214 14.5452185,16.7029184 C14.5315168,16.6992646 14.517815,16.6974377 14.503961,16.6974377 C14.471229,16.6974377 14.4388015,16.7076379 14.4120069,16.7281905 C14.3739465,16.756812 14.3517191,16.8017233 14.3517191,16.8496795 L14.3517191,17.087938 L12.5918035,17.087938 L12.5918035,16.80218 C12.5918035,16.7545283 12.5695762,16.7099215 12.5315158,16.680691 C12.4936076,16.6520696 12.4445857,16.6426306 12.3986087,16.6554189 C11.8499291,16.8079652 11.3514893,17.0960068 10.9686011,17.4763069 L9.93898958,14.0817707 C10.1402533,13.8072787 10.3555232,13.5580588 10.5802322,13.3415709 Z M14.4573489,18.6419262 C14.363306,18.6419262 14.2872895,18.7182829 14.2872895,18.8119856 L14.2872895,20.1620874 C14.2872895,20.2564704 14.363306,20.3321468 14.4573489,20.3321468 C14.5517319,20.3321468 14.6274083,20.2564704 14.6274083,20.1620874 L14.6274083,18.8119856 C14.6274083,18.7182829 14.5515618,18.6419262 14.4573489,18.6419262 Z M13.2920034,18.8110635 L13.2920034,21.1981877 C13.2920034,21.2918905 13.36802,21.3682471 13.4620629,21.3682471 C13.5561057,21.3682471 13.6321223,21.2918905 13.6321223,21.1981877 L13.6321223,18.8110635 C13.6321223,18.7173608 13.5561057,18.6410041 13.4620629,18.6410041 C13.36802,18.6410041 13.2920034,18.7173608 13.2920034,18.8110635 Z M12.2503894,18.8110635 L12.2503894,20.1611653 C12.2503894,20.2555483 12.326406,20.3312247 12.4204489,20.3312247 C12.5144917,20.3312247 12.5905083,20.2555483 12.5905083,20.1611653 L12.5905083,18.8110635 C12.5905083,18.7173608 12.5144917,18.6410041 12.4204489,18.6410041 C12.3262359,18.6410041 12.2503894,18.7173608 12.2503894,18.8110635 Z M13.4781555,11.8201995 C13.958174,11.8201995 14.3996753,11.5574301 14.6291038,11.134959 C14.7326282,10.9446567 14.7868263,10.7290823 14.7868263,10.5116809 C14.7868263,9.79005465 14.2000863,9.2028579 13.4781555,9.2028579 C12.7562247,9.2028579 12.1693324,9.78975017 12.1693324,10.5116809 C12.1693324,10.7529843 12.2367756,10.990177 12.3643542,11.1969214 C12.6048963,11.5872695 13.02143,11.8201995 13.4781555,11.8201995 Z" id="Fill-3" stroke="#FFBD00" stroke-width="0.2" fill="#FFBD00" fill-rule="evenodd" transform="translate(13.472142, 13.611282) rotate(-315.000000) translate(-13.472142, -13.611282) "></path>
                </g>
            </g>
        </g>
    </g>
</svg>