<?xml version="1.0" encoding="UTF-8" standalone="no"?>
<svg width="30px" height="30px" viewBox="0 0 30 30" version="1.1" xmlns="http://www.w3.org/2000/svg" xmlns:xlink="http://www.w3.org/1999/xlink">
    <!-- Generator: Sketch 3.7 (28169) - http://www.bohemiancoding.com/sketch -->
    <title>answer</title>
    <desc>Created with Sketch.</desc>
    <defs></defs>
    <g id="Page-1" stroke="none" stroke-width="1" fill="none" fill-rule="evenodd">
        <g id="answer" fill="#9D9DCE">
            <path d="M13.9173148,13.9650974 C12.372803,14.0369183 11.2053106,14.7244979 10.4581365,16.0684993 C9.90792074,17.057621 9.88257491,18.2748797 10.2263278,19.1768658 C10.2500895,19.1367306 10.2722671,19.1050449 10.2886363,19.0707187 C10.3546411,18.9323578 10.4121972,18.7897722 10.4850665,18.6556361 C10.7807679,18.1064175 11.1889414,17.6554244 11.6990263,17.2979042 C11.8838397,17.1679929 12.081854,17.0613177 12.2867328,16.9636201 C12.4762985,16.8733159 12.6748409,16.8115288 12.870215,16.7407641 C12.9620937,16.7074941 13.062949,16.6990446 13.160108,16.6821456 C13.3111269,16.6552127 13.4616178,16.6251113 13.6136928,16.6071561 C13.7082116,16.5960661 13.8048426,16.6050437 13.9146746,16.6050437 C13.9194269,16.6441227 13.9289316,16.6863703 13.9289316,16.7280898 C13.9305157,17.113071 13.9278755,17.4980522 13.9305157,17.8830333 C13.9326279,18.1740136 14.1184973,18.449151 14.404166,18.5362867 C14.6206616,18.6022985 14.8023068,18.5526576 14.9770874,18.4364768 C15.289686,18.2294636 15.5985884,18.0182256 15.9106589,17.8101562 C16.4867486,17.4272874 17.0633663,17.0454749 17.639984,16.6626061 C17.9948257,16.4276038 18.3507234,16.1936578 18.7034529,15.9549589 C18.8164531,15.8783852 18.9421262,15.81607 19.0292525,15.704642 C19.284823,15.3788074 19.2029771,14.9457696 18.8634485,14.7186888 C18.7335511,14.6320813 18.6010135,14.5486423 18.4700601,14.4630909 C18.2968635,14.3500786 18.123667,14.2370663 17.9515266,14.1219416 C17.736087,13.9782998 17.5227595,13.8314894 17.307848,13.6873195 C17.0665345,13.5251944 16.823637,13.3646536 16.5812674,13.2030565 C16.3843092,13.0715609 16.1862949,12.9411215 15.9893366,12.8090978 C15.6450557,12.5788484 15.3039431,12.3443743 14.9564939,12.1188778 C14.8324049,12.0380792 14.6914187,11.981045 14.5382877,12.0058655 C14.3038387,12.0444164 14.1126889,12.1468668 14.0081373,12.3776442 C13.9516372,12.5012184 13.9273475,12.626905 13.9289316,12.7620973 C13.9320998,13.1243704 13.9305157,13.4871716 13.9294596,13.8499728 C13.9294596,13.8890518 13.9215391,13.9281308 13.9173148,13.9650974" id="Fill-3"></path>
        </g>
    </g>
</svg>