<?xml version="1.0" encoding="UTF-8" standalone="no"?>
<svg width="108px" height="29px" viewBox="0 0 108 29" version="1.1" xmlns="http://www.w3.org/2000/svg" xmlns:xlink="http://www.w3.org/1999/xlink">
    <!-- Generator: Sketch 3.7 (28169) - http://www.bohemiancoding.com/sketch -->
    <title>appstore grey</title>
    <desc>Created with Sketch.</desc>
    <defs></defs>
    <g id="Page-1" stroke="none" stroke-width="1" fill="none" fill-rule="evenodd">
        <g id="appstore-grey" fill="#ffffff">
            <g id="icon">
                <path d="M14.1677308,4.17806316 C15.0338462,3.07894737 15.6649231,1.56684211 15.5020385,0.0421473684 C14.2081154,0.0905894737 12.6673077,0.909726316 11.7495,2.01595789 C10.9226923,2.96892632 10.2049231,4.54069474 10.4106154,6.01941053 C11.8170769,6.11410526 13.2628462,5.28456842 14.1677308,4.17806316" id="Fill-1"></path>
                <path d="M17.9143462,16.1944421 L17.8936154,16.1536632 C17.4905769,15.3285053 17.3069615,14.0386316 17.4612308,12.9937053 L17.4612308,12.9548421 L17.4623077,12.9548421 C17.6238462,11.5864211 18.4907692,10.1862526 19.1837692,9.67829474 C19.1921154,9.67227368 19.2015385,9.66515789 19.2109615,9.65749474 L19.2109615,9.65448421 L19.2128462,9.65448421 C19.3665769,9.48206316 19.8046154,9.12463158 20.1005,8.90787368 C19.0076923,7.27343158 17.2183846,6.39189474 15.3962308,6.36343158 C13.5587308,6.20661053 11.6517692,7.54574737 10.6235769,7.51509474 C9.62876923,7.54574737 8.12592308,6.33715789 6.54015385,6.41351579 L6.52453846,6.41105263 C6.489,6.41105263 6.20334615,6.4272 6.20334615,6.4272 C4.10146154,6.47974737 2.23811538,7.73896842 1.18003846,9.64818947 L1.18003846,9.65448421 L1.17357692,9.65448421 L1.17357692,9.64818947 C0.754923077,10.3362316 0.252807692,11.9400211 0.177961538,12.9548421 L0.177961538,13.0087579 C0.0767307692,13.6527368 0.174461538,15.3690105 0.288346154,16.1944421 C0.293192308,16.2089474 0.294269231,16.2237263 0.295346154,16.2354947 L0.297769231,16.2338526 C0.386615385,17.0565474 0.797461538,18.6463789 1.10573077,19.4236421 L1.10573077,19.4304842 L1.10411538,19.4304842 C1.39973077,20.2895789 2.22626923,21.9007579 2.75961538,22.7242737 L2.75961538,22.7302947 L2.76526923,22.7302947 C3.84273077,24.3028842 5.11107692,26.0700632 6.78326923,25.9939789 C8.39865385,25.9315789 8.99338462,24.9030737 10.9391154,24.9192211 C12.8837692,24.9030737 13.4219615,25.9449895 15.1261923,25.9523789 C16.8635385,25.8765684 17.9401923,24.3050737 19.0181923,22.7302947 C19.5458846,21.9188211 20.3737692,20.3574526 20.6664231,19.4304842 L20.6704615,19.4304842 C20.7033077,19.3327789 20.7525769,19.1819789 20.7873077,19.0725053 C19.6446923,18.7429895 18.3628846,17.2133684 17.9143462,16.1944421" id="Fill-3"></path>
            </g>
            <path d="M31.0683594,8.23828125 L31.8007812,8.23828125 C31.9049484,8.18945288 32.0083003,8.10888728 32.1108398,7.99658203 C32.2133794,7.88427678 32.3118485,7.72395937 32.40625,7.515625 C32.5006515,7.30729063 32.5901688,7.04524897 32.6748047,6.72949219 C32.7594405,6.4137354 32.8359372,6.02636948 32.9042969,5.56738281 C32.9726566,5.10839614 33.0312498,4.57210593 33.0800781,3.95849609 C33.1289065,3.34488625 33.1679686,2.63769932 33.1972656,1.83691406 L37.4501953,1.83691406 L37.4501953,8.23828125 L38.6220703,8.23828125 L38.6220703,10.4550781 C38.6220703,10.5429692 38.5935875,10.6129555 38.5366211,10.6650391 C38.4796547,10.7171227 38.4039718,10.7431641 38.3095703,10.7431641 L37.7333984,10.7431641 L37.7333984,9 L31.9619141,9 L31.9619141,10.4550781 C31.9619141,10.5429692 31.9326175,10.6129555 31.8740234,10.6650391 C31.8154294,10.7171227 31.7405604,10.7431641 31.6494141,10.7431641 L31.0683594,10.7431641 L31.0683594,8.23828125 Z M32.9384766,8.23828125 L36.4736328,8.23828125 L36.4736328,2.59863281 L34.1054688,2.59863281 C34.0664061,3.41894941 34.0094405,4.13752947 33.9345703,4.75439453 C33.8597001,5.37125959 33.7718104,5.90592222 33.6708984,6.35839844 C33.5699865,6.81087466 33.4576829,7.18928884 33.3339844,7.49365234 C33.2102858,7.79801584 33.0784512,8.046223 32.9384766,8.23828125 L32.9384766,8.23828125 Z M38.9785156,6.46582031 C38.9785156,6.06868291 39.0346674,5.70898599 39.1469727,5.38671875 C39.2592779,5.06445151 39.4204091,4.79020295 39.6303711,4.56396484 C39.8403331,4.33772673 40.0942368,4.16276104 40.3920898,4.0390625 C40.6899429,3.91536396 41.0260398,3.85351562 41.4003906,3.85351562 C41.7714862,3.85351562 42.1051417,3.91536396 42.4013672,4.0390625 C42.6975926,4.16276104 42.9506825,4.33772673 43.1606445,4.56396484 C43.3706065,4.79020295 43.5309239,5.06445151 43.6416016,5.38671875 C43.7522792,5.70898599 43.8076172,6.06868291 43.8076172,6.46582031 C43.8076172,6.86621294 43.7522792,7.22590986 43.6416016,7.54492188 C43.5309239,7.86393389 43.3706065,8.13736865 43.1606445,8.36523438 C42.9506825,8.5931001 42.6967788,8.767252 42.3989258,8.88769531 C42.1010727,9.00813862 41.768231,9.06835938 41.4003906,9.06835938 C41.0260398,9.06835938 40.6899429,9.00813862 40.3920898,8.88769531 C40.0942368,8.767252 39.8403331,8.5931001 39.6303711,8.36523438 C39.4204091,8.13736865 39.2592779,7.86393389 39.1469727,7.54492188 C39.0346674,7.22590986 38.9785156,6.86621294 38.9785156,6.46582031 L38.9785156,6.46582031 Z M39.8916016,6.47070312 C39.8916016,7.06966445 40.016112,7.53678218 40.2651367,7.87207031 C40.5141614,8.20735845 40.8925756,8.375 41.4003906,8.375 C41.9016952,8.375 42.2752266,8.20735845 42.5209961,7.87207031 C42.7667656,7.53678218 42.8896484,7.06966445 42.8896484,6.47070312 C42.8896484,5.86848657 42.7659518,5.39892747 42.5185547,5.06201172 C42.2711576,4.72509597 41.89844,4.55664062 41.4003906,4.55664062 C41.1464831,4.55664062 40.9251312,4.5997717 40.7363281,4.68603516 C40.5475251,4.77229861 40.3904629,4.89680908 40.2651367,5.05957031 C40.1398106,5.22233154 40.0462243,5.42333865 39.984375,5.66259766 C39.9225257,5.90185667 39.8916016,6.17122246 39.8916016,6.47070312 L39.8916016,6.47070312 Z M44.6474609,6.46582031 C44.6474609,6.08821426 44.7003575,5.73991045 44.8061523,5.42089844 C44.9119471,5.10188643 45.0649404,4.82601028 45.2651367,4.59326172 C45.465333,4.36051316 45.7135402,4.17903711 46.0097656,4.04882812 C46.3059911,3.91861914 46.6445293,3.85351562 47.0253906,3.85351562 C47.3834653,3.85351562 47.6984036,3.911295 47.9702148,4.02685547 C48.2420261,4.14241594 48.4820953,4.30436094 48.6904297,4.51269531 L48.4560547,4.83496094 C48.4300129,4.87076841 48.4039715,4.8992512 48.3779297,4.92041016 C48.3518879,4.94156912 48.3144534,4.95214844 48.265625,4.95214844 C48.2167966,4.95214844 48.1622724,4.93098979 48.1020508,4.88867188 C48.0418291,4.84635396 47.9677739,4.7999677 47.8798828,4.74951172 C47.7919917,4.69905574 47.6837572,4.65348328 47.5551758,4.61279297 C47.4265944,4.57210266 47.2695322,4.55175781 47.0839844,4.55175781 C46.8333321,4.55175781 46.6127939,4.59570269 46.4223633,4.68359375 C46.2319326,4.77148481 46.072429,4.89843667 45.9438477,5.06445312 C45.8152663,5.23046958 45.7184248,5.43229048 45.6533203,5.66992188 C45.5882158,5.90755327 45.5556641,6.1728501 45.5556641,6.46582031 C45.5556641,6.77181143 45.5906572,7.0436186 45.6606445,7.28125 C45.7306319,7.5188814 45.8299147,7.71907471 45.9584961,7.88183594 C46.0870775,8.04459717 46.2425121,8.16829385 46.4248047,8.25292969 C46.6070973,8.33756553 46.8105458,8.37988281 47.0351562,8.37988281 C47.2532563,8.37988281 47.432291,8.35384141 47.5722656,8.30175781 C47.7122403,8.24967422 47.827799,8.19189485 47.9189453,8.12841797 C48.0100916,8.06494109 48.0865882,8.00797551 48.1484375,7.95751953 C48.2102868,7.90706355 48.2721351,7.88183594 48.3339844,7.88183594 C48.4088545,7.88183594 48.4658201,7.90950493 48.5048828,7.96484375 L48.7539062,8.29199219 C48.6432286,8.42871162 48.5179043,8.54508416 48.3779297,8.64111328 C48.237955,8.73714241 48.0874031,8.81770801 47.9262695,8.8828125 C47.7651359,8.94791699 47.5958668,8.99511704 47.418457,9.02441406 C47.2410473,9.05371108 47.0611988,9.06835938 46.8789062,9.06835938 C46.5631495,9.06835938 46.2693698,9.01058 45.9975586,8.89501953 C45.7257473,8.77945906 45.4897471,8.61018992 45.2895508,8.38720703 C45.0893545,8.16422415 44.9322922,7.89160317 44.8183594,7.56933594 C44.7044265,7.2470687 44.6474609,6.87923384 44.6474609,6.46582031 L44.6474609,6.46582031 Z M49.1347656,4.61523438 L49.1347656,3.93652344 L53.9150391,3.93652344 L53.9150391,4.61523438 L51.9667969,4.61523438 L51.9667969,9 L51.078125,9 L51.078125,4.61523438 L49.1347656,4.61523438 Z M54.1591797,3.93652344 L54.9257812,3.93652344 C55.0039066,3.93652344 55.0649412,3.9552407 55.1088867,3.99267578 C55.1528323,4.03011086 55.1845702,4.07324194 55.2041016,4.12207031 L56.5566406,7.31054688 C56.5826824,7.38867227 56.60791,7.46272751 56.6323242,7.53271484 C56.6567384,7.60270217 56.6770833,7.67675742 56.6933594,7.75488281 C56.7356773,7.60514248 56.7845049,7.45540439 56.8398438,7.30566406 L58.1582031,4.12207031 C58.1777345,4.06998672 58.2119138,4.02604185 58.2607422,3.99023438 C58.3095706,3.9544269 58.363281,3.93652344 58.421875,3.93652344 L59.125,3.93652344 L56.3027344,10.4941406 C56.2734374,10.5592451 56.2360028,10.6121417 56.1904297,10.652832 C56.1448565,10.6935223 56.0748703,10.7138672 55.9804688,10.7138672 L55.3212891,10.7138672 L56.2490234,8.70703125 L54.1591797,3.93652344 Z M59.90625,9 L59.90625,3.93652344 L64.1298828,3.93652344 L64.1298828,9 L63.2314453,9 L63.2314453,4.61523438 L60.8046875,4.61523438 L60.8046875,9 L59.90625,9 Z M65.5361328,9 L65.5361328,3.93652344 L66.4345703,3.93652344 L66.4345703,5.953125 L68.8613281,5.953125 L68.8613281,3.93652344 L69.7597656,3.93652344 L69.7597656,9 L68.8613281,9 L68.8613281,6.63183594 L66.4345703,6.63183594 L66.4345703,9 L65.5361328,9 Z M70.8828125,6.46582031 C70.8828125,6.06868291 70.9389643,5.70898599 71.0512695,5.38671875 C71.1635748,5.06445151 71.324706,4.79020295 71.534668,4.56396484 C71.74463,4.33772673 71.9985337,4.16276104 72.2963867,4.0390625 C72.5942398,3.91536396 72.9303367,3.85351562 73.3046875,3.85351562 C73.6757831,3.85351562 74.0094386,3.91536396 74.3056641,4.0390625 C74.6018895,4.16276104 74.8549794,4.33772673 75.0649414,4.56396484 C75.2749034,4.79020295 75.4352208,5.06445151 75.5458984,5.38671875 C75.6565761,5.70898599 75.7119141,6.06868291 75.7119141,6.46582031 C75.7119141,6.86621294 75.6565761,7.22590986 75.5458984,7.54492188 C75.4352208,7.86393389 75.2749034,8.13736865 75.0649414,8.36523438 C74.8549794,8.5931001 74.6010757,8.767252 74.3032227,8.88769531 C74.0053696,9.00813862 73.6725279,9.06835938 73.3046875,9.06835938 C72.9303367,9.06835938 72.5942398,9.00813862 72.2963867,8.88769531 C71.9985337,8.767252 71.74463,8.5931001 71.534668,8.36523438 C71.324706,8.13736865 71.1635748,7.86393389 71.0512695,7.54492188 C70.9389643,7.22590986 70.8828125,6.86621294 70.8828125,6.46582031 L70.8828125,6.46582031 Z M71.7958984,6.47070312 C71.7958984,7.06966445 71.9204089,7.53678218 72.1694336,7.87207031 C72.4184583,8.20735845 72.7968725,8.375 73.3046875,8.375 C73.8059921,8.375 74.1795235,8.20735845 74.425293,7.87207031 C74.6710624,7.53678218 74.7939453,7.06966445 74.7939453,6.47070312 C74.7939453,5.86848657 74.6702486,5.39892747 74.4228516,5.06201172 C74.1754545,4.72509597 73.8027369,4.55664062 73.3046875,4.55664062 C73.05078,4.55664062 72.829428,4.5997717 72.640625,4.68603516 C72.451822,4.77229861 72.2947597,4.89680908 72.1694336,5.05957031 C72.0441074,5.22233154 71.9505211,5.42333865 71.8886719,5.66259766 C71.8268226,5.90185667 71.7958984,6.17122246 71.7958984,6.47070312 L71.7958984,6.47070312 Z M79.3935547,9 L79.3935547,3.93652344 L81.2490234,3.93652344 C81.561525,3.93652344 81.830077,3.9682614 82.0546875,4.03173828 C82.279298,4.09521516 82.4632154,4.18066353 82.6064453,4.28808594 C82.7496752,4.39550835 82.8546546,4.52246021 82.9213867,4.66894531 C82.9881188,4.81543042 83.0214844,4.97167886 83.0214844,5.13769531 C83.0214844,5.24837295 83.0060223,5.36393169 82.9750977,5.484375 C82.944173,5.60481831 82.8912764,5.72037705 82.8164062,5.83105469 C82.7415361,5.94173232 82.6398118,6.04101519 82.5112305,6.12890625 C82.3826491,6.21679731 82.2223317,6.28515601 82.0302734,6.33398438 C82.4143899,6.39908887 82.7122385,6.53336487 82.9238281,6.73681641 C83.1354177,6.94026794 83.2412109,7.20637856 83.2412109,7.53515625 C83.2412109,7.78255332 83.1915695,7.99658113 83.0922852,8.17724609 C82.9930008,8.35791106 82.857911,8.51009053 82.6870117,8.63378906 C82.5161124,8.7574876 82.3159191,8.84944631 82.0864258,8.90966797 C81.8569324,8.96988962 81.6103529,9 81.3466797,9 L79.3935547,9 Z M80.2480469,8.375 L81.3417969,8.375 C81.6738298,8.375 81.9366852,8.29768958 82.1303711,8.14306641 C82.324057,7.98844324 82.4208984,7.77604302 82.4208984,7.50585938 C82.4208984,7.38541606 82.4021812,7.27636768 82.3647461,7.17871094 C82.327311,7.0810542 82.2670903,6.99479204 82.184082,6.91992188 C82.1010738,6.84505171 81.9903978,6.78808613 81.8520508,6.74902344 C81.7137037,6.70996074 81.5452484,6.69042969 81.3466797,6.69042969 L80.2480469,6.69042969 L80.2480469,8.375 Z M80.2480469,6.12402344 L81.2246094,6.12402344 C81.3710945,6.12402344 81.5069981,6.10367859 81.6323242,6.06298828 C81.7576504,6.02229797 81.8650712,5.9645186 81.9545898,5.88964844 C82.0441085,5.81477827 82.1140948,5.72444714 82.1645508,5.61865234 C82.2150068,5.51285754 82.2402344,5.39648501 82.2402344,5.26953125 C82.2402344,5.17512974 82.2239585,5.08398481 82.1914062,4.99609375 C82.158854,4.90820269 82.1018884,4.83007847 82.0205078,4.76171875 C81.9391272,4.69335903 81.8341478,4.63883484 81.7055664,4.59814453 C81.576985,4.55745422 81.4166676,4.53710938 81.2246094,4.53710938 L80.2480469,4.53710938 L80.2480469,6.12402344 Z M38.542,21.562 L39.64,25 L42.034,25 L38.092,12.868 L35.266,12.868 L31.378,25 L33.664,25 L34.708,21.562 L38.542,21.562 Z M35.068,19.888 L36.004,16.9 C36.202,16.18 36.4,15.334 36.58,14.632 L36.616,14.632 C36.796,15.334 36.994,16.162 37.228,16.9 L38.182,19.888 L35.068,19.888 Z M43.546,28.564 L45.76,28.564 L45.76,24.028 L45.796,24.028 C46.246,24.73 47.164,25.198 48.262,25.198 C50.26,25.198 52.258,23.668 52.258,20.5 C52.258,17.764 50.584,16.036 48.568,16.036 C47.236,16.036 46.21,16.594 45.562,17.584 L45.526,17.584 L45.418,16.234 L43.474,16.234 C43.51,17.062 43.546,17.998 43.546,19.15 L43.546,28.564 Z M45.76,19.978 C45.76,19.798 45.796,19.6 45.832,19.42 C46.066,18.448 46.912,17.782 47.83,17.782 C49.252,17.782 50.008,19.042 50.008,20.59 C50.008,22.318 49.18,23.488 47.776,23.488 C46.822,23.488 46.048,22.84 45.814,21.94 C45.778,21.742 45.76,21.544 45.76,21.328 L45.76,19.978 Z M54.076,28.564 L56.29,28.564 L56.29,24.028 L56.326,24.028 C56.776,24.73 57.694,25.198 58.792,25.198 C60.79,25.198 62.788,23.668 62.788,20.5 C62.788,17.764 61.114,16.036 59.098,16.036 C57.766,16.036 56.74,16.594 56.092,17.584 L56.056,17.584 L55.948,16.234 L54.004,16.234 C54.04,17.062 54.076,17.998 54.076,19.15 L54.076,28.564 Z M56.29,19.978 C56.29,19.798 56.326,19.6 56.362,19.42 C56.596,18.448 57.442,17.782 58.36,17.782 C59.782,17.782 60.538,19.042 60.538,20.59 C60.538,22.318 59.71,23.488 58.306,23.488 C57.352,23.488 56.578,22.84 56.344,21.94 C56.308,21.742 56.29,21.544 56.29,21.328 L56.29,19.978 Z M67.882,24.424 C68.548,24.838 69.88,25.198 71.176,25.198 C74.29,25.198 75.766,23.506 75.766,21.544 C75.766,19.798 74.758,18.736 72.652,17.944 C71.032,17.314 70.33,16.882 70.33,15.946 C70.33,15.226 70.924,14.488 72.328,14.488 C73.462,14.488 74.308,14.83 74.758,15.064 L75.28,13.282 C74.65,12.958 73.696,12.67 72.382,12.67 C69.736,12.67 68.08,14.164 68.08,16.162 C68.08,17.908 69.358,18.97 71.374,19.69 C72.904,20.248 73.516,20.788 73.516,21.706 C73.516,22.696 72.724,23.362 71.32,23.362 C70.186,23.362 69.088,23.002 68.386,22.588 L67.882,24.424 Z M77.962,14.596 L77.962,16.234 L76.72,16.234 L76.72,17.89 L77.962,17.89 L77.962,22.012 C77.962,23.164 78.178,23.974 78.664,24.478 C79.078,24.928 79.744,25.198 80.572,25.198 C81.256,25.198 81.85,25.09 82.174,24.964 L82.138,23.29 C81.886,23.362 81.67,23.38 81.274,23.38 C80.428,23.38 80.14,22.84 80.14,21.76 L80.14,17.89 L82.246,17.89 L82.246,16.234 L80.14,16.234 L80.14,13.984 L77.962,14.596 Z M87.79,16.036 C85.144,16.036 83.254,17.8 83.254,20.68 C83.254,23.506 85.18,25.198 87.646,25.198 C89.878,25.198 92.146,23.758 92.146,20.536 C92.146,17.872 90.4,16.036 87.79,16.036 L87.79,16.036 Z M87.736,17.638 C89.248,17.638 89.86,19.222 89.86,20.59 C89.86,22.372 88.978,23.596 87.718,23.596 C86.386,23.596 85.54,22.318 85.54,20.626 C85.54,19.168 86.17,17.638 87.736,17.638 L87.736,17.638 Z M93.964,25 L96.178,25 L96.178,20.446 C96.178,20.212 96.196,19.978 96.232,19.78 C96.43,18.772 97.168,18.106 98.212,18.106 C98.482,18.106 98.68,18.124 98.878,18.16 L98.878,16.09 C98.698,16.054 98.572,16.036 98.356,16.036 C97.402,16.036 96.376,16.666 95.944,17.89 L95.89,17.89 L95.8,16.234 L93.892,16.234 C93.946,17.008 93.964,17.872 93.964,19.06 L93.964,25 Z M107.644,21.238 C107.68,21.04 107.716,20.716 107.716,20.302 C107.716,18.376 106.78,16.036 103.936,16.036 C101.128,16.036 99.652,18.322 99.652,20.752 C99.652,23.434 101.326,25.18 104.17,25.18 C105.43,25.18 106.474,24.946 107.23,24.622 L106.906,23.11 C106.222,23.344 105.502,23.506 104.476,23.506 C103.054,23.506 101.83,22.822 101.776,21.238 L107.644,21.238 Z M101.776,19.69 C101.866,18.79 102.442,17.548 103.81,17.548 C105.286,17.548 105.646,18.88 105.628,19.69 L101.776,19.69 Z" id="Доступно-в"></path>
        </g>
    </g>
</svg>
