<?xml version="1.0" encoding="UTF-8" standalone="no"?>
<svg width="32px" height="32px" viewBox="0 0 32 32" version="1.1" xmlns="http://www.w3.org/2000/svg" xmlns:xlink="http://www.w3.org/1999/xlink">
    <!-- Generator: Sketch 3.8.2 (29753) - http://www.bohemiancoding.com/sketch -->
    <title>skrepka</title>
    <desc>Created with Sketch.</desc>
    <defs></defs>
    <g id="Page-1" stroke="none" stroke-width="1" fill="none" fill-rule="evenodd">
        <g id="skrepka" fill="#ADADD6">
            <path d="M10.665,22.826 C9.953,22.826 9.283,22.548 8.78,22.045 C7.74,21.005 7.74,19.314 8.78,18.274 L17.022,10.031 C17.686,9.366 18.57,9 19.51,9 C20.45,9 21.334,9.366 21.998,10.031 C22.663,10.695 23.029,11.579 23.029,12.518 C23.029,13.458 22.663,14.342 21.998,15.006 L15.509,21.494 C15.315,21.689 14.999,21.689 14.804,21.494 C14.61,21.299 14.61,20.984 14.804,20.789 L21.293,14.301 C21.769,13.825 22.031,13.192 22.031,12.518 C22.031,11.846 21.769,11.212 21.293,10.736 C20.816,10.26 20.183,9.998 19.51,9.998 C18.837,9.998 18.204,10.26 17.727,10.736 L9.485,18.979 C8.834,19.63 8.834,20.689 9.485,21.34 C10.116,21.97 11.214,21.97 11.845,21.34 L17.38,15.804 C17.531,15.654 17.617,15.446 17.617,15.233 C17.617,15.018 17.533,14.815 17.38,14.662 C17.065,14.347 16.552,14.347 16.238,14.662 L12.458,18.443 C12.263,18.637 11.947,18.637 11.753,18.443 C11.558,18.248 11.558,17.932 11.753,17.738 L15.533,13.957 C16.236,13.254 17.381,13.254 18.085,13.957 C18.426,14.298 18.614,14.752 18.614,15.233 C18.614,15.708 18.421,16.173 18.085,16.509 L12.55,22.045 C12.047,22.548 11.377,22.826 10.665,22.826" id="Fill-1"></path>
        </g>
    </g>
</svg>