<?xml version="1.0" encoding="UTF-8" standalone="no"?>
<svg width="13px" height="14px" viewBox="0 0 13 14" version="1.1" xmlns="http://www.w3.org/2000/svg" xmlns:xlink="http://www.w3.org/1999/xlink">
    <!-- Generator: Sketch 3.8.3 (29802) - http://www.bohemiancoding.com/sketch -->
    <title>Fill 12</title>
    <desc>Created with Sketch.</desc>
    <defs></defs>
    <g id="detail_dream" stroke="none" stroke-width="1" fill="none" fill-rule="evenodd">
        <g id="EDIT-Copy" transform="translate(-587.000000, -414.000000)" fill="#ADADD6">
            <path d="M593.26011,421.214828 C592.945261,421.214828 591.80622,421.224457 591.80622,421.224457 L591.80622,423.809686 L588.119981,419.770566 L591.80622,415.726632 L591.80622,418.331118 C591.80622,418.331118 593.009771,418.316676 593.26011,418.326304 C596.659903,418.432217 599.02079,422.302839 599.036196,424.112981 C597.99729,422.779446 595.267634,421.214828 593.26011,421.214828 L593.26011,421.214828 Z M592.770505,417.368277 L592.770505,414.527895 C592.786874,414.383469 592.747878,414.239042 592.638115,414.128316 C592.447472,413.940561 592.1384,413.940561 591.947757,414.128316 L587.138846,419.404687 C587.037266,419.505785 586.993938,419.635768 587.000678,419.770566 C586.993938,419.90055 587.037266,420.035348 587.138846,420.136446 L591.921279,425.379118 C592.00986,425.489844 592.1384,425.562057 592.288122,425.562057 C592.424845,425.562057 592.546645,425.504287 592.634263,425.412817 C592.635226,425.412817 592.637152,425.412817 592.638115,425.408003 C592.747878,425.30209 592.786874,425.15285 592.770505,425.013238 C592.770505,425.013238 592.778689,422.341353 592.778689,422.17767 C595.956066,422.17767 598.829666,424.464418 599.40015,427.478112 C599.784324,426.592298 600,425.619828 600,424.594402 C600,420.603424 596.762927,417.368277 592.770505,417.368277 L592.770505,417.368277 Z" id="Fill-12"></path>
        </g>
    </g>
</svg>