<?xml version="1.0" encoding="UTF-8" standalone="no"?>
<svg width="45px" height="46px" viewBox="0 0 45 46" version="1.1" xmlns="http://www.w3.org/2000/svg" xmlns:xlink="http://www.w3.org/1999/xlink">
    <!-- Generator: Sketch 3.8.3 (29802) - http://www.bohemiancoding.com/sketch -->
    <title>Page 1</title>
    <desc>Created with Sketch.</desc>
    <defs></defs>
    <g id="Page-1" stroke="none" stroke-width="1" fill="none" fill-rule="evenodd" stroke-linecap="round">
        <g id="Пополнить" transform="translate(-327.000000, -493.000000)" stroke="#F8BA1C">
            <g id="Group-8" transform="translate(327.000000, 332.000000)">
                <g id="Group-11" transform="translate(0.000000, 159.000000)">
                    <g id="Group-2" transform="translate(0.000000, 0.978461)">
                        <g id="Page-1" transform="translate(0.720126, 2.062419)">
                            <path d="M43.6093038,21.8046519 C43.6093038,33.8468349 33.8483386,43.6093038 21.8046519,43.6093038 C9.76246898,43.6093038 0,33.8468349 0,21.8046519 C0,9.76322087 9.76246898,0 21.8046519,0 C33.8483386,0 43.6093038,9.76322087 43.6093038,21.8046519 L43.6093038,21.8046519 Z" id="Stroke-1" stroke-linejoin="round" fill="#FFFFFF"></path>
                            <path d="M38.8691621,21.8046519 C38.8691621,31.2293809 31.2302341,38.8691621 21.8046519,38.8691621 C12.3790697,38.8691621 4.74014172,31.2293809 4.74014172,21.8046519 C4.74014172,12.3807762 12.3790697,4.74014172 21.8046519,4.74014172 C31.2302341,4.74014172 38.8691621,12.3807762 38.8691621,21.8046519 L38.8691621,21.8046519 Z" id="Stroke-3" stroke-dasharray="1,2.890000104904175"></path>
                        </g>
                    </g>
                </g>
            </g>
        </g>
    </g>
</svg>