<?xml version="1.0" encoding="UTF-8" standalone="no"?>
<svg width="30px" height="30px" viewBox="0 0 30 30" version="1.1" xmlns="http://www.w3.org/2000/svg" xmlns:xlink="http://www.w3.org/1999/xlink">
    <!-- Generator: Sketch 3.7 (28169) - http://www.bohemiancoding.com/sketch -->
    <title>crown</title>
    <desc>Created with Sketch.</desc>
    <defs></defs>
    <g id="Page-1" stroke="none" stroke-width="1" fill="none" fill-rule="evenodd">
        <g id="crown" fill="#FFC845">
            <path d="M8.26346958,15.0196024 L8.27131079,14.9029433 C8.26120477,13.4335761 7.65074171,12.1367625 7,10.8698849 C7.36626047,11.1129552 10.0350098,11.7119206 8.61647744,13.2864464 C8.79352615,14.303996 9.51438395,14.5735253 10.1382775,14.5141525 C10.5272213,14.418212 10.9953562,14.1274301 10.8952336,13.5140227 C9.75158558,12.8842481 10.8076807,12.0277705 10.9723339,11.8120336 C11.1802278,11.9859782 12.4002787,12.5870296 11.4252875,13.4548287 C11.4638299,14.0832129 11.9994589,14.2594223 12.4035824,14.2625421 C13.0630549,14.1896018 13.9546747,13.7739773 13.9020071,12.7327682 C12.1704001,11.5090738 14.031062,10.3179361 14.3350799,10 C14.6389213,10.3179361 16.4995818,11.5090738 14.7681554,12.7327682 C14.7163604,13.7739773 15.607801,14.1896018 16.2665774,14.2625421 C16.6705243,14.2594223 17.2061533,14.0832129 17.2446943,13.4548287 C16.2697019,12.5870296 17.4897528,11.9859782 17.6978259,11.8120336 C17.8623012,12.0277704 18.919269,12.8842481 17.7747496,13.5140227 C17.6748062,14.1274301 18.1427606,14.418212 18.5317212,14.5141525 C19.1556006,14.5735254 19.8764727,14.303996 20.0535032,13.2864464 C18.6353111,11.7119206 21.3039006,11.1129552 21.6700001,10.8698849 C21.020296,12.1367626 20.4087797,13.4335761 20.3986737,14.9029433 L20.4066889,15.0196024 C20.3836719,15.0110785 20.3592523,15.0054988 20.3349988,15.0030745 C19.3370049,14.8951162 18.3379357,14.7970898 17.3376561,14.726752 C15.3370931,14.5851858 13.3330485,14.5851858 11.3323257,14.726752 C10.3320436,14.7970898 9.33315618,14.8951163 8.3358609,15.0030745 C8.31072842,15.0054987 8.28649188,15.0110785 8.26346958,15.0196024 L8.26346958,15.0196024 L8.26346958,15.0196024 Z M17.3284228,17.7447033 C18.3253805,17.8157541 19.3235718,17.9137818 20.3207112,18.0224167 C20.3269785,18.0231116 20.3332664,18.0234682 20.3395363,18.0231116 C20.3641299,18.0217205 20.384542,18.0131993 20.4004217,17.9983995 C20.4159404,17.9849921 20.4262282,17.965148 20.4288359,17.9418088 C20.4293709,17.9357117 20.4293709,17.9297924 20.4293709,17.9240506 L20.4288359,17.9184709 C20.4288359,17.9024589 20.4279788,17.8855745 20.4262282,17.8695458 C20.4222102,17.8352416 20.4040812,17.8019901 20.3791318,17.7762266 C20.3529667,17.750445 20.3207112,17.7330433 20.2866894,17.7288715 C19.2958354,17.6202184 18.3033944,17.5225304 17.3109717,17.451836 C15.3053557,17.3088969 13.3653223,17.3088969 11.3590089,17.451836 C10.3665861,17.5225303 9.3743243,17.6202184 8.3832937,17.7288715 C8.34927067,17.7330433 8.31701501,17.750445 8.29172402,17.7762266 C8.26607721,17.8019901 8.24777029,17.8352416 8.24444837,17.8695458 C8.24218096,17.8855746 8.24132253,17.902459 8.24132253,17.9184709 L8.24078751,17.9240506 C8.24078751,17.9297923 8.24078751,17.9357117 8.24132253,17.9418088 C8.24375225,17.965148 8.25421804,17.9849921 8.26957833,17.9983995 C8.28561656,18.0131993 8.30603374,18.0217205 8.33062474,18.0231116 C8.33671409,18.0234681 8.34318261,18.0231116 8.3492706,18.0224167 C9.34642561,17.9137818 10.3446027,17.8157541 11.3415772,17.7447033 C13.3417819,17.6031552 15.3281988,17.6031552 17.3284228,17.7447033 L17.3284228,17.7447033 L17.3284228,17.7447033 Z M17.3155092,15.2102712 C18.3082878,15.2807873 19.3015859,15.3786355 20.2929723,15.4865924 C20.3261032,15.4904265 20.357681,15.4804954 20.3813993,15.4618634 C20.4049384,15.4430532 20.4215143,15.4155428 20.4262283,15.3826459 C20.4271037,15.371325 20.4279789,15.3624459 20.428836,15.3556534 C20.4293711,15.3472909 20.4302464,15.3384119 20.430945,15.3291944 C20.4318021,15.2959242 20.4190858,15.2637234 20.3977959,15.2386561 C20.3765268,15.2137482 20.3468789,15.1961683 20.3137272,15.1923348 C19.3178033,15.0843766 18.3206664,14.9870457 17.3235296,14.9170469 C15.3269846,14.7758547 13.3433533,14.7758547 11.3466316,14.9170469 C10.3493143,14.9870457 9.35217739,15.0843766 8.35625351,15.1923348 C8.32312261,15.1961683 8.29345783,15.2137482 8.2721861,15.2386561 C8.25091437,15.2637234 8.23817995,15.2959242 8.23991233,15.3291944 C8.23991233,15.3384119 8.24078765,15.347291 8.24132267,15.3556534 C8.2421811,15.362446 8.24305505,15.371325 8.2444485,15.3826459 C8.24846776,15.4155428 8.26520203,15.4430532 8.28858144,15.4618634 C8.31229978,15.4804954 8.3438762,15.4904265 8.37700711,15.4865924 C9.36839489,15.3786354 10.3616917,15.2807873 11.3544715,15.2102712 C13.3630536,15.0680095 15.3078024,15.0680095 17.3155092,15.2102712 L17.3155092,15.2102712 L17.3155092,15.2102712 Z M17.3155092,17.2961844 C18.3082878,17.3668774 19.3015859,17.4645487 20.2929723,17.5735583 C20.3018706,17.5749493 20.3105845,17.5759825 20.3182646,17.578425 C20.2615764,17.2547474 20.1867592,16.9324609 20.1867592,16.607732 C20.1867592,16.2819504 20.2631478,15.9580953 20.3207112,15.6333663 C20.3097091,15.6344177 20.2985461,15.6344177 20.2866895,15.6326708 C19.2958354,15.5247307 18.3042697,15.4272202 17.3114912,15.3567048 C15.3132138,15.2149604 13.3569447,15.2149604 11.3584908,15.3567048 C10.3657109,15.4272202 9.37432444,15.5247307 8.38329377,15.6326708 C8.37230985,15.6344177 8.36027277,15.6344177 8.34927073,15.6333663 C8.4068342,15.9580952 8.48322279,16.2819504 8.48322279,16.607732 C8.48322279,16.9324609 8.40858476,17.2547475 8.35189661,17.578425 C8.35939752,17.5759826 8.36829195,17.5749493 8.37700711,17.5735583 C9.36839489,17.4645487 10.3616917,17.3668774 11.3544715,17.2961844 C13.3630536,17.1528875 15.3069271,17.1528875 17.3155092,17.2961844 L17.3155092,17.2961844 L17.3155092,17.2961844 Z" id="Shape"></path>
        </g>
    </g>
</svg>