<?xml version="1.0" encoding="UTF-8" standalone="no"?>
<svg width="30px" height="30px" viewBox="0 0 30 30" version="1.1" xmlns="http://www.w3.org/2000/svg" xmlns:xlink="http://www.w3.org/1999/xlink">
    <!-- Generator: Sketch 3.7 (28169) - http://www.bohemiancoding.com/sketch -->
    <title>dream</title>
    <desc>Created with Sketch.</desc>
    <defs></defs>
    <g id="Page-1" stroke="none" stroke-width="1" fill="none" fill-rule="evenodd">
        <g id="dream" fill="#839098">
            <g transform="translate(6.000000, 8.000000)" id="Page-1">
                <path d="M3.70185334,1.10261892 L4.68881006,4.53659964 L1.48072272,4.53659964 L3.70185334,1.10261892 Z M13.3704951,4.53619653 L14.4535693,1.34233646 L16.5191391,4.53619653 L13.3704951,4.53619653 Z M13.0801149,5.33798723 L16.3287002,5.33798723 L10.1866254,11.9357961 L13.0801149,5.33798723 Z M4.95230752,5.33798723 L7.82783651,11.95098 L1.67156718,5.33798723 L4.95230752,5.33798723 Z M5.32669639,4.22029073 L4.38052731,0.92820559 L8.1656092,0.92820559 L5.32669639,4.22029073 Z M9.83465818,0.92820559 L13.8510246,0.92820559 L12.7174293,4.27121727 L9.83465818,0.92820559 Z M6.03190551,4.53619653 L9.00013369,1.09415356 L11.9683619,4.53619653 L6.03190551,4.53619653 Z M12.3043385,5.33798723 L9.00152418,12.8694718 L5.72634579,5.33798723 L12.3043385,5.33798723 L12.3043385,5.33798723 Z M14.7993314,0.540802089 C14.6513452,0.311979467 14.3003229,0.12648208 14.0273004,0.12648208 L3.97296696,0.12648208 C3.69457221,0.12648208 3.34952517,0.311031756 3.20093597,0.54076772 L0.594049033,4.57131411 C0.446062838,4.80011775 0.476650486,5.14732779 0.666128869,5.35086895 L8.31949653,13.5722571 C8.69540205,13.9760617 9.30884727,13.9717986 9.68077085,13.5722887 L17.3341385,5.35125626 C17.5219333,5.14953238 17.5548076,4.80143787 17.4062183,4.57168285 L14.7993314,0.540802089 Z"></path>
            </g>
        </g>
    </g>
</svg>