<?xml version="1.0" encoding="UTF-8" standalone="no"?>
<svg width="24px" height="24px" viewBox="0 0 24 24" version="1.1" xmlns="http://www.w3.org/2000/svg" xmlns:xlink="http://www.w3.org/1999/xlink">
    <!-- Generator: Sketch 3.8.2 (29753) - http://www.bohemiancoding.com/sketch -->
    <title>edit_16</title>
    <desc>Created with Sketch.</desc>
    <defs></defs>
    <g id="#-DREAMBOOK-NEW" stroke="none" stroke-width="1" fill="none" fill-rule="evenodd">
        <g id="Чужой-VIP-Copy" transform="translate(-436.000000, -491.000000)" fill="#adadd6">
            <g id="edit_16" transform="translate(436.000000, 491.000000)">
                <g id="Layer_1">
                    <path d="M23.4,5.17647059 L22.05,6.5 L17.85,2.38235294 L19.2,1.05882353 C20.1,0.176470588 21.45,0.176470588 22.2,1.05882353 L23.4,2.23529412 C24.15,3.11764706 24.15,4.44117647 23.4,5.17647059 L23.4,5.17647059 Z M16.2,4 L20.4,8.11764706 L6.6,21.6470588 C6.6,21.6470588 6.45,21.7941176 6.3,21.7941176 L0.9,24 L0.6,24 C0.45,24 0.15,23.8529412 0,23.8529412 C-2.74780199e-15,23.5588235 -2.74780199e-15,23.2647059 0.15,22.9705882 L2.4,17.6764706 C2.4,17.5294118 2.55,17.5294118 2.55,17.3823529 L16.2,4 L16.2,4 Z M5.55,20.4705882 L3.6,18.5588235 L2.25,21.9411765 L5.55,20.4705882 L5.55,20.4705882 Z" id="Shape"></path>
                </g>
            </g>
        </g>
    </g>
</svg>
