<?xml version="1.0" encoding="UTF-8" standalone="no"?>
<svg width="56px" height="69px" viewBox="0 0 56 69" version="1.1" xmlns="http://www.w3.org/2000/svg" xmlns:xlink="http://www.w3.org/1999/xlink">
    <!-- Generator: Sketch 3.8.3 (29802) - http://www.bohemiancoding.com/sketch -->
    <title>Fill 161</title>
    <desc>Created with Sketch.</desc>
    <defs></defs>
    <g id="Page-1" stroke="none" stroke-width="1" fill="none" fill-rule="evenodd">
        <g id="404" transform="translate(-487.000000, -265.000000)" fill="#FFFFFF">
            <path d="M533.381281,303.380795 C533.043172,303.602612 532.659837,303.764129 532.224818,303.764129 L493.460688,303.764129 C492.271922,303.764129 491.307125,302.801487 491.307125,301.610567 L491.307125,284.382065 C491.307125,283.193298 492.271922,282.228502 493.460688,282.228502 L532.224818,282.228502 C532.683527,282.228502 533.084089,282.402941 533.432966,282.646293 L538.605824,292.961859 L533.381281,303.380795 L533.381281,303.380795 Z M517.149878,325.299757 C517.149878,327.67729 515.220286,329.606882 512.842753,329.606882 L508.535627,329.606882 C506.158094,329.606882 504.228502,327.67729 504.228502,325.299757 L504.228502,308.071255 L517.149878,308.071255 L517.149878,325.299757 L517.149878,325.299757 Z M504.228502,273.614251 C504.228502,271.236718 506.158094,269.307125 508.535627,269.307125 L512.842753,269.307125 C515.220286,269.307125 517.149878,271.236718 517.149878,273.614251 L517.149878,277.921376 L504.228502,277.921376 L504.228502,273.614251 L504.228502,273.614251 Z M542.383173,291.325151 L535.965556,278.528681 C535.506847,278.069972 534.897389,277.882612 534.296545,277.921376 L521.457004,277.921376 L521.457004,273.614251 C521.457004,268.857031 517.599973,265 512.842753,265 L508.535627,265 C503.778407,265 499.921376,268.857031 499.921376,273.614251 L499.921376,277.921376 L491.307125,277.921376 C488.929592,277.921376 487,279.850969 487,282.228502 L487,303.764129 C487,306.141663 488.929592,308.071255 491.307125,308.071255 L499.921376,308.071255 L499.921376,325.299757 C499.921376,330.056977 503.778407,333.914008 508.535627,333.914008 L512.842753,333.914008 C517.599973,333.914008 521.457004,330.056977 521.457004,325.299757 L521.457004,308.071255 L534.37838,308.071255 L534.37838,308.019569 C534.951228,308.032491 535.528383,307.834363 535.965556,307.399343 L542.383173,294.60072 C542.867725,293.696224 542.932332,293.401185 542.996939,292.961859 C543.027088,292.373936 542.835421,292.143505 542.383173,291.325151 L542.383173,291.325151 Z" id="Fill-161"></path>
        </g>
    </g>
</svg>