<?xml version="1.0" encoding="iso-8859-1"?>
<!-- Generator: Adobe Illustrator 19.0.0, SVG Export Plug-In . SVG Version: 6.00 Build 0)  -->
<svg version="1.1" xmlns="http://www.w3.org/2000/svg" xmlns:xlink="http://www.w3.org/1999/xlink" x="0px" y="0px"
	 viewBox="0 0 14.938 8.365" style="enable-background:new 0 0 14.938 8.365;" xml:space="preserve">
<g id="eye">
	<g id="XMLID_1_">
		<path id="XMLID_40_" style="fill:none;" d="M10.788,4.182c0-1.777-1.486-3.218-3.319-3.218s-3.32,1.441-3.32,3.218
			c0,1.777,1.486,3.217,3.32,3.217S10.788,5.959,10.788,4.182z M5.809,4.182c0-0.888,0.743-1.609,1.66-1.609
			c0.495,0-0.304,1.275,0,1.609c0.258,0.283,1.66-0.409,1.66,0c0,0.888-0.744,1.609-1.66,1.609C6.552,5.791,5.809,5.07,5.809,4.182z
			"/>
		<path id="XMLID_86_" style="fill:#9797CA;" d="M9.13,4.182c0-0.409-1.402,0.283-1.66,0c-0.304-0.334,0.495-1.609,0-1.609
			c-0.917,0-1.66,0.721-1.66,1.609s0.743,1.609,1.66,1.609C8.386,5.791,9.13,5.07,9.13,4.182z"/>
		<path id="XMLID_131_" style="fill:#9797CA;" d="M14.938,4.182C14.938,3.609,12.369,0,7.469,0C2.569,0,0,3.609,0,4.182
			c0,0.572,2.569,4.182,7.469,4.182C12.369,8.365,14.938,4.754,14.938,4.182z M4.149,4.182c0-1.777,1.486-3.218,3.32-3.218
			s3.319,1.441,3.319,3.218c0,1.777-1.486,3.217-3.319,3.217S4.149,5.959,4.149,4.182z"/>
	</g>
</g>
<g id="Layer_1">
</g>
</svg>
