<?xml version="1.0" encoding="UTF-8" standalone="no"?>
<svg width="30px" height="30px" viewBox="0 0 30 30" version="1.1" xmlns="http://www.w3.org/2000/svg" xmlns:xlink="http://www.w3.org/1999/xlink">
    <!-- Generator: Sketch 3.7 (28169) - http://www.bohemiancoding.com/sketch -->
    <title>hands</title>
    <desc>Created with Sketch.</desc>
    <defs></defs>
    <g id="Page-1" stroke="none" stroke-width="1" fill="none" fill-rule="evenodd">
        <g id="hands" stroke="#839098" stroke-width="0.3" fill="#839098">
            <g transform="translate(4.000000, 7.000000)" id="Fill-1">
                <path d="M21.290681,5.29085271 C21.1793362,5.18023096 20.9988053,5.18023096 20.8874605,5.29085271 L19.1119199,7.05502723 C19.0656496,7.10099708 19.0367581,7.16145505 19.0299053,7.22588909 C18.8885725,8.56969007 18.2812474,9.83603948 17.319494,10.7913299 L16.8976338,11.2106686 L13.8316232,8.16462165 C14.0254212,8.2099379 14.2153817,8.23308622 14.3995309,8.23308622 C14.6700258,8.23308622 14.9287338,8.18395731 15.1717625,8.08504589 C15.3175907,8.02589512 15.3874347,7.8605344 15.3276781,7.71565313 C15.2681407,7.57077186 15.1015347,7.50165369 14.9559258,7.56080447 C13.7819539,8.03798671 12.4284928,6.7680425 12.2580492,6.60121118 L11.4433849,5.79189135 C11.5444778,5.36574435 11.4570906,4.90827902 11.1971216,4.53681653 C10.9031078,4.11682426 10.4356353,3.87597277 9.91262735,3.87597277 L7.93945115,3.89002516 L7.93413336,3.89002516 C7.74521456,3.89002516 7.56769888,3.81725773 7.43343825,3.68490379 C7.29808117,3.55129712 7.22357721,3.37346353 7.22357721,3.18364729 L7.22357721,3.1540719 C7.2237965,2.77367688 7.52356666,2.46387062 7.90628346,2.44878336 L11.4997426,2.30815049 C12.7966268,2.25749651 14.0892348,2.64878487 15.1374984,3.40984725 C15.2512005,3.49236421 15.4079932,3.48027262 15.5073318,3.38152459 L17.3946558,1.50645599 C17.5060005,1.39583424 17.5060005,1.21647559 17.3946558,1.10585384 C17.283311,0.995232096 17.1029994,0.995232096 16.9915998,1.10585384 L15.2735133,2.81283839 C14.1594626,2.06882407 12.8210228,1.68968178 11.4772653,1.74218762 L7.88380618,1.88282049 C7.87541832,1.88303835 7.86708528,1.88390982 7.85875224,1.88434555 L6.49520372,0.529923577 C6.38407824,0.419247361 6.20354731,0.419247361 6.09220254,0.529923577 C5.98085778,0.640545326 5.98085778,0.819903977 6.09220254,0.930525726 L7.24797328,2.0785736 C6.8892688,2.30411996 6.65347666,2.70134518 6.65347666,3.1540719 L6.65347666,3.18364729 C6.65325737,3.525371 6.78773728,3.84617951 7.031698,4.08681314 C7.27582318,4.32766462 7.59916707,4.45892923 7.94350803,4.45658717 L9.91460096,4.44258924 C10.3688065,4.44258924 10.6197845,4.70424698 10.7289912,4.86023945 C10.8121023,4.97914012 10.8679665,5.11105833 10.8949393,5.24722493 L10.7973002,5.15000198 C10.6859554,5.03938023 10.5054245,5.03938023 10.394299,5.15000198 C10.2828994,5.26062373 10.2828994,5.43998238 10.394299,5.55060413 L16.8267481,11.9412841 C17.1044796,12.2172666 17.1044796,12.6663985 16.8267481,12.9423265 C16.5489619,13.2180911 16.097333,13.218309 15.8196015,12.9425444 L11.7224321,8.8720344 C11.6110873,8.76141265 11.4305564,8.76141265 11.3192116,8.8720344 C11.207812,8.98265614 11.207812,9.16201479 11.3192116,9.27263654 L15.7324336,13.6569833 C16.010165,13.9329658 16.010165,14.3820977 15.7324336,14.6580257 C15.5979536,14.7916324 15.4189029,14.8652713 15.2285039,14.8652713 C15.038379,14.8652713 14.8593283,14.7916324 14.7248484,14.6580257 L10.5413881,10.5017852 C10.4300434,10.391109 10.2495124,10.391109 10.1383869,10.5017852 C10.0269874,10.6121891 10.0269874,10.7915478 10.1383869,10.9021695 L13.5662817,14.3080231 C13.8437939,14.5840056 13.8436294,15.0327018 13.5660624,15.3086842 C13.2881117,15.5846122 12.8362635,15.5846122 12.5584772,15.3086842 L8.83547226,11.6098001 C8.72412749,11.4991784 8.54359656,11.4991784 8.4322518,11.6098001 C8.32085221,11.7204763 8.32085221,11.899835 8.4322518,12.0102389 L11.1939419,14.7539959 C11.4716734,15.029924 11.4716734,15.4790559 11.1939419,15.7550384 C10.9161556,16.0309664 10.4643075,16.0309664 10.186576,15.7550384 L5.19020577,10.7913299 C4.22867161,9.83603948 3.6211272,8.56969007 3.47979445,7.22588909 C3.47316091,7.16145505 3.44421456,7.10099708 3.39794426,7.05502723 L1.11255317,4.78447635 C1.00120841,4.6738546 0.820677477,4.6738546 0.709277888,4.78447635 C0.597933121,4.8950981 0.597933121,5.07445675 0.709277888,5.1850785 L2.92427672,7.38547635 C3.09817411,8.82050895 3.75730662,10.1687762 4.78714977,11.1919865 L5.20752972,11.6096367 C5.0510111,11.8249434 4.96620049,12.0825706 4.96620049,12.3534332 C4.96620049,12.6938497 5.09958396,13.0138412 5.34200964,13.2544748 C5.59194602,13.5027338 5.92044324,13.6270267 6.24872116,13.6270267 C6.28106651,13.6270267 6.31341187,13.6255016 6.34575722,13.6231595 C6.33462822,13.6908071 6.32881703,13.7597619 6.32881703,13.8295336 C6.32881703,14.1699502 6.46225531,14.4899417 6.7044617,14.7305753 C6.95439809,14.9788887 7.2828953,15.1031271 7.61139252,15.1031271 C7.67520606,15.1031271 7.73901961,15.0982251 7.80239457,15.0888569 C7.74439222,15.4752432 7.86450861,15.8830894 8.16301785,16.1799326 C8.40522424,16.4205662 8.7275265,16.5530836 9.06994866,16.5530836 C9.37536555,16.5530836 9.664226,16.4475817 9.8950841,16.2541707 C10.1272031,16.4367428 10.4086077,16.5284102 10.6902316,16.5284102 C11.0185095,16.5284102 11.3470067,16.4041718 11.5971624,16.1556405 C11.7834497,15.9707807 11.9001671,15.7422932 11.9477531,15.5031301 L12.1552568,15.7092864 C12.4053576,15.9578177 12.7336356,16.0818382 13.0621876,16.0818382 C13.3906848,16.0818382 13.719182,15.9578177 13.9691184,15.7092864 C14.1554057,15.5242087 14.2721231,15.2958846 14.3196543,15.0565581 L14.3215731,15.0586823 C14.5637795,15.299316 14.8860818,15.4318333 15.2285039,15.4318333 C15.5713647,15.4318333 15.8932283,15.299316 16.135654,15.0586823 C16.5018692,14.6948452 16.5995083,14.1640133 16.429284,13.7108508 C16.721379,13.6867766 17.0068405,13.5644445 17.2297493,13.3427653 C17.7060483,12.869777 17.7285256,12.1142702 17.2976197,11.614103 L17.7227144,11.1919865 C18.7523931,10.1687762 19.4115256,8.82050895 19.5856423,7.38547635 L21.290681,5.69145486 C21.4020806,5.58083311 21.4020806,5.40147446 21.290681,5.29085271 M5.74506563,12.8538182 C5.61058572,12.7202116 5.53646552,12.5425414 5.53646552,12.3534332 C5.53646552,12.2351316 5.56557633,12.1210785 5.6202345,12.0196071 L6.58472908,12.9778932 C6.48259451,13.0323599 6.36801521,13.0612817 6.24872116,13.0612817 C6.05859627,13.0612817 5.87976484,12.9876428 5.74506563,12.8538182 M7.10746288,14.3299731 C6.97298296,14.1963665 6.89891758,14.0186963 6.89891758,13.8295336 C6.89891758,13.6808397 6.94535235,13.5395532 7.03038226,13.420816 L8.02278155,14.4065532 C7.74477598,14.6023064 7.35635763,14.5771972 7.10746288,14.3299731 M8.56629313,15.779276 C8.3174532,15.5320519 8.29239926,15.1463192 8.48921251,14.8701733 L9.48155698,15.8558561 C9.36204365,15.9403339 9.21966927,15.9865216 9.06994866,15.9865216 C8.87982377,15.9865216 8.70077305,15.9128827 8.56629313,15.779276"></path>
            </g>
        </g>
    </g>
</svg>