<?xml version="1.0" encoding="UTF-8" standalone="no"?>
<svg width="30px" height="30px" viewBox="0 0 30 30" version="1.1" xmlns="http://www.w3.org/2000/svg" xmlns:xlink="http://www.w3.org/1999/xlink">
    <!-- Generator: Sketch 3.8.2 (29753) - http://www.bohemiancoding.com/sketch -->
    <title>fulfilled dr</title>
    <desc>Created with Sketch.</desc>
    <defs></defs>
    <g id="Page-1" stroke="none" stroke-width="1" fill="none" fill-rule="evenodd">
        <g id="fulfilled-dr" fill="#839098">
            <path d="M6.38509116,9.03036666 L7.42687882,12.6551241 L4.0405644,12.6551241 L6.38509116,9.03036666 Z M16.5908797,12.6546986 L17.7341247,9.28340185 L19.9144484,12.6546986 L16.5908797,12.6546986 Z M16.2843672,13.5010332 L19.7134295,13.5010332 L13.2301284,20.4653871 L16.2843672,13.5010332 Z M7.70501503,13.5010332 L10.7402956,20.4814145 L4.24201134,13.5010332 L7.70501503,13.5010332 Z M8.10020328,12.3212425 L7.10146925,8.8462637 L11.0968335,8.8462637 L8.10020328,12.3212425 Z M12.8586074,8.8462637 L17.0981052,8.8462637 L15.9015325,12.3749983 L12.8586074,8.8462637 Z M8.84459068,12.6546986 L11.9777204,9.021431 L15.1108502,12.6546986 L8.84459068,12.6546986 Z M15.4654922,13.5010332 L11.9791882,21.4509336 L8.52205542,13.5010332 L15.4654922,13.5010332 L15.4654922,13.5010332 Z M18.0877329,8.41976804 C17.9378008,8.18793655 17.5934188,8 17.3145076,8 L6.64093324,8 C6.3638248,8 6.01318921,8.19480244 5.86770792,8.41973321 L3.0932682,12.7093354 C2.94333609,12.9411477 2.98071038,13.2997816 3.15851508,13.4907827 L11.2895377,22.2252765 C11.6696105,22.6335577 12.2823545,22.6373056 12.6659032,22.2253085 L20.7969258,13.4911925 C20.9828927,13.291432 21.0076539,12.9346756 20.8621727,12.7097261 L18.0877329,8.41976804 Z" id="Page-1-Copy"></path>
            <path d="M27.4327258,13.5859623 L24.3077258,16.8672123 L22.8970115,15.3859623 C22.7273686,15.2109623 22.4565353,15.2109623 22.2898686,15.3859623 C22.123202,15.5609623 22.123202,15.8453373 22.2898686,16.0234623 L24.0041544,17.8234623 C24.0874877,17.9109623 24.1976067,17.9547123 24.3077258,17.9547123 C24.4178448,17.9547123 24.5279639,17.9109623 24.6112972,17.8234623 L28.0398686,14.2234623 C28.2065353,14.0453373 28.2065353,13.7609623 28.0398686,13.5859623 C27.8702258,13.4109623 27.5993925,13.4109623 27.4327258,13.5859623" id="Fill-1"></path>
        </g>
    </g>
</svg>