<?xml version="1.0" encoding="UTF-8" standalone="no"?>
<svg width="70px" height="70px" viewBox="0 0 70 70" version="1.1" xmlns="http://www.w3.org/2000/svg" xmlns:xlink="http://www.w3.org/1999/xlink">
    <!-- Generator: Sketch 3.8.3 (29802) - http://www.bohemiancoding.com/sketch -->
    <title>Fill 172</title>
    <desc>Created with Sketch.</desc>
    <defs></defs>
    <g id="Page-1" stroke="none" stroke-width="1" fill="none" fill-rule="evenodd">
        <g id="не-так" transform="translate(-476.000000, -264.000000)" fill="#FFFFFF">
            <path d="M540.214237,313.314622 L537.899479,317.356116 C537.26012,318.473827 535.846064,318.854175 534.737686,318.21015 L528.309098,314.467334 C525.046969,318.179815 520.634461,320.839921 515.626929,321.866628 L515.626929,327.002498 C515.626929,328.292883 514.593221,329.335924 513.314504,329.335924 L508.684987,329.335924 C507.406269,329.335924 506.372562,328.292883 506.372562,327.002498 L506.372562,321.866628 C501.36503,320.839921 496.952522,318.179815 493.690392,314.467334 L487.261804,318.21015 C486.153427,318.854175 484.739371,318.473827 484.100012,317.356116 L481.785253,313.314622 C481.145895,312.199245 481.526243,310.771188 482.632287,310.129496 L489.086543,306.368013 C488.318846,304.048588 487.859161,301.582157 487.859161,299.001388 C487.859161,296.420619 488.318846,293.956521 489.086543,291.634762 L482.632287,287.875613 C481.526243,287.231588 481.145895,285.805865 481.785253,284.688154 L484.100012,280.64666 C484.739371,279.531283 486.153427,279.148601 487.261804,279.792626 L493.690392,283.535441 C496.952522,279.822961 501.36503,277.162855 506.372562,276.136148 L506.372562,271.000278 C506.372562,269.709893 507.406269,268.666852 508.684987,268.666852 L513.314504,268.666852 C514.593221,268.666852 515.626929,269.709893 515.626929,271.000278 L515.626929,276.136148 C520.634461,277.162855 525.046969,279.822961 528.309098,283.535441 L534.737686,279.792626 C535.846064,279.148601 537.26012,279.531283 537.899479,280.64666 L540.214237,284.688154 C540.853596,285.805865 540.473247,287.231588 539.367203,287.875613 L532.912947,291.634762 C533.680645,293.956521 534.140329,296.420619 534.140329,299.001388 C534.140329,301.582157 533.680645,304.048588 532.912947,306.368013 L539.367203,310.129496 C540.473247,310.771188 540.853596,312.199245 540.214237,313.314622 L540.214237,313.314622 Z M538.265826,304.09759 C538.569172,302.440858 538.769846,300.749124 538.769846,299.001388 C538.769846,297.255985 538.569172,295.561918 538.265826,293.905186 L543.686375,290.750394 C545.900796,289.462343 546.656826,286.60623 545.378108,284.375475 L540.750925,276.292487 C539.474541,274.061732 536.641762,273.294035 534.429674,274.58442 L528.953124,277.769546 C526.395689,275.576126 523.48824,273.781721 520.256446,272.626675 L520.256446,268.666852 C520.256446,266.09075 518.184363,264 515.626929,264 L506.372562,264 C503.815127,264 501.743045,266.09075 501.743045,268.666852 L501.743045,272.626675 C498.51125,273.781721 495.603801,275.576126 493.046367,277.769546 L487.569816,274.58442 C485.357728,273.294035 482.524949,274.061732 481.248565,276.292487 L476.621382,284.375475 C475.342665,286.60623 476.101028,289.462343 478.313116,290.750394 L483.733664,293.905186 C483.430319,295.561918 483.229644,297.255985 483.229644,299.001388 C483.229644,300.749124 483.430319,302.440858 483.733664,304.09759 L478.313116,307.252382 C476.101028,308.540433 475.342665,311.396546 476.621382,313.627301 L481.248565,321.710288 C482.524949,323.941043 485.357728,324.708741 487.569816,323.418356 L493.046367,320.23323 C495.603801,322.42665 498.51125,324.223388 501.743045,325.3761 L501.743045,329.335924 C501.743045,331.912026 503.815127,334.002776 506.372562,334.002776 L515.626929,334.002776 C518.184363,334.002776 520.256446,331.912026 520.256446,329.335924 L520.256446,325.3761 C523.48824,324.223388 526.395689,322.42665 528.953124,320.23323 L534.429674,323.418356 C536.641762,324.708741 539.474541,323.941043 540.750925,321.710288 L545.378108,313.627301 C546.656826,311.396546 545.900796,308.540433 543.686375,307.252382 L538.265826,304.09759 Z M510.999745,306.001665 C507.165927,306.001665 504.057803,302.867875 504.057803,299.001388 C504.057803,295.137235 507.165927,292.00111 510.999745,292.00111 C514.833564,292.00111 517.941687,295.137235 517.941687,299.001388 C517.941687,302.867875 514.833564,306.001665 510.999745,306.001665 L510.999745,306.001665 Z M510.999745,287.334259 C504.608492,287.334259 499.43062,292.556466 499.43062,299.001388 C499.43062,305.44631 504.608492,310.668517 510.999745,310.668517 C517.390999,310.668517 522.571204,305.44631 522.571204,299.001388 C522.571204,292.556466 517.390999,287.334259 510.999745,287.334259 L510.999745,287.334259 Z" id="Fill-172"></path>
        </g>
    </g>
</svg>