<?xml version="1.0" encoding="UTF-8" standalone="no"?>
<svg width="11px" height="11px" viewBox="0 0 11 11" version="1.1" xmlns="http://www.w3.org/2000/svg" xmlns:xlink="http://www.w3.org/1999/xlink">
    <!-- Generator: Sketch 3.7 (28169) - http://www.bohemiancoding.com/sketch -->
    <title>gift</title>
    <desc>Created with Sketch.</desc>
    <defs></defs>
    <g id="Page-1" stroke="none" stroke-width="1" fill="none" fill-rule="evenodd">
        <g id="gift" fill="#FFF">
            <path d="M3.00348617,2.66958929 C3.37668458,3.0526087 4.40134336,3.02641934 5.08554043,2.95439859 C4.76472075,2.54846349 4.36533298,2.096697 3.8251774,1.88390843 C3.43561064,1.73004593 3.2097274,1.89372944 3.04604389,2.16544407 C2.95765479,2.3160329 2.86271835,2.51900046 3.00348617,2.66958929 L3.00348617,2.66958929 Z M8.06458033,2.66631562 C8.33302129,2.32585391 7.80923405,1.61219381 7.24943644,1.87736109 C6.71255453,2.1294337 6.32298777,2.54191615 5.98907341,2.94785125 C6.27715639,2.97076695 6.56851304,2.97731429 6.85659602,2.96421961 C7.2101524,2.95112492 7.85833911,2.92493556 8.06458033,2.66631562 L8.06458033,2.66631562 Z M5.54385426,3.26539727 C5.43582314,3.28176562 5.30160267,3.29813397 5.14774017,3.31450232 L5.14774017,5.31471482 L1,5.31471482 L1,3.70734274 C1,3.45527014 1.19969388,3.25230258 1.45504016,3.25230258 L3.34394788,3.25230258 C2.83652899,3.14754514 2.45678325,2.92820923 2.4404149,2.52882147 C2.42732021,2.05413928 2.96092846,1.29137412 3.74006197,1.46487865 C4.54211118,1.64493051 5.10518245,2.26692785 5.53403325,2.80053609 C5.96943139,2.25710684 6.58488139,1.55654141 7.42294097,1.44523662 C8.12350639,1.35684753 8.70294602,2.05741296 8.62765161,2.51900046 C8.56545187,2.92493556 8.17588512,3.14427147 7.68156091,3.25230258 L9.54755294,3.25230258 C9.79962554,3.25230258 10.0025931,3.45527014 10.0025931,3.70734274 L10.0025931,5.31471482 L5.85485293,5.31471482 L5.85485293,3.29813397 C5.75009549,3.28831296 5.65188538,3.27849195 5.56676995,3.2621236 L5.56676995,3.25884992 L5.55367527,3.25884992 L5.54712793,3.25884992 L5.55367527,3.2621236 L5.54385426,3.26539727 Z" id="Fill-1"></path>
            <path d="M9.61957368,5.63848081 L9.61957368,9.70437922 C9.61957368,9.9368098 9.43624815,10.1201353 9.20709123,10.1201353 L5.8253899,10.1201353 L5.8253899,5.63848081 L9.61957368,5.63848081 Z" id="Fill-3"></path>
            <polygon id="Fill-5" points="5.5523658 3.26376043 5.54909213 3.26048676 5.5523658 3.26048676 5.55891314 3.26048676 5.56546049 3.26376043 5.55891314 3.26376043"></polygon>
            <path d="M5.17556636,5.63848081 L5.17556636,10.1201353 L1.79386503,10.1201353 C1.56798178,10.1201353 1.38138258,9.9368098 1.38138258,9.70437922 L1.38138258,5.63848081 L5.17556636,5.63848081 Z" id="Fill-7"></path>
        </g>
    </g>
</svg>
