
<svg width="18px" height="17px" viewBox="9 8 18 17" version="1.1" xmlns="http://www.w3.org/2000/svg" xmlns:xlink="http://www.w3.org/1999/xlink">
    <!-- Generator: Sketch 3.8.3 (29802) - http://www.bohemiancoding.com/sketch -->
    <desc>Created with Sketch.</desc>
    <defs></defs>
    <g id="GIFT" stroke="none" stroke-width="1" fill="none" fill-rule="evenodd" transform="translate(9.369565, 8.608696)">
        <path d="M3.59639588,2.21799953 C4.26576589,2.90498454 6.10359759,2.85801121 7.33077594,2.72883454 C6.7553526,2.00074786 6.03900925,1.19045785 5.07018424,0.808799511 C4.37145589,0.532831174 3.96631089,0.826414512 3.67272755,1.31376285 C3.51419255,1.58385952 3.34391421,1.94790286 3.59639588,2.21799953 L3.59639588,2.21799953 Z M12.6739927,2.21212786 C13.1554694,1.60147452 12.2160027,0.321451171 11.2119477,0.797056178 C10.2489943,1.24917452 9.55026597,1.98900453 8.95135596,2.7170912 C9.46806263,2.75819287 9.99064097,2.76993621 10.5073476,2.74644954 C11.1414877,2.72296287 12.3040777,2.67598954 12.6739927,2.21212786 L12.6739927,2.21212786 Z M8.15280928,3.28664288 C7.95904428,3.31600121 7.71830594,3.34535955 7.4423376,3.37471788 L7.4423376,6.96230626 L0.00293583337,6.96230626 L0.00293583337,4.07931789 C0.00293583337,3.62719955 0.361107505,3.26315621 0.819097512,3.26315621 L4.20704923,3.26315621 C3.29694088,3.07526288 2.61582754,2.6818612 2.5864692,1.96551786 C2.56298254,1.11412618 3.52006422,-0.25397217 4.9175209,0.0572261675 C6.35607926,0.380167839 7.36600594,1.49578452 8.13519428,2.4528662 C8.91612596,1.47816952 10.0199993,0.221632836 11.523146,0.021996167 C12.7796827,-0.136538835 13.8189677,1.11999785 13.6839194,1.94790286 C13.5723577,2.67598954 12.8736293,3.06939121 11.9870077,3.26315621 L15.3338577,3.26315621 C15.7859761,3.26315621 16.1500194,3.62719955 16.1500194,4.07931789 L16.1500194,6.96230626 L8.71061762,6.96230626 L8.71061762,3.34535955 C8.52272429,3.32774455 8.34657428,3.31012955 8.19391095,3.28077121 L8.19391095,3.27489955 L8.17042428,3.27489955 L8.15868095,3.27489955 L8.17042428,3.28077121 L8.15280928,3.28664288 Z" id="Fill-1" fill="#0c95ff"></path>
        <path d="M15.4624472,7.54301411 L15.4624472,14.8356242 C15.4624472,15.2525125 15.1336339,15.5813259 14.7226172,15.5813259 L8.65718546,15.5813259 L8.65718546,7.54301411 L15.4624472,7.54301411 Z" id="Fill-3" fill="#0c95ff"></path>
        <polygon id="Fill-5" fill="#0c95ff" points="8.16748845 3.28370705 8.16161678 3.27783538 8.16748845 3.27783538 8.17923178 3.27783538 8.19097512 3.28370705 8.17923178 3.28370705"></polygon>
        <path d="M7.49224677,7.54301411 L7.49224677,15.5813259 L1.42681502,15.5813259 C1.02167001,15.5813259 0.68698501,15.2525125 0.68698501,14.8356242 L0.68698501,7.54301411 L7.49224677,7.54301411 Z" id="Fill-7" fill="#0c95ff"></path>
    </g>
</svg>
