<?xml version="1.0" encoding="UTF-8" standalone="no"?>
<svg width="23px" height="23px" viewBox="0 0 23 23" version="1.1" xmlns="http://www.w3.org/2000/svg" xmlns:xlink="http://www.w3.org/1999/xlink">
    <!-- Generator: Sketch 3.8.3 (29802) - http://www.bohemiancoding.com/sketch -->
    <title>button copy 3</title>
    <desc>Created with Sketch.</desc>
    <defs></defs>
    <g id="Page-1" stroke="none" stroke-width="1" fill="none" fill-rule="evenodd">
        <g id="История" transform="translate(-258.000000, -617.000000)" fill="#E659BC">
            <g id="button-copy-3" transform="translate(258.000000, 617.000000)">
                <path d="M20.84375,7.1875 L2.15625,7.1875 C1.7595,7.1875 1.4375,6.86621875 1.4375,6.46875 C1.4375,6.072 1.7595,5.75 2.15625,5.75 L20.84375,5.75 C21.2405,5.75 21.5625,6.072 21.5625,6.46875 C21.5625,6.86621875 21.2405,7.1875 20.84375,7.1875 L20.84375,7.1875 Z M12.21875,8.625 L20.125,8.625 L20.125,14.375 L12.21875,14.375 L12.21875,8.625 Z M20.125,20.125 C20.125,20.9185 19.481,21.5625 18.6875,21.5625 L12.21875,21.5625 L12.21875,15.8125 L20.125,15.8125 L20.125,20.125 L20.125,20.125 Z M2.875,8.625 L10.78125,8.625 L10.78125,14.375 L2.875,14.375 L2.875,8.625 Z M10.78125,21.5625 L4.3125,21.5625 C3.519,21.5625 2.875,20.9185 2.875,20.125 L2.875,15.8125 L10.78125,15.8125 L10.78125,21.5625 L10.78125,21.5625 Z M9.34375,1.4375 C10.13725,1.4375 10.78125,2.0815 10.78125,2.875 C10.78125,3.6685 10.13725,4.3125 9.34375,4.3125 C8.55025,4.3125 7.90625,3.6685 7.90625,2.875 C7.90625,2.0815 8.55025,1.4375 9.34375,1.4375 L9.34375,1.4375 Z M13.65625,1.4375 C14.44975,1.4375 15.09375,2.0815 15.09375,2.875 C15.09375,3.6685 14.44975,4.3125 13.65625,4.3125 C12.86275,4.3125 12.21875,3.6685 12.21875,2.875 C12.21875,2.0815 12.86275,1.4375 13.65625,1.4375 L13.65625,1.4375 Z M21.5625,4.3125 L16.1323438,4.3125 C16.3795938,3.8884375 16.53125,3.401125 16.53125,2.875 C16.53125,1.28728125 15.2439688,0 13.65625,0 C12.7923125,0 12.0268438,0.38884375 11.5,0.991875 C10.9731562,0.38884375 10.2076875,0 9.34375,0 C7.75603125,0 6.46875,1.28728125 6.46875,2.875 C6.46875,3.401125 6.62040625,3.8884375 6.86765625,4.3125 L1.4375,4.3125 C0.644,4.3125 0,4.9565 0,5.75 L0,7.1875 C0,7.981 0.644,8.625 1.4375,8.625 L1.4375,20.125 C1.4375,21.7127187 2.72478125,23 4.3125,23 L18.6875,23 C20.2752188,23 21.5625,21.7127187 21.5625,20.125 L21.5625,8.625 C22.356,8.625 23,7.981 23,7.1875 L23,5.75 C23,4.9565 22.356,4.3125 21.5625,4.3125 L21.5625,4.3125 Z" id="Fill-92"></path>
            </g>
        </g>
    </g>
</svg>