<?xml version="1.0" encoding="UTF-8" standalone="no"?>
<svg width="108px" height="29px" viewBox="0 0 108 29" version="1.1" xmlns="http://www.w3.org/2000/svg" xmlns:xlink="http://www.w3.org/1999/xlink">
    <!-- Generator: Sketch 3.7 (28169) - http://www.bohemiancoding.com/sketch -->
    <title>google play grey</title>
    <desc>Created with Sketch.</desc>
    <defs></defs>
    <g id="Page-1" stroke="none" stroke-width="1" fill="none" fill-rule="evenodd">
        <g id="google-play-grey" fill="#839098">
            <g id="icon" transform="translate(0.000000, 1.000000)">
                <path d="M0.780843902,26.5258847 C0.307862483,26.3988458 0,25.9305972 0,25.2060037 L0,1.28823694 C0,0.617152911 0.260671676,0.16455563 0.67388665,1.42108547e-14 L0.67388665,1.42108547e-14 L12.4611515,13.3290315 L0.780843902,26.5258847 L0.780843902,26.5258847 Z M2.40344562,26.0181872 L16.5915925,17.9997317 L13.1358677,14.0920002 L2.40344562,26.0181872 L2.40344562,26.0181872 Z M16.6892934,8.55191696 L2.69887357,0.643369531 L13.156325,12.5435982 L16.6892934,8.55191696 L16.6892934,8.55191696 Z M17.638532,9.08850549 L23.1192081,12.1866389 C24.1569085,12.7732334 24.1663983,13.7188172 23.1192081,14.3106385 L17.4998762,17.4864136 L13.8346426,13.3155007 L17.638532,9.08850549 L17.638532,9.08850549 Z" id="google-play"></path>
            </g>
            <g id="get-it-on-google-play" transform="translate(30.000000, 0.000000)">
                <g id="google-play" transform="translate(0.000000, 12.000000)">
                    <polygon id="Fill-1" points="60.6087924 1.19934783 61.4930406 1.19934783 61.4930406 12.5227174 60.6087924 12.5227174"></polygon>
                    <path d="M69.3116563,11.1776087 L69.3116563,6.62869565 C69.3116563,6.62869565 69.2496659,4.15780435 66.2400573,4.15780435 C63.2304487,4.15780435 63.1451885,6.48195652 63.1451885,6.48195652 L64.0992458,6.47882609 C64.0992458,6.47882609 64.0527064,4.89228261 66.2167876,4.89228261 C68.3808687,4.89228261 68.357599,6.72652174 68.357599,6.72652174 L68.357599,7.82393478 L66.5891026,7.82706522 C64.0644344,7.82706522 62.8194129,8.84191304 62.8194129,10.2727174 C62.8194129,11.7033261 63.5757709,12.7183696 65.4256181,12.7183696 C67.2756516,12.7183696 68.3110597,11.3488043 68.3110597,11.3488043 C68.3110597,11.9113043 68.5902959,12.5227174 68.5902959,12.5227174 L69.6141623,12.5227174 C69.6141623,12.5227174 69.3116563,11.8256087 69.3116563,11.1776087 L69.3116563,11.1776087 Z M68.357599,9.55115217 C68.357599,11.2022609 66.4612124,11.9234348 65.5071551,11.9234348 C64.5530979,11.9234348 63.7619284,11.4466304 63.7619284,10.346087 C63.7619284,9.24554348 65.0067637,8.52397826 66.5192936,8.52397826 L68.357599,8.52397826 L68.357599,9.55115217 L68.357599,9.55115217 Z" id="Fill-2"></path>
                    <path d="M70.2269928,4.35423913 L71.1577804,4.35423913 L74.043222,11.3163261 L76.851222,4.35423913 L77.9059905,4.35423913 C77.9059905,4.35423913 74.2295656,13.4438478 73.8881527,14.2998261 C73.5467399,15.1558043 72.7323007,15.9466304 71.7318902,15.9466304 C71.2817613,15.9466304 70.8320048,15.6693913 70.8320048,15.6693913 L71.0803389,14.9356957 C71.0803389,14.9356957 71.3054033,15.0661957 71.7473413,15.0661957 C72.1892792,15.0661957 72.9573652,13.9901087 72.9573652,13.9901087 L73.5158377,12.5878696 L70.2269928,4.35423913" id="Fill-3"></path>
                    <path d="M55.9643484,4.15780435 C54.3123866,4.15780435 53.2056802,5.58215217 53.174778,5.62206522 L53.174778,4.35423913 L52.290716,4.35423913 L52.290716,15.6531522 L53.174778,15.6531522 L53.174778,11.1825 C53.2053079,11.235913 54.0679618,12.7183696 55.9876181,12.7183696 C57.9422721,12.7183696 59.4548019,11.3977174 59.4548019,8.37273913 C59.4548019,5.34776087 57.6397661,4.15780435 55.9643484,4.15780435 L55.9643484,4.15780435 Z M55.8247303,11.9602174 C54.2207971,11.9602174 53.2056802,10.2328043 53.174778,10.1797826 L53.174778,6.64884783 C53.2058663,6.60502174 54.3795895,4.94119565 55.9410788,4.94119565 C57.3605298,4.94119565 58.547284,6.4575 58.547284,8.43808696 C58.547284,10.4186739 57.4536086,11.9602174 55.8247303,11.9602174 L55.8247303,11.9602174 Z" id="Fill-4"></path>
                    <path d="M10.7677232,1.99878261 C10.7677232,1.99878261 9.47597613,0.618065217 6.24670167,0.618065217 C2.31486874,0.618065217 0.0301575179,3.79173913 0.0301575179,6.79715217 C0.0301575179,9.42397826 1.75769928,12.7410652 6.05291169,12.7410652 C8.27321241,12.7410652 10.7677232,11.8825435 10.7677232,11.8825435 L10.7677232,9.84482609 C10.7677232,8.84328261 11.4136897,8.49795652 11.4136897,8.49795652 L7.97442959,8.49795652 L6.76328878,9.20523913 C7.41335084,9.03267391 9.13698329,9.0536087 9.13698329,9.0536087 L9.13698329,11.5792826 C9.13698329,11.5792826 8.37392363,12.0337826 7.21565155,12.0337826 C3.86481623,12.0337826 1.69328878,8.94423913 1.69328878,6.12391304 C1.69328878,2.68082609 4.03440573,1.22419565 6.06892124,1.22419565 C8.10362291,1.22419565 9.24979475,2.80702174 9.24979475,2.80702174 L8.8784105,3.44680435 L9.47597613,3.27854348 L10.7677232,1.99878261" id="Fill-5"></path>
                    <path d="M16.2338663,4.19028261 C13.9290501,4.19028261 12.0512792,5.9486087 12.0512792,8.51478261 C12.0512792,10.362913 13.4683103,12.5878696 15.9777136,12.5878696 C18.4874893,12.5878696 20.2463055,10.8297391 20.2463055,8.35336957 C20.2463055,5.877 18.5388687,4.19028261 16.2338663,4.19028261 L16.2338663,4.19028261 Z M16.4045728,12.0494348 C14.5026014,12.0494348 13.6047637,8.96321739 13.6047637,7.4021087 C13.6047637,5.841 14.6120621,4.72852174 15.7729403,4.72852174 C17.4289976,4.72852174 18.5727494,6.78228261 18.5727494,9.17863043 C18.5727494,10.0038913 18.3067303,12.0494348 16.4045728,12.0494348 L16.4045728,12.0494348 Z" id="Fill-6"></path>
                    <path d="M25.2021909,4.19458696 C22.8984916,4.19458696 21.0214654,5.95213043 21.0214654,8.51673913 C21.0214654,10.364087 22.4377518,12.5878696 24.9462243,12.5878696 C27.4546969,12.5878696 29.2123962,10.8305217 29.2123962,8.35552174 C29.2123962,5.88052174 27.5060764,4.19458696 25.2021909,4.19458696 L25.2021909,4.19458696 Z M25.3727112,12.0498261 C23.4718568,12.0498261 22.5742053,8.96497826 22.5742053,7.40465217 C22.5742053,5.84452174 23.5813174,4.73243478 24.7414511,4.73243478 C26.3969499,4.73243478 27.5401432,6.78541304 27.5401432,9.18019565 C27.5401432,10.0052609 27.2741241,12.0498261 25.3727112,12.0498261 L25.3727112,12.0498261 Z" id="Fill-7"></path>
                    <path d="M35.8304821,11.9926957 C35.007852,11.3959565 34.8468258,11.1105 34.8468258,10.8520435 C34.8468258,10.5937826 34.855389,10.3844348 35.4404821,9.80080435 C36.025389,9.21678261 36.5600334,8.60634783 36.5600334,7.50130435 C36.5600334,5.86134783 35.5084296,5.13058696 35.5084296,5.13058696 L36.5088401,5.09517391 L37.5092506,4.47104348 L33.6090644,4.47104348 C31.6078711,4.47104348 30.098506,6.0933913 30.098506,7.83997826 C30.098506,9.06965217 31.0905394,10.5399783 33.0492888,10.5399783 C33.2527589,10.5399783 33.3884678,10.4955652 33.3884678,10.4955652 C33.3884678,10.4955652 33.2700716,10.7675217 33.2700716,11.1285 C33.2700716,11.7168261 33.7529642,12.2425435 33.7529642,12.2425435 C33.7529642,12.2425435 29.233432,12.2470435 29.233432,15.2902174 C29.233432,17.1303261 31.2091217,17.8211739 32.8288783,17.8211739 C34.4486348,17.8211739 37.2210788,16.9035652 37.2210788,14.5592609 C37.2210788,13.4411087 36.6532983,12.5900217 35.8304821,11.9926957 L35.8304821,11.9926957 Z M33.6852029,10.0054565 C32.5025442,10.0054565 31.5611456,8.14754348 31.5611456,7.0245 C31.5611456,5.90145652 32.0952315,5.09928261 33.0364439,5.09928261 C33.9778425,5.09928261 35.0968353,6.23563043 35.0968353,8.30778261 C35.0968353,9.02954348 34.86842,10.0054565 33.6852029,10.0054565 L33.6852029,10.0054565 Z M33.5964057,17.0636087 C33.0492888,17.0636087 30.7217613,16.8364565 30.7217613,14.8981304 C30.7217613,12.96 33.4050358,12.7792174 33.7166635,12.7792174 C34.0286635,12.7792174 34.2954272,12.8263696 34.2954272,12.8263696 C35.1227112,13.5946957 36.0382339,13.9760217 36.0382339,15.1786957 C36.0382339,16.9035652 34.1429642,17.0636087 33.5964057,17.0636087 L33.5964057,17.0636087 Z" id="Fill-8"></path>
                    <path d="M37.3096897,0.650543478 L38.4253317,0.0109565217 L40.8729308,0.0109565217 C40.3025442,0.330652174 40.0890215,0.584021739 40.074315,2.07665217 C40.0594224,3.5688913 39.9853317,11.1711522 39.9853317,11.1711522 C39.9853317,11.7401087 40.4561241,11.8942826 40.8803771,11.8942826 C41.2664678,11.8942826 41.4435036,11.9731304 41.4435036,11.9731304 L40.9239379,12.353087 L37.9562148,12.353087 C37.9562148,12.353087 38.3823294,11.9527826 38.3875418,11.5534565 L38.5398186,0.654065217 L37.3096897,0.650543478" id="Fill-9"></path>
                    <path d="M48.1332601,6.37317391 C48.1332601,6.37317391 47.721852,4.15780435 45.2195227,4.15780435 C42.7173795,4.15780435 41.414463,6.22936957 41.414463,8.26473913 C41.414463,10.299913 42.5628687,12.5878696 45.4250406,12.5878696 C47.4303294,12.5878696 48.338778,11.0206957 48.338778,11.0206957 C48.338778,11.0206957 47.3789499,11.6152826 46.3161766,11.6152826 C44.7226683,11.6152826 42.8713317,9.84971739 42.8713317,7.25615217 C42.8713317,5.50858696 44.0305346,4.80619565 44.7569212,4.80619565 C46.21379,4.80619565 46.4790644,6.18417391 46.3509881,6.42736957 C46.2223532,6.67056522 42.9228974,8.08454348 42.9228974,8.08454348 L44.242568,8.01234783 L48.1332601,6.37317391" id="Fill-10"></path>
                </g>
                <path d="M0.209960938,7.13574219 L0.48828125,6.67675781 C0.514323047,6.64095034 0.547688599,6.61002617 0.588378906,6.58398438 C0.629069214,6.55794258 0.672200293,6.54492188 0.717773438,6.54492188 C0.789388379,6.54492188 0.873209155,6.5823564 0.969238281,6.65722656 C1.06526741,6.73209673 1.18896409,6.81428992 1.34033203,6.90380859 C1.49169998,6.99332727 1.67480361,7.07552046 1.88964844,7.15039062 C2.10449326,7.22526079 2.36653491,7.26269531 2.67578125,7.26269531 C2.93945444,7.26269531 3.17545469,7.23177114 3.38378906,7.16992188 C3.59212344,7.10807261 3.76708914,7.01692769 3.90869141,6.89648438 C4.05029368,6.77604106 4.15852827,6.62874436 4.23339844,6.45458984 C4.3082686,6.28043533 4.34570312,6.08593857 4.34570312,5.87109375 C4.34570312,5.68554595 4.30989619,5.51383542 4.23828125,5.35595703 C4.16666631,5.19807864 4.06250068,5.06380264 3.92578125,4.953125 C3.78906182,4.84244736 3.62223406,4.75618521 3.42529297,4.69433594 C3.22835188,4.63248667 3.00618613,4.6015625 2.75878906,4.6015625 L1.78222656,4.6015625 L1.78222656,3.80566406 L2.71972656,3.80566406 C2.92155049,3.80566406 3.11035068,3.78043645 3.28613281,3.72998047 C3.46191494,3.67952449 3.61246682,3.60628303 3.73779297,3.51025391 C3.86311912,3.41422478 3.96158818,3.29622466 4.03320312,3.15625 C4.10481807,3.01627534 4.140625,2.85514414 4.140625,2.67285156 C4.140625,2.51009033 4.10725945,2.36035225 4.04052734,2.22363281 C3.97379524,2.08691338 3.87695376,1.96972705 3.75,1.87207031 C3.62304624,1.77441357 3.4676116,1.69873074 3.28369141,1.64501953 C3.09977122,1.59130833 2.89225376,1.56445312 2.66113281,1.56445312 C2.39094917,1.56445312 2.16064548,1.59293591 1.97021484,1.64990234 C1.7797842,1.70686877 1.6194668,1.76953091 1.48925781,1.83789062 C1.35904883,1.90625034 1.25325562,1.96891248 1.171875,2.02587891 C1.09049438,2.08284534 1.02050811,2.11132812 0.961914063,2.11132812 C0.909830469,2.11132812 0.86669939,2.09912122 0.832519531,2.07470703 C0.798339673,2.05029285 0.766601709,2.01204453 0.737304688,1.95996094 L0.498046875,1.50585938 C0.768230518,1.26497275 1.08154119,1.08105532 1.43798828,0.954101562 C1.79443538,0.827147803 2.20051855,0.763671875 2.65625,0.763671875 C3.02734561,0.763671875 3.36018733,0.809244336 3.65478516,0.900390625 C3.94938298,0.991536914 4.20003152,1.11848877 4.40673828,1.28125 C4.61344504,1.44401123 4.77213486,1.6368804 4.8828125,1.85986328 C4.99349014,2.08284617 5.04882812,2.32779814 5.04882812,2.59472656 C5.04882812,2.95605649 4.96012458,3.27343613 4.78271484,3.546875 C4.6053051,3.82031387 4.35384277,4.03352788 4.02832031,4.18652344 C4.21061289,4.26464883 4.37744065,4.35823513 4.52880859,4.46728516 C4.68017654,4.57633518 4.80956978,4.70084565 4.91699219,4.84082031 C5.0244146,4.98079497 5.10742158,5.13378823 5.16601562,5.29980469 C5.22460967,5.46582114 5.25390625,5.64160063 5.25390625,5.82714844 C5.25390625,6.13965 5.19612688,6.43261582 5.08056641,6.70605469 C4.96500593,6.97949355 4.79573679,7.21712139 4.57275391,7.41894531 C4.34977102,7.62076924 4.07715005,7.77945906 3.75488281,7.89501953 C3.43261558,8.01058 3.06478071,8.06835938 2.65136719,8.06835938 C2.1370417,8.06835938 1.67480674,7.9845386 1.26464844,7.81689453 C0.854490137,7.64925046 0.502931152,7.42220195 0.209960938,7.13574219 L0.209960938,7.13574219 Z M6.00097656,6.73535156 C6.00097656,6.53678286 6.05550076,6.34472749 6.16455078,6.15917969 C6.27360081,5.97363188 6.45182168,5.80924551 6.69921875,5.66601562 C6.94661582,5.52278574 7.26806443,5.40478562 7.66357422,5.31201172 C8.05908401,5.21923782 8.54654658,5.16634121 9.12597656,5.15332031 L9.12597656,4.7578125 C9.12597656,4.36393032 9.0405282,4.06689553 8.86962891,3.86669922 C8.69872961,3.66650291 8.45052246,3.56640625 8.125,3.56640625 C7.90364473,3.56640625 7.7189135,3.59407524 7.57080078,3.64941406 C7.42268806,3.70475288 7.29410862,3.76578743 7.18505859,3.83251953 C7.07600857,3.89925164 6.98242227,3.96028618 6.90429688,4.015625 C6.82617148,4.07096382 6.74967485,4.09863281 6.67480469,4.09863281 C6.61621064,4.09863281 6.56494163,4.08317073 6.52099609,4.05224609 C6.47705056,4.02132146 6.44042983,3.98144556 6.41113281,3.93261719 L6.25,3.64941406 C6.52994932,3.37923042 6.83105308,3.17740952 7.15332031,3.04394531 C7.47558755,2.9104811 7.83365688,2.84375 8.22753906,2.84375 C8.5107436,2.84375 8.76220593,2.89095005 8.98193359,2.98535156 C9.20166125,3.07975308 9.38720627,3.20996011 9.53857422,3.37597656 C9.68994216,3.54199302 9.80387332,3.74300012 9.88037109,3.97900391 C9.95686887,4.21500769 9.99511719,4.47460796 9.99511719,4.7578125 L9.99511719,8 L9.59960938,8 C9.51171831,8 9.44498721,7.9861655 9.39941406,7.95849609 C9.35384092,7.93082668 9.3164064,7.8746749 9.28710938,7.79003906 L9.18945312,7.31640625 C9.05598892,7.43684956 8.92496809,7.54427036 8.79638672,7.63867188 C8.66780535,7.73307339 8.53434314,7.8128252 8.39599609,7.87792969 C8.25764905,7.94303418 8.10953855,7.99267561 7.95166016,8.02685547 C7.79378176,8.06103533 7.61718848,8.078125 7.421875,8.078125 C7.22656152,8.078125 7.0418303,8.0512698 6.86767578,7.99755859 C6.69352126,7.94384739 6.54296938,7.8616542 6.41601562,7.75097656 C6.28906187,7.64029893 6.18815142,7.50114016 6.11328125,7.33349609 C6.03841108,7.16585203 6.00097656,6.96647251 6.00097656,6.73535156 L6.00097656,6.73535156 Z M6.85546875,6.69628906 C6.85546875,6.82975327 6.87662739,6.94449822 6.91894531,7.04052734 C6.96126323,7.13655647 7.0198564,7.21549448 7.09472656,7.27734375 C7.16959673,7.33919302 7.25830027,7.38395168 7.36083984,7.41162109 C7.46337942,7.4392905 7.5732416,7.453125 7.69042969,7.453125 C7.84668047,7.453125 7.9899082,7.43766292 8.12011719,7.40673828 C8.25032617,7.37581365 8.37239526,7.33105498 8.48632812,7.27246094 C8.60026099,7.21386689 8.71012317,7.14225303 8.81591797,7.05761719 C8.92171277,6.97298135 9.0250646,6.87695366 9.12597656,6.76953125 L9.12597656,5.71972656 C8.71581826,5.73274746 8.36588687,5.76529922 8.07617188,5.81738281 C7.78645688,5.86946641 7.55127043,5.9370113 7.37060547,6.02001953 C7.1899405,6.10302776 7.05891968,6.20149683 6.97753906,6.31542969 C6.89615845,6.42936255 6.85546875,6.5563144 6.85546875,6.69628906 L6.85546875,6.69628906 Z M11.3427734,8 L11.3427734,2.93652344 L14.6289062,2.93652344 L14.6289062,3.61523438 L12.2412109,3.61523438 L12.2412109,8 L11.3427734,8 Z M15.46875,9.71386719 L15.46875,2.93652344 L16.0058594,2.93652344 C16.1328131,2.93652344 16.2109374,2.99837178 16.2402344,3.12207031 L16.3134766,3.71777344 C16.5315766,3.45410024 16.7805976,3.24251382 17.0605469,3.08300781 C17.3404962,2.92350181 17.661131,2.84375 18.0224609,2.84375 C18.3154312,2.84375 18.5799142,2.89990178 18.815918,3.01220703 C19.0519218,3.12451228 19.2537427,3.28971245 19.4213867,3.5078125 C19.5890308,3.72591255 19.7176102,3.99690593 19.8071289,4.32080078 C19.8966476,4.64469563 19.9414062,5.01659946 19.9414062,5.43652344 C19.9414062,5.81087427 19.890951,6.15836428 19.7900391,6.47900391 C19.6891271,6.79964353 19.5450856,7.07714727 19.3579102,7.31152344 C19.1707347,7.54589961 18.9412448,7.73063083 18.6694336,7.86572266 C18.3976223,8.00081448 18.090822,8.06835938 17.7490234,8.06835938 C17.4397771,8.06835938 17.1744803,8.01709036 16.953125,7.91455078 C16.7317697,7.81201121 16.5364592,7.6647145 16.3671875,7.47265625 L16.3671875,9.71386719 L15.46875,9.71386719 Z M16.3671875,6.77929688 C16.5266935,7.00065215 16.7041006,7.15608679 16.8994141,7.24560547 C17.0947275,7.33512415 17.3111967,7.37988281 17.5488281,7.37988281 C18.0208357,7.37988281 18.3837878,7.21142747 18.6376953,6.87451172 C18.8916028,6.53759597 19.0185547,6.05827134 19.0185547,5.43652344 C19.0185547,5.10774575 18.9900719,4.82454546 18.9331055,4.58691406 C18.876139,4.34928267 18.7923183,4.15478591 18.6816406,4.00341797 C18.570963,3.85205002 18.4350594,3.74137405 18.2739258,3.67138672 C18.1127922,3.60139939 17.9313161,3.56640625 17.7294922,3.56640625 C17.4397772,3.56640625 17.1858735,3.63313735 16.9677734,3.76660156 C16.7496734,3.90006577 16.5494801,4.08723838 16.3671875,4.328125 L16.3671875,6.77929688 Z M20.3320312,2.93652344 L21.0986328,2.93652344 C21.1767582,2.93652344 21.2377927,2.9552407 21.2817383,2.99267578 C21.3256838,3.03011086 21.3574218,3.07324194 21.3769531,3.12207031 L22.7294922,6.31054688 C22.755534,6.38867227 22.7807616,6.46272751 22.8051758,6.53271484 C22.82959,6.60270217 22.8499348,6.67675742 22.8662109,6.75488281 C22.9085289,6.60514248 22.9573565,6.45540439 23.0126953,6.30566406 L24.3310547,3.12207031 C24.350586,3.06998672 24.3847654,3.02604185 24.4335938,2.99023438 C24.4824221,2.9544269 24.5361325,2.93652344 24.5947266,2.93652344 L25.2978516,2.93652344 L22.4755859,9.49414062 C22.4462889,9.55924512 22.4088544,9.61214172 22.3632812,9.65283203 C22.3177081,9.69352234 22.2477218,9.71386719 22.1533203,9.71386719 L21.4941406,9.71386719 L22.421875,7.70703125 L20.3320312,2.93652344 Z M25.6445312,7.29199219 L25.8935547,6.96484375 C25.9326174,6.90950493 25.989583,6.88183594 26.0644531,6.88183594 C26.1230472,6.88183594 26.1873369,6.90706355 26.2573242,6.95751953 C26.3273115,7.00797551 26.4119461,7.06494109 26.5112305,7.12841797 C26.6105148,7.19189485 26.7325839,7.24967422 26.8774414,7.30175781 C27.0222989,7.35384141 27.2005198,7.37988281 27.4121094,7.37988281 C27.594402,7.37988281 27.7579745,7.35709658 27.902832,7.31152344 C28.0476895,7.26595029 28.1705724,7.20328816 28.2714844,7.12353516 C28.3723963,7.04378215 28.448893,6.94938206 28.5009766,6.84033203 C28.5530602,6.73128201 28.5791016,6.6116543 28.5791016,6.48144531 C28.5791016,6.23079302 28.4749359,6.02897212 28.2666016,5.87597656 C28.0582672,5.72298101 27.7425151,5.64648438 27.3193359,5.64648438 L26.7480469,5.64648438 L26.7480469,5.05566406 L27.3193359,5.05566406 C27.5016285,5.05566406 27.6668287,5.03613301 27.8149414,4.99707031 C27.9630541,4.95800762 28.0883784,4.90511101 28.190918,4.83837891 C28.2934575,4.7716468 28.3715818,4.6910812 28.425293,4.59667969 C28.4790042,4.50227817 28.5058594,4.39974014 28.5058594,4.2890625 C28.5058594,4.18815054 28.4830731,4.09293665 28.4375,4.00341797 C28.3919269,3.91389929 28.3235682,3.83577507 28.2324219,3.76904297 C28.1412756,3.70231086 28.0273444,3.64941426 27.890625,3.61035156 C27.7539056,3.57128887 27.594402,3.55175781 27.4121094,3.55175781 C27.2135407,3.55175781 27.0442715,3.57128887 26.9042969,3.61035156 C26.7643222,3.64941426 26.6471359,3.69254534 26.5527344,3.73974609 C26.4583329,3.78694685 26.3810224,3.83007793 26.3208008,3.86914062 C26.2605791,3.90820332 26.2093101,3.92773438 26.1669922,3.92773438 C26.1246743,3.92773438 26.0888673,3.91959644 26.0595703,3.90332031 C26.0302733,3.88704419 25.9993491,3.85286484 25.9667969,3.80078125 L25.7617188,3.45410156 C25.9505218,3.27506421 26.1808255,3.13020889 26.4526367,3.01953125 C26.724448,2.90885361 27.0524069,2.85351562 27.4365234,2.85351562 C27.7425146,2.85351562 28.0118803,2.89095015 28.2446289,2.96582031 C28.4773775,3.04069048 28.6735018,3.13997334 28.8330078,3.26367188 C28.9925138,3.38737041 29.1129553,3.52815676 29.1943359,3.68603516 C29.2757166,3.84391355 29.3164062,4.00911372 29.3164062,4.18164062 C29.3164062,4.28255259 29.3001304,4.38753201 29.2675781,4.49658203 C29.2350259,4.60563206 29.1821293,4.70979768 29.1088867,4.80908203 C29.0356442,4.90836638 28.9412441,5.00195269 28.8256836,5.08984375 C28.7101231,5.17773481 28.564454,5.24772109 28.3886719,5.29980469 C28.7109391,5.39746143 28.9648428,5.55289607 29.1503906,5.76611328 C29.3359384,5.97933049 29.4287109,6.24055835 29.4287109,6.54980469 C29.4287109,6.78418086 29.3758143,6.99495349 29.2700195,7.18212891 C29.1642247,7.36930432 29.020997,7.52880793 28.840332,7.66064453 C28.6596671,7.79248113 28.450522,7.89339158 28.2128906,7.96337891 C27.9752592,8.03336624 27.7262383,8.06835938 27.4658203,8.06835938 C27.3030591,8.06835938 27.1370451,8.05371108 26.9677734,8.02441406 C26.7985018,7.99511704 26.6341154,7.94791699 26.4746094,7.8828125 C26.3151034,7.81770801 26.1645515,7.73714241 26.0229492,7.64111328 C25.8813469,7.54508416 25.7552089,7.42871162 25.6445312,7.29199219 L25.6445312,7.29199219 Z M30.5664062,8.00488281 L30.5664062,2.94140625 L31.4648438,2.94140625 L31.4648438,6.37890625 C31.4648438,6.44075552 31.4615886,6.509928 31.4550781,6.58642578 C31.4485677,6.66292356 31.4404297,6.7386064 31.4306641,6.81347656 C31.4567059,6.74837207 31.4851886,6.68896511 31.5161133,6.63525391 C31.5470379,6.5815427 31.5771483,6.53190127 31.6064453,6.48632812 C31.6097005,6.47981768 31.6479489,6.42692107 31.7211914,6.32763672 C31.794434,6.22835237 31.8888341,6.09977292 32.0043945,5.94189453 C32.119955,5.78401614 32.2509758,5.60579526 32.3974609,5.40722656 C32.543946,5.20865786 32.6920565,5.00683696 32.8417969,4.80175781 C33.1966164,4.31998457 33.6002582,3.77311504 34.0527344,3.16113281 C34.0885418,3.10904922 34.1349281,3.05859399 34.1918945,3.00976562 C34.248861,2.96093726 34.3115231,2.93652344 34.3798828,2.93652344 L34.9121094,2.93652344 L34.9121094,8 L34.0234375,8 L34.0234375,4.55761719 C34.0234375,4.49576792 34.0266927,4.42659543 34.0332031,4.35009766 C34.0397136,4.27359988 34.0478515,4.19628945 34.0576172,4.11816406 C34.0283202,4.18326855 33.997396,4.2443031 33.9648438,4.30126953 C33.9322915,4.35823596 33.9013673,4.40950498 33.8720703,4.45507812 C33.8655599,4.46158857 33.8264978,4.51448518 33.7548828,4.61376953 C33.6832679,4.71305388 33.5888678,4.84163333 33.4716797,4.99951172 C33.3544916,5.15739011 33.222657,5.33561099 33.0761719,5.53417969 C32.9296868,5.73274839 32.7815763,5.93456929 32.6318359,6.13964844 C32.2770165,6.62142168 31.8766298,7.16829121 31.4306641,7.78027344 C31.3948566,7.83235703 31.3484703,7.88281226 31.2915039,7.93164062 C31.2345375,7.98046899 31.1735029,8.00488281 31.1083984,8.00488281 L30.5664062,8.00488281 Z M35.7519531,3.61523438 L35.7519531,2.93652344 L40.5322266,2.93652344 L40.5322266,3.61523438 L38.5839844,3.61523438 L38.5839844,8 L37.6953125,8 L37.6953125,3.61523438 L35.7519531,3.61523438 Z M40.8789062,5.36328125 C40.8789062,5.00846177 40.9334304,4.67806143 41.0424805,4.37207031 C41.1515305,4.0660792 41.3069651,3.80078237 41.5087891,3.57617188 C41.710613,3.35156138 41.9580063,3.17496809 42.2509766,3.04638672 C42.5439468,2.91780535 42.8743471,2.85351562 43.2421875,2.85351562 C43.5449234,2.85351562 43.8256823,2.90478464 44.0844727,3.00732422 C44.343263,3.10986379 44.5670563,3.2571605 44.7558594,3.44921875 C44.9446624,3.641277 45.0919591,3.87809104 45.1977539,4.15966797 C45.3035487,4.4412449 45.3564453,4.76106592 45.3564453,5.11914062 C45.3564453,5.25911528 45.341797,5.35270159 45.3125,5.39990234 C45.283203,5.4471031 45.2262374,5.47070312 45.1416016,5.47070312 L41.7578125,5.47070312 C41.7643229,5.78971514 41.807454,6.06803267 41.887207,6.30566406 C41.96696,6.54329546 42.0768222,6.74104739 42.2167969,6.89892578 C42.3567715,7.05680417 42.5235993,7.1748043 42.7172852,7.25292969 C42.910971,7.33105508 43.128254,7.37011719 43.3691406,7.37011719 C43.5937511,7.37011719 43.7866203,7.34407578 43.9477539,7.29199219 C44.1088875,7.23990859 44.2480463,7.18375681 44.3652344,7.12353516 C44.4824225,7.0633135 44.5800777,7.00797551 44.6582031,6.95751953 C44.7363285,6.90706355 44.8030596,6.88183594 44.8583984,6.88183594 C44.9332686,6.88183594 44.9902342,6.90950493 45.0292969,6.96484375 L45.2783203,7.29199219 C45.1676427,7.4254564 45.0358081,7.54101514 44.8828125,7.63867188 C44.7298169,7.73632861 44.5662444,7.81689421 44.3920898,7.88037109 C44.2179353,7.94384797 44.0372731,7.99104802 43.8500977,8.02197266 C43.6629222,8.05289729 43.478191,8.06835938 43.2958984,8.06835938 C42.9443342,8.06835938 42.621258,8.00976621 42.3266602,7.89257812 C42.0320623,7.77539004 41.7773448,7.60205193 41.5625,7.37255859 C41.3476552,7.14306526 41.1800136,6.85986497 41.0595703,6.52294922 C40.939127,6.18603347 40.8789062,5.79948135 40.8789062,5.36328125 L40.8789062,5.36328125 Z M41.7871094,4.9140625 L44.5605469,4.9140625 C44.5605469,4.70898335 44.5312503,4.52018315 44.4726562,4.34765625 C44.4140622,4.17512935 44.3286138,4.02620505 44.2163086,3.90087891 C44.1040033,3.77555276 43.967286,3.67871128 43.8061523,3.61035156 C43.6450187,3.54199185 43.4635427,3.5078125 43.2617188,3.5078125 C42.8320291,3.5078125 42.4943046,3.63232297 42.2485352,3.88134766 C42.0027657,4.13037234 41.8489586,4.47460718 41.7871094,4.9140625 L41.7871094,4.9140625 Z M49.0039062,8 L49.0039062,2.93652344 L49.9023438,2.93652344 L49.9023438,4.953125 L52.3291016,4.953125 L52.3291016,2.93652344 L53.2275391,2.93652344 L53.2275391,8 L52.3291016,8 L52.3291016,5.63183594 L49.9023438,5.63183594 L49.9023438,8 L49.0039062,8 Z M54.2578125,6.73535156 C54.2578125,6.53678286 54.3123367,6.34472749 54.4213867,6.15917969 C54.5304367,5.97363188 54.7086576,5.80924551 54.9560547,5.66601562 C55.2034518,5.52278574 55.5249004,5.40478562 55.9204102,5.31201172 C56.3159199,5.21923782 56.8033825,5.16634121 57.3828125,5.15332031 L57.3828125,4.7578125 C57.3828125,4.36393032 57.2973641,4.06689553 57.1264648,3.86669922 C56.9555656,3.66650291 56.7073584,3.56640625 56.3818359,3.56640625 C56.1604807,3.56640625 55.9757494,3.59407524 55.8276367,3.64941406 C55.679524,3.70475288 55.5509446,3.76578743 55.4418945,3.83251953 C55.3328445,3.89925164 55.2392582,3.96028618 55.1611328,4.015625 C55.0830074,4.07096382 55.0065108,4.09863281 54.9316406,4.09863281 C54.8730466,4.09863281 54.8217776,4.08317073 54.777832,4.05224609 C54.7338865,4.02132146 54.6972658,3.98144556 54.6679688,3.93261719 L54.5068359,3.64941406 C54.7867853,3.37923042 55.087889,3.17740952 55.4101562,3.04394531 C55.7324235,2.9104811 56.0904928,2.84375 56.484375,2.84375 C56.7675795,2.84375 57.0190419,2.89095005 57.2387695,2.98535156 C57.4584972,3.07975308 57.6440422,3.20996011 57.7954102,3.37597656 C57.9467781,3.54199302 58.0607093,3.74300012 58.137207,3.97900391 C58.2137048,4.21500769 58.2519531,4.47460796 58.2519531,4.7578125 L58.2519531,8 L57.8564453,8 C57.7685542,8 57.7018231,7.9861655 57.65625,7.95849609 C57.6106769,7.93082668 57.5732423,7.8746749 57.5439453,7.79003906 L57.4462891,7.31640625 C57.3128249,7.43684956 57.181804,7.54427036 57.0532227,7.63867188 C56.9246413,7.73307339 56.7911791,7.8128252 56.652832,7.87792969 C56.514485,7.94303418 56.3663745,7.99267561 56.2084961,8.02685547 C56.0506177,8.06103533 55.8740244,8.078125 55.6787109,8.078125 C55.4833975,8.078125 55.2986662,8.0512698 55.1245117,7.99755859 C54.9503572,7.94384739 54.7998053,7.8616542 54.6728516,7.75097656 C54.5458978,7.64029893 54.4449874,7.50114016 54.3701172,7.33349609 C54.295247,7.16585203 54.2578125,6.96647251 54.2578125,6.73535156 L54.2578125,6.73535156 Z M55.1123047,6.69628906 C55.1123047,6.82975327 55.1334633,6.94449822 55.1757812,7.04052734 C55.2180992,7.13655647 55.2766923,7.21549448 55.3515625,7.27734375 C55.4264327,7.33919302 55.5151362,7.38395168 55.6176758,7.41162109 C55.7202154,7.4392905 55.8300775,7.453125 55.9472656,7.453125 C56.1035164,7.453125 56.2467441,7.43766292 56.3769531,7.40673828 C56.5071621,7.37581365 56.6292312,7.33105498 56.7431641,7.27246094 C56.8570969,7.21386689 56.9669591,7.14225303 57.0727539,7.05761719 C57.1785487,6.97298135 57.2819005,6.87695366 57.3828125,6.76953125 L57.3828125,5.71972656 C56.9726542,5.73274746 56.6227228,5.76529922 56.3330078,5.81738281 C56.0432928,5.86946641 55.8081064,5.9370113 55.6274414,6.02001953 C55.4467764,6.10302776 55.3157556,6.20149683 55.234375,6.31542969 C55.1529944,6.42936255 55.1123047,6.5563144 55.1123047,6.69628906 L55.1123047,6.69628906 Z" id="Загрузите-на"></path>
            </g>
        </g>
    </g>
</svg>