<?xml version="1.0" encoding="UTF-8" standalone="no"?>
<svg width="22px" height="17px" viewBox="0 0 22 17" version="1.1" xmlns="http://www.w3.org/2000/svg" xmlns:xlink="http://www.w3.org/1999/xlink">
    <!-- Generator: Sketch 3.8.3 (29802) - http://www.bohemiancoding.com/sketch -->
    <title>Fill 1</title>
    <desc>Created with Sketch.</desc>
    <defs></defs>
    <g id="Page-1" stroke="none" stroke-width="1" fill="none" fill-rule="evenodd">
        <g id="Чужие-Сбывшиеся" transform="translate(-830.000000, -449.000000)" stroke="#ffffff" stroke-width="0.3" fill="#ffffff">
            <g id="Group-14" transform="translate(822.000000, 437.000000)">
                <path d="M28.9137675,17.1426813 C28.8067076,17.0356214 28.633124,17.0356214 28.5260641,17.1426813 L26.8188514,18.8500521 C26.7743617,18.8945418 26.746582,18.9530531 26.7399929,19.0154125 C26.6040991,20.3159452 26.0201456,21.5415201 25.0954032,22.4660516 L24.6897774,22.8718882 L21.7417558,19.9239193 C21.9280959,19.9677765 22.1107461,19.9901794 22.2878087,19.9901794 C22.5478942,19.9901794 22.7966463,19.9426324 23.0303226,19.8469058 C23.1705389,19.7896596 23.2376952,19.6296232 23.1802381,19.4894069 C23.1229919,19.3491906 22.9627974,19.2822979 22.8227919,19.3395441 C21.6939979,19.8013618 20.3926218,18.5723079 20.2287374,18.4108482 L19.4454237,17.6275873 C19.5426263,17.2151615 19.458602,16.7724259 19.2086374,16.4129239 C18.9259381,16.0064548 18.4764552,15.7733583 17.9735741,15.7733583 L16.0763315,15.7869582 L16.0712183,15.7869582 C15.8895697,15.7869582 15.7188853,15.7165338 15.5897914,15.5884415 C15.4596432,15.4591367 15.3880064,15.2870291 15.3880064,15.1033246 L15.3880064,15.0747015 C15.3882173,14.7065546 15.6764514,14.4067237 16.0444402,14.3921222 L19.4996126,14.2560175 C20.7465889,14.2069945 21.9894537,14.585684 22.997377,15.3222413 C23.1067036,15.4021014 23.2574625,15.3903991 23.3529783,15.2948306 L25.1676726,13.4801363 C25.2747325,13.3730764 25.2747325,13.1994928 25.1676726,13.0924329 C25.0606127,12.985373 24.8872399,12.985373 24.7801273,13.0924329 L23.1281578,14.7444552 C22.0569789,14.024397 20.7700462,13.6574625 19.4780003,13.7082778 L16.0228279,13.8443825 C16.0147628,13.8445933 16.0067504,13.8454367 15.9987381,13.8458584 L14.6876628,12.5350467 C14.5808138,12.4279341 14.4072302,12.4279341 14.3001703,12.5350467 C14.1931104,12.6421066 14.1931104,12.8156902 14.3001703,12.9227501 L15.4114637,14.0338326 C15.0665631,14.2521167 14.839845,14.6365519 14.839845,15.0747015 L14.839845,15.1033246 C14.8396341,15.4340454 14.9689389,15.7445244 15.2035113,15.9774099 C15.4382418,16.2105064 15.7491425,16.3375445 16.0802322,16.3352778 L17.9754718,16.3217306 C18.4121982,16.3217306 18.6535178,16.5749634 18.7585219,16.7259331 C18.8384347,16.8410054 18.8921491,16.968676 18.9180839,17.1004583 L18.8242022,17.0063657 C18.7171423,16.8993059 18.5435587,16.8993059 18.4367097,17.0063657 C18.3295971,17.1134256 18.3295971,17.2870092 18.4367097,17.3940691 L24.6216196,23.5789791 C24.8886632,23.8460753 24.8886632,24.2807459 24.6216196,24.5477895 C24.3545234,24.8146749 23.9202745,24.8148857 23.6532309,24.5480003 L19.7137324,20.6085545 C19.6066725,20.5014946 19.4330889,20.5014946 19.326029,20.6085545 C19.2189164,20.7156144 19.2189164,20.8891979 19.326029,20.9962578 L23.5694174,25.2394354 C23.836461,25.5065317 23.836461,25.9412022 23.5694174,26.2082458 C23.4401127,26.3375505 23.2679524,26.4088184 23.0848805,26.4088184 C22.9020721,26.4088184 22.7299118,26.3375505 22.6006071,26.2082458 L18.5781384,22.1858298 C18.4710785,22.0787172 18.2974949,22.0787172 18.1906459,22.1858298 C18.0835333,22.2926789 18.0835333,22.4662625 18.1906459,22.5733224 L21.4866253,25.8695127 C21.753458,26.136609 21.7532999,26.5708578 21.4864145,26.8379541 C21.2191601,27.1049976 20.7847004,27.1049976 20.5176041,26.8379541 L16.9378711,23.2581684 C16.8308112,23.1511085 16.6572276,23.1511085 16.5501677,23.2581684 C16.4430551,23.365281 16.4430551,23.5388646 16.5501677,23.6457136 L19.20558,26.3011259 C19.4726236,26.5681695 19.4726236,27.00284 19.20558,27.2699363 C18.9384838,27.5369799 18.5040241,27.5369799 18.2369805,27.2699363 L13.432885,22.4660516 C12.5083534,21.5415201 11.9241891,20.3159452 11.7882952,19.0154125 C11.7819169,18.9530531 11.7540845,18.8945418 11.7095948,18.8500521 L9.5121522,16.6526095 C9.4050923,16.5455496 9.23150872,16.5455496 9.12439611,16.6526095 C9.01733621,16.7596694 9.01733621,16.933253 9.12439611,17.0403129 L11.2541554,19.1698613 C11.4213607,20.5586881 12.0551279,21.8635432 13.0453397,22.8538077 L13.4495422,23.2580102 C13.2990469,23.4663843 13.2175001,23.7157163 13.2175001,23.9778576 C13.2175001,24.3073132 13.3457505,24.6170015 13.578847,24.8498871 C13.8191651,25.0901525 14.1350208,25.2104433 14.4506656,25.2104433 C14.4817662,25.2104433 14.5128669,25.2089674 14.5439675,25.2067007 C14.5332667,25.2721701 14.5276792,25.3389047 14.5276792,25.4064299 C14.5276792,25.7358855 14.6559824,26.0455738 14.888868,26.2784594 C15.1291861,26.5187775 15.4450418,26.6390156 15.7608975,26.6390156 C15.8222553,26.6390156 15.8836131,26.6342715 15.9445492,26.6252048 C15.888779,26.9991501 16.0042729,27.3938643 16.2912947,27.6811496 C16.5241803,27.9140352 16.8340794,28.0422857 17.1633242,28.0422857 C17.4569877,28.0422857 17.734732,27.9401808 17.956706,27.7529973 C18.1798924,27.929691 18.4504677,28.0184068 18.7212539,28.0184068 C19.0368988,28.0184068 19.3527545,27.8981687 19.5932834,27.6576397 C19.7724018,27.4787321 19.8846276,27.2576015 19.9303824,27.0261392 L20.1299007,27.2256575 C20.370377,27.4661864 20.6860218,27.5862137 21.0019302,27.5862137 C21.3177859,27.5862137 21.6336416,27.4661864 21.8739597,27.2256575 C22.0530782,27.046539 22.1653039,26.8255666 22.211006,26.5939461 L22.212851,26.5960019 C22.4457366,26.8288875 22.7556357,26.957138 23.0848805,26.957138 C23.4145469,26.957138 23.7240244,26.8288875 23.9571208,26.5960019 C24.309243,26.2438797 24.4031247,25.7301398 24.2394511,25.2915685 C24.5203054,25.2682694 24.7947815,25.1498762 25.0091122,24.9353347 C25.4670818,24.4775759 25.4886941,23.7463952 25.0743707,23.2623327 L25.4831065,22.8538077 C26.4731602,21.8635432 27.1069274,20.5586881 27.2743436,19.1698613 L28.9137675,17.5303847 C29.0208801,17.4233248 29.0208801,17.2497412 28.9137675,17.1426813 M13.9663922,24.462131 C13.8370875,24.3328263 13.7658196,24.1608768 13.7658196,23.9778576 C13.7658196,23.8633652 13.7938102,23.7529844 13.8463649,23.6547802 L14.773743,24.582211 C14.6755389,24.6349239 14.5653689,24.6629144 14.4506656,24.6629144 C14.2678573,24.6629144 14.0959078,24.5916466 13.9663922,24.462131 M15.2763605,25.890756 C15.1470557,25.7614513 15.0758406,25.5895018 15.0758406,25.4064299 C15.0758406,25.2625237 15.1204884,25.1257864 15.2022462,25.0108723 L16.1564551,25.9648703 C15.8891479,26.1543205 15.5156771,26.1300199 15.2763605,25.890756 M16.6790508,27.2933936 C16.4397869,27.0541297 16.4156971,26.6808169 16.6049364,26.4135625 L17.5590926,27.3675079 C17.4441785,27.4492656 17.3072831,27.4939661 17.1633242,27.4939661 C16.9805158,27.4939661 16.8083555,27.4226983 16.6790508,27.2933936" id="Fill-1"></path>
            </g>
        </g>
    </g>
</svg>
