<?xml version="1.0" encoding="UTF-8" standalone="no"?>
<svg width="25px" height="15px" viewBox="0 0 25 15" version="1.1" xmlns="http://www.w3.org/2000/svg" xmlns:xlink="http://www.w3.org/1999/xlink">
    <!-- Generator: Sketch 3.8.3 (29802) - http://www.bohemiancoding.com/sketch -->
    <title>Group 15</title>
    <desc>Created with Sketch.</desc>
    <defs></defs>
    <g id="Page-1" stroke="none" stroke-width="1" fill="none" fill-rule="evenodd">
        <g id="Чужие-Сбывшиеся" transform="translate(-888.000000, -377.000000)" fill="#ffffff">
            <g id="Group-12" transform="translate(879.000000, 365.000000)">
                <g id="Group-15" transform="translate(9.000000, 12.000000)">
                    <path d="M4.2643237,1.03036666 L5.30611136,4.6551241 L1.91979694,4.6551241 L4.2643237,1.03036666 Z M14.4701122,4.65469859 L15.6133572,1.28340185 L17.7936809,4.65469859 L14.4701122,4.65469859 Z M14.1635998,5.50103321 L17.5926621,5.50103321 L11.1093609,12.4653871 L14.1635998,5.50103321 Z M5.58424756,5.50103321 L8.61952816,12.4814145 L2.12124387,5.50103321 L5.58424756,5.50103321 Z M5.97943581,4.32124246 L4.98070178,0.846263705 L8.976066,0.846263705 L5.97943581,4.32124246 Z M10.7378399,0.846263705 L14.9773378,0.846263705 L13.780765,4.37499826 L10.7378399,0.846263705 Z M6.72382321,4.65469859 L9.85695296,1.021431 L12.9900827,4.65469859 L6.72382321,4.65469859 Z M13.3447247,5.50103321 L9.8584207,13.4509336 L6.40128796,5.50103321 L13.3447247,5.50103321 L13.3447247,5.50103321 Z M15.9669655,0.419768035 C15.8170334,0.187936551 15.4726513,0 15.1937401,0 L4.52016578,0 C4.24305734,0 3.89242175,0.194802436 3.74694045,0.419733214 L0.972500737,4.70933543 C0.822568625,4.94114769 0.859942914,5.29978158 1.03774761,5.49078266 L9.16877023,14.2252765 C9.54884306,14.6335577 10.1615871,14.6373056 10.5451357,14.2253085 L18.6761583,5.49119252 C18.8621253,5.29143203 18.8868865,4.93467556 18.7414052,4.70972612 L15.9669655,0.419768035 Z" id="Page-1-Copy"></path>
                    <path d="M23.4339821,5.56408729 L20.8298155,8.29846229 L19.6542202,7.06408729 C19.5128512,6.91825395 19.2871567,6.91825395 19.1482678,7.06408729 C19.009379,7.20992062 19.009379,7.44689979 19.1482678,7.59533729 L20.5768393,9.09533729 C20.6462837,9.16825395 20.7380496,9.20471229 20.8298155,9.20471229 C20.9215813,9.20471229 21.0133472,9.16825395 21.0827917,9.09533729 L23.9399345,6.09533729 C24.0788234,5.94689979 24.0788234,5.70992062 23.9399345,5.56408729 C23.7985655,5.41825395 23.572871,5.41825395 23.4339821,5.56408729" id="Fill-1"></path>
                </g>
            </g>
        </g>
    </g>
</svg>
