<?xml version="1.0" encoding="UTF-8" standalone="no"?>
<svg width="19px" height="15px" viewBox="0 0 19 15" version="1.1" xmlns="http://www.w3.org/2000/svg" xmlns:xlink="http://www.w3.org/1999/xlink">
    <!-- Generator: Sketch 3.8.3 (29802) - http://www.bohemiancoding.com/sketch -->
    <title>Page 1</title>
    <desc>Created with Sketch.</desc>
    <defs></defs>
    <g id="Page-1" stroke="none" stroke-width="1" fill="none" fill-rule="evenodd">
        <g id="Чужие-Сбывшиеся" transform="translate(-830.000000, -377.000000)" fill="#ffffff">
            <g id="Group-11" transform="translate(821.000000, 365.000000)">
                <path d="M13.2643237,13.0303667 L14.3061114,16.6551241 L10.9197969,16.6551241 L13.2643237,13.0303667 Z M23.4701122,16.6546986 L24.6133572,13.2834018 L26.7936809,16.6546986 L23.4701122,16.6546986 Z M23.1635998,17.5010332 L26.5926621,17.5010332 L20.1093609,24.4653871 L23.1635998,17.5010332 Z M14.5842476,17.5010332 L17.6195282,24.4814145 L11.1212439,17.5010332 L14.5842476,17.5010332 Z M14.9794358,16.3212425 L13.9807018,12.8462637 L17.976066,12.8462637 L14.9794358,16.3212425 Z M19.7378399,12.8462637 L23.9773378,12.8462637 L22.780765,16.3749983 L19.7378399,12.8462637 Z M15.7238232,16.6546986 L18.856953,13.021431 L21.9900827,16.6546986 L15.7238232,16.6546986 Z M22.3447247,17.5010332 L18.8584207,25.4509336 L15.401288,17.5010332 L22.3447247,17.5010332 L22.3447247,17.5010332 Z M24.9669655,12.419768 C24.8170334,12.1879366 24.4726513,12 24.1937401,12 L13.5201658,12 C13.2430573,12 12.8924217,12.1948024 12.7469405,12.4197332 L9.97250074,16.7093354 C9.82256863,16.9411477 9.85994291,17.2997816 10.0377476,17.4907827 L18.1687702,26.2252765 C18.5488431,26.6335577 19.1615871,26.6373056 19.5451357,26.2253085 L27.6761583,17.4911925 C27.8621253,17.291432 27.8868865,16.9346756 27.7414052,16.7097261 L24.9669655,12.419768 Z" id="Page-1"></path>
            </g>
        </g>
    </g>
</svg>
