<?xml version="1.0" encoding="UTF-8" standalone="no"?>
<svg width="18px" height="15px" viewBox="0 0 18 15" version="1.1" xmlns="http://www.w3.org/2000/svg" xmlns:xlink="http://www.w3.org/1999/xlink">
    <!-- Generator: Sketch 3.8.3 (29802) - http://www.bohemiancoding.com/sketch -->
    <title>Group Copy 5</title>
    <desc>Created with Sketch.</desc>
    <defs></defs>
    <g id="Page-1" stroke="none" stroke-width="1" fill="none" fill-rule="evenodd">
        <g id="Чужие-Сбывшиеся" transform="translate(-890.000000, -448.000000)" stroke="#ffffff">
            <g id="Group-10" transform="translate(879.000000, 437.000000)">
                <g id="Group-Copy-5" transform="translate(12.000000, 12.000000)">
                    <g id="Group-2" transform="translate(0.044101, 0.454712)">
                        <path d="M6.4805982,0 C8.27044068,0 9.72050855,1.45508665 9.72050855,3.2493816 C9.72050855,5.04445635 8.27044068,6.499543 6.4805982,6.499543 C4.69075572,6.499543 3.24068786,5.04445635 3.24068786,3.2493816 C3.24068786,1.45508665 4.69075572,0 6.4805982,0" id="Fill-1"></path>
                        <path d="M6.4805982,8.12415582 C1.53948224,8.12415582 0,11.3735374 0,11.3735374 L0,12.9986181 L12.9611964,12.9986181 L12.9611964,11.3735374 C12.9611964,11.3735374 11.4217142,8.12415582 6.4805982,8.12415582" id="Fill-3"></path>
                        <path d="M16.7028017,3 L12.7028017,3" id="Stroke-8"></path>
                        <path d="M14.7028017,1 L14.7028017,5" id="Stroke-8-Copy"></path>
                    </g>
                </g>
            </g>
        </g>
    </g>
</svg>
