<?xml version="1.0" encoding="UTF-8" standalone="no"?>
<svg width="19px" height="18px" viewBox="0 0 19 18" version="1.1" xmlns="http://www.w3.org/2000/svg" xmlns:xlink="http://www.w3.org/1999/xlink">
    <!-- Generator: Sketch 3.8.3 (29802) - http://www.bohemiancoding.com/sketch -->
    <title>rocket new</title>
    <desc>Created with Sketch.</desc>
    <defs></defs>
    <g id="Page-1" stroke="none" stroke-width="1" fill="none" fill-rule="evenodd">
        <g id="Чужие-Сбывшиеся" transform="translate(-946.000000, -375.000000)" stroke="#ffffff" stroke-width="0.5" fill="#FFFFFF">
            <g id="Group-13" transform="translate(937.000000, 365.000000)">
                <g id="rocket-new" transform="translate(19.081475, 19.469973) rotate(-315.000000) translate(-19.081475, -19.469973) translate(12.581475, 7.469973)">
                    <g id="Group-5" transform="translate(0.018853, 0.126965)">
                        <path d="M6.02058962,6.35913824 C6.8365738,6.35913824 7.50044436,7.02300879 7.50044436,7.83921732 C7.50044436,8.08511192 7.43941942,8.32898732 7.32208103,8.54392074 C7.0629494,9.02224855 6.56398079,9.31907205 6.02058962,9.31907205 C5.50412122,9.31907205 5.03387023,9.0554533 4.76150158,8.61347122 C4.61679171,8.37924315 4.54073489,8.11181033 4.54073489,7.83921732 C4.54028618,7.02300879 5.20415673,6.35913824 6.02058962,6.35913824 M6.02058962,9.76733612 C6.72798531,9.76733612 7.37861884,9.38009699 7.71672391,8.75750802 C7.86928626,8.47706253 7.94915713,8.15937389 7.94915713,7.83899297 C7.94915713,6.77554369 7.08448761,5.9102011 6.02058962,5.9102011 C4.95669164,5.9102011 4.09179776,6.77509498 4.09179776,7.83899297 C4.09179776,8.19459784 4.19118764,8.54414509 4.37919829,8.84882107 C4.73368139,9.42407084 5.34752046,9.76733612 6.02058962,9.76733612" id="Fill-1"></path>
                        <path d="M1.74996579,12.0093571 C1.80605489,11.9555116 1.83006102,11.8760894 1.81368301,11.7998082 C1.6501272,11.0459708 1.56733969,10.2735117 1.56733969,9.50576418 C1.56733969,6.00221484 3.26975596,2.74770108 6.01924349,0.975509978 C8.76940408,2.74725237 10.4718203,6.00199048 10.4718203,9.50576418 C10.4718203,10.2937038 10.3836483,11.0861306 10.2115669,11.8615062 C10.2034901,11.897852 10.2068555,11.9451912 10.2167271,11.9810882 C10.2281693,12.0187801 10.2488101,12.0531066 10.2773034,12.0802537 C10.6080047,12.3988398 10.9243472,12.7652138 11.2184784,13.1692796 L9.70070745,18.1726514 C9.13645113,17.6117605 8.40190832,17.1884 7.59310354,16.9629218 C7.57291147,16.9575372 7.55271939,16.954845 7.53230296,16.954845 C7.48406634,16.954845 7.43627843,16.9698768 7.3967917,17.0001649 C7.34070261,17.0423439 7.30794657,17.1085291 7.30794657,17.1792013 L7.30794657,17.5303191 L4.71438674,17.5303191 L4.71438674,17.1092021 C4.71438674,17.0389786 4.6816307,16.9732422 4.62554161,16.9301658 C4.56967687,16.8879867 4.49743411,16.8740767 4.42967848,16.8929226 C3.62109806,17.1177277 2.88655525,17.54221 2.32229894,18.1026522 L0.804976688,13.1001779 C1.10157583,12.6956633 1.41881576,12.3283919 1.74996579,12.0093571 M0.344148668,13.1259788 L2.00797564,18.6112682 C2.03175741,18.6906903 2.09726948,18.7496961 2.17826213,18.7656254 C2.2597035,18.781779 2.34226665,18.7519396 2.39543912,18.6888955 C2.86703624,18.1210495 3.52327868,17.675702 4.26634703,17.4154486 L4.26634703,17.7564703 C4.26634703,17.8805394 4.36663434,17.9808267 4.49070342,17.9808267 L7.53320039,17.9808267 C7.65771818,17.9808267 7.75755677,17.8805394 7.75755677,17.7564703 L7.75755677,17.4856722 C8.50084949,17.7454769 9.15709192,18.191273 9.62913776,18.759119 C9.67198983,18.8104966 9.73638011,18.839663 9.80211653,18.839663 C9.81625099,18.839663 9.83195593,18.8383168 9.84609038,18.8349515 C9.92663433,18.8187978 9.99192204,18.7595677 10.0168256,18.6805943 L11.6806526,13.195305 C11.7008446,13.1286711 11.6882807,13.0568771 11.6478965,13.0003393 C11.344118,12.5731647 11.0172307,12.1843551 10.6741898,11.8435577 C10.8377456,11.0728935 10.9200844,10.2874218 10.9200844,9.50666161 C10.9200844,5.79939666 9.08754144,2.35575047 6.13837673,0.520515224 C6.06568526,0.47541959 5.97437221,0.47541959 5.90100767,0.520515224 C2.95094553,2.35619919 1.11862692,5.79917231 1.11862692,9.50688596 C1.11862692,10.2652106 1.19625423,11.0271248 1.34926528,11.7737829 C1.00667308,12.115029 0.679561467,12.5033899 0.375782919,12.9310131 C0.336071838,12.9877753 0.323956593,13.059345 0.344148668,13.1259788" id="Fill-3"></path>
                    </g>
                    <path d="M4.23010285,20.1966271 L4.23010285,22.1862508 C4.23010285,22.3253415 4.34212726,22.4368647 4.48071674,22.4368647 C4.61930623,22.4368647 4.73133064,22.3253415 4.73133064,22.1862508 L4.73133064,20.1966271 C4.73133064,20.0585388 4.61930623,19.9460132 4.48071674,19.9460132 C4.34187665,19.9460132 4.23010285,20.0585388 4.23010285,20.1966271" id="Fill-6"></path>
                    <path d="M5.76511295,20.1966271 L5.76511295,23.7144943 C5.76511295,23.8525825 5.87713736,23.9651082 6.01572685,23.9651082 C6.15431633,23.9651082 6.26634074,23.8525825 6.26634074,23.7144943 L6.26634074,20.1966271 C6.26634074,20.0585388 6.15431633,19.9460132 6.01572685,19.9460132 C5.87713736,19.9460132 5.76511295,20.0585388 5.76511295,20.1966271" id="Fill-8"></path>
                    <path d="M7.48246416,19.947372 C7.34387467,19.947372 7.23185026,20.0598977 7.23185026,20.1979859 L7.23185026,22.1876096 C7.23185026,22.3267004 7.34387467,22.4382235 7.48246416,22.4382235 C7.62155487,22.4382235 7.73307805,22.3267004 7.73307805,22.1876096 L7.73307805,20.1979859 C7.73307805,20.0598977 7.62130425,19.947372 7.48246416,19.947372" id="Fill-10"></path>
                </g>
            </g>
        </g>
    </g>
</svg>
