<?xml version="1.0" encoding="UTF-8" standalone="no"?>
<svg width="21px" height="21px" viewBox="0 0 21 21" version="1.1" xmlns="http://www.w3.org/2000/svg" xmlns:xlink="http://www.w3.org/1999/xlink">
    <!-- Generator: Sketch 3.8.3 (29802) - http://www.bohemiancoding.com/sketch -->
    <title>Fill 217</title>
    <desc>Created with Sketch.</desc>
    <defs></defs>
    <g id="Page-1" stroke="none" stroke-width="1" fill="none" fill-rule="evenodd">
        <g id="crop-avatar" transform="translate(-650.000000, -528.000000)" fill="#9999CC">
            <g id="crop" transform="translate(296.000000, 61.000000)">
                <path d="M359.25,473.5625 C358.5255,473.5625 357.9375,472.9745 357.9375,472.25 C357.9375,471.5255 358.5255,470.9375 359.25,470.9375 C359.9745,470.9375 360.5625,471.5255 360.5625,472.25 C360.5625,472.9745 359.9745,473.5625 359.25,473.5625 L359.25,473.5625 Z M359.25,469.625 C357.800344,469.625 356.625,470.800344 356.625,472.25 C356.625,473.699656 357.800344,474.875 359.25,474.875 C360.699656,474.875 361.875,473.699656 361.875,472.25 C361.875,470.800344 360.699656,469.625 359.25,469.625 L359.25,469.625 Z M373.6875,478.24025 L369.75,474.21875 L363.226219,480.854094 L360.5625,478.15625 L355.3125,482.971156 L355.3125,469.625 C355.3125,468.9005 355.9005,468.3125 356.625,468.3125 L372.375,468.3125 C373.0995,468.3125 373.6875,468.9005 373.6875,469.625 L373.6875,478.24025 L373.6875,478.24025 Z M373.6875,485.375 C373.6875,486.0995 373.0995,486.6875 372.375,486.6875 L368.9835,486.6875 L364.14825,481.788594 L369.75,476.186844 L373.6875,480.124344 L373.6875,485.375 L373.6875,485.375 Z M356.625,486.6875 C355.9005,486.6875 355.3125,486.0995 355.3125,485.375 L355.3125,484.758781 L360.526406,480.088906 L367.125656,486.6875 L356.625,486.6875 L356.625,486.6875 Z M372.375,467 L356.625,467 C355.175344,467 354,468.175344 354,469.625 L354,485.375 C354,486.824656 355.175344,488 356.625,488 L372.375,488 C373.824656,488 375,486.824656 375,485.375 L375,469.625 C375,468.175344 373.824656,467 372.375,467 L372.375,467 Z" id="Fill-217"></path>
            </g>
        </g>
    </g>
</svg>