<?xml version="1.0" encoding="UTF-8" standalone="no"?>
<svg width="32px" height="32px" viewBox="0 0 32 32" version="1.1" xmlns="http://www.w3.org/2000/svg" xmlns:xlink="http://www.w3.org/1999/xlink">
    <!-- Generator: Sketch 3.7 (28169) - http://www.bohemiancoding.com/sketch -->
    <title>fulfill dream</title>
    <desc>Created with Sketch.</desc>
    <defs></defs>
    <g id="Page-1" stroke="none" stroke-width="1" fill="none" fill-rule="evenodd">
        <g id="fulfill-dream" stroke="#FFF" stroke-width="0.2" fill="#FFF">
            <path d="M11.7320861,16.0663048 C11.7804541,16.0201259 11.8011556,15.9520119 11.7870322,15.8865917 C11.6459911,15.2400864 11.5746,14.5776109 11.5746,13.919176 C11.5746,10.9144656 13.042665,8.12333284 15.4136635,6.60346812 C17.7852424,8.12294801 19.2533073,10.9142732 19.2533073,13.919176 C19.2533073,14.594928 19.1772729,15.2745282 19.0288799,15.9395051 C19.0219149,15.9706759 19.024817,16.0112749 19.0333298,16.0420609 C19.0431968,16.0743861 19.0609962,16.1038252 19.0855672,16.1271071 C19.3707448,16.4003325 19.6435402,16.7145418 19.8971819,17.0610764 L18.5883443,21.352063 C18.1017624,20.8710322 17.4683353,20.5079502 16.770869,20.3145759 C16.7534566,20.309958 16.7360441,20.307649 16.7184381,20.307649 C16.6768417,20.307649 16.6356322,20.3205407 16.6015811,20.3465163 C16.5532131,20.3826898 16.5249662,20.4394515 16.5249662,20.5000613 L16.5249662,20.8011866 L14.2884307,20.8011866 L14.2884307,20.4400287 C14.2884307,20.3798036 14.2601838,20.3234268 14.2118158,20.2864837 C14.1636413,20.2503102 14.1013434,20.2383806 14.0429148,20.2545432 C13.345642,20.4473404 12.7122149,20.8113844 12.225633,21.2920303 L10.9171824,17.0018134 C11.1729523,16.654894 11.4465216,16.3399151 11.7320861,16.0663048 Z M16.6592026,22.7652094 C16.5396911,22.7652094 16.4430877,22.8617135 16.4430877,22.9801407 L16.4430877,24.6864797 C16.4430877,24.8057665 16.5396911,24.9014109 16.6592026,24.9014109 C16.7791464,24.9014109 16.8753175,24.8057665 16.8753175,24.6864797 L16.8753175,22.9801407 C16.8753175,22.8617135 16.7789302,22.7652094 16.6592026,22.7652094 Z M15.1782586,22.9789752 L15.1782586,25.9959649 C15.1782586,26.1143921 15.2748619,26.2108962 15.3943735,26.2108962 C15.513885,26.2108962 15.6104883,26.1143921 15.6104883,25.9959649 L15.6104883,22.9789752 C15.6104883,22.8605481 15.513885,22.764044 15.3943735,22.764044 C15.2748619,22.764044 15.1782586,22.8605481 15.1782586,22.9789752 Z M13.854555,22.9789752 L13.854555,24.6853143 C13.854555,24.8046011 13.9511583,24.9002455 14.0706698,24.9002455 C14.1901814,24.9002455 14.2867847,24.8046011 14.2867847,24.6853143 L14.2867847,22.9789752 C14.2867847,22.8605481 14.1901814,22.764044 14.0706698,22.764044 C13.9509422,22.764044 13.854555,22.8605481 13.854555,22.9789752 Z M15.4148243,14.1435051 C16.0248413,14.1435051 16.5859099,13.8114014 16.8774721,13.2774573 C17.009033,13.0369419 17.077909,12.7644861 17.077909,12.4897214 C17.077909,11.5776871 16.3322682,10.8355529 15.4148243,10.8355529 C14.4973804,10.8355529 13.7515461,11.5773023 13.7515461,12.4897214 C13.7515461,12.7946949 13.8372542,13.0944732 13.9993837,13.3557691 C14.3050693,13.8491142 14.8344085,14.1435051 15.4148243,14.1435051 Z" id="Fill-3" transform="translate(15.407182, 16.407182) rotate(-315.000000) translate(-15.407182, -16.407182) "></path>
        </g>
    </g>
</svg>
