<?xml version="1.0" encoding="UTF-8" standalone="no"?>
<svg width="30px" height="30px" viewBox="0 0 30 30" version="1.1" xmlns="http://www.w3.org/2000/svg" xmlns:xlink="http://www.w3.org/1999/xlink">
    <!-- Generator: Sketch 3.7 (28169) - http://www.bohemiancoding.com/sketch -->
    <title>loader</title>
    <desc>Created with Sketch.</desc>
    <defs></defs>
    <g id="Page-1" stroke="none" stroke-width="1" fill="none" fill-rule="evenodd">
        <g id="loader">
            <g id="131-spinner9" transform="translate(5.000000, 5.000000)">
                <path d="M19.9975,10.235 C19.8825,14.95875 16.29,18.75 11.875,18.75 C7.3875,18.75 3.75,14.8325 3.75,10 C3.75,8.965 2.91,8.125 1.875,8.125 C0.84,8.125 0,8.965 0,10 C0,15.5225 4.4775,20 10,20 C15.44375,20 19.8725,15.64875 19.9975,10.235 Z" id="Path" fill="#0C95FF"></path>
                <path d="M10,0 C4.55625,0 0.1275,4.35125 0.0025,9.765 C0.1175,5.04125 3.71,1.25 8.125,1.25 C12.6125,1.25 16.25,5.1675 16.25,10 C16.25,11.035 17.09,11.875 18.125,11.875 C19.16,11.875 20,11.035 20,10 C20,4.4775 15.5225,0 10,0 L10,0 Z" id="Path" fill="#BD10E0"></path>
            </g>
        </g>
    </g>
</svg>