<?xml version="1.0" encoding="UTF-8" standalone="no"?>
<svg width="62px" height="76px" viewBox="0 0 62 76" version="1.1" xmlns="http://www.w3.org/2000/svg" xmlns:xlink="http://www.w3.org/1999/xlink">
    <!-- Generator: Sketch 3.7 (28169) - http://www.bohemiancoding.com/sketch -->
    <title>XMLID_479_</title>
    <desc>Created with Sketch.</desc>
    <defs></defs>
    <g id="Page-1" stroke="none" stroke-width="1" fill="none" fill-rule="evenodd">
        <g id="BRONZE-Copy" transform="translate(-4.000000, 0.000000)" fill="#EFEFEF">
            <path d="M63.6602945,71.5025677 C63.6602945,70.6792659 64.291273,70.0026549 65.0936735,69.9366441 L65.0936735,68.543082 C64.291273,68.4752376 63.6602945,67.8004602 63.6602945,66.9771584 C63.6602945,66.1538566 64.291273,65.4772456 65.0936735,65.4112347 L65.0936735,64.0176727 C64.291273,63.9498282 63.6602945,63.2750508 63.6602945,62.451749 C63.6602945,61.6284473 64.291273,60.9518362 65.0936735,60.8858254 L65.0936735,59.4922634 C64.291273,59.4244189 63.6602945,58.7496415 63.6602945,57.9263397 C63.6602945,57.1030379 64.291273,56.4264269 65.0936735,56.3604161 L65.0936735,54.966854 C64.291273,54.8990096 63.6602945,54.2242321 63.6602945,53.4009304 C63.6602945,52.5776286 64.291273,51.9010175 65.0936735,51.8350067 L65.0936735,50.4414447 C64.291273,50.3736002 63.6602945,49.6988228 63.6602945,48.875521 C63.6602945,48.0522193 64.291273,47.3756082 65.0936735,47.3095974 L65.0936735,45.9160353 C64.291273,45.8481909 63.6602945,45.1734135 63.6602945,44.3501117 C63.6602945,43.5268099 64.291273,42.8501989 65.0936735,42.784188 L65.0936735,41.390626 C64.291273,41.3227815 63.6602945,40.6480041 63.6602945,39.8247024 C63.6602945,39.0014006 64.291273,38.3247895 65.0936735,38.2587787 L65.0936735,36.8652167 C64.291273,36.7973722 63.6602945,36.1225948 63.6602945,35.299293 C63.6602945,34.4759912 64.291273,33.7993802 65.0936735,33.7333694 L65.0936735,32.3398073 C64.291273,32.2719629 63.6602945,31.5971855 63.6602945,30.7738837 C63.6602945,29.9505819 64.291273,29.2739709 65.0936735,29.20796 L65.0936735,27.814398 C64.291273,27.7465535 63.6602945,27.0717761 63.6602945,26.2484743 C63.6602945,25.4251726 64.291273,24.7485615 65.0936735,24.6825507 L65.0936735,23.2889887 C64.291273,23.2211442 63.6602945,22.5463668 63.6602945,21.723065 C63.6602945,20.8997632 64.291273,20.2231522 65.0936735,20.1571413 L65.0936735,18.7635793 C64.291273,18.6957348 63.6602945,18.0209574 63.6602945,17.1976557 C63.6602945,16.3743539 64.291273,15.6977428 65.0936735,15.631732 L65.0936735,14.23817 C64.291273,14.1703255 63.6602945,13.4955481 63.6602945,12.6722463 C63.6602945,11.8489445 64.291273,11.1723335 65.0936735,11.1063227 L65.0936735,9.71276064 C64.291273,9.64491617 63.6602945,8.97013877 63.6602945,8.14683699 C63.6602945,7.32353521 64.291273,6.64692417 65.0936735,6.58091334 L65.0936735,5.1873513 C64.291273,5.11950684 63.6602945,4.44472943 63.6602945,3.62142765 C63.6602945,2.79812587 64.291273,2.12151483 65.0936735,2.055504 L65.0936735,1.13868687 C64.5885259,0.986495228 64.190973,0.586762961 64.0414347,0.0788462729 L62.8998378,0.0788462729 C62.8177741,0.869142636 62.1521465,1.48524375 61.3442752,1.48524375 C60.5364038,1.48524375 59.8725998,0.869142636 59.7887125,0.0788462729 L58.3972773,0.0788462729 C58.3152136,0.869142636 57.649586,1.48524375 56.8417146,1.48524375 C56.0338433,1.48524375 55.3700393,0.869142636 55.286152,0.0788462729 L53.8947168,0.0788462729 C53.8108294,0.869142636 53.1470255,1.48524375 52.3391541,1.48524375 C51.5312828,1.48524375 50.8674788,0.869142636 50.7835915,0.0788462729 L49.3921562,0.0788462729 C49.3082689,0.869142636 48.6444649,1.48524375 47.8365936,1.48524375 C47.0287223,1.48524375 46.3649183,0.869142636 46.281031,0.0788462729 L44.8895957,0.0788462729 C44.8057084,0.869142636 44.1419044,1.48524375 43.3340331,1.48524375 C42.5261618,1.48524375 41.8623578,0.869142636 41.7784705,0.0788462729 L40.3870352,0.0788462729 C40.3031479,0.869142636 39.6393439,1.48524375 38.8314726,1.48524375 C38.0236013,1.48524375 37.3597973,0.869142636 37.27591,0.0788462729 L35.8844747,0.0788462729 C35.8005874,0.869142636 35.1367834,1.48524375 34.3289121,1.48524375 C33.5210407,1.48524375 32.8572368,0.869142636 32.7733494,0.0788462729 L31.3819142,0.0788462729 C31.2980269,0.869142636 30.6342229,1.48524375 29.8263516,1.48524375 C29.0184802,1.48524375 28.3546763,0.869142636 28.2707889,0.0788462729 L26.8793537,0.0788462729 C26.7954664,0.869142636 26.1316624,1.48524375 25.323791,1.48524375 C24.5159197,1.48524375 23.8521157,0.869142636 23.7682284,0.0788462729 L22.3767932,0.0788462729 C22.2929058,0.869142636 21.6291019,1.48524375 20.8212305,1.48524375 C20.0133592,1.48524375 19.3495552,0.869142636 19.2656679,0.0788462729 L17.8742326,0.0788462729 C17.7903453,0.869142636 17.1265413,1.48524375 16.31867,1.48524375 C15.5107987,1.48524375 14.8469947,0.869142636 14.7631074,0.0788462729 L13.3716721,0.0788462729 C13.2877848,0.869142636 12.6239808,1.48524375 11.8161095,1.48524375 C11.0082382,1.48524375 10.3444342,0.869142636 10.2605469,0.0788462729 L8.86911161,0.0788462729 C8.7852243,0.869142636 8.12142032,1.48524375 7.31354899,1.48524375 C6.50567766,1.48524375 5.84187368,0.869142636 5.75798637,0.0788462729 L4.91546593,0.0788462729 C4.78963495,0.506083054 4.48691116,0.858140831 4.09482914,1.04883879 L4.09482914,2.055504 C4.89722956,2.12151483 5.52820806,2.79812587 5.52820806,3.62142765 C5.52820806,4.44656307 4.89722956,5.12134047 4.09482914,5.1873513 L4.09482914,6.58091334 C4.89722956,6.6487578 5.52820806,7.32353521 5.52820806,8.14683699 C5.52820806,8.97013877 4.89722956,9.64674981 4.09482914,9.71276064 L4.09482914,11.1063227 C4.89722956,11.1723335 5.52820806,11.8489445 5.52820806,12.6722463 C5.52820806,13.4973817 4.89722956,14.1721591 4.09482914,14.23817 L4.09482914,15.631732 C4.89722956,15.6995765 5.52820806,16.3743539 5.52820806,17.1976557 C5.52820806,18.0227911 4.89722956,18.6975685 4.09482914,18.7635793 L4.09482914,20.1571413 C4.89722956,20.2231522 5.52820806,20.8997632 5.52820806,21.723065 C5.52820806,22.5463668 4.89722956,23.2229778 4.09482914,23.2889887 L4.09482914,24.6825507 C4.89722956,24.7503952 5.52820806,25.4251726 5.52820806,26.2484743 C5.52820806,27.0736098 4.89722956,27.7483872 4.09482914,27.814398 L4.09482914,29.20796 C4.89722956,29.2739709 5.52820806,29.9505819 5.52820806,30.7738837 C5.52820806,31.5990191 4.89722956,32.2737965 4.09482914,32.3398073 L4.09482914,33.7333694 C4.89722956,33.8012138 5.52820806,34.4759912 5.52820806,35.299293 C5.52820806,36.1225948 4.89722956,36.7992058 4.09482914,36.8652167 L4.09482914,38.2587787 C4.89722956,38.3247895 5.52820806,39.0014006 5.52820806,39.8247024 C5.52820806,40.6498378 4.89722956,41.3246152 4.09482914,41.390626 L4.09482914,42.784188 C4.89722956,42.8520325 5.52820806,43.5268099 5.52820806,44.3501117 C5.52820806,45.1752471 4.89722956,45.8500245 4.09482914,45.9160353 L4.09482914,47.3095974 C4.89722956,47.3756082 5.52820806,48.0522193 5.52820806,48.875521 C5.52820806,49.6988228 4.89722956,50.3754338 4.09482914,50.4414447 L4.09482914,51.8350067 C4.89722956,51.9028512 5.52820806,52.5776286 5.52820806,53.4009304 C5.52820806,54.2260658 4.89722956,54.9008432 4.09482914,54.966854 L4.09482914,56.3604161 C4.89722956,56.4264269 5.52820806,57.1030379 5.52820806,57.9263397 C5.52820806,58.7514751 4.89722956,59.4262525 4.09482914,59.4922634 L4.09482914,60.8858254 C4.89722956,60.9518362 5.52820806,61.6266136 5.52820806,62.451749 C5.52820806,63.2750508 4.89722956,63.9516619 4.09482914,64.0176727 L4.09482914,65.4112347 C4.89722956,65.4772456 5.52820806,66.152023 5.52820806,66.9771584 C5.52820806,67.8004602 4.89722956,68.4770712 4.09482914,68.543082 L4.09482914,69.9366441 C4.89722956,70.0026549 5.52820806,70.6774323 5.52820806,71.5025677 C5.52820806,72.3258695 4.89722956,73.0024805 4.09482914,73.0684914 L4.09482914,74.5500678 C4.33007835,74.6637532 4.53250209,74.8342812 4.68386399,75.0469827 L5.75251545,75.0469827 C5.78716456,74.2090119 6.47102855,73.541569 7.31354899,73.541569 C8.15424579,73.541569 8.83993342,74.2108455 8.87458252,75.0469827 L10.255076,75.0469827 C10.2897251,74.2090119 10.9754127,73.541569 11.8161095,73.541569 C12.6568063,73.541569 13.3424939,74.2108455 13.377143,75.0469827 L14.7576365,75.0469827 C14.7922856,74.2090119 15.4761496,73.541569 16.31867,73.541569 C17.1593668,73.541569 17.8450544,74.2108455 17.8797036,75.0469827 L19.260197,75.0469827 C19.2948461,74.2090119 19.9805337,73.541569 20.8212305,73.541569 C21.6619273,73.541569 22.347615,74.2108455 22.3822641,75.0469827 L23.7627575,75.0469827 C23.7974066,74.2090119 24.4812706,73.541569 25.323791,73.541569 C26.1644878,73.541569 26.8501755,74.2108455 26.8848246,75.0469827 L28.265318,75.0469827 C28.2999671,74.2090119 28.9856548,73.541569 29.8263516,73.541569 C30.6670484,73.541569 31.352736,74.2108455 31.3873851,75.0469827 L32.7678785,75.0469827 C32.8025276,74.2090119 33.4863916,73.541569 34.3289121,73.541569 C35.1696089,73.541569 35.8552965,74.2108455 35.8899456,75.0469827 L37.2704391,75.0469827 C37.3050882,74.2090119 37.9907758,73.541569 38.8314726,73.541569 C39.6721694,73.541569 40.357857,74.2108455 40.3925061,75.0469827 L41.7729996,75.0469827 C41.8076487,74.2090119 42.4915127,73.541569 43.3340331,73.541569 C44.1765535,73.541569 44.8604175,74.2108455 44.8950666,75.0469827 L46.2755601,75.0469827 C46.3102092,74.2090119 46.9958968,73.541569 47.8365936,73.541569 C48.6772904,73.541569 49.362978,74.2108455 49.3976272,75.0469827 L50.7781206,75.0469827 C50.8127697,74.2090119 51.4966337,73.541569 52.3391541,73.541569 C53.1816746,73.541569 53.8655386,74.2108455 53.9001877,75.0469827 L55.2806811,75.0469827 C55.3153302,74.2090119 56.0010178,73.541569 56.8417146,73.541569 C57.6842351,73.541569 58.3680991,74.2108455 58.4027482,75.0469827 L59.7832416,75.0469827 C59.8178907,74.2090119 60.5035784,73.541569 61.3442752,73.541569 C62.1867956,73.541569 62.8706596,74.2108455 62.9053087,75.0469827 L64.2730367,75.0469827 C64.4718131,74.770104 64.7599478,74.559236 65.0936735,74.4602198 L65.0936735,73.070325 C64.291273,73.0024805 63.6602945,72.3277031 63.6602945,71.5025677 L63.6602945,71.5025677 Z" id="XMLID_479_"></path>
        </g>
    </g>
</svg>