<?xml version="1.0" encoding="UTF-8" standalone="no"?>
<svg width="30px" height="30px" viewBox="0 0 30 30" version="1.1" xmlns="http://www.w3.org/2000/svg" xmlns:xlink="http://www.w3.org/1999/xlink">
    <!-- Generator: Sketch 3.7 (28169) - http://www.bohemiancoding.com/sketch -->
    <title>messages</title>
    <desc>Created with Sketch.</desc>
    <defs></defs>
    <g id="Page-1" stroke="none" stroke-width="1" fill="none" fill-rule="evenodd">
        <g id="messages" fill="#839098">
            <g id="message" transform="translate(6.000000, 6.000000)">
                <path d="M1.68548387,6.34728664 C1.68548387,3.69020644 4.4367724,1.53557069 8.05286738,1.53557069 C10.9315036,1.53557069 13.8413978,3.69020644 13.8413978,6.34728664 C13.8413978,9.00487333 11.5693996,11.1590026 8.05286738,11.1590026 C7.53595161,11.1590026 6.45754839,11.10734 5.97652151,11.0197161 L4.00089606,12.1719954 L4.00089606,10.3769721 C2.58907348,9.37461572 1.68548387,8.03594569 1.68548387,6.34728664 L1.68548387,6.34728664 Z M8.05286738,12.1719954 C12.2090323,12.1719954 14.9991039,9.46578507 14.9991039,6.28397459 C14.9991039,3.1021641 11.512672,0.522577858 8.05286738,0.522577858 C3.89149283,0.522577858 0.527777778,3.1021641 0.527777778,6.28397459 C0.527777778,8.12762154 1.33064695,9.69218897 2.84318996,10.8191435 L2.84318996,12.6868791 C2.84318996,13.2417074 3.24329715,13.4887694 3.73481758,13.2397393 L6.10618459,12.0382804 C6.55595341,12.1026054 7.57878674,12.1719954 8.05286738,12.1719954 Z M16.15681,5.58754202 C16.15681,5.90967374 16.1209211,6.225221 16.0694032,6.5367163 C16.8485394,7.33495465 17.3145161,8.31857069 17.3145161,9.38626513 C17.3145161,11.0749242 16.1614409,12.5574392 14.4202509,13.4159506 L14.4202509,15.2109739 L12.4446254,14.0586946 C11.9635986,14.1463184 11.4640484,14.1979811 10.9471326,14.1979811 C9.44790323,14.1979811 8.65140143,13.8039269 7.56315771,13.149027 C7.2476828,13.1713128 6.92931362,13.1849883 6.60573477,13.1849883 C6.37535125,13.1849883 6.14959857,13.1708064 5.92268817,13.1591569 C7.30093728,14.3377741 8.71796953,15.0843498 10.9471326,15.0843498 C11.4212133,15.0843498 11.8837168,15.0468691 12.3334857,14.982544 L14.6913909,16.2528366 C15.1810278,16.5166225 15.577957,16.2816599 15.577957,15.7258576 L15.577957,13.858122 C17.3376703,12.80309 18.4722222,11.1666 18.4722222,9.32295308 C18.4722222,7.67987871 17.5686326,6.20090918 16.1272885,5.1514486 C16.1382867,5.29630658 16.15681,5.44015156 16.15681,5.58754202 Z" id="Fill-189"></path>
            </g>
        </g>
    </g>
</svg>