<?xml version="1.0" encoding="UTF-8" standalone="no"?>
<svg width="111px" height="111px" viewBox="0 0 111 111" version="1.1" xmlns="http://www.w3.org/2000/svg" xmlns:xlink="http://www.w3.org/1999/xlink">
    <!-- Generator: Sketch 3.8.2 (29753) - http://www.bohemiancoding.com/sketch -->
    <title>money</title>
    <desc>Created with Sketch.</desc>
    <defs></defs>
    <g id="Page-1" stroke="none" stroke-width="1" fill="none" fill-rule="evenodd">
        <g id="money" fill="#F8BA1C">
            <path d="M72.7126437,31.4615385 C61.0809962,31.4615385 54.6574713,28.7088462 54.4750958,27.5436923 C54.6587739,26.3693846 61.0862069,23.6153846 72.7126437,23.6153846 C84.3390805,23.6153846 90.7665134,26.3693846 90.9501916,27.5332308 C90.7678161,28.7088462 84.3442912,31.4615385 72.7126437,31.4615385 L72.7126437,31.4615385 Z M90.9501916,36.6870769 C90.7678161,37.8626923 84.3442912,40.6153846 72.7126437,40.6153846 C61.0809962,40.6153846 54.6574713,37.8626923 54.4750958,36.6923077 L54.4750958,30.8194615 C58.2685057,32.9496923 65.6390805,34.0769231 72.7126437,34.0769231 C79.7862069,34.0769231 87.1567816,32.9496923 90.9501916,30.8194615 L90.9501916,36.6870769 L90.9501916,36.6870769 Z M90.9501916,47.1486154 C90.7678161,48.3242308 84.3442912,51.0769231 72.7126437,51.0769231 C61.0809962,51.0769231 54.6574713,48.3242308 54.4750958,47.1538462 L54.4750958,39.9733077 C58.2685057,42.1035385 65.6390805,43.2307692 72.7126437,43.2307692 C79.7862069,43.2307692 87.1567816,42.1035385 90.9501916,39.9733077 L90.9501916,47.1486154 L90.9501916,47.1486154 Z M90.9501916,56.3024615 C90.7678161,57.4780769 84.3442912,60.2307692 72.7126437,60.2307692 C69.7151724,60.2307692 63.2056705,59.5468462 59.6858238,59.0878462 L59.6858238,53.6923077 C59.6858238,53.1626923 59.5177778,52.6618462 59.2051341,52.1936923 C63.0597701,53.1770769 67.9500383,53.6923077 72.7126437,53.6923077 C79.7862069,53.6923077 87.1567816,52.5650769 90.9501916,50.4348462 L90.9501916,56.3024615 L90.9501916,56.3024615 Z M90.9501916,66.764 C90.7678161,67.9396154 84.3442912,70.6923077 72.7126437,70.6923077 L71.4998467,70.7014615 C71.043908,70.7066923 70.5619157,70.7119231 70.1072797,70.7119231 L70.1072797,69.3846154 C70.1072797,67.512 68.8462835,66.5246923 67.5019157,65.9009231 L67.5019157,64.1538462 C67.5019157,63.6477692 67.4159387,63.0841538 67.2270498,62.5336154 C69.3204598,62.7153846 71.3174713,62.8461538 72.7126437,62.8461538 C79.7862069,62.8461538 87.1567816,61.7189231 90.9501916,59.5886923 L90.9501916,66.764 L90.9501916,66.764 Z M90.9501916,75.9178462 C90.7678161,77.0934615 84.3442912,79.8461538 72.5927969,79.8461538 L72.5172414,79.8461538 C69.7646743,79.8461538 68.1167816,79.6382308 67.128046,79.4067692 C68.9804598,78.4560769 70.1072797,77.2922308 70.1072797,75.9230769 L70.1072797,73.326 C70.5723372,73.326 71.0608429,73.3220769 71.5272031,73.3168462 L72.7126437,73.3076923 C79.7862069,73.3076923 87.1567816,72.1804615 90.9501916,70.0502308 L90.9501916,75.9178462 L90.9501916,75.9178462 Z M49.2643678,79.8461538 C37.6327203,79.8461538 31.2091954,77.0934615 31.0268199,75.9230769 L31.0268199,73.6542308 C35.6383142,75.1986154 42.4682759,75.9230769 47.9616858,75.9230769 C48.3941762,75.9230769 48.829272,75.9139231 49.2643678,75.9047692 L49.2643678,75.9230769 C56.337931,75.9230769 63.7085057,74.7958462 67.5019157,72.6656154 L67.5019157,75.9178462 C67.3221456,77.0934615 60.8999234,79.8461538 49.2643678,79.8461538 L49.2643678,79.8461538 Z M62.2911877,82.4563077 C62.1114176,83.6319231 55.6891954,86.3846154 44.0536398,86.3846154 C32.4219923,86.3846154 25.9984674,83.6319231 25.816092,82.4615385 L25.816092,78.9307692 C30.1918008,81.0989231 39.7326437,82.4628462 47.5682759,82.4628462 C47.7024521,82.4628462 47.8366284,82.4615385 47.9695019,82.4615385 L47.9695019,82.4432308 C48.4006897,82.4510769 48.8331801,82.4615385 49.2643678,82.4615385 C53.8302682,82.4615385 58.5160153,81.9894615 62.2911877,81.0845385 L62.2911877,82.4563077 L62.2911877,82.4563077 Z M28.4214559,74.8860769 L28.4214559,75.9230769 C28.4214559,76.4265385 28.5829885,76.8999231 28.8643678,77.3471538 C27.2073563,76.8136154 26.1248276,76.2826923 25.8304215,75.8524615 C25.8981609,75.7609231 26.3384674,75.3424615 28.4214559,74.8860769 L28.4214559,74.8860769 Z M27.1187739,62.8461538 C26.9572414,62.8461538 26.807433,62.8840769 26.6641379,62.9376923 C22.7899617,62.0497692 20.7082759,60.8885385 20.605364,60.2307692 L20.605364,56.9733077 C24.3987739,59.1035385 31.7693487,60.2307692 38.8429119,60.2307692 C45.9164751,60.2307692 53.2870498,59.1035385 57.0804598,56.9733077 L57.0804598,60.2255385 C56.9006897,61.4011538 50.4784674,64.1538462 38.8429119,64.1538462 C34.4932567,64.1538462 30.8731034,63.7693846 28.0345594,63.2253846 C27.7987739,62.9913077 27.4757088,62.8461538 27.1187739,62.8461538 L27.1187739,62.8461538 Z M64.8965517,67.1811538 L64.8965517,69.3846154 C64.8965517,70.4647692 59.6884291,73.3076923 47.9616858,73.3076923 C36.8498084,73.3076923 28.8773946,70.7014615 28.4214559,69.3846154 L28.4214559,67.2282308 C31.5570115,68.6980769 37.5141762,69.4434615 46.277318,69.4434615 C55.4612261,69.4434615 61.6711111,68.6810769 64.8965517,67.1811538 L64.8965517,67.1811538 Z M46.277318,66.8280769 C44.3949425,66.8280769 42.7131801,66.7888462 41.1903448,66.7234615 C49.3308046,66.441 57.3058238,64.6991538 59.2363985,61.6666154 C60.4127203,61.8196154 62.0345594,62.0131538 63.7957854,62.2001538 C63.9078161,62.3884615 64.0511111,62.5597692 64.2530268,62.6761538 C64.7610728,62.9651538 64.8965517,63.7406154 64.9017625,64.1159231 C64.5461303,65.0012308 59.5268966,66.8280769 46.277318,66.8280769 L46.277318,66.8280769 Z M38.8429119,49.7692308 C50.4693487,49.7692308 56.8967816,52.5232308 57.0804598,53.6870769 C56.8980843,54.8626923 50.4745594,57.6153846 38.8429119,57.6153846 C27.2112644,57.6153846 20.7877395,54.8626923 20.605364,53.6975385 C20.7890421,52.5232308 27.2164751,49.7692308 38.8429119,49.7692308 L38.8429119,49.7692308 Z M72.7126437,21 C62.6090421,21 51.8697318,23.2910769 51.8697318,27.5384615 L51.8697318,48.5308462 C48.0945594,47.6259231 43.4088123,47.1538462 38.8429119,47.1538462 C28.7393103,47.1538462 18,49.4449231 18,53.6923077 L18,60.2307692 C18,62.5610769 21.2423755,64.2976923 25.8291188,65.3948462 C25.8278161,65.4183846 25.816092,65.438 25.816092,65.4615385 L25.816092,69.3846154 C25.816092,70.5105385 26.6237548,71.4808462 27.9759387,72.3046923 C25.0683525,72.9206154 23.210728,73.8713077 23.210728,75.9230769 L23.210728,82.4615385 C23.210728,86.7089231 33.9500383,89 44.0536398,89 C54.1572414,89 64.8965517,86.7089231 64.8965517,82.4615385 L64.8965517,81.3735385 C66.3711877,82.1071538 68.8436782,82.4615385 72.6279693,82.4615385 L72.7126437,82.4615385 C82.8162452,82.4615385 93.5555556,80.1704615 93.5555556,75.9230769 L93.5555556,27.5384615 C93.5555556,23.2910769 82.8162452,21 72.7126437,21 L72.7126437,21 Z" id="Fill-9"></path>
        </g>
    </g>
</svg>