<?xml version="1.0" encoding="UTF-8" standalone="no"?>
<svg width="30px" height="30px" viewBox="0 0 30 30" version="1.1" xmlns="http://www.w3.org/2000/svg" xmlns:xlink="http://www.w3.org/1999/xlink">
    <!-- Generator: Sketch 3.7 (28169) - http://www.bohemiancoding.com/sketch -->
    <title>news</title>
    <desc>Created with Sketch.</desc>
    <defs></defs>
    <g id="Page-1" stroke="none" stroke-width="1" fill="none" fill-rule="evenodd">
        <g id="news" fill="#839098">
            <g transform="translate(7.000000, 7.000000)" id="Fill-218">
                <path d="M11.75,4.25 L4.25,4.25 C3.99078125,4.25 3.78125,4.46 3.78125,4.71875 C3.78125,4.97796875 3.99078125,5.1875 4.25,5.1875 L11.75,5.1875 C12.0092187,5.1875 12.21875,4.97796875 12.21875,4.71875 C12.21875,4.46 12.0092187,4.25 11.75,4.25 L11.75,4.25 Z M14.5625,13.625 C14.5625,14.1401562 14.0534375,14.568125 13.5392187,14.568125 L2.3628125,14.568125 C1.84859375,14.568125 1.43140625,14.1509375 1.43140625,13.6357812 L1.43140625,2.45234375 C1.43140625,1.9371875 1.8603125,1.4375 2.375,1.4375 L13.625,1.4375 C14.1396875,1.4375 14.5625,1.8603125 14.5625,2.375 L14.5625,13.625 L14.5625,13.625 Z M13.625,0.5 L2.375,0.5 C1.3465625,0.5 0.5,1.42296875 0.5,2.45234375 L0.5,13.6357812 C0.5,14.665625 1.33390625,15.5 2.3628125,15.5 L13.5392188,15.5 C14.568125,15.5 15.5,14.654375 15.5,13.625 L15.5,2.375 C15.5,1.345625 14.6534375,0.5 13.625,0.5 L13.625,0.5 Z M11.75,9.875 L4.25,9.875 C3.99078125,9.875 3.78125,10.085 3.78125,10.34375 C3.78125,10.6029687 3.99078125,10.8125 4.25,10.8125 L11.75,10.8125 C12.0092187,10.8125 12.21875,10.6029687 12.21875,10.34375 C12.21875,10.085 12.0092187,9.875 11.75,9.875 L11.75,9.875 Z M11.75,7.0625 L4.25,7.0625 C3.99078125,7.0625 3.78125,7.2725 3.78125,7.53125 C3.78125,7.79046875 3.99078125,8 4.25,8 L11.75,8 C12.0092187,8 12.21875,7.79046875 12.21875,7.53125 C12.21875,7.2725 12.0092187,7.0625 11.75,7.0625 L11.75,7.0625 Z"></path>
            </g>
        </g>
    </g>
</svg>