<?xml version="1.0" encoding="UTF-8" standalone="no"?>
<svg width="30px" height="30px" viewBox="0 0 30 30" version="1.1" xmlns="http://www.w3.org/2000/svg" xmlns:xlink="http://www.w3.org/1999/xlink">
    <!-- Generator: Sketch 3.7 (28169) - http://www.bohemiancoding.com/sketch -->
    <title>bell</title>
    <desc>Created with Sketch.</desc>
    <defs></defs>
    <g id="Page-1" stroke="none" stroke-width="1" fill="none" fill-rule="evenodd">
        <g id="bell" fill="#839098">
            <g transform="translate(7.000000, 6.000000)" id="Fill-67">
                <path d="M2.10669977,13.8214286 L3.71384262,10.6071429 L3.71384262,6.32142857 C3.71384262,3.95464286 5.63277119,2.03571429 7.99955691,2.03571429 C10.3663426,2.03571429 12.2852712,3.95464286 12.2852712,6.32142857 L12.2852712,10.6071429 L13.8924141,13.8214286 L2.10669977,13.8214286 L2.10669977,13.8214286 Z M7.99955691,15.9642857 C7.30044977,15.9642857 6.71223548,15.5158929 6.49098548,14.8928571 L9.50812834,14.8928571 C9.28687834,15.5158929 8.69866405,15.9642857 7.99955691,15.9642857 L7.99955691,15.9642857 Z M13.3566998,6.32142857 C13.3566998,3.36321429 10.9577712,0.964285714 7.99955691,0.964285714 C5.04134262,0.964285714 2.64241405,3.36321429 2.64241405,6.32142857 L2.64241405,10.6071429 L0.943558294,14.0048544 C0.6983431,14.4952848 0.949496484,14.8928571 1.49795937,14.8928571 L5.37509262,14.8928571 C5.62312834,16.1153571 6.70366405,17.0357143 7.99955691,17.0357143 C9.29544977,17.0357143 10.3759855,16.1153571 10.6240212,14.8928571 L14.5011545,14.8928571 C15.0525569,14.8928571 15.301803,14.4973493 15.0555555,14.0048544 L13.3566998,10.6071429 L13.3566998,6.32142857 Z"></path>
            </g>
        </g>
    </g>
</svg>