<?xml version="1.0" encoding="UTF-8" standalone="no"?>
<svg width="13px" height="13px" viewBox="0 0 13 13" version="1.1" xmlns="http://www.w3.org/2000/svg" xmlns:xlink="http://www.w3.org/1999/xlink">
    <!-- Generator: Sketch 3.8.3 (29802) - http://www.bohemiancoding.com/sketch -->
    <title>Fill 22</title>
    <desc>Created with Sketch.</desc>
    <defs></defs>
    <g id="detail_dream" stroke="none" stroke-width="1" fill="none" fill-rule="evenodd">
        <g id="EDIT-Copy" transform="translate(-687.000000, -415.000000)" fill="#ADADD6">
            <path d="M695.948469,418.684687 C695.753875,418.570938 695.505656,418.64 695.393531,418.830938 L692.795562,423.332187 L691.342,421.991562 C691.188437,421.829063 690.931281,421.820938 690.767563,421.975312 C690.603844,422.125625 690.595312,422.385625 690.748875,422.548125 L692.60625,424.2625 C692.759406,424.425 693.016562,424.433125 693.180281,424.27875 C693.229844,424.234062 696.097156,419.237188 696.097156,419.237188 C696.209281,419.04625 696.142656,418.794375 695.948469,418.684687 L695.948469,418.684687 Z M693.5,427.1875 C690.358875,427.1875 687.8125,424.640312 687.8125,421.5 C687.8125,418.359688 690.358875,415.8125 693.5,415.8125 C696.641125,415.8125 699.1875,418.359688 699.1875,421.5 C699.1875,424.640312 696.641125,427.1875 693.5,427.1875 L693.5,427.1875 Z M693.5,415 C689.910375,415 687,417.90875 687,421.5 C687,425.09125 689.910375,428 693.5,428 C697.089625,428 700,425.09125 700,421.5 C700,417.90875 697.089625,415 693.5,415 L693.5,415 Z" id="Fill-22"></path>
        </g>
    </g>
</svg>