<?xml version="1.0" encoding="UTF-8" standalone="no"?>
<svg width="30px" height="30px" viewBox="0 0 30 30" version="1.1" xmlns="http://www.w3.org/2000/svg" xmlns:xlink="http://www.w3.org/1999/xlink">
    <!-- Generator: Sketch 3.8.2 (29753) - http://www.bohemiancoding.com/sketch -->
    <title>photo</title>
    <desc>Created with Sketch.</desc>
    <defs></defs>
    <g id="Page-1" stroke="none" stroke-width="1" fill="none" fill-rule="evenodd">
        <g id="photo" stroke="#839098" stroke-width="0.9">
            <path d="M14.5,13.1 C13.09155,13.1 11.95,14.2424 11.95,15.65 C11.95,17.0576 13.09155,18.2 14.5,18.2 C15.9076,18.2 17.05,17.0576 17.05,15.65 C17.05,14.2424 15.9076,13.1 14.5,13.1 L14.5,13.1 Z M21.3,10.55 L19.26,10.55 C18.9795,10.55 18.6769,10.3324 18.58935,10.0655 L18.0615,8.48365 C17.97225,8.2176 17.67135,8 17.39,8 L11.61,8 C11.3295,8 11.0269,8.2176 10.93935,8.4828 L10.41065,10.0655 C10.32225,10.3324 10.0205,10.55 9.74,10.55 L7.7,10.55 C6.765,10.55 6,11.315 6,12.25 L6,19.9 C6,20.835 6.765,21.6 7.7,21.6 L21.3,21.6 C22.235,21.6 23,20.835 23,19.9 L23,12.25 C23,11.315 22.235,10.55 21.3,10.55 L21.3,10.55 Z M14.5,19.9 C12.1523,19.9 10.25,17.9977 10.25,15.65 C10.25,13.3023 12.1523,11.4 14.5,11.4 C16.84685,11.4 18.75,13.3023 18.75,15.65 C18.75,17.9977 16.84685,19.9 14.5,19.9 L14.5,19.9 Z M20.875,13.27 C20.54605,13.27 20.28,13.0031 20.28,12.67415 C20.28,12.3469 20.54605,12.07915 20.875,12.07915 C21.20395,12.07915 21.47,12.34605 21.47,12.67415 C21.47,13.0031 21.20395,13.27 20.875,13.27 L20.875,13.27 Z" id="Shape"></path>
        </g>
    </g>
</svg>