<?xml version="1.0" encoding="UTF-8" standalone="no"?>
<svg width="111px" height="111px" viewBox="0 0 111 111" version="1.1" xmlns="http://www.w3.org/2000/svg" xmlns:xlink="http://www.w3.org/1999/xlink">
    <!-- Generator: Sketch 3.8.2 (29753) - http://www.bohemiancoding.com/sketch -->
    <title>photoadd</title>
    <desc>Created with Sketch.</desc>
    <defs></defs>
    <g id="Page-1" stroke="none" stroke-width="1" fill="none" fill-rule="evenodd">
        <g id="photoadd">
            <g id="Group" transform="translate(7.000000, 7.000000)">
                <g id="add_photo" transform="translate(22.829268, 25.463415)">
                    <path d="M44.3488259,7.98890496 L34.2623314,7.98890496 C33.4796729,5.9928259 31.4607849,4.32942667 29.0931105,4.32942667 L20.4851916,4.32942667 C18.1173518,4.32942667 16.0986293,5.9928259 15.3158053,7.98890496 L5.28195147,7.98890496 C2.39134609,7.98890496 0,10.3437792 0,13.248407 L0,35.9446577 C0,38.8785612 2.41485233,41.2568895 5.33459221,41.2568895 L44.2961852,41.2568895 C47.2732008,41.2568895 49.6610706,38.8093638 49.6610706,35.8179067 L49.6610706,13.375158 C49.6610706,10.4128103 47.2968726,7.98890496 44.3488259,7.98890496 Z M25.0131128,34.6757575 C30.155685,34.6757575 34.3245635,30.5015872 34.3245635,25.3524872 C34.3245635,20.2033872 30.155685,16.0292169 25.0131128,16.0292169 C19.8705405,16.0292169 15.701662,20.2033872 15.701662,25.3524872 C15.701662,30.5015872 19.8705405,34.6757575 25.0131128,34.6757575 Z" id="Fill-1" stroke="#E5EBF0" stroke-width="2"></path>
                    <path d="M55.1619892,5.50091859 L55.1619892,8.25559749 C55.1619892,8.75043553 54.751515,9.16819766 54.2451695,9.16819766 C53.7352937,9.16819766 53.3283497,8.75961264 53.3283497,8.25559749 L53.3283497,5.50091859 L50.5736708,5.50091859 C50.0788328,5.50091859 49.6610706,5.0904444 49.6610706,4.58409883 C49.6610706,4.0742231 50.0696556,3.66727906 50.5736708,3.66727906 L53.3283497,3.66727906 L53.3283497,0.912600165 C53.3283497,0.417762125 53.7388239,-1.77635684e-15 54.2451695,-1.77635684e-15 C54.7550452,-1.77635684e-15 55.1619892,0.408585011 55.1619892,0.912600165 L55.1619892,3.66727906 L57.9166681,3.66727906 C58.4115062,3.66727906 58.8292683,4.07775325 58.8292683,4.58409883 C58.8292683,5.09397455 58.4206833,5.50091859 57.9166681,5.50091859 L55.1619892,5.50091859 Z" id="Rectangle-16" fill="#E5EBF0"></path>
                </g>
                <circle id="Oval-5" stroke="#E5EBF0" stroke-width="2" cx="48" cy="48" r="48"></circle>
            </g>
        </g>
    </g>
</svg>