<?xml version="1.0" encoding="iso-8859-1"?>
<!-- Generator: Adobe Illustrator 19.0.0, SVG Export Plug-In . SVG Version: 6.00 Build 0)  -->
<svg version="1.1" xmlns="http://www.w3.org/2000/svg" xmlns:xlink="http://www.w3.org/1999/xlink" x="0px" y="0px"
	 viewBox="0 0 11 11" style="enable-background:new 0 0 11 11;" xml:space="preserve">
<g id="search">
	<g id="XMLID_41_">
		<defs>
			<path id="XMLID_42_" d="M11,10.154c0-0.225-0.093-0.443-0.245-0.595L8.488,7.291c0.535-0.773,0.82-1.699,0.82-2.638
				C9.308,2.082,7.225,0,4.654,0S0,2.082,0,4.654s2.082,4.654,4.654,4.654c0.939,0,1.864-0.284,2.638-0.82l2.267,2.261
				C9.711,10.907,9.929,11,10.154,11C10.617,11,11,10.617,11,10.154z M7.615,4.654c0,1.633-1.329,2.962-2.962,2.962
				S1.692,6.287,1.692,4.654s1.329-2.962,2.962-2.962S7.615,3.021,7.615,4.654z"/>
		</defs>
		<use xlink:href="#XMLID_42_"  style="overflow:visible;fill-rule:evenodd;clip-rule:evenodd;fill:#FFF;"/>
		<clipPath id="XMLID_2_">
			<use xlink:href="#XMLID_42_"  style="overflow:visible;"/>
		</clipPath>
	</g>
</g>
<g id="Layer_1">
</g>
</svg>
