<?xml version="1.0" encoding="UTF-8" standalone="no"?>
<svg width="30px" height="30px" viewBox="0 0 30 30" version="1.1" xmlns="http://www.w3.org/2000/svg" xmlns:xlink="http://www.w3.org/1999/xlink">
    <!-- Generator: Sketch 3.7 (28169) - http://www.bohemiancoding.com/sketch -->
    <title>settings</title>
    <desc>Created with Sketch.</desc>
    <defs></defs>
    <g id="Page-1" stroke="none" stroke-width="1" fill="none" fill-rule="evenodd">
        <g id="settings" fill="#839098">
            <g id="Settings" transform="translate(7.000000, 7.000000)">
                <path d="M14.2601936,11.0671216 L13.764174,11.933156 C13.6271685,12.1726655 13.3241565,12.2541687 13.0866471,12.1161632 L11.7090925,11.3141314 C11.0100648,12.109663 10.0645273,12.6796856 8.99148472,12.8996943 L8.99148472,14.0002379 C8.99148472,14.2767489 8.76997593,14.5002578 8.49596507,14.5002578 L7.50392573,14.5002578 C7.22991487,14.5002578 7.00840608,14.2767489 7.00840608,14.0002379 L7.00840608,12.8996943 C5.93536353,12.6796856 4.98982604,12.109663 4.29079832,11.3141314 L2.9132437,12.1161632 C2.67573428,12.2541687 2.37272227,12.1726655 2.23571683,11.933156 L1.73969716,11.0671216 C1.60269173,10.8281121 1.68419496,10.5221 1.92120436,10.3845946 L3.3042592,9.57856259 C3.13975268,9.08154289 3.04124877,8.55302193 3.04124877,8 C3.04124877,7.44697807 3.13975268,6.91895713 3.3042592,6.42143741 L1.92120436,5.61590546 C1.68419496,5.47789999 1.60269173,5.17238788 1.73969716,4.93287838 L2.23571683,4.06684404 C2.37272227,3.82783456 2.67573428,3.74583131 2.9132437,3.88383678 L4.29079832,4.68586859 C4.98982604,3.89033704 5.93536353,3.32031444 7.00840608,3.10030571 L7.00840608,1.99976207 C7.00840608,1.72325111 7.22991487,1.49974225 7.50392573,1.49974225 L8.49596507,1.49974225 C8.76997593,1.49974225 8.99148472,1.72325111 8.99148472,1.99976207 L8.99148472,3.10030571 C10.0645273,3.32031444 11.0100648,3.89033704 11.7090925,4.68586859 L13.0866471,3.88383678 C13.3241565,3.74583131 13.6271685,3.82783456 13.764174,4.06684404 L14.2601936,4.93287838 C14.3971991,5.17238788 14.3156958,5.47789999 14.0786864,5.61590546 L12.6956316,6.42143741 C12.8601381,6.91895713 12.958642,7.44697807 12.958642,8 C12.958642,8.55302193 12.8601381,9.08154289 12.6956316,9.57856259 L14.0786864,10.3845946 C14.3156958,10.5221 14.3971991,10.8281121 14.2601936,11.0671216 L14.2601936,11.0671216 Z M15.0042231,9.76807011 L13.8426771,9.0920433 C13.9076797,8.73702923 13.9506814,8.37451485 13.9506814,8 C13.9506814,7.62598517 13.9076797,7.26297077 13.8426771,6.9079567 L15.0042231,6.23192989 C15.478742,5.95591895 15.6407484,5.34389468 15.3667375,4.86587572 L14.3751982,3.13380704 C14.1016874,2.65578809 13.4946633,2.49128156 13.0206445,2.76779253 L11.8470979,3.45031959 C11.2990762,2.98030096 10.6760515,2.59578571 9.98352405,2.34827589 L9.98352405,1.49974225 C9.98352405,0.947720359 9.53950645,0.499702593 8.99148472,0.499702593 L7.00840608,0.499702593 C6.46038435,0.499702593 6.01636675,0.947720359 6.01636675,1.49974225 L6.01636675,2.34827589 C5.32383929,2.59578571 4.70081458,2.98030096 4.15279285,3.45031959 L2.97924632,2.76779253 C2.50522752,2.49128156 1.89820345,2.65578809 1.6246926,3.13380704 L0.633153288,4.86587572 C0.359142422,5.34389468 0.521648866,5.95591895 0.995667662,6.23192989 L2.15721372,6.9079567 C2.09221114,7.26297077 2.04920944,7.62598517 2.04920944,8 C2.04920944,8.37451485 2.09221114,8.73702923 2.15721372,9.0920433 L0.995667662,9.76807011 C0.521648866,10.0440811 0.359142422,10.6561053 0.633153288,11.1341243 L1.6246926,12.866193 C1.89820345,13.3442119 2.50522752,13.5087184 2.97924632,13.2322075 L4.15279285,12.5496804 C4.70081458,13.019699 5.32383929,13.4047143 6.01636675,13.6517241 L6.01636675,14.5002578 C6.01636675,15.0522796 6.46038435,15.5002974 7.00840608,15.5002974 L8.99148472,15.5002974 C9.53950645,15.5002974 9.98352405,15.0522796 9.98352405,14.5002578 L9.98352405,13.6517241 C10.6760515,13.4047143 11.2990762,13.019699 11.8470979,12.5496804 L13.0206445,13.2322075 C13.4946633,13.5087184 14.1016874,13.3442119 14.3751982,12.866193 L15.3667375,11.1341243 C15.6407484,10.6561053 15.478742,10.0440811 15.0042231,9.76807011 L15.0042231,9.76807011 Z M7.9999454,9.50005948 C7.17841282,9.50005948 6.51238641,8.82853285 6.51238641,8 C6.51238641,7.17196717 7.17841282,6.49994052 7.9999454,6.49994052 C8.82147798,6.49994052 9.48750439,7.17196717 9.48750439,8 C9.48750439,8.82853285 8.82147798,9.50005948 7.9999454,9.50005948 L7.9999454,9.50005948 Z M7.9999454,5.49990086 C6.63039109,5.49990086 5.5208471,6.61894524 5.5208471,8 C5.5208471,9.38105476 6.63039109,10.5000991 7.9999454,10.5000991 C9.36949971,10.5000991 10.4795437,9.38105476 10.4795437,8 C10.4795437,6.61894524 9.36949971,5.49990086 7.9999454,5.49990086 L7.9999454,5.49990086 Z" id="Fill-172"></path>
            </g>
        </g>
    </g>
</svg>