<?xml version="1.0" encoding="UTF-8" standalone="no"?>
<svg width="30px" height="30px" viewBox="0 0 30 30" version="1.1" xmlns="http://www.w3.org/2000/svg" xmlns:xlink="http://www.w3.org/1999/xlink">
    <!-- Generator: Sketch 3.7 (28169) - http://www.bohemiancoding.com/sketch -->
    <title>rocket</title>
    <desc>Created with Sketch.</desc>
    <defs></defs>
    <g id="Page-1" stroke="none" stroke-width="1" fill="none" fill-rule="evenodd">
        <g id="rocket" stroke-width="0.5" stroke="#839098" fill="#839098">
            <g transform="translate(1.000000, 1.000000)" id="Fill-1">
                <g transform="translate(13.500000, 13.500000) rotate(-315.000000) translate(-13.500000, -13.500000) translate(7.000000, 1.000000)">
                    <path d="M6.62091775,6.56757873 C7.43690193,6.56757873 8.10077248,7.23144928 8.10077248,8.04765782 C8.10077248,8.29355242 8.03974754,8.53742781 7.92240915,8.75236123 C7.66327753,9.23068905 7.16430892,9.52751255 6.62091775,9.52751255 C6.10444935,9.52751255 5.63419836,9.2638938 5.3618297,8.82191171 C5.21711983,8.58768365 5.14106302,8.32025083 5.14106302,8.04765782 C5.14061431,7.23144928 5.80448486,6.56757873 6.62091775,6.56757873 M6.62091775,9.97577661 C7.32831344,9.97577661 7.97894696,9.58853749 8.31705204,8.96594851 C8.46961438,8.68550303 8.54948526,8.36781439 8.54948526,8.04743346 C8.54948526,6.98398419 7.68481574,6.1186416 6.62091775,6.1186416 C5.55701976,6.1186416 4.69212589,6.98353548 4.69212589,8.04743346 C4.69212589,8.40303834 4.79151577,8.75258559 4.97952642,9.05726156 C5.33400951,9.63251134 5.94784859,9.97577661 6.62091775,9.97577661"></path>
                    <path d="M2.35029392,12.2177976 C2.40638301,12.1639521 2.43038915,12.0845299 2.41401113,12.0082487 C2.25045533,11.2544113 2.16766782,10.4819522 2.16766782,9.71420468 C2.16766782,6.21065533 3.87008409,2.95614158 6.61957161,1.18395048 C9.36973221,2.95569287 11.0721485,6.21043098 11.0721485,9.71420468 C11.0721485,10.5021443 10.9839764,11.2945711 10.8118951,12.0699467 C10.8038182,12.1062925 10.8071836,12.1536317 10.8170553,12.1895287 C10.8284974,12.2272206 10.8491382,12.2615471 10.8776315,12.2886942 C11.2083328,12.6072803 11.5246753,12.9736543 11.8188065,13.3777201 L10.3010356,18.3810919 C9.73677926,17.820201 9.00223645,17.3968405 8.19343167,17.1713623 C8.17323959,17.1659777 8.15304752,17.1632855 8.13263109,17.1632855 C8.08439446,17.1632855 8.03660655,17.1783173 7.99711983,17.2086054 C7.94103073,17.2507844 7.9082747,17.3169696 7.9082747,17.3876418 L7.9082747,17.7387596 L5.31471486,17.7387596 L5.31471486,17.3176426 C5.31471486,17.2474191 5.28195883,17.1816827 5.22586973,17.1386062 C5.17000499,17.0964272 5.09776224,17.0825172 5.03000661,17.1013631 C4.22142619,17.3261682 3.48688338,17.7506505 2.92262706,18.3110927 L1.40530481,13.3086184 C1.70190396,12.9041038 2.01914389,12.5368324 2.35029392,12.2177976 M0.944476794,13.3344193 L2.60830376,18.8197087 C2.63208554,18.8991308 2.6975976,18.9581365 2.77859026,18.9740659 C2.86003163,18.9902195 2.94259478,18.9603801 2.99576724,18.897336 C3.46736437,18.32949 4.1236068,17.8841425 4.86667516,17.6238891 L4.86667516,17.9649108 C4.86667516,18.0889799 4.96696246,18.1892672 5.09103155,18.1892672 L8.13352851,18.1892672 C8.25804631,18.1892672 8.3578849,18.0889799 8.3578849,17.9649108 L8.3578849,17.6941127 C9.10117761,17.9539174 9.75742005,18.3997135 10.2294659,18.9675595 C10.272318,19.0189371 10.3367082,19.0481035 10.4024447,19.0481035 C10.4165791,19.0481035 10.4322841,19.0467573 10.4464185,19.043392 C10.5269625,19.0272383 10.5922502,18.9680082 10.6171537,18.8890348 L12.2809807,13.4037455 C12.3011728,13.3371116 12.2886088,13.2653176 12.2482247,13.2087798 C11.9444461,12.7816052 11.6175589,12.3927956 11.2745179,12.0519982 C11.4380737,11.281334 11.5204125,10.4958623 11.5204125,9.7151021 C11.5204125,6.00783716 9.68786957,2.56419097 6.73870485,0.728955723 C6.66601338,0.683860089 6.57470033,0.683860089 6.5013358,0.728955723 C3.55127366,2.56463968 1.71895504,6.0076128 1.71895504,9.71532646 C1.71895504,10.4736511 1.79658235,11.2355653 1.94959341,11.9822234 C1.60700121,12.3234695 1.27988959,12.7118304 0.976111045,13.1394536 C0.936399964,13.1962158 0.924284719,13.2677855 0.944476794,13.3344193" id="Fill-3"></path>
                    <path d="M4.8115783,20.2781025 L4.8115783,22.2677262 C4.8115783,22.4068169 4.92360271,22.5183401 5.0621922,22.5183401 C5.20078168,22.5183401 5.31280609,22.4068169 5.31280609,22.2677262 L5.31280609,20.2781025 C5.31280609,20.1400143 5.20078168,20.0274886 5.0621922,20.0274886 C4.9233521,20.0274886 4.8115783,20.1400143 4.8115783,20.2781025" id="Fill-6"></path>
                    <path d="M6.3465884,20.2781025 L6.3465884,23.7959697 C6.3465884,23.934058 6.45861281,24.0465836 6.5972023,24.0465836 C6.73579178,24.0465836 6.84781619,23.934058 6.84781619,23.7959697 L6.84781619,20.2781025 C6.84781619,20.1400143 6.73579178,20.0274886 6.5972023,20.0274886 C6.45861281,20.0274886 6.3465884,20.1400143 6.3465884,20.2781025" id="Fill-8"></path>
                    <path d="M8.06393961,20.0288475 C7.92535012,20.0288475 7.81332571,20.1413731 7.81332571,20.2794614 L7.81332571,22.2690851 C7.81332571,22.4081758 7.92535012,22.519699 8.06393961,22.519699 C8.20303032,22.519699 8.3145535,22.4081758 8.3145535,22.2690851 L8.3145535,20.2794614 C8.3145535,20.1413731 8.2027797,20.0288475 8.06393961,20.0288475" id="Fill-10"></path>
                </g>
            </g>
        </g>
    </g>
</svg>