<?xml version="1.0" encoding="UTF-8" standalone="no"?>
<svg width="6px" height="6px" viewBox="0 0 6 6" version="1.1" xmlns="http://www.w3.org/2000/svg" xmlns:xlink="http://www.w3.org/1999/xlink">
    <!-- Generator: Sketch 3.7 (28169) - http://www.bohemiancoding.com/sketch -->
    <title>time</title>
    <desc>Created with Sketch.</desc>
    <defs></defs>
    <g id="Page-1" stroke="none" stroke-width="1" fill="none" fill-rule="evenodd">
        <g id="time" fill="#839098">
            <path d="M0.428766603,3.03839575 C0.428766603,4.4801353 1.59665619,5.64802489 3.03839575,5.64802489 C4.4801353,5.64802489 5.64802489,4.4801353 5.64802489,3.03839575 C5.64802489,1.59665619 4.4801353,0.428766603 3.03839575,0.428766603 C1.59665619,0.428766603 0.428766603,1.59665619 0.428766603,3.03839575 M3.03839575,0.892902033 C4.22340096,0.892902033 5.18388946,1.85339054 5.18388946,3.03839575 C5.18388946,4.22340096 4.22340096,5.18388946 3.03839575,5.18388946 C1.85339054,5.18388946 0.892902033,4.22340096 0.892902033,3.03839575 C0.892902033,1.85339054 1.85339054,0.892902033 3.03839575,0.892902033" id="Fill-7"></path>
            <path d="M4.59541406,3.93726801 C4.53097877,4.04801616 4.38901978,4.08627461 4.27827163,4.02183932 L4.27726483,4.02183932 L2.92211019,3.23955466 C2.84760689,3.1962622 2.80733483,3.1187385 2.80733483,3.03819439 L2.80632803,3.03819439 L2.80632803,1.47261826 C2.80632803,1.34475449 2.91002857,1.24105395 3.03789235,1.24105395 C3.16676292,1.24105395 3.27046346,1.34475449 3.27046346,1.47261826 L3.27046346,2.9042898 L4.51084275,3.62012558 C4.6215909,3.68456086 4.65984935,3.82651986 4.59541406,3.93726801" id="Fill-9"></path>
        </g>
    </g>
</svg>