<?xml version="1.0" encoding="UTF-8" standalone="no"?>
<svg width="111px" height="111px" viewBox="0 0 111 111" version="1.1" xmlns="http://www.w3.org/2000/svg" xmlns:xlink="http://www.w3.org/1999/xlink">
    <!-- Generator: Sketch 3.7 (28169) - http://www.bohemiancoding.com/sketch -->
    <title>VIP</title>
    <desc>Created with Sketch.</desc>
    <defs></defs>
    <g id="Page-1" stroke="none" stroke-width="1" fill="none" fill-rule="evenodd">
        <g id="VIP" fill="#D9D9D9">
            <g id="Unknown" transform="translate(10.000000, 6.000000)">
                <g id="Слой_1">
                    <g id="Group">
                        <g id="Shape">
                            <path d="M35.1236467,87.2172853 C33.0618638,87.4935181 30.9899568,86.7267131 28.8475953,86.5931126 C30.0108319,83.5702584 33.6919383,82.4892605 36.9931901,82.4547956 C37.6524372,82.4477357 38.3346768,82.4563592 39.0207438,82.4947567 C39.3721847,82.6554064 39.721632,82.835631 40.0680138,83.0334702 C36.9601142,82.8117208 33.5203032,83.1823632 30.9525779,84.6544301 C33.8577169,83.7606759 37.3738036,83.4374573 40.0979805,83.5338329 C39.8368396,83.7646084 39.5745454,84.0024496 39.3028834,84.2477184 C38.1490205,85.2915206 36.692758,86.3780145 35.1236467,87.2172853 L35.1236467,87.2172853 L35.1236467,87.2172853 Z M32.2329317,78.1534718 C31.4904054,76.5830687 31.1923233,74.649083 31.3370947,72.8412353 C33.2509998,75.4405218 36.7993973,75.498535 38.3432041,78.2388493 C37.0282186,78.0476672 35.6840634,77.9959494 34.4021537,78.0049406 C34.0519065,77.5947339 33.7219048,77.1774265 33.4191229,76.7566301 C33.6008414,77.1848948 33.8230852,77.6029607 34.0772111,78.0088731 C33.4763066,78.0221935 32.8563939,78.0684093 32.2329317,78.1534718 L32.2329317,78.1534718 L32.2329317,78.1534718 Z M56.0260955,87.2172853 C58.0878754,87.4935181 60.1601795,86.7267131 62.302541,86.5931126 C61.1393101,83.5702584 57.458198,82.4892605 54.1565579,82.4547956 C53.4969021,82.4477357 52.8151031,82.4563592 52.1289982,82.4947567 C51.7775979,82.6554064 51.4281041,82.835631 51.0817688,83.0334702 C54.1896309,82.8117208 57.6298387,83.1823632 60.1971641,84.6544301 C57.2928219,83.7606759 53.7763383,83.4374573 51.0518081,83.5338329 C51.3132967,83.7646084 51.5751968,84.0024496 51.8468558,84.2477184 C53.0007274,85.2915206 54.4569841,86.3780145 56.0260955,87.2172853 L56.0260955,87.2172853 L56.0260955,87.2172853 Z M58.9168075,78.1534718 C59.6593397,76.5822634 59.9574246,74.649083 59.8126445,72.8412353 C57.8991449,75.4405218 54.3507417,75.498535 52.806932,78.2388493 C54.1215206,78.0476672 55.4660757,77.9959494 56.7475855,78.0049406 C57.0978326,77.5947339 57.4282313,77.1774265 57.7310161,76.7566301 C57.5488978,77.1848948 57.3270596,77.6025581 57.0725658,78.0088731 C57.6858662,78.0221935 58.3042662,78.0692146 58.9168075,78.1534718 L58.9168075,78.1534718 L58.9168075,78.1534718 Z M57.1854262,4.50896873 C56.9904369,0.880402398 54.2055733,1.75686113 52.6893716,0.103044738 C52.7224503,1.35724903 53.1766334,2.68507654 53.9892173,3.4792855 C54.2962673,3.77943618 54.6371553,4.01844101 55.0045271,4.20219852 C54.5550613,4.17435408 54.1074905,4.23273091 53.6665899,4.3879219 C52.762941,4.70684646 51.94688,5.56296602 51.4790784,6.51348877 C53.2256487,5.78668454 55.0535887,7.45422225 56.4821852,4.73974607 C55.4722939,4.80988141 54.1767945,5.0692684 53.1338246,5.51827028 C53.9436674,4.92976506 55.056689,4.65200247 56.1210605,4.57557093 C56.4133213,4.63238308 56.7153065,4.66411965 57.0289804,4.67198313 C55.8143698,4.05093958 54.6083764,3.13331612 53.975587,1.99939666 C54.8737768,3.0032417 56.136238,3.92989229 57.1854262,4.50896873 L57.1854262,4.50896873 L57.1854262,4.50896873 Z M66.7098545,83.4946711 C68.9856667,82.9300403 71.1139981,81.4548868 73.7104963,81.6868293 C71.8331817,79.7132385 69.172085,78.2435812 66.7086549,78.1601291 C65.7777805,78.1287566 64.8807497,78.2443455 64.0210918,78.4912129 C64.7857847,77.8733007 65.4240331,77.1194543 65.9077773,76.2198421 C66.8997325,74.3755691 66.972143,71.7935414 66.3432305,69.5711578 C64.7145739,73.0434097 59.9819324,73.3016311 60.608498,78.4833478 C60.9856056,78.5805229 61.3619193,78.6957152 61.73045,78.8293214 C63.0014822,77.3298493 64.2872978,75.4499504 65.1235955,73.6143009 C64.7196332,75.5329999 63.5618555,77.4109793 62.1694441,78.9974275 C62.8337476,79.26817 63.4723554,79.6047091 64.0580766,80.0165203 C65.7361368,79.8993676 67.4025255,80.028277 68.8809775,80.5242989 C67.5387403,80.3883704 66.0930018,80.3930614 64.67723,80.4988658 C64.815763,80.6183466 64.9508073,80.742565 65.0799986,80.873038 C65.8556092,81.6484319 66.3879747,82.5339184 66.7098545,83.4946711 L66.7098545,83.4946711 L66.7098545,83.4946711 Z M67.9563268,77.0328688 C74.3732524,80.9008459 76.1054276,75.0679132 80.6843297,74.3634565 C78.50463,72.9654537 75.7135424,72.2147347 73.417482,72.6990056 C72.5500123,72.8827603 71.7471816,73.1938663 71.0062025,73.6181927 C71.5755467,72.8729756 71.9954515,72.0309801 72.2402558,71.0882796 C72.7422488,69.1570188 72.2285786,66.753652 71.1470768,64.8423746 C70.3660474,68.7048496 65.4026316,69.9347812 68.3781845,75.5502529 C69.42892,73.7239913 70.4866734,71.1823272 70.9299326,68.8584744 C70.9949252,70.9393867 70.1811823,73.1876057 69.0771256,75.1149342 C68.6416376,75.5545473 68.2365221,76.042348 67.8605677,76.5748419 C70.3271098,75.1944947 73.2909913,74.17067 75.9571529,74.3888895 C73.2053912,74.7807172 70.160934,75.8903278 67.9563268,77.0328688 L67.9563268,77.0328688 L67.9563268,77.0328688 Z M74.44331,71.6050842 C81.1275831,74.0754613 81.7191344,68.3114992 85.8769669,66.8339768 C83.5917782,65.916715 80.8493524,65.7122127 78.7879258,66.576152 C78.0084495,66.9017397 77.3126205,67.3370642 76.6946203,67.8663899 C77.0950765,67.0678854 77.3390811,66.2043077 77.4029321,65.2784575 C77.5321175,63.3836686 76.6273096,61.2271284 75.2800076,59.6340171 C75.2297985,63.3852324 70.8042418,65.4210899 74.5779603,70.1424515 C75.2379638,68.2456556 75.7792942,65.6804781 75.7836001,63.4283266 C76.2120701,65.3627148 75.8466397,67.6109338 75.1554757,69.6107571 C74.825077,70.0989606 74.5308574,70.627481 74.2740222,71.1924735 C76.336602,69.4610648 78.9288349,67.9749189 81.4611345,67.7018077 C78.9552955,68.5598893 76.3046823,70.1424517 74.44331,71.6050842 L74.44331,71.6050842 L74.44331,71.6050842 Z M79.4401985,65.2376914 C86.1719397,66.0331093 85.44965,60.5633973 88.9731456,58.2681514 C86.6568369,57.9288467 84.0724159,58.3523678 82.353865,59.6120675 C81.7051388,60.0881116 81.1552489,60.6452858 80.7014658,61.2733503 C80.8956554,60.4446752 80.9314809,59.5912847 80.7867067,58.7202856 C80.4885811,56.9371591 79.1759514,55.1426318 77.5776266,53.9683914 C78.3578968,57.4527618 74.7095099,60.3267174 79.241703,63.8534526 C79.4354928,61.9508046 79.3720938,59.4549537 78.8797902,57.3693096 C79.7024925,59.0635286 79.85855,61.2263294 79.6592954,63.2332124 C79.4612057,63.7586056 79.305942,64.3134108 79.1918878,64.8940924 C80.7209141,62.8296278 82.7928588,60.875262 85.0768479,60.0575385 C82.947323,61.4116475 80.8411811,63.4682879 79.4401985,65.2376914 L79.4401985,65.2376914 L79.4401985,65.2376914 Z M82.9730186,58.4217412 C89.4226578,58.261856 88.0142633,53.2059213 91.0291131,50.5674382 C88.8007516,50.5603725 86.4214033,51.3079644 84.9706057,52.7271058 C84.42071,53.2638939 83.9786099,53.8633513 83.6334218,54.516131 C83.7069855,53.7090031 83.6272036,52.8999088 83.3734806,52.0990413 C82.8558986,50.4585064 81.3801587,48.9449147 79.716882,48.0535702 C80.9155039,51.2323306 77.861363,54.4318795 82.602135,57.1447887 C82.5317182,55.3256279 82.1386739,52.9821591 81.3968952,51.0826792 C82.3974621,52.5695893 82.8333035,54.5854635 82.9123318,56.5030013 C82.7959653,57.0253022 82.7235549,57.5691558 82.6935882,58.1317796 C83.8591371,55.9807355 85.5508679,53.8586603 87.5955174,52.7792262 C85.7687713,54.3425636 84.0572328,56.565309 82.9730186,58.4217412 L82.9730186,58.4217412 L82.9730186,58.4217412 Z M85.0523406,51.342826 C91.0474027,50.0055731 88.8132287,45.5431971 91.1497797,42.5231142 C89.0669576,42.9274629 86.9810234,44.0641081 85.883579,45.6556558 C85.4679395,46.2582843 85.1632422,46.8992694 84.9597283,47.5735934 C84.8818589,46.8060269 84.6604496,46.0646956 84.2782828,45.3633692 C83.4960655,43.9265723 81.8436605,42.7848277 80.1282159,42.2586323 C81.8253652,45.0060473 79.5542125,48.5574191 84.4740314,50.2179346 C84.0778809,48.5319803 83.2851281,46.4150016 82.247223,44.7783933 C83.4524628,45.9812436 84.2257614,47.7851558 84.6475786,49.5612633 C84.6335891,50.0714107 84.6647149,50.5921127 84.7394318,51.1230429 C85.4372139,48.8994953 86.6315762,46.6061807 88.3446738,45.2215392 C86.9222838,47.0175863 85.7279213,49.4084378 85.0523406,51.342826 L85.0523406,51.342826 L85.0523406,51.342826 Z M85.8185865,44.3133064 C91.1645632,41.9432348 88.254762,38.1978746 89.8764006,34.9426811 C88.0076512,35.7106502 86.272364,37.1619344 85.5426623,38.8522209 C85.2667727,39.4916394 85.100197,40.1475465 85.0356043,40.8144109 C84.8203725,40.1130845 84.4775375,39.4634349 83.9914811,38.8800256 C82.9963733,37.685761 81.2427966,36.9303507 79.5456415,36.7607159 C81.6370405,39.0065691 80.173366,42.7444669 85.0706302,43.3725722 C84.3887907,41.8734648 83.2586674,40.047244 81.9884349,38.7150846 C83.334184,39.6123248 84.3899843,41.1490275 85.1110802,42.7276545 C85.1920559,43.2052652 85.3177409,43.6860034 85.4850758,44.1675437 C85.7248153,41.9624131 86.4163386,39.5982432 87.7581874,37.9866741 C86.7634795,39.9285247 86.0913989,42.3820485 85.8185865,44.3133064 L85.8185865,44.3133064 L85.8185865,44.3133064 Z M85.4329485,37.5651162 C90.1344295,34.5877251 86.8806399,31.4716312 87.9566828,28.1815732 C86.3054368,29.1653987 84.8725346,30.7733942 84.4195512,32.4660495 C84.2483161,33.1066728 84.1817646,33.7468935 84.2128905,34.3835874 C83.9136523,33.7531541 83.5015188,33.1897254 82.9633004,32.709349 C81.8627499,31.7255234 80.1079793,31.2592697 78.4886878,31.3372226 C80.7653055,33.1583906 79.9056128,36.8801996 84.5997166,36.7853904 C83.7517417,35.4696816 82.4359594,33.9102709 81.0563725,32.8343667 C82.4464776,33.4898361 83.6517174,34.7883328 84.5487482,36.1726126 C84.6904164,36.6110238 84.8760408,37.0451785 85.099403,37.4742017 C85.0208151,35.3662461 85.3446016,33.0463285 86.3844305,31.341158 C85.7162499,33.3088472 85.4231894,35.7106502 85.4329485,37.5651162 L85.4329485,37.5651162 L85.4329485,37.5651162 Z M84.0222068,31.225566 C88.0376177,27.7744587 84.5530133,25.2938946 85.1153801,22.0508574 C83.6964673,23.2043558 82.5679031,24.9150254 82.3729137,26.5700448 C82.2993906,27.1965454 82.3250515,27.8065957 82.4410182,28.4017618 C82.0736755,27.8508919 81.6082208,27.3779371 81.0373234,27.0006318 C79.8674745,26.227607 78.1543828,26.0320928 76.6412988,26.3290735 C79.0323301,27.7258684 78.7307448,31.3458521 83.1329819,30.6060873 C82.1546104,29.4870947 80.7045719,28.2027176 79.2607922,27.3807057 C80.6578689,27.8057935 81.9681979,28.8605939 83.000638,30.0379645 C83.1944684,30.4301948 83.4267958,30.8125939 83.6964671,31.1860076 C83.3349426,29.2139834 83.3225121,26.9873113 84.0681098,25.2398109 C83.7077853,27.1824229 83.7599069,29.4823978 84.0222068,31.225566 L84.0222068,31.225566 L84.0222068,31.225566 Z M81.725341,25.4141805 C85.0398753,21.6249631 81.430368,19.7650037 81.5260923,16.6402863 C80.3457599,17.9164365 79.5133623,19.6776586 79.5522594,21.2609415 C79.5658839,21.8588732 79.6725261,22.4297266 79.8608567,22.9731748 C79.440952,22.5045945 78.9405121,22.1237184 78.3536318,21.8459568 C77.1495509,21.2770303 75.5131347,21.3263808 74.1304068,21.8110499 C76.5646293,22.80001 76.7650777,26.2444192 80.8045963,24.9526206 C79.7371244,24.0330294 78.2010861,23.0217623 76.7339518,22.4454142 C78.104168,22.6542473 79.4775424,23.4692404 80.6053476,24.4366138 C80.8400337,24.7790533 81.1104874,25.1070068 81.4132317,25.4212402 C80.8088615,23.6165272 80.5002585,21.5238567 80.9680659,19.7802903 C80.889049,21.6551381 81.2451434,23.8108761 81.725341,25.4141805 L81.725341,25.4141805 L81.725341,25.4141805 Z M78.6886955,20.2179387 C81.3066356,16.2159587 77.6702796,14.9472708 77.3507583,11.9969216 C76.4089716,13.3541581 75.8583225,15.1200754 76.1011682,16.6022916 C76.1929806,17.1625902 76.3677275,17.6856568 76.6160323,18.1707286 C76.1607018,17.7867644 75.6399789,17.4948366 75.0507862,17.3122825 C73.8455522,16.9373066 72.3138195,17.2009876 71.0770192,17.840046 C73.4953051,18.4461636 74.13586,21.657462 77.7632917,19.9068342 C76.6381987,19.1839591 75.0624634,18.4371768 73.6073658,18.0908064 C74.9227483,18.1052893 76.3206247,18.6879373 77.5076097,19.4468788 C77.7737692,19.738003 78.0699418,20.0110704 78.3960348,20.2657635 C77.5920509,18.6491373 77.0269719,16.7241413 77.2379036,15.0229004 C77.4095385,16.795838 78.0274982,18.7741183 78.6886955,20.2179387 L78.6886955,20.2179387 L78.6886955,20.2179387 Z M75.0589574,15.6890003 C77.0036289,11.5882822 73.4236945,10.870465 72.7442019,8.14070481 C72.0335894,9.53870316 71.7440753,11.2693147 72.162427,12.631283 C72.3211967,13.1449238 72.552365,13.6135449 72.8485319,14.0371099 C72.3714117,13.7353946 71.8452587,13.5292905 71.2677433,13.4344828 C70.0870111,13.2401326 68.6817285,13.6876106 67.6025736,14.449681 C69.951961,14.7035688 70.9672706,17.6363078 74.1494902,15.5177611 C72.9998837,14.9852656 71.423401,14.4900446 70.0114945,14.3533066 C71.2494538,14.1965531 72.6376118,14.5609392 73.8510112,15.119273 C74.1374132,15.3579164 74.4510754,15.5761388 74.7908448,15.7728127 C73.8265034,14.3587663 73.0489396,12.6242245 73.0263443,10.9985736 C73.4166881,12.6410762 74.2518267,14.4202717 75.0589574,15.6890003 L75.0589574,15.6890003 L75.0589574,15.6890003 Z M70.9735294,11.8558535 C72.2740879,7.75513539 68.8233967,7.54594056 67.8360601,5.07083323 C67.3480507,6.47509275 67.2970825,8.1375753 67.8637145,9.36156793 C68.0789058,9.8235296 68.3559891,10.23257 68.6871875,10.5918976 C68.2003314,10.3705085 67.6804024,10.2455293 67.1266412,10.2310049 C65.9937712,10.2016364 64.73131,10.8034613 63.8163837,11.6584146 C66.0537044,11.5925749 67.3811235,14.213806 70.0978941,11.8135659 C68.9502463,11.4625008 67.4075898,11.2007464 66.0653816,11.2563954 C67.2071879,10.9484216 68.5560372,11.1114357 69.7663363,11.4777845 C70.065615,11.6650748 70.3886017,11.8280473 70.7318309,11.9698797 C69.6472286,10.7670309 68.6945586,9.2393573 68.4668904,7.71637549 C69.041694,9.20798246 70.0542974,10.7693582 70.9735294,11.8558535 L70.9735294,11.8558535 L70.9735294,11.8558535 Z M66.5557035,8.72567933 C67.2523322,4.71270691 63.9899718,4.96190297 62.7489063,2.77009441 C62.4706698,4.14967907 62.6348984,5.71498727 63.3233155,6.78892437 C63.5828975,7.19407311 63.8942129,7.54200867 64.2507129,7.83585978 C63.7673687,7.69166301 63.2633763,7.64151031 62.742294,7.70028864 C61.6759754,7.81824649 60.5699658,8.54661556 59.8204562,9.46620519 C61.9090967,9.11433789 63.4890913,11.4005926 65.7299298,8.79894113 C64.6091252,8.61831099 63.12912,8.57285509 61.8775826,8.79894113 C62.9084698,8.36129367 64.1946447,8.34051079 65.3761708,8.52739781 C65.6808681,8.66453333 66.0046487,8.77583096 66.3444239,8.86357746 C65.1734102,7.87702497 64.0860958,6.56757306 63.6778623,5.16880996 C64.4075238,6.49350811 65.5551773,7.8260702 66.5557035,8.72567933 L66.5557035,8.72567933 L66.5557035,8.72567933 Z M61.9188211,6.28977009 C62.0554301,2.44137751 59.0327741,3.10041636 57.5889887,1.20992213 C57.5061007,2.5377498 57.860613,3.98197032 58.6428361,4.89802895 C58.9390087,5.24363721 59.2756198,5.52846105 59.6472684,5.7576763 C59.1755957,5.68481538 58.6973106,5.70439485 58.2167132,5.82624192 C57.2344416,6.0762428 56.2918957,6.90178729 55.7089213,7.8605351 C57.6201143,7.259913 59.3919863,9.19389926 61.1548875,6.4657042 C60.0831155,6.44259418 58.6918515,6.5938129 57.5488978,6.96722507 C58.4583649,6.4241779 59.6593397,6.23648865 60.7898569,6.25843548 C61.0918478,6.34618182 61.4086164,6.40889205 61.738621,6.44648569 C60.5158914,5.67578565 59.3289409,4.59165992 58.767368,3.334727 C59.6212017,4.48000118 60.8661326,5.57785098 61.9188211,6.28977009 L61.9188211,6.28977009 L61.9188211,6.28977009 Z M33.9647216,4.50896873 C34.1585462,0.880402398 36.9441747,1.75686113 38.4603649,0.103044738 C38.427289,1.35724903 37.9727149,2.68507654 37.1605626,3.4792855 C36.8538805,3.77943618 36.5125957,4.01844101 36.1452123,4.20219852 C36.5946867,4.17435408 37.042246,4.23273091 37.4831523,4.3879219 C38.3868012,4.70684646 39.2028998,5.56296602 39.6706638,6.51348877 C37.9240993,5.78668454 36.0961969,7.45422225 34.6675571,4.73974607 C35.6774483,4.80988141 36.9733446,5.0692684 38.0163175,5.51827028 C37.2060719,4.92976506 36.0930878,4.65200247 35.028728,4.57557093 C34.7368178,4.63238308 34.4344328,4.66411965 34.1211675,4.67198313 C35.3357694,4.05093958 36.5414062,3.13331612 37.1745493,1.99939666 C36.2763593,3.0032417 35.0138981,3.92989229 33.9647216,4.50896873 L33.9647216,4.50896873 L33.9647216,4.50896873 Z M24.4399339,83.4946711 C22.1644723,82.9300403 20.0357396,81.4548868 17.4396413,81.6868293 C19.316559,79.7132385 21.9776992,78.2435812 24.4410902,78.1601291 C25.3719559,78.1287566 26.2689925,78.2443455 27.1290445,78.4912129 C26.3643545,77.8733007 25.7257091,77.1194543 25.2423648,76.2198421 C24.2504051,74.3755691 24.1779977,71.7935414 24.8065175,69.5711578 C26.4355652,73.0434097 31.1678098,73.3016311 30.5416383,78.4833478 C30.1621895,78.5820923 29.787029,78.6965145 29.4196892,78.8293214 C28.148657,77.3306546 26.862485,75.4499504 26.0261409,73.6143009 C26.4301061,75.5338051 27.5890456,77.4117378 28.9802981,78.9974275 C28.3105704,79.2720617 27.6734809,79.6082448 27.0928594,80.0165203 C25.4140053,79.8993676 23.7476123,80.028277 22.2687617,80.5242989 C23.6121607,80.3883704 25.0567402,80.3938257 26.4725468,80.4988658 C26.3343847,80.6183466 26.1989348,80.7433235 26.0697377,80.873038 C25.295683,81.6484319 24.7629236,82.5347177 24.4399339,83.4946711 L24.4399339,83.4946711 L24.4399339,83.4946711 Z M23.1934124,77.0328688 C16.7764896,80.9008459 15.04431,75.0679132 10.4654109,74.3634565 C12.6455161,72.9654537 15.4361996,72.2147347 17.732263,72.6990056 C18.5997284,72.8827603 19.4029603,73.1938663 20.1435353,73.6181927 C19.574591,72.8729756 19.154692,72.0309801 18.9094862,71.0882796 C18.4078481,69.1570188 18.9211692,66.753652 20.0030624,64.8423746 C20.7837338,68.7048496 25.7471106,69.9347812 22.7715548,75.5502529 C21.7208178,73.7239913 20.6630659,71.1823272 20.220208,68.8584744 C20.1548142,70.9393867 20.9689584,73.1876057 22.0714619,75.1149342 C22.5085087,75.5545473 22.913223,76.042348 23.2891787,76.5748419 C20.822628,75.1944947 17.8591536,74.17067 15.1925936,74.3888895 C17.944387,74.7807172 20.9892021,75.8903278 23.1934124,77.0328688 L23.1934124,77.0328688 L23.1934124,77.0328688 Z M16.706432,71.6050842 C10.0221597,74.0754613 9.43101188,68.3114992 5.27278096,66.8339768 C7.55796017,65.916715 10.3003897,65.7122127 12.3618147,66.576152 C13.141688,66.9017397 13.837517,67.3370642 14.4543293,67.8663899 C14.0546625,67.0678854 13.8110564,66.2043077 13.7468578,65.2784575 C13.617623,63.3836686 14.522428,61.2271284 15.8701301,59.6340171 C15.9203421,63.3852324 20.3447413,65.4210899 16.5721759,70.1424515 C15.911774,68.2456556 15.370445,65.6804781 15.366142,63.4283266 C14.937669,65.3627148 15.3034964,67.6109338 15.9946633,69.6107571 C16.324665,70.0989606 16.6180834,70.627481 16.8757169,71.1924735 C14.8131372,69.4610648 12.2213026,67.9749189 9.68864522,67.7018077 C12.1948421,68.5598893 14.8450569,70.1424517 16.706432,71.6050842 L16.706432,71.6050842 L16.706432,71.6050842 Z M11.7095826,65.2376914 C4.97780235,66.0331093 5.70009158,60.5633973 2.17699111,58.2681514 C4.49330541,57.9288467 7.07772236,58.3523678 8.79587536,59.6120675 C9.4446406,60.0881116 9.99334176,60.6452858 10.4482753,61.2733503 C10.2544879,60.4446752 10.2182977,59.5912847 10.3630345,58.7202856 C10.6611564,56.9371591 11.9741896,55.1426318 13.5721138,53.9683914 C12.7922,57.4527618 16.440232,60.3267174 11.9080374,63.8534526 C11.7142447,61.9508046 11.7776864,59.4549537 12.2703587,57.3693096 C11.4476449,59.0635286 11.2911925,61.2263294 11.4904448,63.2332124 C11.6885411,63.7586056 11.8441973,64.3134108 11.957851,64.8940924 C10.4292267,62.8296278 8.35692278,60.875262 6.07289266,60.0575385 C8.20242193,61.4116475 10.3089579,63.4682879 11.7095826,65.2376914 L11.7095826,65.2376914 L11.7095826,65.2376914 Z M8.1759613,58.4217412 C1.72707974,58.261856 3.13547464,53.2059213 0.12022899,50.5674382 C2.34938466,50.5603725 4.72833786,51.3079644 6.17953243,52.7271058 C6.72942888,53.2638939 7.17153053,53.8633513 7.51631642,54.516131 C7.44315125,53.7090031 7.52293161,52.8999088 7.77626131,52.0990413 C8.29424378,50.4585064 9.76958181,48.9449147 11.4328664,48.0535702 C10.234238,51.2323306 13.2887761,54.4318795 8.5476069,57.1447887 C8.61842147,55.3256279 9.01146646,52.9821591 9.75284459,51.0826792 C8.75231898,52.5695893 8.31683252,54.5854635 8.23780916,56.5030013 C8.35381427,57.0253022 8.42618264,57.5691558 8.45614995,58.1317796 C7.29060313,55.9807355 5.59771549,53.8586603 3.55422311,52.7792262 C5.38136769,54.3425636 7.09250716,56.565309 8.1759613,58.4217412 L8.1759613,58.4217412 L8.1759613,58.4217412 Z M6.09740071,51.342826 C0.102335985,50.0055731 2.33651264,45.5431971 0,42.5231142 C2.08278492,42.9274629 4.16911633,44.0641081 5.26615969,45.6556558 C5.68219873,46.2582843 5.98650257,46.8992694 6.19005279,47.5735934 C6.26788088,46.8060269 6.48929023,46.0646956 6.87185466,45.3633692 C7.65368081,43.9265723 9.30647926,42.7848277 11.0215239,42.2586323 C9.32437819,45.0060473 11.5959287,48.5574191 6.67610899,50.2179346 C7.07226234,48.5319803 7.86500808,46.4150016 8.90251528,44.7783933 C7.69768184,45.9812436 6.92437744,47.7851558 6.50252031,49.5612633 C6.51614903,50.0714107 6.48503201,50.5921127 6.41030651,51.1230429 C5.71252487,48.8994953 4.51820632,46.6061807 2.80507431,45.2215392 C4.22750324,47.0175863 5.42182179,49.4084378 6.09740071,51.342826 L6.09740071,51.342826 L6.09740071,51.342826 Z M5.33155434,44.3133064 C-0.0147844943,41.9432348 2.89497716,38.1978746 1.27334191,34.9426811 C3.14093436,35.7106502 4.87737853,37.1619344 5.6074787,38.8522209 C5.88336356,39.4916394 6.04954009,40.1475465 6.11413748,40.8144109 C6.32976839,40.1130845 6.672602,39.4634349 7.15829983,38.8800256 C8.15336572,37.685761 9.90734438,36.9303507 11.6040975,36.7607159 C9.5131035,39.0065691 10.9767715,42.7444669 6.07950786,43.3725722 C6.75979512,41.8734648 7.8914684,40.047244 9.16170241,38.7150846 C7.81595187,39.6123248 6.75979512,41.1490275 6.03866075,42.7276545 C5.95808329,43.2052652 5.83239488,43.6860034 5.66466409,44.1675437 C5.42492361,41.9624131 4.73379682,39.5982432 3.39155357,37.9866741 C4.38666002,39.9285247 5.05873803,42.3820485 5.33155434,44.3133064 L5.33155434,44.3133064 L5.33155434,44.3133064 Z M5.71682881,37.5651162 C1.0153101,34.5877251 4.26914091,31.4716312 3.19309847,28.1815732 C4.84430286,29.1653987 6.27760458,30.7733942 6.73018664,32.4660495 C6.90182228,33.1066728 6.96797378,33.7468935 6.93685099,34.3835874 C7.23612838,33.7531541 7.64862032,33.1897254 8.18644185,32.709349 C9.28739082,31.7255234 11.0417679,31.2592697 12.6610588,31.3372226 C10.3844744,33.1583906 11.2441288,36.8801996 6.55042119,36.7853904 C7.39840476,35.4696816 8.71418206,33.9102709 10.0933668,32.8343667 C8.70326323,33.4898361 7.49842964,34.7883328 6.60139519,36.1726126 C6.45932276,36.6110238 6.2740976,37.0451785 6.05073597,37.4742017 C6.12932106,35.3662461 5.80553577,33.0463285 4.76567767,31.341158 C5.43389047,33.3088472 5.72655236,35.7106502 5.71682881,37.5651162 L5.71682881,37.5651162 L5.71682881,37.5651162 Z M7.12793359,31.225566 C3.11212237,27.7744587 6.59712573,25.2938946 6.03435712,22.0508574 C7.45327313,23.2043558 8.5818382,24.9150254 8.7768325,26.5700448 C8.85035117,27.1965454 8.82468735,27.8065957 8.70872219,28.4017618 C9.07610988,27.8508919 9.54151747,27.3779371 10.1124154,27.0006318 C11.2822657,26.227607 12.9953576,26.0320928 14.5088385,26.3290735 C12.1178101,27.7258684 12.4193983,31.3458521 8.01715772,30.6060873 C8.99512786,29.4870947 10.4451671,28.2027176 11.8889489,27.3807057 C10.4918717,27.8057935 9.1815483,28.8605939 8.14910234,30.0379645 C7.95530971,30.4301948 7.7233402,30.8125939 7.45327328,31.1860076 C7.81479701,29.2139834 7.82726964,26.9873113 7.08162768,25.2398109 C7.44199577,27.1824229 7.38983152,29.4823978 7.12793359,31.225566 L7.12793359,31.225566 L7.12793359,31.225566 Z M9.42440261,25.4141805 C6.1098741,21.6249631 9.71936983,19.7650037 9.62365497,16.6402863 C10.8043791,17.9164365 11.6364167,19.6776586 11.5978811,21.2609415 C11.5838539,21.8588732 11.4772138,22.4297266 11.2888809,22.9731748 C11.708785,22.5045945 12.2092677,22.1237184 12.7961059,21.8459568 C13.9993899,21.2770303 15.6366072,21.3263808 17.0196973,21.8110499 C14.5851126,22.80001 14.3850627,26.2444192 10.3451419,24.9526206 C11.4126168,24.0330294 12.9486529,23.0217623 14.4158277,22.4454142 C13.0455696,22.6542473 11.6726008,23.4692404 10.5443943,24.4366138 C10.3097546,24.7790533 10.0392495,25.1070068 9.73690431,25.4212402 C10.3408781,23.6165272 10.6498783,21.5238567 10.1820738,19.7802903 C10.2606988,21.6551381 9.905,23.8108761 9.42440261,25.4141805 L9.42440261,25.4141805 L9.42440261,25.4141805 Z M12.4610422,20.2179387 C9.84314546,16.2159587 13.4795015,14.9472708 13.7989822,11.9969216 C14.740769,13.3541581 15.2914224,15.1200754 15.0486129,16.6022916 C14.9571569,17.1625902 14.7824113,17.6856568 14.5341039,18.1707286 C14.9890374,17.7867644 15.5097632,17.4948366 16.099357,17.3122825 C17.3041899,16.9373066 18.8359616,17.2009876 20.0731196,17.840046 C17.6544353,18.4461636 17.0142774,21.657462 13.3868487,19.9068342 C14.511549,19.1839591 16.0872756,18.4371768 17.5427411,18.0908064 C16.2269921,18.1052893 14.8295156,18.6879373 13.6409817,19.4468788 C13.3759754,19.738003 13.0798,20.0110704 12.7537041,20.2657635 C13.5580922,18.6491373 14.1227727,16.7241413 13.9122365,15.0229004 C13.7406078,16.795838 13.122241,18.7741183 12.4610422,20.2179387 L12.4610422,20.2179387 L12.4610422,20.2179387 Z M16.0907832,15.6890003 C14.1461203,11.5882822 17.7260534,10.870465 18.4059358,8.14070481 C19.1161513,9.53870316 19.4060623,11.2693147 18.9873208,12.631283 C18.8285498,13.1449238 18.5973771,13.6135449 18.3012478,14.0371099 C18.7787361,13.7353946 19.3048818,13.5292905 19.8820364,13.4344828 C21.0627658,13.2401326 22.4680136,13.6876106 23.5471641,14.449681 C21.1977796,14.7035688 20.1824699,17.6363078 17.0002505,15.5177611 C18.149857,14.9852658 19.7267395,14.4900448 21.1386417,14.3533068 C19.9006925,14.1965532 18.5125361,14.5609393 17.2987311,15.1192731 C17.0123306,15.3579165 16.6986624,15.576139 16.3588974,15.7728128 C17.3232778,14.3587665 18.1008013,12.6242246 18.1222013,10.9985737 C17.7334596,12.6410762 16.8979139,14.4202717 16.0907832,15.6890003 L16.0907832,15.6890003 L16.0907832,15.6890003 Z M20.176611,11.8558535 C18.8756526,7.75513539 22.3263917,7.54594056 23.3136804,5.07083323 C23.8020881,6.47509275 23.8530623,8.1375753 23.2848684,9.36156793 C23.0708319,9.8235296 22.7937514,10.23257 22.4629529,10.5918976 C22.9494078,10.3705085 23.4693367,10.2455293 24.0234976,10.2310049 C25.1559679,10.2016364 26.4184291,10.8034613 27.3337552,11.6584146 C25.0964314,11.5925749 23.7686141,14.213806 21.0518477,11.8135659 C22.1995012,11.4625008 23.742152,11.2007464 25.0843949,11.2563954 C23.9425612,10.9484216 22.5937422,11.1114357 21.383404,11.4777845 C21.0841658,11.6650748 20.7611385,11.8280473 20.4183048,11.9698797 C21.5025159,10.7670309 22.4551815,9.2393573 22.6832452,7.71637549 C22.1080436,9.20798246 21.095843,10.7693582 20.176611,11.8558535 L20.176611,11.8558535 L20.176611,11.8558535 Z M24.5936386,8.72567933 C23.8966534,4.71270691 27.1601672,4.96190297 28.4012298,2.77009441 C28.6791071,4.14967907 28.5148842,5.71498727 27.8268264,6.78892437 C27.5668416,7.19407311 27.255929,7.54200867 26.898667,7.83585978 C27.3827734,7.69166301 27.8863629,7.64151031 28.4074481,7.70028864 C29.4737667,7.81824649 30.5797763,8.54661556 31.3296828,9.46620519 C29.2394863,9.11433789 27.6606506,11.4005926 25.420215,8.79894113 C26.5410109,8.61831099 28.020625,8.57285509 29.2725622,8.79894113 C28.2401162,8.36129367 26.9554944,8.34051079 25.7735713,8.52739781 C25.4692711,8.66453333 25.1454875,8.77583096 24.8053645,8.86357746 C25.9763289,7.87702497 27.0636492,6.56757306 27.4719173,5.16880996 C26.7422212,6.49350811 25.5949589,7.8260702 24.5936386,8.72567933 L24.5936386,8.72567933 L24.5936386,8.72567933 Z M29.229762,6.28977009 C29.094709,2.44137751 32.1169679,3.10041636 33.5607912,1.20992213 C33.6440385,2.5377498 33.2891292,3.98197032 32.5069061,4.89802895 C32.210777,5.24363721 31.8741195,5.52846105 31.5024738,5.7576763 C31.9745435,5.68481538 32.4528286,5.70439485 32.9330667,5.82624192 C33.9157063,6.0762428 34.8582406,6.90178729 35.4408151,7.8605351 C33.5296279,7.259913 31.7581557,9.19389926 29.9952488,6.4657042 C31.0666296,6.44259418 32.4578878,6.5938129 33.6008415,6.96722507 C32.6913715,6.4241779 31.4904055,6.23648865 30.3602794,6.25843548 C30.0578944,6.34618182 29.7415199,6.40889205 29.4111212,6.44648569 C30.6342506,5.67578565 31.8207983,4.59165992 32.3820148,3.334727 C31.5289344,4.48000118 30.2836066,5.57785098 29.229762,6.28977009 L29.229762,6.28977009 L29.229762,6.28977009 Z"></path>
                            <g transform="translate(24.824504, 78.525495)">
                                <path d="M18.3396971,3.79176773 C16.9184635,3.34428969 14.9940458,3.04337656 12.1589642,3.07354722 C7.98713649,3.11824021 2.53531427,4.86413617 2.80928575,10.5920696 C3.6327558,10.8855203 4.49826686,11.0442444 5.17656266,11.0442444 C8.69464275,11.0442444 12.5084521,8.65572089 15.047364,6.35891135 C16.3183556,5.20894283 17.0566254,4.52326188 18.3396971,3.79176773 L18.3396971,3.79176773 L18.3396971,3.79176773 Z M3.46152365,12.1236784 L0.742840639,9.38645655 C0.381275593,9.02287403 0.146238897,8.60713042 0.108857309,8.14637278 C-0.366677928,2.18532998 5.19800169,0.381420742 9.44064339,0.336762782 C16.0299978,0.266630954 18.0038307,1.61524395 19.5445313,3.16602539 L22.2632491,5.90364983 C20.1411329,6.91881013 19.3869206,7.63036752 17.765285,9.09613308 C15.2275293,11.3921375 11.4133201,13.7818279 7.89452421,13.7810228 C6.56084935,13.781828 4.49711351,13.1666815 3.46152365,12.1236784 L3.46152365,12.1236784 L3.46152365,12.1236784 Z"></path>
                                <path d="M23.161439,3.79176773 C24.5822757,3.34428969 26.5078814,3.04337656 29.3417661,3.07354722 C33.5135939,3.11824021 38.965419,4.86413617 38.6926008,10.5920696 C37.8679746,10.8855203 37.0028693,11.0442444 36.3241706,11.0442444 C32.8076812,11.0442444 28.9922781,8.65572089 26.4545603,6.35891135 C25.1831338,5.20894283 24.4441426,4.52326188 23.161439,3.79176773 L23.161439,3.79176773 L23.161439,3.79176773 Z M38.0392154,12.1236784 L40.7582925,9.38645655 C41.1194577,9.02287403 41.3560445,8.60713042 41.39187,8.14637278 C41.8674139,2.18532998 36.3027691,0.381420742 32.0604839,0.336762782 C25.4722886,0.266630954 23.4968997,1.61524395 21.9562019,3.16602539 L19.2390372,5.90364983 C21.3596002,6.91881013 22.1142066,7.63036752 23.735851,9.09613308 C26.27436,11.3921375 30.0885634,13.7818279 33.6062466,13.7810228 C34.9402837,13.781828 37.0040167,13.1666815 38.0392154,12.1236784 L38.0392154,12.1236784 L38.0392154,12.1236784 Z"></path>
                            </g>
                            <path d="M32.0278617,22.4128763 L32.0453573,22.1503592 C32.0228084,18.8438505 30.66072,15.9256381 29.2087604,13.0747906 C30.0259747,13.6217702 35.9805895,14.9696188 32.8155063,18.5127653 C33.2105441,20.8025515 34.8189494,21.4090717 36.2110045,21.2754655 C37.0788306,21.0595711 38.1233509,20.4052262 37.8999537,19.0248789 C35.3482027,17.6077008 37.7046022,15.680374 38.0719826,15.1949025 C38.5358436,15.586329 41.2580674,16.9388716 39.0826301,18.8916751 C39.1686272,20.3057244 40.363743,20.7022475 41.2654389,20.7092679 C42.7368789,20.5451307 44.7262948,19.6098533 44.6087809,17.2668265 C40.7451535,14.5131539 44.8967331,11.8327434 45.5750694,11.1172936 C46.2530119,11.8327434 50.4045884,14.5131539 46.5413639,17.2668265 C46.4257971,19.6098533 48.4148132,20.5451307 49.8847,20.7092679 C50.7860018,20.7022475 51.9811176,20.3057244 52.0671118,18.8916751 C49.8916716,16.9388716 52.6138955,15.586329 53.0781562,15.1949025 C53.4451397,15.6803738 55.8034863,17.6077008 53.2497911,19.0248789 C53.0267938,20.4052262 54.0709113,21.059571 54.9387751,21.2754655 C56.3307984,21.4090718 57.9392357,20.8025515 58.3342328,18.5127653 C55.1699088,14.9696188 61.1241671,13.6217702 61.9410221,13.0747906 C60.4913777,15.9256383 59.1269393,18.8438505 59.1043904,22.1503592 L59.1222743,22.4128763 C59.0709177,22.3936952 59.0164317,22.3811392 58.9623166,22.3756837 C56.7355545,22.1327459 54.5063934,21.9121577 52.2745316,21.753877 C47.8107994,21.4353112 43.3392989,21.4353112 38.8752102,21.753877 C36.6433426,21.9121577 34.4145871,22.1327461 32.189384,22.3756837 C32.1333074,22.381139 32.0792299,22.3936952 32.0278617,22.4128763 L32.0278617,22.4128763 L32.0278617,22.4128763 Z M52.2539299,28.5451555 C54.4783797,28.7050407 56.7055822,28.925632 58.9304376,29.1700926 C58.9444213,29.1716562 58.9584512,29.1724586 58.9724407,29.1716562 C59.027315,29.1685259 59.0728591,29.1493505 59.1082905,29.1160467 C59.1429165,29.085876 59.1658711,29.041221 59.1716894,28.9887009 C59.1728832,28.9749808 59.1728832,28.9616605 59.1728832,28.9487398 L59.1716894,28.9361838 C59.1716894,28.9001522 59.169777,28.8621574 59.1658711,28.826088 C59.156906,28.7488934 59.1164559,28.6740678 59.0607877,28.6160923 C59.0024073,28.5580762 58.9304374,28.5189172 58.8545268,28.5095294 C56.6436956,28.265028 54.4293236,28.0452012 52.2149923,27.8861181 C47.7399856,27.564463 43.4113093,27.564463 38.9347466,27.8861181 C36.7204152,28.045201 34.506443,28.265028 32.2952178,28.5095294 C32.2193044,28.5189172 32.1473343,28.5580762 32.0909041,28.6160923 C32.03368,28.6740677 31.9928329,28.7488934 31.9854209,28.826088 C31.9803617,28.8621575 31.9784464,28.9001523 31.9784464,28.9361838 L31.9772526,28.9487398 C31.9772526,28.9616604 31.9772526,28.9749808 31.9784464,28.9887009 C31.9838677,29.041221 32.0072193,29.085876 32.0414918,29.1160467 C32.0772769,29.1493505 32.1228325,29.1685259 32.1777009,29.1716562 C32.1912876,29.1724584 32.2057205,29.1716562 32.2193042,29.1700926 C34.4441944,28.925632 36.671365,28.7050407 38.8958524,28.5451555 C43.3587852,28.2266308 47.790954,28.2266308 52.2539299,28.5451555 L52.2539299,28.5451555 L52.2539299,28.5451555 Z M52.2251166,22.8419375 C54.440242,23.0006194 56.6565263,23.2208066 58.8685455,23.4637414 C58.9424684,23.4723693 59.0129258,23.4500213 59.0658471,23.4080939 C59.1183685,23.3657654 59.1553531,23.3038589 59.1658714,23.2298311 C59.1678244,23.2043559 59.1697773,23.1843752 59.1716898,23.1690902 C59.1728835,23.1502721 59.1748365,23.1302916 59.1763954,23.1095497 C59.1783078,23.0346817 59.1499347,22.9622205 59.1024319,22.9058117 C59.0549753,22.8497617 58.9888238,22.8102017 58.9148546,22.8015753 C56.6927112,22.5586375 54.4678616,22.3396144 52.243012,22.1820964 C47.7882449,21.8643724 43.3622913,21.8643724 38.90713,22.1820964 C36.6818777,22.3396142 34.457028,22.5586375 32.2348847,22.8015753 C32.1609618,22.8102017 32.0947726,22.8497617 32.0473103,22.9058117 C31.999848,22.9622205 31.9714345,23.0346817 31.9752999,23.1095497 C31.9752999,23.1302916 31.9772529,23.1502722 31.9784467,23.1690902 C31.980362,23.1843754 31.982312,23.2043559 31.9854212,23.2298311 C31.9943891,23.3038589 32.0317272,23.3657654 32.0838922,23.4080939 C32.1368135,23.4500213 32.207268,23.4723693 32.281191,23.4637414 C34.4932131,23.2208065 36.7094946,23.0006194 38.9246228,22.8419375 C43.4062473,22.5218066 47.7454447,22.5218066 52.2251166,22.8419375 L52.2251166,22.8419375 L52.2251166,22.8419375 Z M52.2251166,27.5358561 C54.440242,27.6949362 56.6565263,27.9147253 58.8685455,28.1600289 C58.8883997,28.1631592 58.9078424,28.1654842 58.9249786,28.1709804 C58.7984937,27.4426106 58.6315586,26.7173712 58.6315586,25.9866356 C58.6315586,25.253531 58.8019998,24.5247617 58.9304376,23.7940258 C58.9058892,23.7963918 58.8809818,23.7963918 58.854527,23.7924607 C56.6436957,23.5495637 54.4312767,23.3301365 52.2161514,23.1714561 C47.7575189,22.8524894 43.3926171,22.8524894 38.9335907,23.1714561 C36.7184623,23.3301365 34.5064433,23.5495637 32.295218,23.7924607 C32.2707103,23.7963918 32.2438527,23.7963918 32.2193045,23.7940258 C32.3477423,24.5247615 32.5181834,25.253531 32.5181834,25.9866356 C32.5181834,26.7173712 32.3516482,27.4426108 32.2251635,28.1709804 C32.2418998,28.1654843 32.2617454,28.1631592 32.281191,28.1600289 C34.4932131,27.9147253 36.7094946,27.6949362 38.9246228,27.5358561 C43.4062473,27.2133958 47.7434919,27.2133958 52.2251166,27.5358561 L52.2251166,27.5358561 L52.2251166,27.5358561 Z"></path>
                            <g transform="translate(5.075385, 82.105358)">
                                <path d="M42.5291879,3.57285591 C37.9876298,16.1751672 26.589758,15.1090475 23.4920201,12.3640015 C21.9194027,10.9710982 16.9804945,6.72068716 15.1946359,5.48176444 C11.2761387,2.76416425 7.19883841,2.19720544 5.14602642,3.71705192 C2.97564458,5.32428883 2.54988244,8.54931164 3.4029672,10.8602001 C6.8770057,12.3044244 9.97984249,10.6693798 10.1374517,8.81142481 C10.6892612,9.7380393 10.9270491,10.7896658 10.4289171,12.1386813 C11.4170099,12.2542704 12.1976815,12.0082431 12.8561303,11.5490084 C12.6848924,13.579008 8.99290564,15.3449225 5.14366913,13.1115874 C4.89460388,12.9669888 4.66423451,12.7859648 4.45565115,12.5759662 L1.74665615,9.84777041 L1.73693259,9.83834163 C-0.270375603,7.81777069 -0.37155596,3.05215951 2.42690346,0.980232455 C4.48132075,-0.539619839 8.55742056,0.0269422188 12.4759165,2.74498581 C14.2622199,3.98310325 19.2006832,8.23387618 20.7729051,9.62637673 C23.8714369,12.3729924 35.2685118,13.4379392 39.8112666,0.836036295 L42.5291879,3.57285591 L42.5291879,3.57285591 L42.5291879,3.57285591 Z"></path>
                                <path d="M38.4697861,3.57285591 C43.0117383,16.1751672 54.4103722,15.1090475 57.5081448,12.3640015 C59.0795683,10.9710982 64.0184766,6.72068716 65.8047322,5.48176444 C69.7240247,2.76416425 73.8001283,2.19720544 75.852949,3.71705192 C78.0233243,5.32428883 78.4494878,8.54931164 77.596048,10.8602001 C74.1219618,12.3044244 71.0195241,10.6693798 70.8615598,8.81142481 C70.3108645,9.7380393 70.0723188,10.7896658 70.5708463,12.1386813 C69.5823565,12.2542704 68.8012866,12.0082431 68.1428478,11.5490084 C68.3156301,13.579008 72.0068606,15.3449225 75.8549019,13.1115874 C76.1043656,12.9669888 76.33474,12.7859648 76.5433595,12.5759662 L79.2527124,9.84777041 L79.2620367,9.83834163 C81.2693423,7.81777069 81.3705256,3.05215951 78.5720665,0.980232455 C76.5180519,-0.539619839 72.4419484,0.0269422188 68.52305,2.74498581 C66.7375535,3.98310325 61.798686,8.23387618 60.2260627,9.62637673 C57.1279308,12.3729924 45.7304589,13.4379392 41.1888978,0.836036295 L38.4697861,3.57285591 L38.4697861,3.57285591 L38.4697861,3.57285591 Z"></path>
                            </g>
                        </g>
                        <g transform="translate(17.603791, 36.076383)" id="Shape">
                            <path d="M22.6847857,0.41544614 C22.6847857,0.72459473 22.5770799,0.879094691 22.3622742,0.879094691 C21.5023701,0.958401394 20.8501524,1.17100793 20.4056965,1.51683873 C19.9609363,1.86297284 19.4749757,2.6489621 18.9473535,3.87465768 L11.5896611,20.8297596 C11.5211915,20.9870076 11.3844752,21.0658562 11.1792893,21.0658562 C10.9837234,21.0658562 10.8568532,20.9821999 10.7982295,20.8150447 L4.23204695,3.87465768 C3.87045288,2.91571364 3.56998189,2.2804844 3.33063654,1.96897273 C3.09113913,1.65776161 2.77120355,1.42532905 2.37067775,1.2719756 C1.96984918,1.11892561 1.32013066,0.98791269 0.421296149,0.879094691 C0.352825042,0.879094691 0.28685311,0.838065782 0.223457071,0.75601408 C0.159756744,0.673883457 0.128173193,0.579628618 0.128173193,0.473325275 C0.128173193,0.202839454 0.1966443,0.067479995 0.333812565,0.067479995 C0.990197017,0.067479995 1.71543069,0.0969912906 2.50921068,0.156016941 C3.26352873,0.215039685 3.93960503,0.24455098 4.53728902,0.24455098 C5.13504685,0.24455098 5.87474812,0.215039685 6.75661586,0.156016941 C7.67567408,0.0969912906 8.46256223,0.067479995 9.11727773,0.067479995 C9.27345984,0.067479995 9.35177831,0.202839607 9.35177831,0.473325275 C9.35177831,0.743965576 9.30277163,0.879094691 9.20521615,0.879094691 C8.34523666,0.91874659 7.72468076,1.03222055 7.34331661,1.21966263 C6.96187711,1.40710181 6.77130951,1.69810193 6.77130951,2.09281488 C6.77130951,2.33950715 6.88878578,2.76861203 7.1239674,3.38035132 L12.1853763,16.8044878 L17.437657,3.77849494 C17.613531,3.20068966 17.7015419,2.7722732 17.7015419,2.49332158 C17.7015419,1.51683889 16.8514113,0.978685353 15.1512947,0.879094844 C15.0340472,0.879094844 14.9753454,0.743965729 14.9753454,0.473325428 C14.9753454,0.202839607 15.0632838,0.0674801479 15.2391579,0.0674801479 C15.6983075,0.0674801479 16.2992467,0.0969914435 17.0419789,0.156017094 C17.8627223,0.215039838 18.5417513,0.244551133 19.0792193,0.244551133 C19.5189058,0.244551133 20.0806874,0.215039838 20.7647145,0.156017094 C21.4682107,0.0969914435 22.0494581,0.0674801479 22.5089118,0.0674801479 C22.626162,0.067479995 22.6847857,0.183468761 22.6847857,0.41544614 L22.6847857,0.41544614 Z"></path>
                            <path d="M33.926093,20.180504 C33.926093,20.4557916 33.8477716,20.5936689 33.6915924,20.5936689 C33.0367988,20.5936689 32.2600637,20.5641576 31.3612248,20.5051348 C30.5012482,20.4461063 29.7732126,20.416595 29.1773469,20.416595 C28.5811797,20.416595 27.8532195,20.4461063 26.993466,20.5051348 C26.0847842,20.5641576 25.2981248,20.5936689 24.6337893,20.5936689 C24.4773812,20.5936689 24.3992888,20.4557917 24.3992888,20.180504 C24.3992888,19.934722 24.4773813,19.8018801 24.6337893,19.782054 C25.8159762,19.6441827 26.6197544,19.4228826 27.0448197,19.1175409 C27.469885,18.8122811 27.6824191,18.2019887 27.6824191,17.2863608 L27.6824191,3.38957865 C27.6824191,2.70058939 27.5966799,2.21574086 27.4258795,1.93511168 C27.2547779,1.6544825 26.9543834,1.43295484 26.5244705,1.27037391 C26.094404,1.10809642 25.4641528,0.977541744 24.6337893,0.879094691 C24.4773812,0.879094691 24.3992888,0.743965576 24.3992888,0.473325275 C24.3992888,0.202839454 24.4773813,0.067479995 24.6337893,0.067479995 C25.2981246,0.067479995 26.084784,0.0969912906 26.993466,0.156016941 C27.8532195,0.215039685 28.5811799,0.24455098 29.1773469,0.24455098 C29.7732126,0.24455098 30.5012482,0.215039685 31.3612248,0.156016941 C32.2600637,0.0969912906 33.0367988,0.067479995 33.6915924,0.067479995 C33.8477716,0.067479995 33.926093,0.202839607 33.926093,0.473325275 C33.926093,0.743965576 33.8477716,0.879094691 33.6915924,0.879094691 C32.8707736,0.977541744 32.2454425,1.10809658 31.8155296,1.27037391 C31.3854659,1.43295469 31.0874968,1.6519677 30.9214658,1.92771623 C30.7552118,2.20346476 30.6722745,2.69067638 30.6722745,3.3895785 L30.6722745,17.2863605 C30.6722745,17.9656702 30.7552117,18.445711 30.9214658,18.7262614 C31.0874968,19.0068935 31.3831942,19.228497 31.8082566,19.3907745 C32.2332494,19.5531279 32.8561524,19.6836067 33.676977,19.7820537 C33.8430021,19.8018799 33.926093,19.9347218 33.926093,20.180504 L33.926093,20.180504 Z"></path>
                            <path d="M53.0965664,6.08811727 C53.0965664,7.81970688 52.435485,9.27318181 51.113328,10.4486213 C49.7913216,11.6242882 48.1545288,12.2120094 46.2031753,12.2120094 C45.0319704,12.2120094 43.8807645,12.1628997 42.7489432,12.0644497 L42.7489432,17.2882687 C42.7489432,17.9769545 42.8343811,18.459055 43.0054827,18.7343485 C43.1762832,19.0098695 43.4745535,19.2287249 43.8995465,19.3910024 C44.3245335,19.5533558 44.9474423,19.6838346 45.7682611,19.7820542 C45.9244404,19.8018801 46.0027617,19.9347221 46.0027617,20.1805042 C46.0027617,20.4557917 45.9244404,20.593669 45.7682611,20.593669 C45.1135427,20.593669 44.3367324,20.5641577 43.4378935,20.505135 C42.5779169,20.4461064 41.8498784,20.4165951 41.2540156,20.4165951 C40.6579209,20.4165951 39.925113,20.4461064 39.0555165,20.505135 C38.1468375,20.5641577 37.3650258,20.593669 36.7104581,20.593669 C36.554047,20.593669 36.4759575,20.4557919 36.4759575,20.1805042 C36.4759575,19.9347221 36.554047,19.8018802 36.7104581,19.7820542 C37.8926449,19.6441828 38.6964202,19.4228828 39.1214884,19.1175411 C39.5465566,18.8122813 39.7590878,18.2019889 39.7590878,17.286361 L39.7590878,3.38957865 C39.7590878,2.70058939 39.6733487,2.21574086 39.5025483,1.93511168 C39.3314466,1.6544825 39.0310551,1.43295484 38.6011363,1.27037391 C38.1710727,1.10809642 37.5408968,0.977541744 36.7104581,0.879094691 C36.554047,0.879094691 36.4759575,0.743965576 36.4759575,0.473325275 C36.4759575,0.202839454 36.554047,0.067479995 36.7104581,0.067479995 C37.3650258,0.067479995 38.1468373,0.0969912906 39.0555165,0.156016941 C39.9246611,0.215039685 40.6569358,0.24455098 41.2524277,0.24455098 C41.8478385,0.24455098 42.5749614,0.215039685 43.4337327,0.156016941 C44.331656,0.0969912906 45.1075624,0.067479995 45.7616722,0.067479995 C48.1625553,0.067479995 49.9855229,0.579170532 51.229967,1.60216969 C52.4744169,2.62539919 53.0965664,4.12066442 53.0965664,6.08811727 L53.0965664,6.08811727 Z M49.8575198,6.08788968 C49.8575198,4.50942607 49.473881,3.2761076 48.7069165,2.3881617 C47.9397202,1.5002889 46.9211362,1.05616568 45.6510138,1.05616568 C44.8888187,1.05616568 44.3000723,1.11541601 43.8849254,1.23369184 C43.469483,1.35219817 43.1762833,1.5445209 43.0054829,1.8108116 C42.8343812,2.07741157 42.7489434,2.60511508 42.7489434,3.39438343 L42.7489434,10.1874387 C42.7489434,10.61166 42.8808872,10.8954924 43.1447751,11.0383991 C43.4085065,11.1813845 43.9802093,11.2528378 44.8595823,11.2528378 C46.4521408,11.2528378 47.683256,10.7942973 48.5530844,9.87660978 C49.4226056,8.95892209 49.8575198,7.69609232 49.8575198,6.08788968 L49.8575198,6.08788968 Z"></path>
                        </g>
                        <polygon id="Shape" points="37.1205702 63.0309329 37.8811832 64.5825837 39.5819603 64.8314056 38.3512653 66.0392007 38.6417933 67.7446338 37.1205702 66.939437 35.59935 67.7446338 35.889878 66.0392007 34.659183 64.8314056 36.3599601 64.5825837"></polygon>
                        <polygon id="Shape" points="45.0685679 63.0309329 45.829178 64.5825837 47.5299551 64.8314056 46.2992629 66.0392007 46.5897881 67.7446338 45.0685679 66.939437 43.5473447 67.7446338 43.8378728 66.0392007 42.6071778 64.8314056 44.3079549 64.5825837"></polygon>
                        <polygon id="Shape" points="52.9200358 63.0309329 53.6806488 64.5825837 55.3814259 64.8314056 54.1507338 66.0392007 54.4412618 67.7446338 52.9200358 66.939437 51.3988156 67.7446338 51.6893436 66.0392007 50.4586457 64.8314056 52.1594286 64.5825837"></polygon>
                    </g>
                </g>
            </g>
        </g>
    </g>
</svg>