<?xml version="1.0" encoding="UTF-8" standalone="no"?>
<svg width="74px" height="61px" viewBox="0 0 74 61" version="1.1" xmlns="http://www.w3.org/2000/svg" xmlns:xlink="http://www.w3.org/1999/xlink">
    <!-- Generator: Sketch 3.8.3 (29802) - http://www.bohemiancoding.com/sketch -->
    <title>cloud-upload</title>
    <desc>Created with Sketch.</desc>
    <defs></defs>
    <g id="Page-1" stroke="none" stroke-width="1" fill="none" fill-rule="evenodd">
        <g id="Photo" transform="translate(-867.000000, -212.000000)" fill="#9999CC">
            <g id="1466012248_icon-130-cloud-upload" transform="translate(821.000000, 147.000000)">
                <g id="Group">
                    <g id="Page-1">
                        <g id="icon-130-cloud-upload">
                            <path d="M81.6296296,95.1481481 L72.7222222,104.055556 L70.6666667,102 L83,89.6666667 L95.3333333,102 L93.2777778,104.055556 L84.3703704,95.1481481 L84.3703704,125.296296 L81.6296296,125.296296 L81.6296296,95.1481481 L81.6296296,95.1481481 L81.6296296,95.1481481 Z M59.7114229,108.851852 C53.6684236,108.851852 48.7407407,103.943566 48.7407407,97.8888889 C48.7407407,92.6941155 52.3711531,88.3284614 57.239803,87.2059047 C57.0580016,86.2267128 56.962963,85.2170478 56.962963,84.1851852 C56.962963,75.1031689 64.3253911,67.7407407 73.4074074,67.7407407 C80.5756548,67.7407407 86.6726644,72.3272521 88.9239036,78.7257423 C91.0462009,76.9984487 93.754027,75.962963 96.7037037,75.962963 C103.16731,75.962963 108.469605,80.9351216 108.994385,87.2632346 C113.736014,88.4692294 117.259259,92.7692296 117.259259,97.8888889 C117.259259,103.931246 112.347517,108.851852 106.288577,108.851852 L87.1111111,108.851852 L87.1111111,111.592593 L104.637994,111.592593 L106.297831,111.592593 C113.86533,111.592593 120,105.441835 120,97.8888889 C120,92.1431477 116.473463,87.2233169 111.456736,85.1869536 C110.023763,78.3535723 103.962979,73.2222222 96.7037037,73.2222222 C94.3387232,73.2222222 92.1009473,73.7668506 90.1089561,74.7375275 C86.8128681,68.9232299 80.5682978,65 73.4074074,65 C62.8117217,65 54.2222222,73.5894995 54.2222222,84.1851852 C54.2222222,84.563821 54.2331909,84.9398947 54.2548277,85.3131063 C49.3975833,87.4236677 46,92.2679889 46,97.8888889 C46,105.457235 52.1186878,111.592593 59.7021687,111.592593 L78.8888889,111.592593 L78.8888889,108.851852 L59.7114229,108.851852 Z" id="cloud-upload"></path>
                        </g>
                    </g>
                </g>
            </g>
        </g>
    </g>
</svg>