<?xml version="1.0" encoding="utf-8"?>
<!-- Generator: Adobe Illustrator 19.1.0, SVG Export Plug-In . SVG Version: 6.00 Build 0)  -->
<svg version="1.1" id="Слой_1" xmlns="http://www.w3.org/2000/svg" xmlns:xlink="http://www.w3.org/1999/xlink" x="0px" y="0px"
	 viewBox="0 0 90 78.9340363" style="enable-background:new 0 0 90 78.9340363;" xml:space="preserve">
<style type="text/css">
	.st0{opacity:0.1;}
</style>
<path class="st0" d="M82.6194,7.3451748C77.905098,2.6321723,71.5471497,0,64.8596954,0
	c-4.4950638,0-8.9901237,1.2064664-12.8274651,3.5091307c-1.7539139,1.0961978-3.3988609,2.4116356-4.9335365,3.8360441
	c-0.7666931,0.7679873-1.4244118,1.5359745-2.0834274,2.3026648c-0.6577187-0.7666903-1.3154373-1.5346775-2.0821266-2.3026648
	c-1.5346756-1.534677-3.1796227-2.8501143-4.9335403-3.8360441C34.1622581,1.2064664,29.6671982,0,25.1721382,0
	C18.4846821,0,12.1267338,2.6321723,7.4124346,7.3451748c-8.2221336,8.113162-9.7568111,20.6111164-3.8373418,30.3679256
	c1.0961981,1.7539177,2.3026643,3.3988647,3.8373418,4.8245697l36.0681572,35.7386513
	c0.4384804,0.4384766,0.9872246,0.6577148,1.5346756,0.6577148c0.548748,0,1.097496-0.2192383,1.5359764-0.6577148
	L82.6194,42.5376701c1.5346756-1.425705,2.7411423-3.070652,3.8373413-4.8245697
	C92.3762054,27.9562912,90.7325592,15.4583368,82.6194,7.3451748z"/>
</svg>
