<?xml version="1.0" encoding="utf-8"?>
<!-- Generator: Adobe Illustrator 19.1.0, SVG Export Plug-In . SVG Version: 6.00 Build 0)  -->
<svg version="1.1" id="Слой_1" xmlns="http://www.w3.org/2000/svg" xmlns:xlink="http://www.w3.org/1999/xlink" x="0px" y="0px"
	 viewBox="0 0 90 68" style="enable-background:new 0 0 90 68;" xml:space="preserve">
<style type="text/css">
	.st0{fill:#E2E2E2;}
</style>
<path class="st0" d="M87.7021484,16H2.2978516C1.0287832,16,0,14.9712172,0,13.7021484V2.2978516
	C0,1.0287832,1.0287832,0,2.2978516,0h85.4042969C88.9712143,0,90,1.0287832,90,2.2978516v11.4042969
	C90,14.9712172,88.9712143,16,87.7021484,16z"/>
<path class="st0" d="M87.7021484,42H2.2978516C1.0287832,42,0,40.9712181,0,39.7021484V28.2978516
	C0,27.0287838,1.0287832,26,2.2978516,26h85.4042969C88.9712143,26,90,27.0287838,90,28.2978516v11.4042969
	C90,40.9712181,88.9712143,42,87.7021484,42z"/>
<path class="st0" d="M53.7021484,68H2.2978516C1.0287832,68,0,66.9712143,0,65.7021484V54.2978516
	C0,53.0287857,1.0287832,52,2.2978516,52h51.4042969C54.9712181,52,56,53.0287857,56,54.2978516v11.4042969
	C56,66.9712143,54.9712181,68,53.7021484,68z"/>
</svg>
