<?xml version="1.0" encoding="utf-8"?>
<!-- Generator: Adobe Illustrator 19.1.0, SVG Export Plug-In . SVG Version: 6.00 Build 0)  -->
<svg version="1.1" id="Слой_1" xmlns="http://www.w3.org/2000/svg" xmlns:xlink="http://www.w3.org/1999/xlink" x="0px" y="0px"
	 viewBox="2 0 90 60" style="enable-background:new 2 0 90 60;" xml:space="preserve">
<style type="text/css">
	.st0{opacity:0.1;}
</style>
<g class="st0">
	<circle cx="32.0001106" cy="15.0000553" r="15.0000553"/>
	<path d="M32.0001106,37.5000839C9.1249628,37.5000839,2,52.5000267,2,52.5000267V60h60v-7.4999733
		C62,52.5000267,54.8750381,37.5000839,32.0001106,37.5000839z"/>
	<path d="M89.4980698,6.58255c-0.771553-0.7715487-2.0207062-0.7715487-2.7922516-0.0008788L72.3089218,20.979229
		l-6.5003891-6.5001669c-0.770668-0.7715492-2.0213585-0.7715492-2.7913704,0c-0.7715492,0.7706699-0.7715492,2.0207014,0,2.7913713
		l7.8965111,7.8962917c0.3844528,0.3853359,0.8899612,0.5782223,1.3952484,0.5782223
		c0.5055008,0,1.010788-0.1928864,1.3961258-0.5782223L89.4980698,9.3739223
		C90.2693939,8.6032524,90.2693939,7.35322,89.4980698,6.58255z"/>
</g>
</svg>
