<?xml version="1.0" encoding="utf-8"?>
<!-- Generator: Adobe Illustrator 19.1.0, SVG Export Plug-In . SVG Version: 6.00 Build 0)  -->
<svg version="1.1" id="Слой_1" xmlns="http://www.w3.org/2000/svg" xmlns:xlink="http://www.w3.org/1999/xlink" x="0px" y="0px"
	 viewBox="0 0 110 86.0459061" style="enable-background:new 0 0 110 86.0459061;" xml:space="preserve">
<style type="text/css">
	.st0{fill:#E7E7E7;}
</style>
<path class="st0" d="M55.0006828,0.0000004C24.6755772,0.0000004,0,18.0273972,0,40.1839256
	c0,11.0544815,6.0720859,21.3711891,17.0980377,29.0506325c1.0190334,0.7078934,1.5068111,1.9660568,1.2296352,3.1780243
	c-0.5271797,2.3206787-2.2907906,8.1712952-7.4131346,13.6333237c5.1685438-0.7853394,12.7990732-3.60466,17.6265755-8.6930466
	c0.8220215-0.8655014,2.0747547-1.1684952,3.2024841-0.7866974c7.3316116,2.5176926,15.1537209,3.7908096,23.2557259,3.7908096
	C85.3284988,80.3569717,110,62.3377266,110,40.185276c0-10.5612698-5.5965424-20.5491676-15.7719345-28.125349
	C83.7890778,4.2840209,69.8595657,0.0000004,55.0006828,0.0000004z"/>
</svg>
