<?xml version="1.0" encoding="utf-8"?>
<!-- Generator: Adobe Illustrator 17.0.0, SVG Export Plug-In . SVG Version: 6.00 Build 0)  -->
<!DOCTYPE svg PUBLIC "-//W3C//DTD SVG 1.1//EN" "http://www.w3.org/Graphics/SVG/1.1/DTD/svg11.dtd">
<svg version="1.1" id="Layer_1" xmlns="http://www.w3.org/2000/svg" xmlns:xlink="http://www.w3.org/1999/xlink" x="0px" y="0px"
	 width="44px" height="44px" viewBox="0 0 44 44" enable-background="new 0 0 44 44" xml:space="preserve">
<path d="M18.403,13.869c0.182,0,0.338-0.065,0.469-0.196c0.131-0.131,0.196-0.287,0.196-0.469c0-0.182-0.065-0.338-0.196-0.469
	s-0.287-0.196-0.469-0.196s-0.335,0.065-0.46,0.196s-0.188,0.287-0.188,0.469c0,0.182,0.062,0.338,0.188,0.469
	C18.068,13.804,18.222,13.869,18.403,13.869z M25.597,13.869c0.182,0,0.335-0.065,0.46-0.196c0.125-0.131,0.188-0.287,0.188-0.469
	c0-0.182-0.063-0.338-0.188-0.469c-0.125-0.131-0.278-0.196-0.46-0.196c-0.182,0-0.338,0.065-0.469,0.196
	c-0.131,0.131-0.196,0.287-0.196,0.469c0,0.182,0.065,0.338,0.196,0.469C25.259,13.804,25.415,13.869,25.597,13.869L25.597,13.869z
	 M11.756,17.006c0.477,0,0.886,0.17,1.227,0.511c0.341,0.341,0.511,0.75,0.511,1.227v7.33c0,0.489-0.168,0.903-0.503,1.244
	c-0.335,0.341-0.747,0.511-1.236,0.511c-0.489,0-0.903-0.17-1.244-0.511C10.17,26.977,10,26.562,10,26.074v-7.33
	c0-0.477,0.17-0.886,0.511-1.227C10.852,17.176,11.267,17.006,11.756,17.006L11.756,17.006z M29.824,17.33v11.352
	c0,0.523-0.182,0.966-0.545,1.33c-0.364,0.364-0.801,0.545-1.312,0.545h-1.278v3.869c0,0.489-0.17,0.903-0.511,1.244
	s-0.756,0.511-1.244,0.511c-0.489,0-0.903-0.17-1.244-0.511c-0.341-0.341-0.511-0.756-0.511-1.244v-3.869h-2.352v3.869
	c0,0.489-0.17,0.903-0.511,1.244c-0.341,0.341-0.756,0.511-1.244,0.511c-0.477,0-0.886-0.17-1.227-0.511
	c-0.341-0.341-0.511-0.756-0.511-1.244l-0.017-3.869h-1.261c-0.523,0-0.966-0.182-1.33-0.545c-0.364-0.364-0.545-0.807-0.545-1.33
	V17.33H29.824z M25.869,10.426c1.216,0.625,2.187,1.497,2.915,2.616c0.727,1.119,1.091,2.344,1.091,3.673H14.108
	c0-1.33,0.364-2.554,1.091-3.673c0.727-1.119,1.705-1.991,2.932-2.616l-1.21-2.233c-0.08-0.148-0.051-0.261,0.085-0.341
	c0.148-0.068,0.261-0.034,0.341,0.102l1.227,2.25c1.08-0.477,2.222-0.716,3.426-0.716c1.205,0,2.347,0.239,3.426,0.716l1.227-2.25
	c0.08-0.136,0.193-0.17,0.341-0.102c0.136,0.08,0.165,0.193,0.085,0.341L25.869,10.426z M34,18.744v7.33
	c0,0.489-0.17,0.903-0.511,1.244c-0.341,0.341-0.756,0.511-1.244,0.511c-0.477,0-0.886-0.17-1.227-0.511
	c-0.341-0.341-0.511-0.756-0.511-1.244v-7.33c0-0.489,0.17-0.901,0.511-1.236s0.75-0.503,1.227-0.503
	c0.489,0,0.903,0.168,1.244,0.503C33.83,17.844,34,18.256,34,18.744z"/>
</svg>
