<?xml version="1.0" encoding="utf-8"?>
<!-- Generator: Adobe Illustrator 19.1.0, SVG Export Plug-In . SVG Version: 6.00 Build 0)  -->
<svg version="1.1" id="Слой_1" xmlns="http://www.w3.org/2000/svg" xmlns:xlink="http://www.w3.org/1999/xlink" x="0px" y="0px"
	 viewBox="-20 22 28 28" style="enable-background:new -20 22 28 28;" xml:space="preserve">
<style type="text/css">
	.st0{fill:#FFFFFF;}
	.st1{fill:url(#SVGID_1_);}
	.st2{fill:url(#SVGID_2_);}
</style>
<circle class="st0" cx="-6" cy="36" r="14"/>
<g>
	<linearGradient id="SVGID_1_" gradientUnits="userSpaceOnUse" x1="-12.2953682" y1="30.5277386" x2="0.6541206" y2="43.4772263">
		<stop  offset="0" style="stop-color:#00A7E9"/>
		<stop  offset="1" style="stop-color:#C400FF"/>
	</linearGradient>
	<path class="st1" d="M-0.8206283,33.4577637v-2.3338623c0-2.7611504-2.2441812-4.9994717-5-4.9994717
		c-2.7614346,0-5,2.237793-5,4.9994717v2.3338623c-1.1051025,0.0031319-2,0.8930244-2,2.0063057v6.6540108
		c0,1.1080742,0.8970537,2.0063477,2.0058594,2.0063477h9.9882812c1.1078287,0,2.0058594-0.8911133,2.0058594-2.0063477v-6.6540108
		C1.1793716,34.3579483,0.2854914,33.4609375-0.8206283,33.4577637z M-10.1539621,31.1200352
		c0-2.3901768,1.9401045-4.3289394,4.333334-4.3289394c2.388387,0,4.333333,1.9381104,4.333333,4.3289394v2.3377285h-0.6666666
		v-2.3273125c0-2.0283604-1.645752-3.6726875-3.6666665-3.6726875c-2.0250244,0-3.666667,1.6409092-3.666667,3.6726875v2.3273125
		h-0.666667V31.1200352z M-2.8206284,31.125v2.3327637h-6V31.125c0-1.6610928,1.3431396-3.0005703,3-3.0005703
		C-4.1671453,28.1244297-2.8206284,29.4678135-2.8206284,31.125z M0.512705,42.1205215
		c0,0.7391777-0.5961914,1.3372421-1.3316243,1.3372421h-10.003418c-0.7376709,0-1.331625-0.5987167-1.331625-1.3372421v-6.6588516
		c0-0.7392197,0.5961914-1.3372421,1.331625-1.3372421h10.003418c0.7376709,0,1.3316243,0.5986748,1.3316243,1.3372421V42.1205215z"
		/>
	<linearGradient id="SVGID_2_" gradientUnits="userSpaceOnUse" x1="-7.4303741" y1="37.0438232" x2="-4.2114487" y2="40.2627487">
		<stop  offset="0" style="stop-color:#00A7E9"/>
		<stop  offset="1" style="stop-color:#C400FF"/>
	</linearGradient>
	<path class="st2" d="M-5.8206282,36.1244278c-0.9204512,0-1.666667,0.7461777-1.666667,1.6666679
		c0,0.5452461,0.2618408,1.029377,0.666667,1.3334541v1.3320732c0,0.5528984,0.4438882,1.0011406,1,1.0011406
		c0.5522866,0,1-0.4474716,1-1.0011406v-1.3320732c0.4048257-0.3040771,0.6666665-0.788208,0.6666665-1.3334541
		C-4.1539617,36.8706055-4.9001369,36.1244278-5.8206282,36.1244278z M-5.4872952,38.734169v1.7295761
		c0,0.175415-0.1492105,0.3273506-0.333333,0.3273506c-0.1787109,0-0.3333335-0.1465645-0.3333335-0.3273506V38.734169
		c-0.3883872-0.1372452-0.6666665-0.5076904-0.6666665-0.9430733c0-0.5522881,0.4477129-1,1-1s1,0.4477119,1,1
		C-4.8206282,38.2264786-5.0989079,38.5969238-5.4872952,38.734169z"/>
</g>
</svg>
