<?xml version="1.0" encoding="utf-8"?>
<!-- Generator: Adobe Illustrator 19.1.0, SVG Export Plug-In . SVG Version: 6.00 Build 0)  -->
<svg version="1.1" id="Слой_1" xmlns="http://www.w3.org/2000/svg" xmlns:xlink="http://www.w3.org/1999/xlink" x="0px" y="0px"
	 viewBox="0 0 12 11" style="enable-background:new 0 0 12 11;" xml:space="preserve">
<style type="text/css">
	.st0{fill:#5B9CF3;}
</style>
<path class="st0" d="M1.4,10.5c-0.1,0-0.4,0-0.5-0.2C0.7,9.9,0.9,9.8,1.1,9.7c0,0,0.1-0.1,0.1-0.1c0.3-0.3,0.5-0.7,0.6-0.9
	C0.6,7.8,0,6.6,0,5.4c0-2.5,2.7-4.5,6-4.5c1.6,0,3.1,0.5,4.2,1.3C11.4,3,12,4.2,12,5.4C12,7.9,9.3,10,6,10c-0.8,0-1.6-0.1-2.3-0.3
	C3,10.3,1.9,10.5,1.4,10.5z M6,1.5c-3,0-5.4,1.8-5.4,3.9c0,1.1,0.6,2.1,1.7,2.9c0.1,0.1,0.1,0.2,0.1,0.3C2.3,8.8,2.2,9.4,1.7,9.9
	c0.5-0.1,1.3-0.4,1.7-0.9C3.5,9,3.6,8.9,3.7,9C4.4,9.2,5.2,9.4,6,9.4c3,0,5.4-1.8,5.4-3.9c0-1-0.5-2-1.5-2.8C8.8,1.9,7.5,1.5,6,1.5z
	"/>
</svg>
