<?xml version="1.0" encoding="utf-8"?>
<!-- Generator: Adobe Illustrator 19.1.0, SVG Export Plug-In . SVG Version: 6.00 Build 0)  -->
<svg version="1.1" id="Слой_1" xmlns="http://www.w3.org/2000/svg" xmlns:xlink="http://www.w3.org/1999/xlink" x="0px" y="0px"
	 viewBox="0 0 28 28" style="enable-background:new 0 0 28 28;" xml:space="preserve">
<style type="text/css">
	.st0{fill:#EC2D7A;}
	.st1{fill:#FFFFFF;}
</style>
<circle class="st0" cx="14" cy="14" r="14"/>
<g>
	<g>
		<g>
			<g>
				<g>
					<g>
						<g>
							<path class="st1" d="M14.1,10.1c-0.2,0-0.4,0.1-0.7,0.1v3.1H7v-2.5C7,10.4,7.3,10,7.7,10h2.9C9.9,9.9,9.2,9.6,9.2,9
								c0-0.7,0.8-2,2.1-1.7c1.2,0.3,2.1,1.2,2.8,2.1c0.7-0.8,1.6-2,2.9-2.1c1.1-0.1,2,0.9,1.9,1.7c-0.1,0.7-0.7,0.9-1.5,1.1h2.9
								c0.4,0,0.7,0.3,0.7,0.7v2.5h-6.4v-3.1C14.4,10.2,14.3,10.1,14.1,10.1L14.1,10.1L14.1,10.1L14.1,10.1L14.1,10.1L14.1,10.1z
								 M18,9.1c0.4-0.6-0.4-1.7-1.3-1.2c-0.8,0.4-1.4,1-2,1.7c0.5,0,0.9,0.1,1.3,0C16.6,9.6,17.6,9.5,18,9.1z M10.1,9.1
								c0.6,0.6,2.1,0.6,3.3,0.5c-0.5-0.7-1.1-1.3-2-1.7c-0.6-0.3-0.9,0-1.2,0.5C10.1,8.6,9.9,9,10.1,9.1z"/>
							<path class="st1" d="M20.4,13.8v6.3c0,0.4-0.3,0.7-0.7,0.7h-5.2v-7C14.6,13.8,20.4,13.8,20.4,13.8z"/>
							<path class="st1" d="M14.1,10.1L14.1,10.1L14.1,10.1L14.1,10.1L14.1,10.1L14.1,10.1L14.1,10.1z"/>
							<path class="st1" d="M13.5,13.8v7H8.2c-0.4,0-0.7-0.3-0.7-0.7v-6.3C7.6,13.8,13.5,13.8,13.5,13.8z"/>
						</g>
					</g>
				</g>
			</g>
		</g>
	</g>
</g>
</svg>
