<?xml version="1.0" encoding="utf-8"?>
<!-- Generator: Adobe Illustrator 19.1.0, SVG Export Plug-In . SVG Version: 6.00 Build 0)  -->
<svg version="1.1" id="Слой_1" xmlns="http://www.w3.org/2000/svg" xmlns:xlink="http://www.w3.org/1999/xlink" x="0px" y="0px"
	 viewBox="0 0 255 187" style="enable-background:new 0 0 255 187;" xml:space="preserve">
<style type="text/css">
	.st0{fill:#E9E9E9;}
</style>
<g>
	<path class="st0" d="M42.3754845,51.2803764c0.5080452,0,1.0110664,0.0153999,1.5132561,0.0382881
		c4.4093742-20.090313,22.2851334-35.1284409,43.6795425-35.1284409c4.6832428,0,9.1964035,0.7228584,13.4389191,2.0584812
		C104.5533218,7.6445594,114.5499191,0,126.3378906,0c8.7544098,0,16.524765,4.2159128,21.3973846,10.7292185
		c5.6278534-2.4228888,11.8273315-3.7701674,18.3425751-3.7701674c22.5557709,0,41.3532715,16.0871906,45.5792084,37.4225159
		C236.1057739,47.5381165,255,68.4380722,255,93.7696228c0,27.512558-22.2818146,49.815094-49.7673187,49.815094
		c-3.1879272,0-6.3019867-0.3115692-9.3234863-0.8857117c-11.8335266,10.789032-27.5660095,17.3687897-44.8345184,17.3687897
		c-14.1587067,0-27.2826233-4.4261475-38.0744781-11.9664001c-7.2457504,4.947113-15.9989548,7.8427124-25.4319153,7.8427124
		c-23.0064392,0-41.9853325-17.2134247-44.8142929-39.473587c-0.1261406,0.0017014-0.2506638,0.0100403-0.3785057,0.0100403
		c-17.986084,0-32.5680885-14.5969772-32.5680885-32.6008987C9.8073969,65.8760757,24.3894005,51.2803764,42.3754845,51.2803764z"/>
	<ellipse class="st0" cx="40.2521439" cy="154.27565" rx="14.4051619" ry="14.4191523"/>
	<ellipse class="st0" cx="19.4819679" cy="172.7852173" rx="7.6300673" ry="7.6374974"/>
	<circle class="st0" cx="4.0864658" cy="182.9095001" r="4.0864658"/>
</g>
</svg>
