<?xml version="1.0" encoding="utf-8"?>
<!-- Generator: Adobe Illustrator 19.1.0, SVG Export Plug-In . SVG Version: 6.00 Build 0)  -->
<svg version="1.1" id="Слой_1" xmlns="http://www.w3.org/2000/svg" xmlns:xlink="http://www.w3.org/1999/xlink" x="0px" y="0px"
	 viewBox="36 -37 90 90" style="enable-background:new 36 -37 90 90;" xml:space="preserve">
<style type="text/css">
	.st0{opacity:0.2;}
	.st1{fill:#201600;}
</style>
<g class="st0">
	<path class="st1" d="M81-37C56.1852455-37,36-16.8147545,36,8s20.1852455,45,45,45s45-20.1852417,45-45S105.8147583-37,81-37z
		 M81,50.5257721C57.5528336,50.5257721,38.4742279,31.4471664,38.4742279,8S57.5528336-34.5257721,81-34.5257721
		S123.5257721-15.4471645,123.5257721,8S104.4471664,50.5257721,81,50.5257721z"/>
	<polygon class="st1" points="82.237114,-20.8643684 79.762886,-20.8643684 79.762886,6.762886 53.0634689,6.762886 
		53.0634689,9.237114 79.762886,9.237114 79.762886,35.0038681 82.237114,35.0038681 82.237114,9.237114 108.9317017,9.237114 
		108.9317017,6.762886 82.237114,6.762886 	"/>
</g>
</svg>
