<?xml version="1.0" encoding="utf-8"?>
<!-- Generator: Adobe Illustrator 19.1.0, SVG Export Plug-In . SVG Version: 6.00 Build 0)  -->
<svg version="1.1" id="Слой_1" xmlns="http://www.w3.org/2000/svg" xmlns:xlink="http://www.w3.org/1999/xlink" x="0px" y="0px"
	 viewBox="0 0 25 25" style="enable-background:new 0 0 25 25;" xml:space="preserve">
<style type="text/css">
	.st0{fill:#FFFFFF;}
</style>
<g>
	<g>
		<path class="st0" d="M3.6,11c0.7,0,1.4-0.4,1.7-1.1c1.2-2.8,4-4.8,7.2-4.8c1.8,0,3.4,0.6,4.8,1.6l-1,0.2c-0.4,0.1-0.6,0.3-0.7,0.7
			c0,0.4,0.1,0.7,0.5,0.8l5.7,2.6c0.2,0.1,0.5,0.1,0.8-0.1c0.2-0.1,0.4-0.4,0.4-0.7l0-6.3c0-0.4-0.2-0.7-0.6-0.8
			c-0.3-0.1-0.7,0-0.9,0.3l-0.8,1.2c-2.1-2.1-4.9-3.3-8.1-3.3c-4.8,0-8.9,2.9-10.6,7.1C1.6,9,1.7,9.7,2,10.2C2.4,10.7,2.9,11,3.6,11
			z"/>
		<path class="st0" d="M23,15.7c-0.3-0.5-0.9-0.8-1.6-0.8c-0.7,0-1.4,0.4-1.7,1.1c-1.2,2.8-4,4.8-7.2,4.8c-1.8,0-3.4-0.6-4.8-1.6
			l1-0.2c0.4-0.1,0.6-0.3,0.7-0.7c0-0.4-0.1-0.7-0.5-0.8l-5.7-2.6c-0.2-0.1-0.5-0.1-0.8,0.1c-0.2,0.1-0.4,0.4-0.4,0.7l0,6.3
			c0,0.4,0.2,0.7,0.6,0.8c0.3,0.1,0.7,0,0.9-0.3l0.8-1.2c2.1,2.1,4.9,3.3,8.1,3.3c4.8,0,8.9-2.9,10.6-7.1
			C23.4,16.9,23.3,16.2,23,15.7z"/>
	</g>
</g>
</svg>
