<?xml version="1.0" encoding="utf-8"?>
<!-- Generator: Adobe Illustrator 19.1.0, SVG Export Plug-In . SVG Version: 6.00 Build 0)  -->
<svg version="1.1" id="Слой_1" xmlns="http://www.w3.org/2000/svg" xmlns:xlink="http://www.w3.org/1999/xlink" x="0px" y="0px"
	 viewBox="0 0 14 14" style="enable-background:new 0 0 14 14;" xml:space="preserve">
<style type="text/css">
	.st0{fill:#3F3F3F;}
	.st1{fill:#17EA0C;}
</style>
<g>
	<path class="st0" d="M11.3076925,0H2.6923077C1.2076616,0,0,1.2076616,0,2.6923077v8.6153851
		C0,12.7923384,1.2076616,14,2.6923077,14h8.6153851C12.7923384,14,14,12.7923384,14,11.3076925V2.6923077
		C14,1.2076616,12.7923384,0,11.3076925,0z M12.9230766,11.3076925c0,0.890831-0.7245531,1.6153841-1.6153841,1.6153841H2.6923077
		c-0.8908308,0-1.6153846-0.7245531-1.6153846-1.6153841V2.6923077c0-0.8908308,0.7245538-1.6153847,1.6153846-1.6153847h8.6153851
		c0.890831,0,1.6153841,0.7245539,1.6153841,1.6153847V11.3076925z"/>
	<path class="st1" d="M9.8499689,4.4653535L5.9230771,8.3924618l-1.773047-1.773046
		c-0.2102156-0.2104311-0.5513847-0.2104311-0.7613845,0c-0.2104309,0.2102156-0.2104309,0.5511689,0,0.7613845L5.5424919,9.534646
		c0.1048927,0.1051083,0.2427392,0.1576614,0.3805852,0.1576614s0.275692-0.0525532,0.3808002-0.1576614l4.307693-4.3076921
		c0.2104301-0.2102156,0.2104301-0.5511694,0-0.7613845C10.4011383,4.2551384,10.0604,4.2551384,9.8499689,4.4653535z"/>
</g>
</svg>
