<?xml version="1.0" encoding="utf-8"?>
<!-- Generator: Adobe Illustrator 19.1.0, SVG Export Plug-In . SVG Version: 6.00 Build 0)  -->
<svg version="1.1" id="Слой_1" xmlns="http://www.w3.org/2000/svg" xmlns:xlink="http://www.w3.org/1999/xlink" x="0px" y="0px"
	 viewBox="0 0 14 14" style="enable-background:new 0 0 14 14;" xml:space="preserve">
<style type="text/css">
	.st0{fill:#3F3F3F;}
</style>
<g>
	<path class="st0" d="M11.3076925,0H2.6923077C1.2076616,0,0,1.2076616,0,2.6923077v8.6153851
		C0,12.7923384,1.2076616,14,2.6923077,14h8.6153851C12.7923384,14,14,12.7923384,14,11.3076925V2.6923077
		C14,1.2076616,12.7923384,0,11.3076925,0z M12.9230766,11.3076925c0,0.890831-0.7245531,1.6153841-1.6153841,1.6153841H2.6923077
		c-0.8908308,0-1.6153846-0.7245531-1.6153846-1.6153841V2.6923077c0-0.8908308,0.7245538-1.6153847,1.6153846-1.6153847h8.6153851
		c0.890831,0,1.6153841,0.7245539,1.6153841,1.6153847V11.3076925z"/>
</g>
</svg>
