<?xml version="1.0" encoding="utf-8"?>
<!-- Generator: Adobe Illustrator 17.0.0, SVG Export Plug-In . SVG Version: 6.00 Build 0)  -->
<!DOCTYPE svg PUBLIC "-//W3C//DTD SVG 1.1//EN" "http://www.w3.org/Graphics/SVG/1.1/DTD/svg11.dtd">
<svg version="1.1" id="Слой_1" xmlns="http://www.w3.org/2000/svg" xmlns:xlink="http://www.w3.org/1999/xlink" x="0px" y="0px"
	 width="1000px" height="455.574px" viewBox="0 0 1000 455.574" enable-background="new 0 0 1000 455.574" xml:space="preserve">
<path opacity="0.3" fill="#FFFFFF" enable-background="new    " d="M249.498,140.37c0.034-1.997,0.074-3.994,0.097-5.991
	c0.007-0.565,0.111-1.024,0.771-1.139c0.548-0.095,0.676-0.496,0.678-0.979c0.002-0.592,0.008-1.184,0.008-1.777
	c0.001-8.439,0.001-16.877,0.003-25.316c0-0.592-0.003-1.185,0.03-1.775c0.029-0.518,0.33-0.789,0.855-0.815
	c0.628-0.031,0.962,0.239,1.002,0.898c0.036,0.59,0.021,1.184,0.021,1.776c0.001,8.365,0,16.729,0.001,25.094
	c0,0.592,0.008,1.184,0.007,1.776c0,0.556,0.109,1.024,0.769,1.149c0.536,0.101,0.676,0.501,0.676,0.986
	c0,0.592,0.007,1.184,0.008,1.776c0.001,6.07-0.001,12.14,0.007,18.21c0.001,0.812,0.055,1.624,0.084,2.436
	c-0.027,2.144-0.059,4.288-0.077,6.433c-0.004,0.525,0.284,0.814,0.814,0.827c0.888,0.022,1.777,0.011,2.664,0.057
	c0.721,0.037,0.93,0.253,0.963,0.937c0.028,0.591,0.018,1.184,0.018,1.776c0.001,4.813,0.001,9.625,0.002,14.438
	c0,0.592,0,1.185,0.022,1.777c0.019,0.537,0.334,0.795,0.855,0.798c1.481,0.01,2.962,0.011,4.442,0.018
	c2.549,0.011,2.358-0.2,2.359,2.431c0.004,8.367,0.001,16.734,0.003,25.1c0,0.666,0.007,1.332,0.028,1.998
	c0.017,0.539,0.344,0.784,0.852,0.803c0.518,0.019,1.036,0.019,1.554,0.02c1.925,0.003,3.85-0.014,5.775,0.01
	c1.149,0.014,1.288,0.168,1.333,1.266c0.021,0.517,0.007,1.036,0.007,1.555c0,4.591-0.001,9.181,0,13.772
	c0.002,35.762,0.005,71.525,0.008,107.287c0,0.74-0.012,1.482,0.023,2.221c0.032,0.686,0.235,0.863,0.984,0.891
	c0.591,0.022,1.185,0.013,1.776-0.008c0.54-0.02,0.779-0.35,0.789-0.865c0.01-0.518,0.013-1.036,0.013-1.555
	c0.001-3.184,0-6.368,0.001-9.551c0-0.518-0.012-1.037,0.011-1.555c0.042-0.976,0.153-1.075,1.216-1.113
	c0.444-0.016,0.888-0.006,1.333-0.006c3.036,0,6.071,0,9.107,0c0.444,0,0.889-0.009,1.333,0.006c1.21,0.039,1.293,0.095,1.302,1.256
	c0.02,2.591,0.006,5.183,0.009,7.774c0.001,1.555-0.009,3.11,0.018,4.664c0.013,0.729,0.214,0.947,0.919,0.949
	c3.411,0.007,3.014,0.46,3.015-2.867c0.009-25.989,0.015-51.978-0.018-77.966c-0.002-1.412,0.355-2.534,1.219-3.651
	c3.897-5.034,7.726-10.121,11.576-15.192c3.178-4.186,6.35-8.377,9.531-12.562c0.449-0.591,0.92-1.141,0.901-1.963
	c-0.055-2.366-0.074-4.733-0.107-7.099c0.029-0.812,0.085-1.625,0.085-2.437c0.006-23.477,0.022-46.954-0.024-70.432
	c-0.003-1.78,0.422-3.278,1.309-4.803c12.917-22.205,25.791-44.434,38.679-66.655c0.292-0.503,0.505-1.067,1.009-1.442
	c0.503,0.172,0.297,0.607,0.298,0.917c0.015,5.332,0.013,10.665,0.013,15.997c0.001,38.363,0.001,76.727,0.01,115.09
	c0,0.882-0.134,1.778,0.152,2.646c0,5.444,0,10.888,0,16.331c0.055,0,0.11,0,0.164,0c0-0.584,0-1.167,0-1.751
	c0.001-3.683-0.007-7.366,0.007-11.049c0.004-1.177,0.062-2.353,0.096-3.53c1.303-0.096,2.639,0.308,3.91-0.263
	c0.374-1.227,0.178-2.488,0.18-3.73c0.019-11.996,0.012-23.991,0.013-35.987c0-0.444-0.018-0.889,0.004-1.333
	c0.025-0.501-0.185-1.133,0.324-1.441c0.658-0.397,1.426-0.319,2.137-0.061c0.162,0.059,0.332,0.326,0.349,0.51
	c0.059,0.661,0.07,1.329,0.07,1.994c0.004,12.44,0.003,24.88,0.005,37.32c0,0.666-0.011,1.334,0.018,1.999
	c0.035,0.817,0.209,0.968,1.106,1.002c0.813,0.031,1.627,0.029,2.44,0.062c0.34,0.014,0.539,0.244,0.561,0.569
	c0.039,0.59,0.055,1.182,0.055,1.773c0.005,4.073,0.002,8.145,0.004,12.218c0,0.444,0.001,0.889,0.017,1.333
	c0.019,0.52,0.284,0.827,0.82,0.836c0.888,0.015,1.777,0.013,2.665,0.017c0.37,0.002,0.741-0.005,1.111,0.002
	c1.693,0.029,1.719,0.031,1.722,1.739c0.011,6.886-0.002,13.773,0.008,20.659c0.005,3.669-0.177,3.136,3.268,3.175
	c1.258,0.014,2.517,0,3.775-0.037c0.394-0.012,0.703-0.239,0.72-0.687c0.025-0.665,0.04-1.331,0.04-1.997
	c0.003-12.662-0.002-25.324,0.007-37.986c0.002-2.964-0.311-2.661,2.561-2.663c11.922-0.01,23.843-0.011,35.765,0
	c3.016,0.003,2.662-0.32,2.663,2.781c0.009,18.512,0.004,37.023,0.01,55.535c0,0.886,0.063,1.772,0.097,2.658
	c-0.039,0.663-0.112,1.325-0.112,1.988c-0.005,14.728-0.003,29.456-0.001,44.184c0,0.518,0.01,1.036,0.025,1.553
	c0.016,0.541,0.341,0.785,0.846,0.808c0.517,0.023,1.036,0.02,1.554,0.023c1.184,0.007,2.369-0.009,3.552,0.025
	c0.713,0.021,0.949,0.252,0.982,0.918c0.036,0.739,0.023,1.48,0.025,2.22c0.005,1.776-0.008,3.553,0.017,5.328
	c0.01,0.718,0.213,0.915,0.936,0.938c1.035,0.032,2.075-0.031,3.107,0.034c1.149,0.072,2.347-0.313,3.442,0.327
	c0.398,1.075,0.177,2.191,0.188,3.286c0.034,3.182,0.001,6.365,0.021,9.547c0.007,1.133,0.129,1.243,1.309,1.257
	c1.924,0.023,3.848,0.011,5.773,0.007c2.697-0.005,2.509,0.23,2.509-2.515c0.002-21.093,0.004-42.186-0.001-63.279
	c0-0.736-0.08-1.472-0.122-2.208c0.037-0.885,0.106-1.769,0.107-2.654c0.007-16.721,0.006-33.443,0.006-50.164
	c0-0.666-0.013-1.332,0.007-1.998c0.034-1.164,0.096-1.22,1.298-1.257c0.444-0.014,0.888-0.004,1.332-0.004
	c9.323,0,18.645,0,27.968,0c0.37,0,0.74-0.007,1.11,0.003c1.425,0.039,1.454,0.056,1.502,1.521c0.043,1.331,0.068,2.663,0.069,3.994
	c0.005,22.641,0.005,45.281,0.011,67.922c0,0.885,0.063,1.77,0.096,2.655c-0.274,0.713-0.189,1.459-0.189,2.194
	c-0.004,10.866-0.002,21.732,0.001,32.599c0,0.517-0.008,1.036,0.03,1.551c0.051,0.699,0.255,0.892,0.973,0.922
	c0.664,0.028,1.333,0.053,1.995,0.009c2.114-0.141,4.257,0.357,6.349-0.279c0.457-2.039,0.123-4.105,0.198-6.158
	c0.055-1.476-0.009-2.957,0.018-4.435c0.028-1.548-0.131-3.101,0.117-4.644c1.542-0.753,3.182-0.189,4.77-0.35
	c0.586-0.059,1.183,0.003,1.773-0.024c0.862-0.04,1.026-0.181,1.037-1.068c0.027-2.217,0.012-4.435,0.021-6.652
	c0.003-0.59,0.013-1.182,0.06-1.77c0.033-0.41,0.284-0.693,0.709-0.705c1.034-0.03,2.069-0.015,3.104-0.04
	c1.27-0.032,1.307-0.08,1.345-1.431c0.008-0.295,0.003-0.591,0.003-0.887c0.001-6.061,0.004-12.123-0.003-18.184
	c-0.001-0.589-0.063-1.177-0.097-1.766c0.033-1.031,0.054-2.063,0.104-3.094c0.034-0.714,0.208-0.868,0.963-0.905
	c0.442-0.021,0.886-0.022,1.329-0.008c1.03,0.032,1.043,0.051,1.19,1.126c0.03,0.219,0.057,0.438,0.086,0.657
	c-0.034,0.441-0.098,0.882-0.098,1.323c-0.006,7.102-0.003,14.204-0.002,21.306c0,0.296-0.006,0.592,0.012,0.887
	c0.045,0.744,0.203,0.936,0.906,0.959c1.035,0.033,2.071,0.002,3.106,0.032c0.976,0.028,1.165,0.193,1.179,1.189
	c0.031,2.219,0.01,4.439,0.019,6.658c0.003,0.59,0.026,1.182,0.067,1.77c0.023,0.332,0.246,0.531,0.571,0.56
	c0.441,0.038,0.885,0.053,1.328,0.056c1.627,0.01,3.255,0.009,4.882,0.018c0.527,0.003,0.835,0.277,0.848,0.805
	c0.023,0.887,0.02,1.775,0.022,2.663c0.005,3.773-0.003,7.546,0.017,11.319c0.005,0.883,0.18,1.053,1.043,1.064
	c2.071,0.024,4.143,0.021,6.214,0.014c2.321-0.008,2.3,0.254,2.3-2.283c-0.002-15.905,0.002-31.811-0.004-47.716
	c0-0.657,0.131-1.335-0.192-1.963c0.035-2.441,0.079-4.882,0.101-7.323c0.018-1.925-0.009-3.851,0.019-5.776
	c0.012-0.838,0.216-1.006,1.075-1.045c0.443-0.02,0.888-0.008,1.333-0.008c9.479,0,18.958-0.002,28.437,0.001
	c2.526,0.001,2.417-0.212,2.417,2.39c-0.002,14.145-0.002,28.289,0.005,42.434c0,0.885,0.074,1.77,0.113,2.655
	c-0.162,0.456-0.163,0.911,0.003,1.366c-0.182,1.174-0.182,2.348,0,3.522c-0.046,0.586-0.13,1.172-0.131,1.758
	c-0.009,6.865-0.006,13.73-0.006,20.595c0,0.295-0.008,0.591,0.005,0.886c0.045,1.011,0.186,1.186,1.141,1.201
	c1.624,0.026,3.248,0.011,4.872,0.01c0.886-0.001,1.772,0.013,2.657-0.02c0.684-0.025,0.867-0.24,0.911-0.968
	c0.022-0.368,0.013-0.738,0.013-1.107c0.001-7.16,0.003-14.321-0.005-21.481c-0.001-0.587-0.076-1.173-0.116-1.76
	c0.036-0.809,0.101-1.618,0.102-2.427c0.008-6.497,0.004-12.994,0.006-19.492c0-0.591,0.006-1.181,0.02-1.772
	c0.013-0.549,0.338-0.783,0.852-0.784c1.993-0.004,3.987-0.005,5.98-0.002c0.511,0.001,0.842,0.228,0.857,0.778
	c0.016,0.59,0.023,1.181,0.023,1.771c0.002,5.759-0.003,11.518,0.005,17.277c0.001,0.809,0.063,1.619,0.097,2.428
	c-0.032,0.948-0.077,1.896-0.092,2.844c-0.008,0.538,0.337,0.796,0.833,0.801c1.757,0.016,3.514,0.015,5.271-0.001
	c0.499-0.005,0.833-0.275,0.826-0.808c-0.017-1.241-0.058-2.482-0.089-3.723c0.159-1.473,0.159-2.946,0-4.419
	c0.158-0.601,0.158-1.202,0.001-1.803c0.033-0.886,0.096-1.772,0.096-2.658c0.006-31.033,0.001-62.066,0.013-93.099
	c0.001-3.401-0.432-2.987,2.897-2.991c11.85-0.015,23.701-0.005,35.551-0.007c2.756-0.001,2.531,0.216,2.531-2.491
	c0.003-18.738-0.005-37.476,0.017-56.215c0.002-1.462-0.257-2.946,0.193-4.392c1.42-0.61,2.91-0.152,4.362-0.279
	c0.662-0.058,1.331-0.029,1.996-0.061c0.333-0.016,0.557-0.218,0.575-0.552c0.039-0.738,0.063-1.478,0.063-2.218
	c0.004-26.885,0-53.771,0.013-80.656c0.002-3.716-0.463-3.18,3.125-3.229c0.37-0.005,0.741,0.006,1.111-0.012
	c0.876-0.042,1.013-0.15,1.017-1.074c0.018-4.518,0.011-9.036,0.016-13.554c0.001-0.666,0.009-1.332,0.038-1.997
	c0.019-0.436,0.3-0.673,0.713-0.688c0.888-0.032,1.778-0.011,2.665-0.046c0.706-0.028,0.88-0.219,0.914-0.957
	c0.027-0.591,0.014-1.185,0.014-1.777c0.002-2.444-0.01-4.888,0.008-7.332c0.008-1.082,0.108-1.249,1.065-1.26
	c1.812-0.021,1.742-0.217,1.742-1.982c0.002-8.147,0.001-16.294,0.002-24.441c0-0.592-0.017-1.186,0.015-1.777
	c0.041-0.753,1.017-1.206,1.627-0.75c0.154,0.115,0.288,0.35,0.304,0.541c0.049,0.589,0.047,1.183,0.048,1.775
	c0.002,7.925,0.001,15.85,0.002,23.775c0,0.592-0.013,1.186,0.014,1.777c0.039,0.852,0.149,1.027,1.07,1.03
	c1.874,0.004,1.726,0.326,1.726,1.991c0,2.74-0.01,5.481,0.01,8.221c0.008,1.018,0.155,1.134,1.153,1.183
	c0.074,0.004,0.149-0.006,0.222,0.003c0.928,0.113,2.098-0.423,2.734,0.36c0.59,0.726,0.22,1.854,0.225,2.803
	c0.022,3.851,0.008,7.703,0.01,11.554c0,0.592,0.005,1.185,0.016,1.777c0.009,0.519,0.249,0.835,0.798,0.842
	c0.741,0.01,1.481,0.016,2.222,0.015c2.359-0.005,2.248-0.119,2.242,2.344c-0.002,0.741,0,1.481,0,2.222
	c0,26.367,0,52.734,0.001,79.101c0,0.741,0.007,1.481,0.021,2.222c0.01,0.542,0.314,0.796,0.841,0.803
	c0.592,0.008,1.185,0.013,1.777,0.015c1.111,0.003,2.222-0.016,3.333,0.009c1.045,0.023,1.182,0.157,1.218,1.124
	c0.025,0.666,0.009,1.333,0.009,2c0.001,20.96,0.001,41.92,0.005,62.88c0,0.739,0.022,1.479,0.057,2.218
	c0.016,0.339,0.247,0.535,0.574,0.554c0.59,0.035,1.183,0.05,1.774,0.051c5.999,0.003,11.998,0.001,17.998,0.001
	c0.518,0,1.037-0.011,1.555,0.006c1.114,0.038,1.203,0.126,1.23,1.328c0.022,0.962,0.007,1.926,0.007,2.888
	c0.001,25.478-0.004,50.956,0.007,76.434c0.001,3.433-0.427,2.94,3.151,2.986c0.296,0.004,0.594,0.004,0.888-0.029
	c0.41-0.046,0.684-0.265,0.7-0.705c0.022-0.592,0.033-1.184,0.034-1.776c0.003-4.962,0.002-9.925,0.003-14.887
	c0-0.592,0-1.185,0.016-1.777c0.014-0.512,0.258-0.838,0.8-0.852c0.666-0.018,1.333-0.002,1.999-0.028
	c0.878-0.034,1.057-0.197,1.088-1.023c0.028-0.74,0.013-1.481,0.014-2.222c0.005-2.888-0.004-5.777,0.02-8.665
	c0.007-0.859,0.18-1.016,1.069-1.029c1.555-0.023,3.111-0.025,4.666-0.001c0.993,0.015,1.088,0.122,1.102,1.221
	c0.022,1.777,0.007,3.555,0.009,5.333c0.002,1.778-0.01,3.555,0.016,5.332c0.012,0.863,0.186,1.014,1.05,1.054
	c0.739,0.034,1.479,0.027,2.218,0.065c0.326,0.017,0.555,0.225,0.578,0.557c0.041,0.589,0.06,1.181,0.061,1.772
	c0.005,5.036,0.003,10.073,0.005,15.109c0,0.592,0.008,1.185,0.027,1.776c0.013,0.42,0.235,0.677,0.66,0.736
	c0.146,0.02,0.295,0.035,0.442,0.033c4.228-0.054,3.62,0.615,3.622-3.399c0.016-37.18,0.012-74.36,0.014-111.541
	c0-0.593-0.012-1.186,0.008-1.777c0.038-1.129,0.108-1.21,1.333-1.222c2.148-0.021,4.296-0.008,6.444-0.01
	c0.592,0,1.185,0.013,1.777-0.006c1.048-0.034,1.183-0.156,1.221-1.117c0.023-0.592,0.009-1.185,0.009-1.777
	c0-9.851-0.001-19.701,0-29.552c0-2.678-0.216-2.476,2.546-2.483c1.777-0.004,3.555,0.006,5.332-0.018
	c0.74-0.01,0.949-0.217,0.98-0.891c0.028-0.591,0.016-1.185,0.017-1.777c0.001-5.703,0.001-11.406,0.002-17.109
	c0-0.592-0.013-1.186,0.016-1.777c0.033-0.671,0.25-0.884,0.978-0.908c1.11-0.038,2.221-0.02,3.331-0.053
	c0.51-0.015,0.827-0.305,0.847-0.832c0.025-0.666,0.025-1.333,0.025-1.999c0.001-9.851,0.001-19.701,0.001-29.552
	c0-0.592,0.003-1.185,0.007-1.777c0.004-0.57,0.166-1.022,0.831-1.087c0.548-0.053,0.749-0.398,0.754-0.903
	c0.006-0.667,0.013-1.333,0.013-2c0.001-9.776,0.001-19.553,0.003-29.329c0-0.666-0.013-1.334,0.024-1.999
	c0.039-0.694,0.268-0.882,0.985-0.915c0.825-0.037,1.058,0.16,1.094,0.989c0.026,0.591,0.011,1.185,0.011,1.777
	c0.001,9.851,0.002,19.701,0.003,29.552c0,0.593,0.015,1.185,0.002,1.777c-0.013,0.585,0.143,1.009,0.82,1.056
	c0.632,0.044,0.899,0.414,0.891,1.029c-0.008,0.592,0.008,1.185,0.008,1.777c0.001,10.073,0.001,20.145,0.004,30.218
	c0.001,2.244-0.201,2.241,2.112,2.247c3.321,0.009,2.982-0.329,2.99,2.951c0.013,5.851-0.002,11.702,0.007,17.553
	c0.003,1.976,0.02,1.984,1.923,1.996c1.852,0.011,3.703-0.013,5.555,0.01c1.227,0.016,1.347,0.151,1.372,1.449
	c0.023,1.185-0.004,2.37,0.011,3.555c0.008,0.662-0.089,1.335,0.166,1.977c-0.301,0.71-0.184,1.46-0.185,2.193
	c-0.009,7.554-0.006,15.109-0.005,22.663c0,0.518-0.005,1.038,0.025,1.555c0.083,1.429,0.17,1.533,1.536,1.545
	c2.148,0.02,4.296-0.008,6.443,0.007c3.335,0.024,2.901-0.377,2.903,2.996c0.013,22.219,0.009,44.437,0.01,66.656
	c0,2.244-0.136,2.176,2.471,2.061c0.072-0.003,0.163-0.018,0.21-0.064c0.149-0.145,0.379-0.293,0.403-0.464
	c0.07-0.511,0.071-1.032,0.072-1.55c0.005-3.407-0.006-6.814,0.011-10.221c0.003-0.728-0.259-1.561,0.195-2.16
	c0.505-0.668,1.381-0.241,2.088-0.339c0.146-0.02,0.297-0.005,0.444-0.022c0.411-0.047,0.696-0.255,0.721-0.688
	c0.033-0.591,0.042-1.183,0.043-1.775c0.003-4.814-0.008-9.628,0.017-14.442c0.003-0.532-0.248-1.506,0.39-1.499
	c0.97,0.011,0.512,1.038,0.517,1.592c0.045,4.814,0.025,9.628,0.03,14.442c0.001,0.591,0.022,1.183,0.058,1.773
	c0.02,0.338,0.248,0.541,0.571,0.562c0.664,0.044,1.33,0.049,1.995,0.074c0.508,0.019,0.84,0.241,0.856,0.789
	c0.015,0.518,0.021,1.036,0.021,1.554c0.002,3.259-0.011,6.518,0.004,9.776c0.014,2.946-0.322,2.675,2.537,2.706
	c1.893,0.021,1.907,0.035,1.91,2.035c0.008,6.073,0.002,12.146,0.003,18.219c0,0.592-0.011,1.186,0.016,1.777
	c0.034,0.738,0.205,0.931,0.915,0.951c1.184,0.034,2.37,0.007,3.554,0.041c0.687,0.019,0.871,0.234,0.906,0.971
	c0.025,0.517,0.015,1.036,0.015,1.555c0.001,3.111,0,6.221,0.001,9.332c0,0.518,0.008,1.037,0.022,1.555
	c0.014,0.542,0.333,0.788,0.843,0.807c0.518,0.019,1.036,0.02,1.555,0.02c2.814,0.002,5.629,0.011,8.443-0.003
	c3.196-0.015,2.805,0.317,2.806-2.882c0.01-29.181,0.007-58.361,0.008-87.542c0-0.741-0.011-1.482,0.02-2.221
	c0.029-0.677,0.24-0.886,0.98-0.896c1.999-0.029,3.999-0.009,5.998-0.04c0.882-0.014,1.055-0.197,1.092-1.024
	c0.027-0.591,0.012-1.185,0.012-1.777c0.001-9.11,0.001-18.219,0.002-27.329c0-0.592-0.015-1.186,0.006-1.777
	c0.036-0.993,0.181-1.154,1.172-1.173c1.555-0.03,3.11-0.017,4.665-0.031c0.539-0.005,0.808-0.304,0.811-0.833
	c0.01-1.777,0.016-3.555,0.018-5.332c0.003-4.666-0.006-9.332,0.01-13.998c0.003-1.019,0.164-1.185,1.141-1.192
	c2.814-0.021,5.629-0.011,8.443-0.012c2.43-0.001,2.304-0.148,2.304,2.272c-0.001,5.851-0.006,11.702,0.007,17.553
	c0.003,1.516,0.031,1.525,1.447,1.555c0.888,0.019,1.777,0.006,2.666,0.006c2.715,0,2.559-0.163,2.559,2.497
	c0,9.332,0,18.664,0.002,27.996c0,0.592,0.001,1.185,0.021,1.777c0.018,0.53,0.323,0.805,0.841,0.811
	c1.333,0.017,2.666,0.007,3.999,0.026c3.725,0.052,3.226-0.48,3.227,3.127c0.013,41.179,0.011,82.357,0.013,123.536
	c0,0.667-0.012,1.333,0.005,2c0.032,1.255,0.101,1.336,1.446,1.351c1.925,0.021,3.851,0.005,5.777,0.004
	c0.369,0,0.742,0.009,1.219-0.351c0.007-0.826,0.022-1.781,0.022-2.736c0.002-39.697,0.002-79.395,0.003-119.092
	c0-0.667-0.029-1.335,0.013-1.999c0.03-0.464-0.222-1.139,0.495-1.261c0.525-0.089,0.644,0.5,0.875,0.851
	c0.162,0.247,0.299,0.511,0.448,0.767c8.213,14.15,16.411,28.309,24.664,42.436c0.892,1.526,1.323,3.023,1.32,4.804
	c-0.043,24.515-0.027,49.029-0.024,73.544c0,0.74,0.007,1.481,0.025,2.221c0.013,0.545,0.338,0.793,0.854,0.796
	c1.555,0.011,3.111,0.03,4.666,0.009c1.199-0.016,1.265-0.099,1.303-1.256c0.017-0.518,0.006-1.037,0.006-1.555
	c0.001-5.999,0.001-11.998,0.001-17.997c0.001-11.183,0.016-22.367-0.016-33.55c-0.003-1.236,0.217-2.314,0.957-3.318
	c0.658-0.892,1.218-1.857,1.821-2.789c6.801-10.503,13.599-21.008,20.405-31.508c1.208-1.863,2.439-3.712,3.672-5.559
	c0.11-0.165,0.267-0.326,0.541-0.287c0.303,0.044,0.352,0.287,0.362,0.473c0.041,0.739,0.046,1.48,0.046,2.22
	c0.003,30.736,0.003,61.472,0.006,92.208c0,0.74,0.007,1.481,0.038,2.22c0.018,0.427,0.28,0.658,0.708,0.678
	c0.37,0.017,0.74,0.029,1.11,0.025c3.053-0.033,2.72,0.342,2.723-2.729c0.011-10.369,0.003-20.737,0.006-31.106
	c0-0.665,0.019-1.331,0.062-1.994c0.021-0.328,0.246-0.546,0.574-0.563c0.738-0.038,1.478-0.04,2.217-0.063
	c1.18-0.037,1.265-0.113,1.303-1.254c0.02-0.592,0.007-1.185,0.007-1.777c0.001-12.591,0.002-25.181,0.003-37.772
	c0-0.592-0.014-1.186,0.014-1.777c0.047-0.987,0.228-1.201,1.166-1.229c1.332-0.039,2.666-0.03,3.999-0.023
	c3.012,0.015,2.756-0.26,2.757,2.739c0.006,12.665,0.003,25.329,0.004,37.994c0,0.592-0.012,1.185,0.007,1.777
	c0.036,1.162,0.149,1.257,1.258,1.325c0.876,0.054,1.919-0.344,2.587,0.24c0.781,0.683,0.366,1.817,0.367,2.749
	c0.022,10.221,0.013,20.441,0.015,30.662c0,0.666,0.008,1.333,0.027,1.999c0.015,0.546,0.345,0.773,0.858,0.787
	c0.296,0.008,0.592,0.015,0.888,0.016c3.135,0.013,2.769-0.294,2.773,2.922c0.012,11.332,0.002,22.663,0.01,33.995
	c0.001,1.711,0.025,1.712,1.718,1.741c0.37,0.006,0.741,0.001,1.111,0.001c4.592,0,9.184-0.002,13.776,0.001
	c0.592,0,1.184,0.01,1.775,0.043c0.431,0.024,0.669,0.306,0.694,0.715c0.036,0.591,0.03,1.184,0.03,1.776
	c0.002,7.258,0.002,14.516,0.003,21.774c0,0.592,0.003,1.185,0.017,1.777c0.013,0.513,0.257,0.836,0.797,0.854
	c0.518,0.018,1.036,0.019,1.555,0.019c3.555,0.001,7.11,0.006,10.665-0.003c2.809-0.008,2.59,0.274,2.591-2.662
	c0.005-11.924,0.003-23.848,0.005-35.772c0-0.592-0.012-1.186,0.012-1.777c0.036-0.879,0.205-1.076,1.018-1.105
	c0.888-0.032,1.777-0.021,2.666-0.016c3.923,0.025,7.847,0.055,11.77,0.083c0,35.547,0,71.095,0,106.664
	c-333.177,0-666.353,0-999.53,0c-0.656-0.674-0.434-1.526-0.435-2.314c-0.015-6.784-0.009-13.568-0.009-20.352
	c0-0.296,0-0.593,0-0.889c0.293-0.032,0.587-0.063,0.88-0.095c0.368,0.026,0.735,0.074,1.103,0.074
	c6.369,0.005,12.739,0.005,19.108,0.006c0.296,0,0.593,0.006,0.888-0.013c0.701-0.044,0.871-0.214,0.909-0.973
	c0.029-0.591,0.016-1.185,0.016-1.777c0-5.999-0.001-11.998,0.001-17.997c0-0.666,0.008-1.333,0.031-1.999
	c0.018-0.519,0.299-0.817,0.825-0.832c0.74-0.021,1.48-0.028,2.221-0.029c4.962-0.002,9.924,0.005,14.887-0.007
	c0.909-0.002,1.073-0.167,1.112-0.995c0.031-0.665,0.016-1.333,0.016-1.999c0.002-20.367,0.003-40.735,0.006-61.102
	c0-0.74,0.004-1.481,0.05-2.219c0.026-0.411,0.293-0.668,0.721-0.69c0.517-0.026,1.035-0.042,1.553-0.042
	c2.963-0.003,5.925,0.023,8.887-0.005c3.341-0.031,2.942,0.492,2.944-2.937c0.011-26.514,0.007-53.029,0.01-79.543
	c0-0.74,0.001-1.482,0.043-2.22c0.01-0.182,0.147-0.404,0.295-0.519c0.224-0.175,0.429,0.033,0.55,0.195
	c0.355,0.473,0.685,0.965,1.007,1.462c7.129,10.997,14.244,22.002,21.4,32.981c0.682,1.046,0.963,2.087,0.957,3.319
	c-0.035,6.888-0.018,13.776-0.015,20.663c0,0.666,0.011,1.332,0.04,1.998c0.018,0.434,0.291,0.65,0.708,0.684
	c0.295,0.024,0.591,0.031,0.887,0.031c5.333,0.001,10.665,0,15.998-0.002c0.222,0,0.445,0.001,0.666-0.017
	c0.682-0.054,0.851-0.23,0.884-0.987c0.026-0.592,0.017-1.185,0.017-1.777c0.001-4.962-0.001-9.924,0-14.887
	c0-0.592-0.013-1.186,0.017-1.777c0.036-0.719,0.228-0.927,0.938-0.954c1.036-0.04,2.073-0.018,3.109-0.057
	c0.41-0.015,0.683-0.266,0.7-0.703c0.023-0.592,0.036-1.184,0.037-1.776c0.003-4.962,0.001-9.924,0.002-14.887
	c0-0.592,0-1.185,0.018-1.777c0.015-0.514,0.269-0.83,0.809-0.846c0.814-0.024,1.629-0.021,2.441-0.066
	c0.312-0.017,0.559-0.236,0.591-0.556c0.051-0.514,0.059-1.034,0.06-1.552c0.005-2.888-0.001-5.777,0.006-8.665
	c0.001-0.517,0.024-1.035,0.071-1.549c0.03-0.332,0.26-0.538,0.591-0.54c1.85-0.01,3.7-0.009,5.549,0.003
	c0.336,0.002,0.545,0.23,0.571,0.557c0.041,0.515,0.059,1.033,0.06,1.551c0.005,2.888,0.001,5.777,0.002,8.665
	c0.001,2.098-0.118,2.165,2,2.135c1.935-0.027,1.937,0.005,1.934,1.983c-0.007,5.258-0.003,10.517-0.001,15.775
	c0.001,2.426-0.156,2.292,2.293,2.283c2.696-0.01,2.501-0.045,2.501,2.577c0,12.887,0.001,25.774,0.001,38.661
	c0,0.592-0.013,1.186,0.006,1.777c0.038,1.186,0.116,1.26,1.267,1.302c0.296,0.011,0.592,0.007,0.889,0.003
	c3.308-0.042,2.934,0.413,2.935-2.98c0.01-21.182,0.019-42.364-0.017-63.546c-0.003-1.687,0.335-3.141,1.202-4.611
	c4.513-7.652,8.939-15.355,13.393-23.042c2.858-4.932,5.706-9.87,8.58-14.794c0.225-0.385,0.318-1.029,1.137-0.901
	c0,0.828,0,1.632,0,2.436c0.002,34.809,0.004,69.619,0.007,104.428c0,0.592-0.013,1.186,0.006,1.777
	c0.036,1.123,0.117,1.214,1.332,1.227c1.777,0.02,3.555,0.005,5.332,0.004c0.148,0,0.296-0.006,0.444-0.014
	c0.523-0.029,0.817-0.296,0.828-0.83c0.013-0.592,0.017-1.185,0.017-1.777c0.002-4.888,0.002-9.776,0.002-14.664
	c0.001-31.329,0.003-62.657,0.004-93.986c0-2.263-0.11-2.181,2.175-2.186c1.333-0.003,2.667,0.011,3.999-0.021
	c0.696-0.017,0.894-0.246,0.925-0.962c0.026-0.591,0.014-1.185,0.014-1.777c0.001-7.777,0.001-15.553,0.002-23.33
	c0-0.592-0.012-1.186,0.015-1.777c0.033-0.727,0.205-0.916,0.929-0.934c1.332-0.033,2.666-0.021,3.999-0.038
	c0.524-0.007,0.827-0.284,0.844-0.814c0.021-0.666,0.021-1.333,0.021-1.999c0.003-4.888-0.005-9.776,0.012-14.664
	c0.004-1.065,0.055-1.177,1.148-1.155c1.729,0.035,1.719-0.473,1.703-1.83c-0.005-0.444,0-0.889,0-1.333
	c0-4.814,0-9.628,0.001-14.442c0-0.592-0.002-1.185,0.024-1.777c0.021-0.477,0.189-0.903,0.743-0.926
	c0.779-0.032,1.006-0.461,0.984-1.158c-0.019-0.592,0.003-1.185,0.003-1.777c0.001-5.184-0.007-10.369,0.013-15.553
	c0.002-0.544-0.252-1.227,0.471-1.56c0.359-0.165,0.598,0.438,0.599,1.632c0.006,5.258,0.002,10.517,0.004,15.775
	c0,0.592,0.009,1.185,0.018,1.777c0.008,0.526,0.268,0.813,0.806,0.832c0.627,0.022,0.935,0.347,0.933,0.977
	c-0.002,0.592,0.009,1.185,0.009,1.777c0,5.036-0.008,10.073,0.008,15.109c0.002,0.725-0.258,1.551,0.239,2.149
	c0.465,0.559,1.257,0.226,1.898,0.329c0.433,0.07,0.646,0.312,0.661,0.73c0.021,0.592,0.03,1.184,0.03,1.776
	c0.002,3.999,0.001,7.999,0.001,11.998c0,0.963-0.016,1.926,0.007,2.888c0.028,1.13,0.126,1.224,1.325,1.25
	c1.11,0.024,2.222-0.009,3.333,0.019c0.99,0.025,1.095,0.149,1.132,1.197c0.021,0.592,0.008,1.185,0.008,1.777
	c0.001,7.777,0.001,15.553,0.003,23.33c0,0.592-0.004,1.185,0.033,1.776c0.027,0.422,0.311,0.68,0.721,0.692
	c1.11,0.033,2.22,0.024,3.331,0.04c3.462,0.048,3.021-0.437,3.023,3.115c0.013,25.181,0.008,50.363,0.01,75.544
	c0,0.74,0.002,1.481,0.038,2.22c0.021,0.422,0.295,0.649,0.716,0.692c0.074,0.007,0.147,0.027,0.22,0.027
	c3.332-0.002,6.663,0.011,9.995-0.019c0.77-0.007,0.918-0.185,0.924-0.932c0.021-2.74,0.013-5.481,0.017-8.221
	c0.001-0.741-0.014-1.482,0.017-2.221c0.035-0.822,0.224-0.996,1.1-1.04c0.591-0.029,1.185-0.01,1.777-0.018
	c1.876-0.026,1.877-0.027,1.903-1.8c0.006-0.444,0.001-0.889,0.001-1.333c0-4.814-0.001-9.628,0.002-14.442
	c0-0.592,0-1.185,0.044-1.774c0.031-0.42,0.311-0.652,0.733-0.667c0.814-0.028,1.629-0.027,2.442-0.067
	c0.32-0.016,0.569-0.225,0.604-0.547c0.055-0.514,0.067-1.034,0.068-1.551c0.006-2.74-0.018-5.481,0.016-8.221
	c0.01-0.79-0.312-1.692,0.285-2.347c0.486-0.534,1.27-0.179,1.914-0.283c0.429-0.069,0.667-0.298,0.691-0.711
	c0.034-0.591,0.037-1.184,0.037-1.775c0.003-3.925-0.009-7.851,0.016-11.776c0.004-0.543-0.235-1.18,0.35-1.614
	c0.958,0.302,0.473,1.105,0.48,1.64c0.052,4.147,0.033,8.295,0.028,12.442c-0.002,1.632-0.003,1.872,1.652,1.821
	c0.222-0.007,0.445,0.001,0.666,0.021c0.424,0.037,0.673,0.273,0.695,0.7c0.026,0.517,0.034,1.036,0.035,1.554
	c0.003,2.74,0.001,5.481,0.002,8.221c0,0.518-0.01,1.038,0.016,1.555c0.034,0.668,0.258,0.871,0.978,0.894
	c0.369,0.012,0.739-0.007,1.107-0.035c0.329-0.025,0.558-0.219,0.576-0.549c0.04-0.738,0.06-1.479,0.06-2.218
	c0.004-18.96,0.004-37.92,0.006-56.88c0-0.667-0.015-1.334,0.016-1.999c0.032-0.707,0.236-0.931,0.944-0.94
	c2.073-0.026,4.147-0.019,6.221-0.019c2.53,0.001,2.37,0.138,2.37-2.445c0.001-8.369,0-16.738,0.001-25.107
	c0-0.666,0.007-1.333,0.026-1.999c0.016-0.548,0.347-0.783,0.862-0.786c1.407-0.01,2.814-0.01,4.221-0.017
	c0.592-0.003,1.185-0.001,1.777-0.022c0.541-0.019,0.778-0.352,0.791-0.862c0.015-0.592,0.017-1.185,0.017-1.777
	c0.002-4.814,0.001-9.628,0.003-14.442c0-0.592,0.009-1.185,0.018-1.777c0.008-0.536,0.317-0.82,0.819-0.845
	c0.961-0.048,1.924-0.039,2.885-0.082c0.41-0.018,0.69-0.246,0.711-0.689c0.023-0.517,0.039-1.036,0.039-1.553
	c0.003-6.518,0.005-13.035-0.003-19.553C249.608,141.547,249.537,140.958,249.498,140.37z"/>
</svg>
