<?xml version="1.0" encoding="utf-8"?>
<!-- Generator: Adobe Illustrator 19.1.0, SVG Export Plug-In . SVG Version: 6.00 Build 0)  -->
<svg version="1.1" id="Слой_1" xmlns="http://www.w3.org/2000/svg" xmlns:xlink="http://www.w3.org/1999/xlink" x="0px" y="0px"
	 viewBox="2 -2 10 10" style="enable-background:new 2 -2 10 10;" xml:space="preserve">
<style type="text/css">
	.st0{fill:#CDCDCD;}
</style>
<g>
	<path class="st0" d="M7-1.1c2.3,0,4.1,1.8,4.1,4.1c0,2.3-1.8,4.1-4.1,4.1C4.7,7.1,2.9,5.3,2.9,3C2.9,0.7,4.7-1.1,7-1.1z M2,3
		c0,2.8,2.2,5,5,5s5-2.2,5-5S9.8-2,7-2S2,0.2,2,3z"/>
	<path class="st0" d="M10,4.7C9.9,4.9,9.6,5,9.4,4.9l0,0L6.8,3.4C6.6,3.3,6.6,3.2,6.6,3h0V0c0-0.2,0.2-0.4,0.4-0.4S7.4-0.2,7.4,0
		v2.7l2.4,1.4C10,4.2,10.1,4.5,10,4.7z"/>
</g>
</svg>
