<?xml version="1.0" encoding="utf-8"?>
<!-- Generator: Adobe Illustrator 18.0.0, SVG Export Plug-In . SVG Version: 6.00 Build 0)  -->
<!DOCTYPE svg PUBLIC "-//W3C//DTD SVG 1.1//EN" "http://www.w3.org/Graphics/SVG/1.1/DTD/svg11.dtd">
<svg version="1.1" id="Слой_1" xmlns="http://www.w3.org/2000/svg" xmlns:xlink="http://www.w3.org/1999/xlink" x="0px" y="0px"
	 viewBox="0 0 50 40" enable-background="new 0 0 50 40" xml:space="preserve">
<path fill="#729AEF" d="M25,0.7c-13.6,0-24.6,8.1-24.6,18c0,4.9,2.7,9.6,7.7,13c0.5,0.3,0.7,0.9,0.6,1.4c-0.2,1-1,3.7-3.3,6.1
	c2.3-0.4,5.7-1.6,7.9-3.9c0.4-0.4,0.9-0.5,1.4-0.4c3.3,1.1,6.8,1.7,10.4,1.7c13.6,0,24.6-8.1,24.6-18c0-4.7-2.5-9.2-7.1-12.6
	C37.9,2.7,31.6,0.7,25,0.7z"/>
<g>
	<circle fill="#FFFFFF" cx="16" cy="20" r="2.7"/>
	<circle fill="#FFFFFF" cx="25" cy="20" r="2.7"/>
	<circle fill="#FFFFFF" cx="34" cy="20" r="2.7"/>
</g>
</svg>
