<?xml version="1.0" encoding="utf-8"?>
<!-- Generator: Adobe Illustrator 19.1.0, SVG Export Plug-In . SVG Version: 6.00 Build 0)  -->
<svg version="1.1" id="Слой_1" xmlns="http://www.w3.org/2000/svg" xmlns:xlink="http://www.w3.org/1999/xlink" x="0px" y="0px"
	 viewBox="0 0 78 76" style="enable-background:new 0 0 78 76;" xml:space="preserve">
<style type="text/css">
	.st0{fill:#FFFFFF;}
</style>
<g>
	<path class="st0" d="M17.2339916,27.2702942c-0.6250668-1.4678974-1.1490593-2.2922611-1.5746374-2.4544735
		c-0.4255772-0.1648731-1.1251211-0.045208-2.0959702,0.3696327c-0.4894142,0.2074203-1.2873726,0.6515141-2.3991947,1.3242989
		c-1.1171417,0.6754456-2.0002155,1.1567688-2.6598606,1.4359875c-1.5985765,0.6807632-3.1120372,0.7126751-4.5403824,0.0957317
		C2.5356007,27.42453,1.4610169,26.2677631,0.7375348,24.568512c-0.8591351-2.0157013-0.9681894-3.7947292-0.3245031-5.3424034
		c0.6383666-1.550333,1.9736167-2.7549667,4.0057507-3.6192179c0.1436324-0.0585032,1.6996512-0.5876913,4.6707163-1.5822449
		c2.9710646-0.9918947,5.814455-2.0715446,8.5275135-3.2256517c1.8299847-0.7791557,4.3142948-1.9678345,7.4476109-3.571353
		s5.412817-2.7097602,6.8411617-3.3160655c10.1500282-4.3212566,18.6775436-5.060524,25.5719032-2.2257795
		c6.8996773,2.8400629,12.5385857,9.4003954,16.922039,19.6916332c3.9658508,9.3232765,4.6547546,17.582859,2.0693665,24.7947044
		c-2.5853806,7.2118454-8.1976929,12.6526413-16.8315964,16.3277016c-0.2553482,0.1090279-2.4497337,0.9094582-6.5778389,2.3933144
		c-4.1281013,1.4891663-8.1205559,3.0554581-11.9826736,4.6962051c-2.6279411,1.1195374-5.1920471,2.3427887-7.6816788,3.6724014
		c-2.4896278,1.332283-3.7504025,1.9997482-3.7770004,2.0130463c-1.9443588,0.8270187-3.6812477,0.9466858-5.2159882,0.3589935
		c-1.5347385-0.5850296-2.7050781-1.8322144-3.5136757-3.7309036c-0.7367821-1.731163-0.8298759-3.3346786-0.2766266-4.8132172
		c0.555912-1.4732132,1.6491146-2.5555267,3.2769489-3.2495842c0.6011295-0.2552872,1.5267601-0.515892,2.784874-0.7818146
		c1.2527962-0.2659225,2.1544876-0.5105743,2.6970997-0.7419281c0.9123325-0.3882484,1.4682426-0.8163834,1.6597538-1.2737732
		c0.19417-0.4627075-0.0239391-1.4253502-0.6543255-2.9038849L17.2339916,27.2702942z M34.6853409,23.6430988L46.237114,50.7805901
		c0.7394447,1.7311592,1.462925,2.6618919,2.1757698,2.7842178c0.712841,0.1303024,2.356636-0.3563385,4.9313812-1.4492836
		c4.2584381-1.8135986,6.7188072-4.6829109,7.3731346-8.6132622c0.6596451-3.9223709-0.4335594-9.2302017-3.2822685-15.9208374
		c-2.6518822-6.2279282-5.516552-10.363039-8.5940132-12.3920345c-3.0774574-2.0343142-6.6602898-2.1832314-10.748497-0.4440918
		l-0.6436844,0.2765598c-2.6598625,1.1301746-4.1387444,2.0183601-4.4366493,2.6645546
		c-0.3032227,0.6408749,0.0186195,2.0688839,0.9602089,4.2813663L34.6853409,23.6430988z"/>
</g>
</svg>
