<?xml version="1.0" encoding="utf-8"?>
<!-- Generator: Adobe Illustrator 19.1.0, SVG Export Plug-In . SVG Version: 6.00 Build 0)  -->
<svg version="1.1" id="Слой_1" xmlns="http://www.w3.org/2000/svg" xmlns:xlink="http://www.w3.org/1999/xlink" x="0px" y="0px"
	 viewBox="0 0 28 28" style="enable-background:new 0 0 28 28;" xml:space="preserve">
<style type="text/css">
	.st0{fill:#CECECE;}
	.st1{fill:#FFFFFF;}
</style>
<rect class="st0" width="28" height="28"/>
<g>
	<path class="st1" d="M8.6910334,8.8283758h6.6751299c0.1965151,0,0.3560066-0.1594906,0.3560066-0.3560066
		s-0.1594915-0.3560066-0.3560066-0.3560066H8.6910334C7.9651351,8.1163626,7,8.2731838,7,9.6293917v10.5022039
		c0,1.3562107,0.9651351,1.513031,1.6910334,1.513031h10.1461973c0.7258987,0,1.6910324-0.1568203,1.6910324-1.513031v-7.5651464
		c0-0.196516-0.1594906-0.3560066-0.3560066-0.3560066s-0.3560066,0.1594906-0.3560066,0.3560066v7.5651464
		c0,0.5539474-0.1413345,0.8010159-0.9790192,0.8010159H8.6910334c-0.8376846,0-0.9790196-0.2470684-0.9790196-0.8010159V9.6293917
		C7.7120137,9.0754452,7.8533487,8.8283758,8.6910334,8.8283758z"/>
	<path class="st1" d="M19.8463326,6.3553743c-0.080101,0-0.1230011,0.008544-0.1230011,0.008544
		c-0.0688877,0.0138845-0.1436481,0.0496631-0.1933117,0.099504l-2.4598293,2.4598298l-5.1094122,5.0627747
		c-0.0539351,0.053401-0.0893574,0.1226435-0.1011057,0.1975832l-0.3412323,2.1734228
		c-0.0174446,0.1108971,0.0185118,0.2233944,0.0966549,0.3036747c0.0674639,0.0692425,0.1594915,0.1075134,0.2549009,0.1075134
		c0.0153084,0,0.0307951-0.0010681,0.0461025-0.0030251l2.0732069-0.2705669
		c0.0254545,0.0056973,0.0516214,0.0085449,0.0776091,0.0085449c0.077076,0,0.1548634-0.0249195,0.220191-0.0763626
		c0,0,0.0288363-0.0263443,0.0416527-0.0407639c0,0,0.0124598-0.0074768,0.017622-0.0124607l7.5459232-7.5484142
		c0.0523319-0.0525112,0.0870438-0.1199741,0.0993252-0.1931334c0.0122814-0.0740499,0.0970116-0.7469029-0.7123699-1.5561066
		C20.6286583,6.4256854,20.0604706,6.3553743,19.8463326,6.3553743z M12.5524626,15.7299261
		c-0.0651503-0.0653267-0.1302986-0.1135654-0.1913538-0.1497002l0.1429367-0.9103098
		c0.1708832,0.0583849,0.4208002,0.1886845,0.7351542,0.5030384c0.2577486,0.2577486,0.3770113,0.4816771,0.4318361,0.6454401
		l-0.9411039,0.1226444C12.6827602,15.874465,12.6252661,15.8027296,12.5524626,15.7299261z M14.2819443,15.4314146
		c-0.1002159-0.2276659-0.2659378-0.4884405-0.5393505-0.7618542c-0.3259249-0.3259249-0.6142902-0.5069542-0.8444481-0.6100178
		l4.6743717-4.6318283l2.3540955-2.3539181c0.1537933,0.0224285,0.4619179,0.1187282,0.8490753,0.5058856
		c0.3928528,0.3926759,0.4859505,0.7036481,0.5074883,0.848187L14.2819443,15.4314146z"/>
</g>
</svg>
