<?xml version="1.0" encoding="utf-8"?>
<!-- Generator: Adobe Illustrator 19.1.0, SVG Export Plug-In . SVG Version: 6.00 Build 0)  -->
<svg version="1.1" id="Слой_1" xmlns="http://www.w3.org/2000/svg" xmlns:xlink="http://www.w3.org/1999/xlink" x="0px" y="0px"
	 viewBox="0 0 28 28" style="enable-background:new 0 0 28 28;" xml:space="preserve">
<style type="text/css">
	.st0{fill:#EC2D7A;}
	.st1{fill:#FFFFFF;}
</style>
<rect class="st0" width="28" height="28"/>
<g>
	<g>
		<g>
			<g>
				<g>
					<g>
						<g>
							<path class="st1" d="M14.1000004,10.1000004c-0.1999989,0-0.3999996,0.1000004-0.6999989,0.1000004v3.1000004H7v-2.5
								C7,10.3999996,7.2999992,10,7.7000008,10h2.8999996C9.8999996,9.8999996,9.2000008,9.6000004,9.2000008,9
								c0-0.6999998,0.7999992-2,2.0999985-1.6999998C12.5,7.6000004,13.3999996,8.5,14.0999985,9.3999996
								c0.7000008-0.8000002,1.6000023-2,2.9000015-2.0999999C18.1000004,7.1999998,19,8.1999998,18.8999996,9
								c-0.1000004,0.6999998-0.7000008,0.8999996-1.5,1.1000004h2.8999996C20.6999989,10.1000004,21,10.4000006,21,10.8000002v2.5
								h-6.3999996v-3.0999994C14.3999996,10.1999998,14.2999992,10.1000004,14.1000004,10.1000004L14.1000004,10.1000004
								L14.1000004,10.1000004L14.1000004,10.1000004L14.1000004,10.1000004L14.1000004,10.1000004z M18,9.1000004
								C18.3999996,8.5,17.6000004,7.4000006,16.7000008,7.9000006c-0.7999992,0.3999996-1.3999996,1-2,1.6999998
								c0.5,0,0.8999996,0.1000004,1.2999992,0C16.6000004,9.6000004,17.6000004,9.5,18,9.1000004z M10.1000004,9.1000004
								c0.6000004,0.6000004,2.1000004,0.6000004,3.3000011,0.5c-0.5-0.6999998-1.1000023-1.3000002-2-1.6999998
								c-0.6000023-0.3000002-0.9000015,0-1.2000008,0.5C10.1000004,8.6000004,9.8999996,9,10.1000004,9.1000004z"/>
							<path class="st1" d="M20.3999996,13.8000002v6.3000002c0,0.3999996-0.2999992,0.7000008-0.7000008,0.7000008H14.5v-7
								C14.6000004,13.8000002,20.3999996,13.8000002,20.3999996,13.8000002z"/>
							<path class="st1" d="M14.1000004,10.1000004L14.1000004,10.1000004L14.1000004,10.1000004L14.1000004,10.1000004
								L14.1000004,10.1000004L14.1000004,10.1000004L14.1000004,10.1000004z"/>
							<path class="st1" d="M13.5,13.8000002v6.999999H8.2000008C7.7999992,20.7999992,7.5,20.5,7.5,20.0999985v-6.3000002
								C7.6000004,13.8000002,13.5,13.8000002,13.5,13.8000002z"/>
						</g>
					</g>
				</g>
			</g>
		</g>
	</g>
</g>
</svg>
