<?xml version="1.0" encoding="utf-8"?>
<!-- Generator: Adobe Illustrator 19.1.0, SVG Export Plug-In . SVG Version: 6.00 Build 0)  -->
<svg version="1.1" id="Слой_1" xmlns="http://www.w3.org/2000/svg" xmlns:xlink="http://www.w3.org/1999/xlink" x="0px" y="0px"
	 viewBox="0 0 28 28" style="enable-background:new 0 0 28 28;" xml:space="preserve">
<style type="text/css">
	.st0{fill:#905CEF;}
	.st1{fill:#FFFFFF;}
</style>
<rect class="st0" width="28" height="28"/>
<path class="st1" d="M18.5608044,11.4471312V9.3182344c0-2.5187097-2.0470753-4.5602732-4.5608759-4.5602732
	c-2.5188818,0-4.5607901,2.0412192-4.5607901,4.5602732v2.1288967c-1.0080347,0.0029278-1.8243504,0.8145924-1.8243504,1.8300343
	v6.0695696c0,1.0107918,0.8182964,1.8302078,1.82969,1.8302078h9.1109858c1.0105324,0,1.8296909-0.8128719,1.8296909-1.8302078
	v-6.0695696C20.3851547,12.2682695,19.5697861,11.4500589,18.5608044,11.4471312z M14.4804325,16.3770618v1.460722
	c0,0.2618275-0.215663,0.4750786-0.4805908,0.4750786s-0.4802456-0.2132511-0.4802456-0.4750786v-1.460722
	c-0.3682814-0.1815567-0.6080599-0.5594826-0.6080599-0.9770279c0-0.6001358,0.4881706-1.0886507,1.0883055-1.0886507
	c0.6001358,0,1.0886507,0.4885149,1.0886507,1.0886507C15.0884924,15.8175793,14.8487139,16.1955051,14.4804325,16.3770618z
	 M16.736454,11.4471312h-5.4729652V9.3192673c0-1.5151525,1.2251625-2.7371278,2.7364397-2.7371278
	c1.5082626,0,2.7365255,1.2254205,2.7365255,2.7371278V11.4471312z"/>
</svg>
