<?xml version="1.0" encoding="utf-8"?>
<!-- Generator: Adobe Illustrator 19.1.0, SVG Export Plug-In . SVG Version: 6.00 Build 0)  -->
<svg version="1.1" id="Слой_1" xmlns="http://www.w3.org/2000/svg" xmlns:xlink="http://www.w3.org/1999/xlink" x="0px" y="0px"
	 viewBox="0 0 14 14" style="enable-background:new 0 0 14 14;" xml:space="preserve">
<style type="text/css">
	.st0{fill:#FFFFFF;}
</style>
<path class="st0" d="M8.9195557,6.999939l4.6826782-4.6831055c0.5303345-0.5298462,0.5303345-1.3891602,0-1.9190063
	c-0.5303955-0.5303345-1.3891602-0.5303345-1.9195557-0.0005493L6.999939,5.0804443L2.3168335,0.3977661
	c-0.5298462-0.5303345-1.3891602-0.5303345-1.9190063,0c-0.5303345,0.5303955-0.5303345,1.3891602-0.0005493,1.9195557
	L5.0804443,7.000061l-4.6826782,4.6831055c-0.5303345,0.5298462-0.5303345,1.3891602,0,1.9190063
	c0.5303955,0.5303345,1.3891602,0.5303345,1.9195557,0.0005493L7.000061,8.9195557l4.6831055,4.6826782
	c0.5298462,0.5303345,1.3891602,0.5303345,1.9190063,0c0.5303345-0.5303955,0.5303345-1.3891602,0.0005493-1.9195557
	L8.9195557,6.999939z"/>
</svg>
