<?xml version="1.0" encoding="utf-8"?>
<!-- Generator: Adobe Illustrator 19.1.0, SVG Export Plug-In . SVG Version: 6.00 Build 0)  -->
<svg version="1.1" id="Layer_1" xmlns="http://www.w3.org/2000/svg" xmlns:xlink="http://www.w3.org/1999/xlink" x="0px" y="0px"
	 viewBox="-42 46.9000015 8.8000002 12.1000004" style="enable-background:new -42 46.9000015 8.8000002 12.1000004;"
	 xml:space="preserve">
<style type="text/css">
	.st0{fill:#FFFFFF;}
</style>
<path class="st0" d="M-34.4890175,54.3878326c0.8313217-0.830986,1.2890167-1.9358826,1.2890167-3.1115723
	c0-1.1751823-0.457695-2.2802467-1.2890167-3.1110649c-0.8308182-0.830986-1.9362183-1.2885132-3.1110649-1.2885132
	c-1.175354,0-2.2800827,0.4575272-3.1108971,1.2885132C-41.5421333,48.9961815-42,50.1014137-42,51.2765961
	c0,1.175354,0.4578667,2.2802505,1.2888489,3.1112366c0.7176552,0.7178192,1.6446533,1.1365089,2.640255,1.242775v1.3463593
	h-1.0741272c-0.2702141,0-0.4898148,0.0813828-0.4898148,0.3524361s0.2196007,0.3522682,0.4898148,0.3522682h1.0741272v0.8266144
	c0,0.2843361,0.1852989,0.5150375,0.4698029,0.5150375c0.2843361,0,0.469635-0.2307014,0.469635-0.5150375v-0.8266144h1.0756416
	c0.2710533,0,0.4904861-0.0812149,0.4904861-0.3522682s-0.2194328-0.3524361-0.4904861-0.3524361h-1.0756416v-1.3461876
	C-36.1351814,55.5248451-35.2076797,55.1059875-34.4890175,54.3878326z M-41.1342087,51.2765961
	c0-0.9441452,0.367569-1.8314629,1.0354538-2.4990082c0.6672096-0.667881,1.5543556-1.0351143,2.4986725-1.0351143
	c0.9438095,0,1.8309555,0.3672333,2.4986687,1.0351143c0.6678848,0.6672096,1.0354538,1.5546951,1.0354538,2.4986725
	c0,0.9439812-0.367569,1.8316307-1.0354538,2.4996834c-0.6675453,0.667038-1.5548592,1.0349464-2.4988365,1.0349464
	c-0.9438133,0-1.831295-0.367569-2.4985046-1.0351143C-40.7666397,53.1078911-41.1342087,52.2205772-41.1342087,51.2765961z"/>
</svg>
