<?xml version="1.0" encoding="utf-8"?>
<!-- Generator: Adobe Illustrator 19.1.0, SVG Export Plug-In . SVG Version: 6.00 Build 0)  -->
<svg version="1.1" id="Layer_1" xmlns="http://www.w3.org/2000/svg" xmlns:xlink="http://www.w3.org/1999/xlink" x="0px" y="0px"
	 viewBox="-41 47.7661629 11 11.2338362" style="enable-background:new -41 47.7661629 11 11.2338362;" xml:space="preserve">
<style type="text/css">
	.st0{fill:#FFFFFF;}
</style>
<path class="st0" d="M-30.1968842,48.4011154c-0.0015087-0.027813-0.0085449-0.050766-0.0144081-0.0675201l-0.0056973-0.0236244
	c0,0-0.0058632-0.0323334-0.0150776-0.0534439c-0.0216122-0.0500946-0.0505981-0.0939903-0.0864506-0.1310158
	c-0.001173-0.0016747-0.0025139-0.0030136-0.0025139-0.0030136l-0.0170879-0.014576
	c-0.0353508-0.0323372-0.0753937-0.057972-0.1179485-0.0765686c0,0-0.0410461-0.0132332-0.0552883-0.0159149l-0.0226173-0.0058632
	c-0.0159168-0.0050278-0.0380306-0.0123978-0.0648384-0.0139046l-3.4444427-0.2281914
	c-0.2390823-0.0187645-0.4439812,0.1653633-0.4595642,0.4017601c-0.0075378,0.1151009,0.0298233,0.2261772,0.1058884,0.3126297
	c0.0758934,0.0869522,0.1809425,0.1388893,0.2958717,0.1462631l2.4963398,0.1655273l-2.3564434,2.3562775
	c-0.7612991-0.5852165-1.6789131-0.9181175-2.6548309-0.9181175c-1.1711006,0-2.2718353,0.4558754-3.0996475,1.2840233
	C-40.5437889,52.3438225-41,53.4448929-41,54.6158257c0,1.1711006,0.4562111,2.2720032,1.2841911,3.1001511
	C-38.8883324,58.5436211-37.7874298,59-36.616497,59c1.1711006,0,2.2720032-0.4563789,3.1003189-1.2840233
	c0.8283157-0.8281479,1.284359-1.9290504,1.284359-3.1003189c0-1.0725899-0.3985748-2.0763168-1.0995636-2.8753128
	l2.3284664-2.3288002l0.1412354,2.4522743c0.0132351,0.2278557,0.2017174,0.4064522,0.4300747,0.4064522l0.0251293-0.0006714
	c0.237236-0.0135689,0.4191856-0.217968,0.4057808-0.4553719L-30.1968842,48.4011154z M-34.1263542,57.1063004
	c-0.6651344,0.6646309-1.5492401,1.0310364-2.4898071,1.0310364c-0.9403992,0-1.8246727-0.3662415-2.4894676-1.0313721
	c-0.6654701-0.6652985-1.0317116-1.549572-1.0317116-2.490139s0.3662415-1.8248405,1.0317116-2.4899712
	c0.6647949-0.6653023,1.5487328-1.0313759,2.4896355-1.0313759c0.9403992,0,1.824337,0.3660736,2.4896393,1.0313759
	c0.6654663,0.6649628,1.0317078,1.5490685,1.0317078,2.4898033C-33.0946465,55.5562248-33.4608879,56.4406662-34.1263542,57.1063004
	z"/>
</svg>
