<?xml version="1.0" encoding="utf-8"?>
<!-- Generator: Adobe Illustrator 19.1.0, SVG Export Plug-In . SVG Version: 6.00 Build 0)  -->
<svg version="1.1" id="Слой_1" xmlns="http://www.w3.org/2000/svg" xmlns:xlink="http://www.w3.org/1999/xlink" x="0px" y="0px"
	 viewBox="0 0 52 52" style="enable-background:new 0 0 52 52;" xml:space="preserve">
<style type="text/css">
	.st0{clip-path:url(#SVGID_2_);fill:#D0422A;}
	.st1{fill:#FFFFFF;}
</style>
<g>
	<g>
		<defs>
			<circle id="SVGID_1_" cx="26" cy="26" r="26"/>
		</defs>
		<use xlink:href="#SVGID_1_"  style="overflow:visible;fill:#D0422A;"/>
		<clipPath id="SVGID_2_">
			<use xlink:href="#SVGID_1_"  style="overflow:visible;"/>
		</clipPath>
		<rect id="rect2987_4_" class="st0" width="52" height="52"/>
	</g>
	<path id="Google" class="st1" d="M36.6,9.9h-8.8c-2.3,0-5.2,0.3-7.6,2.3c-1.8,1.6-2.7,3.8-2.7,5.7c0,3.3,2.6,6.7,7.1,6.7
		c0.4,0,0.9,0,1.4-0.1c-0.2,0.5-0.4,0.9-0.4,1.7c0,1.3,0.7,2.1,1.3,2.9c-1.9,0.1-5.5,0.3-8.2,2c-2.5,1.5-3.3,3.7-3.3,5.2
		c0,3.2,3,6.1,9.2,6.1c7.3,0,11.2-4.1,11.2-8.1c0-2.9-1.7-4.4-3.6-6l-1.5-1.2c-0.5-0.4-1.1-0.9-1.1-1.8c0-0.9,0.6-1.5,1.2-2.1
		c1.8-1.4,3.6-2.9,3.6-6.1c0-3.2-2.1-4.9-3-5.8h2.6L36.6,9.9L36.6,9.9z M32.9,36c0,2.6-2.2,4.6-6.3,4.6c-4.6,0-7.5-2.2-7.5-5.2
		c0-3,2.7-4.1,3.7-4.4c1.8-0.6,4.1-0.7,4.5-0.7c0.4,0,0.6,0,1,0C31.5,32.6,32.9,33.8,32.9,36L32.9,36z M29.5,22.2
		c-0.7,0.7-1.8,1.2-2.9,1.2c-3.7,0-5.3-4.7-5.3-7.6c0-1.1,0.2-2.3,0.9-3.2c0.7-0.9,1.9-1.4,3-1.4c3.5,0,5.4,4.8,5.4,7.8
		C30.5,19.9,30.5,21.2,29.5,22.2L29.5,22.2z"/>
</g>
</svg>
