<?xml version="1.0" encoding="utf-8"?>
<!-- Generator: Adobe Illustrator 19.1.0, SVG Export Plug-In . SVG Version: 6.00 Build 0)  -->
<svg version="1.1" id="Слой_1" xmlns="http://www.w3.org/2000/svg" xmlns:xlink="http://www.w3.org/1999/xlink" x="0px" y="0px"
	 viewBox="0 0 52 52" style="enable-background:new 0 0 52 52;" xml:space="preserve">
<style type="text/css">
	.st0{clip-path:url(#SVGID_2_);fill:#D0422A;}
	.st1{fill:#D0422A;}
</style>
<g>
	<defs>
		<path id="SVGID_1_" d="M26,52C11.7,52,0,40.3,0,26C0,11.7,11.7,0,26,0c14.3,0,26,11.7,26,26C52,40.3,40.3,52,26,52z M26,1
			C12.2,1,1,12.2,1,26s11.2,25,25,25s25-11.2,25-25S39.8,1,26,1z"/>
	</defs>
	<use xlink:href="#SVGID_1_"  style="overflow:visible;fill:#D0422A;"/>
	<clipPath id="SVGID_2_">
		<use xlink:href="#SVGID_1_"  style="overflow:visible;"/>
	</clipPath>
	<path class="st0" d="M52,52H0V0h52V52z M1,51h50V1H1V51z"/>
</g>
<path id="Google_1_" class="st1" d="M36.4,10.2h-8.6c-2.3,0-5.1,0.3-7.5,2.3c-1.8,1.5-2.7,3.7-2.7,5.6c0,3.3,2.5,6.6,7,6.6
	c0.4,0,0.9,0,1.3-0.1c-0.2,0.5-0.4,0.9-0.4,1.6c0,1.3,0.7,2.1,1.3,2.8c-1.9,0.1-5.4,0.3-8,1.9c-2.5,1.5-3.2,3.6-3.2,5.1
	c0,3.1,2.9,6,9,6c7.2,0,11-4,11-7.9c0-2.9-1.7-4.3-3.5-5.9l-1.5-1.2c-0.5-0.4-1.1-0.9-1.1-1.8c0-0.9,0.6-1.5,1.2-2.1
	c1.8-1.4,3.5-2.8,3.5-5.9c0-3.2-2-4.9-3-5.6h2.6L36.4,10.2L36.4,10.2z M32.8,35.8c0,2.6-2.1,4.5-6.2,4.5c-4.5,0-7.4-2.1-7.4-5.1
	c0-3,2.7-4,3.6-4.3c1.8-0.6,4-0.7,4.4-0.7c0.4,0,0.6,0,1,0C31.4,32.5,32.8,33.6,32.8,35.8L32.8,35.8z M29.4,22.3
	c-0.7,0.7-1.8,1.2-2.8,1.2c-3.6,0-5.2-4.6-5.2-7.4c0-1.1,0.2-2.2,0.9-3.1c0.7-0.8,1.8-1.4,2.9-1.4c3.5,0,5.3,4.7,5.3,7.7
	C30.5,20,30.4,21.3,29.4,22.3L29.4,22.3z"/>
</svg>
