<?xml version="1.0" encoding="utf-8"?>
<!-- Generator: Adobe Illustrator 19.1.0, SVG Export Plug-In . SVG Version: 6.00 Build 0)  -->
<svg version="1.1" id="Слой_1" xmlns="http://www.w3.org/2000/svg" xmlns:xlink="http://www.w3.org/1999/xlink" x="0px" y="0px"
	 viewBox="0 0 18 18" style="enable-background:new 0 0 18 18;" xml:space="preserve">
<style type="text/css">
	.st0{fill:#3F3F3F;}
</style>
<g>
	<path class="st0" d="M3.1920202,17.2794514c-0.8533504,0-1.6551949-0.3325405-2.2582619-0.9354954
		c-1.245011-1.2451582-1.245011-3.2712574,0-4.5162687l9.8725243-9.8730001
		C11.6016464,1.15848,12.6602535,0.720548,13.7857418,0.720548c1.1256714,0,2.1842422,0.4379321,2.9796429,1.2341387
		C17.5615177,2.750674,18,3.8086588,18,4.9341111c0,1.1256714-0.4379673,2.1836195-1.2339554,2.9791307L8.9942255,15.684329
		c-0.2333336,0.2332249-0.6111937,0.2332249-0.8444185,0c-0.2333336-0.2332964-0.2333336-0.6111574,0-0.8445282l7.771637-7.7710876
		c0.5704498-0.5703402,0.8841724-1.3285122,0.8841724-2.134603c0-0.805944-0.3143826-1.5645921-0.8846855-2.1350052
		c-0.5704498-0.5703404-1.3286219-0.8842105-2.1351881-0.8842105c-0.8064194,0-1.5645914,0.3138701-2.1350422,0.8842105
		l-9.8724146,9.8730011c-0.7791111,0.7797699-0.7791111,2.0477333,0,2.8273211c0.7557558,0.7547312,2.0715652,0.7547312,2.8272848,0
		l6.6292357-6.6297483c0.180254-0.180253,0.2835226-0.4297686,0.2835226-0.6841154
		c0-0.2578974-0.100853-0.5010061-0.2840357-0.6841516c-0.3767242-0.3767247-0.9908466-0.3778601-1.3675718,0l-4.5274696,4.5279808
		c-0.2331877,0.2333708-0.6112309,0.2333708-0.8444185,0c-0.2333345-0.2332249-0.2333345-0.6112299,0-0.8443823l4.5273228-4.5279818
		c0.8421488-0.8421121,2.2133083-0.8421121,3.056592,0c0.4088659,0.4087558,0.6339264,0.951787,0.6339264,1.5285702
		c0,0.5691319-0.2309189,1.126111-0.6333046,1.5284977l-6.6292348,6.629858
		C4.8470683,16.9469109,4.0451875,17.2794514,3.1920202,17.2794514z"/>
</g>
</svg>
