<?xml version="1.0" encoding="utf-8"?>
<!-- Generator: Adobe Illustrator 19.1.0, SVG Export Plug-In . SVG Version: 6.00 Build 0)  -->
<svg version="1.1" id="Слой_1" xmlns="http://www.w3.org/2000/svg" xmlns:xlink="http://www.w3.org/1999/xlink" x="0px" y="0px"
	 viewBox="0 0 52 52" style="enable-background:new 0 0 52 52;" xml:space="preserve">
<style type="text/css">
	.st0{clip-path:url(#SVGID_2_);fill:#527299;}
	.st1{fill:#527299;}
</style>
<g>
	<defs>
		<path id="SVGID_1_" d="M26,52C11.7,52,0,40.3,0,26C0,11.7,11.7,0,26,0c14.3,0,26,11.7,26,26C52,40.3,40.3,52,26,52z M26,1
			C12.2,1,1,12.2,1,26s11.2,25,25,25s25-11.2,25-25S39.8,1,26,1z"/>
	</defs>
	<use xlink:href="#SVGID_1_"  style="overflow:visible;fill:#527299;"/>
	<clipPath id="SVGID_2_">
		<use xlink:href="#SVGID_1_"  style="overflow:visible;"/>
	</clipPath>
	<path class="st0" d="M52,52H0V0h52V52z M1,51h50V1H1V51z"/>
</g>
<path id="path9-6_1_" class="st1" d="M34.8,11.6H17.2c-3.1,0-5.5,2.5-5.5,5.5V23v11.7c0,3.1,2.5,5.5,5.5,5.5h17.6
	c3.1,0,5.5-2.5,5.5-5.5V23v-5.9C40.3,14,37.9,11.6,34.8,11.6L34.8,11.6z M36.4,14.9l0.6,0v0.6v4.2l-4.8,0l0-4.9L36.4,14.9L36.4,14.9
	z M21.9,23c0.9-1.3,2.4-2.1,4.1-2.1c1.7,0,3.2,0.8,4.1,2.1c0.6,0.8,1,1.8,1,2.9c0,2.8-2.3,5-5.1,5c-2.8,0-5-2.3-5-5
	C21,24.8,21.3,23.8,21.9,23L21.9,23z M37.5,34.7c0,1.5-1.2,2.7-2.7,2.7H17.2c-1.5,0-2.7-1.2-2.7-2.7V23h4.3
	c-0.4,0.9-0.6,1.9-0.6,2.9c0,4.3,3.5,7.8,7.8,7.8c4.3,0,7.8-3.5,7.8-7.8c0-1-0.2-2-0.6-2.9h4.3L37.5,34.7L37.5,34.7z"/>
</svg>
