<?xml version="1.0" encoding="utf-8"?>
<!-- Generator: Adobe Illustrator 19.1.0, SVG Export Plug-In . SVG Version: 6.00 Build 0)  -->
<svg version="1.1" id="Слой_1" xmlns="http://www.w3.org/2000/svg" xmlns:xlink="http://www.w3.org/1999/xlink" x="0px" y="0px"
	 viewBox="0 0 52 52" style="enable-background:new 0 0 52 52;" xml:space="preserve">
<style type="text/css">
	.st0{clip-path:url(#SVGID_2_);fill:#527299;}
	.st1{fill:#FFFFFF;}
</style>
<g>
	<g>
		<defs>
			<circle id="SVGID_1_" cx="26" cy="26" r="26"/>
		</defs>
		<use xlink:href="#SVGID_1_"  style="overflow:visible;fill:#527299;"/>
		<clipPath id="SVGID_2_">
			<use xlink:href="#SVGID_1_"  style="overflow:visible;"/>
		</clipPath>
		<rect id="rect2987_3_" class="st0" width="52" height="52"/>
	</g>
	<path id="path9-6" class="st1" d="M35,11.3H17c-3.1,0-5.7,2.5-5.7,5.7v6v12c0,3.1,2.5,5.7,5.7,5.7H35c3.1,0,5.7-2.5,5.7-5.7v-12v-6
		C40.6,13.8,38.1,11.3,35,11.3L35,11.3z M36.6,14.6l0.6,0v0.6v4.3l-4.9,0l0-5L36.6,14.6L36.6,14.6z M21.8,22.9
		c0.9-1.3,2.5-2.1,4.2-2.1c1.7,0,3.2,0.8,4.2,2.1c0.6,0.8,1,1.9,1,3c0,2.8-2.3,5.1-5.1,5.1c-2.8,0-5.1-2.3-5.1-5.1
		C20.9,24.8,21.2,23.7,21.8,22.9L21.8,22.9z M37.8,34.9c0,1.5-1.3,2.8-2.8,2.8H17c-1.5,0-2.8-1.3-2.8-2.8v-12h4.4
		c-0.4,0.9-0.6,1.9-0.6,3c0,4.4,3.6,8,8,8c4.4,0,8-3.6,8-8c0-1.1-0.2-2.1-0.6-3h4.4L37.8,34.9L37.8,34.9z"/>
</g>
</svg>
