<?xml version="1.0" encoding="utf-8"?>
<!-- Generator: Adobe Illustrator 19.1.0, SVG Export Plug-In . SVG Version: 6.00 Build 0)  -->
<svg version="1.1" id="Слой_1" xmlns="http://www.w3.org/2000/svg" xmlns:xlink="http://www.w3.org/1999/xlink" x="0px" y="0px"
	 viewBox="10 -10 30 30" style="enable-background:new 10 -10 30 30;" xml:space="preserve">
<style type="text/css">
	.st0{fill:#3946A1;}
	.st1{fill:#F2F5FF;}
	.st2{fill:#F73E4F;}
</style>
<g>
	<g>
		<path class="st0" d="M39.6,1.5c-0.2-1-0.6-2-1-2.9L34,1.5H39.6z"/>
		<path class="st0" d="M21.5-9.6c-3.3,0.8-6.1,2.6-8.1,5.1l8.1,5.2V-9.6z"/>
		<path class="st0" d="M10.6,9.1c0.3,1,0.7,2,1.2,2.9l4.5-2.9H10.6z"/>
		<path class="st0" d="M29.1,19.4c3-0.9,5.7-2.7,7.6-5.1l-7.6-4.9V19.4z"/>
		<path class="st0" d="M38.4,11.7c0.4-0.8,0.7-1.6,1-2.5h-4.9L38.4,11.7z"/>
		<path class="st0" d="M11.6-1.8c-0.5,1-0.9,2.1-1.2,3.3h6.3L11.6-1.8z"/>
		<path class="st0" d="M36.9-4.1c-1.9-2.5-4.6-4.4-7.7-5.3V0.9L36.9-4.1z"/>
		<path class="st0" d="M13.6,14.7c2,2.4,4.8,4.1,7.9,4.9v-10L13.6,14.7z"/>
		<path class="st1" d="M21.5,9.1h-0.3l-8,5.1c0.1,0.1,0.2,0.3,0.3,0.4l7.9-5.1V9.1H21.5z"/>
		<path class="st1" d="M16.3,9.1L11.8,12c0.1,0.2,0.2,0.3,0.3,0.5l5.2-3.4H16.3z"/>
		<path class="st1" d="M17.7,1.5l-5.8-3.8c-0.1,0.2-0.2,0.3-0.3,0.5l5.1,3.3H17.7z"/>
		<path class="st1" d="M33.5,9.1l4.6,3c0.1-0.2,0.2-0.3,0.2-0.5l-3.9-2.5H33.5z"/>
		<path class="st1" d="M34,1.5l4.5-2.9c-0.1-0.2-0.2-0.3-0.2-0.5L33,1.5H34z"/>
		<path class="st1" d="M29.1,1.5l8.1-5.2C37.1-3.9,37-4,36.9-4.1l-7.7,5v0.6H29.1z"/>
		<path class="st1" d="M29.1,9.1v0.3l7.6,4.9c0.1-0.1,0.2-0.3,0.3-0.4l-7.4-4.8C29.6,9.1,29.1,9.1,29.1,9.1z"/>
		<path class="st1" d="M21.5,0.8l-8.1-5.3C13.3-4.3,13.1-4.2,13-4l8.5,5.4V0.8z"/>
		<path class="st2" d="M21.5,1.5L21.5,1.5L13-4c-0.4,0.5-0.8,1.1-1.1,1.7l5.8,3.8H21.5z"/>
		<path class="st2" d="M17.2,9.1L12,12.5c0.4,0.6,0.8,1.2,1.2,1.8l8-5.1L17.2,9.1L17.2,9.1z"/>
		<path class="st2" d="M29.1,1.5H33l5.3-3.4c-0.3-0.6-0.7-1.2-1.1-1.8L29.1,1.5L29.1,1.5z"/>
		<path class="st2" d="M29.6,9.1l7.4,4.8c0.4-0.6,0.8-1.2,1.1-1.8l-4.6-3C33.5,9.1,29.6,9.1,29.6,9.1z"/>
		<path class="st1" d="M27.9,2.8h12c-0.1-0.4-0.2-0.9-0.3-1.3H34h-1h-3.9l0,0V0.9V-9.4c-0.4-0.1-0.8-0.2-1.3-0.3L27.9,2.8L27.9,2.8z
			"/>
		<path class="st1" d="M22.8,2.8V-9.8c-0.4,0.1-0.9,0.2-1.3,0.3V0.9v0.6v0.1h-3.8h-1h-6.3c-0.1,0.4-0.2,0.8-0.3,1.3h12.7V2.8z"/>
		<path class="st1" d="M22.8,7.9H10.3c0.1,0.4,0.2,0.9,0.3,1.3h5.7h1h3.9h0.3v0.4v10c0.4,0.1,0.8,0.2,1.3,0.3V7.9z"/>
		<path class="st1" d="M27.9,7.9v11.8c0.4-0.1,0.9-0.2,1.3-0.3v-10V9.1h0.5h3.9h1h4.9c0.1-0.4,0.2-0.8,0.3-1.3L27.9,7.9L27.9,7.9z"
			/>
		<path class="st2" d="M27.9,7.9h11.8C39.9,6.9,40,6,40,5c0-0.8-0.1-1.5-0.2-2.2h-12V-9.7C26.9-9.9,26-10,25-10
			c-0.8,0-1.5,0.1-2.2,0.2V2.8H10.2C10.1,3.5,10,4.2,10,5c0,1,0.1,1.9,0.3,2.9h12.5v12c0.7,0.1,1.5,0.2,2.2,0.2c1,0,1.9-0.1,2.9-0.3
			V7.9z"/>
	</g>
</g>
</svg>
