<?xml version="1.0" encoding="utf-8"?>
<!-- Generator: Adobe Illustrator 19.1.0, SVG Export Plug-In . SVG Version: 6.00 Build 0)  -->
<svg version="1.1" id="Слой_1" xmlns="http://www.w3.org/2000/svg" xmlns:xlink="http://www.w3.org/1999/xlink" x="0px" y="0px"
	 viewBox="0 0 20 25" style="enable-background:new 0 0 20 25;" xml:space="preserve">
<style type="text/css">
	.st0{fill:#FFFFFF;}
</style>
<g>
	<path class="st0" d="M10,14.4c-0.6,0-1.2,0.5-1.2,1.2c0,0.5,0.3,0.9,0.8,1.1v2c0,0.2,0.2,0.4,0.4,0.4c0.2,0,0.4-0.2,0.4-0.4v-2
		c0.4-0.2,0.8-0.6,0.8-1.1C11.2,14.9,10.6,14.4,10,14.4z"/>
	<path class="st0" d="M15.8,10.6V7.9c0-3.2-2.6-5.8-5.8-5.8c-3.2,0-5.8,2.6-5.8,5.8v2.7c-1.3,0-2.3,1-2.3,2.3v7.7
		c0,1.3,1,2.3,2.3,2.3h11.5c1.3,0,2.3-1,2.3-2.3v-7.7C18.1,11.6,17,10.6,15.8,10.6z M11.2,17.1v1.5c0,0.6-0.5,1.2-1.2,1.2
		c-0.6,0-1.2-0.5-1.2-1.2v-1.5c-0.5-0.4-0.8-0.9-0.8-1.5c0-1.1,0.9-1.9,1.9-1.9c1.1,0,1.9,0.9,1.9,1.9
		C11.9,16.2,11.6,16.8,11.2,17.1z M13.5,10.6H6.5V7.9C6.5,6,8.1,4.4,10,4.4c1.9,0,3.5,1.5,3.5,3.5V10.6z"/>
</g>
</svg>
