<?xml version="1.0" encoding="utf-8"?>
<!-- Generator: Adobe Illustrator 19.1.0, SVG Export Plug-In . SVG Version: 6.00 Build 0)  -->
<svg version="1.1" id="Слой_1" xmlns="http://www.w3.org/2000/svg" xmlns:xlink="http://www.w3.org/1999/xlink" x="0px" y="0px"
	 viewBox="17 -5 14 18" style="enable-background:new 17 -5 14 18;" xml:space="preserve">
<style type="text/css">
	.st0{fill:url(#SVGID_1_);}
	.st1{fill:url(#SVGID_2_);}
</style>
<g>
	
		<linearGradient id="SVGID_1_" gradientUnits="userSpaceOnUse" x1="17.525259" y1="8.5966902" x2="30.4747486" y2="-4.352797" gradientTransform="matrix(1 0 0 -1 0 8)">
		<stop  offset="0" style="stop-color:#00A7E9"/>
		<stop  offset="1" style="stop-color:#C400FF"/>
	</linearGradient>
	<path class="st0" d="M29,2.3333349v-2.3338623c0-2.7611504-2.2441807-4.9994717-5-4.9994717c-2.7614346,0-5,2.237793-5,4.9994717
		v2.3338623c-1.1051025,0.0031319-2,0.8930244-2,2.0063057v6.6540108c0,1.1080742,0.8970528,2.0063477,2.0058594,2.0063477
		h9.9882812C30.1019688,12.999999,31,12.1088858,31,10.9936514V4.3396406C31,3.2335196,30.1061192,2.3365088,29,2.3333349z
		 M19.666666-0.0043936c0-2.3901768,1.9401035-4.3289394,4.333334-4.3289394c2.3883877,0,4.3333321,1.9381104,4.3333321,4.3289394
		v2.3377285h-0.666666V0.0060225c0-2.0283604-1.645752-3.6726875-3.666666-3.6726875
		c-2.0250244,0-3.6666679,1.6409092-3.6666679,3.6726875v2.3273125h-0.666666V-0.0043936z M27,0.0005713v2.3327637h-6V0.0005713
		c0-1.6610928,1.3431396-3.0005703,3-3.0005703C25.6534824-2.999999,27-1.6566153,27,0.0005713z M30.333334,10.9960928
		c0,0.7391777-0.5961914,1.3372421-1.331625,1.3372421H18.998291c-0.7376709,0-1.331625-0.5987167-1.331625-1.3372421V4.3372412
		c0-0.7392197,0.5961914-1.3372421,1.331625-1.3372421h10.003418c0.7376709,0,1.331625,0.5986748,1.331625,1.3372421
		C30.333334,4.3372412,30.333334,10.9960928,30.333334,10.9960928z"/>
	
		<linearGradient id="SVGID_2_" gradientUnits="userSpaceOnUse" x1="22.3902531" y1="2.0806074" x2="25.6091805" y2="-1.1383184" gradientTransform="matrix(1 0 0 -1 0 8)">
		<stop  offset="0" style="stop-color:#00A7E9"/>
		<stop  offset="1" style="stop-color:#C400FF"/>
	</linearGradient>
	<path class="st1" d="M24,4.999999c-0.9204521,0-1.6666679,0.7461777-1.6666679,1.6666679
		c0,0.5452461,0.2618408,1.029377,0.6666679,1.3334541v1.3320732c0,0.5528984,0.4438877,1.0011406,1,1.0011406
		c0.5522861,0,1-0.4474716,1-1.0011406V8.0001211c0.4048252-0.3040771,0.666666-0.788208,0.666666-1.3334541
		C25.666666,5.7461767,24.9204903,4.999999,24,4.999999z M24.3333321,7.6097403v1.7295761
		c0,0.175415-0.14921,0.3273506-0.3333321,0.3273506c-0.1787109,0-0.333334-0.1465645-0.333334-0.3273506V7.6097403
		C23.2782784,7.4724951,23,7.1020498,23,6.666667c0-0.5522881,0.4477119-1,1-1s1,0.4477119,1,1
		C25,7.1020498,24.7217197,7.4724951,24.3333321,7.6097403z"/>
</g>
</svg>
