<?xml version="1.0" encoding="utf-8"?>
<!-- Generator: Adobe Illustrator 17.0.0, SVG Export Plug-In . SVG Version: 6.00 Build 0)  -->
<!DOCTYPE svg PUBLIC "-//W3C//DTD SVG 1.1//EN" "http://www.w3.org/Graphics/SVG/1.1/DTD/svg11.dtd">
<svg version="1.1" id="Layer_1" xmlns="http://www.w3.org/2000/svg" xmlns:xlink="http://www.w3.org/1999/xlink" x="0px" y="0px"
	 width="94px" height="106px" viewBox="0 0 94 106" enable-background="new 0 0 94 106" xml:space="preserve">
	<defs>
		<linearGradient id="AnimatedGradient" gradientUnits="userSpaceOnUse" x1="0" y1="0" x2="94" y2="106">
			<stop offset="-100%" stop-color="white" stop-opacity="0">
				<animate attributeName="offset" values="-1.0;1.0" dur="1.2s" repeatCount="indefinite" />
			</stop>
			<stop offset="-50%" stop-color="white">
				<!-- <animate attributeName="stop-opacity" values="0;1.0;0" dur="2.0s" repeatCount="indefinite" /> -->
				<animate attributeName="offset" values="-0.5;1.5" dur="1.2s" repeatCount="indefinite" />
			</stop>
			<stop offset="0%" stop-color="white" stop-opacity="0">
				<animate attributeName="offset" values="0.0;2.0" dur="1.2s" repeatCount="indefinite" />
			</stop>
		</linearGradient>
		<mask id="mask">
			<path fill="#FFFFFF" d="M51.19,90.47c1.749,0,3.172,1.423,3.172,3.172v8.228c0,1.749-1.423,3.172-3.172,3.172h-8.228
				c-1.749,0-3.172-1.423-3.172-3.172v-8.228c0-1.749,1.423-3.172,3.172-3.172H51.19 M51.19,90.012h-8.228
				c-2.005,0-3.63,1.625-3.63,3.63v8.228c0,2.005,1.625,3.63,3.63,3.63h8.228c2.005,0,3.63-1.625,3.63-3.63v-8.228
				C54.82,91.637,53.194,90.012,51.19,90.012L51.19,90.012z"/>
			<path fill="#FFFFFF" d="M83.259,15.172c2.418,5.286,3.101,10.876,2.461,16.626c-0.187,1.685-0.47,3.291-0.832,4.961h2.706
				c1.264-5.05,1.572-10.049,0.211-15.164c-1.355-5.093-4.205-9.188-8.296-12.454c0.169,0.22,0.358,0.432,0.502,0.666
				C81.111,11.586,82.395,13.284,83.259,15.172z"/>
			<path fill="#FFFFFF" d="M41.183,84.256c0.132,0.411,0.262,0.813,0.405,1.261c-0.614,0.216-1.062,0.308-1.434-0.381
				c-2.84-5.264-5.861-10.441-8.528-15.791c-2.506-5.025-4.806-10.178-6.915-15.384c-0.033-0.081-0.064-0.139-0.097-0.261h7.701
				c1.366,5.946,2.989,11.735,4.722,17.53C38.339,75.587,39.796,79.925,41.183,84.256z"/>
			<path fill="#FFFFFF" d="M19.329,36.758h9.832c-0.181-1.222-0.355-2.44-0.522-3.67c-0.776-5.696-0.946-11.404,0.022-17.112
				c0.653-3.85,1.786-7.52,4.068-10.728c1.028-1.445,2.297-2.716,3.457-4.067c-0.004-0.049-0.009-0.096-0.013-0.145
				c-1.693,0.697-3.436,1.293-5.069,2.109c-5.786,2.89-9.651,7.467-11.594,13.631c-1.503,4.77-1.645,9.644-1.061,14.565
				C18.666,33.173,18.965,35.088,19.329,36.758z"/>
			<path fill="#FFFFFF" d="M61.841,53.7c-0.811,3.502-1.703,6.886-2.667,10.292c-1.517,5.359-3.168,10.69-4.788,16.019
				c-0.556,1.832-1.195,3.643-1.814,5.514c1.049,0.245,1.046,0.246,1.495-0.515c0.286-0.484,0.601-0.951,0.867-1.445
				c2.541-4.727,5.112-9.456,7.599-14.211c2.653-5.073,4.959-10.197,7.029-15.654L61.841,53.7L61.841,53.7z"/>
			<path fill="#FFFFFF" d="M58.17,1.59c2.49,2.115,4.262,4.741,5.488,7.749c1.674,4.106,2.328,8.395,2.45,12.794
				c0.137,4.926-0.303,9.738-1.008,14.625h9.727c0.479-2.444,0.838-4.684,1.04-7.089c0.423-5.023,0.017-9.951-1.853-14.702
				c-0.986-2.505-2.37-4.76-4.177-6.729C67.785,6,65.407,4.14,62.615,2.891c-1.523-0.681-3.107-1.225-4.775-1.875
				c0.044,0.263,0.039,0.298,0.054,0.312C57.983,1.418,58.073,1.508,58.17,1.59z"/>
			<path fill="#FFFFFF" d="M17.104,56.818c-0.557-1.023-1.093-2.059-1.608-3.118h-1.785c2.857,5.172,6.094,9.962,9.531,14.682
				c0.848,1.165,1.735,2.311,2.605,3.46c-0.122-0.46-0.368-0.823-0.597-1.207C22.52,66.046,19.656,61.504,17.104,56.818z"/>
			<path fill="#FFFFFF" d="M6.565,36.758h2.738C8.427,32.93,8.004,29.019,8.38,24.984c0.438-4.704,1.715-9.13,4.312-13.124
				c0.607-0.934,1.278-1.822,1.92-2.734c-2.417,1.757-4.971,4.872-6.402,7.671C5.287,22.516,4.884,28.529,6.105,34.72
				C6.241,35.411,6.397,35.984,6.565,36.758z"/>
			<path fill="#FFFFFF" d="M75.265,60.09c-1.516,2.75-3.191,5.423-4.813,8.114c-0.69,1.144-1.424,2.267-2.138,3.397
				c0.054,0.044,0.109,0.09,0.163,0.134c0.047-0.088,0.084-0.182,0.142-0.263c1.811-2.505,3.732-4.957,5.41-7.548
				c2.172-3.354,4.263-6.722,6.295-10.225h-1.7C77.56,55.818,76.423,57.989,75.265,60.09z"/>
			<path fill="#FFFFFF" d="M44.484,66.055c0.449,4.487,0.944,8.981,1.436,13.466c0.212,1.934,0.46,3.871,0.721,5.801
				c0.024,0.174,0.27,0.331,0.413,0.495c0.166-0.174,0.439-0.334,0.48-0.525c0.132-0.625,0.187-1.261,0.257-1.894
				c0.591-5.35,1.225-10.716,1.757-16.071c0.45-4.535,0.887-9.066,1.287-13.627h-7.536C43.669,57.651,44.073,61.944,44.484,66.055z"
				/>
			<path fill="#FFFFFF" d="M41.937,36.758H47h5.11c0.072-0.896,0.145-2.053,0.211-3.089c0.437-6.848,0.854-13.676,0.241-20.532
				c-0.267-2.991-0.721-5.976-1.997-8.81c-0.509-1.131-1.344-2.225-2.266-3.179C47.907,0.742,47.513,0.528,47,0.5
				c-0.513,0.028-0.883,0.241-1.275,0.647c-0.922,0.954-1.729,2.047-2.238,3.178c-1.276,2.835-1.732,5.817-1.999,8.808
				c-0.613,6.856-0.198,13.689,0.24,20.537C41.794,34.706,41.865,35.862,41.937,36.758z"/>
			<path fill="#FFFFFF" d="M50.598,96.193c-0.792-2.419-2.475-3.166-4.798-2.406l-2.588,0.847l2.468,7.541l2.588-0.847
				C50.782,100.506,51.424,98.717,50.598,96.193z M48.076,100.456l-1.669,0.546l-1.915-5.851l1.69-0.553
				c1.849-0.605,2.87,0.265,3.457,2.06C50.549,99.436,48.763,100.232,48.076,100.456z"/>
			<path fill="#FFFFFF" d="M3.657,40.218h1.971l2.907,8.645h0.028l2.907-8.645h1.971v10.274h-1.286v-8.645h-0.028l-2.893,8.645h-1.37
				l-2.893-8.645H4.943v8.645H3.657V40.218L3.657,40.218z"/>
			<path fill="#FFFFFF" d="M25.093,45.355c0,0.443-0.044,0.884-0.133,1.324c-0.089,0.44-0.224,0.86-0.405,1.258
				c-0.182,0.398-0.409,0.769-0.682,1.111c-0.273,0.343-0.595,0.641-0.968,0.895s-0.793,0.452-1.262,0.594
				c-0.468,0.142-0.987,0.213-1.555,0.213c-0.569,0-1.088-0.071-1.559-0.213c-0.471-0.142-0.891-0.34-1.262-0.594
				c-0.37-0.254-0.693-0.552-0.968-0.895c-0.275-0.342-0.503-0.713-0.685-1.111s-0.317-0.818-0.405-1.258
				c-0.089-0.44-0.133-0.882-0.133-1.324c0-0.797,0.113-1.526,0.339-2.188s0.553-1.23,0.982-1.705
				c0.429-0.475,0.953-0.844,1.572-1.108c0.62-0.263,1.326-0.395,2.118-0.395c0.787,0,1.492,0.132,2.114,0.395
				c0.622,0.263,1.146,0.633,1.573,1.108c0.426,0.475,0.752,1.044,0.978,1.705C24.98,43.829,25.093,44.558,25.093,45.355z
				 M23.723,45.355c0-0.61-0.081-1.173-0.245-1.688c-0.163-0.515-0.4-0.957-0.709-1.328c-0.31-0.37-0.691-0.659-1.143-0.867
				c-0.452-0.207-0.964-0.311-1.538-0.311c-0.578,0-1.093,0.104-1.545,0.311s-0.833,0.496-1.143,0.867
				c-0.31,0.371-0.546,0.813-0.709,1.328c-0.163,0.515-0.245,1.078-0.245,1.688c0,0.624,0.074,1.194,0.224,1.709
				c0.149,0.515,0.375,0.956,0.678,1.324c0.303,0.368,0.681,0.653,1.136,0.856c0.454,0.203,0.989,0.304,1.604,0.304
				c0.61,0,1.144-0.101,1.6-0.304c0.457-0.203,0.835-0.488,1.136-0.856c0.301-0.368,0.525-0.81,0.675-1.324
				C23.648,46.549,23.723,45.979,23.723,45.355z"/>
			<path fill="#FFFFFF" d="M26.714,40.218h1.37v8.31h0.028l5.228-8.31h1.587v10.274H33.55v-8.359h-0.028l-5.221,8.359h-1.587V40.218
				L26.714,40.218z"/>
			<path fill="#FFFFFF" d="M42.185,40.218h1.971l2.907,8.645h0.028l2.907-8.645h1.971v10.274h-1.286v-8.645h-0.028l-2.893,8.645
				h-1.37l-2.893-8.645h-0.028v8.645h-1.286C42.185,50.492,42.185,40.218,42.185,40.218z"/>
			<path fill="#FFFFFF" d="M54.108,40.218h7.499v1.202h-6.129v3.173h5.654v1.202h-5.654v3.495h6.227v1.202h-7.597V40.218
				L54.108,40.218z"/>
			<path fill="#FFFFFF" d="M69.477,46.256c-0.135,0.07-0.295,0.135-0.479,0.196s-0.388,0.113-0.612,0.157
				c-0.224,0.044-0.461,0.08-0.713,0.108s-0.51,0.042-0.776,0.042c-0.489,0-0.953-0.048-1.391-0.143
				c-0.438-0.095-0.824-0.263-1.157-0.503c-0.333-0.24-0.598-0.561-0.793-0.965c-0.196-0.403-0.294-0.912-0.294-1.527v-3.404h1.377
				v3.257c0,0.424,0.057,0.771,0.171,1.041s0.28,0.482,0.496,0.636c0.217,0.154,0.481,0.26,0.793,0.318
				c0.312,0.058,0.669,0.087,1.069,0.087c0.224,0,0.451-0.014,0.681-0.042c0.231-0.028,0.45-0.065,0.657-0.112
				c0.207-0.046,0.396-0.1,0.566-0.161c0.17-0.06,0.304-0.123,0.402-0.189v-4.836h1.377V50.49h-1.377v-4.234H69.477z"/>
			<path fill="#FFFFFF" d="M72.119,40.218h8.359v1.202h-3.495v9.072h-1.377V41.42h-3.488L72.119,40.218L72.119,40.218z"/>
			<path fill="#FFFFFF" d="M81.722,40.218h1.377v4.235h2.733c0.615,0,1.148,0.07,1.6,0.21c0.452,0.14,0.825,0.34,1.118,0.601
				c0.294,0.261,0.512,0.578,0.657,0.951c0.144,0.373,0.217,0.792,0.217,1.258c0,0.457-0.072,0.87-0.217,1.241
				c-0.144,0.37-0.355,0.687-0.633,0.951c-0.277,0.263-0.617,0.467-1.02,0.611s-0.863,0.217-1.38,0.217h-4.452V40.218L81.722,40.218z
				 M85.992,49.29c0.28,0,0.539-0.03,0.779-0.091c0.24-0.06,0.448-0.162,0.626-0.304c0.177-0.142,0.316-0.329,0.416-0.559
				c0.1-0.231,0.15-0.518,0.15-0.863c0-0.34-0.052-0.627-0.157-0.86c-0.105-0.233-0.255-0.42-0.451-0.563
				c-0.196-0.142-0.433-0.243-0.713-0.304c-0.28-0.06-0.596-0.091-0.95-0.091h-2.593v3.634L85.992,49.29L85.992,49.29z
				 M90.815,40.218h1.37v10.274h-1.37V40.218z"/>
			<path fill="#FFFFFF" d="M91.703,37.104c-0.712,0-1.292-0.579-1.292-1.292c0-0.712,0.579-1.292,1.292-1.292s1.292,0.579,1.292,1.292
				S92.416,37.104,91.703,37.104z M91.703,34.602c-0.667,0-1.21,0.543-1.21,1.21s0.543,1.21,1.21,1.21s1.21-0.543,1.21-1.21
				C92.914,35.145,92.371,34.602,91.703,34.602z"/>
			<path fill="#FFFFFF" d="M92.243,36.395c-0.009-0.029-0.016-0.059-0.021-0.091c-0.005-0.032-0.008-0.065-0.009-0.098
				s-0.003-0.066-0.006-0.098c-0.004-0.032-0.009-0.063-0.016-0.092c-0.007-0.03-0.017-0.056-0.031-0.08s-0.033-0.045-0.057-0.062
				s-0.055-0.03-0.093-0.037v-0.004c0.08-0.022,0.138-0.063,0.175-0.124c0.036-0.06,0.054-0.13,0.054-0.211
				c0-0.107-0.035-0.191-0.106-0.253c-0.071-0.062-0.169-0.092-0.295-0.092h-0.621v1.319h0.175v-0.563h0.429
				c0.043,0,0.078,0.006,0.103,0.019c0.026,0.013,0.047,0.03,0.063,0.052c0.016,0.022,0.028,0.047,0.035,0.076
				s0.014,0.059,0.018,0.091c0.006,0.032,0.01,0.065,0.011,0.098s0.002,0.064,0.004,0.093c0.001,0.029,0.004,0.055,0.008,0.079
				c0.004,0.023,0.013,0.042,0.025,0.055h0.196C92.266,36.45,92.252,36.424,92.243,36.395z M91.971,35.715
				c-0.028,0.018-0.06,0.03-0.097,0.036s-0.076,0.009-0.116,0.009h-0.366V35.3h0.436c0.082,0,0.142,0.021,0.179,0.063
				s0.055,0.096,0.055,0.163c0,0.048-0.008,0.087-0.025,0.117C92.021,35.674,91.999,35.698,91.971,35.715z"/>
		</mask>
	</defs>
	<rect x="0" fill="none" width="94" height="106"/>
	<rect x="0" y="0" fill="url(#AnimatedGradient)" width="94" height="106" mask="url(#mask)"/>
</svg>