<?xml version="1.0" encoding="utf-8"?>
<!-- Generator: Adobe Illustrator 17.0.0, SVG Export Plug-In . SVG Version: 6.00 Build 0)  -->
<!DOCTYPE svg PUBLIC "-//W3C//DTD SVG 1.1//EN" "http://www.w3.org/Graphics/SVG/1.1/DTD/svg11.dtd">
<svg version="1.1" id="Layer_1" xmlns="http://www.w3.org/2000/svg" xmlns:xlink="http://www.w3.org/1999/xlink" x="0px" y="0px"
	 width="94px" height="106px" viewBox="0 0 94 106" enable-background="new 0 0 94 106" xml:space="preserve">
	<rect x="0" fill="none" width="94" height="106"/>
	<g>
		<path fill="#FFFFFF" d="M51.19,90.47c1.749,0,3.172,1.423,3.172,3.172v8.228c0,1.749-1.423,3.172-3.172,3.172h-8.228
			c-1.749,0-3.172-1.423-3.172-3.172v-8.228c0-1.749,1.423-3.172,3.172-3.172H51.19 M51.19,90.012h-8.228
			c-2.005,0-3.63,1.625-3.63,3.63v8.228c0,2.005,1.625,3.63,3.63,3.63h8.228c2.005,0,3.63-1.625,3.63-3.63v-8.228
			C54.82,91.637,53.194,90.012,51.19,90.012L51.19,90.012z"/>
		<path fill="#FFFFFF" d="M41.183,84.256c0.132,0.411,0.262,0.813,0.405,1.261c-0.614,0.216-1.062,0.308-1.434-0.381
			c-2.84-5.264-5.861-10.441-8.528-15.791c-2.506-5.025-4.806-10.178-6.915-15.384c-0.033-0.081-0.064-0.139-0.097-0.261h7.701
			c1.366,5.946,2.989,11.735,4.722,17.53C38.339,75.587,39.796,79.925,41.183,84.256z"/>
		<path fill="#FFFFFF" d="M19.329,36.758h9.832c-0.181-1.222-0.355-2.44-0.522-3.67c-0.776-5.696-0.946-11.404,0.022-17.112
			c0.653-3.85,1.786-7.52,4.068-10.728c1.028-1.445,2.297-2.716,3.457-4.067c-0.004-0.049-0.009-0.096-0.013-0.145
			c-1.693,0.697-3.436,1.293-5.069,2.109c-5.786,2.89-9.651,7.467-11.594,13.631c-1.503,4.77-1.645,9.644-1.061,14.565
			C18.666,33.173,18.965,35.088,19.329,36.758z"/>
		<path fill="#FFFFFF" d="M61.841,53.7c-0.811,3.502-1.703,6.886-2.667,10.292c-1.517,5.359-3.168,10.69-4.788,16.019
			c-0.556,1.832-1.195,3.643-1.814,5.514c1.049,0.245,1.046,0.246,1.495-0.515c0.286-0.484,0.601-0.951,0.867-1.445
			c2.541-4.727,5.112-9.456,7.599-14.211c2.653-5.073,4.959-10.197,7.029-15.654C69.562,53.7,61.841,53.7,61.841,53.7z"/>
		<path fill="#FFFFFF" d="M58.17,1.59c2.49,2.115,4.262,4.741,5.488,7.749c1.674,4.106,2.328,8.395,2.45,12.794
			c0.137,4.926-0.303,9.738-1.008,14.625h9.727c0.479-2.444,0.838-4.684,1.04-7.089c0.423-5.023,0.017-9.951-1.853-14.702
			c-0.986-2.505-2.37-4.76-4.177-6.729C67.785,6,65.407,4.14,62.615,2.891c-1.523-0.681-3.107-1.225-4.775-1.875
			c0.044,0.263,0.039,0.298,0.054,0.312C57.983,1.418,58.073,1.508,58.17,1.59z"/>
		<path fill="#FFFFFF" d="M17.104,56.818c-0.557-1.023-1.093-2.059-1.608-3.118h-1.785c2.857,5.172,6.094,9.962,9.531,14.682
			c0.848,1.165,1.735,2.311,2.605,3.46c-0.122-0.46-0.368-0.823-0.597-1.207C22.52,66.046,19.656,61.504,17.104,56.818z"/>
		<path fill="#FFFFFF" d="M6.565,36.758h2.738C8.427,32.93,8.004,29.019,8.38,24.984c0.438-4.704,1.715-9.13,4.312-13.124
			c0.607-0.934,1.278-1.822,1.92-2.734c-2.417,1.757-4.971,4.872-6.402,7.671C5.287,22.516,4.884,28.529,6.105,34.72
			C6.241,35.411,6.397,35.984,6.565,36.758z"/>
		<path fill="#FFFFFF" d="M75.265,60.09c-1.516,2.75-3.191,5.423-4.813,8.114c-0.69,1.144-1.424,2.267-2.138,3.397
			c0.054,0.044,0.109,0.09,0.163,0.134c0.047-0.088,0.084-0.182,0.142-0.263c1.811-2.505,3.732-4.957,5.41-7.548
			c2.172-3.354,4.263-6.722,6.295-10.225h-1.7C77.56,55.818,76.423,57.989,75.265,60.09z"/>
		<path fill="#FFFFFF" d="M83.259,15.172c2.418,5.286,3.101,10.876,2.461,16.626c-0.187,1.685-0.47,3.291-0.832,4.961h2.706
			c1.264-5.05,1.572-10.049,0.211-15.164c-1.355-5.093-4.205-9.188-8.296-12.454c0.169,0.22,0.358,0.432,0.502,0.666
			C81.111,11.586,82.395,13.284,83.259,15.172z"/>
		<path fill="#FFFFFF" d="M44.484,66.055c0.449,4.487,0.944,8.981,1.436,13.466c0.212,1.934,0.46,3.871,0.721,5.801
			c0.024,0.174,0.27,0.331,0.413,0.495c0.166-0.174,0.439-0.334,0.48-0.525c0.132-0.625,0.187-1.261,0.257-1.894
			c0.591-5.35,1.225-10.716,1.757-16.071c0.45-4.535,0.887-9.066,1.287-13.627h-7.536C43.669,57.651,44.073,61.944,44.484,66.055z"
			/>
		<path fill="#FFFFFF" d="M41.937,36.758H47h5.11c0.072-0.896,0.145-2.053,0.211-3.089c0.437-6.848,0.854-13.676,0.241-20.532
			c-0.267-2.991-0.721-5.976-1.997-8.81c-0.509-1.131-1.344-2.225-2.266-3.179C47.907,0.742,47.513,0.528,47,0.5
			c-0.513,0.028-0.883,0.241-1.275,0.647c-0.922,0.954-1.729,2.047-2.238,3.178c-1.276,2.835-1.732,5.817-1.999,8.808
			c-0.613,6.856-0.198,13.689,0.24,20.537C41.794,34.706,41.865,35.862,41.937,36.758z"/>
		<path fill="#FFFFFF" d="M50.598,96.193c-0.792-2.419-2.475-3.166-4.798-2.406l-2.588,0.847l2.468,7.541l2.588-0.847
			C50.782,100.506,51.424,98.717,50.598,96.193z M48.076,100.456l-1.669,0.546l-1.915-5.851l1.69-0.553
			c1.849-0.605,2.87,0.265,3.457,2.06C50.549,99.436,48.763,100.232,48.076,100.456z"/>
		<polygon fill="#FFFFFF" points="3.358,39.976 3.358,50.646 4.58,50.646 4.58,41.808 4.664,41.808 7.982,50.646 9.188,50.646 
			12.506,41.808 12.522,41.808 12.522,50.646 13.866,50.646 13.866,39.976 11.94,39.976 8.578,48.903 5.23,39.976 			"/>
		<polygon fill="#FFFFFF" points="20.585,46.247 24.676,39.976 23.069,39.976 19.959,45.034 16.775,39.976 15.094,39.976 
			19.241,46.247 19.241,50.646 20.585,50.646 			"/>
		<path fill="#FFFFFF" d="M37.427,41.225c-0.883-0.833-2.143-1.247-3.779-1.247h-3.602v10.675h3.602
			c0.883,0,1.646-0.155,2.291-0.403s1.175-0.623,1.592-1.094s0.724-1.059,0.922-1.749c0.198-0.689,0.298-1.484,0.298-2.377
			C38.751,43.325,38.309,42.059,37.427,41.225z M37.137,46.896c-0.134,0.461-0.305,0.845-0.513,1.152
			c-0.208,0.308-0.444,0.55-0.707,0.729c-0.263,0.178-0.528,0.315-0.796,0.409s-0.521,0.17-0.759,0.195s-0.437,0.053-0.595,0.053
			h-2.348v-8.235h2.378c0.655,0,1.205,0.072,1.651,0.255c0.446,0.184,0.811,0.442,1.094,0.794c0.283,0.352,0.486,0.774,0.61,1.274
			c0.124,0.501,0.186,1.067,0.186,1.701C37.337,45.878,37.271,46.435,37.137,46.896z"/>
		<path fill="#FFFFFF" d="M48.742,50.005c-0.074-0.233-0.132-0.494-0.171-0.752c-0.04-0.258-0.065-0.528-0.074-0.796
			c-0.01-0.268-0.025-0.534-0.045-0.792c-0.03-0.258-0.072-0.508-0.126-0.746c-0.055-0.238-0.139-0.455-0.253-0.648
			c-0.114-0.193-0.287-0.36-0.48-0.499s-0.465-0.239-0.77-0.298v-0.03c0.61-0.179,1.132-0.511,1.425-0.997
			c0.292-0.486,0.448-1.051,0.448-1.696c0-0.863-0.281-1.537-0.851-2.033c-0.571-0.496-1.357-0.739-2.368-0.739h-5.06v10.675h1.525
			v-4.575h3.401c0.347,0,0.625,0.04,0.833,0.144s0.377,0.237,0.506,0.41c0.129,0.174,0.223,0.374,0.283,0.607
			c0.059,0.233,0.109,0.477,0.149,0.735c0.05,0.258,0.079,0.52,0.089,0.788c0.01,0.268,0.02,0.518,0.03,0.751
			c0.01,0.233,0.032,0.475,0.067,0.663s0.102,0.325,0.201,0.477h1.577C48.928,50.349,48.816,50.239,48.742,50.005z M46.555,44.501
			c-0.223,0.144-0.483,0.237-0.781,0.287c-0.298,0.05-0.61,0.071-0.937,0.071h-2.895v-3.66h3.46c0.664,0,1.146,0.149,1.443,0.486
			c0.298,0.337,0.446,0.764,0.446,1.299c0,0.387-0.067,0.697-0.201,0.94C46.956,44.167,46.778,44.358,46.555,44.501z"/>
		<polygon fill="#FFFFFF" points="50.397,39.976 50.397,50.646 57.849,50.646 57.849,49.424 51.781,49.424 51.781,45.759 
			57.401,45.759 57.401,44.537 51.781,44.537 51.781,41.197 57.727,41.197 57.727,39.976 			"/>
		<path fill="#FFFFFF" d="M64.412,39.978H62.85l-4.136,10.675h1.443l1.19-3.203h4.493L67,50.654h1.562L64.412,39.978z
			 M61.793,46.231l1.8-5.033h0.03l1.77,5.033H61.793z"/>
		<polygon fill="#FFFFFF" points="69.619,39.976 69.619,50.646 70.963,50.646 70.963,41.808 71.003,41.808 74.321,50.646 
			75.526,50.646 78.844,41.808 78.905,41.808 78.905,50.646 80.289,50.646 80.289,39.976 78.278,39.976 74.916,48.903 
			71.568,39.976 			"/>
		<path fill="#FFFFFF" d="M88.504,43.03h1.339c-0.02-0.611-0.132-1.064-0.335-1.486c-0.203-0.422-0.481-0.759-0.833-1.037
			s-0.761-0.475-1.228-0.604c-0.466-0.129-0.972-0.191-1.518-0.191c-0.486,0-0.96,0.064-1.421,0.188s-0.873,0.313-1.235,0.566
			s-0.652,0.576-0.87,0.967c-0.218,0.392-0.327,0.856-0.327,1.391c0,0.486,0.097,0.891,0.29,1.213
			c0.194,0.323,0.451,0.586,0.774,0.789c0.322,0.203,0.687,0.367,1.094,0.491c0.407,0.124,0.821,0.233,1.242,0.327
			c0.421,0.095,0.836,0.186,1.242,0.275s0.771,0.206,1.094,0.35c0.322,0.144,0.58,0.33,0.774,0.558
			c0.193,0.228,0.29,0.526,0.29,0.893c0,0.387-0.079,0.704-0.238,0.952s-0.367,0.444-0.625,0.588s-0.548,0.245-0.87,0.305
			c-0.323,0.06-0.642,0.089-0.96,0.089c-0.397,0-0.784-0.05-1.16-0.149c-0.377-0.099-0.707-0.253-0.99-0.461
			s-0.511-0.449-0.684-0.772c-0.174-0.322-0.26-0.681-0.26-1.129H81.75c0,0.611,0.117,1.179,0.35,1.65s0.55,0.846,0.952,1.149
			c0.402,0.303,0.868,0.522,1.399,0.671c0.53,0.149,1.094,0.22,1.689,0.22c0.486,0,0.974-0.059,1.466-0.173
			c0.491-0.114,0.935-0.298,1.332-0.551s0.722-0.581,0.974-0.982c0.253-0.402,0.379-0.886,0.379-1.451
			c0-0.526-0.097-0.962-0.29-1.309c-0.194-0.347-0.452-0.635-0.774-0.863c-0.323-0.228-0.687-0.409-1.094-0.543
			c-0.407-0.134-0.821-0.25-1.242-0.35c-0.422-0.099-0.836-0.191-1.242-0.275c-0.407-0.084-0.771-0.191-1.094-0.32
			c-0.322-0.129-0.58-0.295-0.774-0.499c-0.193-0.203-0.29-0.469-0.29-0.796c0-0.347,0.067-0.637,0.201-0.87
			c0.134-0.233,0.312-0.419,0.536-0.558c0.223-0.139,0.478-0.238,0.766-0.298c0.288-0.059,0.58-0.089,0.878-0.089
			c0.734,0,1.336,0.147,1.808,0.489C88.15,41.737,88.425,42.256,88.504,43.03z"/>
		<path fill="#FFFFFF" d="M92.477,38.815c-0.712,0-1.292-0.579-1.292-1.292c0-0.712,0.579-1.292,1.292-1.292
			s1.292,0.579,1.292,1.292C93.769,38.235,93.189,38.815,92.477,38.815z M92.477,36.312c-0.667,0-1.21,0.543-1.21,1.21
			s0.543,1.21,1.21,1.21s1.21-0.543,1.21-1.21S93.144,36.312,92.477,36.312z"/>
		<path fill="#FFFFFF" d="M93.016,38.106c-0.009-0.029-0.016-0.059-0.021-0.091c-0.005-0.032-0.008-0.065-0.009-0.098
			s-0.003-0.066-0.005-0.098c-0.004-0.032-0.009-0.063-0.016-0.092c-0.007-0.03-0.017-0.056-0.031-0.08
			c-0.014-0.024-0.033-0.045-0.057-0.062c-0.024-0.017-0.055-0.03-0.093-0.037v-0.004c0.08-0.022,0.138-0.063,0.175-0.124
			c0.036-0.06,0.054-0.13,0.054-0.211c0-0.107-0.035-0.191-0.106-0.253c-0.071-0.062-0.169-0.092-0.295-0.092H91.99v1.319h0.175
			V37.62h0.429c0.043,0,0.078,0.006,0.103,0.019c0.026,0.013,0.047,0.03,0.063,0.052c0.016,0.022,0.028,0.047,0.035,0.076
			s0.014,0.059,0.018,0.091c0.006,0.032,0.01,0.065,0.011,0.098s0.002,0.064,0.004,0.093c0.001,0.029,0.004,0.055,0.008,0.079
			c0.004,0.023,0.013,0.042,0.025,0.055h0.196C93.039,38.16,93.026,38.135,93.016,38.106z M92.745,37.426
			c-0.028,0.018-0.06,0.03-0.097,0.036s-0.076,0.009-0.116,0.009h-0.366v-0.46h0.436c0.082,0,0.142,0.021,0.179,0.063
			s0.055,0.096,0.055,0.163c0,0.048-0.008,0.087-0.025,0.117C92.795,37.384,92.773,37.408,92.745,37.426z"/>
	</g>
</svg>
