<?xml version="1.0" encoding="utf-8"?>
<!-- Generator: Adobe Illustrator 19.1.0, SVG Export Plug-In . SVG Version: 6.00 Build 0)  -->
<svg version="1.1" id="Layer_1" xmlns="http://www.w3.org/2000/svg" xmlns:xlink="http://www.w3.org/1999/xlink" x="0px" y="0px"
	 viewBox="12 -18 94 106" style="enable-background:new 12 -18 94 106;" xml:space="preserve">
<style type="text/css">
	.st0{fill:none;}
	.st1{fill:#EEEEEE;}
</style>
<rect x="12" y="-18" class="st0" width="94" height="106"/>
<g>
	<path class="st1" d="M63.1899986,72.4700012c1.7489967,0,3.1720009,1.4229965,3.1720009,3.1719971v8.2279968
		c0,1.7490005-1.4230042,3.1719971-3.1720009,3.1719971H54.961998c-1.7490005,0-3.1720009-1.4229965-3.1720009-3.1719971v-8.2279968
		c0-1.7490005,1.4230003-3.1719971,3.1720009-3.1719971H63.1899986 M63.1899986,72.012001H54.961998
		c-2.0050011,0-3.6300011,1.625-3.6300011,3.6299973v8.2279968c0,2.0049973,1.625,3.6299973,3.6300011,3.6299973h8.2280006
		c2.0050011,0,3.6300011-1.625,3.6300011-3.6299973v-8.2279968C66.8199997,73.637001,65.1940002,72.012001,63.1899986,72.012001
		L63.1899986,72.012001z"/>
	<path class="st1" d="M95.2590027-2.8280001c2.4179993,5.2860003,3.1009979,10.8760004,2.4609985,16.6259995
		c-0.1869965,1.6850014-0.4700012,3.2910013-0.8320007,4.9609995h2.7060013
		c1.2639999-5.0499992,1.5719986-10.0489998,0.2109985-15.1639996c-1.3550034-5.0930004-4.2050018-9.1879997-8.2959976-12.4540005
		c0.1689987,0.2200003,0.3580017,0.4320002,0.5019989,0.6660004C93.1110001-6.4139996,94.3949966-4.7159996,95.2590027-2.8280001z"
		/>
	<path class="st1" d="M53.1829987,66.2559967c0.132,0.4110031,0.262001,0.8130035,0.4049988,1.2610016
		c-0.6139984,0.2160034-1.0620003,0.3079987-1.4339981-0.3809967c-2.8400002-5.2639999-5.8610001-10.4410019-8.5279999-15.7910004
		c-2.5060005-5.0250015-4.8059998-10.1780014-6.9150009-15.3839989c-0.0330009-0.0810013-0.0639992-0.1389999-0.0970001-0.2610016
		h7.7010002c1.3660011,5.9459991,2.9889984,11.7349968,4.7220001,17.5300026
		C50.3390007,57.586998,51.7960014,61.9250031,53.1829987,66.2559967z"/>
	<path class="st1" d="M31.3290005,18.7579994h9.8319988c-0.1809998-1.2220001-0.3549995-2.4399986-0.5219994-3.670002
		c-0.776001-5.6959991-0.9459991-11.4039993,0.0219994-17.1119995c0.6529999-3.8500004,1.7859993-7.5200005,4.0680008-10.7279997
		c1.0279999-1.4450006,2.2970009-2.7160006,3.4570007-4.0670004c-0.0040016-0.0489998-0.0089989-0.0959988-0.0130005-0.1449986
		c-1.6930008,0.6969986-3.4360008,1.2929993-5.0690002,2.1089993c-5.7859993,2.8899994-9.651001,7.467-11.5939999,13.6309986
		C30.007,3.5459976,29.8649998,8.4199982,30.4489994,13.3409958C30.6660004,15.1730003,30.9650002,17.0880013,31.3290005,18.7579994
		z"/>
	<path class="st1" d="M73.8410034,35.7000008c-0.8110046,3.5019989-1.7030029,6.8860016-2.6670074,10.2919998
		c-1.5169983,5.3589973-3.1679993,10.6899986-4.7879944,16.019001c-0.5559998,1.8320007-1.1949997,3.6429977-1.8139954,5.5139999
		c1.048996,0.2450027,1.0459976,0.2460022,1.4949951-0.5149994c0.2859955-0.4840012,0.6009979-0.9509964,0.8670044-1.4449997
		c2.5410004-4.7269974,5.1119995-9.4560013,7.598999-14.2109985c2.6529999-5.072998,4.9589996-10.1969986,7.0289993-15.6539993
		L73.8410034,35.7000008L73.8410034,35.7000008z"/>
	<path class="st1" d="M70.1699982-16.4099998c2.4900055,2.1149998,4.262001,4.7410002,5.487999,7.7489996
		c1.6740036,4.1059999,2.3280029,8.3950014,2.4499969,12.7939997c0.137001,4.9260006-0.3030014,9.737999-1.0080032,14.625h9.7269974
		c0.4789963-2.4440002,0.8379974-4.6840019,1.0400009-7.0890007c0.4229965-5.0229988,0.0169983-9.9510002-1.8529968-14.7019997
		c-0.9860001-2.5050001-2.3700027-4.7600002-4.177002-6.7290001C79.7850037-12,77.4069977-13.8600006,74.6150055-15.1090002
		c-1.5230026-0.6809998-3.1070023-1.2249994-4.7750092-1.874999c0.0440063,0.2629986,0.0390015,0.2979984,0.0540009,0.3119984
		C69.9830017-16.5820007,70.072998-16.4920006,70.1699982-16.4099998z"/>
	<path class="st1" d="M29.1040001,38.8180008c-0.5569992-1.0229988-1.0930004-2.0589981-1.6079998-3.118h-1.7849998
		c2.8570004,5.1720009,6.0939999,9.9620018,9.5310001,14.682003c0.8479996,1.1650009,1.7350006,2.310997,2.6049995,3.4599991
		c-0.1220016-0.4599991-0.368-0.822998-0.5970001-1.2070007C34.5200005,48.0459976,31.6560001,43.5040016,29.1040001,38.8180008z"/>
	<path class="st1" d="M18.5650005,18.7579994h2.737999C20.427,14.9300003,20.0039997,11.0189991,20.3800011,6.9839993
		c0.4379997-4.7040005,1.7150002-9.1300001,4.3119984-13.1239996c0.6070004-0.934,1.2779999-1.8219995,1.9200001-2.7340002
		c-2.4169998,1.757-4.9710007,4.8719997-6.4020004,7.6709995c-2.9229984,5.7190018-3.3260002,11.7320004-2.1049995,17.9230022
		C18.2410011,17.4109993,18.3969994,17.9840012,18.5650005,18.7579994z"/>
	<path class="st1" d="M87.2649994,42.0900002c-1.5159988,2.75-3.1910019,5.4230003-4.8130035,8.1140022
		c-0.6900024,1.1439972-1.4240036,2.2669983-2.1380005,3.3970032c0.0540009,0.0439987,0.1090012,0.0899963,0.163002,0.1340027
		c0.0469971-0.0879974,0.0839996-0.1819992,0.1419983-0.2630005c1.810997-2.5049973,3.7320023-4.9570007,5.409996-7.5480003
		c2.1719971-3.3540001,4.2630005-6.7220001,6.2949982-10.2250023h-1.6999969
		C89.5599976,37.8180008,88.4229965,39.9889984,87.2649994,42.0900002z"/>
	<path class="st1" d="M56.4840012,48.0550003c0.4490013,4.4869995,0.9440002,8.9810028,1.4360008,13.4659958
		c0.2120018,1.9339981,0.4599991,3.8710022,0.7210007,5.8010025c0.0239983,0.1740036,0.2700005,0.3310013,0.4129982,0.4950027
		c0.1660004-0.1740036,0.4389992-0.3339996,0.4799995-0.5250015c0.132-0.625,0.1870003-1.2610016,0.257-1.8939972
		c0.5909996-5.3499985,1.2249985-10.7159958,1.757-16.0709991c0.4500008-4.5349998,0.887001-9.0660019,1.2869987-13.6269989
		h-7.5359993C55.6689987,39.651001,56.0730019,43.9440002,56.4840012,48.0550003z"/>
	<path class="st1" d="M53.9370003,18.7579994H59h5.1100006c0.0719986-0.8959999,0.1450043-2.0530014,0.2109985-3.0890007
		C64.7579956,8.8209991,65.1750031,1.993,64.5619965-4.8630009c-0.2669983-2.9910002-0.7209969-5.9759998-1.9969978-8.8100004
		c-0.5089989-1.1309996-1.3440018-2.2249994-2.2659988-3.1789999C59.9070015-17.2579994,59.5130005-17.4720001,59-17.5
		c-0.5130005,0.0279999-0.8829994,0.2409992-1.2750015,0.6469994c-0.9220009,0.9540005-1.7290001,2.0470009-2.237999,3.1780005
		c-1.276001,2.835-1.7319984,5.8170004-1.9990005,8.8079996C52.875,1.9889984,53.2899971,8.8219986,53.7280006,15.6699982
		C53.7939987,16.7060013,53.8650017,17.8619995,53.9370003,18.7579994z"/>
	<path class="st1" d="M62.5979996,78.1930008c-0.7919998-2.4189987-2.4749985-3.1660004-4.7980003-2.4059982l-2.5880013,0.8470001
		l2.4679985,7.5410004l2.5880013-0.8470001C62.7820015,82.5059967,63.4239998,80.7170029,62.5979996,78.1930008z
		 M60.0760002,82.4560013l-1.6689987,0.5459976l-1.9150009-5.8509979l1.6899986-0.5530014
		c1.848999-0.6050034,2.8699989,0.2649994,3.4570007,2.0599976C62.5489998,81.435997,60.7630005,82.2320023,60.0760002,82.4560013z"
		/>
	<path class="st1" d="M15.6569996,22.2179985h1.9710007l2.9069996,8.6450005h0.0279999l2.9069996-8.6450005h1.9709988v10.2739983
		h-1.2859993v-8.6450005h-0.0279999l-2.8929996,8.6450005h-1.3700008l-2.8929977-8.6450005h-0.0279999v8.6450005h-1.2860012
		V22.2179985L15.6569996,22.2179985z"/>
	<path class="st1" d="M37.0930023,27.3549995c0,0.4430008-0.0440025,0.8839989-0.1330032,1.3240013
		c-0.0889969,0.4399986-0.223999,0.8600006-0.4049988,1.2579994c-0.1819992,0.3979988-0.4090004,0.769001-0.6819992,1.1110001
		c-0.2730026,0.3429985-0.5950012,0.6409988-0.9680023,0.8950005s-0.7929993,0.4519997-1.2619972,0.5940018
		c-0.4679985,0.1419983-0.9869995,0.2130013-1.5550003,0.2130013c-0.5690002,0-1.0879993-0.0709991-1.559-0.2130013
		c-0.4710007-0.1419983-0.8910007-0.3400002-1.2619991-0.5940018c-0.3700008-0.2540016-0.6930008-0.5519981-0.9680004-0.8950005
		c-0.2749996-0.3419991-0.5030003-0.7130013-0.6849995-1.1110001c-0.1820011-0.3979988-0.3170013-0.8180008-0.4050007-1.2579994
		c-0.0889988-0.4399986-0.1330013-0.882-0.1330013-1.3240013c0-0.7970009,0.1130009-1.526001,0.3390007-2.1879997
		s0.5529995-1.2299995,0.9820004-1.7050018c0.4290009-0.4749985,0.9529991-0.8440018,1.5720005-1.1080017
		c0.6200008-0.2630005,1.3260002-0.3950005,2.118-0.3950005c0.7869987,0,1.4920006,0.132,2.1140022,0.3950005
		c0.6219978,0.2630005,1.1459961,0.6329994,1.572998,1.1080017c0.4260025,0.4749985,0.7519989,1.0439987,0.9780006,1.7050018
		C36.9799995,25.8289986,37.0930023,26.5579987,37.0930023,27.3549995z M35.7229996,27.3549995
		c0-0.6100006-0.0810013-1.1730003-0.2450027-1.6879997c-0.1629982-0.5149994-0.3999977-0.9570007-0.7089996-1.3279991
		c-0.3099976-0.3699989-0.6909981-0.6590004-1.1429977-0.8670006c-0.4519997-0.2070007-0.9640007-0.3110008-1.538002-0.3110008
		c-0.5779972,0-1.0929985,0.1040001-1.5449982,0.3110008s-0.8330002,0.4959984-1.1429996,0.8670006
		c-0.3099995,0.3709984-0.5459995,0.8129997-0.7089996,1.3279991s-0.2450008,1.0779991-0.2450008,1.6879997
		c0,0.6240005,0.0739994,1.1940002,0.2240009,1.7089996c0.1490002,0.5149994,0.375,0.9560013,0.6779995,1.3240013
		s0.6809998,0.6529999,1.1359997,0.855999c0.4540005,0.2029991,0.9890003,0.3040009,1.6039982,0.3040009
		c0.6100006,0,1.144001-0.1010017,1.6000023-0.3040009c0.4570007-0.2029991,0.8349991-0.487999,1.1359978-0.855999
		c0.3010025-0.368,0.5250015-0.8100014,0.6750031-1.3240013C35.6480026,28.5489998,35.7229996,27.9790001,35.7229996,27.3549995z"/>
	<path class="st1" d="M38.7140007,22.2179985h1.3699989v8.3100014h0.0279999l5.2280006-8.3100014h1.5870018v10.2739983h-1.3770027
		v-8.3590012h-0.0279999l-5.2210007,8.3590012h-1.5870018V22.2179985H38.7140007z"/>
	<path class="st1" d="M54.1850014,22.2179985h1.9710007l2.9070015,8.6450005h0.0279999l2.9070015-8.6450005h1.9710007v10.2739983
		h-1.2859993v-8.6450005h-0.0279999l-2.8930016,8.6450005h-1.3699989l-2.8930016-8.6450005h-0.0279999v8.6450005h-1.2859993
		C54.1850014,32.4920006,54.1850014,22.2179985,54.1850014,22.2179985z"/>
	<path class="st1" d="M66.1080017,22.2179985h7.4990005v1.2019997h-6.1290054v3.1730003h5.654007v1.2019997h-5.654007v3.4949989
		h6.227005v1.2019997h-7.5970001V22.2179985L66.1080017,22.2179985z"/>
	<path class="st1" d="M81.4769974,28.2560005c-0.1350021,0.0699997-0.2949982,0.1349983-0.4789963,0.1959991
		s-0.3880005,0.112999-0.6119995,0.1570015c-0.223999,0.0439987-0.4609985,0.0800018-0.7129974,0.1080017
		s-0.5100021,0.0419998-0.776001,0.0419998c-0.4889984,0-0.9530029-0.0480003-1.3909988-0.1430016
		c-0.4380035-0.0950012-0.8239975-0.2630005-1.1569977-0.5029984c-0.3330002-0.2400017-0.5979996-0.5610008-0.7929993-0.9650002
		c-0.1959991-0.4029999-0.2939987-0.9119987-0.2939987-1.5270004v-3.4039993h1.3769989v3.257
		c0,0.4239998,0.0569992,0.7709999,0.1709976,1.0410004s0.2799988,0.4819984,0.4960022,0.6360016
		c0.2170029,0.1539993,0.4810028,0.2599983,0.7929993,0.3180008c0.3119965,0.0579987,0.6689987,0.0870018,1.0690002,0.0870018
		c0.223999,0,0.4509964-0.0139999,0.6809998-0.0419998c0.2310028-0.0279999,0.4499969-0.0649986,0.6569977-0.1119995
		c0.2070007-0.0460014,0.3960037-0.0999985,0.5660019-0.1609993c0.1699982-0.0600014,0.3040009-0.1230011,0.4020004-0.1889992
		V22.216011h1.3769989v10.2739906h-1.3769989v-4.2340012H81.4769974z"/>
	<path class="st1" d="M84.1190033,22.2179985h8.3590012v1.2019997h-3.4950027v9.0719986h-1.3769989v-9.0719986h-3.487999
		L84.1190033,22.2179985L84.1190033,22.2179985z"/>
	<path class="st1" d="M93.7220001,22.2179985h1.3769989v4.2350006h2.7330017c0.6149979,0,1.1480026,0.0699997,1.5999985,0.2099991
		c0.4520035,0.1399994,0.8249969,0.3400002,1.1180038,0.6010017c0.2939987,0.2610016,0.512001,0.5779991,0.6569977,0.9510002
		c0.1439972,0.3730011,0.2170029,0.7919998,0.2170029,1.2579994c0,0.4570007-0.0719986,0.8699989-0.2170029,1.2410011
		c-0.1439972,0.3699989-0.3550034,0.6870003-0.6330032,0.9510002c-0.2770004,0.2630005-0.6169968,0.4669991-1.0199966,0.6110001
		S98.6910019,32.493,98.1740036,32.493h-4.4520035V22.2179985L93.7220001,22.2179985z M97.9919968,31.2900009
		c0.2799988,0,0.5390015-0.0299988,0.7789993-0.0909996c0.2399979-0.0600014,0.447998-0.1619987,0.6259995-0.3040009
		c0.177002-0.1419983,0.3160019-0.3289986,0.4160004-0.5590019c0.0999985-0.230999,0.1500015-0.5180016,0.1500015-0.862999
		c0-0.3400002-0.052002-0.6269989-0.1569977-0.8600006c-0.1050034-0.2330017-0.2549973-0.4199982-0.4509964-0.5629997
		c-0.1959991-0.1419983-0.4329987-0.243-0.7129974-0.3040009c-0.2799988-0.0600014-0.5960007-0.0909996-0.9499969-0.0909996
		h-2.5930023v3.6339989L97.9919968,31.2900009L97.9919968,31.2900009z M102.8150024,22.2179985h1.3700027v10.2739983h-1.3700027
		V22.2179985z"/>
	<path class="st1" d="M103.7030029,19.1040001c-0.711998,0-1.2919998-0.5789986-1.2919998-1.2919998
		c0-0.7120018,0.5790024-1.2919998,1.2919998-1.2919998s1.2919998,0.5789986,1.2919998,1.2919998
		S104.4160004,19.1040001,103.7030029,19.1040001z M103.7030029,16.6020012c-0.6669998,0-1.2099991,0.5429993-1.2099991,1.2099991
		s0.5429993,1.2099991,1.2099991,1.2099991s1.2099991-0.5429993,1.2099991-1.2099991
		C104.9140015,17.1450005,104.3710022,16.6020012,103.7030029,16.6020012z"/>
	<path class="st1" d="M104.2429962,18.3950005c-0.0090027-0.0289993-0.0159988-0.0589981-0.0210037-0.0909996
		c-0.0049973-0.0320015-0.0080032-0.0649986-0.0090027-0.0979996s-0.0029984-0.0660019-0.0059967-0.0979996
		c-0.0039978-0.0320015-0.0090027-0.0629997-0.0159988-0.0919991c-0.0070038-0.0299988-0.0169983-0.0559998-0.0309982-0.0800018
		s-0.0329971-0.0449982-0.0569992-0.0620003s-0.0550003-0.0299988-0.0930023-0.0369987v-0.0040016
		c0.0800018-0.0219994,0.1380005-0.0629997,0.1750031-0.1240005c0.0360031-0.0600014,0.0540009-0.1300011,0.0540009-0.2109985
		c0-0.1069984-0.0350037-0.1910019-0.1060028-0.2529984c-0.0709991-0.0620003-0.1689987-0.0919991-0.2949982-0.0919991h-0.6210022
		v1.3190002h0.1750031v-0.5629997h0.4290009c0.0429993,0,0.0780029,0.0060005,0.1029968,0.019001
		c0.026001,0.0130005,0.0469971,0.0299988,0.0630035,0.0519981c0.0159988,0.0219994,0.0279999,0.0470009,0.0350037,0.0760002
		s0.0139999,0.0589981,0.0179977,0.0909996c0.0059967,0.0320015,0.0100021,0.0649986,0.0110016,0.0979996
		s0.0019989,0.0639992,0.0039978,0.0929985c0.0009995,0.0289993,0.0039978,0.0550003,0.0080032,0.0789986
		c0.0039978,0.0229988,0.0130005,0.0419998,0.0250015,0.0550003h0.1959991
		C104.2659988,18.4500008,104.2519989,18.4239998,104.2429962,18.3950005z M103.9710007,17.7150002
		c-0.0279999,0.0180016-0.0599976,0.0299988-0.0970001,0.0359993s-0.0759964,0.0089989-0.1159973,0.0089989h-0.3659973v-0.4599991
		h0.435997c0.0820007,0,0.1419983,0.0209999,0.1790009,0.0629997s0.0550003,0.0960007,0.0550003,0.1629982
		c0,0.0480003-0.0080032,0.0870018-0.0250015,0.1170006C104.0210037,17.6739998,103.9990005,17.6980019,103.9710007,17.7150002z"/>
</g>
</svg>
