<?xml version="1.0" encoding="utf-8"?>
<!-- Generator: Adobe Illustrator 19.1.0, SVG Export Plug-In . SVG Version: 6.00 Build 0)  -->
<svg version="1.1" id="Слой_1" xmlns="http://www.w3.org/2000/svg" xmlns:xlink="http://www.w3.org/1999/xlink" x="0px" y="0px"
	 viewBox="3.5 8.5 13 13" style="enable-background:new 3.5 8.5 13 13;" xml:space="preserve">
<style type="text/css">
	.st0{fill:#3F3F3F;}
</style>
<g>
	<path class="st0" d="M16.2,14.9C16.2,14.9,16.2,14.9,16.2,14.9C16.2,14.9,16.2,14.9,16.2,14.9c0-0.1-0.1-0.1-0.1-0.1c0,0,0,0,0,0
		c0,0,0,0-0.1-0.1l-3.6-3.6c-0.1-0.1-0.3-0.1-0.5,0s-0.1,0.3,0,0.5l3,3H9c-0.2,0-0.3,0.2-0.3,0.3s0.2,0.3,0.3,0.3h6l-3,3
		c-0.1,0.1-0.1,0.3,0,0.5c0.1,0.1,0.2,0.1,0.2,0.1s0.2,0,0.2-0.1l3.6-3.6c0,0,0,0,0.1-0.1c0,0,0,0,0,0c0,0,0,0,0,0c0,0,0,0,0,0
		c0,0,0,0,0,0C16.2,15,16.2,15,16.2,14.9z"/>
	<path class="st0" d="M5.1,20.8c-0.8,0-0.9-0.2-0.9-0.8V10c0-0.5,0.1-0.8,0.9-0.8h6.4c0.2,0,0.3-0.2,0.3-0.3c0-0.2-0.2-0.3-0.3-0.3
		H5.1c-0.7,0-1.6,0.2-1.6,1.5V20c0,1.3,0.9,1.5,1.6,1.5"/>
	<path class="st0" d="M5.1,9.2h6.4c0.2,0,0.3-0.2,0.3-0.3c0-0.2-0.2-0.3-0.3-0.3H5.1"/>
	<path class="st0" d="M5.1,21.5h6.4c0.2,0,0.3-0.2,0.3-0.3c0-0.2-0.2-0.3-0.3-0.3H5.1"/>
</g>
</svg>
