<?xml version="1.0" encoding="utf-8"?>
<!-- Generator: Adobe Illustrator 19.1.0, SVG Export Plug-In . SVG Version: 6.00 Build 0)  -->
<svg version="1.1" id="Layer_1" xmlns="http://www.w3.org/2000/svg" xmlns:xlink="http://www.w3.org/1999/xlink" x="0px" y="0px"
	 viewBox="12 -18 94 106" style="enable-background:new 12 -18 94 106;" xml:space="preserve">
<style type="text/css">
	.st0{fill:none;}
	.st1{fill:#EEEEEE;}
</style>
<rect x="12" y="-18" class="st0" width="94" height="106"/>
<g>
	<path class="st1" d="M63.1899986,72.4700012c1.7489967,0,3.1720009,1.4229965,3.1720009,3.1719971v8.2279968
		c0,1.7490005-1.4230042,3.1719971-3.1720009,3.1719971H54.961998c-1.7490005,0-3.1720009-1.4229965-3.1720009-3.1719971v-8.2279968
		c0-1.7490005,1.4230003-3.1719971,3.1720009-3.1719971H63.1899986 M63.1899986,72.012001H54.961998
		c-2.0050011,0-3.6300011,1.625-3.6300011,3.6299973v8.2279968c0,2.0049973,1.625,3.6299973,3.6300011,3.6299973h8.2280006
		c2.0050011,0,3.6300011-1.625,3.6300011-3.6299973v-8.2279968C66.8199997,73.637001,65.1940002,72.012001,63.1899986,72.012001
		L63.1899986,72.012001z"/>
	<path class="st1" d="M53.1829987,66.2559967c0.132,0.4110031,0.262001,0.8130035,0.4049988,1.2610016
		c-0.6139984,0.2160034-1.0620003,0.3079987-1.4339981-0.3809967c-2.8400002-5.2639999-5.8610001-10.4410019-8.5279999-15.7910004
		c-2.5060005-5.0250015-4.8059998-10.1780014-6.9150009-15.3839989c-0.0330009-0.0810013-0.0639992-0.1389999-0.0970001-0.2610016
		h7.7010002c1.3660011,5.9459991,2.9889984,11.7349968,4.7220001,17.5300026
		C50.3390007,57.586998,51.7960014,61.9250031,53.1829987,66.2559967z"/>
	<path class="st1" d="M31.3290005,18.7579994h9.8319988c-0.1809998-1.2220001-0.3549995-2.4399986-0.5219994-3.670002
		c-0.776001-5.6959991-0.9459991-11.4039993,0.0219994-17.1119995c0.6529999-3.8500004,1.7859993-7.5200005,4.0680008-10.7279997
		c1.0279999-1.4450006,2.2970009-2.7160006,3.4570007-4.0670004c-0.0040016-0.0489998-0.0089989-0.0959988-0.0130005-0.1449986
		c-1.6930008,0.6969986-3.4360008,1.2929993-5.0690002,2.1089993c-5.7859993,2.8899994-9.651001,7.467-11.5939999,13.6309986
		C30.007,3.5459976,29.8649998,8.4199982,30.4489994,13.3409958C30.6660004,15.1730003,30.9650002,17.0880013,31.3290005,18.7579994
		z"/>
	<path class="st1" d="M73.8410034,35.7000008c-0.8110046,3.5019989-1.7030029,6.8860016-2.6670074,10.2919998
		c-1.5169983,5.3589973-3.1679993,10.6899986-4.7879944,16.019001c-0.5559998,1.8320007-1.1949997,3.6429977-1.8139954,5.5139999
		c1.048996,0.2450027,1.0459976,0.2460022,1.4949951-0.5149994c0.2859955-0.4840012,0.6009979-0.9509964,0.8670044-1.4449997
		c2.5410004-4.7269974,5.1119995-9.4560013,7.598999-14.2109985c2.6529999-5.072998,4.9589996-10.1969986,7.0289993-15.6539993
		C81.5619965,35.7000008,73.8410034,35.7000008,73.8410034,35.7000008z"/>
	<path class="st1" d="M70.1699982-16.4099998c2.4900055,2.1149998,4.262001,4.7410002,5.487999,7.7489996
		c1.6740036,4.1059999,2.3280029,8.3950014,2.4499969,12.7939997c0.137001,4.9260006-0.3030014,9.737999-1.0080032,14.625h9.7269974
		c0.4789963-2.4440002,0.8379974-4.6840019,1.0400009-7.0890007c0.4229965-5.0229988,0.0169983-9.9510002-1.8529968-14.7019997
		c-0.9860001-2.5050001-2.3700027-4.7600002-4.177002-6.7290001C79.7850037-12,77.4069977-13.8600006,74.6150055-15.1090002
		c-1.5230026-0.6809998-3.1070023-1.2249994-4.7750092-1.874999c0.0440063,0.2629986,0.0390015,0.2979984,0.0540009,0.3119984
		C69.9830017-16.5820007,70.072998-16.4920006,70.1699982-16.4099998z"/>
	<path class="st1" d="M29.1040001,38.8180008c-0.5569992-1.0229988-1.0930004-2.0589981-1.6079998-3.118h-1.7849998
		c2.8570004,5.1720009,6.0939999,9.9620018,9.5310001,14.682003c0.8479996,1.1650009,1.7350006,2.310997,2.6049995,3.4599991
		c-0.1220016-0.4599991-0.368-0.822998-0.5970001-1.2070007C34.5200005,48.0459976,31.6560001,43.5040016,29.1040001,38.8180008z"/>
	<path class="st1" d="M18.5650005,18.7579994h2.737999C20.427,14.9300003,20.0039997,11.0189991,20.3800011,6.9839993
		c0.4379997-4.7040005,1.7150002-9.1300001,4.3119984-13.1239996c0.6070004-0.934,1.2779999-1.8219995,1.9200001-2.7340002
		c-2.4169998,1.757-4.9710007,4.8719997-6.4020004,7.6709995c-2.9229984,5.7190018-3.3260002,11.7320004-2.1049995,17.9230022
		C18.2410011,17.4109993,18.3969994,17.9840012,18.5650005,18.7579994z"/>
	<path class="st1" d="M87.2649994,42.0900002c-1.5159988,2.75-3.1910019,5.4230003-4.8130035,8.1140022
		c-0.6900024,1.1439972-1.4240036,2.2669983-2.1380005,3.3970032c0.0540009,0.0439987,0.1090012,0.0899963,0.163002,0.1340027
		c0.0469971-0.0879974,0.0839996-0.1819992,0.1419983-0.2630005c1.810997-2.5049973,3.7320023-4.9570007,5.409996-7.5480003
		c2.1719971-3.3540001,4.2630005-6.7220001,6.2949982-10.2250023h-1.6999969
		C89.5599976,37.8180008,88.4229965,39.9889984,87.2649994,42.0900002z"/>
	<path class="st1" d="M95.2590027-2.8280001c2.4179993,5.2860003,3.1009979,10.8760004,2.4609985,16.6259995
		c-0.1869965,1.6850014-0.4700012,3.2910013-0.8320007,4.9609995h2.7060013
		c1.2639999-5.0499992,1.5719986-10.0489998,0.2109985-15.1639996c-1.3550034-5.0930004-4.2050018-9.1879997-8.2959976-12.4540005
		c0.1689987,0.2200003,0.3580017,0.4320002,0.5019989,0.6660004C93.1110001-6.4139996,94.3949966-4.7159996,95.2590027-2.8280001z"
		/>
	<path class="st1" d="M56.4840012,48.0550003c0.4490013,4.4869995,0.9440002,8.9810028,1.4360008,13.4659958
		c0.2120018,1.9339981,0.4599991,3.8710022,0.7210007,5.8010025c0.0239983,0.1740036,0.2700005,0.3310013,0.4129982,0.4950027
		c0.1660004-0.1740036,0.4389992-0.3339996,0.4799995-0.5250015c0.132-0.625,0.1870003-1.2610016,0.257-1.8939972
		c0.5909996-5.3499985,1.2249985-10.7159958,1.757-16.0709991c0.4500008-4.5349998,0.887001-9.0660019,1.2869987-13.6269989
		h-7.5359993C55.6689987,39.651001,56.0730019,43.9440002,56.4840012,48.0550003z"/>
	<path class="st1" d="M53.9370003,18.7579994H59h5.1100006c0.0719986-0.8959999,0.1450043-2.0530014,0.2109985-3.0890007
		C64.7579956,8.8209991,65.1750031,1.993,64.5619965-4.8630009c-0.2669983-2.9910002-0.7209969-5.9759998-1.9969978-8.8100004
		c-0.5089989-1.1309996-1.3440018-2.2249994-2.2659988-3.1789999C59.9070015-17.2579994,59.5130005-17.4720001,59-17.5
		c-0.5130005,0.0279999-0.8829994,0.2409992-1.2750015,0.6469994c-0.9220009,0.9540005-1.7290001,2.0470009-2.237999,3.1780005
		c-1.276001,2.835-1.7319984,5.8170004-1.9990005,8.8079996C52.875,1.9889984,53.2899971,8.8219986,53.7280006,15.6699982
		C53.7939987,16.7060013,53.8650017,17.8619995,53.9370003,18.7579994z"/>
	<path class="st1" d="M62.5979996,78.1930008c-0.7919998-2.4189987-2.4749985-3.1660004-4.7980003-2.4059982l-2.5880013,0.8470001
		l2.4679985,7.5410004l2.5880013-0.8470001C62.7820015,82.5059967,63.4239998,80.7170029,62.5979996,78.1930008z
		 M60.0760002,82.4560013l-1.6689987,0.5459976l-1.9150009-5.8509979l1.6899986-0.5530014
		c1.848999-0.6050034,2.8699989,0.2649994,3.4570007,2.0599976C62.5489998,81.435997,60.7630005,82.2320023,60.0760002,82.4560013z"
		/>
	<polygon class="st1" points="15.3579998,21.9760017 15.3579998,32.6459999 16.5799999,32.6459999 16.5799999,23.8079987 
		16.6639996,23.8079987 19.9820004,32.6459999 21.1879997,32.6459999 24.5060005,23.8079987 24.5219994,23.8079987 
		24.5219994,32.6459999 25.8660011,32.6459999 25.8660011,21.9760017 23.9399986,21.9760017 20.5779991,30.9029999 
		17.2299995,21.9760017 	"/>
	<polygon class="st1" points="32.5849991,28.2470016 36.6760025,21.9760017 35.0690002,21.9760017 31.9589996,27.0340004 
		28.7749996,21.9760017 27.0939999,21.9760017 31.2409992,28.2470016 31.2409992,32.6459999 32.5849991,32.6459999 	"/>
	<path class="st1" d="M49.4269981,23.2249985c-0.8829994-0.8330002-2.1430016-1.2470016-3.7789993-1.2470016h-3.6020012v10.6749992
		h3.6020012c0.8829994,0,1.6459999-0.1549988,2.2910004-0.4029999s1.1749992-0.6230011,1.5919991-1.0940018
		s0.723999-1.0590019,0.9220009-1.7490005c0.1980019-0.6889992,0.2980003-1.4840012,0.2980003-2.3769989
		C50.7509995,25.3250008,50.3089981,24.0589981,49.4269981,23.2249985z M49.137001,28.8959999
		c-0.1339989,0.4609985-0.3050003,0.8450012-0.5130005,1.1520004c-0.2080002,0.3079987-0.4440002,0.5499992-0.7070007,0.7290001
		c-0.2630005,0.1780014-0.5279999,0.3149986-0.7960014,0.4090004s-0.5209999,0.1699982-0.7589989,0.1949997
		s-0.4370003,0.0530014-0.5950012,0.0530014h-2.3479996v-8.2350006h2.3779984c0.6549988,0,1.2050018,0.0719986,1.651001,0.2550011
		c0.4459991,0.1839981,0.8110008,0.4420013,1.0940018,0.7939987c0.2830009,0.3520012,0.4860001,0.7739983,0.6100006,1.2739983
		c0.1240005,0.5009995,0.1860008,1.0670013,0.1860008,1.7010002C49.3370018,27.8779984,49.2709999,28.4350014,49.137001,28.8959999z
		"/>
	<path class="st1" d="M60.7420006,32.0050011c-0.0740013-0.2330017-0.132-0.4939995-0.1710014-0.7519989
		c-0.0400009-0.2579994-0.0649986-0.5279999-0.0740013-0.7960014c-0.0099983-0.2680016-0.0250015-0.5340004-0.0449982-0.7919998
		c-0.0299988-0.2579994-0.0719986-0.5079994-0.1259995-0.7459984c-0.0550003-0.237999-0.1389999-0.4550018-0.2529984-0.6479988
		c-0.1139984-0.1930008-0.2869987-0.3600006-0.4799995-0.4990005s-0.4650002-0.2389984-0.7700005-0.2980003v-0.0299988
		c0.6100006-0.1790009,1.132-0.5110016,1.4249992-0.9970016c0.2919998-0.4860001,0.4480019-1.0509987,0.4480019-1.6959991
		c0-0.862999-0.2809982-1.5369987-0.8510017-2.0330009c-0.5709991-0.4959984-1.3569984-0.7389984-2.368-0.7389984h-5.0600014
		v10.6749992h1.5250015v-4.5750008h3.401001c0.3470001,0,0.625,0.0400009,0.8330002,0.144001
		s0.3769989,0.2369995,0.5060005,0.4099998c0.1290016,0.1739998,0.2229996,0.3740005,0.2830009,0.6069984
		c0.0589981,0.2330017,0.1090012,0.4770012,0.1489983,0.7350006c0.0499992,0.2579994,0.0789986,0.5200005,0.0890007,0.7879982
		c0.0099983,0.2680016,0.0200005,0.5180016,0.0299988,0.7509995c0.0099983,0.2330017,0.0320015,0.4749985,0.0670013,0.6629982
		s0.1020012,0.3250008,0.2010002,0.4770012h1.5769997C60.9280014,32.348999,60.8160019,32.2389984,60.7420006,32.0050011z
		 M58.5550003,26.5009995c-0.2229996,0.144001-0.4830017,0.2369995-0.7809982,0.2869987
		c-0.2980003,0.0499992-0.6100006,0.0709991-0.9370003,0.0709991h-2.8950005v-3.6599998h3.4599991
		c0.6640015,0,1.1459999,0.1489983,1.4430008,0.4860001c0.2980003,0.3370018,0.4459991,0.7639999,0.4459991,1.2989998
		c0,0.387001-0.0670013,0.6969986-0.2010002,0.9399986C58.9560013,26.1669998,58.7779999,26.3580017,58.5550003,26.5009995z"/>
	<polygon class="st1" points="62.3969994,21.9760017 62.3969994,32.6459999 69.848999,32.6459999 69.848999,31.4239998 
		63.7809982,31.4239998 63.7809982,27.7589989 69.401001,27.7589989 69.401001,26.5369987 63.7809982,26.5369987 
		63.7809982,23.1969986 69.727005,23.1969986 69.727005,21.9760017 	"/>
	<path class="st1" d="M76.4120026,21.9780006h-1.5620041l-4.1360016,10.6749992h1.4430008l1.1900024-3.2029991h4.4929962
		L79,32.6539993h1.5619965L76.4120026,21.9780006z M73.7929993,28.230999l1.8000031-5.0330009h0.0299988l1.7699966,5.0330009
		H73.7929993z"/>
	<polygon class="st1" points="81.6190033,21.9760017 81.6190033,32.6459999 82.9629974,32.6459999 82.9629974,23.8079987 
		83.0029984,23.8079987 86.3209991,32.6459999 87.526001,32.6459999 90.8440018,23.8079987 90.9049988,23.8079987 
		90.9049988,32.6459999 92.2890015,32.6459999 92.2890015,21.9760017 90.2779999,21.9760017 86.9160004,30.9029999 
		83.5680008,21.9760017 	"/>
	<path class="st1" d="M100.5039978,25.0299988h1.3389969c-0.0199966-0.6110001-0.1320038-1.0639992-0.3349991-1.4860001
		c-0.2030029-0.4220009-0.4810028-0.7589989-0.8330002-1.0369987s-0.7610016-0.4749985-1.2279968-0.6040001
		c-0.4660034-0.1290016-0.9720001-0.1910019-1.5179977-0.1910019c-0.4860001,0-0.9599991,0.0639992-1.4209976,0.1879997
		s-0.8730011,0.3129997-1.2350006,0.5659981s-0.6520004,0.5760002-0.8700027,0.9669991
		c-0.2180023,0.3919983-0.3270035,0.855999-0.3270035,1.3909988c0,0.4860001,0.0970001,0.8909988,0.2900009,1.2130013
		c0.1940002,0.3230019,0.4509964,0.5859985,0.7740021,0.7890015c0.3219986,0.2029991,0.6869965,0.3670006,1.0940018,0.4910011
		c0.4069977,0.1240005,0.8209991,0.2330017,1.2419968,0.3269997c0.4209976,0.0950012,0.8359985,0.1860008,1.2419968,0.2750015
		s0.7710037,0.2060013,1.0940018,0.3499985c0.3219986,0.144001,0.5800018,0.3300018,0.7740021,0.5579987
		c0.1930008,0.2280006,0.2900009,0.526001,0.2900009,0.8930016c0,0.387001-0.0790024,0.7039986-0.237999,0.9519997
		s-0.3669968,0.4440002-0.625,0.5880013s-0.5479965,0.2449989-0.8700027,0.3050003
		c-0.322998,0.0600014-0.6419983,0.0890007-0.9599991,0.0890007c-0.3970032,0-0.7839966-0.0499992-1.1600037-0.1489983
		c-0.3769989-0.098999-0.7070007-0.2529984-0.9899979-0.4609985s-0.5110016-0.4490013-0.6839981-0.7719994
		c-0.1740036-0.3219986-0.2600021-0.6809998-0.2600021-1.1290016H93.75c0,0.6110001,0.1169968,1.1790009,0.3499985,1.6500015
		s0.5500031,0.8460007,0.9520035,1.1489983c0.4020004,0.3030014,0.8679962,0.5219994,1.3990021,0.6710014
		c0.5299988,0.1489983,1.0940018,0.2200012,1.689003,0.2200012c0.4860001,0,0.973999-0.0589981,1.4660034-0.1730003
		c0.4909973-0.1139984,0.9349976-0.2980003,1.3320007-0.5509987s0.7220001-0.5810013,0.973999-0.9819984
		c0.2529984-0.4020004,0.3789978-0.8860016,0.3789978-1.4510002c0-0.526001-0.0970001-0.9620018-0.2900009-1.3090019
		c-0.1940002-0.3470001-0.4520035-0.6349983-0.7740021-0.862999c-0.322998-0.2280006-0.6869965-0.4090004-1.0940018-0.5429993
		c-0.4069977-0.1339989-0.8209991-0.25-1.2419968-0.3499985c-0.4219971-0.098999-0.8359985-0.1910019-1.2419968-0.2750015
		c-0.4069977-0.0839996-0.7710037-0.1910019-1.0940018-0.3199997c-0.3219986-0.1290016-0.5800018-0.2949982-0.7740021-0.4990005
		c-0.1930008-0.2029991-0.2900009-0.4690018-0.2900009-0.7960014c0-0.3470001,0.0670013-0.637001,0.2009964-0.8699989
		c0.1340027-0.2330017,0.3119965-0.4189987,0.5360031-0.5579987c0.2229996-0.1389999,0.4779968-0.237999,0.7659988-0.2980003
		c0.288002-0.0589981,0.5800018-0.0890007,0.8779984-0.0890007c0.7340012,0,1.3359985,0.1469994,1.8079987,0.4889984
		C100.1500015,23.7369995,100.4250031,24.2560005,100.5039978,25.0299988z"/>
	<path class="st1" d="M104.4769974,20.8149986c-0.711998,0-1.2919998-0.5789986-1.2919998-1.2919998
		c0-0.7120018,0.5790024-1.2919998,1.2919998-1.2919998s1.2919998,0.5789986,1.2919998,1.2919998
		C105.7689972,20.2350006,105.189003,20.8149986,104.4769974,20.8149986z M104.4769974,18.3120003
		c-0.6669998,0-1.2099991,0.5429993-1.2099991,1.2099991s0.5429993,1.2099991,1.2099991,1.2099991
		s1.2099991-0.5429993,1.2099991-1.2099991S105.1439972,18.3120003,104.4769974,18.3120003z"/>
	<path class="st1" d="M105.0159988,20.105999c-0.0090027-0.0289993-0.0159988-0.0589981-0.0210037-0.0909996
		c-0.0049973-0.0320015-0.0080032-0.0649986-0.0090027-0.0979996s-0.0029984-0.0660019-0.0049973-0.0979996
		c-0.0039978-0.0320015-0.0090027-0.0629997-0.0159988-0.0919991c-0.0070038-0.0299988-0.0169983-0.0559998-0.0309982-0.0800018
		c-0.0139999-0.0239983-0.0329971-0.0449982-0.0569992-0.0620003c-0.0240021-0.0169983-0.0550003-0.0299988-0.0930023-0.0369987
		v-0.0040016c0.0800018-0.0219994,0.1380005-0.0629997,0.1750031-0.1240005
		c0.0360031-0.0600014,0.0540009-0.1300011,0.0540009-0.2109985c0-0.1069984-0.0350037-0.1910019-0.1060028-0.2529984
		c-0.0709991-0.0620003-0.1689987-0.0919991-0.2949982-0.0919991h-0.6220016v1.3190002h0.1750031v-0.5630035h0.4290009
		c0.0429993,0,0.0780029,0.0060005,0.1029968,0.019001c0.026001,0.0130005,0.0469971,0.0299988,0.0630035,0.0519981
		c0.0159988,0.0219994,0.0279999,0.0470009,0.0350037,0.0760002s0.0139999,0.0589981,0.0179977,0.0909996
		c0.0059967,0.0320015,0.0100021,0.0649986,0.0110016,0.0979996s0.0019989,0.0639992,0.0039978,0.0929985
		c0.0009995,0.0289993,0.0039978,0.0550003,0.0080032,0.0789986c0.0039978,0.0229988,0.0130005,0.0419998,0.0250015,0.0550003
		h0.1959991C105.0390015,20.1599998,105.026001,20.1349983,105.0159988,20.105999z M104.7450027,19.4259987
		c-0.0279999,0.0180016-0.0599976,0.0299988-0.0970001,0.0359993s-0.0759964,0.0089989-0.1159973,0.0089989h-0.3659973v-0.4599991
		h0.435997c0.0820007,0,0.1419983,0.0209999,0.1790009,0.0629997s0.0550003,0.0960007,0.0550003,0.1629982
		c0,0.0480003-0.0080032,0.0870018-0.0250015,0.1170006C104.7949982,19.3839989,104.7730026,19.4080009,104.7450027,19.4259987z"/>
</g>
</svg>
