<?xml version="1.0" encoding="UTF-8" standalone="no"?>
<svg width="30px" height="30px" viewBox="0 0 30 30" version="1.1" xmlns="http://www.w3.org/2000/svg" xmlns:xlink="http://www.w3.org/1999/xlink">
    <!-- Generator: Sketch 3.7 (28169) - http://www.bohemiancoding.com/sketch -->
    <title>mail</title>
    <desc>Created with Sketch.</desc>
    <defs></defs>
    <g id="Page-1" stroke="none" stroke-width="1" fill="none" fill-rule="evenodd">
        <g id="mail" fill="#FFFFFF">
            <path d="M23.0367501,19 C23.0367501,19.1015 23.0152952,19.1975 22.9844882,19.289 L18.0856251,14.5 L23.0367501,11 L23.0367501,19 L23.0367501,19 Z M8.4892445,19.973 L13.4535725,15.165 L15.335,16.4575 L17.135009,15.157 L22.1807556,19.973 C22.1020877,19.9895 8.56791238,19.9895 8.4892445,19.973 L8.4892445,19.973 Z M7.63325,19 L7.63325,11 L12.584375,14.5 L7.68551187,19.289 C7.65470487,19.1975 7.63325,19.1015 7.63325,19 L7.63325,19 Z M22.4866251,10 L15.335,15 L8.183375,10 L22.4866251,10 L22.4866251,10 Z M21.9365001,9 L8.7335,9 C7.51827387,9 6.53299999,9.8955 6.53299999,11 L6.53299999,19 C6.53299999,20.1045 7.51827387,21 8.7335,21 L21.9365001,21 C23.1517262,21 24.1370001,20.1045 24.1370001,19 L24.1370001,11 C24.1370001,9.8955 23.1517262,9 21.9365001,9 L21.9365001,9 Z" id="Fill-186"></path>
        </g>
    </g>
</svg>
