<?xml version="1.0" encoding="utf-8"?>
<!-- Generator: Adobe Illustrator 18.0.0, SVG Export Plug-In . SVG Version: 6.00 Build 0)  -->
<!DOCTYPE svg PUBLIC "-//W3C//DTD SVG 1.1//EN" "http://www.w3.org/Graphics/SVG/1.1/DTD/svg11.dtd">
<svg version="1.1" id="Слой_1" xmlns="http://www.w3.org/2000/svg" xmlns:xlink="http://www.w3.org/1999/xlink" x="0px" y="0px"
	 viewBox="0 0 66 80" enable-background="new 0 0 66 80" xml:space="preserve">
<g>
	<g>
		<g>
			<path fill="#FFFFFF" d="M53.6,80.1L53.6,80.1c0-0.9-0.7-1.6-1.6-1.6l0,0c-0.9,0-1.6,0.7-1.6,1.5l0,0l0,0.1h-1.6l0-0.1
				c0-0.8-0.7-1.5-1.6-1.5l0,0c-0.9,0-1.6,0.7-1.6,1.5l0,0l0,0.1H44l0-0.1c0-0.8-0.7-1.5-1.6-1.5l0,0c-0.9,0-1.6,0.7-1.6,1.5l0,0
				l0,0.1h-1.6l0-0.1c0-0.8-0.7-1.5-1.6-1.5l0,0c-0.9,0-1.6,0.7-1.6,1.5l0,0l0,0.1h-1.6l0-0.1c0-0.8-0.7-1.5-1.6-1.5l0,0
				c-0.9,0-1.6,0.7-1.6,1.5l0,0l0,0.1h-1.6l0-0.1c0-0.8-0.7-1.5-1.6-1.5l0,0c-0.9,0-1.6,0.7-1.6,1.5l0,0l0,0.1h-1.6l0-0.1
				c0-0.8-0.7-1.5-1.6-1.5l0,0c-0.9,0-1.6,0.7-1.6,1.5l0,0l0,0.1h-1.6l0-0.1c0-0.8-0.7-1.5-1.6-1.5l0,0c-0.9,0-1.6,0.7-1.6,1.5l0,0
				l0,0.1H15l0-0.1c0-0.8-0.7-1.5-1.6-1.5l0,0c-0.9,0-1.6,0.7-1.6,1.5l0,0l0,0.1h-1.6l0-0.1c0-0.8-0.7-1.5-1.6-1.5l0,0
				C7.7,78.5,7,79.1,7,80l0,0l0,0.1H5.4l0-0.1c0-0.8-0.7-1.5-1.6-1.5l0,0c-0.9,0-1.6,0.7-1.6,1.5l0,0l0,0.1H0.9l0,0
				c-0.2-0.2-0.4-0.4-0.6-0.5l0,0l0,0v-1.7l0.1,0c0.8-0.1,1.5-0.8,1.5-1.6l0,0c0-0.8-0.6-1.5-1.5-1.6l0,0l-0.1,0V73l0.1,0
				c0.8-0.1,1.5-0.8,1.5-1.6l0,0c0-0.8-0.6-1.5-1.5-1.6l0,0l-0.1,0v-1.6l0.1,0c0.8-0.1,1.5-0.8,1.5-1.6l0,0c0-0.8-0.6-1.5-1.5-1.6
				l0,0l-0.1,0v-1.6l0.1,0c0.8-0.1,1.5-0.8,1.5-1.6l0,0c0-0.8-0.6-1.5-1.5-1.6l0,0l-0.1,0v-1.6l0.1,0c0.8-0.1,1.5-0.8,1.5-1.6l0,0
				c0-0.8-0.6-1.5-1.5-1.6l0,0l-0.1,0v-1.6l0.1,0c0.8-0.1,1.5-0.8,1.5-1.6l0,0c0-0.8-0.6-1.5-1.5-1.6l0,0l-0.1,0v-1.6l0.1,0
				c0.8-0.1,1.5-0.8,1.5-1.6l0,0c0-0.8-0.6-1.5-1.5-1.6l0,0l-0.1,0V44l0.1,0c0.8-0.1,1.5-0.8,1.5-1.6l0,0c0-0.8-0.6-1.5-1.5-1.6l0,0
				l-0.1,0v-1.6l0.1,0c0.8-0.1,1.5-0.8,1.5-1.6l0,0c0-0.8-0.6-1.5-1.5-1.6l0,0l-0.1,0v-1.6l0.1,0c0.8-0.1,1.5-0.8,1.5-1.6l0,0
				c0-0.8-0.6-1.5-1.5-1.6l0,0l-0.1,0v-1.6l0.1,0c0.8-0.1,1.5-0.8,1.5-1.6l0,0c0-0.8-0.6-1.5-1.5-1.6l0,0l-0.1,0v-1.6l0.1,0
				c0.8-0.1,1.5-0.8,1.5-1.6l0,0c0-0.8-0.6-1.5-1.5-1.6l0,0l-0.1,0v-1.6l0.1,0c0.8-0.1,1.5-0.8,1.5-1.6l0,0c0-0.8-0.6-1.5-1.5-1.6
				l0,0l-0.1,0v-1.6l0.1,0c0.8-0.1,1.5-0.8,1.5-1.6l0,0c0-0.8-0.6-1.5-1.5-1.6l0,0l-0.1,0v-1.6l0.1,0c0.8-0.1,1.5-0.8,1.5-1.6l0,0
				c0-0.8-0.6-1.5-1.5-1.6l0,0L0.2,7V5.4l0.1,0c0.8-0.1,1.5-0.8,1.5-1.6l0,0c0-0.8-0.6-1.5-1.5-1.6l0,0l-0.1,0V1l0,0
				C0.7,0.8,1,0.4,1.1,0l0,0l0-0.1h1l0,0.1c0.1,0.8,0.8,1.4,1.6,1.4l0,0c0.8,0,1.5-0.6,1.6-1.4l0,0l0-0.1H7L7,0
				c0.1,0.8,0.8,1.4,1.6,1.4l0,0c0.8,0,1.5-0.6,1.6-1.4l0,0l0-0.1h1.6l0,0.1c0.1,0.8,0.8,1.4,1.6,1.4l0,0c0.8,0,1.5-0.6,1.6-1.4l0,0
				l0-0.1h1.6l0,0.1c0.1,0.8,0.8,1.4,1.6,1.4l0,0c0.8,0,1.5-0.6,1.6-1.4l0,0l0-0.1h1.6l0,0.1c0.1,0.8,0.8,1.4,1.6,1.4l0,0
				c0.8,0,1.5-0.6,1.6-1.4l0,0l0-0.1h1.6l0,0.1c0.1,0.8,0.8,1.4,1.6,1.4l0,0c0.8,0,1.5-0.6,1.6-1.4l0,0l0-0.1h1.6l0,0.1
				c0.1,0.8,0.8,1.4,1.6,1.4l0,0c0.8,0,1.5-0.6,1.6-1.4l0,0l0-0.1h1.6L36,0c0.1,0.8,0.8,1.4,1.6,1.4l0,0c0.8,0,1.5-0.6,1.6-1.4l0,0
				l0-0.1h1.6l0,0.1c0.1,0.8,0.8,1.4,1.6,1.4l0,0c0.8,0,1.5-0.6,1.6-1.4l0,0l0-0.1h1.6l0,0.1c0.1,0.8,0.8,1.4,1.6,1.4l0,0
				c0.8,0,1.5-0.6,1.6-1.4l0,0l0-0.1h1.6l0,0.1c0.1,0.8,0.8,1.4,1.6,1.4l0,0c0.8,0,1.5-0.6,1.6-1.4l0,0l0-0.1h1.6l0,0.1
				c0.1,0.8,0.8,1.4,1.6,1.4l0,0c0.8,0,1.5-0.6,1.6-1.4l0,0l0-0.1h1.6l0,0.1c0.1,0.8,0.8,1.4,1.6,1.4l0,0c0.8,0,1.5-0.6,1.6-1.4l0,0
				l0-0.1h1.4l0,0.1c0.2,0.5,0.6,0.9,1.1,1.1l0,0l0.1,0v1.1l-0.1,0c-0.8,0.1-1.5,0.8-1.5,1.6l0,0c0,0.8,0.6,1.5,1.5,1.6l0,0l0.1,0V7
				l-0.1,0c-0.8,0.1-1.5,0.8-1.5,1.6l0,0c0,0.8,0.6,1.5,1.5,1.6l0,0l0.1,0v1.6l-0.1,0c-0.8,0.1-1.5,0.8-1.5,1.6l0,0
				c0,0.8,0.6,1.5,1.5,1.6l0,0l0.1,0v1.6l-0.1,0c-0.8,0.1-1.5,0.8-1.5,1.6l0,0c0,0.8,0.6,1.5,1.5,1.6l0,0l0.1,0v1.6l-0.1,0
				c-0.8,0.1-1.5,0.8-1.5,1.6l0,0c0,0.8,0.6,1.5,1.5,1.6l0,0l0.1,0v1.6l-0.1,0c-0.8,0.1-1.5,0.8-1.5,1.6l0,0c0,0.8,0.6,1.5,1.5,1.6
				l0,0l0.1,0v1.6l-0.1,0c-0.8,0.1-1.5,0.8-1.5,1.6l0,0c0,0.8,0.6,1.5,1.5,1.6l0,0l0.1,0V36l-0.1,0c-0.8,0.1-1.5,0.8-1.5,1.6l0,0
				c0,0.8,0.6,1.5,1.5,1.6l0,0l0.1,0v1.6l-0.1,0c-0.8,0.1-1.5,0.8-1.5,1.6l0,0c0,0.8,0.6,1.5,1.5,1.6l0,0l0.1,0v1.6l-0.1,0
				c-0.8,0.1-1.5,0.8-1.5,1.6l0,0c0,0.8,0.6,1.5,1.5,1.6l0,0l0.1,0v1.6l-0.1,0c-0.8,0.1-1.5,0.8-1.5,1.6l0,0c0,0.8,0.6,1.5,1.5,1.6
				l0,0l0.1,0v1.6l-0.1,0c-0.8,0.1-1.5,0.8-1.5,1.6l0,0c0,0.8,0.6,1.5,1.5,1.6l0,0l0.1,0v1.6l-0.1,0c-0.8,0.1-1.5,0.8-1.5,1.6l0,0
				c0,0.8,0.6,1.5,1.5,1.6l0,0l0.1,0V65l-0.1,0c-0.8,0.1-1.5,0.8-1.5,1.6l0,0c0,0.8,0.6,1.5,1.5,1.6l0,0l0.1,0v1.6l-0.1,0
				c-0.8,0.1-1.5,0.8-1.5,1.6l0,0c0,0.8,0.6,1.5,1.5,1.6l0,0l0.1,0v1.6l-0.1,0c-0.8,0.1-1.5,0.8-1.5,1.6l0,0c0,0.8,0.6,1.5,1.5,1.6
				l0,0l0.1,0v1.6l-0.1,0c-0.3,0.1-0.6,0.3-0.8,0.6l0,0l0,0h-1.6l0-0.1c0-0.8-0.7-1.5-1.6-1.5l0,0c-0.9,0-1.6,0.7-1.6,1.5l0,0l0,0.1
				h-1.6l0-0.1c0-0.8-0.7-1.5-1.6-1.5l0,0c-0.9,0-1.6,0.7-1.6,1.5l0,0l0,0.1H53.6L53.6,80.1z M64.8,79.9c0.2,0,0.5-0.5,0.8-0.6l0,0
				v-1.3c-0.9-0.1-1.5-0.8-1.5-1.7l0,0c0-0.9,0.7-1.6,1.5-1.7l0,0v-1.3c-0.9-0.1-1.5-0.8-1.5-1.7l0,0c0-0.9,0.7-1.6,1.5-1.7l0,0
				v-1.3c-0.9-0.1-1.5-0.8-1.5-1.7l0,0c0-0.9,0.7-1.6,1.5-1.7l0,0v-1.3c-0.9-0.1-1.5-0.8-1.5-1.7l0,0c0-0.9,0.7-1.6,1.5-1.7l0,0
				v-1.3c-0.9-0.1-1.5-0.8-1.5-1.7l0,0c0-0.9,0.7-1.6,1.5-1.7l0,0v-1.3c-0.9-0.1-1.5-0.8-1.5-1.7l0,0c0-0.9,0.7-1.6,1.5-1.7l0,0V49
				c-0.9-0.1-1.5-0.8-1.5-1.7l0,0c0-0.9,0.7-1.6,1.5-1.7l0,0v-1.3c-0.9-0.1-1.5-0.8-1.5-1.7l0,0c0-0.9,0.7-1.6,1.5-1.7l0,0v-1.3
				c-0.9-0.1-1.5-0.8-1.5-1.7l0,0c0-0.9,0.7-1.6,1.5-1.7l0,0v-1.3c-0.9-0.1-1.5-0.8-1.5-1.7l0,0c0-0.9,0.7-1.6,1.5-1.7l0,0v-1.3
				c-0.9-0.1-1.5-0.8-1.5-1.7l0,0c0-0.9,0.7-1.6,1.5-1.7l0,0v-1.3c-0.9-0.1-1.5-0.8-1.5-1.7l0,0c0-0.9,0.7-1.6,1.5-1.7l0,0V20
				c-0.9-0.1-1.5-0.8-1.5-1.7l0,0c0-0.9,0.7-1.6,1.5-1.7l0,0v-1.3c-0.9-0.1-1.5-0.8-1.5-1.7l0,0c0-0.9,0.7-1.6,1.5-1.7l0,0v-1.3
				c-0.9-0.1-1.5-0.8-1.5-1.7l0,0c0-0.9,0.7-1.6,1.5-1.7l0,0V5.6c-0.9-0.1-1.5-0.8-1.5-1.7l0,0c0-0.9,0.7-1.6,1.5-1.7l0,0V1.2
				c-0.5-0.2-0.9-0.6-1.1-1.1l0,0h-1.1c-0.1,0.8-0.9,1.5-1.7,1.5l0,0c-0.9,0-1.6-0.7-1.7-1.5l0,0h-1.3c-0.1,0.8-0.9,1.5-1.7,1.5l0,0
				c-0.9,0-1.6-0.7-1.7-1.5l0,0h-1.3C53.6,1,52.9,1.6,52,1.6l0,0c-0.9,0-1.6-0.7-1.7-1.5l0,0h-1.3c-0.1,0.8-0.9,1.5-1.7,1.5l0,0
				c-0.9,0-1.6-0.7-1.7-1.5l0,0h-1.3C44,1,43.2,1.6,42.4,1.6l0,0c-0.9,0-1.6-0.7-1.7-1.5l0,0h-1.3c-0.1,0.8-0.9,1.5-1.7,1.5l0,0
				c-0.9,0-1.6-0.7-1.7-1.5l0,0h-1.3c-0.1,0.8-0.9,1.5-1.7,1.5l0,0c-0.9,0-1.6-0.7-1.7-1.5l0,0h-1.3c-0.1,0.8-0.9,1.5-1.7,1.5l0,0
				c-0.9,0-1.6-0.7-1.7-1.5l0,0h-1.3c-0.1,0.8-0.9,1.5-1.7,1.5l0,0c-0.9,0-1.6-0.7-1.7-1.5l0,0H20c-0.1,0.8-0.9,1.5-1.7,1.5l0,0
				c-0.9,0-1.6-0.7-1.7-1.5l0,0h-1.3C15,1,14.3,1.6,13.4,1.6l0,0c-0.9,0-1.6-0.7-1.7-1.5l0,0h-1.3C10.2,1,9.5,1.6,8.6,1.6l0,0
				C7.7,1.6,7,1,6.8,0.1l0,0H5.5C5.4,1,4.6,1.6,3.8,1.6l0,0C2.9,1.6,2.1,1,2,0.1l0,0H1.2c-0.1,0.4-0.4,0.8-0.9,1l0,0v0.9
				c0.9,0.1,1.5,0.8,1.5,1.7l0,0c0,0.9-0.7,1.6-1.5,1.7l0,0v1.3C1.3,7,1.9,7.7,1.9,8.6l0,0c0,0.9-0.7,1.6-1.5,1.7l0,0v1.3
				c0.9,0.1,1.5,0.8,1.5,1.7l0,0c0,0.9-0.7,1.6-1.5,1.7l0,0v1.3c0.9,0.1,1.5,0.8,1.5,1.7l0,0c0,0.9-0.7,1.6-1.5,1.7l0,0v1.3
				c0.9,0.1,1.5,0.8,1.5,1.7l0,0c0,0.9-0.7,1.6-1.5,1.7l0,0v1.3c0.9,0.1,1.5,0.8,1.5,1.7l0,0c0,0.9-0.7,1.6-1.5,1.7l0,0V31
				c0.9,0.1,1.5,0.8,1.5,1.7l0,0c0,0.9-0.7,1.6-1.5,1.7l0,0v1.3c0.9,0.1,1.5,0.8,1.5,1.7l0,0c0,0.9-0.7,1.6-1.5,1.7l0,0v1.3
				c0.9,0.1,1.5,0.8,1.5,1.7l0,0c0,0.9-0.7,1.6-1.5,1.7l0,0v1.3c0.9,0.1,1.5,0.8,1.5,1.7l0,0c0,0.9-0.7,1.6-1.5,1.7l0,0v1.3
				c0.9,0.1,1.5,0.8,1.5,1.7l0,0c0,0.9-0.7,1.6-1.5,1.7l0,0v1.3c0.9,0.1,1.5,0.8,1.5,1.7l0,0c0,0.9-0.7,1.6-1.5,1.7l0,0V60
				c0.9,0.1,1.5,0.8,1.5,1.7l0,0c0,0.9-0.7,1.6-1.5,1.7l0,0v1.3c0.9,0.1,1.5,0.8,1.5,1.7l0,0c0,0.9-0.7,1.6-1.5,1.7l0,0v1.3
				c0.9,0.1,1.5,0.8,1.5,1.7l0,0c0,0.9-0.7,1.6-1.5,1.7l0,0v1.3c0.9,0.1,1.5,0.8,1.5,1.7l0,0c0,0.9-0.7,1.6-1.5,1.7l0,0v1.5
				c0.2,0.1,0.4,0.3,0.6,0.5l0,0h1c0.1-0.9,0.8-1.6,1.8-1.6l0,0c0.9,0,1.7,0.7,1.8,1.6l0,0h1.3c0.1-0.9,0.8-1.6,1.8-1.6l0,0
				c0.9,0,1.7,0.7,1.8,1.6l0,0h1.3c0.1-0.9,0.8-1.6,1.8-1.6l0,0c0.9,0,1.7,0.7,1.8,1.6l0,0h1.3c0.1-0.9,0.8-1.6,1.8-1.6l0,0
				c0.9,0,1.7,0.7,1.8,1.6l0,0h1.3c0.1-0.9,0.8-1.6,1.8-1.6l0,0c0.9,0,1.7,0.7,1.8,1.6l0,0h1.3c0.1-0.9,0.8-1.6,1.8-1.6l0,0
				c0.9,0,1.7,0.7,1.8,1.6l0,0H31c0.1-0.9,0.8-1.6,1.8-1.6l0,0c0.9,0,1.7,0.7,1.8,1.6l0,0h1.3c0.1-0.9,0.8-1.6,1.8-1.6l0,0
				c0.9,0,1.7,0.7,1.8,1.6l0,0h1.3c0.1-0.9,0.8-1.6,1.8-1.6l0,0c0.9,0,1.7,0.7,1.8,1.6l0,0h1.3c0.1-0.9,0.8-1.6,1.8-1.6l0,0
				c0.9,0,1.7,0.7,1.8,1.6l0,0h1.3c0.1-0.9,0.8-1.6,1.8-1.6l0,0c0.9,0,1.7,0.7,1.8,1.6l0,0h1.3c0.1-0.9,0.8-1.6,1.8-1.6l0,0
				c0.9,0,1.7,0.7,1.8,1.6l0,0h1.3c0.1-0.9,0.8-1.6,1.8-1.6l0,0c0.9,0,1.7,0.7,1.8,1.6l0,0H64.8L64.8,79.9z"/>
			<path fill="#FFFFFF" d="M64.2,76.2c0-0.9,0.7-1.6,1.5-1.7V73c-0.9-0.1-1.5-0.8-1.5-1.7c0-0.9,0.7-1.6,1.5-1.7v-1.5
				c-0.9-0.1-1.5-0.8-1.5-1.7c0-0.9,0.7-1.6,1.5-1.7v-1.5c-0.9-0.1-1.5-0.8-1.5-1.7c0-0.9,0.7-1.6,1.5-1.7v-1.5
				c-0.9-0.1-1.5-0.8-1.5-1.7c0-0.9,0.7-1.6,1.5-1.7v-1.5c-0.9-0.1-1.5-0.8-1.5-1.7c0-0.9,0.7-1.6,1.5-1.7v-1.5
				c-0.9-0.1-1.5-0.8-1.5-1.7c0-0.9,0.7-1.6,1.5-1.7v-1.5c-0.9-0.1-1.5-0.8-1.5-1.7c0-0.9,0.7-1.6,1.5-1.7v-1.5
				c-0.9-0.1-1.5-0.8-1.5-1.7s0.7-1.6,1.5-1.7v-1.5c-0.9-0.1-1.5-0.8-1.5-1.7c0-0.9,0.7-1.6,1.5-1.7v-1.5c-0.9-0.1-1.5-0.8-1.5-1.7
				c0-0.9,0.7-1.6,1.5-1.7v-1.5c-0.9-0.1-1.5-0.8-1.5-1.7c0-0.9,0.7-1.6,1.5-1.7V20c-0.9-0.1-1.5-0.8-1.5-1.7c0-0.9,0.7-1.6,1.5-1.7
				v-1.5c-0.9-0.1-1.5-0.8-1.5-1.7c0-0.9,0.7-1.6,1.5-1.7v-1.5c-0.9-0.1-1.5-0.8-1.5-1.7c0-0.9,0.7-1.6,1.5-1.7V5.5
				c-0.9-0.1-1.5-0.8-1.5-1.7c0-0.9,0.7-1.6,1.5-1.7v-1c-0.5-0.2-1-0.6-1.1-1.1h-1.2c-0.1,0.8-0.8,1.5-1.7,1.5
				c-0.9,0-1.6-0.7-1.7-1.5h-1.5c-0.1,0.8-0.8,1.5-1.7,1.5c-0.9,0-1.6-0.7-1.7-1.5h-1.5c-0.1,0.8-0.8,1.5-1.7,1.5
				c-0.9,0-1.6-0.7-1.7-1.5h-1.5c-0.1,0.8-0.8,1.5-1.7,1.5c-0.9,0-1.6-0.7-1.7-1.5H44c-0.1,0.8-0.8,1.5-1.7,1.5
				c-0.9,0-1.6-0.7-1.7-1.5h-1.5c-0.1,0.8-0.8,1.5-1.7,1.5c-0.9,0-1.6-0.7-1.7-1.5h-1.5c-0.1,0.8-0.8,1.5-1.7,1.5
				c-0.9,0-1.6-0.7-1.7-1.5h-1.5c-0.1,0.8-0.8,1.5-1.7,1.5c-0.9,0-1.6-0.7-1.7-1.5h-1.5c-0.1,0.8-0.8,1.5-1.7,1.5S21.5,0.9,21.4,0
				h-1.5c-0.1,0.8-0.8,1.5-1.7,1.5c-0.9,0-1.6-0.7-1.7-1.5h-1.5c-0.1,0.8-0.8,1.5-1.7,1.5c-0.9,0-1.6-0.7-1.7-1.5h-1.5
				c-0.1,0.8-0.8,1.5-1.7,1.5C7.7,1.5,7,0.9,6.9,0H5.4C5.3,0.9,4.6,1.5,3.8,1.5C2.9,1.5,2.2,0.9,2.1,0H1.2c-0.1,0.4-0.5,0.8-0.9,1
				v1.1c0.9,0.1,1.5,0.8,1.5,1.7c0,0.9-0.7,1.6-1.5,1.7V7C1.2,7,1.8,7.8,1.8,8.6s-0.7,1.6-1.5,1.7v1.5c0.9,0.1,1.5,0.8,1.5,1.7
				c0,0.9-0.7,1.6-1.5,1.7v1.5c0.9,0.1,1.5,0.8,1.5,1.7c0,0.9-0.7,1.6-1.5,1.7v1.5c0.9,0.1,1.5,0.8,1.5,1.7s-0.7,1.6-1.5,1.7v1.5
				c0.9,0.1,1.5,0.8,1.5,1.7c0,0.9-0.7,1.6-1.5,1.7v1.5c0.9,0.1,1.5,0.8,1.5,1.7c0,0.9-0.7,1.6-1.5,1.7v1.5c0.9,0.1,1.5,0.8,1.5,1.7
				c0,0.9-0.7,1.6-1.5,1.7v1.5c0.9,0.1,1.5,0.8,1.5,1.7c0,0.9-0.7,1.6-1.5,1.7v1.5c0.9,0.1,1.5,0.8,1.5,1.7c0,0.9-0.7,1.6-1.5,1.7
				v1.5c0.9,0.1,1.5,0.8,1.5,1.7c0,0.9-0.7,1.6-1.5,1.7v1.5c0.9,0.1,1.5,0.8,1.5,1.7c0,0.9-0.7,1.6-1.5,1.7v1.5
				c0.9,0.1,1.5,0.8,1.5,1.7c0,0.9-0.7,1.6-1.5,1.7v1.5c0.9,0.1,1.5,0.8,1.5,1.7c0,0.9-0.7,1.6-1.5,1.7v1.5c0.9,0.1,1.5,0.8,1.5,1.7
				c0,0.9-0.7,1.6-1.5,1.7v1.5c0.9,0.1,1.5,0.8,1.5,1.7c0,0.9-0.7,1.6-1.5,1.7v1.6c0.3,0.1,0.5,0.3,0.6,0.5h1.1
				c0-0.9,0.8-1.6,1.7-1.6c0.9,0,1.6,0.7,1.7,1.6h1.5c0-0.9,0.8-1.6,1.7-1.6s1.6,0.7,1.7,1.6h1.5c0-0.9,0.8-1.6,1.7-1.6
				c0.9,0,1.6,0.7,1.7,1.6h1.5c0-0.9,0.8-1.6,1.7-1.6s1.6,0.7,1.7,1.6h1.5c0-0.9,0.8-1.6,1.7-1.6s1.6,0.7,1.7,1.6h1.5
				c0-0.9,0.8-1.6,1.7-1.6c0.9,0,1.6,0.7,1.7,1.6H31c0-0.9,0.8-1.6,1.7-1.6c0.9,0,1.6,0.7,1.7,1.6h1.5c0-0.9,0.8-1.6,1.7-1.6
				s1.6,0.7,1.7,1.6h1.5c0-0.9,0.8-1.6,1.7-1.6S44,79.1,44,80h1.5c0-0.9,0.8-1.6,1.7-1.6c0.9,0,1.6,0.7,1.7,1.6h1.5
				c0-0.9,0.8-1.6,1.7-1.6c0.9,0,1.6,0.7,1.7,1.6h1.5c0-0.9,0.8-1.6,1.7-1.6c0.9,0,1.6,0.7,1.7,1.6H60c0-0.9,0.8-1.6,1.7-1.6
				c0.9,0,1.6,0.7,1.7,1.6h1.5c0.2-0.3,0.5-0.5,0.9-0.6v-1.5C64.8,77.8,64.2,77.1,64.2,76.2z"/>
		</g>
		<linearGradient id="SVGID_1_" gradientUnits="userSpaceOnUse" x1="33" y1="3.8128" x2="33" y2="76.2067">
			<stop  offset="0" style="stop-color:#9B34F5"/>
			<stop  offset="1" style="stop-color:#691DAE"/>
		</linearGradient>
		<polygon fill="url(#SVGID_1_)" points="61.5,76.2 4.5,76.2 4.5,3.8 61.5,3.8 61.5,76.2 		"/>
	</g>
	<g>
		<path fill="#FFFFFF" d="M30.1,70.5l0.1,0.3h0l0.1-0.3l1.2-3.4h0.4l-1.5,4.1H30L28.4,67h0.4L30.1,70.5z"/>
		<path fill="#FFFFFF" d="M33.5,71.2h-0.3V67h0.3V71.2z"/>
		<path fill="#FFFFFF" d="M35.6,69.4v1.7h-0.3V67h1.4c0.4,0,0.8,0.1,1,0.3c0.2,0.2,0.4,0.5,0.4,0.9c0,0.4-0.1,0.7-0.4,0.9
			c-0.2,0.2-0.6,0.3-1,0.3H35.6z M35.6,69.1h1.1c0.3,0,0.6-0.1,0.8-0.3c0.2-0.2,0.3-0.4,0.3-0.7c0-0.3-0.1-0.5-0.3-0.7
			c-0.2-0.2-0.4-0.3-0.8-0.3h-1.1V69.1z"/>
	</g>
	<g>
		<g id="Rounded_Rectangle_1_6_">
			<g>
				<path fill="#FFFFFF" d="M35.4,61.8h-4.1c-0.9,0-1.7-0.8-1.7-1.7V56c0-0.9,0.8-1.7,1.7-1.7h4.1c0.9,0,1.7,0.8,1.7,1.7v4.1
					C37.1,61,36.4,61.8,35.4,61.8z M31.4,54.3c-0.9,0-1.7,0.8-1.7,1.7v4.1c0,0.9,0.7,1.7,1.7,1.7h4.1c0.9,0,1.7-0.7,1.7-1.7V56
					c0-0.9-0.8-1.7-1.7-1.7H31.4z"/>
			</g>
			<g>
				<path fill="#FFFFFF" d="M35.4,54.4c0.9,0,1.6,0.7,1.6,1.6v4.1c0,0.9-0.7,1.6-1.6,1.6h-4.1c-0.9,0-1.6-0.7-1.6-1.6V56
					c0-0.9,0.7-1.6,1.6-1.6H35.4 M35.4,54.2h-4.1c-1,0-1.8,0.8-1.8,1.8v4.1c0,1,0.8,1.8,1.8,1.8h4.1c1,0,1.8-0.8,1.8-1.8V56
					C37.2,55,36.4,54.2,35.4,54.2L35.4,54.2z"/>
			</g>
		</g>
		<path fill="#FFFFFF" d="M30.5,51.4c0.1,0.2,0.1,0.4,0.2,0.6c-0.3,0.1-0.5,0.2-0.7-0.2c-1.4-2.6-2.9-5.2-4.2-7.8
			c-1.2-2.5-2.4-5.1-3.4-7.6c0,0,0-0.1,0-0.1h3.8c0.7,3,1.5,5.8,2.3,8.7C29.1,47.1,29.8,49.2,30.5,51.4z"/>
		<path fill="#FFFFFF" d="M19.7,27.8h4.9c-0.1-0.6-0.2-1.2-0.3-1.8c-0.4-2.8-0.5-5.7,0-8.5c0.3-1.9,0.9-3.7,2-5.3
			c0.5-0.7,1.1-1.3,1.7-2c0,0,0,0,0-0.1c-0.8,0.3-1.7,0.6-2.5,1c-2.9,1.4-4.8,3.7-5.7,6.8c-0.7,2.4-0.8,4.8-0.5,7.2
			C19.4,26,19.5,27,19.7,27.8z"/>
		<path fill="#FFFFFF" d="M40.8,36.2c-0.4,1.8-0.8,3.4-1.3,5.1c-0.8,2.7-1.6,5.3-2.4,7.9c-0.3,0.9-0.6,1.8-0.9,2.7
			c0.5,0.1,0.5,0.1,0.7-0.3c0.1-0.2,0.3-0.5,0.4-0.7c1.3-2.3,2.5-4.7,3.8-7c1.3-2.5,2.5-5,3.5-7.8H40.8z"/>
		<path fill="#FFFFFF" d="M38.9,10.4c1.2,1,2.1,2.3,2.7,3.8c0.8,2,1.2,4.2,1.2,6.3c0.1,2.4-0.2,4.8-0.5,7.2h4.8
			c0.2-1.2,0.4-2.3,0.5-3.5c0.2-2.5,0-4.9-0.9-7.3c-0.5-1.2-1.2-2.4-2.1-3.3c-1-1.1-2.2-2-3.6-2.7c-0.8-0.3-1.5-0.6-2.4-0.9
			c0,0.1,0,0.1,0,0.2C38.8,10.3,38.9,10.3,38.9,10.4z"/>
		<path fill="#FFFFFF" d="M18.6,37.8c-0.3-0.5-0.5-1-0.8-1.6h-0.9c1.4,2.6,3,4.9,4.7,7.3c0.4,0.6,0.9,1.1,1.3,1.7
			c-0.1-0.2-0.2-0.4-0.3-0.6C21.3,42.3,19.8,40.1,18.6,37.8z"/>
		<path fill="#FFFFFF" d="M13.4,27.8h1.4c-0.4-1.9-0.6-3.8-0.5-5.8c0.2-2.3,0.9-4.5,2.1-6.5c0.3-0.5,0.6-0.9,1-1.4
			c-1.2,0.9-2.5,2.4-3.2,3.8c-1.4,2.8-1.6,5.8-1,8.9C13.2,27.2,13.3,27.4,13.4,27.8z"/>
		<path fill="#FFFFFF" d="M47.4,39.4c-0.8,1.4-1.6,2.7-2.4,4c-0.3,0.6-0.7,1.1-1.1,1.7c0,0,0.1,0,0.1,0.1c0,0,0-0.1,0.1-0.1
			c0.9-1.2,1.8-2.5,2.7-3.7c1.1-1.7,2.1-3.3,3.1-5.1h-0.8C48.5,37.3,48,38.3,47.4,39.4z"/>
		<path fill="#FFFFFF" d="M51.4,17.1c1.2,2.6,1.5,5.4,1.2,8.2c-0.1,0.8-0.2,1.6-0.4,2.5h1.3c0.6-2.5,0.8-5,0.1-7.5
			c-0.7-2.5-2.1-4.6-4.1-6.2c0.1,0.1,0.2,0.2,0.2,0.3C50.3,15.3,50.9,16.2,51.4,17.1z"/>
		<path fill="#FFFFFF" d="M32.2,42.3c0.2,2.2,0.5,4.5,0.7,6.7c0.1,1,0.2,1.9,0.4,2.9c0,0.1,0.1,0.2,0.2,0.2c0.1-0.1,0.2-0.2,0.2-0.3
			c0.1-0.3,0.1-0.6,0.1-0.9c0.3-2.7,0.6-5.3,0.9-8c0.2-2.2,0.4-4.5,0.6-6.8h-3.7C31.7,38.2,32,40.3,32.2,42.3z"/>
		<path fill="#FFFFFF" d="M30.9,27.8h2.5h2.5c0-0.4,0.1-1,0.1-1.5c0.2-3.4,0.4-6.8,0.1-10.2c-0.1-1.5-0.4-3-1-4.4
			c-0.3-0.6-0.7-1.1-1.1-1.6c-0.2-0.2-0.4-0.3-0.6-0.3c-0.3,0-0.4,0.1-0.6,0.3c-0.5,0.5-0.9,1-1.1,1.6c-0.6,1.4-0.9,2.9-1,4.4
			c-0.3,3.4-0.1,6.8,0.1,10.2C30.8,26.8,30.9,27.4,30.9,27.8z"/>
		<path fill="#FFFFFF" d="M35.1,57.3c-0.4-1.2-1.2-1.6-2.4-1.2l-1.3,0.4l1.2,3.7l1.3-0.4C35.2,59.4,35.5,58.5,35.1,57.3z M33.9,59.4
			L33,59.7l-0.9-2.9l0.8-0.3c0.9-0.3,1.4,0.1,1.7,1C35.1,58.9,34.2,59.3,33.9,59.4z"/>
		<g>
			<g>
				<polygon fill="#FFFFFF" points="11.7,29.4 11.7,34.7 12.3,34.7 12.3,30.3 12.4,30.3 14,34.7 14.6,34.7 16.3,30.3 16.3,30.3 
					16.3,34.7 16.9,34.7 16.9,29.4 16,29.4 14.3,33.8 12.7,29.4 				"/>
			</g>
			<g>
				<polygon fill="#FFFFFF" points="20.3,32.5 22.3,29.4 21.5,29.4 20,31.9 18.4,29.4 17.5,29.4 19.6,32.5 19.6,34.7 20.3,34.7 				
					"/>
			</g>
			<path fill="#FFFFFF" d="M28.6,30c-0.4-0.4-1.1-0.6-1.9-0.6H25v5.3h1.8c0.4,0,0.8-0.1,1.1-0.2c0.3-0.1,0.6-0.3,0.8-0.5
				c0.2-0.2,0.4-0.5,0.5-0.9c0.1-0.3,0.1-0.7,0.1-1.2C29.3,31.1,29.1,30.5,28.6,30z M28.5,32.8c-0.1,0.2-0.2,0.4-0.3,0.6
				c-0.1,0.2-0.2,0.3-0.4,0.4c-0.1,0.1-0.3,0.2-0.4,0.2c-0.1,0-0.3,0.1-0.4,0.1c-0.1,0-0.2,0-0.3,0h-1.2V30h1.2c0.3,0,0.6,0,0.8,0.1
				c0.2,0.1,0.4,0.2,0.5,0.4c0.1,0.2,0.2,0.4,0.3,0.6c0.1,0.2,0.1,0.5,0.1,0.8C28.6,32.3,28.5,32.6,28.5,32.8z"/>
			<path fill="#FFFFFF" d="M34.2,34.4c0-0.1-0.1-0.2-0.1-0.4c0-0.1,0-0.3,0-0.4c0-0.1,0-0.3,0-0.4c0-0.1,0-0.3-0.1-0.4
				c0-0.1-0.1-0.2-0.1-0.3c-0.1-0.1-0.1-0.2-0.2-0.2c-0.1-0.1-0.2-0.1-0.4-0.1v0c0.3-0.1,0.6-0.3,0.7-0.5c0.1-0.2,0.2-0.5,0.2-0.8
				c0-0.4-0.1-0.8-0.4-1c-0.3-0.2-0.7-0.4-1.2-0.4h-2.5v5.3h0.8v-2.3h1.7c0.2,0,0.3,0,0.4,0.1c0.1,0.1,0.2,0.1,0.3,0.2
				c0.1,0.1,0.1,0.2,0.1,0.3c0,0.1,0.1,0.2,0.1,0.4c0,0.1,0,0.3,0,0.4c0,0.1,0,0.3,0,0.4c0,0.1,0,0.2,0,0.3c0,0.1,0.1,0.2,0.1,0.2
				h0.8C34.3,34.6,34.3,34.5,34.2,34.4z M33.1,31.7c-0.1,0.1-0.2,0.1-0.4,0.1c-0.1,0-0.3,0-0.5,0h-1.4V30h1.7c0.3,0,0.6,0.1,0.7,0.2
				c0.1,0.2,0.2,0.4,0.2,0.6c0,0.2,0,0.3-0.1,0.5C33.3,31.5,33.2,31.6,33.1,31.7z"/>
			<g>
				<polygon fill="#FFFFFF" points="35.2,29.4 35.2,34.7 38.9,34.7 38.9,34.1 35.8,34.1 35.8,32.3 38.6,32.3 38.6,31.7 35.8,31.7 
					35.8,30 38.8,30 38.8,29.4 				"/>
			</g>
			<path fill="#FFFFFF" d="M41.9,29.4h-0.8l-2.1,5.3h0.7l0.6-1.6h2.2l0.6,1.6h0.8L41.9,29.4z M40.6,32.5l0.9-2.5h0l0.9,2.5H40.6z"/>
			<g>
				<polygon fill="#FFFFFF" points="44.5,29.4 44.5,34.7 45.1,34.7 45.1,30.3 45.2,30.3 46.8,34.7 47.4,34.7 49,30.3 49.1,30.3 
					49.1,34.7 49.8,34.7 49.8,29.4 48.8,29.4 47.1,33.8 45.4,29.4 				"/>
			</g>
			<g>
				<path fill="#FFFFFF" d="M53.9,30.9h0.7c0-0.3-0.1-0.5-0.2-0.7c-0.1-0.2-0.2-0.4-0.4-0.5c-0.2-0.1-0.4-0.2-0.6-0.3
					c-0.2-0.1-0.5-0.1-0.8-0.1c-0.2,0-0.5,0-0.7,0.1c-0.2,0.1-0.4,0.2-0.6,0.3c-0.2,0.1-0.3,0.3-0.4,0.5c-0.1,0.2-0.2,0.4-0.2,0.7
					c0,0.2,0,0.4,0.1,0.6c0.1,0.2,0.2,0.3,0.4,0.4c0.2,0.1,0.3,0.2,0.5,0.2c0.2,0.1,0.4,0.1,0.6,0.2c0.2,0,0.4,0.1,0.6,0.1
					c0.2,0,0.4,0.1,0.5,0.2c0.2,0.1,0.3,0.2,0.4,0.3c0.1,0.1,0.1,0.3,0.1,0.4c0,0.2,0,0.3-0.1,0.5c-0.1,0.1-0.2,0.2-0.3,0.3
					c-0.1,0.1-0.3,0.1-0.4,0.2c-0.2,0-0.3,0-0.5,0c-0.2,0-0.4,0-0.6-0.1c-0.2,0-0.4-0.1-0.5-0.2c-0.1-0.1-0.3-0.2-0.3-0.4
					c-0.1-0.2-0.1-0.3-0.1-0.6h-0.7c0,0.3,0.1,0.6,0.2,0.8c0.1,0.2,0.3,0.4,0.5,0.6c0.2,0.1,0.4,0.3,0.7,0.3
					c0.3,0.1,0.5,0.1,0.8,0.1c0.2,0,0.5,0,0.7-0.1c0.2-0.1,0.5-0.1,0.7-0.3c0.2-0.1,0.4-0.3,0.5-0.5c0.1-0.2,0.2-0.4,0.2-0.7
					c0-0.3,0-0.5-0.1-0.6c-0.1-0.2-0.2-0.3-0.4-0.4c-0.2-0.1-0.3-0.2-0.5-0.3c-0.2-0.1-0.4-0.1-0.6-0.2c-0.2,0-0.4-0.1-0.6-0.1
					c-0.2,0-0.4-0.1-0.5-0.2c-0.2-0.1-0.3-0.1-0.4-0.2c-0.1-0.1-0.1-0.2-0.1-0.4c0-0.2,0-0.3,0.1-0.4c0.1-0.1,0.2-0.2,0.3-0.3
					c0.1-0.1,0.2-0.1,0.4-0.1c0.1,0,0.3,0,0.4,0c0.4,0,0.7,0.1,0.9,0.2C53.8,30.3,53.9,30.5,53.9,30.9z"/>
			</g>
		</g>
		<path fill="#FFFFFF" d="M55.9,28.8c-0.4,0-0.6-0.3-0.6-0.6c0-0.4,0.3-0.6,0.6-0.6c0.4,0,0.6,0.3,0.6,0.6
			C56.5,28.6,56.3,28.8,55.9,28.8z M55.9,27.6c-0.3,0-0.6,0.3-0.6,0.6c0,0.3,0.3,0.6,0.6,0.6s0.6-0.3,0.6-0.6
			C56.5,27.9,56.2,27.6,55.9,27.6z"/>
		<path fill="#FFFFFF" d="M56.2,28.5C56.2,28.5,56.2,28.5,56.2,28.5C56.2,28.4,56.2,28.4,56.2,28.5c0-0.1,0-0.1,0-0.1c0,0,0,0,0,0
			c0,0,0,0,0,0c0,0,0,0,0,0c0,0,0,0,0,0v0c0,0,0.1,0,0.1-0.1c0,0,0-0.1,0-0.1c0-0.1,0-0.1-0.1-0.1c0,0-0.1,0-0.1,0h-0.3v0.6h0.1
			v-0.3H56c0,0,0,0,0.1,0c0,0,0,0,0,0c0,0,0,0,0,0c0,0,0,0,0,0C56.1,28.4,56.1,28.4,56.2,28.5C56.1,28.4,56.1,28.4,56.2,28.5
			C56.1,28.5,56.1,28.5,56.2,28.5C56.1,28.5,56.1,28.5,56.2,28.5L56.2,28.5C56.2,28.5,56.2,28.5,56.2,28.5z M56,28.2
			C56,28.2,56,28.2,56,28.2c-0.1,0-0.1,0-0.1,0h-0.2v-0.2H56c0,0,0.1,0,0.1,0S56.1,28,56,28.2C56.1,28.1,56.1,28.1,56,28.2
			C56.1,28.1,56,28.1,56,28.2z"/>
	</g>
</g>
</svg>
