<svg xmlns="http://www.w3.org/2000/svg" width="104" height="135" preserveAspectRatio="none" viewBox="0 0 816.12 997.95"><path fill="#fff" d="M796.97 950.78a20.92 20.92 0 0 1 19.15-20.81v-18.58a20.92 20.92 0 0 1 0-41.69v-18.56a20.92 20.92 0 0 1 0-41.69V790.9a20.92 20.92 0 0 1 0-41.69v-18.55a20.92 20.92 0 0 1 0-41.69v-18.55a20.92 20.92 0 0 1 0-41.69v-18.55a20.92 20.92 0 0 1 0-41.69v-18.52a20.92 20.92 0 0 1 0-41.69v-18.59a20.92 20.92 0 0 1 0-41.69v-18.55a20.92 20.92 0 0 1 0-41.69v-18.55a20.92 20.92 0 0 1 0-41.69v-18.55a20.92 20.92 0 0 1 0-41.69v-18.56a20.92 20.92 0 0 1 0-41.69v-18.55a20.92 20.92 0 0 1 0-41.69v-18.55a20.92 20.92 0 0 1 0-41.69V67.97a20.92 20.92 0 0 1 0-41.69V14.12A21 21 0 0 1 802.04-.03h-15.27a20.93 20.93 0 0 1-20.8 18.74A20.94 20.94 0 0 1 745.15-.03h-18.62a20.93 20.93 0 0 1-20.81 18.71A20.94 20.94 0 0 1 684.91-.03H666.3a20.93 20.93 0 0 1-20.81 18.71A20.93 20.93 0 0 1 624.67-.03h-18.62a20.93 20.93 0 0 1-20.81 18.71A20.94 20.94 0 0 1 564.43-.03h-18.62a20.94 20.94 0 0 1-20.84 18.74A20.93 20.93 0 0 1 504.19-.03h-18.62a20.93 20.93 0 0 1-20.81 18.71A20.94 20.94 0 0 1 443.97-.03h-18.64a20.93 20.93 0 0 1-20.81 18.71A20.93 20.93 0 0 1 383.71-.03h-18.62a20.93 20.93 0 0 1-20.81 18.71A20.94 20.94 0 0 1 323.47-.03h-18.62a20.93 20.93 0 0 1-20.81 18.71A20.93 20.93 0 0 1 263.23-.03h-18.62a20.93 20.93 0 0 1-20.81 18.71A20.94 20.94 0 0 1 202.97-.03h-18.6a20.94 20.94 0 0 1-20.81 18.71A20.93 20.93 0 0 1 142.75-.03h-18.62a20.93 20.93 0 0 1-20.81 18.71A20.94 20.94 0 0 1 82.51-.03H63.89a20.93 20.93 0 0 1-20.81 18.74A20.93 20.93 0 0 1 22.27-.03h-11.3a21 21 0 0 1-11 12.93v13.41a20.92 20.92 0 0 1 19.22 20.84A20.93 20.93 0 0 1-.03 67.97v18.58a20.93 20.93 0 0 1 19.18 20.85A20.92 20.92 0 0 1-.03 128.24v18.55a20.92 20.92 0 0 1 19.18 20.84A20.93 20.93 0 0 1-.03 188.49v18.55a20.93 20.93 0 0 1 19.18 20.85A20.92 20.92 0 0 1-.03 248.73v18.55a20.92 20.92 0 0 1 19.18 20.84A20.93 20.93 0 0 1-.03 308.97v18.55a20.93 20.93 0 0 1 19.22 20.85A20.92 20.92 0 0 1-.03 369.21v18.56a20.92 20.92 0 0 1 19.18 20.84A20.93 20.93 0 0 1-.03 429.46v18.51a20.93 20.93 0 0 1 19.18 20.85A20.92 20.92 0 0 1-.03 489.7v18.55a20.92 20.92 0 0 1 19.18 20.84A20.93 20.93 0 0 1-.03 549.97v18.55a20.93 20.93 0 0 1 19.18 20.85A20.92 20.92 0 0 1-.03 610.18v18.55a20.92 20.92 0 0 1 19.18 20.84A20.92 20.92 0 0 1-.03 670.43v18.54a20.93 20.93 0 0 1 19.18 20.85A20.92 20.92 0 0 1-.03 730.67v18.55a20.92 20.92 0 0 1 19.18 20.84A20.92 20.92 0 0 1-.03 790.91v18.55a20.92 20.92 0 0 1 19.18 20.84A20.92 20.92 0 0 1-.03 851.15v18.55a20.92 20.92 0 0 1 19.18 20.84A20.92 20.92 0 0 1-.03 911.39v18.58a20.92 20.92 0 0 1 19.18 20.84A20.92 20.92 0 0 1-.03 971.63v19.71a21 21 0 0 1 7.92 6.63h14.3a20.91 20.91 0 0 1 41.78 0h18.46a20.91 20.91 0 0 1 41.78 0h18.46a20.91 20.91 0 0 1 41.78 0h18.46a20.9 20.9 0 0 1 41.77 0h18.47a20.91 20.91 0 0 1 41.82 0h18.46a20.9 20.9 0 0 1 41.77 0h18.47a20.91 20.91 0 0 1 41.77 0h18.43a20.91 20.91 0 0 1 41.77 0h18.47a20.91 20.91 0 0 1 41.77 0h18.47a20.91 20.91 0 0 1 41.77 0h18.47a20.9 20.9 0 0 1 41.77 0h18.46a20.9 20.9 0 0 1 41.77 0h18.48a20.9 20.9 0 0 1 41.77 0h18.3a20.93 20.93 0 0 1 11-7.82v-18.5a20.94 20.94 0 0 1-19.17-20.87z"/></svg>
