<?xml version="1.0" encoding="utf-8"?>
<!-- Generator: Adobe Illustrator 18.0.0, SVG Export Plug-In . SVG Version: 6.00 Build 0)  -->
<!DOCTYPE svg PUBLIC "-//W3C//DTD SVG 1.1//EN" "http://www.w3.org/Graphics/SVG/1.1/DTD/svg11.dtd">
<svg version="1.1" id="Слой_1" xmlns="http://www.w3.org/2000/svg" xmlns:xlink="http://www.w3.org/1999/xlink" x="0px" y="0px"
	 viewBox="0 0 66 80" enable-background="new 0 0 66 80" xml:space="preserve">
<g>
	<g>
		<g>
			<g>
				<path fill="#FFFFFF" d="M53.2,79.4L53.2,79.4c0-0.9-0.7-1.6-1.6-1.6l0,0c-0.8,0-1.5,0.7-1.6,1.5l0,0l0,0.1h-1.6l0-0.1
					c0-0.8-0.7-1.5-1.6-1.5l0,0c-0.8,0-1.5,0.7-1.6,1.5l0,0l0,0.1h-1.6l0-0.1c0-0.8-0.7-1.5-1.6-1.5l0,0c-0.8,0-1.5,0.7-1.6,1.5l0,0
					l0,0.1h-1.6l0-0.1c0-0.8-0.7-1.5-1.6-1.5l0,0c-0.8,0-1.5,0.7-1.6,1.5l0,0l0,0.1h-1.6l0-0.1c0-0.8-0.7-1.5-1.6-1.5l0,0
					c-0.8,0-1.5,0.7-1.6,1.5l0,0l0,0.1h-1.6l0-0.1c0-0.8-0.7-1.5-1.6-1.5l0,0c-0.8,0-1.5,0.7-1.6,1.5l0,0l0,0.1h-1.6l0-0.1
					c0-0.8-0.7-1.5-1.6-1.5l0,0c-0.8,0-1.5,0.7-1.6,1.5l0,0l0,0.1h-1.6l0-0.1c0-0.8-0.7-1.5-1.6-1.5l0,0c-0.8,0-1.5,0.7-1.6,1.5l0,0
					l0,0.1h-1.6l0-0.1c0-0.8-0.7-1.5-1.6-1.5l0,0c-0.8,0-1.5,0.7-1.6,1.5l0,0l0,0.1h-1.6l0-0.1c0-0.8-0.7-1.5-1.6-1.5l0,0
					c-0.8,0-1.5,0.7-1.6,1.5l0,0l0,0.1H5.6l0-0.1c0-0.8-0.7-1.5-1.6-1.5l0,0c-0.8,0-1.5,0.7-1.6,1.5l0,0l0,0.1H1.3l0,0
					c-0.2-0.2-0.4-0.4-0.6-0.5l0,0l0,0v-1.7l0.1,0c0.8-0.1,1.4-0.7,1.4-1.6l0,0c0-0.8-0.6-1.5-1.4-1.6l0,0l-0.1,0v-1.6l0.1,0
					c0.8-0.1,1.4-0.7,1.4-1.6l0,0c0-0.8-0.6-1.5-1.4-1.6l0,0l-0.1,0v-1.6l0.1,0c0.8-0.1,1.4-0.7,1.4-1.6l0,0c0-0.8-0.6-1.5-1.4-1.6
					l0,0l-0.1,0v-1.6l0.1,0c0.8-0.1,1.4-0.7,1.4-1.6l0,0c0-0.8-0.6-1.5-1.4-1.6l0,0l-0.1,0v-1.6l0.1,0c0.8-0.1,1.4-0.7,1.4-1.6l0,0
					c0-0.8-0.6-1.5-1.4-1.6l0,0l-0.1,0v-1.6l0.1,0c0.8-0.1,1.4-0.7,1.4-1.6l0,0c0-0.8-0.6-1.5-1.4-1.6l0,0l-0.1,0v-1.6l0.1,0
					c0.8-0.1,1.4-0.7,1.4-1.6l0,0c0-0.8-0.6-1.5-1.4-1.6l0,0l-0.1,0v-1.6l0.1,0c0.8-0.1,1.4-0.7,1.4-1.6l0,0c0-0.8-0.6-1.5-1.4-1.6
					l0,0l-0.1,0v-1.6l0.1,0c0.8-0.1,1.4-0.7,1.4-1.6l0,0c0-0.8-0.6-1.5-1.4-1.6l0,0l-0.1,0v-1.6l0.1,0c0.8-0.1,1.4-0.7,1.4-1.6l0,0
					c0-0.8-0.6-1.5-1.4-1.6l0,0l-0.1,0v-1.6l0.1,0c0.8-0.1,1.4-0.7,1.4-1.6l0,0c0-0.8-0.6-1.5-1.4-1.6l0,0l-0.1,0v-1.6l0.1,0
					c0.8-0.1,1.4-0.7,1.4-1.6l0,0c0-0.8-0.6-1.5-1.4-1.6l0,0l-0.1,0v-1.6l0.1,0c0.8-0.1,1.4-0.7,1.4-1.6l0,0c0-0.8-0.6-1.5-1.4-1.6
					l0,0l-0.1,0v-1.6l0.1,0c0.8-0.1,1.4-0.7,1.4-1.6l0,0c0-0.8-0.6-1.5-1.4-1.6l0,0l-0.1,0v-1.6l0.1,0C1.5,10.5,2.1,9.8,2.1,9l0,0
					c0-0.8-0.6-1.5-1.4-1.6l0,0l-0.1,0V5.8l0.1,0C1.5,5.7,2.1,5,2.1,4.2l0,0c0-0.8-0.6-1.5-1.4-1.6l0,0l-0.1,0V1.5l0,0
					c0.4-0.2,0.7-0.5,0.8-1l0,0l0-0.1h1l0,0.1c0.1,0.8,0.8,1.4,1.6,1.4l0,0c0.8,0,1.5-0.6,1.6-1.4l0,0l0-0.1h1.6l0,0.1
					C7.4,1.3,8,1.9,8.8,1.9l0,0c0.8,0,1.5-0.6,1.6-1.4l0,0l0-0.1H12l0,0.1c0.1,0.8,0.8,1.4,1.6,1.4l0,0c0.8,0,1.5-0.6,1.6-1.4l0,0
					l0-0.1h1.6l0,0.1c0.1,0.8,0.8,1.4,1.6,1.4l0,0c0.8,0,1.5-0.6,1.6-1.4l0,0l0-0.1h1.6l0,0.1c0.1,0.8,0.8,1.4,1.6,1.4l0,0
					c0.8,0,1.5-0.6,1.6-1.4l0,0l0-0.1h1.6l0,0.1c0.1,0.8,0.8,1.4,1.6,1.4l0,0c0.8,0,1.5-0.6,1.6-1.4l0,0l0-0.1h1.6l0,0.1
					c0.1,0.8,0.8,1.4,1.6,1.4l0,0c0.8,0,1.5-0.6,1.6-1.4l0,0l0-0.1h1.6l0,0.1c0.1,0.8,0.8,1.4,1.6,1.4l0,0c0.8,0,1.5-0.6,1.6-1.4
					l0,0l0-0.1h1.6l0,0.1c0.1,0.8,0.8,1.4,1.6,1.4l0,0c0.8,0,1.5-0.6,1.6-1.4l0,0l0-0.1h1.6l0,0.1c0.1,0.8,0.8,1.4,1.6,1.4l0,0
					c0.8,0,1.5-0.6,1.6-1.4l0,0l0-0.1h1.6l0,0.1c0.1,0.8,0.8,1.4,1.6,1.4l0,0c0.8,0,1.5-0.6,1.6-1.4l0,0l0-0.1h1.6l0,0.1
					c0.1,0.8,0.8,1.4,1.6,1.4l0,0c0.8,0,1.5-0.6,1.6-1.4l0,0l0-0.1h1.6l0,0.1c0.1,0.8,0.8,1.4,1.6,1.4l0,0c0.8,0,1.5-0.6,1.6-1.4
					l0,0l0-0.1h1.3l0,0.1c0.1,0.5,0.6,0.9,1.1,1.1l0,0l0.1,0v1.1l-0.1,0c-0.8,0.1-1.4,0.7-1.4,1.6l0,0c0,0.8,0.6,1.5,1.4,1.6l0,0
					l0.1,0v1.6l-0.1,0c-0.8,0.1-1.4,0.7-1.4,1.6l0,0c0,0.8,0.6,1.5,1.4,1.6l0,0l0.1,0v1.6l-0.1,0c-0.8,0.1-1.4,0.7-1.4,1.6l0,0
					c0,0.8,0.6,1.5,1.4,1.6l0,0l0.1,0v1.6l-0.1,0c-0.8,0.1-1.4,0.7-1.4,1.6l0,0c0,0.8,0.6,1.5,1.4,1.6l0,0l0.1,0v1.6l-0.1,0
					c-0.8,0.1-1.4,0.7-1.4,1.6l0,0c0,0.8,0.6,1.5,1.4,1.6l0,0l0.1,0v1.6l-0.1,0c-0.8,0.1-1.4,0.7-1.4,1.6l0,0c0,0.8,0.6,1.5,1.4,1.6
					l0,0l0.1,0v1.6l-0.1,0c-0.8,0.1-1.4,0.7-1.4,1.6l0,0c0,0.8,0.6,1.5,1.4,1.6l0,0l0.1,0v1.6l-0.1,0c-0.8,0.1-1.4,0.7-1.4,1.6l0,0
					c0,0.8,0.6,1.5,1.4,1.6l0,0l0.1,0v1.6l-0.1,0c-0.8,0.1-1.4,0.7-1.4,1.6l0,0c0,0.8,0.6,1.5,1.4,1.6l0,0l0.1,0v1.6l-0.1,0
					c-0.8,0.1-1.4,0.7-1.4,1.6l0,0c0,0.8,0.6,1.5,1.4,1.6l0,0l0.1,0v1.6l-0.1,0c-0.8,0.1-1.4,0.7-1.4,1.6l0,0c0,0.8,0.6,1.5,1.4,1.6
					l0,0l0.1,0V55l-0.1,0c-0.8,0.1-1.4,0.7-1.4,1.6l0,0c0,0.8,0.6,1.5,1.4,1.6l0,0l0.1,0v1.6l-0.1,0c-0.8,0.1-1.4,0.7-1.4,1.6l0,0
					c0,0.8,0.6,1.5,1.4,1.6l0,0l0.1,0v1.6l-0.1,0c-0.8,0.1-1.4,0.7-1.4,1.6l0,0c0,0.8,0.6,1.5,1.4,1.6l0,0l0.1,0v1.6l-0.1,0
					c-0.8,0.1-1.4,0.7-1.4,1.6l0,0c0,0.8,0.6,1.5,1.4,1.6l0,0l0.1,0V74l-0.1,0c-0.8,0.1-1.4,0.7-1.4,1.6l0,0c0,0.8,0.6,1.5,1.4,1.6
					l0,0l0.1,0v1.6l-0.1,0c-0.3,0.1-0.6,0.3-0.8,0.6l0,0l0,0h-1.6l0-0.1c0-0.8-0.7-1.5-1.6-1.5l0,0c-0.8,0-1.5,0.7-1.6,1.5l0,0
					l0,0.1H58l0-0.1c0-0.8-0.7-1.5-1.6-1.5l0,0c-0.8,0-1.5,0.7-1.6,1.5l0,0l0,0.1H53.2L53.2,79.4z M64.2,79.2c0.2,0,0.5-0.5,0.8-0.6
					l0,0v-1.3c-0.8-0.1-1.5-0.8-1.5-1.7l0,0c0-0.9,0.7-1.6,1.5-1.7l0,0v-1.3c-0.8-0.1-1.5-0.8-1.5-1.7l0,0c0-0.9,0.7-1.6,1.5-1.7
					l0,0v-1.3c-0.8-0.1-1.5-0.8-1.5-1.7l0,0c0-0.9,0.7-1.6,1.5-1.7l0,0V63c-0.8-0.1-1.5-0.8-1.5-1.7l0,0c0-0.9,0.7-1.6,1.5-1.7l0,0
					v-1.3c-0.8-0.1-1.5-0.8-1.5-1.7l0,0c0-0.9,0.7-1.6,1.5-1.7l0,0v-1.3c-0.8-0.1-1.5-0.8-1.5-1.7l0,0c0-0.9,0.7-1.6,1.5-1.7l0,0
					v-1.3c-0.8-0.1-1.5-0.8-1.5-1.7l0,0c0-0.9,0.7-1.6,1.5-1.7l0,0V44c-0.8-0.1-1.5-0.8-1.5-1.7l0,0c0-0.9,0.7-1.6,1.5-1.7l0,0v-1.3
					c-0.8-0.1-1.5-0.8-1.5-1.7l0,0c0-0.9,0.7-1.6,1.5-1.7l0,0v-1.3c-0.8-0.1-1.5-0.8-1.5-1.7l0,0c0-0.9,0.7-1.6,1.5-1.7l0,0v-1.3
					c-0.8-0.1-1.5-0.8-1.5-1.7l0,0c0-0.9,0.7-1.6,1.5-1.7l0,0V25c-0.8-0.1-1.5-0.8-1.5-1.7l0,0c0-0.9,0.7-1.6,1.5-1.7l0,0v-1.3
					c-0.8-0.1-1.5-0.8-1.5-1.7l0,0c0-0.9,0.7-1.6,1.5-1.7l0,0v-1.3c-0.8-0.1-1.5-0.8-1.5-1.7l0,0c0-0.9,0.7-1.6,1.5-1.7l0,0v-1.3
					c-0.8-0.1-1.5-0.8-1.5-1.7l0,0c0-0.9,0.7-1.6,1.5-1.7l0,0V5.9c-0.8-0.1-1.5-0.8-1.5-1.7l0,0c0-0.9,0.7-1.6,1.5-1.7l0,0V1.7
					c-0.5-0.2-0.9-0.6-1.1-1.1l0,0h-1.1C62.8,1.4,62,2,61.2,2l0,0c-0.9,0-1.6-0.6-1.7-1.5l0,0h-1.3C58,1.4,57.3,2,56.4,2l0,0
					c-0.9,0-1.6-0.6-1.7-1.5l0,0h-1.3C53.2,1.4,52.5,2,51.6,2l0,0c-0.9,0-1.6-0.6-1.7-1.5l0,0h-1.3C48.5,1.4,47.8,2,46.9,2l0,0
					c-0.9,0-1.6-0.6-1.7-1.5l0,0h-1.3C43.7,1.4,43,2,42.1,2l0,0c-0.9,0-1.6-0.6-1.7-1.5l0,0h-1.3C39,1.4,38.2,2,37.4,2l0,0
					c-0.9,0-1.6-0.6-1.7-1.5l0,0h-1.3C34.2,1.4,33.5,2,32.6,2l0,0c-0.9,0-1.6-0.6-1.7-1.5l0,0h-1.3C29.5,1.4,28.7,2,27.9,2l0,0
					c-0.9,0-1.6-0.6-1.7-1.5l0,0h-1.3C24.7,1.4,24,2,23.1,2l0,0c-0.9,0-1.6-0.6-1.7-1.5l0,0h-1.3C19.9,1.4,19.2,2,18.3,2l0,0
					c-0.9,0-1.6-0.6-1.7-1.5l0,0h-1.3C15.2,1.4,14.5,2,13.6,2l0,0c-0.9,0-1.6-0.6-1.7-1.5l0,0h-1.3C10.4,1.4,9.7,2,8.8,2l0,0
					C8,2,7.2,1.4,7.1,0.6l0,0H5.8C5.7,1.4,4.9,2,4.1,2l0,0C3.2,2,2.5,1.4,2.4,0.6l0,0H1.6C1.5,1,1.2,1.4,0.7,1.6l0,0v0.9
					c0.9,0.1,1.5,0.8,1.5,1.7l0,0c0,0.9-0.6,1.6-1.5,1.7l0,0v1.3C1.6,7.4,2.3,8.1,2.3,9l0,0c0,0.9-0.6,1.6-1.5,1.7l0,0V12
					c0.9,0.1,1.5,0.8,1.5,1.7l0,0c0,0.9-0.6,1.6-1.5,1.7l0,0v1.3c0.9,0.1,1.5,0.8,1.5,1.7l0,0c0,0.9-0.6,1.6-1.5,1.7l0,0v1.3
					c0.9,0.1,1.5,0.8,1.5,1.7l0,0c0,0.9-0.6,1.6-1.5,1.7l0,0v1.3c0.9,0.1,1.5,0.8,1.5,1.7l0,0c0,0.9-0.6,1.6-1.5,1.7l0,0V31
					c0.9,0.1,1.5,0.8,1.5,1.7l0,0c0,0.9-0.6,1.6-1.5,1.7l0,0v1.3c0.9,0.1,1.5,0.8,1.5,1.7l0,0c0,0.9-0.6,1.6-1.5,1.7l0,0v1.3
					c0.9,0.1,1.5,0.8,1.5,1.7l0,0c0,0.9-0.6,1.6-1.5,1.7l0,0v1.3c0.9,0.1,1.5,0.8,1.5,1.7l0,0c0,0.9-0.6,1.6-1.5,1.7l0,0v1.3
					c0.9,0.1,1.5,0.8,1.5,1.7l0,0c0,0.9-0.6,1.6-1.5,1.7l0,0v1.3c0.9,0.1,1.5,0.8,1.5,1.7l0,0c0,0.9-0.6,1.6-1.5,1.7l0,0v1.3
					c0.9,0.1,1.5,0.8,1.5,1.7l0,0c0,0.9-0.6,1.6-1.5,1.7l0,0v1.3c0.9,0.1,1.5,0.8,1.5,1.7l0,0c0,0.9-0.6,1.6-1.5,1.7l0,0v1.3
					c0.9,0.1,1.5,0.8,1.5,1.7l0,0c0,0.9-0.6,1.6-1.5,1.7l0,0v1.3c0.9,0.1,1.5,0.8,1.5,1.7l0,0c0,0.9-0.6,1.6-1.5,1.7l0,0v1.4
					C1,78.8,1.2,79,1.3,79.2l0,0h1c0.1-0.9,0.8-1.6,1.7-1.6l0,0c0.9,0,1.6,0.7,1.7,1.6l0,0h1.3c0.1-0.9,0.8-1.6,1.7-1.6l0,0
					c0.9,0,1.6,0.7,1.7,1.6l0,0h1.3c0.1-0.9,0.8-1.6,1.7-1.6l0,0c0.9,0,1.6,0.7,1.7,1.6l0,0h1.3c0.1-0.9,0.8-1.6,1.7-1.6l0,0
					c0.9,0,1.6,0.7,1.7,1.6l0,0h1.3c0.1-0.9,0.8-1.6,1.7-1.6l0,0c0.9,0,1.6,0.7,1.7,1.6l0,0h1.3c0.1-0.9,0.8-1.6,1.7-1.6l0,0
					c0.9,0,1.6,0.7,1.7,1.6l0,0h1.3c0.1-0.9,0.8-1.6,1.7-1.6l0,0c0.9,0,1.6,0.7,1.7,1.6l0,0h1.3c0.1-0.9,0.8-1.6,1.7-1.6l0,0
					c0.9,0,1.6,0.7,1.7,1.6l0,0h1.3c0.1-0.9,0.8-1.6,1.7-1.6l0,0c0.9,0,1.6,0.7,1.7,1.6l0,0h1.3c0.1-0.9,0.8-1.6,1.7-1.6l0,0
					c0.9,0,1.6,0.7,1.7,1.6l0,0h1.3c0.1-0.9,0.8-1.6,1.7-1.6l0,0c0.9,0,1.6,0.7,1.7,1.6l0,0h1.3c0.1-0.9,0.8-1.6,1.7-1.6l0,0
					c0.9,0,1.6,0.7,1.7,1.6l0,0h1.3c0.1-0.9,0.8-1.6,1.7-1.6l0,0c0.9,0,1.6,0.7,1.7,1.6l0,0H64.2L64.2,79.2z"/>
				<path fill="#FFFFFF" d="M63.6,75.6c0-0.9,0.7-1.6,1.5-1.6v-1.5c-0.8-0.1-1.5-0.8-1.5-1.6c0-0.9,0.7-1.6,1.5-1.6v-1.5
					c-0.8-0.1-1.5-0.8-1.5-1.6c0-0.9,0.7-1.6,1.5-1.6v-1.5c-0.8-0.1-1.5-0.8-1.5-1.6c0-0.9,0.7-1.6,1.5-1.6v-1.5
					c-0.8-0.1-1.5-0.8-1.5-1.6c0-0.9,0.7-1.6,1.5-1.6v-1.5c-0.8-0.1-1.5-0.8-1.5-1.6c0-0.9,0.7-1.6,1.5-1.6v-1.5
					c-0.8-0.1-1.5-0.8-1.5-1.6c0-0.9,0.7-1.6,1.5-1.6v-1.5c-0.8-0.1-1.5-0.8-1.5-1.6c0-0.9,0.7-1.6,1.5-1.6v-1.5
					c-0.8-0.1-1.5-0.8-1.5-1.6s0.7-1.6,1.5-1.6v-1.5c-0.8-0.1-1.5-0.8-1.5-1.6c0-0.9,0.7-1.6,1.5-1.6v-1.5c-0.8-0.1-1.5-0.8-1.5-1.6
					c0-0.9,0.7-1.6,1.5-1.6v-1.5c-0.8-0.1-1.5-0.8-1.5-1.6c0-0.9,0.7-1.6,1.5-1.6v-1.5c-0.8-0.1-1.5-0.8-1.5-1.6
					c0-0.9,0.7-1.6,1.5-1.6v-1.5c-0.8-0.1-1.5-0.8-1.5-1.6c0-0.9,0.7-1.6,1.5-1.6v-1.5c-0.8-0.1-1.5-0.8-1.5-1.6
					c0-0.9,0.7-1.6,1.5-1.6V5.9c-0.8-0.1-1.5-0.8-1.5-1.6c0-0.9,0.7-1.6,1.5-1.6v-1c-0.5-0.2-1-0.6-1.1-1.1h-1.2
					C62.7,1.3,62,2,61.2,2c-0.9,0-1.6-0.6-1.6-1.5H58C58,1.3,57.3,2,56.4,2c-0.9,0-1.6-0.6-1.6-1.5h-1.5C53.2,1.3,52.5,2,51.6,2
					c-0.9,0-1.6-0.6-1.6-1.5h-1.5C48.4,1.3,47.7,2,46.9,2c-0.9,0-1.6-0.6-1.6-1.5h-1.5C43.7,1.3,43,2,42.1,2c-0.9,0-1.6-0.6-1.6-1.5
					H39C38.9,1.3,38.2,2,37.4,2c-0.9,0-1.6-0.6-1.6-1.5h-1.5C34.2,1.3,33.5,2,32.6,2c-0.9,0-1.6-0.6-1.6-1.5h-1.5
					C29.4,1.3,28.7,2,27.9,2s-1.6-0.6-1.6-1.5h-1.5C24.7,1.3,24,2,23.1,2s-1.6-0.6-1.6-1.5H20C19.9,1.3,19.2,2,18.3,2
					c-0.9,0-1.6-0.6-1.6-1.5h-1.5C15.1,1.3,14.4,2,13.6,2c-0.9,0-1.6-0.6-1.6-1.5h-1.5C10.4,1.3,9.7,2,8.8,2C8,2,7.3,1.3,7.2,0.5
					H5.7C5.6,1.3,4.9,2,4.1,2C3.2,2,2.5,1.3,2.4,0.5H1.5c-0.1,0.4-0.4,0.8-0.9,1v1.1c0.8,0.1,1.5,0.8,1.5,1.6c0,0.9-0.7,1.6-1.5,1.6
					v1.5C1.5,7.4,2.2,8.1,2.2,9s-0.7,1.6-1.5,1.6v1.5c0.8,0.1,1.5,0.8,1.5,1.6c0,0.9-0.7,1.6-1.5,1.6v1.5c0.8,0.1,1.5,0.8,1.5,1.6
					c0,0.9-0.7,1.6-1.5,1.6v1.5c0.8,0.1,1.5,0.8,1.5,1.6c0,0.9-0.7,1.6-1.5,1.6v1.5c0.8,0.1,1.5,0.8,1.5,1.6c0,0.9-0.7,1.6-1.5,1.6
					v1.5c0.8,0.1,1.5,0.8,1.5,1.6c0,0.9-0.7,1.6-1.5,1.6v1.5c0.8,0.1,1.5,0.8,1.5,1.6c0,0.9-0.7,1.6-1.5,1.6v1.5
					c0.8,0.1,1.5,0.8,1.5,1.6c0,0.9-0.7,1.6-1.5,1.6v1.5c0.8,0.1,1.5,0.8,1.5,1.6c0,0.9-0.7,1.6-1.5,1.6v1.5
					c0.8,0.1,1.5,0.8,1.5,1.6c0,0.9-0.7,1.6-1.5,1.6v1.5c0.8,0.1,1.5,0.8,1.5,1.6c0,0.9-0.7,1.6-1.5,1.6v1.5
					c0.8,0.1,1.5,0.8,1.5,1.6c0,0.9-0.7,1.6-1.5,1.6v1.5c0.8,0.1,1.5,0.8,1.5,1.6c0,0.9-0.7,1.6-1.5,1.6v1.5
					c0.8,0.1,1.5,0.8,1.5,1.6c0,0.9-0.7,1.6-1.5,1.6v1.5c0.8,0.1,1.5,0.8,1.5,1.6c0,0.9-0.7,1.6-1.5,1.6v1.6
					c0.3,0.1,0.5,0.3,0.6,0.5h1.1c0-0.9,0.8-1.6,1.6-1.6c0.9,0,1.6,0.7,1.6,1.6h1.5c0-0.9,0.8-1.6,1.6-1.6s1.6,0.7,1.6,1.6h1.5
					c0-0.9,0.8-1.6,1.6-1.6c0.9,0,1.6,0.7,1.6,1.6h1.5c0-0.9,0.8-1.6,1.6-1.6s1.6,0.7,1.6,1.6h1.5c0-0.9,0.8-1.6,1.6-1.6
					c0.9,0,1.6,0.7,1.6,1.6h1.5c0-0.9,0.8-1.6,1.6-1.6c0.9,0,1.6,0.7,1.6,1.6H31c0-0.9,0.8-1.6,1.6-1.6c0.9,0,1.6,0.7,1.6,1.6h1.5
					c0-0.9,0.8-1.6,1.6-1.6s1.6,0.7,1.6,1.6h1.5c0-0.9,0.8-1.6,1.6-1.6c0.9,0,1.6,0.7,1.6,1.6h1.5c0-0.9,0.8-1.6,1.6-1.6
					c0.9,0,1.6,0.7,1.6,1.6H50c0-0.9,0.8-1.6,1.6-1.6c0.9,0,1.6,0.7,1.6,1.6h1.5c0-0.9,0.8-1.6,1.6-1.6c0.9,0,1.6,0.7,1.6,1.6h1.5
					c0-0.9,0.8-1.6,1.6-1.6c0.9,0,1.6,0.7,1.6,1.6h1.4c0.2-0.3,0.5-0.5,0.9-0.6v-1.5C64.3,77.1,63.6,76.4,63.6,75.6z"/>
			</g>
			<linearGradient id="SVGID_1_" gradientUnits="userSpaceOnUse" x1="32.9025" y1="4.2143" x2="32.9025" y2="75.5744">
				<stop  offset="0" style="stop-color:#9296B1"/>
				<stop  offset="1" style="stop-color:#6C6E88"/>
			</linearGradient>
			<polygon fill="url(#SVGID_1_)" points="61,75.6 4.8,75.6 4.8,4.2 61,4.2 61,75.6 			"/>
		</g>
		<g>
			<path fill="#FFFFFF" d="M18.3,69v1.7H18v-4.1h1.4c0.4,0,0.8,0.1,1,0.3c0.2,0.2,0.4,0.5,0.4,0.9c0,0.4-0.1,0.7-0.4,0.9
				c-0.2,0.2-0.6,0.3-1,0.3H18.3z M18.3,68.8h1.1c0.3,0,0.6-0.1,0.8-0.3c0.2-0.2,0.3-0.4,0.3-0.6c0-0.3-0.1-0.5-0.3-0.7
				c-0.2-0.2-0.4-0.3-0.8-0.3h-1.1V68.8z"/>
			<path fill="#FFFFFF" d="M22.4,70.5h2v0.3h-2.4v-4.1h0.3V70.5z"/>
			<path fill="#FFFFFF" d="M27.9,69.6h-1.9l-0.4,1.1h-0.3l1.6-4.1h0.3l1.5,4.1h-0.3L27.9,69.6z M26.2,69.3h1.6L27,67.1h0L26.2,69.3z
				"/>
			<path fill="#FFFFFF" d="M32.3,66.9h-1.4v3.8h-0.3v-3.8h-1.4v-0.3h3.2V66.9z"/>
			<path fill="#FFFFFF" d="M33.9,70.7h-0.3v-4.1h0.3V70.7z"/>
			<path fill="#FFFFFF" d="M38.7,70.7h-0.3L36,67.2l0,0v3.5h-0.3v-4.1H36l2.3,3.5l0,0v-3.5h0.3V70.7z"/>
			<path fill="#FFFFFF" d="M43.2,66.7v2.8c0,0.4-0.1,0.8-0.4,1c-0.3,0.2-0.6,0.4-1.1,0.4c-0.4,0-0.8-0.1-1.1-0.4
				c-0.3-0.2-0.4-0.6-0.4-1v-2.8h0.3v2.8c0,0.3,0.1,0.6,0.3,0.8c0.2,0.2,0.5,0.3,0.8,0.3c0.3,0,0.6-0.1,0.8-0.3
				c0.2-0.2,0.3-0.5,0.3-0.8v-2.8H43.2z"/>
			<path fill="#FFFFFF" d="M45.2,66.7l1.5,3.6h0l1.5-3.6h0.4v4.1h-0.3v-1.8l0-1.8l0,0l-1.5,3.6h-0.2l-1.5-3.6l0,0l0,1.8v1.8h-0.3
				v-4.1H45.2z"/>
		</g>
	</g>
	<g>
		<g id="Rounded_Rectangle_1_7_">
			<g>
				<path fill="#FFFFFF" d="M35.5,61.1h-4c-0.9,0-1.7-0.7-1.7-1.7v-4c0-0.9,0.7-1.7,1.7-1.7h4c0.9,0,1.7,0.8,1.7,1.7v4
					C37.2,60.4,36.5,61.1,35.5,61.1z M31.5,53.8c-0.9,0-1.6,0.7-1.6,1.7v4c0,0.9,0.7,1.6,1.6,1.6h4c0.9,0,1.7-0.7,1.7-1.6v-4
					c0-0.9-0.7-1.7-1.7-1.7H31.5z"/>
			</g>
			<g>
				<path fill="#FFFFFF" d="M35.5,53.9c0.9,0,1.6,0.7,1.6,1.5v4c0,0.9-0.7,1.5-1.6,1.5h-4c-0.9,0-1.6-0.7-1.6-1.5v-4
					c0-0.9,0.7-1.5,1.6-1.5H35.5 M35.5,53.6h-4c-1,0-1.8,0.8-1.8,1.8v4c0,1,0.8,1.8,1.8,1.8h4c1,0,1.8-0.8,1.8-1.8v-4
					C37.3,54.4,36.5,53.6,35.5,53.6L35.5,53.6z"/>
			</g>
		</g>
		<path fill="#FFFFFF" d="M30.7,50.8c0.1,0.2,0.1,0.4,0.2,0.6c-0.3,0.1-0.5,0.2-0.7-0.2c-1.4-2.6-2.9-5.1-4.2-7.7
			c-1.2-2.5-2.3-5-3.4-7.5c0,0,0-0.1,0-0.1h3.8c0.7,2.9,1.5,5.7,2.3,8.6C29.3,46.6,30,48.7,30.7,50.8z"/>
		<path fill="#FFFFFF" d="M20,27.6h4.8c-0.1-0.6-0.2-1.2-0.3-1.8c-0.4-2.8-0.5-5.6,0-8.4c0.3-1.9,0.9-3.7,2-5.2
			c0.5-0.7,1.1-1.3,1.7-2c0,0,0,0,0-0.1c-0.8,0.3-1.7,0.6-2.5,1c-2.8,1.4-4.7,3.6-5.7,6.7c-0.7,2.3-0.8,4.7-0.5,7.1
			C19.7,25.9,19.8,26.8,20,27.6z"/>
		<path fill="#FFFFFF" d="M40.8,35.9c-0.4,1.7-0.8,3.4-1.3,5c-0.7,2.6-1.5,5.2-2.3,7.8c-0.3,0.9-0.6,1.8-0.9,2.7
			c0.5,0.1,0.5,0.1,0.7-0.3c0.1-0.2,0.3-0.5,0.4-0.7c1.2-2.3,2.5-4.6,3.7-6.9c1.3-2.5,2.4-5,3.4-7.7H40.8z"/>
		<path fill="#FFFFFF" d="M39,10.4c1.2,1,2.1,2.3,2.7,3.8c0.8,2,1.1,4.1,1.2,6.3c0.1,2.4-0.1,4.8-0.5,7.1h4.8
			c0.2-1.2,0.4-2.3,0.5-3.5c0.2-2.5,0-4.9-0.9-7.2c-0.5-1.2-1.2-2.3-2-3.3c-1-1.1-2.2-2-3.5-2.6c-0.7-0.3-1.5-0.6-2.3-0.9
			c0,0.1,0,0.1,0,0.2C38.9,10.4,38.9,10.4,39,10.4z"/>
		<path fill="#FFFFFF" d="M18.9,37.4c-0.3-0.5-0.5-1-0.8-1.5h-0.9c1.4,2.5,3,4.9,4.7,7.2c0.4,0.6,0.8,1.1,1.3,1.7
			c-0.1-0.2-0.2-0.4-0.3-0.6C21.6,41.9,20.2,39.7,18.9,37.4z"/>
		<path fill="#FFFFFF" d="M13.8,27.6h1.3c-0.4-1.9-0.6-3.8-0.5-5.8c0.2-2.3,0.8-4.5,2.1-6.4c0.3-0.5,0.6-0.9,0.9-1.3
			c-1.2,0.9-2.4,2.4-3.1,3.7c-1.4,2.8-1.6,5.7-1,8.8C13.6,27,13.7,27.2,13.8,27.6z"/>
		<path fill="#FFFFFF" d="M47.3,39c-0.7,1.3-1.6,2.7-2.4,4c-0.3,0.6-0.7,1.1-1,1.7c0,0,0.1,0,0.1,0.1c0,0,0-0.1,0.1-0.1
			c0.9-1.2,1.8-2.4,2.6-3.7c1.1-1.6,2.1-3.3,3.1-5H49C48.5,36.9,47.9,38,47.3,39z"/>
		<path fill="#FFFFFF" d="M51.3,17.1c1.2,2.6,1.5,5.3,1.2,8.1c-0.1,0.8-0.2,1.6-0.4,2.4h1.3c0.6-2.5,0.8-4.9,0.1-7.4
			c-0.7-2.5-2.1-4.5-4.1-6.1c0.1,0.1,0.2,0.2,0.2,0.3C50.2,15.3,50.8,16.2,51.3,17.1z"/>
		<path fill="#FFFFFF" d="M32.3,41.9c0.2,2.2,0.5,4.4,0.7,6.6c0.1,0.9,0.2,1.9,0.4,2.8c0,0.1,0.1,0.2,0.2,0.2
			c0.1-0.1,0.2-0.2,0.2-0.3c0.1-0.3,0.1-0.6,0.1-0.9c0.3-2.6,0.6-5.2,0.9-7.9c0.2-2.2,0.4-4.4,0.6-6.7h-3.7
			C31.9,37.8,32.1,39.9,32.3,41.9z"/>
		<path fill="#FFFFFF" d="M31.1,27.6h2.5H36c0-0.4,0.1-1,0.1-1.5c0.2-3.3,0.4-6.7,0.1-10c-0.1-1.5-0.4-2.9-1-4.3
			c-0.2-0.6-0.7-1.1-1.1-1.6C34,10,33.8,9.9,33.5,9.9c-0.3,0-0.4,0.1-0.6,0.3c-0.5,0.5-0.8,1-1.1,1.6c-0.6,1.4-0.8,2.8-1,4.3
			c-0.3,3.3-0.1,6.7,0.1,10C31,26.6,31,27.2,31.1,27.6z"/>
		<path fill="#FFFFFF" d="M35.2,56.7c-0.4-1.2-1.2-1.5-2.3-1.2l-1.3,0.4l1.2,3.7l1.3-0.4C35.3,58.8,35.6,57.9,35.2,56.7z M34,58.7
			L33.2,59l-0.9-2.9l0.8-0.3c0.9-0.3,1.4,0.1,1.7,1C35.2,58.3,34.3,58.6,34,58.7z"/>
		<g>
			<g>
				<polygon fill="#FFFFFF" points="12.2,29.2 12.2,34.4 12.8,34.4 12.8,30.1 12.8,30.1 14.4,34.4 15,34.4 16.6,30.1 16.6,30.1 
					16.6,34.4 17.3,34.4 17.3,29.2 16.4,29.2 14.7,33.6 13.1,29.2 				"/>
			</g>
			<g>
				<polygon fill="#FFFFFF" points="20.6,32.3 22.6,29.2 21.8,29.2 20.3,31.7 18.7,29.2 17.9,29.2 19.9,32.3 19.9,34.4 20.6,34.4 
									"/>
			</g>
			<path fill="#FFFFFF" d="M28.8,29.8c-0.4-0.4-1-0.6-1.8-0.6h-1.8v5.2H27c0.4,0,0.8-0.1,1.1-0.2c0.3-0.1,0.6-0.3,0.8-0.5
				c0.2-0.2,0.4-0.5,0.5-0.9c0.1-0.3,0.1-0.7,0.1-1.2C29.5,30.8,29.3,30.2,28.8,29.8z M28.7,32.6c-0.1,0.2-0.1,0.4-0.3,0.6
				c-0.1,0.2-0.2,0.3-0.3,0.4c-0.1,0.1-0.3,0.2-0.4,0.2c-0.1,0-0.3,0.1-0.4,0.1c-0.1,0-0.2,0-0.3,0h-1.2v-4H27c0.3,0,0.6,0,0.8,0.1
				c0.2,0.1,0.4,0.2,0.5,0.4c0.1,0.2,0.2,0.4,0.3,0.6c0.1,0.2,0.1,0.5,0.1,0.8C28.8,32.1,28.7,32.4,28.7,32.6z"/>
			<path fill="#FFFFFF" d="M34.3,34.1c0-0.1-0.1-0.2-0.1-0.4c0-0.1,0-0.3,0-0.4c0-0.1,0-0.3,0-0.4c0-0.1,0-0.2-0.1-0.4
				c0-0.1-0.1-0.2-0.1-0.3c-0.1-0.1-0.1-0.2-0.2-0.2c-0.1-0.1-0.2-0.1-0.4-0.1v0c0.3-0.1,0.6-0.2,0.7-0.5c0.1-0.2,0.2-0.5,0.2-0.8
				c0-0.4-0.1-0.7-0.4-1c-0.3-0.2-0.7-0.4-1.2-0.4h-2.5v5.2H31v-2.2h1.7c0.2,0,0.3,0,0.4,0.1c0.1,0.1,0.2,0.1,0.2,0.2
				c0.1,0.1,0.1,0.2,0.1,0.3c0,0.1,0.1,0.2,0.1,0.4c0,0.1,0,0.3,0,0.4c0,0.1,0,0.3,0,0.4c0,0.1,0,0.2,0,0.3s0,0.2,0.1,0.2h0.8
				C34.4,34.3,34.4,34.2,34.3,34.1z M33.3,31.4c-0.1,0.1-0.2,0.1-0.4,0.1c-0.1,0-0.3,0-0.5,0H31v-1.8h1.7c0.3,0,0.6,0.1,0.7,0.2
				c0.1,0.2,0.2,0.4,0.2,0.6c0,0.2,0,0.3-0.1,0.5C33.5,31.2,33.4,31.3,33.3,31.4z"/>
			<g>
				<polygon fill="#FFFFFF" points="35.3,29.2 35.3,34.4 38.9,34.4 38.9,33.8 35.9,33.8 35.9,32 38.7,32 38.7,31.4 35.9,31.4 
					35.9,29.8 38.9,29.8 38.9,29.2 				"/>
			</g>
			<path fill="#FFFFFF" d="M41.9,29.2h-0.8l-2,5.2h0.7l0.6-1.6h2.2l0.6,1.6h0.8L41.9,29.2z M40.6,32.3l0.9-2.4h0l0.9,2.4H40.6z"/>
			<g>
				<polygon fill="#FFFFFF" points="44.5,29.2 44.5,34.4 45.1,34.4 45.1,30.1 45.1,30.1 46.7,34.4 47.3,34.4 49,30.1 49,30.1 
					49,34.4 49.7,34.4 49.7,29.2 48.7,29.2 47,33.6 45.4,29.2 				"/>
			</g>
			<g>
				<path fill="#FFFFFF" d="M53.8,30.7h0.7c0-0.3-0.1-0.5-0.2-0.7c-0.1-0.2-0.2-0.4-0.4-0.5c-0.2-0.1-0.4-0.2-0.6-0.3
					c-0.2-0.1-0.5-0.1-0.7-0.1c-0.2,0-0.5,0-0.7,0.1c-0.2,0.1-0.4,0.2-0.6,0.3c-0.2,0.1-0.3,0.3-0.4,0.5c-0.1,0.2-0.2,0.4-0.2,0.7
					c0,0.2,0,0.4,0.1,0.6c0.1,0.2,0.2,0.3,0.4,0.4c0.2,0.1,0.3,0.2,0.5,0.2c0.2,0.1,0.4,0.1,0.6,0.2c0.2,0,0.4,0.1,0.6,0.1
					c0.2,0,0.4,0.1,0.5,0.2c0.2,0.1,0.3,0.2,0.4,0.3c0.1,0.1,0.1,0.3,0.1,0.4c0,0.2,0,0.3-0.1,0.5c-0.1,0.1-0.2,0.2-0.3,0.3
					c-0.1,0.1-0.3,0.1-0.4,0.1c-0.2,0-0.3,0-0.5,0c-0.2,0-0.4,0-0.6-0.1c-0.2,0-0.3-0.1-0.5-0.2c-0.1-0.1-0.2-0.2-0.3-0.4
					c-0.1-0.2-0.1-0.3-0.1-0.6h-0.7c0,0.3,0.1,0.6,0.2,0.8c0.1,0.2,0.3,0.4,0.5,0.6c0.2,0.1,0.4,0.3,0.7,0.3
					c0.3,0.1,0.5,0.1,0.8,0.1c0.2,0,0.5,0,0.7-0.1c0.2-0.1,0.5-0.1,0.7-0.3c0.2-0.1,0.4-0.3,0.5-0.5c0.1-0.2,0.2-0.4,0.2-0.7
					c0-0.3,0-0.5-0.1-0.6c-0.1-0.2-0.2-0.3-0.4-0.4c-0.2-0.1-0.3-0.2-0.5-0.3c-0.2-0.1-0.4-0.1-0.6-0.2c-0.2,0-0.4-0.1-0.6-0.1
					c-0.2,0-0.4-0.1-0.5-0.2c-0.2-0.1-0.3-0.1-0.4-0.2c-0.1-0.1-0.1-0.2-0.1-0.4c0-0.2,0-0.3,0.1-0.4c0.1-0.1,0.2-0.2,0.3-0.3
					c0.1-0.1,0.2-0.1,0.4-0.1c0.1,0,0.3,0,0.4,0c0.4,0,0.7,0.1,0.9,0.2C53.6,30.1,53.7,30.3,53.8,30.7z"/>
			</g>
		</g>
		<path fill="#FFFFFF" d="M55.7,28.6c-0.4,0-0.6-0.3-0.6-0.6c0-0.4,0.3-0.6,0.6-0.6s0.6,0.3,0.6,0.6C56.4,28.4,56.1,28.6,55.7,28.6z
			 M55.7,27.4c-0.3,0-0.6,0.3-0.6,0.6c0,0.3,0.3,0.6,0.6,0.6s0.6-0.3,0.6-0.6C56.3,27.7,56,27.4,55.7,27.4z"/>
		<path fill="#FFFFFF" d="M56,28.3C56,28.3,56,28.3,56,28.3C56,28.2,56,28.2,56,28.3c0-0.1,0-0.1,0-0.1c0,0,0,0,0,0c0,0,0,0,0,0
			c0,0,0,0,0,0c0,0,0,0,0,0v0c0,0,0.1,0,0.1-0.1c0,0,0-0.1,0-0.1c0-0.1,0-0.1-0.1-0.1c0,0-0.1,0-0.1,0h-0.3v0.6h0.1v-0.3h0.2
			c0,0,0,0,0.1,0c0,0,0,0,0,0c0,0,0,0,0,0c0,0,0,0,0,0C55.9,28.2,55.9,28.2,56,28.3C55.9,28.2,55.9,28.2,56,28.3
			C55.9,28.3,55.9,28.3,56,28.3C55.9,28.3,55.9,28.3,56,28.3L56,28.3C56,28.3,56,28.3,56,28.3z M55.8,28C55.8,28,55.8,28,55.8,28
			c-0.1,0-0.1,0-0.1,0h-0.2v-0.2h0.2c0,0,0.1,0,0.1,0C55.9,27.8,55.9,27.8,55.8,28C55.9,27.9,55.9,27.9,55.8,28
			C55.9,27.9,55.9,27.9,55.8,28z"/>
	</g>
</g>
</svg>
