<?xml version="1.0" encoding="utf-8"?>
<!-- Generator: Adobe Illustrator 18.0.0, SVG Export Plug-In . SVG Version: 6.00 Build 0)  -->
<!DOCTYPE svg PUBLIC "-//W3C//DTD SVG 1.1//EN" "http://www.w3.org/Graphics/SVG/1.1/DTD/svg11.dtd">
<svg version="1.1" id="Слой_1" xmlns="http://www.w3.org/2000/svg" xmlns:xlink="http://www.w3.org/1999/xlink" x="0px" y="0px"
	 viewBox="0 0 66 80" enable-background="new 0 0 66 80" xml:space="preserve">
<g>
	<g>
		<g>
			<path fill="#FFFFFF" d="M53.6,79.8L53.6,79.8c0-0.9-0.7-1.6-1.6-1.6l0,0c-0.9,0-1.5,0.7-1.6,1.5l0,0l0,0.1h-1.6l0-0.1
				c0-0.8-0.7-1.5-1.6-1.5l0,0c-0.9,0-1.5,0.7-1.6,1.5l0,0l0,0.1H44l0-0.1c0-0.8-0.7-1.5-1.6-1.5l0,0c-0.9,0-1.5,0.7-1.6,1.5l0,0
				l0,0.1h-1.6l0-0.1c0-0.8-0.7-1.5-1.6-1.5l0,0c-0.9,0-1.5,0.7-1.6,1.5l0,0l0,0.1h-1.6l0-0.1c0-0.8-0.7-1.5-1.6-1.5l0,0
				c-0.9,0-1.5,0.7-1.6,1.5l0,0l0,0.1h-1.6l0-0.1c0-0.8-0.7-1.5-1.6-1.5l0,0c-0.9,0-1.5,0.7-1.6,1.5l0,0l0,0.1h-1.6l0-0.1
				c0-0.8-0.7-1.5-1.6-1.5l0,0c-0.9,0-1.5,0.7-1.6,1.5l0,0l0,0.1h-1.6l0-0.1c0-0.8-0.7-1.5-1.6-1.5l0,0c-0.9,0-1.5,0.7-1.6,1.5l0,0
				l0,0.1h-1.6l0-0.1c0-0.8-0.7-1.5-1.6-1.5l0,0c-0.9,0-1.5,0.7-1.6,1.5l0,0l0,0.1h-1.6l0-0.1c0-0.8-0.7-1.5-1.6-1.5l0,0
				c-0.9,0-1.5,0.7-1.6,1.5l0,0l0,0.1H5.7l0-0.1c0-0.8-0.7-1.5-1.6-1.5l0,0c-0.9,0-1.5,0.7-1.6,1.5l0,0l0,0.1H1.2l0,0
				c-0.2-0.2-0.4-0.4-0.6-0.5l0,0l0,0v-1.7l0.1,0c0.8-0.1,1.5-0.7,1.5-1.6l0,0c0-0.8-0.6-1.5-1.5-1.6l0,0l-0.1,0v-1.6l0.1,0
				c0.8-0.1,1.5-0.7,1.5-1.6l0,0c0-0.8-0.6-1.5-1.5-1.6l0,0l-0.1,0V68l0.1,0c0.8-0.1,1.5-0.7,1.5-1.6l0,0c0-0.8-0.6-1.5-1.5-1.6l0,0
				l-0.1,0v-1.6l0.1,0c0.8-0.1,1.5-0.7,1.5-1.6l0,0c0-0.8-0.6-1.5-1.5-1.6l0,0l-0.1,0v-1.6l0.1,0c0.8-0.1,1.5-0.7,1.5-1.6l0,0
				c0-0.8-0.6-1.5-1.5-1.6l0,0l-0.1,0v-1.6l0.1,0c0.8-0.1,1.5-0.7,1.5-1.6l0,0c0-0.8-0.6-1.5-1.5-1.6l0,0l-0.1,0v-1.6l0.1,0
				c0.8-0.1,1.5-0.7,1.5-1.6l0,0c0-0.8-0.6-1.5-1.5-1.6l0,0l-0.1,0V44l0.1,0c0.8-0.1,1.5-0.7,1.5-1.6l0,0c0-0.8-0.6-1.5-1.5-1.6l0,0
				l-0.1,0v-1.6l0.1,0c0.8-0.1,1.5-0.7,1.5-1.6l0,0c0-0.8-0.6-1.5-1.5-1.6l0,0l-0.1,0v-1.6l0.1,0c0.8-0.1,1.5-0.7,1.5-1.6l0,0
				c0-0.8-0.6-1.5-1.5-1.6l0,0l-0.1,0v-1.6l0.1,0c0.8-0.1,1.5-0.7,1.5-1.6l0,0c0-0.8-0.6-1.5-1.5-1.6l0,0l-0.1,0v-1.6l0.1,0
				c0.8-0.1,1.5-0.7,1.5-1.6l0,0c0-0.8-0.6-1.5-1.5-1.6l0,0l-0.1,0V20l0.1,0c0.8-0.1,1.5-0.7,1.5-1.6l0,0c0-0.8-0.6-1.5-1.5-1.6l0,0
				l-0.1,0v-1.6l0.1,0c0.8-0.1,1.5-0.7,1.5-1.6l0,0c0-0.8-0.6-1.5-1.5-1.6l0,0l-0.1,0v-1.6l0.1,0c0.8-0.1,1.5-0.7,1.5-1.6l0,0
				c0-0.8-0.6-1.5-1.5-1.6l0,0l-0.1,0V5.6l0.1,0C1.5,5.5,2.1,4.9,2.1,4l0,0c0-0.8-0.6-1.5-1.5-1.6l0,0l-0.1,0V1.3l0,0
				C1,1,1.3,0.7,1.5,0.3l0,0l0-0.1h1l0,0.1c0.1,0.8,0.8,1.4,1.6,1.4l0,0c0.8,0,1.5-0.6,1.6-1.4l0,0l0-0.1h1.6l0,0.1
				c0.1,0.8,0.8,1.4,1.6,1.4l0,0c0.8,0,1.5-0.6,1.6-1.4l0,0l0-0.1h1.6l0,0.1c0.1,0.8,0.8,1.4,1.6,1.4l0,0c0.8,0,1.5-0.6,1.6-1.4l0,0
				l0-0.1h1.6l0,0.1c0.1,0.8,0.8,1.4,1.6,1.4l0,0c0.8,0,1.5-0.6,1.6-1.4l0,0l0-0.1h1.6l0,0.1c0.1,0.8,0.8,1.4,1.6,1.4l0,0
				c0.8,0,1.5-0.6,1.6-1.4l0,0l0-0.1h1.6l0,0.1c0.1,0.8,0.8,1.4,1.6,1.4l0,0c0.8,0,1.5-0.6,1.6-1.4l0,0l0-0.1h1.6l0,0.1
				c0.1,0.8,0.8,1.4,1.6,1.4l0,0c0.8,0,1.5-0.6,1.6-1.4l0,0l0-0.1h1.6l0,0.1c0.1,0.8,0.8,1.4,1.6,1.4l0,0c0.8,0,1.5-0.6,1.6-1.4l0,0
				l0-0.1h1.6l0,0.1c0.1,0.8,0.8,1.4,1.6,1.4l0,0c0.8,0,1.5-0.6,1.6-1.4l0,0l0-0.1h1.6l0,0.1c0.1,0.8,0.8,1.4,1.6,1.4l0,0
				c0.8,0,1.5-0.6,1.6-1.4l0,0l0-0.1h1.6l0,0.1c0.1,0.8,0.8,1.4,1.6,1.4l0,0c0.8,0,1.5-0.6,1.6-1.4l0,0l0-0.1h1.6l0,0.1
				c0.1,0.8,0.8,1.4,1.6,1.4l0,0c0.8,0,1.5-0.6,1.6-1.4l0,0l0-0.1h1.6l0,0.1c0.1,0.8,0.8,1.4,1.6,1.4l0,0c0.8,0,1.5-0.6,1.6-1.4l0,0
				l0-0.1h1.4l0,0.1c0.2,0.5,0.6,0.9,1.1,1.1l0,0l0.1,0v1.1l-0.1,0c-0.8,0.1-1.5,0.7-1.5,1.6l0,0c0,0.8,0.6,1.5,1.5,1.6l0,0l0.1,0
				v1.6l-0.1,0c-0.8,0.1-1.5,0.7-1.5,1.6l0,0c0,0.8,0.6,1.5,1.5,1.6l0,0l0.1,0V12l-0.1,0c-0.8,0.1-1.5,0.7-1.5,1.6l0,0
				c0,0.8,0.6,1.5,1.5,1.6l0,0l0.1,0v1.6l-0.1,0c-0.8,0.1-1.5,0.7-1.5,1.6l0,0c0,0.8,0.6,1.5,1.5,1.6l0,0l0.1,0v1.6l-0.1,0
				c-0.8,0.1-1.5,0.7-1.5,1.6l0,0c0,0.8,0.6,1.5,1.5,1.6l0,0l0.1,0v1.6l-0.1,0c-0.8,0.1-1.5,0.7-1.5,1.6l0,0c0,0.8,0.6,1.5,1.5,1.6
				l0,0l0.1,0v1.6l-0.1,0c-0.8,0.1-1.5,0.7-1.5,1.6l0,0c0,0.8,0.6,1.5,1.5,1.6l0,0l0.1,0V36l-0.1,0c-0.8,0.1-1.5,0.7-1.5,1.6l0,0
				c0,0.8,0.6,1.5,1.5,1.6l0,0l0.1,0v1.6l-0.1,0c-0.8,0.1-1.5,0.7-1.5,1.6l0,0c0,0.8,0.6,1.5,1.5,1.6l0,0l0.1,0v1.6l-0.1,0
				c-0.8,0.1-1.5,0.7-1.5,1.6l0,0c0,0.8,0.6,1.5,1.5,1.6l0,0l0.1,0v1.6l-0.1,0c-0.8,0.1-1.5,0.7-1.5,1.6l0,0c0,0.8,0.6,1.5,1.5,1.6
				l0,0l0.1,0v1.6l-0.1,0c-0.8,0.1-1.5,0.7-1.5,1.6l0,0c0,0.8,0.6,1.5,1.5,1.6l0,0l0.1,0V60l-0.1,0c-0.8,0.1-1.5,0.7-1.5,1.6l0,0
				c0,0.8,0.6,1.5,1.5,1.6l0,0l0.1,0v1.6l-0.1,0c-0.8,0.1-1.5,0.7-1.5,1.6l0,0c0,0.8,0.6,1.5,1.5,1.6l0,0l0.1,0v1.6l-0.1,0
				c-0.8,0.1-1.5,0.7-1.5,1.6l0,0c0,0.8,0.6,1.5,1.5,1.6l0,0l0.1,0v1.6l-0.1,0c-0.8,0.1-1.5,0.7-1.5,1.6l0,0c0,0.8,0.6,1.5,1.5,1.6
				l0,0l0.1,0v1.6l-0.1,0c-0.3,0.1-0.6,0.3-0.8,0.6l0,0l0,0h-1.6l0-0.1c0-0.8-0.7-1.5-1.6-1.5l0,0c-0.9,0-1.5,0.7-1.6,1.5l0,0l0,0.1
				h-1.6l0-0.1c0-0.8-0.7-1.5-1.6-1.5l0,0c-0.9,0-1.5,0.7-1.6,1.5l0,0l0,0.1H53.6L53.6,79.8z M64.7,79.6c0.2,0,0.5-0.5,0.8-0.6l0,0
				v-1.3C64.7,77.6,64,76.9,64,76l0,0c0-0.9,0.7-1.6,1.5-1.7l0,0v-1.3c-0.9-0.1-1.5-0.8-1.5-1.7l0,0c0-0.9,0.7-1.6,1.5-1.7l0,0v-1.3
				C64.7,68,64,67.3,64,66.4l0,0c0-0.9,0.7-1.6,1.5-1.7l0,0v-1.3c-0.9-0.1-1.5-0.8-1.5-1.7l0,0c0-0.9,0.7-1.6,1.5-1.7l0,0v-1.3
				c-0.9-0.1-1.5-0.8-1.5-1.7l0,0c0-0.9,0.7-1.6,1.5-1.7l0,0v-1.3C64.7,53.6,64,52.9,64,52l0,0c0-0.9,0.7-1.6,1.5-1.7l0,0v-1.3
				c-0.9-0.1-1.5-0.8-1.5-1.7l0,0c0-0.9,0.7-1.6,1.5-1.7l0,0v-1.3C64.7,44,64,43.3,64,42.4l0,0c0-0.9,0.7-1.6,1.5-1.7l0,0v-1.3
				c-0.9-0.1-1.5-0.8-1.5-1.7l0,0c0-0.9,0.7-1.6,1.5-1.7l0,0v-1.3c-0.9-0.1-1.5-0.8-1.5-1.7l0,0c0-0.9,0.7-1.6,1.5-1.7l0,0v-1.3
				C64.7,29.6,64,28.9,64,28l0,0c0-0.9,0.7-1.6,1.5-1.7l0,0v-1.3c-0.9-0.1-1.5-0.8-1.5-1.7l0,0c0-0.9,0.7-1.6,1.5-1.7l0,0v-1.3
				C64.7,20,64,19.3,64,18.4l0,0c0-0.9,0.7-1.6,1.5-1.7l0,0v-1.3c-0.9-0.1-1.5-0.8-1.5-1.7l0,0c0-0.9,0.7-1.6,1.5-1.7l0,0v-1.3
				C64.7,10.4,64,9.7,64,8.8l0,0c0-0.9,0.7-1.6,1.5-1.7l0,0V5.8C64.7,5.7,64,4.9,64,4l0,0c0-0.9,0.7-1.6,1.5-1.7l0,0V1.5
				c-0.5-0.2-0.9-0.6-1.1-1.1l0,0h-1.1c-0.1,0.9-0.9,1.5-1.7,1.5l0,0c-0.9,0-1.6-0.6-1.7-1.5l0,0h-1.3c-0.1,0.9-0.9,1.5-1.7,1.5l0,0
				c-0.9,0-1.6-0.6-1.7-1.5l0,0h-1.3c-0.1,0.9-0.9,1.5-1.7,1.5l0,0c-0.9,0-1.6-0.6-1.7-1.5l0,0H49c-0.1,0.9-0.9,1.5-1.7,1.5l0,0
				c-0.9,0-1.6-0.6-1.7-1.5l0,0h-1.3c-0.1,0.9-0.9,1.5-1.7,1.5l0,0c-0.9,0-1.6-0.6-1.7-1.5l0,0h-1.3c-0.1,0.9-0.9,1.5-1.7,1.5l0,0
				c-0.9,0-1.6-0.6-1.7-1.5l0,0h-1.3c-0.1,0.9-0.9,1.5-1.7,1.5l0,0c-0.9,0-1.6-0.6-1.7-1.5l0,0h-1.3c-0.1,0.9-0.9,1.5-1.7,1.5l0,0
				c-0.9,0-1.6-0.6-1.7-1.5l0,0H25c-0.1,0.9-0.9,1.5-1.7,1.5l0,0c-0.9,0-1.6-0.6-1.7-1.5l0,0h-1.3c-0.1,0.9-0.9,1.5-1.7,1.5l0,0
				c-0.9,0-1.6-0.6-1.7-1.5l0,0h-1.3c-0.1,0.9-0.9,1.5-1.7,1.5l0,0c-0.9,0-1.6-0.6-1.7-1.5l0,0h-1.3c-0.1,0.9-0.9,1.5-1.7,1.5l0,0
				C8,1.8,7.3,1.2,7.2,0.4l0,0H5.8C5.7,1.2,5,1.8,4.1,1.8l0,0c-0.9,0-1.6-0.6-1.7-1.5l0,0H1.6c-0.1,0.4-0.5,0.8-0.8,1l0,0v0.9
				C1.6,2.4,2.3,3.1,2.3,4l0,0c0,0.9-0.7,1.6-1.5,1.7l0,0v1.3c0.9,0.1,1.5,0.8,1.5,1.7l0,0c0,0.9-0.7,1.6-1.5,1.7l0,0v1.3
				c0.9,0.1,1.5,0.8,1.5,1.7l0,0c0,0.9-0.7,1.6-1.5,1.7l0,0v1.3c0.9,0.1,1.5,0.8,1.5,1.7l0,0c0,0.9-0.7,1.6-1.5,1.7l0,0v1.3
				c0.9,0.1,1.5,0.8,1.5,1.7l0,0c0,0.9-0.7,1.6-1.5,1.7l0,0v1.3c0.9,0.1,1.5,0.8,1.5,1.7l0,0c0,0.9-0.7,1.6-1.5,1.7l0,0v1.3
				c0.9,0.1,1.5,0.8,1.5,1.7l0,0c0,0.9-0.7,1.6-1.5,1.7l0,0v1.3c0.9,0.1,1.5,0.8,1.5,1.7l0,0c0,0.9-0.7,1.6-1.5,1.7l0,0v1.3
				c0.9,0.1,1.5,0.8,1.5,1.7l0,0c0,0.9-0.7,1.6-1.5,1.7l0,0v1.3c0.9,0.1,1.5,0.8,1.5,1.7l0,0c0,0.9-0.7,1.6-1.5,1.7l0,0v1.3
				c0.9,0.1,1.5,0.8,1.5,1.7l0,0c0,0.9-0.7,1.6-1.5,1.7l0,0v1.3c0.9,0.1,1.5,0.8,1.5,1.7l0,0c0,0.9-0.7,1.6-1.5,1.7l0,0v1.3
				c0.9,0.1,1.5,0.8,1.5,1.7l0,0c0,0.9-0.7,1.6-1.5,1.7l0,0v1.3c0.9,0.1,1.5,0.8,1.5,1.7l0,0c0,0.9-0.7,1.6-1.5,1.7l0,0v1.3
				c0.9,0.1,1.5,0.8,1.5,1.7l0,0c0,0.9-0.7,1.6-1.5,1.7l0,0v1.3c0.9,0.1,1.5,0.8,1.5,1.7l0,0c0,0.9-0.7,1.6-1.5,1.7l0,0v1.4
				c0.2,0.1,0.4,0.3,0.6,0.5l0,0h1c0.1-0.9,0.8-1.6,1.7-1.6l0,0c0.9,0,1.7,0.7,1.7,1.6l0,0h1.3c0.1-0.9,0.8-1.6,1.7-1.6l0,0
				c0.9,0,1.7,0.7,1.7,1.6l0,0h1.3c0.1-0.9,0.8-1.6,1.7-1.6l0,0c0.9,0,1.7,0.7,1.7,1.6l0,0h1.3c0.1-0.9,0.8-1.6,1.7-1.6l0,0
				c0.9,0,1.7,0.7,1.7,1.6l0,0h1.3c0.1-0.9,0.8-1.6,1.7-1.6l0,0c0.9,0,1.7,0.7,1.7,1.6l0,0h1.3c0.1-0.9,0.8-1.6,1.7-1.6l0,0
				c0.9,0,1.7,0.7,1.7,1.6l0,0h1.3c0.1-0.9,0.8-1.6,1.7-1.6l0,0c0.9,0,1.7,0.7,1.7,1.6l0,0h1.3c0.1-0.9,0.8-1.6,1.7-1.6l0,0
				c0.9,0,1.7,0.7,1.7,1.6l0,0h1.3c0.1-0.9,0.8-1.6,1.7-1.6l0,0c0.9,0,1.7,0.7,1.7,1.6l0,0h1.3c0.1-0.9,0.8-1.6,1.7-1.6l0,0
				c0.9,0,1.7,0.7,1.7,1.6l0,0h1.3c0.1-0.9,0.8-1.6,1.7-1.6l0,0c0.9,0,1.7,0.7,1.7,1.6l0,0h1.3c0.1-0.9,0.8-1.6,1.7-1.6l0,0
				c0.9,0,1.7,0.7,1.7,1.6l0,0h1.3c0.1-0.9,0.8-1.6,1.7-1.6l0,0c0.9,0,1.7,0.7,1.7,1.6l0,0H64.7L64.7,79.6z"/>
			<path fill="#FFFFFF" d="M64.1,76c0-0.9,0.7-1.6,1.5-1.7v-1.5c-0.9-0.1-1.5-0.8-1.5-1.7c0-0.9,0.7-1.6,1.5-1.7V68
				c-0.9-0.1-1.5-0.8-1.5-1.7c0-0.9,0.7-1.6,1.5-1.7v-1.5c-0.9-0.1-1.5-0.8-1.5-1.7c0-0.9,0.7-1.6,1.5-1.7v-1.5
				c-0.9-0.1-1.5-0.8-1.5-1.7c0-0.9,0.7-1.6,1.5-1.7v-1.5c-0.9-0.1-1.5-0.8-1.5-1.7c0-0.9,0.7-1.6,1.5-1.7v-1.5
				c-0.9-0.1-1.5-0.8-1.5-1.7c0-0.9,0.7-1.6,1.5-1.7v-1.5c-0.9-0.1-1.5-0.8-1.5-1.7c0-0.9,0.7-1.6,1.5-1.7v-1.5
				c-0.9-0.1-1.5-0.8-1.5-1.7c0-0.9,0.7-1.6,1.5-1.7v-1.5c-0.9-0.1-1.5-0.8-1.5-1.7c0-0.9,0.7-1.6,1.5-1.7v-1.5
				c-0.9-0.1-1.5-0.8-1.5-1.7c0-0.9,0.7-1.6,1.5-1.7v-1.5c-0.9-0.1-1.5-0.8-1.5-1.7s0.7-1.6,1.5-1.7v-1.5c-0.9-0.1-1.5-0.8-1.5-1.7
				c0-0.9,0.7-1.6,1.5-1.7v-1.5c-0.9-0.1-1.5-0.8-1.5-1.7c0-0.9,0.7-1.6,1.5-1.7v-1.5c-0.9-0.1-1.5-0.8-1.5-1.7
				c0-0.9,0.7-1.6,1.5-1.7V5.7c-0.9-0.1-1.5-0.8-1.5-1.7c0-0.9,0.7-1.6,1.5-1.7v-1c-0.5-0.2-1-0.6-1.1-1.1h-1.2
				c-0.1,0.8-0.8,1.5-1.7,1.5c-0.9,0-1.6-0.7-1.7-1.5h-1.5c-0.1,0.8-0.8,1.5-1.7,1.5c-0.9,0-1.6-0.7-1.7-1.5h-1.5
				c-0.1,0.8-0.8,1.5-1.7,1.5s-1.6-0.7-1.7-1.5h-1.5c-0.1,0.8-0.8,1.5-1.7,1.5c-0.9,0-1.6-0.7-1.7-1.5h-1.5
				c-0.1,0.8-0.8,1.5-1.7,1.5c-0.9,0-1.6-0.7-1.7-1.5h-1.5c-0.1,0.8-0.8,1.5-1.7,1.5c-0.9,0-1.6-0.7-1.7-1.5h-1.5
				c-0.1,0.8-0.8,1.5-1.7,1.5c-0.9,0-1.6-0.7-1.7-1.5h-1.5c-0.1,0.8-0.8,1.5-1.7,1.5c-0.9,0-1.6-0.7-1.7-1.5h-1.5
				c-0.1,0.8-0.8,1.5-1.7,1.5s-1.6-0.7-1.7-1.5h-1.5c-0.1,0.8-0.8,1.5-1.7,1.5c-0.9,0-1.6-0.7-1.7-1.5h-1.5
				c-0.1,0.8-0.8,1.5-1.7,1.5c-0.9,0-1.6-0.7-1.7-1.5h-1.5c-0.1,0.8-0.8,1.5-1.7,1.5C8,1.8,7.3,1.1,7.2,0.3H5.7
				C5.7,1.1,5,1.8,4.1,1.8c-0.9,0-1.6-0.7-1.7-1.5H1.5c-0.1,0.4-0.5,0.8-0.9,1v1.1C1.5,2.4,2.2,3.2,2.2,4c0,0.9-0.7,1.6-1.5,1.7v1.5
				C1.5,7.2,2.2,8,2.2,8.8c0,0.9-0.7,1.6-1.5,1.7V12c0.9,0.1,1.5,0.8,1.5,1.7c0,0.9-0.7,1.6-1.5,1.7v1.5c0.9,0.1,1.5,0.8,1.5,1.7
				c0,0.9-0.7,1.6-1.5,1.7v1.5c0.9,0.1,1.5,0.8,1.5,1.7c0,0.9-0.7,1.6-1.5,1.7v1.5c0.9,0.1,1.5,0.8,1.5,1.7c0,0.9-0.7,1.6-1.5,1.7
				v1.5c0.9,0.1,1.5,0.8,1.5,1.7c0,0.9-0.7,1.6-1.5,1.7v1.5c0.9,0.1,1.5,0.8,1.5,1.7c0,0.9-0.7,1.6-1.5,1.7v1.5
				c0.9,0.1,1.5,0.8,1.5,1.7c0,0.9-0.7,1.6-1.5,1.7v1.5c0.9,0.1,1.5,0.8,1.5,1.7c0,0.9-0.7,1.6-1.5,1.7v1.5c0.9,0.1,1.5,0.8,1.5,1.7
				c0,0.9-0.7,1.6-1.5,1.7v1.5c0.9,0.1,1.5,0.8,1.5,1.7c0,0.9-0.7,1.6-1.5,1.7v1.5c0.9,0.1,1.5,0.8,1.5,1.7c0,0.9-0.7,1.6-1.5,1.7
				v1.5c0.9,0.1,1.5,0.8,1.5,1.7c0,0.9-0.7,1.6-1.5,1.7v1.5c0.9,0.1,1.5,0.8,1.5,1.7c0,0.9-0.7,1.6-1.5,1.7v1.5
				c0.9,0.1,1.5,0.8,1.5,1.7c0,0.9-0.7,1.6-1.5,1.7v1.6c0.2,0.1,0.5,0.3,0.6,0.5h1.1c0-0.9,0.8-1.6,1.7-1.6c0.9,0,1.6,0.7,1.7,1.6
				h1.5c0-0.9,0.8-1.6,1.7-1.6s1.6,0.7,1.7,1.6H12c0-0.9,0.8-1.6,1.7-1.6c0.9,0,1.6,0.7,1.7,1.6h1.5c0-0.9,0.8-1.6,1.7-1.6
				s1.6,0.7,1.7,1.6h1.5c0-0.9,0.8-1.6,1.7-1.6c0.9,0,1.6,0.7,1.7,1.6h1.5c0-0.9,0.8-1.6,1.7-1.6c0.9,0,1.6,0.7,1.7,1.6h1.5
				c0-0.9,0.8-1.6,1.7-1.6c0.9,0,1.6,0.7,1.7,1.6H36c0-0.9,0.8-1.6,1.7-1.6s1.6,0.7,1.7,1.6h1.5c0-0.9,0.8-1.6,1.7-1.6
				c0.9,0,1.6,0.7,1.7,1.6h1.5c0-0.9,0.8-1.6,1.7-1.6c0.9,0,1.6,0.7,1.7,1.6h1.5c0-0.9,0.8-1.6,1.7-1.6c0.9,0,1.6,0.7,1.7,1.6h1.5
				c0-0.9,0.8-1.6,1.7-1.6c0.9,0,1.6,0.7,1.7,1.6H60c0-0.9,0.8-1.6,1.7-1.6c0.9,0,1.6,0.7,1.7,1.6h1.5c0.2-0.3,0.5-0.5,0.9-0.6v-1.5
				C64.8,77.6,64.1,76.8,64.1,76z"/>
		</g>
		<linearGradient id="SVGID_1_" gradientUnits="userSpaceOnUse" x1="33.1462" y1="4.0255" x2="33.1462" y2="75.9745">
			<stop  offset="0" style="stop-color:#BB8B86"/>
			<stop  offset="1" style="stop-color:#8F7472"/>
		</linearGradient>
		<polygon fill="url(#SVGID_1_)" points="61.5,76 4.8,76 4.8,4 61.5,4 61.5,76 		"/>
	</g>
	<g>
		<path fill="#FFFFFF" d="M21.1,71.1v-4.1h1.2c0.4,0,0.8,0.1,1,0.3c0.2,0.2,0.4,0.5,0.4,0.8c0,0.2-0.1,0.4-0.2,0.6
			c-0.1,0.2-0.3,0.3-0.5,0.3c0.3,0,0.5,0.2,0.6,0.4c0.2,0.2,0.2,0.4,0.2,0.7c0,0.4-0.1,0.7-0.4,0.8c-0.2,0.2-0.6,0.3-1,0.3H21.1z
			 M21.4,68.8h0.9c0.3,0,0.5-0.1,0.7-0.2c0.2-0.1,0.2-0.3,0.2-0.6c0-0.3-0.1-0.5-0.3-0.6c-0.2-0.1-0.4-0.2-0.8-0.2h-0.9V68.8z
			 M21.4,69.1v1.7h1.1c0.3,0,0.5-0.1,0.7-0.2c0.2-0.1,0.3-0.4,0.3-0.6c0-0.2-0.1-0.4-0.2-0.6c-0.2-0.2-0.4-0.2-0.7-0.2H21.4z"/>
		<path fill="#FFFFFF" d="M25.6,69.2v1.9h-0.3v-4.1h1.4c0.4,0,0.8,0.1,1,0.3c0.2,0.2,0.4,0.5,0.4,0.8c0,0.2-0.1,0.4-0.2,0.6
			c-0.1,0.2-0.3,0.3-0.5,0.4c0.3,0.1,0.4,0.2,0.6,0.3c0.1,0.2,0.2,0.4,0.2,0.6v0.4c0,0.1,0,0.2,0,0.3s0.1,0.2,0.1,0.2v0.1h-0.4
			c-0.1-0.1-0.1-0.2-0.1-0.3c0-0.1,0-0.3,0-0.4V70c0-0.3-0.1-0.5-0.2-0.6c-0.2-0.1-0.4-0.2-0.7-0.2H25.6z M25.6,68.9h1
			c0.4,0,0.6-0.1,0.8-0.2c0.2-0.1,0.3-0.4,0.3-0.6c0-0.3-0.1-0.5-0.3-0.6c-0.2-0.1-0.4-0.2-0.8-0.2h-1.1V68.9z"/>
		<path fill="#FFFFFF" d="M32.7,69.3c0,0.5-0.1,1-0.4,1.3c-0.3,0.3-0.7,0.5-1.2,0.5c-0.5,0-0.9-0.2-1.2-0.5
			c-0.3-0.3-0.4-0.8-0.4-1.3v-0.7c0-0.5,0.1-1,0.4-1.3c0.3-0.3,0.7-0.5,1.2-0.5c0.5,0,0.9,0.2,1.2,0.5c0.3,0.3,0.4,0.8,0.4,1.3V69.3
			z M32.3,68.7c0-0.4-0.1-0.8-0.3-1.1c-0.2-0.3-0.5-0.4-0.9-0.4c-0.4,0-0.7,0.1-0.9,0.4c-0.2,0.3-0.3,0.6-0.3,1.1v0.7
			c0,0.4,0.1,0.8,0.3,1.1c0.2,0.3,0.5,0.4,0.9,0.4c0.4,0,0.7-0.1,0.9-0.4c0.2-0.3,0.3-0.6,0.3-1.1V68.7z"/>
		<path fill="#FFFFFF" d="M37.2,71.1h-0.3l-2.3-3.5l0,0v3.5h-0.3v-4.1h0.3l2.3,3.5l0,0v-3.5h0.3V71.1z"/>
		<path fill="#FFFFFF" d="M38.9,70.8h2.5v0.3h-2.9v-0.3l2.4-3.6h-2.3v-0.3h2.8v0.2L38.9,70.8z"/>
		<path fill="#FFFFFF" d="M45.2,69.1h-2v1.7h2.3v0.3h-2.6v-4.1h2.6v0.3h-2.3v1.6h2V69.1z"/>
	</g>
	<g>
		<g id="Rounded_Rectangle_1_3_">
			<g>
				<path fill="#FFFFFF" d="M35.7,61.4h-4.1c-0.9,0-1.7-0.7-1.7-1.7v-4.1c0-0.9,0.8-1.7,1.7-1.7h4.1c0.9,0,1.7,0.8,1.7,1.7v4.1
					C37.4,60.6,36.7,61.4,35.7,61.4z M31.7,54c-0.9,0-1.7,0.8-1.7,1.7v4.1c0,0.9,0.7,1.7,1.7,1.7h4.1c0.9,0,1.7-0.7,1.7-1.7v-4.1
					c0-0.9-0.7-1.7-1.7-1.7H31.7z"/>
			</g>
			<g>
				<path fill="#FFFFFF" d="M35.7,54.1c0.9,0,1.6,0.7,1.6,1.6v4.1c0,0.9-0.7,1.6-1.6,1.6h-4.1c-0.9,0-1.6-0.7-1.6-1.6v-4.1
					c0-0.9,0.7-1.6,1.6-1.6H35.7 M35.7,53.9h-4.1c-1,0-1.8,0.8-1.8,1.8v4.1c0,1,0.8,1.8,1.8,1.8h4.1c1,0,1.8-0.8,1.8-1.8v-4.1
					C37.5,54.7,36.7,53.9,35.7,53.9L35.7,53.9z"/>
			</g>
		</g>
		<path fill="#FFFFFF" d="M30.9,51c0.1,0.2,0.1,0.4,0.2,0.6c-0.3,0.1-0.5,0.2-0.7-0.2c-1.4-2.6-2.9-5.1-4.2-7.8
			c-1.2-2.5-2.4-5-3.4-7.6c0,0,0-0.1,0-0.1h3.8c0.7,3,1.5,5.8,2.3,8.6C29.5,46.8,30.2,48.9,30.9,51z"/>
		<path fill="#FFFFFF" d="M20.1,27.6h4.8c-0.1-0.6-0.2-1.2-0.3-1.8c-0.4-2.8-0.5-5.6,0-8.4c0.3-1.9,0.9-3.7,2-5.3
			c0.5-0.7,1.1-1.3,1.7-2c0,0,0,0,0-0.1c-0.8,0.3-1.7,0.6-2.5,1c-2.8,1.4-4.8,3.7-5.7,6.7c-0.7,2.3-0.8,4.8-0.5,7.2
			C19.8,25.9,19.9,26.8,20.1,27.6z"/>
		<path fill="#FFFFFF" d="M41,36c-0.4,1.7-0.8,3.4-1.3,5.1c-0.7,2.6-1.6,5.3-2.4,7.9c-0.3,0.9-0.6,1.8-0.9,2.7
			c0.5,0.1,0.5,0.1,0.7-0.3c0.1-0.2,0.3-0.5,0.4-0.7c1.3-2.3,2.5-4.7,3.7-7c1.3-2.5,2.4-5,3.5-7.7H41z"/>
		<path fill="#FFFFFF" d="M39.2,10.3c1.2,1,2.1,2.3,2.7,3.8c0.8,2,1.1,4.1,1.2,6.3c0.1,2.4-0.1,4.8-0.5,7.2h4.8
			c0.2-1.2,0.4-2.3,0.5-3.5c0.2-2.5,0-4.9-0.9-7.2c-0.5-1.2-1.2-2.3-2.1-3.3c-1-1.1-2.2-2-3.6-2.6c-0.8-0.3-1.5-0.6-2.4-0.9
			c0,0.1,0,0.1,0,0.2C39.1,10.2,39.2,10.3,39.2,10.3z"/>
		<path fill="#FFFFFF" d="M19,37.5c-0.3-0.5-0.5-1-0.8-1.5h-0.9c1.4,2.6,3,4.9,4.7,7.2c0.4,0.6,0.9,1.1,1.3,1.7
			c-0.1-0.2-0.2-0.4-0.3-0.6C21.7,42.1,20.3,39.8,19,37.5z"/>
		<path fill="#FFFFFF" d="M13.8,27.6h1.3c-0.4-1.9-0.6-3.8-0.5-5.8c0.2-2.3,0.8-4.5,2.1-6.5c0.3-0.5,0.6-0.9,0.9-1.3
			c-1.2,0.9-2.4,2.4-3.2,3.8c-1.4,2.8-1.6,5.8-1,8.8C13.7,27,13.7,27.2,13.8,27.6z"/>
		<path fill="#FFFFFF" d="M47.7,39.1c-0.7,1.4-1.6,2.7-2.4,4c-0.3,0.6-0.7,1.1-1.1,1.7c0,0,0.1,0,0.1,0.1c0,0,0-0.1,0.1-0.1
			c0.9-1.2,1.8-2.4,2.7-3.7c1.1-1.7,2.1-3.3,3.1-5h-0.8C48.8,37,48.2,38.1,47.7,39.1z"/>
		<path fill="#FFFFFF" d="M51.6,17c1.2,2.6,1.5,5.4,1.2,8.2c-0.1,0.8-0.2,1.6-0.4,2.4h1.3c0.6-2.5,0.8-4.9,0.1-7.5
			c-0.7-2.5-2.1-4.5-4.1-6.1c0.1,0.1,0.2,0.2,0.2,0.3C50.5,15.2,51.2,16.1,51.6,17z"/>
		<path fill="#FFFFFF" d="M32.5,42.1c0.2,2.2,0.5,4.4,0.7,6.6c0.1,1,0.2,1.9,0.4,2.9c0,0.1,0.1,0.2,0.2,0.2c0.1-0.1,0.2-0.2,0.2-0.3
			c0.1-0.3,0.1-0.6,0.1-0.9c0.3-2.6,0.6-5.3,0.9-7.9c0.2-2.2,0.4-4.4,0.6-6.7h-3.7C32.1,37.9,32.3,40,32.5,42.1z"/>
		<path fill="#FFFFFF" d="M31.2,27.6h2.5h2.5c0-0.4,0.1-1,0.1-1.5c0.2-3.4,0.4-6.7,0.1-10.1c-0.1-1.5-0.4-2.9-1-4.3
			c-0.3-0.6-0.7-1.1-1.1-1.6c-0.2-0.2-0.4-0.3-0.6-0.3c-0.3,0-0.4,0.1-0.6,0.3c-0.5,0.5-0.9,1-1.1,1.6c-0.6,1.4-0.9,2.9-1,4.3
			c-0.3,3.4-0.1,6.7,0.1,10.1C31.2,26.6,31.2,27.2,31.2,27.6z"/>
		<path fill="#FFFFFF" d="M35.4,56.9c-0.4-1.2-1.2-1.6-2.4-1.2l-1.3,0.4l1.2,3.7l1.3-0.4C35.5,59,35.8,58.2,35.4,56.9z M34.2,59
			l-0.8,0.3l-0.9-2.9l0.8-0.3c0.9-0.3,1.4,0.1,1.7,1C35.4,58.5,34.5,58.9,34.2,59z"/>
		<g>
			<g>
				<polygon fill="#FFFFFF" points="12.2,29.2 12.2,34.5 12.8,34.5 12.8,30.1 12.8,30.1 14.5,34.5 15.1,34.5 16.7,30.1 16.7,30.1 
					16.7,34.5 17.4,34.5 17.4,29.2 16.4,29.2 14.8,33.6 13.1,29.2 				"/>
			</g>
			<g>
				<polygon fill="#FFFFFF" points="20.7,32.3 22.7,29.2 21.9,29.2 20.4,31.7 18.8,29.2 18,29.2 20,32.3 20,34.5 20.7,34.5 				"/>
			</g>
			<path fill="#FFFFFF" d="M29,29.8c-0.4-0.4-1.1-0.6-1.9-0.6h-1.8v5.2h1.8c0.4,0,0.8-0.1,1.1-0.2c0.3-0.1,0.6-0.3,0.8-0.5
				c0.2-0.2,0.4-0.5,0.5-0.9c0.1-0.3,0.1-0.7,0.1-1.2C29.6,30.9,29.4,30.2,29,29.8z M28.8,32.6c-0.1,0.2-0.2,0.4-0.3,0.6
				c-0.1,0.2-0.2,0.3-0.3,0.4c-0.1,0.1-0.3,0.2-0.4,0.2c-0.1,0-0.3,0.1-0.4,0.1c-0.1,0-0.2,0-0.3,0H26v-4h1.2c0.3,0,0.6,0,0.8,0.1
				c0.2,0.1,0.4,0.2,0.5,0.4c0.1,0.2,0.2,0.4,0.3,0.6c0.1,0.2,0.1,0.5,0.1,0.8C28.9,32.1,28.9,32.4,28.8,32.6z"/>
			<path fill="#FFFFFF" d="M34.5,34.2c0-0.1-0.1-0.2-0.1-0.4c0-0.1,0-0.3,0-0.4c0-0.1,0-0.3,0-0.4c0-0.1,0-0.3-0.1-0.4
				c0-0.1-0.1-0.2-0.1-0.3c-0.1-0.1-0.1-0.2-0.2-0.2c-0.1-0.1-0.2-0.1-0.4-0.1v0c0.3-0.1,0.6-0.3,0.7-0.5c0.1-0.2,0.2-0.5,0.2-0.8
				c0-0.4-0.1-0.8-0.4-1c-0.3-0.2-0.7-0.4-1.2-0.4h-2.5v5.2h0.8v-2.3h1.7c0.2,0,0.3,0,0.4,0.1c0.1,0.1,0.2,0.1,0.2,0.2
				c0.1,0.1,0.1,0.2,0.1,0.3c0,0.1,0.1,0.2,0.1,0.4c0,0.1,0,0.3,0,0.4c0,0.1,0,0.3,0,0.4c0,0.1,0,0.2,0,0.3s0.1,0.2,0.1,0.2h0.8
				C34.6,34.3,34.6,34.3,34.5,34.2z M33.5,31.4c-0.1,0.1-0.2,0.1-0.4,0.1c-0.1,0-0.3,0-0.5,0h-1.4v-1.8h1.7c0.3,0,0.6,0.1,0.7,0.2
				c0.1,0.2,0.2,0.4,0.2,0.6c0,0.2,0,0.3-0.1,0.5C33.7,31.3,33.6,31.4,33.5,31.4z"/>
			<g>
				<polygon fill="#FFFFFF" points="35.5,29.2 35.5,34.5 39.2,34.5 39.2,33.9 36.1,33.9 36.1,32.1 38.9,32.1 38.9,31.4 36.1,31.4 
					36.1,29.8 39.1,29.8 39.1,29.2 				"/>
			</g>
			<path fill="#FFFFFF" d="M42.2,29.2h-0.8l-2,5.2h0.7l0.6-1.6h2.2l0.6,1.6h0.8L42.2,29.2z M40.9,32.3l0.9-2.5h0l0.9,2.5H40.9z"/>
			<g>
				<polygon fill="#FFFFFF" points="44.7,29.2 44.7,34.5 45.4,34.5 45.4,30.1 45.4,30.1 47,34.5 47.6,34.5 49.3,30.1 49.3,30.1 
					49.3,34.5 50,34.5 50,29.2 49,29.2 47.3,33.6 45.7,29.2 				"/>
			</g>
			<g>
				<path fill="#FFFFFF" d="M54.1,30.7h0.7c0-0.3-0.1-0.5-0.2-0.7c-0.1-0.2-0.2-0.4-0.4-0.5c-0.2-0.1-0.4-0.2-0.6-0.3
					c-0.2-0.1-0.5-0.1-0.7-0.1c-0.2,0-0.5,0-0.7,0.1c-0.2,0.1-0.4,0.2-0.6,0.3c-0.2,0.1-0.3,0.3-0.4,0.5C51,30.1,51,30.4,51,30.6
					c0,0.2,0,0.4,0.1,0.6c0.1,0.2,0.2,0.3,0.4,0.4c0.2,0.1,0.3,0.2,0.5,0.2c0.2,0.1,0.4,0.1,0.6,0.2c0.2,0,0.4,0.1,0.6,0.1
					c0.2,0,0.4,0.1,0.5,0.2c0.2,0.1,0.3,0.2,0.4,0.3c0.1,0.1,0.1,0.3,0.1,0.4c0,0.2,0,0.3-0.1,0.5c-0.1,0.1-0.2,0.2-0.3,0.3
					c-0.1,0.1-0.3,0.1-0.4,0.2c-0.2,0-0.3,0-0.5,0c-0.2,0-0.4,0-0.6-0.1c-0.2,0-0.3-0.1-0.5-0.2c-0.1-0.1-0.3-0.2-0.3-0.4
					c-0.1-0.2-0.1-0.3-0.1-0.6h-0.7c0,0.3,0.1,0.6,0.2,0.8c0.1,0.2,0.3,0.4,0.5,0.6c0.2,0.1,0.4,0.3,0.7,0.3
					c0.3,0.1,0.5,0.1,0.8,0.1c0.2,0,0.5,0,0.7-0.1c0.2-0.1,0.5-0.1,0.7-0.3c0.2-0.1,0.4-0.3,0.5-0.5c0.1-0.2,0.2-0.4,0.2-0.7
					c0-0.3,0-0.5-0.1-0.6c-0.1-0.2-0.2-0.3-0.4-0.4c-0.2-0.1-0.3-0.2-0.5-0.3c-0.2-0.1-0.4-0.1-0.6-0.2c-0.2,0-0.4-0.1-0.6-0.1
					c-0.2,0-0.4-0.1-0.5-0.2c-0.2-0.1-0.3-0.1-0.4-0.2c-0.1-0.1-0.1-0.2-0.1-0.4c0-0.2,0-0.3,0.1-0.4c0.1-0.1,0.2-0.2,0.3-0.3
					c0.1-0.1,0.2-0.1,0.4-0.1c0.1,0,0.3,0,0.4,0c0.4,0,0.7,0.1,0.9,0.2C54,30.1,54.1,30.3,54.1,30.7z"/>
			</g>
		</g>
		<path fill="#FFFFFF" d="M56.1,28.7c-0.4,0-0.6-0.3-0.6-0.6s0.3-0.6,0.6-0.6c0.4,0,0.6,0.3,0.6,0.6S56.4,28.7,56.1,28.7z
			 M56.1,27.4c-0.3,0-0.6,0.3-0.6,0.6c0,0.3,0.3,0.6,0.6,0.6c0.3,0,0.6-0.3,0.6-0.6C56.7,27.7,56.4,27.4,56.1,27.4z"/>
		<path fill="#FFFFFF" d="M56.4,28.3C56.4,28.3,56.3,28.3,56.4,28.3C56.3,28.2,56.3,28.2,56.4,28.3c0-0.1,0-0.1,0-0.1c0,0,0,0,0,0
			c0,0,0,0,0,0c0,0,0,0,0,0s0,0,0,0v0c0,0,0.1,0,0.1-0.1c0,0,0-0.1,0-0.1c0-0.1,0-0.1-0.1-0.1c0,0-0.1,0-0.1,0h-0.3v0.6h0.1v-0.3
			h0.2c0,0,0,0,0.1,0c0,0,0,0,0,0c0,0,0,0,0,0c0,0,0,0,0,0C56.3,28.2,56.3,28.2,56.4,28.3C56.3,28.2,56.3,28.3,56.4,28.3
			C56.3,28.3,56.3,28.3,56.4,28.3C56.3,28.3,56.3,28.3,56.4,28.3L56.4,28.3C56.4,28.3,56.4,28.3,56.4,28.3z M56.2,28
			C56.2,28,56.2,28,56.2,28c-0.1,0-0.1,0-0.1,0h-0.2v-0.2h0.2c0,0,0.1,0,0.1,0C56.3,27.8,56.3,27.8,56.2,28
			C56.3,27.9,56.3,27.9,56.2,28C56.2,27.9,56.2,28,56.2,28z"/>
	</g>
</g>
</svg>
