<?xml version="1.0" encoding="utf-8"?>
<!-- Generator: Adobe Illustrator 18.0.0, SVG Export Plug-In . SVG Version: 6.00 Build 0)  -->
<!DOCTYPE svg PUBLIC "-//W3C//DTD SVG 1.1//EN" "http://www.w3.org/Graphics/SVG/1.1/DTD/svg11.dtd">
<svg version="1.1" id="Слой_1" xmlns="http://www.w3.org/2000/svg" xmlns:xlink="http://www.w3.org/1999/xlink" x="0px" y="0px"
	 viewBox="0 0 66 80" enable-background="new 0 0 66 80" xml:space="preserve">
<g>
	<g>
		<g>
			<path fill="#FFFFFF" d="M53.4,79.7L53.4,79.7c0-0.9-0.7-1.6-1.6-1.6l0,0c-0.8,0-1.5,0.7-1.6,1.5l0,0l0,0.1h-1.6l0-0.1
				c0-0.8-0.7-1.5-1.6-1.5l0,0c-0.8,0-1.5,0.7-1.6,1.5l0,0l0,0.1h-1.6l0-0.1c0-0.8-0.7-1.5-1.6-1.5l0,0c-0.8,0-1.5,0.7-1.6,1.5l0,0
				l0,0.1h-1.6l0-0.1c0-0.8-0.7-1.5-1.6-1.5l0,0c-0.8,0-1.5,0.7-1.6,1.5l0,0l0,0.1h-1.6l0-0.1c0-0.8-0.7-1.5-1.6-1.5l0,0
				c-0.8,0-1.5,0.7-1.6,1.5l0,0l0,0.1h-1.6l0-0.1c0-0.8-0.7-1.5-1.6-1.5l0,0c-0.8,0-1.5,0.7-1.6,1.5l0,0l0,0.1h-1.6l0-0.1
				c0-0.8-0.7-1.5-1.6-1.5l0,0c-0.8,0-1.5,0.7-1.6,1.5l0,0l0,0.1H20l0-0.1c0-0.8-0.7-1.5-1.6-1.5l0,0c-0.8,0-1.5,0.7-1.6,1.5l0,0
				l0,0.1h-1.6l0-0.1c0-0.8-0.7-1.5-1.6-1.5l0,0c-0.8,0-1.5,0.7-1.6,1.5l0,0l0,0.1h-1.6l0-0.1c0-0.8-0.7-1.5-1.6-1.5l0,0
				c-0.8,0-1.5,0.7-1.6,1.5l0,0l0,0.1H5.6l0-0.1c0-0.8-0.7-1.5-1.6-1.5l0,0c-0.8,0-1.5,0.7-1.6,1.5l0,0l0,0.1H1.2l0,0
				c-0.2-0.2-0.4-0.4-0.6-0.5l0,0l0,0v-1.7l0.1,0c0.8-0.1,1.4-0.7,1.4-1.6l0,0c0-0.8-0.6-1.5-1.4-1.6l0,0l-0.1,0v-1.6l0.1,0
				c0.8-0.1,1.4-0.7,1.4-1.6l0,0c0-0.8-0.6-1.5-1.4-1.6l0,0l-0.1,0v-1.6l0.1,0c0.8-0.1,1.4-0.7,1.4-1.6l0,0c0-0.8-0.6-1.5-1.4-1.6
				l0,0l-0.1,0v-1.6l0.1,0c0.8-0.1,1.4-0.7,1.4-1.6l0,0c0-0.8-0.6-1.5-1.4-1.6l0,0l-0.1,0v-1.6l0.1,0c0.8-0.1,1.4-0.7,1.4-1.6l0,0
				c0-0.8-0.6-1.5-1.4-1.6l0,0l-0.1,0v-1.6l0.1,0c0.8-0.1,1.4-0.7,1.4-1.6l0,0c0-0.8-0.6-1.5-1.4-1.6l0,0l-0.1,0v-1.6l0.1,0
				c0.8-0.1,1.4-0.7,1.4-1.6l0,0c0-0.8-0.6-1.5-1.4-1.6l0,0l-0.1,0V44l0.1,0c0.8-0.1,1.4-0.7,1.4-1.6l0,0c0-0.8-0.6-1.5-1.4-1.6l0,0
				l-0.1,0v-1.6l0.1,0c0.8-0.1,1.4-0.7,1.4-1.6l0,0c0-0.8-0.6-1.5-1.4-1.6l0,0l-0.1,0v-1.6l0.1,0c0.8-0.1,1.4-0.7,1.4-1.6l0,0
				c0-0.8-0.6-1.5-1.4-1.6l0,0l-0.1,0v-1.6l0.1,0c0.8-0.1,1.4-0.7,1.4-1.6l0,0c0-0.8-0.6-1.5-1.4-1.6l0,0l-0.1,0v-1.6l0.1,0
				c0.8-0.1,1.4-0.7,1.4-1.6l0,0c0-0.8-0.6-1.5-1.4-1.6l0,0l-0.1,0v-1.6l0.1,0c0.8-0.1,1.4-0.7,1.4-1.6l0,0c0-0.8-0.6-1.5-1.4-1.6
				l0,0l-0.1,0v-1.6l0.1,0c0.8-0.1,1.4-0.7,1.4-1.6l0,0c0-0.8-0.6-1.5-1.4-1.6l0,0l-0.1,0v-1.6l0.1,0c0.8-0.1,1.4-0.7,1.4-1.6l0,0
				c0-0.8-0.6-1.5-1.4-1.6l0,0l-0.1,0V5.7l0.1,0C1.4,5.6,2.1,5,2.1,4.1l0,0c0-0.8-0.6-1.5-1.4-1.6l0,0l-0.1,0V1.4l0,0
				c0.4-0.2,0.7-0.5,0.8-1l0,0l0-0.1h1l0,0.1C2.6,1.2,3.2,1.8,4,1.8l0,0c0.8,0,1.5-0.6,1.6-1.4l0,0l0-0.1h1.6l0,0.1
				C7.3,1.2,8,1.8,8.8,1.8l0,0c0.8,0,1.5-0.6,1.6-1.4l0,0l0-0.1H12l0,0.1c0.1,0.8,0.8,1.4,1.6,1.4l0,0c0.8,0,1.5-0.6,1.6-1.4l0,0
				l0-0.1h1.6l0,0.1c0.1,0.8,0.8,1.4,1.6,1.4l0,0c0.8,0,1.5-0.6,1.6-1.4l0,0l0-0.1h1.6l0,0.1c0.1,0.8,0.8,1.4,1.6,1.4l0,0
				c0.8,0,1.5-0.6,1.6-1.4l0,0l0-0.1h1.6l0,0.1c0.1,0.8,0.8,1.4,1.6,1.4l0,0c0.8,0,1.5-0.6,1.6-1.4l0,0l0-0.1h1.6l0,0.1
				c0.1,0.8,0.8,1.4,1.6,1.4l0,0c0.8,0,1.5-0.6,1.6-1.4l0,0l0-0.1h1.6l0,0.1c0.1,0.8,0.8,1.4,1.6,1.4l0,0c0.8,0,1.5-0.6,1.6-1.4l0,0
				l0-0.1h1.6l0,0.1c0.1,0.8,0.8,1.4,1.6,1.4l0,0c0.8,0,1.5-0.6,1.6-1.4l0,0l0-0.1h1.6l0,0.1c0.1,0.8,0.8,1.4,1.6,1.4l0,0
				c0.8,0,1.5-0.6,1.6-1.4l0,0l0-0.1h1.6l0,0.1c0.1,0.8,0.8,1.4,1.6,1.4l0,0c0.8,0,1.5-0.6,1.6-1.4l0,0l0-0.1H55l0,0.1
				c0.1,0.8,0.8,1.4,1.6,1.4l0,0c0.8,0,1.5-0.6,1.6-1.4l0,0l0-0.1h1.6l0,0.1c0.1,0.8,0.8,1.4,1.6,1.4l0,0c0.8,0,1.5-0.6,1.6-1.4l0,0
				l0-0.1h1.3l0,0.1c0.2,0.5,0.6,0.9,1.1,1.1l0,0l0.1,0v1.1l-0.1,0c-0.8,0.1-1.4,0.7-1.4,1.6l0,0c0,0.8,0.6,1.5,1.4,1.6l0,0l0.1,0
				v1.6l-0.1,0c-0.8,0.1-1.4,0.7-1.4,1.6l0,0c0,0.8,0.6,1.5,1.4,1.6l0,0l0.1,0v1.6l-0.1,0c-0.8,0.1-1.4,0.7-1.4,1.6l0,0
				c0,0.8,0.6,1.5,1.4,1.6l0,0l0.1,0v1.6l-0.1,0c-0.8,0.1-1.4,0.7-1.4,1.6l0,0c0,0.8,0.6,1.5,1.4,1.6l0,0l0.1,0v1.6l-0.1,0
				c-0.8,0.1-1.4,0.7-1.4,1.6l0,0c0,0.8,0.6,1.5,1.4,1.6l0,0l0.1,0v1.6l-0.1,0c-0.8,0.1-1.4,0.7-1.4,1.6l0,0c0,0.8,0.6,1.5,1.4,1.6
				l0,0l0.1,0v1.6l-0.1,0c-0.8,0.1-1.4,0.7-1.4,1.6l0,0c0,0.8,0.6,1.5,1.4,1.6l0,0l0.1,0V36l-0.1,0c-0.8,0.1-1.4,0.7-1.4,1.6l0,0
				c0,0.8,0.6,1.5,1.4,1.6l0,0l0.1,0v1.6l-0.1,0c-0.8,0.1-1.4,0.7-1.4,1.6l0,0c0,0.8,0.6,1.5,1.4,1.6l0,0l0.1,0v1.6l-0.1,0
				c-0.8,0.1-1.4,0.7-1.4,1.6l0,0c0,0.8,0.6,1.5,1.4,1.6l0,0l0.1,0v1.6l-0.1,0c-0.8,0.1-1.4,0.7-1.4,1.6l0,0c0,0.8,0.6,1.5,1.4,1.6
				l0,0l0.1,0v1.6l-0.1,0c-0.8,0.1-1.4,0.7-1.4,1.6l0,0c0,0.8,0.6,1.5,1.4,1.6l0,0l0.1,0v1.6l-0.1,0c-0.8,0.1-1.4,0.7-1.4,1.6l0,0
				c0,0.8,0.6,1.5,1.4,1.6l0,0l0.1,0v1.6l-0.1,0c-0.8,0.1-1.4,0.7-1.4,1.6l0,0c0,0.8,0.6,1.5,1.4,1.6l0,0l0.1,0v1.6l-0.1,0
				c-0.8,0.1-1.4,0.7-1.4,1.6l0,0c0,0.8,0.6,1.5,1.4,1.6l0,0l0.1,0v1.6l-0.1,0c-0.8,0.1-1.4,0.7-1.4,1.6l0,0c0,0.8,0.6,1.5,1.4,1.6
				l0,0l0.1,0V79l-0.1,0c-0.3,0.1-0.6,0.3-0.8,0.6l0,0l0,0H63l0-0.1c0-0.8-0.7-1.5-1.6-1.5l0,0c-0.8,0-1.5,0.7-1.6,1.5l0,0l0,0.1
				h-1.6l0-0.1c0-0.8-0.7-1.5-1.6-1.5l0,0c-0.8,0-1.5,0.7-1.6,1.5l0,0l0,0.1H53.4L53.4,79.7z M64.5,79.5c0.2,0,0.5-0.5,0.8-0.6l0,0
				v-1.3c-0.9-0.1-1.5-0.8-1.5-1.7l0,0c0-0.9,0.7-1.6,1.5-1.7l0,0v-1.3c-0.9-0.1-1.5-0.8-1.5-1.7l0,0c0-0.9,0.7-1.6,1.5-1.7l0,0V68
				c-0.9-0.1-1.5-0.8-1.5-1.7l0,0c0-0.9,0.7-1.6,1.5-1.7l0,0v-1.3c-0.9-0.1-1.5-0.8-1.5-1.7l0,0c0-0.9,0.7-1.6,1.5-1.7l0,0v-1.3
				c-0.9-0.1-1.5-0.8-1.5-1.7l0,0c0-0.9,0.7-1.6,1.5-1.7l0,0v-1.3c-0.9-0.1-1.5-0.8-1.5-1.7l0,0c0-0.9,0.7-1.6,1.5-1.7l0,0v-1.3
				c-0.9-0.1-1.5-0.8-1.5-1.7l0,0c0-0.9,0.7-1.6,1.5-1.7l0,0v-1.3c-0.9-0.1-1.5-0.8-1.5-1.7l0,0c0-0.9,0.7-1.6,1.5-1.7l0,0v-1.3
				c-0.9-0.1-1.5-0.8-1.5-1.7l0,0c0-0.9,0.7-1.6,1.5-1.7l0,0v-1.3c-0.9-0.1-1.5-0.8-1.5-1.7l0,0c0-0.9,0.7-1.6,1.5-1.7l0,0v-1.3
				c-0.9-0.1-1.5-0.8-1.5-1.7l0,0c0-0.9,0.7-1.6,1.5-1.7l0,0V25c-0.9-0.1-1.5-0.8-1.5-1.7l0,0c0-0.9,0.7-1.6,1.5-1.7l0,0v-1.3
				c-0.9-0.1-1.5-0.8-1.5-1.7l0,0c0-0.9,0.7-1.6,1.5-1.7l0,0v-1.3c-0.9-0.1-1.5-0.8-1.5-1.7l0,0c0-0.9,0.7-1.6,1.5-1.7l0,0v-1.3
				c-0.9-0.1-1.5-0.8-1.5-1.7l0,0c0-0.9,0.7-1.6,1.5-1.7l0,0V5.9c-0.9-0.1-1.5-0.8-1.5-1.7l0,0c0-0.9,0.7-1.6,1.5-1.7l0,0V1.6
				c-0.5-0.2-0.9-0.6-1.1-1.1l0,0h-1.1C63,1.3,62.3,2,61.4,2l0,0c-0.9,0-1.6-0.6-1.7-1.5l0,0h-1.3C58.2,1.3,57.5,2,56.6,2l0,0
				c-0.9,0-1.6-0.6-1.7-1.5l0,0h-1.3C53.4,1.3,52.7,2,51.8,2l0,0c-0.9,0-1.6-0.6-1.7-1.5l0,0h-1.3C48.7,1.3,47.9,2,47.1,2l0,0
				c-0.9,0-1.6-0.6-1.7-1.5l0,0H44C43.9,1.3,43.2,2,42.3,2l0,0c-0.9,0-1.6-0.6-1.7-1.5l0,0h-1.3C39.1,1.3,38.4,2,37.5,2l0,0
				c-0.9,0-1.6-0.6-1.7-1.5l0,0h-1.3C34.3,1.3,33.6,2,32.7,2l0,0c-0.9,0-1.6-0.6-1.7-1.5l0,0h-1.3C29.5,1.3,28.8,2,27.9,2l0,0
				c-0.9,0-1.6-0.6-1.7-1.5l0,0h-1.3C24.8,1.3,24,2,23.2,2l0,0c-0.9,0-1.6-0.6-1.7-1.5l0,0h-1.3C20,1.3,19.3,2,18.4,2l0,0
				c-0.9,0-1.6-0.6-1.7-1.5l0,0h-1.3C15.2,1.3,14.5,2,13.6,2l0,0c-0.9,0-1.6-0.6-1.7-1.5l0,0h-1.3C10.4,1.3,9.7,2,8.8,2l0,0
				C7.9,2,7.2,1.3,7.1,0.5l0,0H5.8C5.6,1.3,4.9,2,4,2l0,0C3.2,2,2.4,1.3,2.3,0.5l0,0H1.6c-0.1,0.4-0.5,0.8-0.8,1l0,0v0.9
				c0.9,0.1,1.5,0.8,1.5,1.7l0,0c0,0.9-0.7,1.6-1.5,1.7l0,0v1.3C1.6,7.3,2.2,8,2.2,8.9l0,0c0,0.9-0.7,1.6-1.5,1.7l0,0V12
				c0.9,0.1,1.5,0.8,1.5,1.7l0,0c0,0.9-0.7,1.6-1.5,1.7l0,0v1.3c0.9,0.1,1.5,0.8,1.5,1.7l0,0c0,0.9-0.7,1.6-1.5,1.7l0,0v1.3
				c0.9,0.1,1.5,0.8,1.5,1.7l0,0c0,0.9-0.7,1.6-1.5,1.7l0,0v1.3c0.9,0.1,1.5,0.8,1.5,1.7l0,0c0,0.9-0.7,1.6-1.5,1.7l0,0v1.3
				c0.9,0.1,1.5,0.8,1.5,1.7l0,0c0,0.9-0.7,1.6-1.5,1.7l0,0v1.3c0.9,0.1,1.5,0.8,1.5,1.7l0,0c0,0.9-0.7,1.6-1.5,1.7l0,0v1.3
				c0.9,0.1,1.5,0.8,1.5,1.7l0,0c0,0.9-0.7,1.6-1.5,1.7l0,0v1.3c0.9,0.1,1.5,0.8,1.5,1.7l0,0c0,0.9-0.7,1.6-1.5,1.7l0,0v1.3
				c0.9,0.1,1.5,0.8,1.5,1.7l0,0c0,0.9-0.7,1.6-1.5,1.7l0,0V55c0.9,0.1,1.5,0.8,1.5,1.7l0,0c0,0.9-0.7,1.6-1.5,1.7l0,0v1.3
				c0.9,0.1,1.5,0.8,1.5,1.7l0,0c0,0.9-0.7,1.6-1.5,1.7l0,0v1.3c0.9,0.1,1.5,0.8,1.5,1.7l0,0c0,0.9-0.7,1.6-1.5,1.7l0,0v1.3
				c0.9,0.1,1.5,0.8,1.5,1.7l0,0c0,0.9-0.7,1.6-1.5,1.7l0,0v1.3c0.9,0.1,1.5,0.8,1.5,1.7l0,0c0,0.9-0.7,1.6-1.5,1.7l0,0V79
				c0.2,0.1,0.4,0.3,0.6,0.5l0,0h1c0.1-0.9,0.8-1.6,1.7-1.6l0,0c0.9,0,1.7,0.7,1.7,1.6l0,0h1.3c0.1-0.9,0.8-1.6,1.7-1.6l0,0
				c0.9,0,1.7,0.7,1.7,1.6l0,0h1.3c0.1-0.9,0.8-1.6,1.7-1.6l0,0c0.9,0,1.7,0.7,1.7,1.6l0,0h1.3c0.1-0.9,0.8-1.6,1.7-1.6l0,0
				c0.9,0,1.7,0.7,1.7,1.6l0,0h1.3c0.1-0.9,0.8-1.6,1.7-1.6l0,0c0.9,0,1.7,0.7,1.7,1.6l0,0h1.3c0.1-0.9,0.8-1.6,1.7-1.6l0,0
				c0.9,0,1.7,0.7,1.7,1.6l0,0H31c0.1-0.9,0.8-1.6,1.7-1.6l0,0c0.9,0,1.7,0.7,1.7,1.6l0,0h1.3c0.1-0.9,0.8-1.6,1.7-1.6l0,0
				c0.9,0,1.7,0.7,1.7,1.6l0,0h1.3c0.1-0.9,0.8-1.6,1.7-1.6l0,0c0.9,0,1.7,0.7,1.7,1.6l0,0h1.3c0.1-0.9,0.8-1.6,1.7-1.6l0,0
				c0.9,0,1.7,0.7,1.7,1.6l0,0h1.3c0.1-0.9,0.8-1.6,1.7-1.6l0,0c0.9,0,1.7,0.7,1.7,1.6l0,0h1.3c0.1-0.9,0.8-1.6,1.7-1.6l0,0
				c0.9,0,1.7,0.7,1.7,1.6l0,0h1.3c0.1-0.9,0.8-1.6,1.7-1.6l0,0c0.9,0,1.7,0.7,1.7,1.6l0,0H64.5L64.5,79.5z"/>
			<path fill="#FFFFFF" d="M63.9,75.8c0-0.9,0.7-1.6,1.5-1.7v-1.5c-0.9-0.1-1.5-0.8-1.5-1.7c0-0.9,0.7-1.6,1.5-1.7v-1.5
				c-0.9-0.1-1.5-0.8-1.5-1.7c0-0.9,0.7-1.6,1.5-1.7v-1.5c-0.9-0.1-1.5-0.8-1.5-1.7c0-0.9,0.7-1.6,1.5-1.7v-1.5
				c-0.9-0.1-1.5-0.8-1.5-1.7c0-0.9,0.7-1.6,1.5-1.7v-1.5c-0.9-0.1-1.5-0.8-1.5-1.7c0-0.9,0.7-1.6,1.5-1.7v-1.5
				c-0.9-0.1-1.5-0.8-1.5-1.7c0-0.9,0.7-1.6,1.5-1.7V44c-0.9-0.1-1.5-0.8-1.5-1.7c0-0.9,0.7-1.6,1.5-1.7v-1.5
				c-0.9-0.1-1.5-0.8-1.5-1.7s0.7-1.6,1.5-1.7v-1.5c-0.9-0.1-1.5-0.8-1.5-1.7c0-0.9,0.7-1.6,1.5-1.7v-1.5c-0.9-0.1-1.5-0.8-1.5-1.7
				c0-0.9,0.7-1.6,1.5-1.7v-1.5c-0.9-0.1-1.5-0.8-1.5-1.7c0-0.9,0.7-1.6,1.5-1.7v-1.5c-0.9-0.1-1.5-0.8-1.5-1.7
				c0-0.9,0.7-1.6,1.5-1.7v-1.5c-0.9-0.1-1.5-0.8-1.5-1.7c0-0.9,0.7-1.6,1.5-1.7v-1.5c-0.9-0.1-1.5-0.8-1.5-1.7
				c0-0.9,0.7-1.6,1.5-1.7V5.8c-0.9-0.1-1.5-0.8-1.5-1.7c0-0.9,0.7-1.6,1.5-1.7v-1c-0.5-0.2-1-0.6-1.1-1.1h-1.2
				c-0.1,0.8-0.8,1.5-1.7,1.5c-0.9,0-1.6-0.7-1.7-1.5h-1.5c-0.1,0.8-0.8,1.5-1.7,1.5c-0.9,0-1.6-0.7-1.7-1.5h-1.5
				c-0.1,0.8-0.8,1.5-1.7,1.5c-0.9,0-1.6-0.7-1.7-1.5h-1.5c-0.1,0.8-0.8,1.5-1.7,1.5c-0.9,0-1.6-0.7-1.7-1.5h-1.5
				c-0.1,0.8-0.8,1.5-1.7,1.5c-0.9,0-1.6-0.7-1.7-1.5h-1.5c-0.1,0.8-0.8,1.5-1.7,1.5c-0.9,0-1.6-0.7-1.7-1.5h-1.5
				c-0.1,0.8-0.8,1.5-1.7,1.5c-0.9,0-1.6-0.7-1.7-1.5h-1.5c-0.1,0.8-0.8,1.5-1.7,1.5c-0.9,0-1.6-0.7-1.7-1.5h-1.5
				c-0.1,0.8-0.8,1.5-1.7,1.5c-0.9,0-1.6-0.7-1.7-1.5H20c-0.1,0.8-0.8,1.5-1.7,1.5c-0.9,0-1.6-0.7-1.7-1.5h-1.5
				c-0.1,0.8-0.8,1.5-1.7,1.5c-0.9,0-1.6-0.7-1.7-1.5h-1.5c-0.1,0.8-0.8,1.5-1.7,1.5C8,1.9,7.3,1.2,7.2,0.4H5.7
				C5.6,1.2,4.9,1.9,4,1.9c-0.9,0-1.6-0.7-1.7-1.5H1.5C1.4,0.8,1,1.2,0.6,1.4v1.1c0.9,0.1,1.5,0.8,1.5,1.7c0,0.9-0.7,1.6-1.5,1.7
				v1.5c0.9,0.1,1.5,0.8,1.5,1.7s-0.7,1.6-1.5,1.7v1.5c0.9,0.1,1.5,0.8,1.5,1.7c0,0.9-0.7,1.6-1.5,1.7v1.5c0.9,0.1,1.5,0.8,1.5,1.7
				c0,0.9-0.7,1.6-1.5,1.7v1.5c0.9,0.1,1.5,0.8,1.5,1.7c0,0.9-0.7,1.6-1.5,1.7v1.5c0.9,0.1,1.5,0.8,1.5,1.7c0,0.9-0.7,1.6-1.5,1.7
				v1.5c0.9,0.1,1.5,0.8,1.5,1.7c0,0.9-0.7,1.6-1.5,1.7V36c0.9,0.1,1.5,0.8,1.5,1.7s-0.7,1.6-1.5,1.7v1.5c0.9,0.1,1.5,0.8,1.5,1.7
				c0,0.9-0.7,1.6-1.5,1.7v1.5c0.9,0.1,1.5,0.8,1.5,1.7c0,0.9-0.7,1.6-1.5,1.7v1.5c0.9,0.1,1.5,0.8,1.5,1.7c0,0.9-0.7,1.6-1.5,1.7
				v1.5c0.9,0.1,1.5,0.8,1.5,1.7c0,0.9-0.7,1.6-1.5,1.7v1.5c0.9,0.1,1.5,0.8,1.5,1.7c0,0.9-0.7,1.6-1.5,1.7v1.5
				c0.9,0.1,1.5,0.8,1.5,1.7c0,0.9-0.7,1.6-1.5,1.7v1.5c0.9,0.1,1.5,0.8,1.5,1.7c0,0.9-0.7,1.6-1.5,1.7v1.5c0.9,0.1,1.5,0.8,1.5,1.7
				c0,0.9-0.7,1.6-1.5,1.7v1.6c0.3,0.1,0.5,0.3,0.6,0.5h1.1C2.4,78.7,3.1,78,4,78c0.9,0,1.6,0.7,1.7,1.6h1.5c0-0.9,0.8-1.6,1.7-1.6
				s1.6,0.7,1.7,1.6h1.5c0-0.9,0.8-1.6,1.7-1.6s1.6,0.7,1.7,1.6h1.5c0-0.9,0.8-1.6,1.7-1.6s1.6,0.7,1.7,1.6h1.5
				c0-0.9,0.8-1.6,1.7-1.6s1.6,0.7,1.7,1.6h1.5c0-0.9,0.8-1.6,1.7-1.6s1.6,0.7,1.7,1.6h1.5c0-0.9,0.8-1.6,1.7-1.6
				c0.9,0,1.6,0.7,1.7,1.6h1.5c0-0.9,0.8-1.6,1.7-1.6c0.9,0,1.6,0.7,1.7,1.6h1.5c0-0.9,0.8-1.6,1.7-1.6c0.9,0,1.6,0.7,1.7,1.6h1.5
				c0-0.9,0.8-1.6,1.7-1.6c0.9,0,1.6,0.7,1.7,1.6h1.5c0-0.9,0.8-1.6,1.7-1.6c0.9,0,1.6,0.7,1.7,1.6H55c0-0.9,0.8-1.6,1.7-1.6
				c0.9,0,1.6,0.7,1.7,1.6h1.5c0-0.9,0.8-1.6,1.7-1.6c0.9,0,1.6,0.7,1.7,1.6h1.5c0.2-0.3,0.5-0.5,0.9-0.6v-1.5
				C64.5,77.4,63.9,76.7,63.9,75.8z"/>
		</g>
		<linearGradient id="SVGID_1_" gradientUnits="userSpaceOnUse" x1="33" y1="4.1368" x2="33" y2="75.8438">
			<stop  offset="0" style="stop-color:#E1C030"/>
			<stop  offset="1" style="stop-color:#CDA33C"/>
		</linearGradient>
		<polygon fill="url(#SVGID_1_)" points="61.3,75.8 4.7,75.8 4.7,4.1 61.3,4.1 61.3,75.8 		"/>
	</g>
	<g>
		<path fill="#FFFFFF" d="M27.9,70.5c-0.1,0.1-0.3,0.3-0.5,0.4c-0.2,0.1-0.6,0.2-0.9,0.2c-0.5,0-0.9-0.2-1.2-0.5
			c-0.3-0.3-0.5-0.7-0.5-1.3v-0.8c0-0.5,0.1-0.9,0.4-1.2c0.3-0.3,0.7-0.5,1.1-0.5c0.4,0,0.8,0.1,1,0.3c0.2,0.2,0.4,0.5,0.4,0.9l0,0
			h-0.3c0-0.3-0.2-0.5-0.3-0.7c-0.2-0.2-0.4-0.3-0.8-0.3c-0.4,0-0.7,0.1-0.9,0.4c-0.2,0.3-0.3,0.6-0.3,1v0.8c0,0.4,0.1,0.8,0.4,1.1
			c0.2,0.3,0.5,0.4,0.9,0.4c0.3,0,0.5,0,0.7-0.1c0.2-0.1,0.3-0.2,0.4-0.2v-1.1h-1.1v-0.3h1.4V70.5z"/>
		<path fill="#FFFFFF" d="M32.5,69.3c0,0.5-0.1,1-0.4,1.3c-0.3,0.3-0.7,0.5-1.2,0.5c-0.5,0-0.9-0.2-1.1-0.5
			c-0.3-0.3-0.4-0.8-0.4-1.3v-0.7c0-0.5,0.1-1,0.4-1.3c0.3-0.3,0.7-0.5,1.1-0.5c0.5,0,0.9,0.2,1.2,0.5c0.3,0.3,0.4,0.8,0.4,1.3V69.3
			z M32.2,68.6c0-0.4-0.1-0.8-0.3-1.1c-0.2-0.3-0.5-0.4-0.9-0.4c-0.4,0-0.7,0.1-0.9,0.4c-0.2,0.3-0.3,0.6-0.3,1.1v0.7
			c0,0.4,0.1,0.8,0.3,1.1c0.2,0.3,0.5,0.4,0.9,0.4c0.4,0,0.7-0.1,0.9-0.4c0.2-0.3,0.3-0.6,0.3-1.1V68.6z"/>
		<path fill="#FFFFFF" d="M34.3,70.7h2V71H34v-4.1h0.3V70.7z"/>
		<path fill="#FFFFFF" d="M37.6,71v-4.1h1.2c0.5,0,0.9,0.2,1.2,0.5s0.5,0.8,0.5,1.3v0.5c0,0.5-0.2,1-0.5,1.3
			c-0.3,0.3-0.7,0.5-1.2,0.5H37.6z M37.9,67.2v3.5h0.9c0.4,0,0.7-0.1,1-0.4c0.3-0.3,0.4-0.6,0.4-1.1v-0.5c0-0.4-0.1-0.8-0.4-1.1
			c-0.3-0.3-0.6-0.4-1-0.4H37.9z"/>
	</g>
	<g>
		<g id="Rounded_Rectangle_1_4_">
			<g>
				<path fill="#FFFFFF" d="M35,61.7h-4c-0.9,0-1.7-0.7-1.7-1.7v-4c0-0.9,0.8-1.7,1.7-1.7h4c0.9,0,1.7,0.8,1.7,1.7v4
					C36.7,60.9,36,61.7,35,61.7z M31,54.3c-0.9,0-1.7,0.8-1.7,1.7v4c0,0.9,0.7,1.7,1.7,1.7h4c0.9,0,1.7-0.7,1.7-1.7v-4
					c0-0.9-0.7-1.7-1.7-1.7H31z"/>
			</g>
			<g>
				<path fill="#FFFFFF" d="M35,54.4c0.9,0,1.6,0.7,1.6,1.6v4c0,0.9-0.7,1.6-1.6,1.6h-4c-0.9,0-1.6-0.7-1.6-1.6v-4
					c0-0.9,0.7-1.6,1.6-1.6H35 M35,54.2h-4c-1,0-1.8,0.8-1.8,1.8v4c0,1,0.8,1.8,1.8,1.8h4c1,0,1.8-0.8,1.8-1.8v-4
					C36.8,55,36,54.2,35,54.2L35,54.2z"/>
			</g>
		</g>
		<path fill="#FFFFFF" d="M30.2,51.4c0.1,0.2,0.1,0.4,0.2,0.6c-0.3,0.1-0.5,0.2-0.7-0.2c-1.4-2.6-2.9-5.1-4.2-7.8
			c-1.2-2.5-2.4-5-3.4-7.6c0,0,0-0.1,0-0.1h3.8c0.7,2.9,1.5,5.8,2.3,8.6C28.8,47.1,29.5,49.2,30.2,51.4z"/>
		<path fill="#FFFFFF" d="M19.4,28.1h4.8c-0.1-0.6-0.2-1.2-0.3-1.8c-0.4-2.8-0.5-5.6,0-8.4c0.3-1.9,0.9-3.7,2-5.3
			c0.5-0.7,1.1-1.3,1.7-2c0,0,0,0,0-0.1c-0.8,0.3-1.7,0.6-2.5,1c-2.8,1.4-4.7,3.7-5.7,6.7c-0.7,2.3-0.8,4.7-0.5,7.2
			C19.1,26.3,19.3,27.2,19.4,28.1z"/>
		<path fill="#FFFFFF" d="M40.3,36.4c-0.4,1.7-0.8,3.4-1.3,5.1c-0.7,2.6-1.6,5.3-2.4,7.9c-0.3,0.9-0.6,1.8-0.9,2.7
			c0.5,0.1,0.5,0.1,0.7-0.3c0.1-0.2,0.3-0.5,0.4-0.7c1.2-2.3,2.5-4.6,3.7-7c1.3-2.5,2.4-5,3.5-7.7H40.3z"/>
		<path fill="#FFFFFF" d="M38.5,10.8c1.2,1,2.1,2.3,2.7,3.8c0.8,2,1.1,4.1,1.2,6.3c0.1,2.4-0.1,4.8-0.5,7.2h4.8
			c0.2-1.2,0.4-2.3,0.5-3.5c0.2-2.5,0-4.9-0.9-7.2c-0.5-1.2-1.2-2.3-2.1-3.3c-1-1.1-2.2-2-3.5-2.6c-0.7-0.3-1.5-0.6-2.3-0.9
			c0,0.1,0,0.1,0,0.2C38.4,10.7,38.5,10.7,38.5,10.8z"/>
		<path fill="#FFFFFF" d="M18.3,37.9c-0.3-0.5-0.5-1-0.8-1.5h-0.9c1.4,2.6,3,4.9,4.7,7.2c0.4,0.6,0.9,1.1,1.3,1.7
			c-0.1-0.2-0.2-0.4-0.3-0.6C21,42.4,19.6,40.2,18.3,37.9z"/>
		<path fill="#FFFFFF" d="M13.2,28.1h1.3c-0.4-1.9-0.6-3.8-0.5-5.8c0.2-2.3,0.8-4.5,2.1-6.4c0.3-0.5,0.6-0.9,0.9-1.3
			c-1.2,0.9-2.4,2.4-3.1,3.8c-1.4,2.8-1.6,5.8-1,8.8C13,27.4,13.1,27.7,13.2,28.1z"/>
		<path fill="#FFFFFF" d="M46.9,39.5c-0.7,1.4-1.6,2.7-2.4,4c-0.3,0.6-0.7,1.1-1,1.7c0,0,0.1,0,0.1,0.1c0,0,0-0.1,0.1-0.1
			c0.9-1.2,1.8-2.4,2.7-3.7c1.1-1.6,2.1-3.3,3.1-5h-0.8C48,37.4,47.5,38.5,46.9,39.5z"/>
		<path fill="#FFFFFF" d="M50.8,17.5c1.2,2.6,1.5,5.3,1.2,8.2c-0.1,0.8-0.2,1.6-0.4,2.4h1.3c0.6-2.5,0.8-4.9,0.1-7.4
			c-0.7-2.5-2.1-4.5-4.1-6.1c0.1,0.1,0.2,0.2,0.2,0.3C49.8,15.7,50.4,16.5,50.8,17.5z"/>
		<path fill="#FFFFFF" d="M31.8,42.4c0.2,2.2,0.5,4.4,0.7,6.6c0.1,0.9,0.2,1.9,0.4,2.8c0,0.1,0.1,0.2,0.2,0.2
			c0.1-0.1,0.2-0.2,0.2-0.3c0.1-0.3,0.1-0.6,0.1-0.9c0.3-2.6,0.6-5.3,0.9-7.9c0.2-2.2,0.4-4.4,0.6-6.7h-3.7
			C31.4,38.3,31.6,40.4,31.8,42.4z"/>
		<path fill="#FFFFFF" d="M30.5,28.1H33h2.5c0-0.4,0.1-1,0.1-1.5c0.2-3.4,0.4-6.7,0.1-10.1c-0.1-1.5-0.4-2.9-1-4.3
			c-0.2-0.6-0.7-1.1-1.1-1.6c-0.2-0.2-0.4-0.3-0.6-0.3c-0.3,0-0.4,0.1-0.6,0.3c-0.5,0.5-0.8,1-1.1,1.6c-0.6,1.4-0.9,2.9-1,4.3
			c-0.3,3.4-0.1,6.7,0.1,10.1C30.5,27,30.5,27.6,30.5,28.1z"/>
		<path fill="#FFFFFF" d="M34.7,57.2c-0.4-1.2-1.2-1.6-2.4-1.2l-1.3,0.4l1.2,3.7l1.3-0.4C34.8,59.3,35.1,58.5,34.7,57.2z M33.5,59.3
			l-0.8,0.3l-0.9-2.9l0.8-0.3c0.9-0.3,1.4,0.1,1.7,1C34.7,58.8,33.8,59.2,33.5,59.3z"/>
		<g>
			<g>
				<polygon fill="#FFFFFF" points="11.5,29.6 11.5,34.8 12.2,34.8 12.2,30.5 12.2,30.5 13.8,34.8 14.4,34.8 16,30.5 16,30.5 
					16,34.8 16.7,34.8 16.7,29.6 15.8,29.6 14.1,34 12.5,29.6 				"/>
			</g>
			<g>
				<polygon fill="#FFFFFF" points="20,32.7 22,29.6 21.2,29.6 19.7,32.1 18.1,29.6 17.3,29.6 19.3,32.7 19.3,34.8 20,34.8 				"/>
			</g>
			<path fill="#FFFFFF" d="M28.3,30.2c-0.4-0.4-1.1-0.6-1.9-0.6h-1.8v5.2h1.8c0.4,0,0.8-0.1,1.1-0.2c0.3-0.1,0.6-0.3,0.8-0.5
				c0.2-0.2,0.4-0.5,0.5-0.9c0.1-0.3,0.1-0.7,0.1-1.2C28.9,31.3,28.7,30.7,28.3,30.2z M28.1,33c-0.1,0.2-0.1,0.4-0.3,0.6
				c-0.1,0.2-0.2,0.3-0.3,0.4c-0.1,0.1-0.3,0.2-0.4,0.2c-0.1,0-0.3,0.1-0.4,0.1c-0.1,0-0.2,0-0.3,0h-1.2v-4h1.2c0.3,0,0.6,0,0.8,0.1
				c0.2,0.1,0.4,0.2,0.5,0.4c0.1,0.2,0.2,0.4,0.3,0.6c0.1,0.2,0.1,0.5,0.1,0.8C28.2,32.5,28.2,32.8,28.1,33z"/>
			<path fill="#FFFFFF" d="M33.8,34.6c0-0.1-0.1-0.2-0.1-0.4c0-0.1,0-0.3,0-0.4c0-0.1,0-0.3,0-0.4c0-0.1,0-0.2-0.1-0.4
				c0-0.1-0.1-0.2-0.1-0.3c-0.1-0.1-0.1-0.2-0.2-0.2c-0.1-0.1-0.2-0.1-0.4-0.1v0c0.3-0.1,0.6-0.3,0.7-0.5c0.1-0.2,0.2-0.5,0.2-0.8
				c0-0.4-0.1-0.8-0.4-1c-0.3-0.2-0.7-0.4-1.2-0.4h-2.5v5.2h0.8v-2.2h1.7c0.2,0,0.3,0,0.4,0.1c0.1,0.1,0.2,0.1,0.2,0.2
				c0.1,0.1,0.1,0.2,0.1,0.3c0,0.1,0.1,0.2,0.1,0.4c0,0.1,0,0.3,0,0.4c0,0.1,0,0.3,0,0.4c0,0.1,0,0.2,0,0.3c0,0.1,0,0.2,0.1,0.2H34
				C33.9,34.7,33.9,34.7,33.8,34.6z M32.8,31.9c-0.1,0.1-0.2,0.1-0.4,0.1c-0.1,0-0.3,0-0.5,0h-1.4v-1.8h1.7c0.3,0,0.6,0.1,0.7,0.2
				c0.1,0.2,0.2,0.4,0.2,0.6c0,0.2,0,0.3-0.1,0.5C33,31.7,32.9,31.8,32.8,31.9z"/>
			<g>
				<polygon fill="#FFFFFF" points="34.8,29.6 34.8,34.8 38.4,34.8 38.4,34.3 35.4,34.3 35.4,32.5 38.2,32.5 38.2,31.8 35.4,31.8 
					35.4,30.2 38.4,30.2 38.4,29.6 				"/>
			</g>
			<path fill="#FFFFFF" d="M41.4,29.6h-0.8l-2,5.2h0.7l0.6-1.6h2.2l0.6,1.6h0.8L41.4,29.6z M40.1,32.7l0.9-2.5h0l0.9,2.5H40.1z"/>
			<g>
				<polygon fill="#FFFFFF" points="44,29.6 44,34.8 44.6,34.8 44.6,30.5 44.7,30.5 46.3,34.8 46.9,34.8 48.5,30.5 48.5,30.5 
					48.5,34.8 49.2,34.8 49.2,29.6 48.2,29.6 46.6,34 44.9,29.6 				"/>
			</g>
			<g>
				<path fill="#FFFFFF" d="M53.4,31.1H54c0-0.3-0.1-0.5-0.2-0.7c-0.1-0.2-0.2-0.4-0.4-0.5c-0.2-0.1-0.4-0.2-0.6-0.3
					c-0.2-0.1-0.5-0.1-0.7-0.1c-0.2,0-0.5,0-0.7,0.1c-0.2,0.1-0.4,0.2-0.6,0.3c-0.2,0.1-0.3,0.3-0.4,0.5c-0.1,0.2-0.2,0.4-0.2,0.7
					c0,0.2,0,0.4,0.1,0.6c0.1,0.2,0.2,0.3,0.4,0.4c0.2,0.1,0.3,0.2,0.5,0.2c0.2,0.1,0.4,0.1,0.6,0.2c0.2,0,0.4,0.1,0.6,0.1
					c0.2,0,0.4,0.1,0.5,0.2c0.2,0.1,0.3,0.2,0.4,0.3c0.1,0.1,0.1,0.3,0.1,0.4c0,0.2,0,0.3-0.1,0.5c-0.1,0.1-0.2,0.2-0.3,0.3
					c-0.1,0.1-0.3,0.1-0.4,0.1c-0.2,0-0.3,0-0.5,0c-0.2,0-0.4,0-0.6-0.1c-0.2,0-0.3-0.1-0.5-0.2c-0.1-0.1-0.3-0.2-0.3-0.4
					c-0.1-0.2-0.1-0.3-0.1-0.6H50c0,0.3,0.1,0.6,0.2,0.8c0.1,0.2,0.3,0.4,0.5,0.6c0.2,0.1,0.4,0.3,0.7,0.3c0.3,0.1,0.5,0.1,0.8,0.1
					c0.2,0,0.5,0,0.7-0.1c0.2-0.1,0.5-0.1,0.7-0.3c0.2-0.1,0.4-0.3,0.5-0.5c0.1-0.2,0.2-0.4,0.2-0.7c0-0.3,0-0.5-0.1-0.6
					c-0.1-0.2-0.2-0.3-0.4-0.4c-0.2-0.1-0.3-0.2-0.5-0.3C53,32,52.8,32,52.6,31.9c-0.2,0-0.4-0.1-0.6-0.1c-0.2,0-0.4-0.1-0.5-0.2
					c-0.2-0.1-0.3-0.1-0.4-0.2c-0.1-0.1-0.1-0.2-0.1-0.4c0-0.2,0-0.3,0.1-0.4c0.1-0.1,0.2-0.2,0.3-0.3c0.1-0.1,0.2-0.1,0.4-0.1
					c0.1,0,0.3,0,0.4,0c0.4,0,0.7,0.1,0.9,0.2C53.2,30.5,53.3,30.7,53.4,31.1z"/>
			</g>
		</g>
		<path fill="#FFFFFF" d="M55.3,29.1c-0.4,0-0.6-0.3-0.6-0.6c0-0.4,0.3-0.6,0.6-0.6c0.4,0,0.6,0.3,0.6,0.6
			C55.9,28.8,55.7,29.1,55.3,29.1z M55.3,27.8c-0.3,0-0.6,0.3-0.6,0.6S55,29,55.3,29s0.6-0.3,0.6-0.6S55.6,27.8,55.3,27.8z"/>
		<path fill="#FFFFFF" d="M55.6,28.7C55.6,28.7,55.6,28.7,55.6,28.7C55.6,28.7,55.6,28.6,55.6,28.7c0-0.1,0-0.1,0-0.1c0,0,0,0,0,0
			c0,0,0,0,0,0c0,0,0,0,0,0c0,0,0,0,0,0v0c0,0,0.1,0,0.1-0.1c0,0,0-0.1,0-0.1c0-0.1,0-0.1-0.1-0.1c0,0-0.1,0-0.1,0h-0.3v0.6h0.1
			v-0.3h0.2c0,0,0,0,0.1,0c0,0,0,0,0,0c0,0,0,0,0,0c0,0,0,0,0,0C55.5,28.6,55.5,28.6,55.6,28.7C55.5,28.7,55.5,28.7,55.6,28.7
			C55.5,28.7,55.5,28.7,55.6,28.7C55.5,28.7,55.5,28.7,55.6,28.7L55.6,28.7C55.6,28.7,55.6,28.7,55.6,28.7z M55.4,28.4
			C55.4,28.4,55.4,28.4,55.4,28.4c-0.1,0-0.1,0-0.1,0h-0.2v-0.2h0.2c0,0,0.1,0,0.1,0C55.5,28.2,55.5,28.3,55.4,28.4
			C55.5,28.3,55.5,28.3,55.4,28.4C55.5,28.4,55.4,28.4,55.4,28.4z"/>
	</g>
</g>
</svg>
