<?xml version="1.0" encoding="utf-8"?>
<!-- Generator: Adobe Illustrator 17.0.0, SVG Export Plug-In . SVG Version: 6.00 Build 0)  -->
<!DOCTYPE svg PUBLIC "-//W3C//DTD SVG 1.1//EN" "http://www.w3.org/Graphics/SVG/1.1/DTD/svg11.dtd">
<svg version="1.1" id="Слой_1" xmlns="http://www.w3.org/2000/svg" xmlns:xlink="http://www.w3.org/1999/xlink" x="0px" y="0px"
	  width="104" height="135" preserveAspectRatio="none" viewBox="0 0 816.12 997.95" enable-background="new -0.5 -0.5 819.182 1001"
	 xml:space="preserve">
<g>
	<g>
		<path fill="none" stroke="#AAAAAA" stroke-miterlimit="10" d="M666.411,1000l-0.041-0.987
			c-0.45-10.593-9.155-19.057-19.861-19.052l0,0c-10.703-0.005-19.403,8.459-19.861,19.052l0,0l-0.04,0.982h-20.438l-0.04-0.982
			c-0.451-10.593-9.156-19.057-19.856-19.052l0,0c-10.709-0.005-19.417,8.459-19.862,19.052l0,0l-0.046,0.987h-20.438l-0.04-0.987
			c-0.445-10.593-9.15-19.057-19.856-19.052l0,0c-10.708-0.005-19.411,8.459-19.861,19.052l0,0l-0.04,0.982h-20.444l-0.04-0.982
			c-0.451-10.593-9.153-19.057-19.856-19.052l0,0c-10.706-0.005-19.411,8.459-19.861,19.052l0,0l-0.04,0.987h-20.438l-0.04-0.987
			c-0.451-10.593-9.159-19.057-19.862-19.052l0,0c-10.706-0.005-19.406,8.459-19.856,19.052l0,0l-0.046,0.982h-20.441l-0.04-0.982
			c-0.451-10.593-9.15-19.057-19.854-19.052l0,0c-10.706-0.005-19.419,8.459-19.861,19.052l0,0l-0.048,0.987H304.97l-0.04-0.987
			c-0.451-10.593-9.157-19.057-19.862-19.052l0,0c-10.704-0.005-19.411,8.459-19.855,19.052l0,0l-0.04,0.982h-20.445l-0.04-0.982
			c-0.451-10.593-9.157-19.057-19.856-19.052l0,0c-10.704-0.005-19.416,8.459-19.862,19.052l0,0l-0.046,0.987h-20.439l-0.04-0.987
			c-0.444-10.593-9.15-19.057-19.855-19.052l0,0c-10.704-0.005-19.411,8.459-19.862,19.052l0,0l-0.041,0.982h-20.445l-0.04-0.982
			c-0.445-10.593-9.152-19.057-19.856-19.052l0,0c-10.704-0.005-19.411,8.459-19.855,19.052l0,0L84.445,1000H64.007l-0.04-0.987
			c-0.445-10.593-9.157-19.057-19.861-19.052l0,0c-10.705-0.005-19.406,8.459-19.856,19.052l0,0l-0.04,0.987H8.389l-0.306-0.434
			c-1.934-2.666-4.503-4.833-7.5-6.276l0,0l-0.578-0.284v-21.305l0.941-0.075c10.208-0.847,18.239-9.387,18.239-19.814l0,0
			c0-10.433-8.031-18.972-18.239-19.819l0,0l-0.941-0.081v-20.447l0.941-0.08c10.208-0.848,18.239-9.381,18.239-19.814l0,0
			c0-10.438-8.031-18.977-18.239-19.824l0,0l-0.941-0.075v-20.452l0.941-0.075c10.208-0.848,18.239-9.387,18.239-19.814l0,0
			c0-10.433-8.031-18.972-18.239-19.823l0,0l-0.941-0.08v-20.444l0.941-0.08c10.208-0.845,18.239-9.384,18.239-19.816l0,0
			c0-10.427-8.031-18.972-18.239-19.815l0,0l-0.941-0.08v-20.451l0.941-0.075c10.208-0.849,18.239-9.388,18.239-19.817l0,0
			c0-10.433-8.031-18.972-18.239-19.821l0,0L0,690.945v-20.444l0.947-0.075c10.208-0.849,18.239-9.395,18.239-19.822l0,0
			c0-10.434-8.031-18.973-18.239-19.816l0,0l-0.941-0.08v-20.451l0.941-0.075c10.208-0.849,18.239-9.388,18.239-19.822l0,0
			c0-10.427-8.031-18.972-18.239-19.815l0,0L0,570.464v-20.446l0.947-0.081c10.208-0.849,18.239-9.388,18.239-19.816l0,0
			c0-10.433-8.031-18.972-18.239-19.821l0,0l-0.941-0.075v-20.451l0.941-0.082c10.208-0.842,18.239-9.388,18.239-19.815l0,0
			c0-10.427-8.031-18.973-18.239-19.822l0,0L0,449.981V429.53l0.947-0.075c10.208-0.849,18.239-9.393,18.239-19.822l0,0
			c0-10.427-8.031-18.972-18.239-19.815l0,0l-0.941-0.08v-20.451l0.941-0.075c10.208-0.849,18.239-9.389,18.239-19.816l0,0
			c0-10.433-8.031-18.973-18.239-19.821l0,0L0,329.494v-20.446l0.947-0.074c10.208-0.849,18.239-9.395,18.239-19.822l0,0
			c0-10.427-8.031-18.973-18.239-19.816l0,0l-0.941-0.08v-20.451l0.941-0.075c10.208-0.849,18.239-9.388,18.239-19.815l0,0
			c0-10.434-8.031-18.978-18.239-19.822l0,0L0,209.012v-20.446l0.947-0.08c10.208-0.849,18.239-9.389,18.239-19.816l0,0
			c0-10.432-8.031-18.973-18.239-19.822l0,0l-0.941-0.08v-20.445l0.941-0.08c10.208-0.842,18.239-9.388,18.239-19.815l0,0
			c0-10.427-8.031-18.973-18.239-19.822l0,0L0,88.53V68.079l0.947-0.075c10.208-0.849,18.239-9.394,18.239-19.822l0,0
			c0-10.427-8.031-18.972-18.239-19.815l0,0L0,28.286V13.285l0.583-0.276c5.011-2.421,8.851-6.861,10.456-12.27l0,0L11.258,0h12.962
			l0.098,0.924c1.057,9.989,9.508,17.789,19.787,17.782l0,0c10.277,0.007,18.735-7.794,19.792-17.782l0,0L63.995,0h20.462
			l0.103,0.924c1.057,9.989,9.51,17.789,19.786,17.782l0,0c10.277,0.007,18.73-7.794,19.787-17.782l0,0L124.231,0h20.475
			l0.091,0.924c1.056,9.989,9.515,17.789,19.793,17.782l0,0c10.271,0.007,18.73-7.794,19.786-17.782l0,0L184.474,0h20.468
			l0.098,0.924c1.057,9.989,9.515,17.789,19.792,17.782l0,0c10.271,0.007,18.729-7.794,19.786-17.782l0,0L244.716,0h20.468
			l0.098,0.924c1.057,9.989,9.51,17.789,19.786,17.782l0,0c10.278,0.007,18.73-7.794,19.792-17.782l0,0l0.1-0.924h20.455
			l0.102,0.924c1.056,9.989,9.515,17.789,19.794,17.782l0,0c10.277,0.007,18.73-7.788,19.786-17.782l0,0L365.194,0h20.468
			l0.099,0.924c1.057,9.994,9.51,17.789,19.786,17.782l0,0c10.277,0.007,18.73-7.794,19.792-17.782l0,0L425.431,0h20.468
			l0.099,0.924c1.062,9.989,9.515,17.789,19.792,17.782l0,0c10.277,0.007,18.73-7.794,19.786-17.782l0,0L485.672,0h20.468
			l0.099,0.924c1.062,9.989,9.515,17.789,19.792,17.782l0,0c10.272,0.007,18.73-7.794,19.786-17.782l0,0L545.917,0h20.46
			l0.105,0.924c1.057,9.989,9.51,17.789,19.792,17.782l0,0c10.276,0.007,18.724-7.788,19.786-17.782l0,0L606.153,0h20.468
			l0.102,0.924c1.057,9.994,9.51,17.789,19.786,17.782l0,0c10.279,0.007,18.73-7.794,19.795-17.782l0,0L666.395,0h20.462
			l0.105,0.924c1.057,9.989,9.514,17.789,19.79,17.782l0,0c10.272,0.007,18.724-7.794,19.786-17.782l0,0L726.635,0h20.468
			l0.102,0.924c1.057,9.989,9.51,17.789,19.786,17.782l0,0c10.277,0.007,18.73-7.794,19.786-17.782l0,0L786.874,0h16.96l0.225,0.739
			c1.899,6.426,6.962,11.501,13.388,13.417l0,0l0.735,0.22v13.91l-0.944,0.08c-10.207,0.849-18.242,9.388-18.242,19.815l0,0
			c0,10.428,8.035,18.973,18.242,19.822l0,0l0.944,0.075V88.53l-0.944,0.075c-10.207,0.849-18.242,9.395-18.242,19.822l0,0
			c0,10.427,8.035,18.966,18.242,19.815l0,0l0.939,0.075v20.456l-0.939,0.075c-10.207,0.849-18.242,9.389-18.242,19.822l0,0
			c0,10.427,8.035,18.968,18.242,19.816l0,0l0.944,0.075v20.451l-0.944,0.08c-10.207,0.849-18.242,9.388-18.242,19.822l0,0
			c0,10.422,8.035,18.966,18.242,19.815l0,0l0.939,0.075v20.451l-0.939,0.08c-10.207,0.849-18.242,9.389-18.242,19.816l0,0
			c0,10.427,8.035,18.973,18.242,19.822l0,0l0.944,0.074V329.5l-0.944,0.075c-10.207,0.848-18.242,9.393-18.242,19.821l0,0
			c0,10.427,8.035,18.968,18.242,19.816l0,0l0.939,0.075v20.451l-0.939,0.08c-10.207,0.849-18.242,9.388-18.242,19.815l0,0
			c0,10.429,8.035,18.973,18.242,19.822l0,0l0.944,0.075v20.451l-0.944,0.075c-10.207,0.849-18.242,9.395-18.242,19.822l0,0
			c0,10.427,8.035,18.966,18.242,19.815l0,0l0.939,0.075v20.458l-0.939,0.075c-10.207,0.849-18.242,9.388-18.242,19.821l0,0
			c0,10.429,8.035,18.968,18.242,19.816l0,0l0.944,0.075v20.451l-0.944,0.081c-10.207,0.848-18.242,9.388-18.242,19.815l0,0
			c0,10.429,8.035,18.973,18.242,19.822l0,0l0.939,0.075v20.451l-0.939,0.08c-10.207,0.849-18.242,9.389-18.242,19.816l0,0
			c0,10.427,8.035,18.967,18.242,19.822l0,0l0.944,0.075v20.451l-0.944,0.075c-10.207,0.849-18.242,9.394-18.242,19.821l0,0
			c0,10.429,8.035,18.968,18.242,19.817l0,0l0.939,0.075v20.451l-0.939,0.08c-10.207,0.849-18.242,9.388-18.242,19.815l0,0
			c0,10.427,8.035,18.966,18.242,19.816l0,0l0.939,0.075v20.455l-0.939,0.075c-10.207,0.851-18.242,9.391-18.237,19.823l0,0
			c-0.005,10.427,8.029,18.966,18.237,19.814l0,0l0.939,0.075v20.452l-0.939,0.075c-10.207,0.853-18.242,9.392-18.237,19.824l0,0
			c-0.005,10.422,8.029,18.966,18.237,19.814l0,0l0.939,0.075v20.452l-0.939,0.081c-10.207,0.848-18.242,9.387-18.237,19.819l0,0
			c-0.005,10.422,8.029,18.961,18.237,19.814l0,0l0.939,0.075v20.216l-0.73,0.22c-4.248,1.271-7.895,3.921-10.432,7.434l0,0
			l-0.317,0.424h-19.813l-0.043-0.982c-0.445-10.593-9.15-19.057-19.851-19.052l0,0c-10.706-0.005-19.406,8.459-19.856,19.052l0,0
			l-0.048,0.982h-20.441l-0.037-0.982c-0.451-10.593-9.151-19.057-19.856-19.052l0,0c-10.706-0.005-19.418,8.459-19.86,19.052l0,0
			l-0.048,0.987H666.411L666.411,1000z M805.658,997.94c2.628-3.46,6.254-6.125,10.464-7.542l0,0v-16.821
			c-10.813-1.368-19.18-10.583-19.186-21.766l0,0c0.005-11.189,8.373-20.404,19.186-21.772l0,0v-16.703
			c-10.813-1.367-19.18-10.583-19.186-21.766l0,0c0.005-11.194,8.373-20.409,19.186-21.777l0,0v-16.698
			c-10.813-1.368-19.18-10.583-19.186-21.766l0,0c0.005-11.189,8.373-20.408,19.186-21.773l0,0v-16.7
			c-10.813-1.365-19.18-10.588-19.18-21.772l0,0c0-11.185,8.367-20.4,19.18-21.771l0,0v-16.693
			c-10.813-1.373-19.18-10.588-19.18-21.773l0,0c0-11.187,8.367-20.402,19.175-21.777l0,0v-16.695
			c-10.808-1.369-19.175-10.589-19.175-21.772l0,0c0-11.19,8.367-20.407,19.18-21.773l0,0v-16.699
			c-10.813-1.366-19.18-10.582-19.18-21.773l0,0c0-11.182,8.367-20.401,19.175-21.772l0,0v-16.695
			c-10.808-1.375-19.175-10.588-19.175-21.772l0,0c0-11.19,8.367-20.405,19.18-21.772l0,0v-16.7
			c-10.813-1.366-19.18-10.581-19.18-21.772l0,0c0-11.184,8.367-20.402,19.175-21.772l0,0v-16.702
			c-10.808-1.369-19.175-10.583-19.175-21.772l0,0c0-11.185,8.367-20.4,19.18-21.771l0,0v-16.695
			c-10.813-1.372-19.18-10.587-19.18-21.772l0,0c0-11.187,8.367-20.403,19.175-21.777l0,0v-16.695
			c-10.808-1.371-19.175-10.589-19.175-21.772l0,0c0-11.19,8.367-20.407,19.18-21.773l0,0v-16.699
			c-10.813-1.366-19.18-10.581-19.18-21.766l0,0c0-11.189,8.367-20.408,19.175-21.778l0,0v-16.695
			c-10.808-1.374-19.175-10.588-19.175-21.772l0,0c0-11.19,8.367-20.405,19.18-21.772l0,0v-16.7
			c-10.813-1.366-19.18-10.582-19.18-21.772l0,0c0-11.184,8.367-20.403,19.175-21.772l0,0V69.953
			c-10.808-1.369-19.175-10.583-19.175-21.772l0,0c0-11.182,8.367-20.396,19.175-21.77l0,0V15.896
			c-6.495-2.194-11.623-7.331-13.801-13.834l0,0h-13.607c-1.577,10.591-10.701,18.706-21.717,18.706l0,0
			c-11.022,0-20.141-8.115-21.717-18.706l0,0h-16.81c-1.572,10.591-10.69,18.706-21.712,18.706l0,0
			c-11.022,0-20.144-8.115-21.719-18.706l0,0h-16.804c-1.574,10.591-10.698,18.706-21.72,18.706l0,0
			c-11.025,0-20.143-8.121-21.717-18.706l0,0h-16.807c-1.572,10.585-10.69,18.706-21.712,18.706l0,0
			c-11.025,0-20.149-8.115-21.723-18.706l0,0h-16.802c-1.574,10.591-10.695,18.706-21.717,18.706l0,0
			c-11.028,0-20.143-8.115-21.717-18.706l0,0h-16.807c-1.574,10.591-10.698,18.706-21.717,18.706l0,0
			c-11.022,0-20.143-8.115-21.717-18.706l0,0h-16.807c-1.574,10.591-10.693,18.706-21.717,18.706l0,0
			c-11.022,0-20.141-8.121-21.717-18.706l0,0h-16.807c-1.574,10.585-10.693,18.706-21.712,18.706l0,0
			c-11.027,0-20.146-8.115-21.72-18.706l0,0h-16.804c-1.574,10.591-10.698,18.706-21.719,18.706l0,0
			c-11.026,0-20.144-8.115-21.717-18.706l0,0h-16.807c-1.573,10.591-10.691,18.706-21.712,18.706l0,0
			c-11.026,0-20.145-8.115-21.724-18.706l0,0h-16.8c-1.574,10.591-10.696,18.706-21.717,18.706l0,0
			c-11.028,0-20.145-8.115-21.719-18.706l0,0h-16.805c-1.574,10.591-10.693,18.706-21.719,18.706l0,0
			c-11.021,0-20.143-8.115-21.717-18.706l0,0H65.828c-1.579,10.591-10.696,18.706-21.722,18.706l0,0
			c-11.021,0-20.139-8.115-21.714-18.706l0,0H12.78c-1.824,5.431-5.706,9.902-10.719,12.507l0,0V26.41
			c10.813,1.367,19.18,10.582,19.18,21.772l0,0c0,11.19-8.367,20.406-19.18,21.773l0,0v16.699
			c10.813,1.366,19.18,10.583,19.18,21.773l0,0c0,11.19-8.367,20.405-19.18,21.772l0,0v16.7c10.813,1.366,19.18,10.582,19.18,21.772
			l0,0c0,11.185-8.367,20.405-19.18,21.773l0,0v16.694c10.813,1.366,19.18,10.587,19.18,21.778l0,0
			c0,11.185-8.367,20.4-19.18,21.766l0,0v16.699c10.813,1.366,19.18,10.583,19.18,21.773l0,0c0,11.19-8.367,20.405-19.18,21.772l0,0
			v16.695c10.813,1.372,19.18,10.587,19.18,21.777l0,0c0,11.185-8.367,20.405-19.18,21.773l0,0v16.694
			c10.813,1.366,19.18,10.581,19.18,21.771l0,0c0,11.192-8.367,20.407-19.18,21.773l0,0v16.699
			c10.813,1.366,19.18,10.583,19.18,21.773l0,0c0,11.19-8.367,20.405-19.18,21.772l0,0v16.7c10.813,1.367,19.18,10.581,19.18,21.772
			l0,0c0,11.185-8.367,20.407-19.18,21.773l0,0v16.693c10.813,1.366,19.18,10.587,19.18,21.772l0,0
			c0,11.191-8.367,20.407-19.18,21.773l0,0v16.699c10.813,1.366,19.18,10.583,19.18,21.773l0,0c0,11.19-8.367,20.405-19.18,21.772
			l0,0v16.695c10.813,1.372,19.18,10.587,19.18,21.777l0,0c0,11.185-8.367,20.407-19.18,21.773l0,0v16.693
			c10.813,1.366,19.18,10.581,19.186,21.771l0,0c-0.005,11.192-8.373,20.407-19.186,21.772l0,0v16.7
			c10.813,1.359,19.18,10.584,19.18,21.773l0,0c0,11.184-8.367,20.398-19.18,21.766l0,0v16.698
			c10.813,1.367,19.18,10.583,19.18,21.777l0,0c0,11.189-8.367,20.404-19.18,21.772l0,0v16.698
			c10.813,1.362,19.18,10.577,19.18,21.772l0,0c0,11.184-8.367,20.398-19.18,21.766l0,0v18.151c2.898,1.496,5.408,3.626,7.37,6.206
			l0,0h12.827c0.974-11.221,10.369-20.039,21.848-20.039l0,0c11.483,0,20.879,8.818,21.853,20.039l0,0h16.536
			c0.979-11.221,10.374-20.039,21.853-20.039l0,0c11.486,0,20.878,8.818,21.853,20.045l0,0h16.536
			c0.971-11.227,10.368-20.045,21.854-20.045l0,0c11.478,0,20.874,8.818,21.851,20.039l0,0h16.532
			c0.979-11.221,10.375-20.039,21.858-20.039l0,0c11.481,0,20.878,8.818,21.847,20.045l0,0h16.536
			c0.976-11.227,10.372-20.045,21.853-20.045l0,0c11.478,0,20.874,8.818,21.853,20.039l0,0h16.536
			c0.979-11.221,10.368-20.039,21.854-20.039l0,0c11.486,0,20.875,8.818,21.846,20.045l0,0h16.541
			c0.971-11.227,10.363-20.045,21.849-20.045l0,0c11.483,0,20.873,8.818,21.851,20.039l0,0h16.539
			c0.976-11.221,10.368-20.039,21.851-20.039l0,0c11.486,0,20.878,8.818,21.851,20.045l0,0h16.536
			c0.971-11.227,10.368-20.045,21.854-20.045l0,0c11.478,0,20.875,8.818,21.852,20.039l0,0h16.533
			c0.979-11.221,10.373-20.039,21.857-20.039l0,0c11.481,0,20.878,8.818,21.849,20.045l0,0h16.536
			c0.976-11.227,10.365-20.045,21.851-20.045l0,0c11.486,0,20.875,8.818,21.854,20.039l0,0h16.536
			c0.979-11.221,10.369-20.039,21.853-20.039l0,0c11.484,0,20.875,8.818,21.846,20.045l0,0h16.542
			c0.971-11.227,10.362-20.045,21.851-20.045l0,0c11.483,0,20.875,8.818,21.851,20.045l0,0H805.658L805.658,997.94z"/>
		<path fill="none" stroke="#AAAAAA" stroke-miterlimit="10" d="M797.972,951.812c0-10.969,8.443-19.953,19.18-20.844v-18.553
			c-10.738-0.896-19.18-9.875-19.18-20.844c0-10.969,8.443-19.953,19.18-20.844v-18.553c-10.738-0.896-19.18-9.875-19.18-20.844
			c0-10.969,8.443-19.952,19.18-20.845v-18.553c-10.738-0.893-19.18-9.875-19.18-20.844c0-10.969,8.443-19.951,19.18-20.844v-18.553
			c-10.738-0.893-19.18-9.875-19.18-20.844c0-10.969,8.443-19.953,19.18-20.846v-18.551c-10.738-0.893-19.18-9.877-19.18-20.846
			c0-10.969,8.443-19.95,19.18-20.844v-18.553c-10.738-0.893-19.18-9.875-19.18-20.844c0-10.969,8.443-19.953,19.18-20.847v-18.551
			c-10.738-0.893-19.18-9.877-19.18-20.847c0-10.969,8.443-19.95,19.18-20.844v-18.554c-10.738-0.893-19.18-9.875-19.18-20.844
			c0-10.969,8.443-19.953,19.18-20.846v-18.551c-10.738-0.893-19.18-9.877-19.18-20.846c0-10.969,8.443-19.951,19.18-20.844V370.24
			c-10.738-0.893-19.18-9.875-19.18-20.844c0-10.969,8.443-19.953,19.18-20.846v-18.551c-10.738-0.893-19.18-9.877-19.18-20.846
			c0-10.969,8.443-19.95,19.18-20.844v-18.554c-10.738-0.893-19.18-9.875-19.18-20.844c0-10.969,8.443-19.953,19.18-20.847v-18.551
			c-10.738-0.893-19.18-9.877-19.18-20.847c0-10.969,8.443-19.95,19.18-20.844v-18.553c-10.738-0.893-19.18-9.875-19.18-20.844
			c0-10.969,8.443-19.953,19.18-20.846V69.031c-10.738-0.893-19.18-9.877-19.18-20.846c0-10.969,8.443-19.951,19.18-20.844V15.145
			c-6.758-2.016-12.079-7.348-14.079-14.114h-15.27c-1.11,10.515-10.003,18.709-20.811,18.709c-10.808,0-19.695-8.194-20.811-18.709
			h-18.617c-1.11,10.515-10.003,18.709-20.811,18.709c-10.808,0-19.699-8.194-20.812-18.709h-18.615
			c-1.113,10.515-10.003,18.709-20.814,18.709c-10.81,0-19.698-8.194-20.811-18.709h-18.617c-1.113,10.515-10,18.709-20.811,18.709
			c-10.811,0-19.701-8.194-20.814-18.709h-18.615c-1.113,10.515-10.006,18.709-20.814,18.709c-10.808,0-19.698-8.194-20.811-18.709
			h-18.617C485.49,11.546,476.6,19.74,465.792,19.74c-10.808,0-19.701-8.194-20.814-18.709h-18.615
			c-1.113,10.515-10.003,18.709-20.814,18.709c-10.811,0-19.698-8.194-20.811-18.709h-18.617
			c-1.113,10.515-10.001,18.709-20.811,18.709c-10.81,0-19.7-8.194-20.814-18.709h-18.614C304.77,11.546,295.878,19.74,285.07,19.74
			c-10.809,0-19.7-8.194-20.811-18.709h-18.617C244.53,11.546,235.64,19.74,224.83,19.74c-10.809,0-19.7-8.194-20.814-18.709
			h-18.614c-1.113,10.515-10.005,18.709-20.814,18.709c-10.809,0-19.699-8.194-20.811-18.709h-18.617
			c-1.112,10.515-10.002,18.709-20.811,18.709c-10.809,0-19.701-8.194-20.814-18.709H64.921
			C63.809,11.546,54.917,19.74,44.108,19.74S24.409,11.546,23.297,1.031H12.025C10.341,6.725,6.3,11.391,1.034,13.934v13.407
			c10.738,0.89,19.182,9.873,19.182,20.844c0,10.97-8.444,19.955-19.182,20.846v18.551c10.738,0.892,19.182,9.876,19.182,20.846
			c0,10.97-8.444,19.953-19.182,20.844v18.553c10.738,0.891,19.182,9.874,19.182,20.844c0,10.971-8.444,19.955-19.182,20.847v18.551
			c10.738,0.892,19.182,9.876,19.182,20.847c0,10.97-8.444,19.953-19.182,20.844v18.554c10.738,0.89,19.182,9.873,19.182,20.844
			c0,10.97-8.444,19.955-19.182,20.846v18.551c10.738,0.892,19.182,9.876,19.182,20.846c0,10.97-8.444,19.953-19.182,20.844v18.553
			c10.738,0.89,19.182,9.874,19.182,20.844s-8.444,19.955-19.182,20.846v18.551c10.738,0.892,19.182,9.876,19.182,20.846
			c0,10.97-8.444,19.953-19.182,20.844v18.554c10.738,0.89,19.182,9.873,19.182,20.844c0,10.971-8.444,19.955-19.182,20.847v18.551
			c10.738,0.892,19.182,9.876,19.182,20.847c0,10.97-8.444,19.953-19.182,20.844v18.553c10.738,0.89,19.182,9.873,19.182,20.844
			s-8.444,19.955-19.182,20.846v18.551c10.738,0.892,19.182,9.876,19.182,20.846c0,10.971-8.444,19.954-19.182,20.844v18.553
			c10.738,0.891,19.182,9.874,19.182,20.844c0,10.972-8.444,19.953-19.182,20.844v18.553c10.738,0.891,19.182,9.871,19.182,20.845
			c0,10.969-8.444,19.953-19.182,20.844v18.553c10.738,0.89,19.182,9.87,19.182,20.844c0,10.969-8.444,19.953-19.182,20.844v18.553
			c10.738,0.89,19.182,9.869,19.182,20.844c0,10.969-8.444,19.953-19.182,20.844v19.712c3.148,1.518,5.854,3.792,7.884,6.603h14.303
			c0.471-11.141,9.627-20.039,20.886-20.039c11.26,0,20.418,8.898,20.889,20.039h18.464c0.471-11.141,9.629-20.039,20.889-20.039
			c11.26,0,20.415,8.898,20.886,20.039h18.467c0.471-11.141,9.627-20.039,20.886-20.039c11.26,0,20.418,8.898,20.889,20.039h18.464
			c0.471-11.141,9.629-20.039,20.888-20.039c11.26,0,20.415,8.898,20.886,20.039h18.467c0.471-11.141,9.626-20.039,20.886-20.039
			c11.259,0,20.418,8.898,20.888,20.039h18.465c0.472-11.141,9.627-20.039,20.888-20.039s20.414,8.898,20.886,20.039h18.467
			c0.472-11.141,9.625-20.039,20.886-20.039c11.261,0,20.417,8.898,20.889,20.039h18.464c0.472-11.141,9.628-20.039,20.889-20.039
			c11.261,0,20.414,8.898,20.886,20.039h18.467c0.472-11.141,9.625-20.039,20.886-20.039s20.417,8.898,20.889,20.039h18.465
			c0.472-11.141,9.628-20.039,20.889-20.039c11.261,0,20.414,8.898,20.886,20.039h18.467c0.472-11.141,9.625-20.039,20.886-20.039
			s20.417,8.898,20.888,20.039h18.464c0.472-11.141,9.629-20.039,20.887-20.039c11.264,0,20.414,8.898,20.886,20.039h18.467
			c0.472-11.141,9.628-20.039,20.886-20.039c11.263,0,20.414,8.898,20.886,20.039h18.301c2.671-3.696,6.506-6.485,10.974-7.815
			v-18.5C806.414,971.76,797.972,962.781,797.972,951.812z"/>
	</g>
</g>
</svg>
