<?xml version="1.0" encoding="utf-8"?>
<!-- Generator: Adobe Illustrator 18.0.0, SVG Export Plug-In . SVG Version: 6.00 Build 0)  -->
<!DOCTYPE svg PUBLIC "-//W3C//DTD SVG 1.1//EN" "http://www.w3.org/Graphics/SVG/1.1/DTD/svg11.dtd">
<svg version="1.1" id="Слой_1" xmlns="http://www.w3.org/2000/svg" xmlns:xlink="http://www.w3.org/1999/xlink" x="0px" y="0px"
	 viewBox="0 0 66 80" enable-background="new 0 0 66 80" xml:space="preserve">
<g>
	<g>
		<g>
			<path fill="#FFFFFF" d="M53.4,79.7L53.4,79.7c0-0.9-0.7-1.6-1.6-1.6l0,0c-0.9,0-1.5,0.7-1.6,1.5l0,0l0,0.1h-1.6l0-0.1
				c0-0.8-0.7-1.5-1.6-1.5l0,0c-0.9,0-1.5,0.7-1.6,1.5l0,0l0,0.1h-1.6l0-0.1c0-0.8-0.7-1.5-1.6-1.5l0,0c-0.9,0-1.5,0.7-1.6,1.5l0,0
				l0,0.1h-1.6l0-0.1c0-0.8-0.7-1.5-1.6-1.5l0,0c-0.9,0-1.5,0.7-1.6,1.5l0,0l0,0.1h-1.6l0-0.1c0-0.8-0.7-1.5-1.6-1.5l0,0
				c-0.9,0-1.5,0.7-1.6,1.5l0,0l0,0.1h-1.6l0-0.1c0-0.8-0.7-1.5-1.6-1.5l0,0c-0.9,0-1.5,0.7-1.6,1.5l0,0l0,0.1h-1.6l0-0.1
				c0-0.8-0.7-1.5-1.6-1.5l0,0c-0.9,0-1.5,0.7-1.6,1.5l0,0l0,0.1h-1.6l0-0.1c0-0.8-0.7-1.5-1.6-1.5l0,0c-0.9,0-1.5,0.7-1.6,1.5l0,0
				l0,0.1h-1.6l0-0.1c0-0.8-0.7-1.5-1.6-1.5l0,0c-0.9,0-1.5,0.7-1.6,1.5l0,0l0,0.1h-1.6l0-0.1c0-0.8-0.7-1.5-1.6-1.5l0,0
				c-0.9,0-1.5,0.7-1.6,1.5l0,0l0,0.1H5.6l0-0.1c0-0.8-0.7-1.5-1.6-1.5l0,0c-0.9,0-1.5,0.7-1.6,1.5l0,0l0,0.1H1.2l0,0
				c-0.2-0.2-0.4-0.4-0.6-0.5l0,0l0,0v-1.7l0.1,0C1.4,77.4,2,76.7,2,75.9l0,0c0-0.8-0.6-1.5-1.4-1.6l0,0l-0.1,0v-1.6l0.1,0
				C1.4,72.6,2,71.9,2,71.1l0,0c0-0.8-0.6-1.5-1.4-1.6l0,0l-0.1,0v-1.6l0.1,0C1.4,67.8,2,67.2,2,66.3l0,0c0-0.8-0.6-1.5-1.4-1.6l0,0
				l-0.1,0v-1.6l0.1,0C1.4,63,2,62.4,2,61.5l0,0C2,60.7,1.4,60,0.6,60l0,0l-0.1,0v-1.6l0.1,0C1.4,58.3,2,57.6,2,56.8l0,0
				c0-0.8-0.6-1.5-1.4-1.6l0,0l-0.1,0v-1.6l0.1,0C1.4,53.5,2,52.8,2,52l0,0c0-0.8-0.6-1.5-1.4-1.6l0,0l-0.1,0v-1.6l0.1,0
				C1.4,48.7,2,48,2,47.2l0,0c0-0.8-0.6-1.5-1.4-1.6l0,0l-0.1,0V44l0.1,0C1.4,43.9,2,43.2,2,42.4l0,0c0-0.8-0.6-1.5-1.4-1.6l0,0
				l-0.1,0v-1.6l0.1,0C1.4,39.1,2,38.4,2,37.6l0,0c0-0.8-0.6-1.5-1.4-1.6l0,0l-0.1,0v-1.6l0.1,0C1.4,34.3,2,33.7,2,32.8l0,0
				c0-0.8-0.6-1.5-1.4-1.6l0,0l-0.1,0v-1.6l0.1,0C1.4,29.5,2,28.9,2,28l0,0c0-0.8-0.6-1.5-1.4-1.6l0,0l-0.1,0v-1.6l0.1,0
				C1.4,24.8,2,24.1,2,23.3l0,0c0-0.8-0.6-1.5-1.4-1.6l0,0l-0.1,0V20l0.1,0C1.4,20,2,19.3,2,18.5l0,0c0-0.8-0.6-1.5-1.4-1.6l0,0
				l-0.1,0v-1.6l0.1,0C1.4,15.2,2,14.5,2,13.7l0,0c0-0.8-0.6-1.5-1.4-1.6l0,0l-0.1,0v-1.6l0.1,0C1.4,10.4,2,9.7,2,8.9l0,0
				c0-0.8-0.6-1.5-1.4-1.6l0,0l-0.1,0V5.7l0.1,0C1.4,5.6,2,4.9,2,4.1l0,0c0-0.8-0.6-1.5-1.4-1.6l0,0l-0.1,0V1.3l0,0
				c0.4-0.2,0.7-0.5,0.8-1l0,0l0-0.1h1l0,0.1C2.5,1.1,3.2,1.8,4,1.8l0,0c0.8,0,1.5-0.6,1.6-1.4l0,0l0-0.1h1.6l0,0.1
				C7.3,1.1,8,1.8,8.8,1.8l0,0c0.8,0,1.5-0.6,1.6-1.4l0,0l0-0.1H12l0,0.1c0.1,0.8,0.8,1.4,1.6,1.4l0,0c0.8,0,1.5-0.6,1.6-1.4l0,0
				l0-0.1h1.6l0,0.1c0.1,0.8,0.8,1.4,1.6,1.4l0,0c0.8,0,1.5-0.6,1.6-1.4l0,0l0-0.1h1.6l0,0.1c0.1,0.8,0.8,1.4,1.6,1.4l0,0
				c0.8,0,1.5-0.6,1.6-1.4l0,0l0-0.1h1.6l0,0.1c0.1,0.8,0.8,1.4,1.6,1.4l0,0c0.8,0,1.5-0.6,1.6-1.4l0,0l0-0.1h1.6l0,0.1
				c0.1,0.8,0.8,1.4,1.6,1.4l0,0c0.8,0,1.5-0.6,1.6-1.4l0,0l0-0.1h1.6l0,0.1c0.1,0.8,0.8,1.4,1.6,1.4l0,0c0.8,0,1.5-0.6,1.6-1.4l0,0
				l0-0.1h1.6l0,0.1c0.1,0.8,0.8,1.4,1.6,1.4l0,0c0.8,0,1.5-0.6,1.6-1.4l0,0l0-0.1h1.6l0,0.1c0.1,0.8,0.8,1.4,1.6,1.4l0,0
				c0.8,0,1.5-0.6,1.6-1.4l0,0l0-0.1h1.6l0,0.1c0.1,0.8,0.8,1.4,1.6,1.4l0,0c0.8,0,1.5-0.6,1.6-1.4l0,0l0-0.1h1.6l0,0.1
				c0.1,0.8,0.8,1.4,1.6,1.4l0,0c0.8,0,1.5-0.6,1.6-1.4l0,0l0-0.1h1.6l0,0.1c0.1,0.8,0.8,1.4,1.6,1.4l0,0c0.8,0,1.5-0.6,1.6-1.4l0,0
				l0-0.1h1.3l0,0.1c0.2,0.5,0.6,0.9,1.1,1.1l0,0l0.1,0v1.1l-0.1,0C64.6,2.6,64,3.3,64,4.1l0,0c0,0.8,0.6,1.5,1.4,1.6l0,0l0.1,0v1.6
				l-0.1,0C64.6,7.4,64,8.1,64,8.9l0,0c0,0.8,0.6,1.5,1.4,1.6l0,0l0.1,0v1.6l-0.1,0c-0.8,0.1-1.4,0.7-1.4,1.6l0,0
				c0,0.8,0.6,1.5,1.4,1.6l0,0l0.1,0v1.6l-0.1,0C64.6,17,64,17.6,64,18.5l0,0c0,0.8,0.6,1.5,1.4,1.6l0,0l0.1,0v1.6l-0.1,0
				c-0.8,0.1-1.4,0.7-1.4,1.6l0,0c0,0.8,0.6,1.5,1.4,1.6l0,0l0.1,0v1.6l-0.1,0C64.6,26.5,64,27.2,64,28l0,0c0,0.8,0.6,1.5,1.4,1.6
				l0,0l0.1,0v1.6l-0.1,0C64.6,31.3,64,32,64,32.8l0,0c0,0.8,0.6,1.5,1.4,1.6l0,0l0.1,0V36l-0.1,0c-0.8,0.1-1.4,0.7-1.4,1.6l0,0
				c0,0.8,0.6,1.5,1.4,1.6l0,0l0.1,0v1.6l-0.1,0c-0.8,0.1-1.4,0.7-1.4,1.6l0,0c0,0.8,0.6,1.5,1.4,1.6l0,0l0.1,0v1.6l-0.1,0
				c-0.8,0.1-1.4,0.7-1.4,1.6l0,0c0,0.8,0.6,1.5,1.4,1.6l0,0l0.1,0v1.6l-0.1,0C64.6,50.5,64,51.1,64,52l0,0c0,0.8,0.6,1.5,1.4,1.6
				l0,0l0.1,0v1.6l-0.1,0c-0.8,0.1-1.4,0.7-1.4,1.6l0,0c0,0.8,0.6,1.5,1.4,1.6l0,0l0.1,0V60l-0.1,0C64.6,60,64,60.7,64,61.5l0,0
				c0,0.8,0.6,1.5,1.4,1.6l0,0l0.1,0v1.6l-0.1,0c-0.8,0.1-1.4,0.7-1.4,1.6l0,0c0,0.8,0.6,1.5,1.4,1.6l0,0l0.1,0v1.6l-0.1,0
				c-0.8,0.1-1.4,0.7-1.4,1.6l0,0c0,0.8,0.6,1.5,1.4,1.6l0,0l0.1,0v1.6l-0.1,0c-0.8,0.1-1.4,0.7-1.4,1.6l0,0c0,0.8,0.6,1.5,1.4,1.6
				l0,0l0.1,0v1.6l-0.1,0c-0.3,0.1-0.6,0.3-0.8,0.6l0,0l0,0H63l0-0.1c0-0.8-0.7-1.5-1.6-1.5l0,0c-0.9,0-1.5,0.7-1.6,1.5l0,0l0,0.1
				h-1.6l0-0.1c0-0.8-0.7-1.5-1.6-1.5l0,0c-0.9,0-1.5,0.7-1.6,1.5l0,0l0,0.1H53.4L53.4,79.7z M64.5,79.6c0.2,0,0.5-0.5,0.8-0.6l0,0
				v-1.3c-0.9-0.1-1.5-0.8-1.5-1.7l0,0c0-0.9,0.7-1.6,1.5-1.7l0,0v-1.3c-0.9-0.1-1.5-0.8-1.5-1.7l0,0c0-0.9,0.7-1.6,1.5-1.7l0,0
				v-1.3c-0.9-0.1-1.5-0.8-1.5-1.7l0,0c0-0.9,0.7-1.6,1.5-1.7l0,0v-1.3c-0.9-0.1-1.5-0.8-1.5-1.7l0,0c0-0.9,0.7-1.6,1.5-1.7l0,0
				v-1.3c-0.9-0.1-1.5-0.8-1.5-1.7l0,0c0-0.9,0.7-1.6,1.5-1.7l0,0v-1.3c-0.9-0.1-1.5-0.8-1.5-1.7l0,0c0-0.9,0.7-1.6,1.5-1.7l0,0
				v-1.3c-0.9-0.1-1.5-0.8-1.5-1.7l0,0c0-0.9,0.7-1.6,1.5-1.7l0,0v-1.3c-0.9-0.1-1.5-0.8-1.5-1.7l0,0c0-0.9,0.7-1.6,1.5-1.7l0,0
				v-1.3c-0.9-0.1-1.5-0.8-1.5-1.7l0,0c0-0.9,0.7-1.6,1.5-1.7l0,0v-1.3c-0.9-0.1-1.5-0.8-1.5-1.7l0,0c0-0.9,0.7-1.6,1.5-1.7l0,0
				v-1.3c-0.9-0.1-1.5-0.8-1.5-1.7l0,0c0-0.9,0.7-1.6,1.5-1.7l0,0V25c-0.9-0.1-1.5-0.8-1.5-1.7l0,0c0-0.9,0.7-1.6,1.5-1.7l0,0v-1.3
				c-0.9-0.1-1.5-0.8-1.5-1.7l0,0c0-0.9,0.7-1.6,1.5-1.7l0,0v-1.3c-0.9-0.1-1.5-0.8-1.5-1.7l0,0c0-0.9,0.7-1.6,1.5-1.7l0,0v-1.3
				c-0.9-0.1-1.5-0.8-1.5-1.7l0,0c0-0.9,0.7-1.6,1.5-1.7l0,0V5.8c-0.9-0.1-1.5-0.8-1.5-1.7l0,0c0-0.9,0.7-1.6,1.5-1.7l0,0V1.5
				c-0.5-0.2-0.9-0.6-1.1-1.1l0,0h-1.1c-0.1,0.8-0.9,1.5-1.7,1.5l0,0c-0.9,0-1.6-0.7-1.7-1.5l0,0h-1.3c-0.1,0.8-0.8,1.5-1.7,1.5l0,0
				c-0.9,0-1.6-0.7-1.7-1.5l0,0h-1.3c-0.1,0.8-0.8,1.5-1.7,1.5l0,0c-0.9,0-1.6-0.7-1.7-1.5l0,0h-1.3c-0.1,0.8-0.8,1.5-1.7,1.5l0,0
				c-0.9,0-1.6-0.7-1.7-1.5l0,0H44c-0.1,0.8-0.8,1.5-1.7,1.5l0,0c-0.9,0-1.6-0.7-1.7-1.5l0,0h-1.3c-0.1,0.8-0.8,1.5-1.7,1.5l0,0
				c-0.9,0-1.6-0.7-1.7-1.5l0,0h-1.3c-0.1,0.8-0.8,1.5-1.7,1.5l0,0c-0.9,0-1.6-0.7-1.7-1.5l0,0h-1.3c-0.1,0.8-0.8,1.5-1.7,1.5l0,0
				c-0.9,0-1.6-0.7-1.7-1.5l0,0h-1.3c-0.1,0.8-0.8,1.5-1.7,1.5l0,0c-0.9,0-1.6-0.7-1.7-1.5l0,0h-1.3c-0.1,0.8-0.8,1.5-1.7,1.5l0,0
				c-0.9,0-1.6-0.7-1.7-1.5l0,0h-1.3c-0.1,0.8-0.8,1.5-1.7,1.5l0,0c-0.9,0-1.6-0.7-1.7-1.5l0,0h-1.3c-0.1,0.8-0.8,1.5-1.7,1.5l0,0
				c-0.9,0-1.6-0.7-1.7-1.5l0,0H5.7C5.6,1.3,4.9,1.9,4,1.9l0,0c-0.9,0-1.6-0.7-1.7-1.5l0,0H1.5c-0.1,0.4-0.4,0.8-0.9,1l0,0v0.9
				c0.9,0.1,1.5,0.8,1.5,1.7l0,0c0,0.9-0.7,1.6-1.5,1.7l0,0v1.3C1.5,7.3,2.2,8,2.2,8.9l0,0c0,0.9-0.7,1.6-1.5,1.7l0,0V12
				c0.9,0.1,1.5,0.8,1.5,1.7l0,0c0,0.9-0.7,1.6-1.5,1.7l0,0v1.3c0.9,0.1,1.5,0.8,1.5,1.7l0,0c0,0.9-0.7,1.6-1.5,1.7l0,0v1.3
				c0.9,0.1,1.5,0.8,1.5,1.7l0,0c0,0.9-0.7,1.6-1.5,1.7l0,0v1.3c0.9,0.1,1.5,0.8,1.5,1.7l0,0c0,0.9-0.7,1.6-1.5,1.7l0,0v1.3
				c0.9,0.1,1.5,0.8,1.5,1.7l0,0c0,0.9-0.7,1.6-1.5,1.7l0,0v1.3c0.9,0.1,1.5,0.8,1.5,1.7l0,0c0,0.9-0.7,1.6-1.5,1.7l0,0v1.3
				c0.9,0.1,1.5,0.8,1.5,1.7l0,0c0,0.9-0.7,1.6-1.5,1.7l0,0v1.3c0.9,0.1,1.5,0.8,1.5,1.7l0,0c0,0.9-0.7,1.6-1.5,1.7l0,0v1.3
				c0.9,0.1,1.5,0.8,1.5,1.7l0,0c0,0.9-0.7,1.6-1.5,1.7l0,0V55c0.9,0.1,1.5,0.8,1.5,1.7l0,0c0,0.9-0.7,1.6-1.5,1.7l0,0v1.3
				c0.9,0.1,1.5,0.8,1.5,1.7l0,0c0,0.9-0.7,1.6-1.5,1.7l0,0v1.3c0.9,0.1,1.5,0.8,1.5,1.7l0,0c0,0.9-0.7,1.6-1.5,1.7l0,0v1.3
				c0.9,0.1,1.5,0.8,1.5,1.7l0,0c0,0.9-0.7,1.6-1.5,1.7l0,0v1.3c0.9,0.1,1.5,0.8,1.5,1.7l0,0c0,0.9-0.7,1.6-1.5,1.7l0,0v1.4
				c0.2,0.1,0.4,0.3,0.6,0.5l0,0h1C2.3,78.7,3.1,78,4,78l0,0c0.9,0,1.7,0.7,1.7,1.6l0,0h1.3C7.1,78.7,7.9,78,8.8,78l0,0
				c0.9,0,1.7,0.7,1.7,1.6l0,0h1.3c0.1-0.9,0.8-1.6,1.7-1.6l0,0c0.9,0,1.7,0.7,1.7,1.6l0,0h1.3c0.1-0.9,0.8-1.6,1.7-1.6l0,0
				c0.9,0,1.7,0.7,1.7,1.6l0,0h1.3c0.1-0.9,0.8-1.6,1.7-1.6l0,0c0.9,0,1.7,0.7,1.7,1.6l0,0h1.3c0.1-0.9,0.8-1.6,1.7-1.6l0,0
				c0.9,0,1.7,0.7,1.7,1.6l0,0H31c0.1-0.9,0.8-1.6,1.7-1.6l0,0c0.9,0,1.7,0.7,1.7,1.6l0,0h1.3c0.1-0.9,0.8-1.6,1.7-1.6l0,0
				c0.9,0,1.7,0.7,1.7,1.6l0,0h1.3c0.1-0.9,0.8-1.6,1.7-1.6l0,0c0.9,0,1.7,0.7,1.7,1.6l0,0h1.3c0.1-0.9,0.8-1.6,1.7-1.6l0,0
				c0.9,0,1.7,0.7,1.7,1.6l0,0h1.3c0.1-0.9,0.8-1.6,1.7-1.6l0,0c0.9,0,1.7,0.7,1.7,1.6l0,0h1.3c0.1-0.9,0.8-1.6,1.7-1.6l0,0
				c0.9,0,1.7,0.7,1.7,1.6l0,0h1.3c0.1-0.9,0.8-1.6,1.7-1.6l0,0c0.9,0,1.7,0.7,1.7,1.6l0,0H64.5L64.5,79.6z"/>
			<path fill="#FFFFFF" d="M63.9,75.9c0-0.9,0.7-1.6,1.5-1.7v-1.5c-0.9-0.1-1.5-0.8-1.5-1.7c0-0.9,0.7-1.6,1.5-1.7V68
				c-0.9-0.1-1.5-0.8-1.5-1.7c0-0.9,0.7-1.6,1.5-1.7v-1.5c-0.9-0.1-1.5-0.8-1.5-1.7c0-0.9,0.7-1.6,1.5-1.7v-1.5
				c-0.9-0.1-1.5-0.8-1.5-1.7c0-0.9,0.7-1.6,1.5-1.7v-1.5c-0.9-0.1-1.5-0.8-1.5-1.7c0-0.9,0.7-1.6,1.5-1.7v-1.5
				c-0.9-0.1-1.5-0.8-1.5-1.7c0-0.9,0.7-1.6,1.5-1.7v-1.5c-0.9-0.1-1.5-0.8-1.5-1.7c0-0.9,0.7-1.6,1.5-1.7v-1.5
				c-0.9-0.1-1.5-0.8-1.5-1.7s0.7-1.6,1.5-1.7v-1.5c-0.9-0.1-1.5-0.8-1.5-1.7c0-0.9,0.7-1.6,1.5-1.7v-1.5c-0.9-0.1-1.5-0.8-1.5-1.7
				c0-0.9,0.7-1.6,1.5-1.7v-1.5c-0.9-0.1-1.5-0.8-1.5-1.7c0-0.9,0.7-1.6,1.5-1.7v-1.5c-0.9-0.1-1.5-0.8-1.5-1.7
				c0-0.9,0.7-1.6,1.5-1.7v-1.5c-0.9-0.1-1.5-0.8-1.5-1.7c0-0.9,0.7-1.6,1.5-1.7v-1.5c-0.9-0.1-1.5-0.8-1.5-1.7
				c0-0.9,0.7-1.6,1.5-1.7V5.8c-0.9-0.1-1.5-0.8-1.5-1.7c0-0.9,0.7-1.6,1.5-1.7v-1c-0.5-0.2-1-0.6-1.1-1.1h-1.2
				c-0.1,0.8-0.8,1.5-1.7,1.5c-0.9,0-1.6-0.7-1.7-1.5h-1.5c-0.1,0.8-0.8,1.5-1.7,1.5c-0.9,0-1.6-0.7-1.7-1.5h-1.5
				c-0.1,0.8-0.8,1.5-1.7,1.5s-1.6-0.7-1.7-1.5h-1.5c-0.1,0.8-0.8,1.5-1.7,1.5c-0.9,0-1.6-0.7-1.7-1.5h-1.5
				c-0.1,0.8-0.8,1.5-1.7,1.5c-0.9,0-1.6-0.7-1.7-1.5h-1.5c-0.1,0.8-0.8,1.5-1.7,1.5c-0.9,0-1.6-0.7-1.7-1.5h-1.5
				c-0.1,0.8-0.8,1.5-1.7,1.5c-0.9,0-1.6-0.7-1.7-1.5h-1.5c-0.1,0.8-0.8,1.5-1.7,1.5c-0.9,0-1.6-0.7-1.7-1.5h-1.5
				c-0.1,0.8-0.8,1.5-1.7,1.5c-0.9,0-1.6-0.7-1.7-1.5H20c-0.1,0.8-0.8,1.5-1.7,1.5c-0.9,0-1.6-0.7-1.7-1.5h-1.5
				c-0.1,0.8-0.8,1.5-1.7,1.5c-0.9,0-1.6-0.7-1.7-1.5h-1.5c-0.1,0.8-0.8,1.5-1.7,1.5c-0.9,0-1.6-0.7-1.7-1.5H5.7
				C5.6,1.2,4.9,1.9,4,1.9c-0.9,0-1.6-0.7-1.7-1.5H1.5C1.3,0.8,1,1.2,0.6,1.4v1.1c0.9,0.1,1.5,0.8,1.5,1.7c0,0.9-0.7,1.6-1.5,1.7
				v1.5C1.4,7.3,2.1,8,2.1,8.9s-0.7,1.6-1.5,1.7V12c0.9,0.1,1.5,0.8,1.5,1.7c0,0.9-0.7,1.6-1.5,1.7v1.5c0.9,0.1,1.5,0.8,1.5,1.7
				c0,0.9-0.7,1.6-1.5,1.7v1.5c0.9,0.1,1.5,0.8,1.5,1.7c0,0.9-0.7,1.6-1.5,1.7v1.5c0.9,0.1,1.5,0.8,1.5,1.7c0,0.9-0.7,1.6-1.5,1.7
				v1.5c0.9,0.1,1.5,0.8,1.5,1.7c0,0.9-0.7,1.6-1.5,1.7V36c0.9,0.1,1.5,0.8,1.5,1.7c0,0.9-0.7,1.6-1.5,1.7v1.5
				c0.9,0.1,1.5,0.8,1.5,1.7c0,0.9-0.7,1.6-1.5,1.7v1.5c0.9,0.1,1.5,0.8,1.5,1.7c0,0.9-0.7,1.6-1.5,1.7v1.5c0.9,0.1,1.5,0.8,1.5,1.7
				c0,0.9-0.7,1.6-1.5,1.7v1.5c0.9,0.1,1.5,0.8,1.5,1.7c0,0.9-0.7,1.6-1.5,1.7v1.5c0.9,0.1,1.5,0.8,1.5,1.7c0,0.9-0.7,1.6-1.5,1.7
				v1.5c0.9,0.1,1.5,0.8,1.5,1.7c0,0.9-0.7,1.6-1.5,1.7v1.5c0.9,0.1,1.5,0.8,1.5,1.7c0,0.9-0.7,1.6-1.5,1.7v1.5
				c0.9,0.1,1.5,0.8,1.5,1.7c0,0.9-0.7,1.6-1.5,1.7v1.6c0.3,0.1,0.5,0.3,0.6,0.5h1.1c0-0.9,0.8-1.6,1.7-1.6c0.9,0,1.6,0.7,1.7,1.6
				h1.5c0-0.9,0.8-1.6,1.7-1.6s1.6,0.7,1.7,1.6h1.5c0-0.9,0.8-1.6,1.7-1.6c0.9,0,1.6,0.7,1.7,1.6h1.5c0-0.9,0.8-1.6,1.7-1.6
				c0.9,0,1.6,0.7,1.7,1.6h1.5c0-0.9,0.8-1.6,1.7-1.6s1.6,0.7,1.7,1.6h1.5c0-0.9,0.8-1.6,1.7-1.6c0.9,0,1.6,0.7,1.7,1.6h1.5
				c0-0.9,0.8-1.6,1.7-1.6c0.9,0,1.6,0.7,1.7,1.6h1.5c0-0.9,0.8-1.6,1.7-1.6c0.9,0,1.6,0.7,1.7,1.6h1.5c0-0.9,0.8-1.6,1.7-1.6
				s1.6,0.7,1.7,1.6h1.5c0-0.9,0.8-1.6,1.7-1.6c0.9,0,1.6,0.7,1.7,1.6h1.5c0-0.9,0.8-1.6,1.7-1.6s1.6,0.7,1.7,1.6H55
				c0-0.9,0.8-1.6,1.7-1.6c0.9,0,1.6,0.7,1.7,1.6h1.5c0-0.9,0.8-1.6,1.7-1.6c0.9,0,1.6,0.7,1.7,1.6h1.5c0.2-0.3,0.5-0.5,0.9-0.6
				v-1.5C64.6,77.5,63.9,76.8,63.9,75.9z"/>
		</g>
		<linearGradient id="SVGID_1_" gradientUnits="userSpaceOnUse" x1="33" y1="75.907" x2="33" y2="4.1124">
			<stop  offset="0" style="stop-color:#4B35D5"/>
			<stop  offset="0.9957" style="stop-color:#4759E8"/>
		</linearGradient>
		<polygon fill="url(#SVGID_1_)" points="61.3,75.9 4.7,75.9 4.7,4.1 61.3,4.1 61.3,75.9 		"/>
	</g>
	<g>
		<g id="Rounded_Rectangle_1_5_">
			<g>
				<path fill="#FFFFFF" d="M35.4,61.6h-4c-0.9,0-1.7-0.7-1.7-1.7v-4c0-0.9,0.8-1.7,1.7-1.7h4c0.9,0,1.7,0.8,1.7,1.7v4
					C37.1,60.9,36.3,61.6,35.4,61.6z M31.4,54.2c-0.9,0-1.7,0.8-1.7,1.7v4c0,0.9,0.7,1.7,1.7,1.7h4c0.9,0,1.7-0.7,1.7-1.7v-4
					c0-0.9-0.7-1.7-1.7-1.7H31.4z"/>
			</g>
			<g>
				<path fill="#FFFFFF" d="M35.4,54.3c0.9,0,1.6,0.7,1.6,1.6v4c0,0.9-0.7,1.6-1.6,1.6h-4c-0.9,0-1.6-0.7-1.6-1.6v-4
					c0-0.9,0.7-1.6,1.6-1.6H35.4 M35.4,54.1h-4c-1,0-1.8,0.8-1.8,1.8v4c0,1,0.8,1.8,1.8,1.8h4c1,0,1.8-0.8,1.8-1.8v-4
					C37.2,54.9,36.4,54.1,35.4,54.1L35.4,54.1z"/>
			</g>
		</g>
		<path fill="#FFFFFF" d="M30.5,51.3c0.1,0.2,0.1,0.4,0.2,0.6C30.4,52,30.2,52,30,51.7c-1.4-2.6-2.9-5.1-4.2-7.8
			c-1.2-2.5-2.4-5-3.4-7.6c0,0,0-0.1,0-0.1h3.8c0.7,2.9,1.5,5.8,2.3,8.6C29.1,47,29.9,49.1,30.5,51.3z"/>
		<path fill="#FFFFFF" d="M19.8,27.9h4.8c-0.1-0.6-0.2-1.2-0.3-1.8c-0.4-2.8-0.5-5.6,0-8.4c0.3-1.9,0.9-3.7,2-5.3
			c0.5-0.7,1.1-1.3,1.7-2c0,0,0,0,0-0.1c-0.8,0.3-1.7,0.6-2.5,1c-2.8,1.4-4.7,3.7-5.7,6.7c-0.7,2.3-0.8,4.7-0.5,7.2
			C19.5,26.2,19.6,27.1,19.8,27.9z"/>
		<path fill="#FFFFFF" d="M40.7,36.2c-0.4,1.7-0.8,3.4-1.3,5.1c-0.7,2.6-1.6,5.3-2.4,7.9c-0.3,0.9-0.6,1.8-0.9,2.7
			c0.5,0.1,0.5,0.1,0.7-0.3c0.1-0.2,0.3-0.5,0.4-0.7c1.2-2.3,2.5-4.7,3.7-7c1.3-2.5,2.4-5,3.5-7.7H40.7z"/>
		<path fill="#FFFFFF" d="M38.9,10.6c1.2,1,2.1,2.3,2.7,3.8c0.8,2,1.1,4.1,1.2,6.3c0.1,2.4-0.1,4.8-0.5,7.2h4.8
			c0.2-1.2,0.4-2.3,0.5-3.5c0.2-2.5,0-4.9-0.9-7.2c-0.5-1.2-1.2-2.3-2.1-3.3c-1-1.1-2.2-2-3.6-2.6c-0.7-0.3-1.5-0.6-2.3-0.9
			c0,0.1,0,0.1,0,0.2C38.8,10.6,38.8,10.6,38.9,10.6z"/>
		<path fill="#FFFFFF" d="M18.7,37.8c-0.3-0.5-0.5-1-0.8-1.5H17c1.4,2.6,3,4.9,4.7,7.2c0.4,0.6,0.9,1.1,1.3,1.7
			c-0.1-0.2-0.2-0.4-0.3-0.6C21.4,42.3,20,40.1,18.7,37.8z"/>
		<path fill="#FFFFFF" d="M13.5,27.9h1.3c-0.4-1.9-0.6-3.8-0.5-5.8c0.2-2.3,0.8-4.5,2.1-6.5c0.3-0.5,0.6-0.9,0.9-1.3
			c-1.2,0.9-2.4,2.4-3.1,3.8c-1.4,2.8-1.6,5.8-1,8.8C13.4,27.3,13.4,27.5,13.5,27.9z"/>
		<path fill="#FFFFFF" d="M47.3,39.4c-0.7,1.4-1.6,2.7-2.4,4c-0.3,0.6-0.7,1.1-1.1,1.7c0,0,0.1,0,0.1,0.1c0,0,0-0.1,0.1-0.1
			c0.9-1.2,1.8-2.4,2.7-3.7c1.1-1.6,2.1-3.3,3.1-5h-0.8C48.4,37.3,47.9,38.4,47.3,39.4z"/>
		<path fill="#FFFFFF" d="M51.2,17.3c1.2,2.6,1.5,5.3,1.2,8.2c-0.1,0.8-0.2,1.6-0.4,2.4h1.3c0.6-2.5,0.8-4.9,0.1-7.5
			c-0.7-2.5-2.1-4.5-4.1-6.1c0.1,0.1,0.2,0.2,0.2,0.3C50.2,15.5,50.8,16.4,51.2,17.3z"/>
		<path fill="#FFFFFF" d="M32.2,42.3c0.2,2.2,0.5,4.4,0.7,6.6c0.1,1,0.2,1.9,0.4,2.9c0,0.1,0.1,0.2,0.2,0.2c0.1-0.1,0.2-0.2,0.2-0.3
			c0.1-0.3,0.1-0.6,0.1-0.9c0.3-2.6,0.6-5.3,0.9-7.9c0.2-2.2,0.4-4.4,0.6-6.7h-3.7C31.8,38.2,32,40.3,32.2,42.3z"/>
		<path fill="#FFFFFF" d="M30.9,27.9h2.5h2.5c0-0.4,0.1-1,0.1-1.5c0.2-3.4,0.4-6.7,0.1-10.1c-0.1-1.5-0.4-2.9-1-4.3
			c-0.3-0.6-0.7-1.1-1.1-1.6c-0.2-0.2-0.4-0.3-0.6-0.3c-0.3,0-0.4,0.1-0.6,0.3c-0.5,0.5-0.8,1-1.1,1.6c-0.6,1.4-0.9,2.9-1,4.3
			c-0.3,3.4-0.1,6.7,0.1,10.1C30.8,26.9,30.9,27.5,30.9,27.9z"/>
		<path fill="#FFFFFF" d="M35.1,57.1c-0.4-1.2-1.2-1.6-2.4-1.2l-1.3,0.4l1.2,3.7l1.3-0.4C35.2,59.3,35.5,58.4,35.1,57.1z M33.9,59.2
			L33,59.5l-0.9-2.9l0.8-0.3c0.9-0.3,1.4,0.1,1.7,1C35.1,58.7,34.2,59.1,33.9,59.2z"/>
		<g>
			<g>
				<polygon fill="#FFFFFF" points="11.9,29.5 11.9,34.7 12.5,34.7 12.5,30.4 12.5,30.4 14.2,34.7 14.8,34.7 16.4,30.4 16.4,30.4 
					16.4,34.7 17.1,34.7 17.1,29.5 16.1,29.5 14.5,33.9 12.8,29.5 				"/>
			</g>
			<g>
				<polygon fill="#FFFFFF" points="20.4,32.6 22.4,29.5 21.6,29.5 20.1,32 18.5,29.5 17.7,29.5 19.7,32.6 19.7,34.7 20.4,34.7 				
					"/>
			</g>
			<path fill="#FFFFFF" d="M28.7,30.1c-0.4-0.4-1.1-0.6-1.9-0.6H25v5.2h1.8c0.4,0,0.8-0.1,1.1-0.2c0.3-0.1,0.6-0.3,0.8-0.5
				c0.2-0.2,0.4-0.5,0.5-0.9c0.1-0.3,0.1-0.7,0.1-1.2C29.3,31.2,29.1,30.5,28.7,30.1z M28.5,32.9c-0.1,0.2-0.1,0.4-0.3,0.6
				c-0.1,0.2-0.2,0.3-0.3,0.4c-0.1,0.1-0.3,0.2-0.4,0.2c-0.1,0-0.3,0.1-0.4,0.1c-0.1,0-0.2,0-0.3,0h-1.2v-4h1.2c0.3,0,0.6,0,0.8,0.1
				c0.2,0.1,0.4,0.2,0.5,0.4c0.1,0.2,0.2,0.4,0.3,0.6c0.1,0.2,0.1,0.5,0.1,0.8C28.6,32.4,28.6,32.7,28.5,32.9z"/>
			<path fill="#FFFFFF" d="M34.2,34.4c0-0.1-0.1-0.2-0.1-0.4c0-0.1,0-0.3,0-0.4c0-0.1,0-0.3,0-0.4c0-0.1,0-0.2-0.1-0.4
				c0-0.1-0.1-0.2-0.1-0.3c-0.1-0.1-0.1-0.2-0.2-0.2c-0.1-0.1-0.2-0.1-0.4-0.1v0c0.3-0.1,0.6-0.3,0.7-0.5c0.1-0.2,0.2-0.5,0.2-0.8
				c0-0.4-0.1-0.8-0.4-1c-0.3-0.2-0.7-0.4-1.2-0.4h-2.5v5.2h0.8v-2.2h1.7c0.2,0,0.3,0,0.4,0.1c0.1,0.1,0.2,0.1,0.2,0.2
				c0.1,0.1,0.1,0.2,0.1,0.3c0,0.1,0.1,0.2,0.1,0.4c0,0.1,0,0.3,0,0.4c0,0.1,0,0.3,0,0.4c0,0.1,0,0.2,0,0.3c0,0.1,0,0.2,0.1,0.2h0.8
				C34.3,34.6,34.2,34.5,34.2,34.4z M33.1,31.7c-0.1,0.1-0.2,0.1-0.4,0.1c-0.1,0-0.3,0-0.5,0h-1.4v-1.8h1.7c0.3,0,0.6,0.1,0.7,0.2
				c0.1,0.2,0.2,0.4,0.2,0.6c0,0.2,0,0.3-0.1,0.5C33.3,31.6,33.2,31.7,33.1,31.7z"/>
			<g>
				<polygon fill="#FFFFFF" points="35.1,29.5 35.1,34.7 38.8,34.7 38.8,34.1 35.8,34.1 35.8,32.3 38.6,32.3 38.6,31.7 35.8,31.7 
					35.8,30.1 38.8,30.1 38.8,29.5 				"/>
			</g>
			<path fill="#FFFFFF" d="M41.8,29.5H41l-2,5.2h0.7l0.6-1.6h2.2l0.6,1.6h0.8L41.8,29.5z M40.5,32.6l0.9-2.5h0l0.9,2.5H40.5z"/>
			<g>
				<polygon fill="#FFFFFF" points="44.4,29.5 44.4,34.7 45,34.7 45,30.4 45.1,30.4 46.7,34.7 47.3,34.7 48.9,30.4 48.9,30.4 
					48.9,34.7 49.6,34.7 49.6,29.5 48.6,29.5 47,33.9 45.3,29.5 				"/>
			</g>
			<g>
				<path fill="#FFFFFF" d="M53.8,31h0.7c0-0.3-0.1-0.5-0.2-0.7c-0.1-0.2-0.2-0.4-0.4-0.5c-0.2-0.1-0.4-0.2-0.6-0.3
					c-0.2-0.1-0.5-0.1-0.7-0.1c-0.2,0-0.5,0-0.7,0.1c-0.2,0.1-0.4,0.2-0.6,0.3c-0.2,0.1-0.3,0.3-0.4,0.5c-0.1,0.2-0.2,0.4-0.2,0.7
					c0,0.2,0,0.4,0.1,0.6c0.1,0.2,0.2,0.3,0.4,0.4c0.2,0.1,0.3,0.2,0.5,0.2c0.2,0.1,0.4,0.1,0.6,0.2c0.2,0,0.4,0.1,0.6,0.1
					c0.2,0,0.4,0.1,0.5,0.2c0.2,0.1,0.3,0.2,0.4,0.3c0.1,0.1,0.1,0.3,0.1,0.4c0,0.2,0,0.3-0.1,0.5c-0.1,0.1-0.2,0.2-0.3,0.3
					c-0.1,0.1-0.3,0.1-0.4,0.1c-0.2,0-0.3,0-0.5,0c-0.2,0-0.4,0-0.6-0.1c-0.2,0-0.3-0.1-0.5-0.2c-0.1-0.1-0.3-0.2-0.3-0.4
					c-0.1-0.2-0.1-0.3-0.1-0.6h-0.7c0,0.3,0.1,0.6,0.2,0.8c0.1,0.2,0.3,0.4,0.5,0.6c0.2,0.1,0.4,0.3,0.7,0.3
					c0.3,0.1,0.5,0.1,0.8,0.1c0.2,0,0.5,0,0.7-0.1c0.2-0.1,0.5-0.1,0.7-0.3c0.2-0.1,0.4-0.3,0.5-0.5c0.1-0.2,0.2-0.4,0.2-0.7
					c0-0.3,0-0.5-0.1-0.6c-0.1-0.2-0.2-0.3-0.4-0.4C54,32.1,53.8,32,53.6,32c-0.2-0.1-0.4-0.1-0.6-0.2c-0.2,0-0.4-0.1-0.6-0.1
					c-0.2,0-0.4-0.1-0.5-0.2c-0.2-0.1-0.3-0.1-0.4-0.2c-0.1-0.1-0.1-0.2-0.1-0.4c0-0.2,0-0.3,0.1-0.4c0.1-0.1,0.2-0.2,0.3-0.3
					c0.1-0.1,0.2-0.1,0.4-0.1c0.1,0,0.3,0,0.4,0c0.4,0,0.7,0.1,0.9,0.2C53.6,30.4,53.7,30.6,53.8,31z"/>
			</g>
		</g>
		<path fill="#FFFFFF" d="M55.7,28.9c-0.4,0-0.6-0.3-0.6-0.6s0.3-0.6,0.6-0.6c0.4,0,0.6,0.3,0.6,0.6S56.1,28.9,55.7,28.9z
			 M55.7,27.7c-0.3,0-0.6,0.3-0.6,0.6s0.3,0.6,0.6,0.6c0.3,0,0.6-0.3,0.6-0.6S56,27.7,55.7,27.7z"/>
		<path fill="#FFFFFF" d="M56,28.6C56,28.6,56,28.6,56,28.6C56,28.5,56,28.5,56,28.6c0-0.1,0-0.1,0-0.1c0,0,0,0,0,0c0,0,0,0,0,0
			s0,0,0,0c0,0,0,0,0,0v0c0,0,0.1,0,0.1-0.1c0,0,0-0.1,0-0.1c0-0.1,0-0.1-0.1-0.1c0,0-0.1,0-0.1,0h-0.3v0.6h0.1v-0.3h0.2
			c0,0,0,0,0.1,0c0,0,0,0,0,0c0,0,0,0,0,0c0,0,0,0,0,0C55.9,28.5,55.9,28.5,56,28.6C55.9,28.5,55.9,28.5,56,28.6
			C55.9,28.6,55.9,28.6,56,28.6C55.9,28.6,55.9,28.6,56,28.6L56,28.6C56,28.6,56,28.6,56,28.6z M55.8,28.3
			C55.8,28.3,55.8,28.3,55.8,28.3c-0.1,0-0.1,0-0.1,0h-0.2V28h0.2c0,0,0.1,0,0.1,0S55.9,28.1,55.8,28.3
			C55.9,28.2,55.9,28.2,55.8,28.3C55.9,28.2,55.9,28.2,55.8,28.3z"/>
	</g>
	<g>
		<path fill="#FFFFFF" d="M11.7,69.4v1.7h-0.3V67h1.4c0.4,0,0.8,0.1,1,0.3c0.2,0.2,0.4,0.5,0.4,0.9c0,0.4-0.1,0.7-0.4,0.9
			c-0.2,0.2-0.6,0.3-1,0.3H11.7z M11.7,69.1h1.1c0.3,0,0.6-0.1,0.8-0.3c0.2-0.2,0.3-0.4,0.3-0.7c0-0.3-0.1-0.5-0.3-0.7
			c-0.2-0.2-0.4-0.3-0.8-0.3h-1.1V69.1z"/>
		<path fill="#FFFFFF" d="M15.9,69.2v1.9h-0.3V67h1.4c0.4,0,0.8,0.1,1,0.3c0.2,0.2,0.4,0.5,0.4,0.8c0,0.2-0.1,0.4-0.2,0.6
			c-0.1,0.2-0.3,0.3-0.5,0.4c0.3,0.1,0.4,0.2,0.6,0.3c0.1,0.2,0.2,0.4,0.2,0.6v0.4c0,0.1,0,0.2,0,0.3c0,0.1,0.1,0.2,0.1,0.2v0.1
			h-0.3C18.1,71,18,70.9,18,70.8c0-0.1,0-0.3,0-0.4v-0.4c0-0.3-0.1-0.5-0.2-0.6c-0.2-0.1-0.4-0.2-0.7-0.2H15.9z M15.9,68.9h1
			c0.4,0,0.6-0.1,0.8-0.2c0.2-0.1,0.3-0.3,0.3-0.6c0-0.3-0.1-0.5-0.3-0.6c-0.2-0.1-0.4-0.2-0.8-0.2h-1.1V68.9z"/>
		<path fill="#FFFFFF" d="M22.2,69.1h-2v1.7h2.3v0.3h-2.6V67h2.6v0.3h-2.2v1.5h2V69.1z"/>
		<path fill="#FFFFFF" d="M26.2,70.1c0-0.2-0.1-0.4-0.3-0.5c-0.2-0.1-0.5-0.3-0.9-0.4c-0.4-0.1-0.8-0.3-1-0.4
			c-0.2-0.2-0.3-0.4-0.3-0.7c0-0.3,0.1-0.6,0.4-0.8c0.3-0.2,0.6-0.3,1-0.3c0.4,0,0.8,0.1,1,0.4c0.3,0.2,0.4,0.5,0.4,0.9l0,0h-0.3
			c0-0.3-0.1-0.5-0.3-0.7c-0.2-0.2-0.5-0.3-0.8-0.3c-0.3,0-0.6,0.1-0.8,0.2C24.1,67.6,24,67.8,24,68c0,0.2,0.1,0.4,0.3,0.5
			c0.2,0.1,0.5,0.3,0.9,0.4c0.4,0.1,0.8,0.3,1,0.5c0.2,0.2,0.3,0.4,0.3,0.8c0,0.3-0.1,0.6-0.4,0.8c-0.3,0.2-0.6,0.3-1,0.3
			c-0.4,0-0.8-0.1-1.1-0.3c-0.3-0.2-0.5-0.5-0.4-0.9l0,0h0.3c0,0.3,0.1,0.6,0.4,0.7c0.2,0.2,0.5,0.2,0.8,0.2c0.3,0,0.6-0.1,0.8-0.2
			C26.1,70.5,26.2,70.3,26.2,70.1z"/>
		<path fill="#FFFFFF" d="M28.3,71.1H28V67h0.3V71.1z"/>
		<path fill="#FFFFFF" d="M30,71.1V67h1.2c0.5,0,0.9,0.2,1.2,0.5c0.3,0.3,0.5,0.8,0.5,1.3v0.5c0,0.5-0.2,1-0.5,1.3
			c-0.3,0.3-0.7,0.5-1.2,0.5H30z M30.4,67.3v3.5h0.9c0.4,0,0.7-0.1,1-0.4c0.3-0.3,0.4-0.6,0.4-1.1v-0.5c0-0.4-0.1-0.8-0.4-1.1
			c-0.3-0.3-0.6-0.4-1-0.4H30.4z"/>
		<path fill="#FFFFFF" d="M36.7,69.1h-2v1.7H37v0.3h-2.6V67H37v0.3h-2.2v1.5h2V69.1z"/>
		<path fill="#FFFFFF" d="M41.3,71.1H41l-2.3-3.5l0,0v3.5h-0.3V67h0.3l2.3,3.5l0,0V67h0.3V71.1z"/>
		<path fill="#FFFFFF" d="M45.6,67.3h-1.4v3.8h-0.3v-3.8h-1.4V67h3.2V67.3z"/>
		<path fill="#FFFFFF" d="M47.3,71.1H47V67h0.3V71.1z"/>
		<path fill="#FFFFFF" d="M51.3,70h-1.9L49,71.1h-0.3l1.6-4.1h0.3l1.5,4.1h-0.3L51.3,70z M49.5,69.6h1.7l-0.8-2.2h0L49.5,69.6z"/>
		<path fill="#FFFFFF" d="M53.6,70.8h2v0.3h-2.4V67h0.3V70.8z"/>
	</g>
</g>
</svg>
