<?xml version="1.0" encoding="utf-8"?>
<!-- Generator: Adobe Illustrator 18.0.0, SVG Export Plug-In . SVG Version: 6.00 Build 0)  -->
<!DOCTYPE svg PUBLIC "-//W3C//DTD SVG 1.1//EN" "http://www.w3.org/Graphics/SVG/1.1/DTD/svg11.dtd">
<svg version="1.1" id="Слой_1" xmlns="http://www.w3.org/2000/svg" xmlns:xlink="http://www.w3.org/1999/xlink" x="0px" y="0px"
	 viewBox="0 0 66 80" enable-background="new 0 0 66 80" xml:space="preserve">
<g>
	<g>
		<g>
			<g>
				<path fill="#FFFFFF" d="M53.4,79.6L53.4,79.6c0-0.9-0.7-1.6-1.6-1.6l0,0c-0.8,0-1.5,0.7-1.6,1.5l0,0l0,0.1h-1.6l0-0.1
					c0-0.8-0.7-1.5-1.6-1.5l0,0c-0.8,0-1.5,0.7-1.6,1.5l0,0l0,0.1h-1.6l0-0.1c0-0.8-0.7-1.5-1.6-1.5l0,0c-0.8,0-1.5,0.7-1.6,1.5l0,0
					l0,0.1h-1.6l0-0.1c0-0.8-0.7-1.5-1.6-1.5l0,0c-0.8,0-1.5,0.7-1.6,1.5l0,0l0,0.1h-1.6l0-0.1c0-0.8-0.7-1.5-1.6-1.5l0,0
					c-0.8,0-1.5,0.7-1.6,1.5l0,0l0,0.1h-1.6l0-0.1c0-0.8-0.7-1.5-1.6-1.5l0,0c-0.8,0-1.5,0.7-1.6,1.5l0,0l0,0.1h-1.6l0-0.1
					c0-0.8-0.7-1.5-1.6-1.5l0,0c-0.8,0-1.5,0.7-1.6,1.5l0,0l0,0.1H20l0-0.1c0-0.8-0.7-1.5-1.6-1.5l0,0c-0.8,0-1.5,0.7-1.6,1.5l0,0
					l0,0.1h-1.6l0-0.1c0-0.8-0.7-1.5-1.6-1.5l0,0c-0.8,0-1.5,0.7-1.6,1.5l0,0l0,0.1h-1.6l0-0.1c0-0.8-0.7-1.5-1.6-1.5l0,0
					c-0.8,0-1.5,0.7-1.6,1.5l0,0l0,0.1H5.6l0-0.1c0-0.8-0.7-1.5-1.6-1.5l0,0c-0.8,0-1.5,0.7-1.6,1.5l0,0l0,0.1H1.2l0,0
					c-0.2-0.2-0.4-0.4-0.6-0.5l0,0l0,0v-1.7l0.1,0c0.8-0.1,1.4-0.7,1.4-1.6l0,0c0-0.8-0.6-1.5-1.4-1.6l0,0l-0.1,0v-1.6l0.1,0
					c0.8-0.1,1.4-0.7,1.4-1.6l0,0c0-0.8-0.6-1.5-1.4-1.6l0,0l-0.1,0v-1.6l0.1,0c0.8-0.1,1.4-0.7,1.4-1.6l0,0c0-0.8-0.6-1.5-1.4-1.6
					l0,0l-0.1,0v-1.6l0.1,0c0.8-0.1,1.4-0.7,1.4-1.6l0,0c0-0.8-0.6-1.5-1.4-1.6l0,0l-0.1,0v-1.6l0.1,0c0.8-0.1,1.4-0.7,1.4-1.6l0,0
					c0-0.8-0.6-1.5-1.4-1.6l0,0l-0.1,0v-1.6l0.1,0c0.8-0.1,1.4-0.7,1.4-1.6l0,0c0-0.8-0.6-1.5-1.4-1.6l0,0l-0.1,0v-1.6l0.1,0
					c0.8-0.1,1.4-0.7,1.4-1.6l0,0c0-0.8-0.6-1.5-1.4-1.6l0,0l-0.1,0V44l0.1,0c0.8-0.1,1.4-0.7,1.4-1.6l0,0c0-0.8-0.6-1.5-1.4-1.6
					l0,0l-0.1,0v-1.6l0.1,0c0.8-0.1,1.4-0.7,1.4-1.6l0,0c0-0.8-0.6-1.5-1.4-1.6l0,0l-0.1,0v-1.6l0.1,0c0.8-0.1,1.4-0.7,1.4-1.6l0,0
					c0-0.8-0.6-1.5-1.4-1.6l0,0l-0.1,0v-1.6l0.1,0c0.8-0.1,1.4-0.7,1.4-1.6l0,0c0-0.8-0.6-1.5-1.4-1.6l0,0l-0.1,0v-1.6l0.1,0
					c0.8-0.1,1.4-0.7,1.4-1.6l0,0c0-0.8-0.6-1.5-1.4-1.6l0,0l-0.1,0v-1.6l0.1,0c0.8-0.1,1.4-0.7,1.4-1.6l0,0c0-0.8-0.6-1.5-1.4-1.6
					l0,0l-0.1,0v-1.6l0.1,0c0.8-0.1,1.4-0.7,1.4-1.6l0,0c0-0.8-0.6-1.5-1.4-1.6l0,0l-0.1,0v-1.6l0.1,0C1.5,10.5,2.1,9.8,2.1,9l0,0
					c0-0.8-0.6-1.5-1.4-1.6l0,0l-0.1,0V5.8l0.1,0C1.5,5.7,2.1,5,2.1,4.2l0,0c0-0.8-0.6-1.5-1.4-1.6l0,0l-0.1,0V1.4l0,0
					c0.4-0.2,0.7-0.5,0.8-1l0,0l0-0.1h1l0,0.1c0.1,0.8,0.8,1.4,1.6,1.4l0,0c0.8,0,1.5-0.6,1.6-1.4l0,0l0-0.1h1.6l0,0.1
					C7.4,1.2,8,1.8,8.8,1.8l0,0c0.8,0,1.5-0.6,1.6-1.4l0,0l0-0.1H12l0,0.1c0.1,0.8,0.8,1.4,1.6,1.4l0,0c0.8,0,1.5-0.6,1.6-1.4l0,0
					l0-0.1h1.6l0,0.1c0.1,0.8,0.8,1.4,1.6,1.4l0,0c0.8,0,1.5-0.6,1.6-1.4l0,0l0-0.1h1.6l0,0.1c0.1,0.8,0.8,1.4,1.6,1.4l0,0
					c0.8,0,1.5-0.6,1.6-1.4l0,0l0-0.1h1.6l0,0.1c0.1,0.8,0.8,1.4,1.6,1.4l0,0c0.8,0,1.5-0.6,1.6-1.4l0,0l0-0.1h1.6l0,0.1
					c0.1,0.8,0.8,1.4,1.6,1.4l0,0c0.8,0,1.5-0.6,1.6-1.4l0,0l0-0.1h1.6l0,0.1c0.1,0.8,0.8,1.4,1.6,1.4l0,0c0.8,0,1.5-0.6,1.6-1.4
					l0,0l0-0.1h1.6l0,0.1c0.1,0.8,0.8,1.4,1.6,1.4l0,0c0.8,0,1.5-0.6,1.6-1.4l0,0l0-0.1h1.6l0,0.1c0.1,0.8,0.8,1.4,1.6,1.4l0,0
					c0.8,0,1.5-0.6,1.6-1.4l0,0l0-0.1h1.6l0,0.1c0.1,0.8,0.8,1.4,1.6,1.4l0,0c0.8,0,1.5-0.6,1.6-1.4l0,0l0-0.1H55l0,0.1
					c0.1,0.8,0.8,1.4,1.6,1.4l0,0c0.8,0,1.5-0.6,1.6-1.4l0,0l0-0.1h1.6l0,0.1c0.1,0.8,0.8,1.4,1.6,1.4l0,0c0.8,0,1.5-0.6,1.6-1.4
					l0,0l0-0.1h1.3l0,0.1c0.2,0.5,0.6,0.9,1.1,1.1l0,0l0.1,0v1.1l-0.1,0c-0.8,0.1-1.4,0.7-1.4,1.6l0,0c0,0.8,0.6,1.5,1.4,1.6l0,0
					l0.1,0v1.6l-0.1,0c-0.8,0.1-1.4,0.7-1.4,1.6l0,0c0,0.8,0.6,1.5,1.4,1.6l0,0l0.1,0v1.6l-0.1,0c-0.8,0.1-1.4,0.7-1.4,1.6l0,0
					c0,0.8,0.6,1.5,1.4,1.6l0,0l0.1,0v1.6l-0.1,0c-0.8,0.1-1.4,0.7-1.4,1.6l0,0c0,0.8,0.6,1.5,1.4,1.6l0,0l0.1,0v1.6l-0.1,0
					c-0.8,0.1-1.4,0.7-1.4,1.6l0,0c0,0.8,0.6,1.5,1.4,1.6l0,0l0.1,0v1.6l-0.1,0c-0.8,0.1-1.4,0.7-1.4,1.6l0,0c0,0.8,0.6,1.5,1.4,1.6
					l0,0l0.1,0v1.6l-0.1,0c-0.8,0.1-1.4,0.7-1.4,1.6l0,0c0,0.8,0.6,1.5,1.4,1.6l0,0l0.1,0V36l-0.1,0c-0.8,0.1-1.4,0.7-1.4,1.6l0,0
					c0,0.8,0.6,1.5,1.4,1.6l0,0l0.1,0v1.6l-0.1,0c-0.8,0.1-1.4,0.7-1.4,1.6l0,0c0,0.8,0.6,1.5,1.4,1.6l0,0l0.1,0v1.6l-0.1,0
					c-0.8,0.1-1.4,0.7-1.4,1.6l0,0c0,0.8,0.6,1.5,1.4,1.6l0,0l0.1,0v1.6l-0.1,0c-0.8,0.1-1.4,0.7-1.4,1.6l0,0c0,0.8,0.6,1.5,1.4,1.6
					l0,0l0.1,0v1.6l-0.1,0c-0.8,0.1-1.4,0.7-1.4,1.6l0,0c0,0.8,0.6,1.5,1.4,1.6l0,0l0.1,0v1.6l-0.1,0c-0.8,0.1-1.4,0.7-1.4,1.6l0,0
					c0,0.8,0.6,1.5,1.4,1.6l0,0l0.1,0v1.6l-0.1,0c-0.8,0.1-1.4,0.7-1.4,1.6l0,0c0,0.8,0.6,1.5,1.4,1.6l0,0l0.1,0v1.6l-0.1,0
					c-0.8,0.1-1.4,0.7-1.4,1.6l0,0c0,0.8,0.6,1.5,1.4,1.6l0,0l0.1,0v1.6l-0.1,0c-0.8,0.1-1.4,0.7-1.4,1.6l0,0c0,0.8,0.6,1.5,1.4,1.6
					l0,0l0.1,0V79l-0.1,0c-0.3,0.1-0.6,0.3-0.8,0.6l0,0l0,0h-1.6l0-0.1c0-0.8-0.7-1.5-1.6-1.5l0,0c-0.8,0-1.5,0.7-1.6,1.5l0,0l0,0.1
					h-1.6l0-0.1c0-0.8-0.7-1.5-1.6-1.5l0,0c-0.8,0-1.5,0.7-1.6,1.5l0,0l0,0.1H53.4L53.4,79.6z M64.4,79.5c0.2,0,0.5-0.5,0.8-0.6l0,0
					v-1.3c-0.9-0.1-1.5-0.8-1.5-1.7l0,0c0-0.9,0.7-1.6,1.5-1.7l0,0v-1.3c-0.9-0.1-1.5-0.8-1.5-1.7l0,0c0-0.9,0.7-1.6,1.5-1.7l0,0V68
					c-0.9-0.1-1.5-0.8-1.5-1.7l0,0c0-0.9,0.7-1.6,1.5-1.7l0,0v-1.3c-0.9-0.1-1.5-0.8-1.5-1.7l0,0c0-0.9,0.7-1.6,1.5-1.7l0,0v-1.3
					c-0.9-0.1-1.5-0.8-1.5-1.7l0,0c0-0.9,0.7-1.6,1.5-1.7l0,0v-1.3c-0.9-0.1-1.5-0.8-1.5-1.7l0,0c0-0.9,0.7-1.6,1.5-1.7l0,0v-1.3
					c-0.9-0.1-1.5-0.8-1.5-1.7l0,0c0-0.9,0.7-1.6,1.5-1.7l0,0v-1.3c-0.9-0.1-1.5-0.8-1.5-1.7l0,0c0-0.9,0.7-1.6,1.5-1.7l0,0v-1.3
					c-0.9-0.1-1.5-0.8-1.5-1.7l0,0c0-0.9,0.7-1.6,1.5-1.7l0,0v-1.3c-0.9-0.1-1.5-0.8-1.5-1.7l0,0c0-0.9,0.7-1.6,1.5-1.7l0,0v-1.3
					c-0.9-0.1-1.5-0.8-1.5-1.7l0,0c0-0.9,0.7-1.6,1.5-1.7l0,0V25c-0.9-0.1-1.5-0.8-1.5-1.7l0,0c0-0.9,0.7-1.6,1.5-1.7l0,0v-1.3
					c-0.9-0.1-1.5-0.8-1.5-1.7l0,0c0-0.9,0.7-1.6,1.5-1.7l0,0v-1.3c-0.9-0.1-1.5-0.8-1.5-1.7l0,0c0-0.9,0.7-1.6,1.5-1.7l0,0v-1.3
					c-0.9-0.1-1.5-0.8-1.5-1.7l0,0c0-0.9,0.7-1.6,1.5-1.7l0,0V5.9c-0.9-0.1-1.5-0.8-1.5-1.7l0,0c0-0.9,0.7-1.6,1.5-1.7l0,0V1.6
					c-0.5-0.2-0.9-0.6-1.1-1.1l0,0h-1.1C63,1.4,62.2,2,61.4,2l0,0c-0.9,0-1.6-0.6-1.7-1.5l0,0h-1.3C58.2,1.4,57.5,2,56.6,2l0,0
					c-0.9,0-1.6-0.6-1.7-1.5l0,0h-1.3C53.4,1.4,52.7,2,51.8,2l0,0c-0.9,0-1.6-0.6-1.7-1.5l0,0h-1.3C48.6,1.4,47.9,2,47,2l0,0
					c-0.9,0-1.6-0.6-1.7-1.5l0,0H44C43.9,1.4,43.1,2,42.3,2l0,0c-0.9,0-1.6-0.6-1.7-1.5l0,0h-1.3C39.1,1.4,38.4,2,37.5,2l0,0
					c-0.9,0-1.6-0.6-1.7-1.5l0,0h-1.3C34.3,1.4,33.6,2,32.7,2l0,0c-0.9,0-1.6-0.6-1.7-1.5l0,0h-1.3C29.5,1.4,28.8,2,27.9,2l0,0
					c-0.9,0-1.6-0.6-1.7-1.5l0,0h-1.3C24.8,1.4,24,2,23.2,2l0,0c-0.9,0-1.6-0.6-1.7-1.5l0,0h-1.3C20,1.4,19.3,2,18.4,2l0,0
					c-0.9,0-1.6-0.6-1.7-1.5l0,0h-1.3C15.2,1.4,14.5,2,13.6,2l0,0c-0.9,0-1.6-0.6-1.7-1.5l0,0h-1.3C10.4,1.4,9.7,2,8.8,2l0,0
					C8,2,7.2,1.4,7.1,0.5l0,0H5.8C5.7,1.4,4.9,2,4.1,2l0,0C3.2,2,2.5,1.4,2.3,0.5l0,0H1.6c-0.1,0.4-0.5,0.8-0.9,1l0,0v0.9
					c0.9,0.1,1.5,0.8,1.5,1.7l0,0c0,0.9-0.6,1.6-1.5,1.7l0,0v1.3C1.6,7.3,2.2,8.1,2.2,9l0,0c0,0.9-0.6,1.6-1.5,1.7l0,0V12
					c0.9,0.1,1.5,0.8,1.5,1.7l0,0c0,0.9-0.6,1.6-1.5,1.7l0,0v1.3c0.9,0.1,1.5,0.8,1.5,1.7l0,0c0,0.9-0.6,1.6-1.5,1.7l0,0v1.3
					c0.9,0.1,1.5,0.8,1.5,1.7l0,0c0,0.9-0.6,1.6-1.5,1.7l0,0v1.3c0.9,0.1,1.5,0.8,1.5,1.7l0,0c0,0.9-0.6,1.6-1.5,1.7l0,0v1.3
					c0.9,0.1,1.5,0.8,1.5,1.7l0,0c0,0.9-0.6,1.6-1.5,1.7l0,0v1.3c0.9,0.1,1.5,0.8,1.5,1.7l0,0c0,0.9-0.6,1.6-1.5,1.7l0,0v1.3
					c0.9,0.1,1.5,0.8,1.5,1.7l0,0c0,0.9-0.6,1.6-1.5,1.7l0,0v1.3c0.9,0.1,1.5,0.8,1.5,1.7l0,0c0,0.9-0.6,1.6-1.5,1.7l0,0v1.3
					c0.9,0.1,1.5,0.8,1.5,1.7l0,0c0,0.9-0.6,1.6-1.5,1.7l0,0V55c0.9,0.1,1.5,0.8,1.5,1.7l0,0c0,0.9-0.6,1.6-1.5,1.7l0,0v1.3
					c0.9,0.1,1.5,0.8,1.5,1.7l0,0c0,0.9-0.7,1.6-1.5,1.7l0,0v1.3c0.9,0.1,1.5,0.8,1.5,1.7l0,0c0,0.9-0.6,1.6-1.5,1.7l0,0v1.3
					c0.9,0.1,1.5,0.8,1.5,1.7l0,0c0,0.9-0.6,1.6-1.5,1.7l0,0v1.3c0.9,0.1,1.5,0.8,1.5,1.7l0,0c0,0.9-0.6,1.6-1.5,1.7l0,0V79
					c0.2,0.1,0.4,0.3,0.6,0.5l0,0h1c0.1-0.9,0.8-1.6,1.7-1.6l0,0c0.9,0,1.7,0.7,1.7,1.6l0,0h1.3c0.1-0.9,0.8-1.6,1.7-1.6l0,0
					c0.9,0,1.7,0.7,1.7,1.6l0,0h1.3c0.1-0.9,0.8-1.6,1.7-1.6l0,0c0.9,0,1.7,0.7,1.7,1.6l0,0h1.3c0.1-0.9,0.8-1.6,1.7-1.6l0,0
					c0.9,0,1.7,0.7,1.7,1.6l0,0h1.3c0.1-0.9,0.8-1.6,1.7-1.6l0,0c0.9,0,1.7,0.7,1.7,1.6l0,0h1.3c0.1-0.9,0.8-1.6,1.7-1.6l0,0
					c0.9,0,1.7,0.7,1.7,1.6l0,0H31c0.1-0.9,0.8-1.6,1.7-1.6l0,0c0.9,0,1.7,0.7,1.7,1.6l0,0h1.3c0.1-0.9,0.8-1.6,1.7-1.6l0,0
					c0.9,0,1.7,0.7,1.7,1.6l0,0h1.3c0.1-0.9,0.8-1.6,1.7-1.6l0,0c0.9,0,1.7,0.7,1.7,1.6l0,0h1.3c0.1-0.9,0.8-1.6,1.7-1.6l0,0
					c0.9,0,1.7,0.7,1.7,1.6l0,0h1.3c0.1-0.9,0.8-1.6,1.7-1.6l0,0c0.9,0,1.7,0.7,1.7,1.6l0,0h1.3c0.1-0.9,0.8-1.6,1.7-1.6l0,0
					c0.9,0,1.7,0.7,1.7,1.6l0,0h1.3c0.1-0.9,0.8-1.6,1.7-1.6l0,0c0.9,0,1.7,0.7,1.7,1.6l0,0H64.4L64.4,79.5z"/>
				<path fill="#FFFFFF" d="M63.8,75.8c0-0.9,0.7-1.6,1.5-1.7v-1.5c-0.9-0.1-1.5-0.8-1.5-1.7c0-0.9,0.7-1.6,1.5-1.7v-1.5
					c-0.9-0.1-1.5-0.8-1.5-1.7c0-0.9,0.7-1.6,1.5-1.7v-1.5c-0.9-0.1-1.5-0.8-1.5-1.7c0-0.9,0.7-1.6,1.5-1.7v-1.5
					c-0.9-0.1-1.5-0.8-1.5-1.7c0-0.9,0.7-1.6,1.5-1.7v-1.5c-0.9-0.1-1.5-0.8-1.5-1.7c0-0.9,0.7-1.6,1.5-1.7v-1.5
					c-0.9-0.1-1.5-0.8-1.5-1.7c0-0.9,0.7-1.6,1.5-1.7V44c-0.9-0.1-1.5-0.8-1.5-1.7c0-0.9,0.7-1.6,1.5-1.7v-1.5
					c-0.9-0.1-1.5-0.8-1.5-1.7c0-0.9,0.7-1.6,1.5-1.7v-1.5c-0.9-0.1-1.5-0.8-1.5-1.7c0-0.9,0.7-1.6,1.5-1.7v-1.5
					c-0.9-0.1-1.5-0.8-1.5-1.7c0-0.9,0.7-1.6,1.5-1.7v-1.5c-0.9-0.1-1.5-0.8-1.5-1.7s0.7-1.6,1.5-1.7v-1.5c-0.9-0.1-1.5-0.8-1.5-1.7
					c0-0.9,0.7-1.6,1.5-1.7v-1.5c-0.9-0.1-1.5-0.8-1.5-1.7c0-0.9,0.7-1.6,1.5-1.7v-1.5c-0.9-0.1-1.5-0.8-1.5-1.7
					c0-0.9,0.7-1.6,1.5-1.7V5.8c-0.9-0.1-1.5-0.8-1.5-1.7c0-0.9,0.7-1.6,1.5-1.7v-1c-0.5-0.2-1-0.6-1.1-1.1H63
					c-0.1,0.8-0.8,1.5-1.6,1.5c-0.9,0-1.6-0.7-1.6-1.5h-1.5c-0.1,0.8-0.8,1.5-1.6,1.5c-0.9,0-1.6-0.7-1.6-1.5h-1.5
					c-0.1,0.8-0.8,1.5-1.6,1.5c-0.9,0-1.6-0.7-1.6-1.5h-1.5c-0.1,0.8-0.8,1.5-1.6,1.5c-0.9,0-1.6-0.7-1.6-1.5h-1.5
					c-0.1,0.8-0.8,1.5-1.6,1.5c-0.9,0-1.6-0.7-1.6-1.5h-1.5c-0.1,0.8-0.8,1.5-1.6,1.5c-0.9,0-1.6-0.7-1.6-1.5h-1.5
					c-0.1,0.8-0.8,1.5-1.6,1.5c-0.9,0-1.6-0.7-1.6-1.5h-1.5c-0.1,0.8-0.8,1.5-1.6,1.5c-0.9,0-1.6-0.7-1.6-1.5h-1.5
					c-0.1,0.8-0.8,1.5-1.6,1.5c-0.9,0-1.6-0.7-1.6-1.5H20c-0.1,0.8-0.8,1.5-1.6,1.5c-0.9,0-1.6-0.7-1.6-1.5h-1.5
					c-0.1,0.8-0.8,1.5-1.6,1.5c-0.9,0-1.6-0.7-1.6-1.5h-1.5c-0.1,0.8-0.8,1.5-1.6,1.5C8,1.9,7.3,1.3,7.2,0.4H5.7
					C5.6,1.3,4.9,1.9,4.1,1.9c-0.9,0-1.6-0.7-1.6-1.5H1.5c-0.1,0.4-0.5,0.8-0.9,1v1.1c0.9,0.1,1.5,0.8,1.5,1.7
					c0,0.9-0.7,1.6-1.5,1.7v1.5C1.5,7.4,2.2,8.1,2.2,9c0,0.9-0.7,1.6-1.5,1.7v1.5c0.9,0.1,1.5,0.8,1.5,1.7c0,0.9-0.7,1.6-1.5,1.7
					v1.5c0.9,0.1,1.5,0.8,1.5,1.7c0,0.9-0.7,1.6-1.5,1.7v1.5c0.9,0.1,1.5,0.8,1.5,1.7s-0.7,1.6-1.5,1.7v1.5c0.9,0.1,1.5,0.8,1.5,1.7
					c0,0.9-0.7,1.6-1.5,1.7v1.5c0.9,0.1,1.5,0.8,1.5,1.7c0,0.9-0.7,1.6-1.5,1.7V36c0.9,0.1,1.5,0.8,1.5,1.7s-0.7,1.6-1.5,1.7v1.5
					c0.9,0.1,1.5,0.8,1.5,1.7c0,0.9-0.7,1.6-1.5,1.7v1.5c0.9,0.1,1.5,0.8,1.5,1.7c0,0.9-0.7,1.6-1.5,1.7v1.5
					c0.9,0.1,1.5,0.8,1.5,1.7c0,0.9-0.7,1.6-1.5,1.7v1.5c0.9,0.1,1.5,0.8,1.5,1.7c0,0.9-0.7,1.6-1.5,1.7v1.5
					c0.9,0.1,1.5,0.8,1.5,1.7c0,0.9-0.7,1.6-1.5,1.7v1.5c0.9,0.1,1.5,0.8,1.5,1.7c0,0.9-0.7,1.6-1.5,1.7v1.5
					c0.9,0.1,1.5,0.8,1.5,1.7c0,0.9-0.7,1.6-1.5,1.7v1.5c0.9,0.1,1.5,0.8,1.5,1.7c0,0.9-0.7,1.6-1.5,1.7V79c0.3,0.1,0.5,0.3,0.6,0.5
					h1.1c0-0.9,0.8-1.6,1.7-1.6c0.9,0,1.6,0.7,1.7,1.6h1.5c0-0.9,0.8-1.6,1.7-1.6s1.6,0.7,1.7,1.6H12c0-0.9,0.8-1.6,1.7-1.6
					c0.9,0,1.6,0.7,1.7,1.6h1.5c0-0.9,0.8-1.6,1.7-1.6s1.6,0.7,1.7,1.6h1.5c0-0.9,0.8-1.6,1.7-1.6s1.6,0.7,1.7,1.6h1.5
					c0-0.9,0.8-1.6,1.7-1.6s1.6,0.7,1.7,1.6h1.5c0-0.9,0.8-1.6,1.7-1.6c0.9,0,1.6,0.7,1.7,1.6h1.5c0-0.9,0.8-1.6,1.7-1.6
					c0.9,0,1.6,0.7,1.7,1.6h1.5c0-0.9,0.8-1.6,1.7-1.6c0.9,0,1.6,0.7,1.7,1.6h1.5c0-0.9,0.8-1.6,1.7-1.6c0.9,0,1.6,0.7,1.7,1.6h1.5
					c0-0.9,0.8-1.6,1.7-1.6c0.9,0,1.6,0.7,1.7,1.6h1.5c0-0.9,0.8-1.6,1.7-1.6c0.9,0,1.6,0.7,1.7,1.6h1.5c0-0.9,0.8-1.6,1.7-1.6
					c0.9,0,1.6,0.7,1.7,1.6h1.5c0.2-0.3,0.5-0.5,0.9-0.6v-1.5C64.5,77.4,63.8,76.7,63.8,75.8z"/>
			</g>
			<linearGradient id="SVGID_1_" gradientUnits="userSpaceOnUse" x1="33" y1="4.1768" x2="33" y2="75.802">
				<stop  offset="0" style="stop-color:#48109C"/>
				<stop  offset="0.9957" style="stop-color:#300075"/>
			</linearGradient>
			<polygon fill="url(#SVGID_1_)" points="61.2,75.8 4.8,75.8 4.8,4.2 61.2,4.2 61.2,75.8 			"/>
		</g>
		<g>
			<path fill="#FFFFFF" d="M20,71h-0.3v-4.1H20V71z"/>
			<path fill="#FFFFFF" d="M22.2,66.9l1.5,3.6h0l1.5-3.6h0.5V71h-0.3v-1.8l0-1.8l0,0L23.8,71h-0.2L22,67.4l0,0l0,1.8V71h-0.3v-4.1
				H22.2z"/>
			<path fill="#FFFFFF" d="M27.6,69.3V71h-0.3v-4.1h1.4c0.4,0,0.8,0.1,1,0.3c0.2,0.2,0.4,0.5,0.4,0.9c0,0.4-0.1,0.7-0.4,0.9
				c-0.2,0.2-0.6,0.3-1,0.3H27.6z M27.6,69h1.1c0.3,0,0.6-0.1,0.8-0.3c0.2-0.2,0.3-0.4,0.3-0.7c0-0.3-0.1-0.5-0.3-0.7
				c-0.2-0.2-0.4-0.3-0.8-0.3h-1.1V69z"/>
			<path fill="#FFFFFF" d="M33.7,69h-2v1.7H34V71h-2.6v-4.1H34v0.3h-2.2v1.5h2V69z"/>
			<path fill="#FFFFFF" d="M35.7,69.2V71h-0.3v-4.1h1.4c0.4,0,0.8,0.1,1,0.3c0.2,0.2,0.4,0.5,0.4,0.8c0,0.2-0.1,0.4-0.2,0.6
				c-0.1,0.2-0.3,0.3-0.5,0.4c0.3,0.1,0.4,0.2,0.5,0.3c0.1,0.2,0.2,0.4,0.2,0.6v0.4c0,0.1,0,0.2,0,0.3c0,0.1,0.1,0.2,0.1,0.2V71
				h-0.3c-0.1-0.1-0.1-0.2-0.1-0.3s0-0.2,0-0.4V70c0-0.3-0.1-0.4-0.2-0.6c-0.2-0.1-0.4-0.2-0.7-0.2H35.7z M35.7,68.9h1
				c0.4,0,0.6-0.1,0.8-0.2c0.2-0.1,0.3-0.4,0.3-0.6c0-0.3-0.1-0.5-0.3-0.6c-0.2-0.1-0.4-0.2-0.8-0.2h-1V68.9z"/>
			<path fill="#FFFFFF" d="M40.1,71h-0.3v-4.1h0.3V71z"/>
			<path fill="#FFFFFF" d="M44.1,69.9h-1.9L41.8,71h-0.3l1.6-4.1h0.3l1.5,4.1h-0.3L44.1,69.9z M42.3,69.6H44l-0.8-2.2h0L42.3,69.6z"
				/>
			<path fill="#FFFFFF" d="M46.4,70.7h2V71h-2.4v-4.1h0.3V70.7z"/>
		</g>
	</g>
	<g>
		<g id="Rounded_Rectangle_1_8_">
			<g>
				<path fill="#FFFFFF" d="M35.6,61.3h-4c-0.9,0-1.7-0.7-1.7-1.7v-4c0-0.9,0.8-1.7,1.7-1.7h4c0.9,0,1.7,0.8,1.7,1.7v4
					C37.3,60.5,36.6,61.3,35.6,61.3z M31.6,53.9c-0.9,0-1.7,0.8-1.7,1.7v4c0,0.9,0.7,1.6,1.7,1.6h4c0.9,0,1.7-0.7,1.7-1.6v-4
					c0-0.9-0.7-1.7-1.7-1.7H31.6z"/>
			</g>
			<g>
				<path fill="#FFFFFF" d="M35.6,54c0.9,0,1.6,0.7,1.6,1.6v4c0,0.9-0.7,1.6-1.6,1.6h-4c-0.9,0-1.6-0.7-1.6-1.6v-4
					c0-0.9,0.7-1.6,1.6-1.6H35.6 M35.6,53.8h-4c-1,0-1.8,0.8-1.8,1.8v4c0,1,0.8,1.8,1.8,1.8h4c1,0,1.8-0.8,1.8-1.8v-4
					C37.4,54.6,36.6,53.8,35.6,53.8L35.6,53.8z"/>
			</g>
		</g>
		<path fill="#FFFFFF" d="M30.8,51c0.1,0.2,0.1,0.4,0.2,0.6c-0.3,0.1-0.5,0.2-0.7-0.2c-1.4-2.6-2.9-5.1-4.2-7.7
			c-1.2-2.5-2.4-5-3.4-7.5c0,0,0-0.1,0-0.1h3.8c0.7,2.9,1.5,5.8,2.3,8.6C29.4,46.7,30.1,48.8,30.8,51z"/>
		<path fill="#FFFFFF" d="M20.1,27.7h4.8c-0.1-0.6-0.2-1.2-0.3-1.8c-0.4-2.8-0.5-5.6,0-8.4c0.3-1.9,0.9-3.7,2-5.3
			c0.5-0.7,1.1-1.3,1.7-2c0,0,0,0,0-0.1c-0.8,0.3-1.7,0.6-2.5,1c-2.8,1.4-4.7,3.7-5.7,6.7c-0.7,2.3-0.8,4.7-0.5,7.1
			C19.7,25.9,19.9,26.9,20.1,27.7z"/>
		<path fill="#FFFFFF" d="M40.9,36c-0.4,1.7-0.8,3.4-1.3,5.1c-0.7,2.6-1.6,5.2-2.3,7.9c-0.3,0.9-0.6,1.8-0.9,2.7
			c0.5,0.1,0.5,0.1,0.7-0.3c0.1-0.2,0.3-0.5,0.4-0.7c1.2-2.3,2.5-4.6,3.7-7c1.3-2.5,2.4-5,3.4-7.7H40.9z"/>
		<path fill="#FFFFFF" d="M39.1,10.4c1.2,1,2.1,2.3,2.7,3.8c0.8,2,1.1,4.1,1.2,6.3c0.1,2.4-0.1,4.8-0.5,7.2h4.8
			c0.2-1.2,0.4-2.3,0.5-3.5c0.2-2.5,0-4.9-0.9-7.2c-0.5-1.2-1.2-2.3-2-3.3c-1-1.1-2.2-2-3.5-2.6c-0.7-0.3-1.5-0.6-2.3-0.9
			c0,0.1,0,0.1,0,0.2C39,10.3,39.1,10.4,39.1,10.4z"/>
		<path fill="#FFFFFF" d="M19,37.5c-0.3-0.5-0.5-1-0.8-1.5h-0.9c1.4,2.6,3,4.9,4.7,7.2c0.4,0.6,0.9,1.1,1.3,1.7
			c-0.1-0.2-0.2-0.4-0.3-0.6C21.6,42,20.2,39.8,19,37.5z"/>
		<path fill="#FFFFFF" d="M13.8,27.7h1.3c-0.4-1.9-0.6-3.8-0.5-5.8c0.2-2.3,0.8-4.5,2.1-6.4c0.3-0.5,0.6-0.9,0.9-1.3
			c-1.2,0.9-2.4,2.4-3.1,3.8c-1.4,2.8-1.6,5.8-1,8.8C13.7,27,13.7,27.3,13.8,27.7z"/>
		<path fill="#FFFFFF" d="M47.5,39.1c-0.7,1.3-1.6,2.7-2.4,4c-0.3,0.6-0.7,1.1-1,1.7c0,0,0.1,0,0.1,0.1c0,0,0-0.1,0.1-0.1
			c0.9-1.2,1.8-2.4,2.7-3.7c1.1-1.6,2.1-3.3,3.1-5h-0.8C48.6,37,48.1,38.1,47.5,39.1z"/>
		<path fill="#FFFFFF" d="M51.4,17.1c1.2,2.6,1.5,5.3,1.2,8.2c-0.1,0.8-0.2,1.6-0.4,2.4h1.3c0.6-2.5,0.8-4.9,0.1-7.4
			c-0.7-2.5-2.1-4.5-4.1-6.1c0.1,0.1,0.2,0.2,0.2,0.3C50.4,15.3,51,16.2,51.4,17.1z"/>
		<path fill="#FFFFFF" d="M32.4,42c0.2,2.2,0.5,4.4,0.7,6.6c0.1,0.9,0.2,1.9,0.4,2.8c0,0.1,0.1,0.2,0.2,0.2c0.1-0.1,0.2-0.2,0.2-0.3
			c0.1-0.3,0.1-0.6,0.1-0.9c0.3-2.6,0.6-5.3,0.9-7.9c0.2-2.2,0.4-4.4,0.6-6.7h-3.7C32,37.9,32.2,40,32.4,42z"/>
		<path fill="#FFFFFF" d="M31.2,27.7h2.5h2.5c0-0.4,0.1-1,0.1-1.5c0.2-3.4,0.4-6.7,0.1-10.1c-0.1-1.5-0.4-2.9-1-4.3
			c-0.2-0.6-0.7-1.1-1.1-1.6c-0.2-0.2-0.4-0.3-0.6-0.3c-0.3,0-0.4,0.1-0.6,0.3c-0.5,0.5-0.8,1-1.1,1.6c-0.6,1.4-0.8,2.9-1,4.3
			c-0.3,3.4-0.1,6.7,0.1,10.1C31.1,26.7,31.1,27.3,31.2,27.7z"/>
		<path fill="#FFFFFF" d="M35.3,56.8c-0.4-1.2-1.2-1.6-2.4-1.2l-1.3,0.4l1.2,3.7l1.3-0.4C35.4,58.9,35.7,58.1,35.3,56.8z M34.1,58.9
			l-0.8,0.3l-0.9-2.9l0.8-0.3c0.9-0.3,1.4,0.1,1.7,1C35.3,58.4,34.4,58.8,34.1,58.9z"/>
		<g>
			<g>
				<polygon fill="#FFFFFF" points="12.2,29.2 12.2,34.5 12.8,34.5 12.8,30.2 12.8,30.2 14.5,34.5 15.1,34.5 16.7,30.2 16.7,30.2 
					16.7,34.5 17.3,34.5 17.3,29.2 16.4,29.2 14.8,33.6 13.1,29.2 				"/>
			</g>
			<g>
				<polygon fill="#FFFFFF" points="20.6,32.3 22.7,29.2 21.9,29.2 20.3,31.7 18.8,29.2 18,29.2 20,32.3 20,34.5 20.6,34.5 				"/>
			</g>
			<path fill="#FFFFFF" d="M28.9,29.9c-0.4-0.4-1.1-0.6-1.9-0.6h-1.8v5.2H27c0.4,0,0.8-0.1,1.1-0.2c0.3-0.1,0.6-0.3,0.8-0.5
				c0.2-0.2,0.4-0.5,0.5-0.9c0.1-0.3,0.1-0.7,0.1-1.2C29.6,30.9,29.3,30.3,28.9,29.9z M28.8,32.6c-0.1,0.2-0.1,0.4-0.3,0.6
				c-0.1,0.2-0.2,0.3-0.3,0.4c-0.1,0.1-0.3,0.2-0.4,0.2c-0.1,0-0.3,0.1-0.4,0.1c-0.1,0-0.2,0-0.3,0h-1.2v-4h1.2c0.3,0,0.6,0,0.8,0.1
				c0.2,0.1,0.4,0.2,0.5,0.4c0.1,0.2,0.2,0.4,0.3,0.6c0.1,0.2,0.1,0.5,0.1,0.8C28.9,32.2,28.8,32.4,28.8,32.6z"/>
			<path fill="#FFFFFF" d="M34.5,34.2c0-0.1-0.1-0.2-0.1-0.4c0-0.1,0-0.3,0-0.4c0-0.1,0-0.3,0-0.4c0-0.1,0-0.2-0.1-0.4
				c0-0.1-0.1-0.2-0.1-0.3c-0.1-0.1-0.1-0.2-0.2-0.2C33.8,32,33.7,32,33.5,32v0c0.3-0.1,0.6-0.3,0.7-0.5c0.1-0.2,0.2-0.5,0.2-0.8
				c0-0.4-0.1-0.8-0.4-1c-0.3-0.2-0.7-0.4-1.2-0.4h-2.5v5.2h0.8v-2.2h1.7c0.2,0,0.3,0,0.4,0.1c0.1,0.1,0.2,0.1,0.2,0.2
				c0.1,0.1,0.1,0.2,0.1,0.3c0,0.1,0.1,0.2,0.1,0.4c0,0.1,0,0.3,0,0.4c0,0.1,0,0.3,0,0.4c0,0.1,0,0.2,0,0.3c0,0.1,0,0.2,0.1,0.2h0.8
				C34.5,34.4,34.5,34.3,34.5,34.2z M33.4,31.5c-0.1,0.1-0.2,0.1-0.4,0.1c-0.1,0-0.3,0-0.5,0h-1.4v-1.8h1.7c0.3,0,0.6,0.1,0.7,0.2
				c0.1,0.2,0.2,0.4,0.2,0.6c0,0.2,0,0.3-0.1,0.5C33.6,31.3,33.5,31.4,33.4,31.5z"/>
			<g>
				<polygon fill="#FFFFFF" points="35.4,29.2 35.4,34.5 39,34.5 39,33.9 36,33.9 36,32.1 38.8,32.1 38.8,31.5 36,31.5 36,29.9 
					39,29.9 39,29.2 				"/>
			</g>
			<path fill="#FFFFFF" d="M42,29.3h-0.8l-2,5.2h0.7l0.6-1.6h2.2l0.6,1.6h0.8L42,29.3z M40.8,32.3l0.9-2.5h0l0.9,2.5H40.8z"/>
			<g>
				<polygon fill="#FFFFFF" points="44.6,29.2 44.6,34.5 45.3,34.5 45.3,30.2 45.3,30.2 46.9,34.5 47.5,34.5 49.1,30.2 49.1,30.2 
					49.1,34.5 49.8,34.5 49.8,29.2 48.8,29.2 47.2,33.6 45.5,29.2 				"/>
			</g>
			<g>
				<path fill="#FFFFFF" d="M54,30.8h0.7c0-0.3-0.1-0.5-0.2-0.7c-0.1-0.2-0.2-0.4-0.4-0.5c-0.2-0.1-0.4-0.2-0.6-0.3
					c-0.2-0.1-0.5-0.1-0.7-0.1c-0.2,0-0.5,0-0.7,0.1c-0.2,0.1-0.4,0.2-0.6,0.3c-0.2,0.1-0.3,0.3-0.4,0.5c-0.1,0.2-0.2,0.4-0.2,0.7
					c0,0.2,0,0.4,0.1,0.6c0.1,0.2,0.2,0.3,0.4,0.4c0.2,0.1,0.3,0.2,0.5,0.2c0.2,0.1,0.4,0.1,0.6,0.2c0.2,0,0.4,0.1,0.6,0.1
					c0.2,0,0.4,0.1,0.5,0.2c0.2,0.1,0.3,0.2,0.4,0.3c0.1,0.1,0.1,0.3,0.1,0.4c0,0.2,0,0.3-0.1,0.5c-0.1,0.1-0.2,0.2-0.3,0.3
					c-0.1,0.1-0.3,0.1-0.4,0.1c-0.2,0-0.3,0-0.5,0c-0.2,0-0.4,0-0.6-0.1c-0.2,0-0.3-0.1-0.5-0.2c-0.1-0.1-0.3-0.2-0.3-0.4
					c-0.1-0.2-0.1-0.3-0.1-0.6h-0.7c0,0.3,0.1,0.6,0.2,0.8c0.1,0.2,0.3,0.4,0.5,0.6c0.2,0.1,0.4,0.3,0.7,0.3
					c0.3,0.1,0.5,0.1,0.8,0.1c0.2,0,0.5,0,0.7-0.1c0.2-0.1,0.5-0.1,0.7-0.3c0.2-0.1,0.4-0.3,0.5-0.5c0.1-0.2,0.2-0.4,0.2-0.7
					c0-0.3,0-0.5-0.1-0.6c-0.1-0.2-0.2-0.3-0.4-0.4c-0.2-0.1-0.3-0.2-0.5-0.3c-0.2-0.1-0.4-0.1-0.6-0.2c-0.2,0-0.4-0.1-0.6-0.1
					c-0.2,0-0.4-0.1-0.5-0.2c-0.2-0.1-0.3-0.1-0.4-0.2c-0.1-0.1-0.1-0.2-0.1-0.4c0-0.2,0-0.3,0.1-0.4c0.1-0.1,0.2-0.2,0.3-0.3
					c0.1-0.1,0.2-0.1,0.4-0.1c0.1,0,0.3,0,0.4,0c0.4,0,0.7,0.1,0.9,0.2C53.8,30.1,53.9,30.4,54,30.8z"/>
			</g>
		</g>
		<path fill="#FFFFFF" d="M55.9,28.7c-0.4,0-0.6-0.3-0.6-0.6s0.3-0.6,0.6-0.6c0.4,0,0.6,0.3,0.6,0.6S56.3,28.7,55.9,28.7z
			 M55.9,27.5c-0.3,0-0.6,0.3-0.6,0.6s0.3,0.6,0.6,0.6c0.3,0,0.6-0.3,0.6-0.6S56.2,27.5,55.9,27.5z"/>
		<path fill="#FFFFFF" d="M56.2,28.3C56.2,28.3,56.2,28.3,56.2,28.3C56.1,28.3,56.1,28.3,56.2,28.3c0-0.1,0-0.1,0-0.1c0,0,0,0,0,0
			c0,0,0,0,0,0c0,0,0,0,0,0s0,0,0,0v0c0,0,0.1,0,0.1-0.1c0,0,0-0.1,0-0.1c0-0.1,0-0.1-0.1-0.1c0,0-0.1,0-0.1,0h-0.3v0.6h0.1v-0.3H56
			c0,0,0,0,0.1,0c0,0,0,0,0,0c0,0,0,0,0,0c0,0,0,0,0,0C56.1,28.2,56.1,28.2,56.2,28.3C56.1,28.3,56.1,28.3,56.2,28.3
			C56.1,28.3,56.1,28.3,56.2,28.3C56.1,28.4,56.1,28.4,56.2,28.3L56.2,28.3C56.2,28.4,56.2,28.4,56.2,28.3z M56,28
			C56,28,56,28,56,28c-0.1,0-0.1,0-0.1,0h-0.2v-0.2H56c0,0,0.1,0,0.1,0C56.1,27.8,56.1,27.9,56,28C56.1,27.9,56.1,28,56,28
			C56.1,28,56,28,56,28z"/>
	</g>
</g>
</svg>
