<?xml version="1.0" encoding="utf-8"?>
<!-- Generator: Adobe Illustrator 18.0.0, SVG Export Plug-In . SVG Version: 6.00 Build 0)  -->
<!DOCTYPE svg PUBLIC "-//W3C//DTD SVG 1.1//EN" "http://www.w3.org/Graphics/SVG/1.1/DTD/svg11.dtd">
<svg version="1.1" id="Слой_1" xmlns="http://www.w3.org/2000/svg" xmlns:xlink="http://www.w3.org/1999/xlink" x="0px" y="0px"
	 viewBox="0 0 66 80" enable-background="new 0 0 66 80" xml:space="preserve">
<g>
	<g>
		<g>
			<g>
				<path fill="#FFFFFF" d="M53.5,79.9L53.5,79.9c0-0.9-0.7-1.6-1.6-1.6l0,0c-0.9,0-1.5,0.7-1.6,1.5l0,0l0,0.1h-1.6l0-0.1
					c0-0.8-0.7-1.5-1.6-1.5l0,0c-0.9,0-1.5,0.7-1.6,1.5l0,0l0,0.1h-1.6l0-0.1c0-0.8-0.7-1.5-1.6-1.5l0,0c-0.9,0-1.5,0.7-1.6,1.5l0,0
					l0,0.1h-1.6l0-0.1c0-0.8-0.7-1.5-1.6-1.5l0,0c-0.9,0-1.5,0.7-1.6,1.5l0,0l0,0.1h-1.6l0-0.1c0-0.8-0.7-1.5-1.6-1.5l0,0
					c-0.9,0-1.5,0.7-1.6,1.5l0,0l0,0.1h-1.6l0-0.1c0-0.8-0.7-1.5-1.6-1.5l0,0c-0.9,0-1.5,0.7-1.6,1.5l0,0l0,0.1h-1.6l0-0.1
					c0-0.8-0.7-1.5-1.6-1.5l0,0c-0.9,0-1.5,0.7-1.6,1.5l0,0l0,0.1h-1.6l0-0.1c0-0.8-0.7-1.5-1.6-1.5l0,0c-0.9,0-1.5,0.7-1.6,1.5l0,0
					l0,0.1h-1.6l0-0.1c0-0.8-0.7-1.5-1.6-1.5l0,0c-0.9,0-1.5,0.7-1.6,1.5l0,0l0,0.1h-1.6l0-0.1c0-0.8-0.7-1.5-1.6-1.5l0,0
					c-0.9,0-1.5,0.7-1.6,1.5l0,0l0,0.1H5.5l0-0.1c0-0.8-0.7-1.5-1.6-1.5l0,0c-0.9,0-1.5,0.7-1.6,1.5l0,0l0,0.1H1l0,0
					c-0.2-0.2-0.4-0.4-0.6-0.5l0,0l0,0v-1.7l0.1,0c0.8-0.1,1.5-0.7,1.5-1.6l0,0c0-0.8-0.6-1.5-1.5-1.6l0,0l-0.1,0v-1.6l0.1,0
					c0.8-0.1,1.5-0.7,1.5-1.6l0,0c0-0.8-0.6-1.5-1.5-1.6l0,0l-0.1,0V68l0.1,0c0.8-0.1,1.5-0.7,1.5-1.6l0,0c0-0.8-0.6-1.5-1.5-1.6
					l0,0l-0.1,0v-1.6l0.1,0c0.8-0.1,1.5-0.7,1.5-1.6l0,0c0-0.8-0.6-1.5-1.5-1.6l0,0l-0.1,0v-1.6l0.1,0c0.8-0.1,1.5-0.7,1.5-1.6l0,0
					c0-0.8-0.6-1.5-1.5-1.6l0,0l-0.1,0v-1.6l0.1,0c0.8-0.1,1.5-0.7,1.5-1.6l0,0c0-0.8-0.6-1.5-1.5-1.6l0,0l-0.1,0v-1.6l0.1,0
					c0.8-0.1,1.5-0.7,1.5-1.6l0,0c0-0.8-0.6-1.5-1.5-1.6l0,0l-0.1,0V44l0.1,0c0.8-0.1,1.5-0.7,1.5-1.6l0,0c0-0.8-0.6-1.5-1.5-1.6
					l0,0l-0.1,0v-1.6l0.1,0c0.8-0.1,1.5-0.7,1.5-1.6l0,0c0-0.8-0.6-1.5-1.5-1.6l0,0l-0.1,0v-1.6l0.1,0c0.8-0.1,1.5-0.7,1.5-1.6l0,0
					c0-0.8-0.6-1.5-1.5-1.6l0,0l-0.1,0v-1.6l0.1,0c0.8-0.1,1.5-0.7,1.5-1.6l0,0c0-0.8-0.6-1.5-1.5-1.6l0,0l-0.1,0v-1.6l0.1,0
					c0.8-0.1,1.5-0.7,1.5-1.6l0,0c0-0.8-0.6-1.5-1.5-1.6l0,0l-0.1,0V20l0.1,0c0.8-0.1,1.5-0.7,1.5-1.6l0,0c0-0.8-0.6-1.5-1.5-1.6
					l0,0l-0.1,0v-1.6l0.1,0c0.8-0.1,1.5-0.7,1.5-1.6l0,0c0-0.8-0.6-1.5-1.5-1.6l0,0l-0.1,0v-1.6l0.1,0c0.8-0.1,1.5-0.7,1.5-1.6l0,0
					c0-0.8-0.6-1.5-1.5-1.6l0,0l-0.1,0V5.6l0.1,0C1.3,5.5,1.9,4.8,1.9,4l0,0c0-0.8-0.6-1.5-1.5-1.6l0,0l-0.1,0V1.2l0,0
					c0.4-0.2,0.7-0.5,0.8-1l0,0l0-0.1h1l0,0.1C2.4,1,3.1,1.6,3.9,1.6l0,0c0.8,0,1.5-0.6,1.6-1.4l0,0l0-0.1h1.6l0,0.1
					C7.2,1,7.9,1.6,8.7,1.6l0,0c0.8,0,1.5-0.6,1.6-1.4l0,0l0-0.1h1.6l0,0.1C12,1,12.7,1.6,13.5,1.6l0,0c0.8,0,1.5-0.6,1.6-1.4l0,0
					l0-0.1h1.6l0,0.1c0.1,0.8,0.8,1.4,1.6,1.4l0,0c0.8,0,1.5-0.6,1.6-1.4l0,0l0-0.1h1.6l0,0.1c0.1,0.8,0.8,1.4,1.6,1.4l0,0
					c0.8,0,1.5-0.6,1.6-1.4l0,0l0-0.1h1.6l0,0.1c0.1,0.8,0.8,1.4,1.6,1.4l0,0c0.8,0,1.5-0.6,1.6-1.4l0,0l0-0.1h1.6l0,0.1
					c0.1,0.8,0.8,1.4,1.6,1.4l0,0c0.8,0,1.5-0.6,1.6-1.4l0,0l0-0.1h1.6l0,0.1C36,1,36.7,1.6,37.5,1.6l0,0c0.8,0,1.5-0.6,1.6-1.4l0,0
					l0-0.1h1.6l0,0.1c0.1,0.8,0.8,1.4,1.6,1.4l0,0c0.8,0,1.5-0.6,1.6-1.4l0,0l0-0.1h1.6l0,0.1c0.1,0.8,0.8,1.4,1.6,1.4l0,0
					c0.8,0,1.5-0.6,1.6-1.4l0,0l0-0.1h1.6l0,0.1c0.1,0.8,0.8,1.4,1.6,1.4l0,0c0.8,0,1.5-0.6,1.6-1.4l0,0l0-0.1h1.6l0,0.1
					c0.1,0.8,0.8,1.4,1.6,1.4l0,0c0.8,0,1.5-0.6,1.6-1.4l0,0l0-0.1H60l0,0.1C60,1,60.7,1.6,61.5,1.6l0,0c0.8,0,1.5-0.6,1.6-1.4l0,0
					l0-0.1h1.4l0,0.1c0.2,0.5,0.6,0.9,1.1,1.1l0,0l0.1,0v1.1l-0.1,0c-0.8,0.1-1.5,0.7-1.5,1.6l0,0c0,0.8,0.6,1.5,1.5,1.6l0,0l0.1,0
					v1.6l-0.1,0c-0.8,0.1-1.5,0.7-1.5,1.6l0,0c0,0.8,0.6,1.5,1.5,1.6l0,0l0.1,0V12l-0.1,0c-0.8,0.1-1.5,0.7-1.5,1.6l0,0
					c0,0.8,0.6,1.5,1.5,1.6l0,0l0.1,0v1.6l-0.1,0c-0.8,0.1-1.5,0.7-1.5,1.6l0,0c0,0.8,0.6,1.5,1.5,1.6l0,0l0.1,0v1.6l-0.1,0
					c-0.8,0.1-1.5,0.7-1.5,1.6l0,0c0,0.8,0.6,1.5,1.5,1.6l0,0l0.1,0v1.6l-0.1,0c-0.8,0.1-1.5,0.7-1.5,1.6l0,0c0,0.8,0.6,1.5,1.5,1.6
					l0,0l0.1,0v1.6l-0.1,0c-0.8,0.1-1.5,0.7-1.5,1.6l0,0c0,0.8,0.6,1.5,1.5,1.6l0,0l0.1,0V36l-0.1,0c-0.8,0.1-1.5,0.7-1.5,1.6l0,0
					c0,0.8,0.6,1.5,1.5,1.6l0,0l0.1,0v1.6l-0.1,0c-0.8,0.1-1.5,0.7-1.5,1.6l0,0c0,0.8,0.6,1.5,1.5,1.6l0,0l0.1,0v1.6l-0.1,0
					c-0.8,0.1-1.5,0.7-1.5,1.6l0,0c0,0.8,0.6,1.5,1.5,1.6l0,0l0.1,0v1.6l-0.1,0c-0.8,0.1-1.5,0.7-1.5,1.6l0,0c0,0.8,0.6,1.5,1.5,1.6
					l0,0l0.1,0v1.6l-0.1,0c-0.8,0.1-1.5,0.7-1.5,1.6l0,0c0,0.8,0.6,1.5,1.5,1.6l0,0l0.1,0V60l-0.1,0c-0.8,0.1-1.5,0.7-1.5,1.6l0,0
					c0,0.8,0.6,1.5,1.5,1.6l0,0l0.1,0v1.6l-0.1,0c-0.8,0.1-1.5,0.7-1.5,1.6l0,0c0,0.8,0.6,1.5,1.5,1.6l0,0l0.1,0v1.6l-0.1,0
					c-0.8,0.1-1.5,0.7-1.5,1.6l0,0c0,0.8,0.6,1.5,1.5,1.6l0,0l0.1,0v1.6l-0.1,0c-0.8,0.1-1.5,0.7-1.5,1.6l0,0c0,0.8,0.6,1.5,1.5,1.6
					l0,0l0.1,0v1.6l-0.1,0c-0.3,0.1-0.6,0.3-0.8,0.6l0,0l0,0h-1.6l0-0.1c0-0.8-0.7-1.5-1.6-1.5l0,0c-0.9,0-1.5,0.7-1.6,1.5l0,0
					l0,0.1h-1.6l0-0.1c0-0.8-0.7-1.5-1.6-1.5l0,0c-0.9,0-1.5,0.7-1.6,1.5l0,0l0,0.1H53.5L53.5,79.9z M64.6,79.7
					c0.2,0,0.5-0.5,0.8-0.6l0,0v-1.3c-0.9-0.1-1.5-0.8-1.5-1.7l0,0c0-0.9,0.7-1.6,1.5-1.7l0,0V73c-0.9-0.1-1.5-0.8-1.5-1.7l0,0
					c0-0.9,0.7-1.6,1.5-1.7l0,0v-1.3c-0.9-0.1-1.5-0.8-1.5-1.7l0,0c0-0.9,0.7-1.6,1.5-1.7l0,0v-1.3c-0.9-0.1-1.5-0.8-1.5-1.7l0,0
					c0-0.9,0.7-1.6,1.5-1.7l0,0v-1.3c-0.9-0.1-1.5-0.8-1.5-1.7l0,0c0-0.9,0.7-1.6,1.5-1.7l0,0v-1.3c-0.9-0.1-1.5-0.8-1.5-1.7l0,0
					c0-0.9,0.7-1.6,1.5-1.7l0,0v-1.3c-0.9-0.1-1.5-0.8-1.5-1.7l0,0c0-0.9,0.7-1.6,1.5-1.7l0,0v-1.3c-0.9-0.1-1.5-0.8-1.5-1.7l0,0
					c0-0.9,0.7-1.6,1.5-1.7l0,0v-1.3c-0.9-0.1-1.5-0.8-1.5-1.7l0,0c0-0.9,0.7-1.6,1.5-1.7l0,0v-1.3c-0.9-0.1-1.5-0.8-1.5-1.7l0,0
					c0-0.9,0.7-1.6,1.5-1.7l0,0v-1.3c-0.9-0.1-1.5-0.8-1.5-1.7l0,0c0-0.9,0.7-1.6,1.5-1.7l0,0v-1.3c-0.9-0.1-1.5-0.8-1.5-1.7l0,0
					c0-0.9,0.7-1.6,1.5-1.7l0,0v-1.3c-0.9-0.1-1.5-0.8-1.5-1.7l0,0c0-0.9,0.7-1.6,1.5-1.7l0,0v-1.3c-0.9-0.1-1.5-0.8-1.5-1.7l0,0
					c0-0.9,0.7-1.6,1.5-1.7l0,0v-1.3c-0.9-0.1-1.5-0.8-1.5-1.7l0,0c0-0.9,0.7-1.6,1.5-1.7l0,0V5.7c-0.9-0.1-1.5-0.8-1.5-1.7l0,0
					c0-0.9,0.7-1.6,1.5-1.7l0,0V1.4c-0.5-0.2-0.9-0.6-1.1-1.1l0,0h-1.1c-0.1,0.9-0.9,1.5-1.7,1.5l0,0c-0.9,0-1.6-0.6-1.7-1.5l0,0
					h-1.3c-0.1,0.9-0.9,1.5-1.7,1.5l0,0c-0.9,0-1.6-0.6-1.7-1.5l0,0h-1.3c-0.1,0.9-0.9,1.5-1.7,1.5l0,0c-0.9,0-1.6-0.6-1.7-1.5l0,0
					h-1.3c-0.1,0.9-0.9,1.5-1.7,1.5l0,0c-0.9,0-1.6-0.6-1.7-1.5l0,0h-1.3c-0.1,0.9-0.9,1.5-1.7,1.5l0,0c-0.9,0-1.6-0.6-1.7-1.5l0,0
					h-1.3c-0.1,0.9-0.9,1.5-1.7,1.5l0,0c-0.9,0-1.6-0.6-1.7-1.5l0,0h-1.3c-0.1,0.9-0.9,1.5-1.7,1.5l0,0c-0.9,0-1.6-0.6-1.7-1.5l0,0
					h-1.3c-0.1,0.9-0.9,1.5-1.7,1.5l0,0c-0.9,0-1.6-0.6-1.7-1.5l0,0h-1.3c-0.1,0.9-0.9,1.5-1.7,1.5l0,0c-0.9,0-1.6-0.6-1.7-1.5l0,0
					H20c-0.1,0.9-0.9,1.5-1.7,1.5l0,0c-0.9,0-1.6-0.6-1.7-1.5l0,0h-1.3c-0.1,0.9-0.9,1.5-1.7,1.5l0,0c-0.9,0-1.6-0.6-1.7-1.5l0,0
					h-1.3c-0.1,0.9-0.9,1.5-1.7,1.5l0,0C7.8,1.8,7.1,1.2,7,0.3l0,0H5.6C5.5,1.2,4.8,1.8,3.9,1.8l0,0C3,1.8,2.3,1.2,2.2,0.3l0,0H1.4
					c-0.1,0.4-0.5,0.8-0.9,1l0,0v0.9C1.4,2.3,2.1,3.1,2.1,4l0,0c0,0.9-0.7,1.6-1.5,1.7l0,0V7c0.9,0.1,1.5,0.8,1.5,1.7l0,0
					c0,0.9-0.7,1.6-1.5,1.7l0,0v1.3c0.9,0.1,1.5,0.8,1.5,1.7l0,0c0,0.9-0.7,1.6-1.5,1.7l0,0v1.3c0.9,0.1,1.5,0.8,1.5,1.7l0,0
					c0,0.9-0.7,1.6-1.5,1.7l0,0v1.3c0.9,0.1,1.5,0.8,1.5,1.7l0,0c0,0.9-0.7,1.6-1.5,1.7l0,0v1.3c0.9,0.1,1.5,0.8,1.5,1.7l0,0
					c0,0.9-0.7,1.6-1.5,1.7l0,0v1.3c0.9,0.1,1.5,0.8,1.5,1.7l0,0c0,0.9-0.7,1.6-1.5,1.7l0,0v1.3c0.9,0.1,1.5,0.8,1.5,1.7l0,0
					c0,0.9-0.7,1.6-1.5,1.7l0,0v1.3c0.9,0.1,1.5,0.8,1.5,1.7l0,0c0,0.9-0.7,1.6-1.5,1.7l0,0v1.3c0.9,0.1,1.5,0.8,1.5,1.7l0,0
					c0,0.9-0.7,1.6-1.5,1.7l0,0v1.3c0.9,0.1,1.5,0.8,1.5,1.7l0,0c0,0.9-0.7,1.6-1.5,1.7l0,0v1.3c0.9,0.1,1.5,0.8,1.5,1.7l0,0
					c0,0.9-0.7,1.6-1.5,1.7l0,0v1.3c0.9,0.1,1.5,0.8,1.5,1.7l0,0c0,0.9-0.7,1.6-1.5,1.7l0,0v1.3c0.9,0.1,1.5,0.8,1.5,1.7l0,0
					c0,0.9-0.7,1.6-1.5,1.7l0,0v1.3c0.9,0.1,1.5,0.8,1.5,1.7l0,0c0,0.9-0.7,1.6-1.5,1.7l0,0v1.3c0.9,0.1,1.5,0.8,1.5,1.7l0,0
					c0,0.9-0.7,1.6-1.5,1.7l0,0v1.4c0.2,0.1,0.4,0.3,0.6,0.5l0,0h1c0.1-0.9,0.8-1.6,1.7-1.6l0,0c0.9,0,1.7,0.7,1.7,1.6l0,0H7
					c0.1-0.9,0.8-1.6,1.7-1.6l0,0c0.9,0,1.7,0.7,1.7,1.6l0,0h1.3c0.1-0.9,0.8-1.6,1.7-1.6l0,0c0.9,0,1.7,0.7,1.7,1.6l0,0h1.3
					c0.1-0.9,0.8-1.6,1.7-1.6l0,0c0.9,0,1.7,0.7,1.7,1.6l0,0h1.3c0.1-0.9,0.8-1.6,1.7-1.6l0,0c0.9,0,1.7,0.7,1.7,1.6l0,0h1.3
					c0.1-0.9,0.8-1.6,1.7-1.6l0,0c0.9,0,1.7,0.7,1.7,1.6l0,0H31c0.1-0.9,0.8-1.6,1.7-1.6l0,0c0.9,0,1.7,0.7,1.7,1.6l0,0h1.3
					c0.1-0.9,0.8-1.6,1.7-1.6l0,0c0.9,0,1.7,0.7,1.7,1.6l0,0h1.3c0.1-0.9,0.8-1.6,1.7-1.6l0,0c0.9,0,1.7,0.7,1.7,1.6l0,0h1.3
					c0.1-0.9,0.8-1.6,1.7-1.6l0,0c0.9,0,1.7,0.7,1.7,1.6l0,0h1.3c0.1-0.9,0.8-1.6,1.7-1.6l0,0c0.9,0,1.7,0.7,1.7,1.6l0,0H55
					c0.1-0.9,0.8-1.6,1.7-1.6l0,0c0.9,0,1.7,0.7,1.7,1.6l0,0h1.3c0.1-0.9,0.8-1.6,1.7-1.6l0,0c0.9,0,1.7,0.7,1.7,1.6l0,0H64.6
					L64.6,79.7z"/>
				<path fill="#FFFFFF" d="M64,76c0-0.9,0.7-1.6,1.5-1.7v-1.5c-0.9-0.1-1.5-0.8-1.5-1.7c0-0.9,0.7-1.6,1.5-1.7v-1.5
					C64.7,68,64,67.3,64,66.4c0-0.9,0.7-1.6,1.5-1.7v-1.5c-0.9-0.1-1.5-0.8-1.5-1.7c0-0.9,0.7-1.6,1.5-1.7v-1.5
					c-0.9-0.1-1.5-0.8-1.5-1.7c0-0.9,0.7-1.6,1.5-1.7v-1.5C64.7,53.6,64,52.9,64,52c0-0.9,0.7-1.6,1.5-1.7v-1.5
					c-0.9-0.1-1.5-0.8-1.5-1.7c0-0.9,0.7-1.6,1.5-1.7v-1.5C64.7,44,64,43.3,64,42.4c0-0.9,0.7-1.6,1.5-1.7v-1.5
					c-0.9-0.1-1.5-0.8-1.5-1.7s0.7-1.6,1.5-1.7v-1.5c-0.9-0.1-1.5-0.8-1.5-1.7c0-0.9,0.7-1.6,1.5-1.7v-1.5C64.7,29.6,64,28.9,64,28
					c0-0.9,0.7-1.6,1.5-1.7v-1.5c-0.9-0.1-1.5-0.8-1.5-1.7c0-0.9,0.7-1.6,1.5-1.7V20C64.7,20,64,19.3,64,18.4c0-0.9,0.7-1.6,1.5-1.7
					v-1.5c-0.9-0.1-1.5-0.8-1.5-1.7c0-0.9,0.7-1.6,1.5-1.7v-1.5C64.7,10.4,64,9.7,64,8.8c0-0.9,0.7-1.6,1.5-1.7V5.6
					C64.7,5.6,64,4.9,64,4c0-0.9,0.7-1.6,1.5-1.7v-1c-0.5-0.2-1-0.6-1.1-1.1h-1.2c-0.1,0.8-0.8,1.5-1.7,1.5c-0.9,0-1.6-0.7-1.7-1.5
					h-1.5c-0.1,0.8-0.8,1.5-1.7,1.5c-0.9,0-1.6-0.7-1.7-1.5h-1.5c-0.1,0.8-0.8,1.5-1.7,1.5s-1.6-0.7-1.7-1.5h-1.5
					c-0.1,0.8-0.8,1.5-1.7,1.5c-0.9,0-1.6-0.7-1.7-1.5H44c-0.1,0.8-0.8,1.5-1.7,1.5c-0.9,0-1.6-0.7-1.7-1.5h-1.5
					c-0.1,0.8-0.8,1.5-1.7,1.5c-0.9,0-1.6-0.7-1.7-1.5h-1.5c-0.1,0.8-0.8,1.5-1.7,1.5c-0.9,0-1.6-0.7-1.7-1.5h-1.5
					c-0.1,0.8-0.8,1.5-1.7,1.5c-0.9,0-1.6-0.7-1.7-1.5h-1.5c-0.1,0.8-0.8,1.5-1.7,1.5c-0.9,0-1.6-0.7-1.7-1.5H20
					c-0.1,0.8-0.8,1.5-1.7,1.5c-0.9,0-1.6-0.7-1.7-1.5h-1.5c-0.1,0.8-0.8,1.5-1.7,1.5c-0.9,0-1.6-0.7-1.7-1.5h-1.5
					c-0.1,0.8-0.8,1.5-1.7,1.5C7.8,1.7,7.1,1.1,7,0.2H5.6C5.5,1.1,4.8,1.7,3.9,1.7C3,1.7,2.3,1.1,2.2,0.2H1.3C1.2,0.7,0.9,1,0.5,1.2
					v1.1C1.3,2.4,2,3.1,2,4c0,0.9-0.7,1.6-1.5,1.7v1.5C1.3,7.2,2,7.9,2,8.8s-0.7,1.6-1.5,1.7v1.5C1.3,12,2,12.7,2,13.6
					c0,0.9-0.7,1.6-1.5,1.7v1.5C1.3,16.8,2,17.5,2,18.4C2,19.3,1.3,20,0.5,20v1.5C1.3,21.6,2,22.3,2,23.2s-0.7,1.6-1.5,1.7v1.5
					C1.3,26.4,2,27.1,2,28c0,0.9-0.7,1.6-1.5,1.7v1.5C1.3,31.2,2,31.9,2,32.8c0,0.9-0.7,1.6-1.5,1.7v1.5C1.3,36,2,36.7,2,37.6
					s-0.7,1.6-1.5,1.7v1.5C1.3,40.8,2,41.5,2,42.4c0,0.9-0.7,1.6-1.5,1.7v1.5C1.3,45.6,2,46.3,2,47.2c0,0.9-0.7,1.6-1.5,1.7v1.5
					C1.3,50.4,2,51.1,2,52c0,0.9-0.7,1.6-1.5,1.7v1.5C1.3,55.2,2,55.9,2,56.8c0,0.9-0.7,1.6-1.5,1.7V60C1.3,60,2,60.7,2,61.6
					c0,0.9-0.7,1.6-1.5,1.7v1.5C1.3,64.8,2,65.5,2,66.4c0,0.9-0.7,1.6-1.5,1.7v1.5C1.3,69.6,2,70.3,2,71.2c0,0.9-0.7,1.6-1.5,1.7
					v1.5C1.3,74.4,2,75.2,2,76c0,0.9-0.7,1.6-1.5,1.7v1.6c0.3,0.1,0.5,0.3,0.6,0.5h1.1c0-0.9,0.8-1.6,1.7-1.6c0.9,0,1.6,0.7,1.7,1.6
					H7c0-0.9,0.8-1.6,1.7-1.6s1.6,0.7,1.7,1.6h1.5c0-0.9,0.8-1.6,1.7-1.6c0.9,0,1.6,0.7,1.7,1.6h1.5c0-0.9,0.8-1.6,1.7-1.6
					s1.6,0.7,1.7,1.6h1.5c0-0.9,0.8-1.6,1.7-1.6s1.6,0.7,1.7,1.6h1.5c0-0.9,0.8-1.6,1.7-1.6s1.6,0.7,1.7,1.6h1.5
					c0-0.9,0.8-1.6,1.7-1.6c0.9,0,1.6,0.7,1.7,1.6h1.5c0-0.9,0.8-1.6,1.7-1.6c0.9,0,1.6,0.7,1.7,1.6h1.5c0-0.9,0.8-1.6,1.7-1.6
					c0.9,0,1.6,0.7,1.7,1.6h1.5c0-0.9,0.8-1.6,1.7-1.6c0.9,0,1.6,0.7,1.7,1.6h1.5c0-0.9,0.8-1.6,1.7-1.6s1.6,0.7,1.7,1.6h1.5
					c0-0.9,0.8-1.6,1.7-1.6c0.9,0,1.6,0.7,1.7,1.6h1.5c0-0.9,0.8-1.6,1.7-1.6c0.9,0,1.6,0.7,1.7,1.6h1.5c0.2-0.3,0.5-0.5,0.9-0.6
					v-1.5C64.7,77.6,64,76.9,64,76z"/>
			</g>
			<linearGradient id="SVGID_1_" gradientUnits="userSpaceOnUse" x1="33" y1="3.9721" x2="33" y2="76.0279">
				<stop  offset="0" style="stop-color:#9296B1"/>
				<stop  offset="1" style="stop-color:#6C6E88"/>
			</linearGradient>
			<polygon fill="url(#SVGID_1_)" points="61.4,76 4.6,76 4.6,4 61.4,4 61.4,76 			"/>
		</g>
		<g>
			<path fill="#FFFFFF" d="M18.3,69.4v1.7h-0.3V67h1.4c0.4,0,0.8,0.1,1,0.3c0.2,0.2,0.4,0.5,0.4,0.9c0,0.4-0.1,0.7-0.4,0.9
				c-0.2,0.2-0.6,0.3-1,0.3H18.3z M18.3,69.1h1.1c0.3,0,0.6-0.1,0.8-0.3c0.2-0.2,0.3-0.4,0.3-0.7c0-0.3-0.1-0.5-0.3-0.7
				c-0.2-0.2-0.4-0.3-0.8-0.3h-1.1V69.1z"/>
			<path fill="#FFFFFF" d="M22.4,70.9h2v0.3h-2.4V67h0.3V70.9z"/>
			<path fill="#FFFFFF" d="M28,70h-1.9l-0.4,1.1h-0.4l1.6-4.1h0.3l1.6,4.1h-0.4L28,70z M26.2,69.7h1.7l-0.8-2.2h0L26.2,69.7z"/>
			<path fill="#FFFFFF" d="M32.4,67.3H31v3.8h-0.4v-3.8h-1.4V67h3.2V67.3z"/>
			<path fill="#FFFFFF" d="M34,71.1h-0.3V67H34V71.1z"/>
			<path fill="#FFFFFF" d="M38.8,71.1h-0.3l-2.3-3.5l0,0v3.5h-0.4V67h0.3l2.3,3.5l0,0V67h0.3V71.1z"/>
			<path fill="#FFFFFF" d="M43.4,67v2.8c0,0.4-0.1,0.8-0.4,1c-0.3,0.2-0.6,0.4-1.1,0.4c-0.4,0-0.8-0.1-1.1-0.4
				c-0.3-0.2-0.4-0.6-0.4-1V67h0.4v2.8c0,0.4,0.1,0.6,0.3,0.8c0.2,0.2,0.5,0.3,0.8,0.3c0.3,0,0.6-0.1,0.8-0.3
				c0.2-0.2,0.3-0.5,0.3-0.8V67H43.4z"/>
			<path fill="#FFFFFF" d="M45.4,67l1.5,3.6h0l1.5-3.6h0.4v4.1h-0.3v-1.8l0-1.8l0,0L47,71.1h-0.2l-1.5-3.6l0,0l0,1.8v1.8H45V67H45.4
				z"/>
		</g>
	</g>
	<g>
		<g id="Rounded_Rectangle_1_7_">
			<g>
				<path fill="#FFFFFF" d="M35.7,61.4h-4.1c-0.9,0-1.7-0.7-1.7-1.7v-4.1c0-0.9,0.8-1.7,1.7-1.7h4.1c0.9,0,1.7,0.8,1.7,1.7v4.1
					C37.3,60.7,36.6,61.4,35.7,61.4z M31.6,54c-0.9,0-1.7,0.8-1.7,1.7v4.1c0,0.9,0.7,1.7,1.7,1.7h4.1c0.9,0,1.7-0.7,1.7-1.7v-4.1
					c0-0.9-0.7-1.7-1.7-1.7H31.6z"/>
			</g>
			<g>
				<path fill="#FFFFFF" d="M35.7,54.1c0.9,0,1.6,0.7,1.6,1.6v4.1c0,0.9-0.7,1.6-1.6,1.6h-4.1c-0.9,0-1.6-0.7-1.6-1.6v-4.1
					c0-0.9,0.7-1.6,1.6-1.6H35.7 M35.7,53.9h-4.1c-1,0-1.8,0.8-1.8,1.8v4.1c0,1,0.8,1.8,1.8,1.8h4.1c1,0,1.8-0.8,1.8-1.8v-4.1
					C37.4,54.7,36.6,53.9,35.7,53.9L35.7,53.9z"/>
			</g>
		</g>
		<path fill="#FFFFFF" d="M30.8,51c0.1,0.2,0.1,0.4,0.2,0.6c-0.3,0.1-0.5,0.2-0.7-0.2c-1.4-2.6-2.9-5.2-4.2-7.8
			c-1.2-2.5-2.4-5-3.4-7.6c0,0,0-0.1,0-0.1h3.8c0.7,3,1.5,5.8,2.3,8.7C29.4,46.8,30.1,48.9,30.8,51z"/>
		<path fill="#FFFFFF" d="M20,27.6h4.9c-0.1-0.6-0.2-1.2-0.3-1.8c-0.4-2.8-0.5-5.6,0-8.4c0.3-1.9,0.9-3.7,2-5.3
			c0.5-0.7,1.1-1.3,1.7-2c0,0,0,0,0-0.1c-0.8,0.3-1.7,0.6-2.5,1c-2.9,1.4-4.8,3.7-5.7,6.7c-0.7,2.4-0.8,4.8-0.5,7.2
			C19.7,25.8,19.8,26.8,20,27.6z"/>
		<path fill="#FFFFFF" d="M41,36c-0.4,1.8-0.8,3.4-1.3,5.1c-0.7,2.6-1.6,5.3-2.4,7.9c-0.3,0.9-0.6,1.8-0.9,2.7
			c0.5,0.1,0.5,0.1,0.7-0.3c0.1-0.2,0.3-0.5,0.4-0.7c1.3-2.3,2.5-4.7,3.7-7c1.3-2.5,2.4-5,3.5-7.7H41z"/>
		<path fill="#FFFFFF" d="M39.2,10.3c1.2,1,2.1,2.3,2.7,3.8c0.8,2,1.1,4.1,1.2,6.3c0.1,2.4-0.1,4.8-0.5,7.2h4.8
			c0.2-1.2,0.4-2.3,0.5-3.5c0.2-2.5,0-4.9-0.9-7.3c-0.5-1.2-1.2-2.3-2.1-3.3c-1-1.1-2.2-2-3.6-2.6c-0.8-0.3-1.5-0.6-2.4-0.9
			c0,0.1,0,0.1,0,0.2C39.1,10.2,39.1,10.2,39.2,10.3z"/>
		<path fill="#FFFFFF" d="M18.9,37.5c-0.3-0.5-0.5-1-0.8-1.5h-0.9c1.4,2.6,3,4.9,4.7,7.2c0.4,0.6,0.9,1.1,1.3,1.7
			c-0.1-0.2-0.2-0.4-0.3-0.6C21.6,42.1,20.2,39.8,18.9,37.5z"/>
		<path fill="#FFFFFF" d="M13.7,27.6H15c-0.4-1.9-0.6-3.8-0.5-5.8c0.2-2.3,0.8-4.5,2.1-6.5c0.3-0.5,0.6-0.9,0.9-1.3
			c-1.2,0.9-2.5,2.4-3.2,3.8c-1.4,2.8-1.6,5.8-1,8.8C13.5,27,13.6,27.2,13.7,27.6z"/>
		<path fill="#FFFFFF" d="M47.6,39.1c-0.7,1.4-1.6,2.7-2.4,4c-0.3,0.6-0.7,1.1-1.1,1.7c0,0,0.1,0,0.1,0.1c0,0,0-0.1,0.1-0.1
			c0.9-1.2,1.8-2.5,2.7-3.7c1.1-1.7,2.1-3.3,3.1-5h-0.8C48.7,37,48.2,38.1,47.6,39.1z"/>
		<path fill="#FFFFFF" d="M51.5,17c1.2,2.6,1.5,5.4,1.2,8.2c-0.1,0.8-0.2,1.6-0.4,2.4h1.3c0.6-2.5,0.8-5,0.1-7.5
			c-0.7-2.5-2.1-4.5-4.1-6.1c0.1,0.1,0.2,0.2,0.2,0.3C50.5,15.2,51.1,16,51.5,17z"/>
		<path fill="#FFFFFF" d="M32.4,42.1c0.2,2.2,0.5,4.4,0.7,6.6c0.1,1,0.2,1.9,0.4,2.9c0,0.1,0.1,0.2,0.2,0.2c0.1-0.1,0.2-0.2,0.2-0.3
			c0.1-0.3,0.1-0.6,0.1-0.9c0.3-2.6,0.6-5.3,0.9-7.9c0.2-2.2,0.4-4.5,0.6-6.7h-3.7C32,37.9,32.2,40,32.4,42.1z"/>
		<path fill="#FFFFFF" d="M31.1,27.6h2.5h2.5c0-0.4,0.1-1,0.1-1.5c0.2-3.4,0.4-6.7,0.1-10.1c-0.1-1.5-0.4-2.9-1-4.3
			c-0.3-0.6-0.7-1.1-1.1-1.6c-0.2-0.2-0.4-0.3-0.6-0.3c-0.3,0-0.4,0.1-0.6,0.3c-0.5,0.5-0.9,1-1.1,1.6c-0.6,1.4-0.9,2.9-1,4.3
			c-0.3,3.4-0.1,6.8,0.1,10.1C31.1,26.6,31.1,27.2,31.1,27.6z"/>
		<path fill="#FFFFFF" d="M35.3,56.9c-0.4-1.2-1.2-1.6-2.4-1.2l-1.3,0.4l1.2,3.7l1.3-0.4C35.4,59.1,35.8,58.2,35.3,56.9z M34.1,59
			l-0.8,0.3l-0.9-2.9l0.8-0.3c0.9-0.3,1.4,0.1,1.7,1C35.3,58.5,34.4,58.9,34.1,59z"/>
		<g>
			<g>
				<polygon fill="#FFFFFF" points="12.1,29.2 12.1,34.4 12.7,34.4 12.7,30.1 12.7,30.1 14.4,34.4 14.9,34.4 16.6,30.1 16.6,30.1 
					16.6,34.4 17.2,34.4 17.2,29.2 16.3,29.2 14.6,33.6 13,29.2 				"/>
			</g>
			<g>
				<polygon fill="#FFFFFF" points="20.6,32.3 22.6,29.2 21.8,29.2 20.3,31.7 18.7,29.2 17.9,29.2 19.9,32.3 19.9,34.4 20.6,34.4 
									"/>
			</g>
			<path fill="#FFFFFF" d="M28.9,29.8c-0.4-0.4-1.1-0.6-1.9-0.6h-1.8v5.3H27c0.4,0,0.8-0.1,1.1-0.2c0.3-0.1,0.6-0.3,0.8-0.5
				c0.2-0.2,0.4-0.5,0.5-0.9c0.1-0.3,0.1-0.7,0.1-1.2C29.5,30.9,29.3,30.2,28.9,29.8z M28.7,32.6c-0.1,0.2-0.2,0.4-0.3,0.6
				c-0.1,0.2-0.2,0.3-0.3,0.4c-0.1,0.1-0.3,0.2-0.4,0.2c-0.1,0-0.3,0.1-0.4,0.1c-0.1,0-0.2,0-0.3,0h-1.2v-4h1.2c0.3,0,0.6,0,0.8,0.1
				c0.2,0.1,0.4,0.2,0.5,0.4c0.1,0.2,0.2,0.4,0.3,0.6c0.1,0.2,0.1,0.5,0.1,0.8C28.8,32.1,28.8,32.4,28.7,32.6z"/>
			<path fill="#FFFFFF" d="M34.5,34.1c0-0.1-0.1-0.2-0.1-0.4c0-0.1,0-0.3,0-0.4c0-0.1,0-0.3,0-0.4c0-0.1,0-0.3-0.1-0.4
				c0-0.1-0.1-0.2-0.1-0.3c-0.1-0.1-0.1-0.2-0.2-0.2c-0.1-0.1-0.2-0.1-0.4-0.1v0c0.3-0.1,0.6-0.3,0.7-0.5c0.1-0.2,0.2-0.5,0.2-0.8
				c0-0.4-0.1-0.8-0.4-1c-0.3-0.2-0.7-0.4-1.2-0.4h-2.5v5.3h0.8v-2.3h1.7c0.2,0,0.3,0,0.4,0.1c0.1,0.1,0.2,0.1,0.2,0.2
				c0.1,0.1,0.1,0.2,0.1,0.3c0,0.1,0.1,0.2,0.1,0.4c0,0.1,0,0.3,0,0.4c0,0.1,0,0.3,0,0.4c0,0.1,0,0.2,0,0.3c0,0.1,0.1,0.2,0.1,0.2
				h0.8C34.6,34.3,34.5,34.3,34.5,34.1z M33.4,31.4c-0.1,0.1-0.2,0.1-0.4,0.1c-0.1,0-0.3,0-0.5,0h-1.4v-1.8h1.7
				c0.3,0,0.6,0.1,0.7,0.2c0.1,0.2,0.2,0.4,0.2,0.6c0,0.2,0,0.3-0.1,0.5C33.6,31.3,33.5,31.4,33.4,31.4z"/>
			<g>
				<polygon fill="#FFFFFF" points="35.4,29.2 35.4,34.4 39.1,34.4 39.1,33.9 36.1,33.9 36.1,32.1 38.8,32.1 38.8,31.4 36.1,31.4 
					36.1,29.8 39,29.8 39,29.2 				"/>
			</g>
			<path fill="#FFFFFF" d="M42.1,29.2h-0.8l-2,5.3H40l0.6-1.6h2.2l0.6,1.6h0.8L42.1,29.2z M40.8,32.3l0.9-2.5h0l0.9,2.5H40.8z"/>
			<g>
				<polygon fill="#FFFFFF" points="44.7,29.2 44.7,34.4 45.3,34.4 45.3,30.1 45.3,30.1 47,34.4 47.6,34.4 49.2,30.1 49.2,30.1 
					49.2,34.4 49.9,34.4 49.9,29.2 48.9,29.2 47.3,33.6 45.6,29.2 				"/>
			</g>
			<g>
				<path fill="#FFFFFF" d="M54.1,30.7h0.7c0-0.3-0.1-0.5-0.2-0.7c-0.1-0.2-0.2-0.4-0.4-0.5c-0.2-0.1-0.4-0.2-0.6-0.3
					c-0.2-0.1-0.5-0.1-0.7-0.1c-0.2,0-0.5,0-0.7,0.1c-0.2,0.1-0.4,0.2-0.6,0.3c-0.2,0.1-0.3,0.3-0.4,0.5c-0.1,0.2-0.2,0.4-0.2,0.7
					c0,0.2,0,0.4,0.1,0.6c0.1,0.2,0.2,0.3,0.4,0.4c0.2,0.1,0.3,0.2,0.5,0.2c0.2,0.1,0.4,0.1,0.6,0.2c0.2,0,0.4,0.1,0.6,0.1
					c0.2,0,0.4,0.1,0.5,0.2c0.2,0.1,0.3,0.2,0.4,0.3c0.1,0.1,0.1,0.3,0.1,0.4c0,0.2,0,0.3-0.1,0.5c-0.1,0.1-0.2,0.2-0.3,0.3
					c-0.1,0.1-0.3,0.1-0.4,0.2c-0.2,0-0.3,0-0.5,0c-0.2,0-0.4,0-0.6-0.1c-0.2,0-0.3-0.1-0.5-0.2c-0.1-0.1-0.3-0.2-0.3-0.4
					c-0.1-0.2-0.1-0.3-0.1-0.6h-0.7c0,0.3,0.1,0.6,0.2,0.8c0.1,0.2,0.3,0.4,0.5,0.6c0.2,0.1,0.4,0.3,0.7,0.3
					c0.3,0.1,0.5,0.1,0.8,0.1c0.2,0,0.5,0,0.7-0.1c0.2-0.1,0.5-0.1,0.7-0.3c0.2-0.1,0.4-0.3,0.5-0.5c0.1-0.2,0.2-0.4,0.2-0.7
					c0-0.3,0-0.5-0.1-0.6c-0.1-0.2-0.2-0.3-0.4-0.4c-0.2-0.1-0.3-0.2-0.5-0.3c-0.2-0.1-0.4-0.1-0.6-0.2c-0.2,0-0.4-0.1-0.6-0.1
					c-0.2,0-0.4-0.1-0.5-0.2c-0.2-0.1-0.3-0.1-0.4-0.2c-0.1-0.1-0.1-0.2-0.1-0.4c0-0.2,0-0.3,0.1-0.4c0.1-0.1,0.2-0.2,0.3-0.3
					c0.1-0.1,0.2-0.1,0.4-0.1c0.1,0,0.3,0,0.4,0c0.4,0,0.7,0.1,0.9,0.2C53.9,30.1,54,30.3,54.1,30.7z"/>
			</g>
		</g>
		<path fill="#FFFFFF" d="M56,28.6c-0.4,0-0.6-0.3-0.6-0.6s0.3-0.6,0.6-0.6s0.6,0.3,0.6,0.6S56.4,28.6,56,28.6z M56,27.4
			c-0.3,0-0.6,0.3-0.6,0.6s0.3,0.6,0.6,0.6c0.3,0,0.6-0.3,0.6-0.6S56.4,27.4,56,27.4z"/>
		<path fill="#FFFFFF" d="M56.3,28.3C56.3,28.3,56.3,28.3,56.3,28.3C56.3,28.2,56.3,28.2,56.3,28.3c0-0.1,0-0.1,0-0.1c0,0,0,0,0,0
			c0,0,0,0,0,0c0,0,0,0,0,0c0,0,0,0,0,0v0c0,0,0.1,0,0.1-0.1c0,0,0-0.1,0-0.1c0-0.1,0-0.1-0.1-0.1c0,0-0.1,0-0.1,0h-0.3v0.6h0.1V28
			h0.2c0,0,0,0,0.1,0c0,0,0,0,0,0c0,0,0,0,0,0c0,0,0,0,0,0C56.2,28.2,56.2,28.2,56.3,28.3C56.2,28.2,56.2,28.2,56.3,28.3
			C56.2,28.3,56.2,28.3,56.3,28.3C56.2,28.3,56.2,28.3,56.3,28.3L56.3,28.3C56.3,28.3,56.3,28.3,56.3,28.3z M56.2,27.9
			C56.2,28,56.1,28,56.2,27.9c-0.1,0-0.1,0-0.1,0h-0.2v-0.2h0.2c0,0,0.1,0,0.1,0C56.2,27.8,56.2,27.8,56.2,27.9
			C56.2,27.9,56.2,27.9,56.2,27.9C56.2,27.9,56.2,27.9,56.2,27.9z"/>
	</g>
</g>
</svg>
