<?xml version="1.0" encoding="utf-8"?>
<!-- Generator: Adobe Illustrator 19.1.0, SVG Export Plug-In . SVG Version: 6.00 Build 0)  -->
<svg version="1.1" id="Слой_1" xmlns="http://www.w3.org/2000/svg" xmlns:xlink="http://www.w3.org/1999/xlink" x="0px" y="0px"
	 viewBox="0 0 52 52" style="enable-background:new 0 0 52 52;" xml:space="preserve">
<style type="text/css">
	.st0{clip-path:url(#SVGID_2_);fill:#F48420;}
	.st1{fill:#F48420;}
</style>
<g>
	<defs>
		<path id="SVGID_1_" d="M26,52C11.7,52,0,40.3,0,26C0,11.7,11.7,0,26,0c14.3,0,26,11.7,26,26C52,40.3,40.3,52,26,52z M26,1
			C12.2,1,1,12.2,1,26s11.2,25,25,25s25-11.2,25-25S39.8,1,26,1z"/>
	</defs>
	<use xlink:href="#SVGID_1_"  style="overflow:visible;fill:#F48420;"/>
	<clipPath id="SVGID_2_">
		<use xlink:href="#SVGID_1_"  style="overflow:visible;"/>
	</clipPath>
	<path class="st0" d="M52,52H0V0h52V52z M1,51h50V1H1V51z"/>
</g>
<g id="g7980_1_" transform="matrix(1.3569974,0,0,1.3569974,-1327.8679,-536.34264)">
	<path id="path9_2_" class="st1" d="M997.7,414.5c3.3,0,5.9-2.7,5.9-5.9c0-3.3-2.7-5.9-5.9-5.9c-3.3,0-5.9,2.7-5.9,5.9
		C991.7,411.9,994.4,414.5,997.7,414.5z M997.7,405.7c1.6,0,2.9,1.3,2.9,2.9c0,1.6-1.3,2.9-2.9,2.9c-1.6,0-2.9-1.3-2.9-2.9
		C994.8,407,996.1,405.7,997.7,405.7L997.7,405.7z"/>
	<path id="path11-0_1_" class="st1" d="M1002,415c-1.7,1.3-4.4,1.3-4.4,1.3s-2.7,0-4.4-1.3c-1.2-1-2.2-0.4-2.5,0.3
		c-0.6,1.2,0.1,1.7,1.6,2.7c1.3,0.8,3,1.1,4.2,1.2l-0.9,0.9c-1.3,1.3-2.6,2.6-3.5,3.5c-0.5,0.5-0.5,1.4,0,1.9l0.2,0.2
		c0.5,0.5,1.4,0.5,1.9,0l3.5-3.5c1.3,1.3,2.6,2.6,3.5,3.5c0.5,0.5,1.4,0.5,1.9,0l0.2-0.2c0.5-0.5,0.5-1.4,0-1.9l-3.5-3.5l-0.9-0.9
		c1.1-0.1,2.9-0.4,4.1-1.2c1.5-1,2.2-1.5,1.6-2.7C1004.2,414.6,1003.3,414,1002,415L1002,415z"/>
</g>
</svg>
