<?xml version="1.0" encoding="utf-8"?>
<!-- Generator: Adobe Illustrator 19.1.0, SVG Export Plug-In . SVG Version: 6.00 Build 0)  -->
<svg version="1.1" id="Слой_1" xmlns="http://www.w3.org/2000/svg" xmlns:xlink="http://www.w3.org/1999/xlink" x="0px" y="0px"
	 viewBox="0 0 52 52" style="enable-background:new 0 0 52 52;" xml:space="preserve">
<style type="text/css">
	.st0{clip-path:url(#SVGID_2_);fill:#F48420;}
	.st1{fill:#FFFFFF;}
</style>
<g>
	<g>
		<defs>
			<circle id="SVGID_1_" cx="26" cy="26" r="26"/>
		</defs>
		<use xlink:href="#SVGID_1_"  style="overflow:visible;fill:#F48420;"/>
		<clipPath id="SVGID_2_">
			<use xlink:href="#SVGID_1_"  style="overflow:visible;"/>
		</clipPath>
		<rect id="rect2987_7_" x="0" y="0" class="st0" width="52" height="52"/>
	</g>
	<g id="g7980" transform="matrix(1.3569974,0,0,1.3569974,-1327.8679,-536.34264)">
		<path id="path9_1_" class="st1" d="M997.7,414.6c3.3,0,6.1-2.7,6.1-6.1c0-3.3-2.7-6.1-6.1-6.1c-3.3,0-6.1,2.7-6.1,6.1
			S994.3,414.6,997.7,414.6z M997.7,405.5c1.6,0,3,1.3,3,3c0,1.6-1.3,3-3,3c-1.6,0-3-1.3-3-3C994.7,406.8,996,405.5,997.7,405.5
			L997.7,405.5z"/>
		<path id="path11-0" class="st1" d="M1002.1,415c-1.7,1.3-4.4,1.3-4.4,1.3s-2.7,0-4.4-1.3c-1.3-1-2.2-0.4-2.5,0.3
			c-0.6,1.2,0.1,1.8,1.6,2.8c1.3,0.8,3.1,1.1,4.2,1.3l-1,1c-1.4,1.4-2.7,2.7-3.6,3.6c-0.5,0.5-0.5,1.4,0,2l0.2,0.2
			c0.5,0.5,1.4,0.5,2,0l3.6-3.6c1.4,1.4,2.7,2.7,3.6,3.6c0.5,0.5,1.4,0.5,2,0l0.2-0.2c0.5-0.5,0.5-1.4,0-2l-3.6-3.6l-1-1
			c1.2-0.1,2.9-0.4,4.2-1.3c1.5-1,2.2-1.6,1.6-2.8C1004.3,414.6,1003.4,414,1002.1,415L1002.1,415z"/>
	</g>
</g>
</svg>
