<?xml version="1.0" encoding="utf-8"?>
<!-- Generator: Adobe Illustrator 19.1.0, SVG Export Plug-In . SVG Version: 6.00 Build 0)  -->
<svg version="1.1" id="Слой_1" xmlns="http://www.w3.org/2000/svg" xmlns:xlink="http://www.w3.org/1999/xlink" x="0px" y="0px"
	 viewBox="0 0 90 90" style="enable-background:new 0 0 90 90;" xml:space="preserve">
<style type="text/css">
	.st0{fill:url(#SVGID_1_);}
	.st1{fill:url(#SVGID_2_);}
</style>
<g>
	<linearGradient id="SVGID_1_" gradientUnits="userSpaceOnUse" x1="44.8994141" y1="88.1656418" x2="44.8994141" y2="1.3858579">
		<stop  offset="0" style="stop-color:#00A7E9"/>
		<stop  offset="1" style="stop-color:#C400FF"/>
	</linearGradient>
	<path class="st0" d="M44.8994141-0.0000001c-24.8147545,0-45,20.1852455-45,45s20.1852455,45,45,45s45-20.1852417,45-45
		S69.7141724-0.0000001,44.8994141-0.0000001z M44.8994141,87.5257721C21.4522495,87.5257721,2.3736408,68.4471664,2.3736408,45
		S21.4522495,2.4742267,44.8994141,2.4742267S87.4251862,21.5528355,87.4251862,45S68.3465805,87.5257721,44.8994141,87.5257721z"/>
	<linearGradient id="SVGID_2_" gradientUnits="userSpaceOnUse" x1="44.8969994" y1="88.1656418" x2="44.8969994" y2="1.3858579">
		<stop  offset="0" style="stop-color:#00A7E9"/>
		<stop  offset="1" style="stop-color:#C400FF"/>
	</linearGradient>
	<polygon class="st1" points="46.136528,16.1356316 43.6623001,16.1356316 43.6623001,43.762886 16.9628811,43.762886 
		16.9628811,46.237114 43.6623001,46.237114 43.6623001,72.0038681 46.136528,72.0038681 46.136528,46.237114 72.8311157,46.237114 
		72.8311157,43.762886 46.136528,43.762886 	"/>
</g>
</svg>
