<?xml version="1.0" encoding="utf-8"?>
<!-- Generator: Adobe Illustrator 19.1.0, SVG Export Plug-In . SVG Version: 6.00 Build 0)  -->
<svg version="1.1" id="Слой_1" xmlns="http://www.w3.org/2000/svg" xmlns:xlink="http://www.w3.org/1999/xlink" x="0px" y="0px"
	 viewBox="36 -37 90 90" style="enable-background:new 36 -37 90 90;" xml:space="preserve">
<style type="text/css">
	.st0{fill:#FFFFFF;}
</style>
<g>
	<path class="st0" d="M80.8994141-37c-24.8147545,0-45,20.1852455-45,45s20.1852455,45,45,45s45-20.1852417,45-45
		S105.7141724-37,80.8994141-37z M80.8994141,50.5257721C57.4522476,50.5257721,38.373642,31.4471664,38.373642,8
		s19.0786057-42.5257721,42.5257721-42.5257721S123.4251862-15.4471645,123.4251862,8S104.3465805,50.5257721,80.8994141,50.5257721
		z"/>
	<polygon class="st0" points="82.136528,-20.8643684 79.6623001,-20.8643684 79.6623001,6.762886 52.962883,6.762886 
		52.962883,9.237114 79.6623001,9.237114 79.6623001,35.0038681 82.136528,35.0038681 82.136528,9.237114 108.8311157,9.237114 
		108.8311157,6.762886 82.136528,6.762886 	"/>
</g>
</svg>
