<?xml version="1.0" encoding="utf-8"?>
<!-- Generator: Adobe Illustrator 19.1.0, SVG Export Plug-In . SVG Version: 6.00 Build 0)  -->
<svg version="1.1" id="Слой_1" xmlns="http://www.w3.org/2000/svg" xmlns:xlink="http://www.w3.org/1999/xlink" x="0px" y="0px"
	 viewBox="31 -31 90 90" style="enable-background:new 31 -31 90 90;" xml:space="preserve">
<style type="text/css">
	.st0{fill:#838383;}
</style>
<g>
	<path class="st0" d="M75.9-31c-24.8,0-45,20.2-45,45s20.2,45,45,45s45-20.2,45-45S100.7-31,75.9-31z M75.9,56.5
		c-23.4,0-42.5-19.1-42.5-42.5s19.1-42.5,42.5-42.5S118.4-9.4,118.4,14S99.3,56.5,75.9,56.5z"/>
	<polygon class="st0" points="77.1,-14.9 74.7,-14.9 74.7,12.8 48,12.8 48,15.2 74.7,15.2 74.7,41 77.1,41 77.1,15.2 103.8,15.2 
		103.8,12.8 77.1,12.8 	"/>
</g>
</svg>
