<?xml version="1.0" encoding="utf-8"?>
<!-- Generator: Adobe Illustrator 19.1.0, SVG Export Plug-In . SVG Version: 6.00 Build 0)  -->
<svg version="1.1" id="Слой_1" xmlns="http://www.w3.org/2000/svg" xmlns:xlink="http://www.w3.org/1999/xlink" x="0px" y="0px"
	 viewBox="0 0 10 10" style="enable-background:new 0 0 10 10;" xml:space="preserve">
<style type="text/css">
	.st0{fill:#E3E3E3;}
</style>
<g>
	<path class="st0" d="M5,0.8888888c2.2703333,0,4.1106672,1.8405557,4.1106672,4.1111112
		c0,2.2704444-1.8403339,4.1111107-4.1106668,4.1111107C2.7297783,9.1111107,0.8893339,7.2704444,0.8893339,5
		C0.8893333,2.7294445,2.7297778,0.8888888,5,0.8888888z M0,5c0,2.7614441,2.2385554,5,5,5s5-2.2385559,5-5S7.7614441,0,5,0
		S0,2.2385554,0,5z"/>
	<path class="st0" d="M7.983222,6.7222223C7.8604441,6.9347777,7.5885553,7.0075555,7.3760004,6.8849998L7.374445,6.8838882
		L4.7778888,5.384778C4.6353331,5.3024445,4.5575552,5.1533332,4.5574441,5H4.5555553V2
		c0-0.2454444,0.1990004-0.4444445,0.4444447-0.4444445S5.4444447,1.7545556,5.4444447,2v2.7432222l2.3759999,1.3717775
		C8.033,6.2378888,8.1058893,6.5096669,7.983222,6.7222223z"/>
</g>
</svg>
