<?xml version="1.0" encoding="utf-8"?>
<!-- Generator: Adobe Illustrator 19.1.0, SVG Export Plug-In . SVG Version: 6.00 Build 0)  -->
<svg version="1.1" id="Слой_1" xmlns="http://www.w3.org/2000/svg" xmlns:xlink="http://www.w3.org/1999/xlink" x="0px" y="0px"
	 viewBox="0 0 16 16" style="enable-background:new 0 0 16 16;" xml:space="preserve">
<style type="text/css">
	.st0{fill:#3F3F3F;}
</style>
<g>
	<path class="st0" d="M1.8,2.6h7c0.2,0,0.4-0.2,0.4-0.4S9,1.8,8.8,1.8h-7C1,1.8,0,2,0,3.4v11C0,15.9,1,16,1.8,16h10.6
		c0.8,0,1.8-0.2,1.8-1.6V6.5c0-0.2-0.2-0.4-0.4-0.4c-0.2,0-0.4,0.2-0.4,0.4v7.9c0,0.6-0.1,0.8-1,0.8H1.8c-0.9,0-1-0.3-1-0.8v-11
		C0.7,2.8,0.9,2.6,1.8,2.6z"/>
	<path class="st0" d="M13.5,0c-0.1,0-0.1,0-0.1,0c-0.1,0-0.2,0.1-0.2,0.1l-2.6,2.6L5.2,8C5.1,8,5.1,8.1,5.1,8.2l-0.4,2.3
		c0,0.1,0,0.2,0.1,0.3c0.1,0.1,0.2,0.1,0.3,0.1c0,0,0,0,0,0l2.2-0.3c0,0,0.1,0,0.1,0c0.1,0,0.2,0,0.2-0.1c0,0,0,0,0,0c0,0,0,0,0,0
		l7.9-7.9c0.1-0.1,0.1-0.1,0.1-0.2c0-0.1,0.1-0.8-0.7-1.6C14.3,0.1,13.7,0,13.5,0z M5.8,9.8C5.8,9.7,5.7,9.7,5.6,9.7l0.1-1
		c0.2,0.1,0.4,0.2,0.8,0.5C6.8,9.5,6.9,9.7,7,9.9L6,10C6,10,5.9,9.9,5.8,9.8z M7.6,9.5C7.5,9.3,7.4,9,7.1,8.7
		C6.7,8.4,6.4,8.2,6.2,8.1l4.9-4.9l2.5-2.5c0.2,0,0.5,0.1,0.9,0.5C14.9,1.7,15,2,15,2.2L7.6,9.5z"/>
</g>
</svg>
