<?xml version="1.0" encoding="utf-8"?>
<!-- Generator: Adobe Illustrator 19.1.0, SVG Export Plug-In . SVG Version: 6.00 Build 0)  -->
<svg version="1.1" id="Слой_1" xmlns="http://www.w3.org/2000/svg" xmlns:xlink="http://www.w3.org/1999/xlink" x="0px" y="0px"
	 viewBox="0 0 52 52" style="enable-background:new 0 0 52 52;" xml:space="preserve">
<style type="text/css">
	.st0{clip-path:url(#SVGID_2_);fill:#CA2127;}
	.st1{fill:#CA2127;}
</style>
<g>
	<defs>
		<path id="SVGID_1_" d="M26,52C11.7,52,0,40.3,0,26C0,11.7,11.7,0,26,0c14.3,0,26,11.7,26,26C52,40.3,40.3,52,26,52z M26,1
			C12.2,1,1,12.2,1,26s11.2,25,25,25s25-11.2,25-25S39.8,1,26,1z"/>
	</defs>
	<use xlink:href="#SVGID_1_"  style="overflow:visible;fill:#CA2127;"/>
	<clipPath id="SVGID_2_">
		<use xlink:href="#SVGID_1_"  style="overflow:visible;"/>
	</clipPath>
	<path class="st0" d="M52,52H0V0h52V52z M1,51h50V1H1V51z"/>
</g>
<path id="path15_1_" class="st1" d="M26.7,10.1c-8.7,0-13.1,6.2-13.1,11.4c0,3.1,1.2,5.9,3.7,7c0.4,0.2,0.8,0,0.9-0.5
	c0.1-0.3,0.3-1.1,0.4-1.5c0.1-0.5,0.1-0.6-0.3-1c-0.7-0.9-1.2-2-1.2-3.6c0-4.6,3.5-8.8,9-8.8c4.9,0,7.6,3,7.6,7
	c0,5.3-2.3,9.7-5.8,9.7c-1.9,0-3.3-1.6-2.9-3.5c0.6-2.3,1.6-4.8,1.6-6.5c0-1.5-0.8-2.7-2.5-2.7c-2,0-3.5,2-3.5,4.7
	c0,1.7,0.6,2.9,0.6,2.9s-2,8.5-2.4,10c-0.7,3-0.1,6.6-0.1,7c0,0.2,0.3,0.3,0.4,0.1c0.2-0.2,2.5-3.1,3.3-6c0.2-0.8,1.3-5,1.3-5
	c0.6,1.2,2.5,2.3,4.5,2.3c5.9,0,9.9-5.4,9.9-12.5C38.3,15.1,33.7,10.1,26.7,10.1z"/>
</svg>
