<?xml version="1.0" encoding="utf-8"?>
<!-- Generator: Adobe Illustrator 19.1.0, SVG Export Plug-In . SVG Version: 6.00 Build 0)  -->
<svg version="1.1" id="Слой_1" xmlns="http://www.w3.org/2000/svg" xmlns:xlink="http://www.w3.org/1999/xlink" x="0px" y="0px"
	 viewBox="0 0 52 52" style="enable-background:new 0 0 52 52;" xml:space="preserve">
<style type="text/css">
	.st0{clip-path:url(#SVGID_2_);fill:#CA2127;}
	.st1{fill:#FFFFFF;}
</style>
<g>
	<g>
		<defs>
			<circle id="SVGID_1_" cx="26" cy="26" r="26"/>
		</defs>
		<use xlink:href="#SVGID_1_"  style="overflow:visible;fill:#CA2127;"/>
		<clipPath id="SVGID_2_">
			<use xlink:href="#SVGID_1_"  style="overflow:visible;"/>
		</clipPath>
		<rect id="rect2987_5_" x="0" class="st0" width="52" height="52"/>
	</g>
	<path id="path15" class="st1" d="M26.8,9.8c-8.9,0-13.3,6.4-13.3,11.7c0,3.2,1.2,6.1,3.8,7.1c0.4,0.2,0.8,0,0.9-0.5
		c0.1-0.3,0.3-1.2,0.4-1.5c0.1-0.5,0.1-0.6-0.3-1c-0.8-0.9-1.2-2-1.2-3.7c0-4.7,3.5-8.9,9.2-8.9c5,0,7.8,3.1,7.8,7.2
		c0,5.4-2.4,9.9-5.9,9.9c-2,0-3.4-1.6-2.9-3.6c0.6-2.4,1.6-4.9,1.6-6.6c0-1.5-0.8-2.8-2.5-2.8c-2,0-3.6,2.1-3.6,4.8
		c0,1.8,0.6,3,0.6,3s-2,8.7-2.4,10.2c-0.7,3-0.1,6.7-0.1,7.1c0,0.2,0.3,0.3,0.4,0.1c0.2-0.2,2.6-3.2,3.4-6.1
		c0.2-0.8,1.3-5.1,1.3-5.1c0.6,1.2,2.5,2.3,4.6,2.3c6,0,10.1-5.5,10.1-12.8C38.6,14.9,33.9,9.8,26.8,9.8z"/>
</g>
</svg>
