<?xml version="1.0" encoding="utf-8"?>
<!-- Generator: Adobe Illustrator 19.1.0, SVG Export Plug-In . SVG Version: 6.00 Build 0)  -->
<svg version="1.1" id="Слой_1" xmlns="http://www.w3.org/2000/svg" xmlns:xlink="http://www.w3.org/1999/xlink" x="0px" y="0px"
	 viewBox="0 0 24 30" style="enable-background:new 0 0 24 30;" xml:space="preserve">
<style type="text/css">
	.st0{fill:url(#SVGID_1_);}
</style>
<g>
	<linearGradient id="SVGID_1_" gradientUnits="userSpaceOnUse" x1="3.9845" y1="2.1636" x2="21.7499" y2="30.6487">
		<stop  offset="0" style="stop-color:#00A7E9"/>
		<stop  offset="1" style="stop-color:#C400FF"/>
	</linearGradient>
	<path class="st0" d="M6.9,30H0.4l6.5-13.4c-1.6-0.8-2.7-1.9-3.5-3.1s-1.2-2.8-1.2-4.5c0-2.8,1-5,2.9-6.6S9.7,0,13.2,0h10.4v30h-6
		V18.4h-5.1L6.9,30z M17.6,4.6h-4.4c-1.6,0-2.9,0.4-3.8,1.2S8.1,7.7,8.1,9.2s0.4,2.6,1.3,3.5c0.9,0.9,2.1,1.3,3.7,1.3h4.4V4.6z"/>
</g>
</svg>
