<?xml version="1.0" encoding="utf-8"?>
<!-- Generator: Adobe Illustrator 19.1.0, SVG Export Plug-In . SVG Version: 6.00 Build 0)  -->
<svg version="1.1" id="Слой_1" xmlns="http://www.w3.org/2000/svg" xmlns:xlink="http://www.w3.org/1999/xlink" x="0px" y="0px"
	 viewBox="0 0 20 20" style="enable-background:new 0 0 20 20;" xml:space="preserve">
<style type="text/css">
	.st0{fill:#FFFFFF;}
</style>
<g>
	<path class="st0" d="M10,18.9c-2.4,0-4.6-0.9-6.3-2.6C2,14.6,1.1,12.4,1.1,10c0-2.4,0.9-4.6,2.6-6.3C5.4,2,7.6,1.1,10,1.1
		c2.4,0,4.6,0.9,6.3,2.6c1.7,1.7,2.6,3.9,2.6,6.3c0,2.4-0.9,4.6-2.6,6.3C14.6,18,12.4,18.9,10,18.9z M10,2.8c-1.9,0-3.7,0.7-5.1,2.1
		C3.6,6.3,2.8,8.1,2.8,10s0.7,3.7,2.1,5.1c1.4,1.4,3.1,2.1,5.1,2.1c1.9,0,3.7-0.7,5.1-2.1c1.4-1.4,2.1-3.1,2.1-5.1s-0.7-3.7-2.1-5.1
		C13.7,3.6,11.9,2.8,10,2.8z"/>
</g>
</svg>
