<?xml version="1.0" encoding="utf-8"?>
<!-- Generator: Adobe Illustrator 19.1.0, SVG Export Plug-In . SVG Version: 6.00 Build 0)  -->
<svg version="1.1" id="Слой_1" xmlns="http://www.w3.org/2000/svg" xmlns:xlink="http://www.w3.org/1999/xlink" x="0px" y="0px"
	 viewBox="0 0 38 38" style="enable-background:new 0 0 38 38;" xml:space="preserve">
<style type="text/css">
	.st0{fill:#FFCF06;}
</style>
<g>
	<path class="st0" d="M27.5,10.8c0,0.4-0.1,0.8-0.1,1.3c-0.2,1.3-0.5,2.6-1.1,3.8c-0.5,1-1.1,1.9-1.9,2.6c-1.5,1.4-3.1,2.8-4.7,4.1
		c-0.1,0.1-0.1,0.2-0.1,0.3c0,0.9,0,1.8,0,2.7c0,0.1,0,0.3-0.2,0.3c-0.6,0.5-1.2,1-1.9,1.4c-0.2,0.1-0.2,0.1-0.2-0.1
		c-0.2-0.8-0.3-1.5-0.5-2.3c0,0,0-0.1,0-0.1c-0.2-0.1-0.4-0.1-0.7,0C16,25,15.9,25,15.7,25.1c-0.2,0.1-0.4,0.1-0.5,0
		c-0.4-0.3-0.7-0.5-1-0.8c-0.3-0.3-0.6-0.7-0.9-1.1c-0.1-0.2-0.1-0.4,0-0.6c0.1-0.2,0.2-0.4,0.3-0.7c0-0.1,0-0.2,0-0.3
		c0-0.2-0.1-0.2-0.2-0.2c-0.7-0.1-1.4-0.3-2.1-0.4c-0.2,0-0.2-0.1-0.1-0.3c0.5-0.6,1-1.2,1.4-1.8c0.1-0.1,0.2-0.2,0.4-0.2
		c0.9,0,1.8,0,2.6,0c0.1,0,0.2,0,0.2-0.1c1.1-1.3,2.2-2.5,3.2-3.8c0.5-0.6,1.1-1.2,1.8-1.8c1.1-0.9,2.4-1.5,3.8-1.8
		c0.9-0.2,1.9-0.4,2.8-0.4C27.4,10.8,27.4,10.8,27.5,10.8z M22.3,17.3c0.7,0,1.4-0.6,1.4-1.4c0-0.7-0.6-1.4-1.4-1.4
		c-0.7,0-1.4,0.6-1.4,1.4C21,16.7,21.6,17.4,22.3,17.3z"/>
	<path class="st0" d="M15.2,26c-1.2,1.5-2.9,1.8-4.7,1.8c0-0.9,0.1-1.8,0.3-2.6c0.3-0.8,0.7-1.5,1.4-2.1c0,0.1,0.1,0.1,0.1,0.2
		c0,0.1,0,0.1,0,0.2c-0.6,0.9-0.8,1.9-0.8,3c0,0.1,0,0.1,0.1,0.1c1.1,0,2.1-0.2,3-0.8C14.9,25.8,15,26,15.2,26z"/>
</g>
<path class="st0" d="M19,38C8.5,38,0,29.5,0,19C0,8.5,8.5,0,19,0s19,8.5,19,19C38,29.5,29.5,38,19,38z M19,1.7
	C9.4,1.7,1.7,9.4,1.7,19c0,9.6,7.8,17.3,17.3,17.3S36.3,28.6,36.3,19C36.3,9.4,28.6,1.7,19,1.7z"/>
</svg>
