<?xml version="1.0" encoding="utf-8"?>
<!-- Generator: Adobe Illustrator 19.1.0, SVG Export Plug-In . SVG Version: 6.00 Build 0)  -->
<svg version="1.1" id="Слой_1" xmlns="http://www.w3.org/2000/svg" xmlns:xlink="http://www.w3.org/1999/xlink" x="0px" y="0px"
	 viewBox="0 0 35 34.6" style="enable-background:new 0 0 35 34.6;" xml:space="preserve">
<style type="text/css">
	.st0{fill:#F5CB44;}
	.st1{fill:#FFFFFF;}
</style>
<g>
	<circle class="st0" cx="17.5" cy="17.3" r="16.5"/>
	<g>
		<path class="st1" d="M25.2,9.9c0,0.4,0,0.8-0.1,1.1c-0.1,1.2-0.4,2.3-1,3.4c-0.4,0.9-1,1.7-1.7,2.4c-1.4,1.3-2.8,2.5-4.3,3.7
			c-0.1,0.1-0.1,0.1-0.1,0.2c0,0.8,0,1.6,0,2.4c0,0.1,0,0.2-0.1,0.3c-0.6,0.4-1.1,0.9-1.7,1.3c-0.1,0.1-0.2,0.1-0.2-0.1
			c-0.1-0.7-0.3-1.4-0.4-2.1c0,0,0,0,0-0.1c-0.2-0.1-0.4-0.1-0.6,0c-0.2,0.1-0.3,0.1-0.5,0.2c-0.2,0.1-0.3,0.1-0.5,0
			c-0.3-0.2-0.7-0.5-0.9-0.8c-0.3-0.3-0.6-0.7-0.8-1c-0.1-0.2-0.1-0.3,0-0.5c0.1-0.2,0.2-0.4,0.3-0.6c0-0.1,0-0.2,0-0.3
			c0-0.1-0.1-0.2-0.2-0.2c-0.6-0.1-1.3-0.3-1.9-0.4c-0.2,0-0.2-0.1-0.1-0.2c0.4-0.6,0.9-1.1,1.3-1.7C11.7,17,11.8,17,12,17
			c0.8,0,1.6,0,2.4,0c0.1,0,0.2,0,0.2-0.1c1-1.1,1.9-2.3,2.9-3.4c0.5-0.6,1-1.1,1.6-1.6c1-0.8,2.2-1.3,3.4-1.7
			c0.8-0.2,1.7-0.4,2.6-0.4C25.1,9.9,25.1,9.9,25.2,9.9z M20.5,15.8c0.7,0,1.2-0.6,1.2-1.2c0-0.7-0.6-1.2-1.2-1.2
			c-0.7,0-1.2,0.6-1.2,1.2C19.3,15.2,19.9,15.8,20.5,15.8z"/>
		<path class="st1" d="M14,23.6c-1.1,1.4-2.6,1.6-4.2,1.6c0-0.8,0-1.6,0.3-2.4c0.2-0.7,0.7-1.4,1.3-1.9c0,0.1,0.1,0.1,0.1,0.2
			c0,0,0,0.1,0,0.2c-0.6,0.8-0.7,1.8-0.7,2.7c0,0.1,0,0.1,0.1,0.1c1,0,1.9-0.1,2.7-0.7C13.8,23.4,13.9,23.6,14,23.6z"/>
	</g>
</g>
</svg>
