<?xml version="1.0" encoding="utf-8"?>
<!-- Generator: Adobe Illustrator 17.0.0, SVG Export Plug-In . SVG Version: 6.00 Build 0)  -->
<!DOCTYPE svg PUBLIC "-//W3C//DTD SVG 1.1//EN" "http://www.w3.org/Graphics/SVG/1.1/DTD/svg11.dtd">
<svg version="1.1" id="Layer_1" xmlns="http://www.w3.org/2000/svg" xmlns:xlink="http://www.w3.org/1999/xlink" x="0px" y="0px"
	 width="21px" height="21px" viewBox="2 2 21 21" enable-background="new 2 2 21 21" xml:space="preserve">
<path fill="#FFFFFF" d="M10.76,1.98c4.835,0,8.76,3.971,8.76,8.9c0,1.845-0.561,3.551-1.495,4.976l4.555,4.625
	c0.561,0.584,0.561,1.518,0,2.102s-1.495,0.584-2.056,0l-4.508-4.578c-1.472,1.121-3.27,1.775-5.256,1.775
	C5.924,19.756,2,15.785,2,10.879C2,5.951,5.924,1.98,10.76,1.98L10.76,1.98z M10.76,4.946c-3.224,0-5.84,2.663-5.84,5.933
	s2.616,5.933,5.84,5.933s5.84-2.663,5.84-5.933C16.623,7.586,14.007,4.946,10.76,4.946z"/>
</svg>
