<?xml version="1.0" encoding="utf-8"?>
<!-- Generator: Adobe Illustrator 19.1.0, SVG Export Plug-In . SVG Version: 6.00 Build 0)  -->
<svg version="1.1" id="Слой_1" xmlns="http://www.w3.org/2000/svg" xmlns:xlink="http://www.w3.org/1999/xlink" x="0px" y="0px"
	 viewBox="0 0 20 20" style="enable-background:new 0 0 20 20;" xml:space="preserve">
<style type="text/css">
	.st0{fill:#FFFFFF;}
</style>
<g>
	<path class="st0" d="M71.3,18.9c-2.4,0-4.6-0.9-6.3-2.6c-1.7-1.7-2.6-3.9-2.6-6.3c0-2.4,0.9-4.6,2.6-6.3c1.7-1.7,3.9-2.6,6.3-2.6
		c2.4,0,4.6,0.9,6.3,2.6c1.7,1.7,2.6,3.9,2.6,6.3c0,2.4-0.9,4.6-2.6,6.3C75.9,18,73.6,18.9,71.3,18.9z M71.3,2.8
		c-1.9,0-3.7,0.7-5.1,2.1c-1.4,1.4-2.1,3.1-2.1,5.1s0.7,3.7,2.1,5.1c1.4,1.4,3.1,2.1,5.1,2.1c1.9,0,3.7-0.7,5.1-2.1
		c1.4-1.4,2.1-3.1,2.1-5.1s-0.7-3.7-2.1-5.1C75,3.6,73.2,2.8,71.3,2.8z"/>
</g>
<circle class="st0" cx="10" cy="10.2" r="9.1"/>
</svg>
