<?xml version="1.0" encoding="utf-8"?>
<!-- Generator: Adobe Illustrator 17.0.0, SVG Export Plug-In . SVG Version: 6.00 Build 0)  -->
<!DOCTYPE svg PUBLIC "-//W3C//DTD SVG 1.1//EN" "http://www.w3.org/Graphics/SVG/1.1/DTD/svg11.dtd">
<svg version="1.1" id="Layer_1" xmlns="http://www.w3.org/2000/svg" xmlns:xlink="http://www.w3.org/1999/xlink" x="0px" y="0px"
	 width="40px" height="40px" viewBox="0 0 40 40" enable-background="new 0 0 40 40" xml:space="preserve">
<path opacity="0.7" fill="#FFFFFF" d="M17.265,3.468c7.598,0,13.765,6.24,13.765,13.986c0,2.9-0.881,5.58-2.349,7.819l7.158,7.268
	c0.881,0.918,0.881,2.386,0,3.304c-0.881,0.918-2.349,0.918-3.23,0l-7.085-7.195c-2.313,1.762-5.139,2.79-8.259,2.79
	C9.667,31.402,3.5,25.162,3.5,17.453C3.5,9.708,9.667,3.468,17.265,3.468L17.265,3.468z M17.265,8.13
	c-5.066,0-9.177,4.185-9.177,9.324s4.111,9.324,9.177,9.324s9.177-4.185,9.177-9.324C26.479,12.278,22.368,8.13,17.265,8.13z"/>
</svg>
