<?xml version="1.0" encoding="utf-8"?>
<!-- Generator: Adobe Illustrator 19.1.0, SVG Export Plug-In . SVG Version: 6.00 Build 0)  -->
<svg version="1.1" id="Слой_1" xmlns="http://www.w3.org/2000/svg" xmlns:xlink="http://www.w3.org/1999/xlink" x="0px" y="0px"
	 viewBox="0 0 30 30" style="enable-background:new 0 0 30 30;" xml:space="preserve">
<style type="text/css">
	.st0{opacity:0.3;}
	.st1{fill:#FFFFFF;}
</style>
<circle class="st0" cx="15" cy="15" r="15"/>
<path class="st1" d="M24.7082558,16.2857189H6.3577399c-0.7071452,0-1.2857184-0.5785723-1.2857184-1.285718V14.999999
	c0-0.7071457,0.5785732-1.2857189,1.2857184-1.2857189h18.3505154c0.7071457,0,1.2857189,0.5785732,1.2857189,1.2857189v0.0000019
	C25.9939747,15.7071466,25.4154015,16.2857189,24.7082558,16.2857189z"/>
<path class="st1" d="M7.2653241,14.0893002l5.5787473,5.5787468c0.5000267,0.5000267,0.5000267,1.3182545,0,1.8182812
	L12.8440695,21.48633c-0.5000267,0.5000267-1.3182535,0.5000267-1.8182802,0L5.447042,15.9075823
	c-0.5000272-0.5000267-0.5000272-1.3182526,0-1.8182802l0.0000014-0.0000019
	C5.9470706,13.5892735,6.7652969,13.5892735,7.2653241,14.0893002z"/>
<path class="st1" d="M12.8440714,10.3319521l-5.5787473,5.5787477c-0.5000272,0.5000267-1.3182535,0.5000267-1.8182807,0
	L5.447042,15.9106979c-0.5000272-0.5000277-0.5000272-1.3182535,0-1.8182812L11.0257893,8.51367
	c0.5000267-0.5000267,1.3182535-0.5000267,1.8182802,0l0.0000019,0.0000019
	C13.3440981,9.0136995,13.3440981,9.8319254,12.8440714,10.3319521z"/>
</svg>
