<?xml version="1.0" encoding="utf-8"?>
<!-- Generator: Adobe Illustrator 19.1.0, SVG Export Plug-In . SVG Version: 6.00 Build 0)  -->
<svg version="1.1" id="Слой_1" xmlns="http://www.w3.org/2000/svg" xmlns:xlink="http://www.w3.org/1999/xlink" x="0px" y="0px"
	 viewBox="0 0 52 52" style="enable-background:new 0 0 52 52;" xml:space="preserve">
<style type="text/css">
	.st0{clip-path:url(#SVGID_2_);fill:#00ABF1;}
	.st1{fill:#00ABF1;}
</style>
<g>
	<defs>
		<path id="SVGID_1_" d="M26,52C11.7,52,0,40.3,0,26C0,11.7,11.7,0,26,0c14.3,0,26,11.7,26,26C52,40.3,40.3,52,26,52z M26,1
			C12.2,1,1,12.2,1,26s11.2,25,25,25s25-11.2,25-25S39.8,1,26,1z"/>
	</defs>
	<use xlink:href="#SVGID_1_"  style="overflow:visible;fill:#00ABF1;"/>
	<clipPath id="SVGID_2_">
		<use xlink:href="#SVGID_1_"  style="overflow:visible;"/>
	</clipPath>
	<path class="st0" d="M52,52H0V0h52V52z M1,51h50V1H1V51z"/>
</g>
<g id="layer1_1_" transform="matrix(1.418485,0,0,1.418485,-507.62367,-651.3318)">
	<path id="path5_2_" class="st1" d="M387.4,470.5c-0.8,0.4-1.7,0.6-2.6,0.7c1-0.6,1.7-1.5,2-2.6c-0.9,0.5-1.9,0.9-2.9,1.1
		c-0.8-0.9-2-1.5-3.4-1.5c-2.5,0-4.6,2.1-4.6,4.6c0,0.4,0,0.7,0.1,1.1c-3.8-0.2-7.2-2-9.5-4.8c-0.4,0.7-0.6,1.5-0.6,2.3
		c0,1.6,0.8,3,2.1,3.8c-0.8,0-1.5-0.2-2.1-0.6l0,0.1c0,2.2,1.6,4.1,3.7,4.5c-0.4,0.1-0.8,0.2-1.2,0.2c-0.3,0-0.6,0-0.9-0.1
		c0.6,1.8,2.3,3.2,4.3,3.2c-1.6,1.2-3.6,2-5.7,2c-0.4,0-0.7,0-1.1-0.1c2,1.3,4.5,2.1,7.1,2.1c8.5,0,13.1-7,13.1-13.1
		c0-0.2,0-0.4,0-0.6C386,472.3,386.8,471.5,387.4,470.5L387.4,470.5L387.4,470.5z"/>
</g>
</svg>
