<?xml version="1.0" encoding="utf-8"?>
<!-- Generator: Adobe Illustrator 19.1.0, SVG Export Plug-In . SVG Version: 6.00 Build 0)  -->
<svg version="1.1" id="Слой_1" xmlns="http://www.w3.org/2000/svg" xmlns:xlink="http://www.w3.org/1999/xlink" x="0px" y="0px"
	 viewBox="0 0 52 52" style="enable-background:new 0 0 52 52;" xml:space="preserve">
<style type="text/css">
	.st0{clip-path:url(#SVGID_2_);fill:#00ABF1;}
	.st1{fill:#FFFFFF;}
</style>
<g>
	<g>
		<defs>
			<circle id="SVGID_1_" cx="26" cy="26" r="26"/>
		</defs>
		<use xlink:href="#SVGID_1_"  style="overflow:visible;fill:#00ABF1;"/>
		<clipPath id="SVGID_2_">
			<use xlink:href="#SVGID_1_"  style="overflow:visible;"/>
		</clipPath>
		<rect id="rect2987_6_" x="0" class="st0" width="52" height="52"/>
	</g>
	<g id="layer1_2_" transform="matrix(1.418485,0,0,1.418485,-507.62367,-651.3318)">
		<path id="path5_1_" class="st1" d="M387.6,470.4c-0.8,0.4-1.7,0.6-2.7,0.7c1-0.6,1.7-1.5,2.1-2.6c-0.9,0.5-1.9,0.9-3,1.1
			c-0.9-0.9-2.1-1.5-3.4-1.5c-2.6,0-4.7,2.1-4.7,4.7c0,0.4,0,0.7,0.1,1.1c-3.9-0.2-7.4-2.1-9.7-4.9c-0.4,0.7-0.6,1.5-0.6,2.4
			c0,1.6,0.8,3.1,2.1,3.9c-0.8,0-1.5-0.2-2.1-0.6l0,0.1c0,2.3,1.6,4.2,3.8,4.6c-0.4,0.1-0.8,0.2-1.2,0.2c-0.3,0-0.6,0-0.9-0.1
			c0.6,1.9,2.3,3.2,4.4,3.3c-1.6,1.3-3.6,2-5.8,2c-0.4,0-0.8,0-1.1-0.1c2.1,1.3,4.6,2.1,7.2,2.1c8.6,0,13.4-7.2,13.4-13.4
			c0-0.2,0-0.4,0-0.6C386.2,472.2,387,471.3,387.6,470.4L387.6,470.4L387.6,470.4z"/>
	</g>
</g>
</svg>
