<?xml version="1.0" encoding="utf-8"?>
<!-- Generator: Adobe Illustrator 19.1.0, SVG Export Plug-In . SVG Version: 6.00 Build 0)  -->
<svg version="1.1" id="Слой_1" xmlns="http://www.w3.org/2000/svg" xmlns:xlink="http://www.w3.org/1999/xlink" x="0px" y="0px"
	 viewBox="0 0 60 63" style="enable-background:new 0 0 60 63;" xml:space="preserve">
<style type="text/css">
	.st0{fill-rule:evenodd;clip-rule:evenodd;fill:#FFFFFF;}
	.st1{fill:#FFFFFF;}
</style>
<g>
	<g>
		<path class="st0" d="M23.1203938,57.0232964c-1.3571835,0.180603-2.7210312-0.3207397-4.1312561-0.4080887
			c0.7657089-1.9763641,3.1888237-2.6831284,5.3618965-2.7056618c0.4339542-0.0046158,0.8830433,0.0010223,1.3346519,0.0261269
			c0.2313385,0.1050339,0.4613647,0.2228661,0.689373,0.3522148c-2.0457973-0.1449814-4.3100777,0.0973473-6.0003014,1.0597954
			c1.9123287-0.584343,4.2268181-0.7956657,6.0200272-0.7326546c-0.1718979,0.1508827-0.3445549,0.306385-0.5233784,0.4667435
			C25.1118679,55.7642174,24.1532726,56.474575,23.1203938,57.0232964L23.1203938,57.0232964z M21.2175598,51.0973091
			c-0.4887733-1.026741-0.684988-2.2911949-0.5896912-3.4731789c1.2598419,1.6994324,3.5956001,1.7373619,4.6118221,3.5289993
			c-0.8655987-0.1249962-1.7503986-0.1588097-2.5942249-0.1529312c-0.2305527-0.2681961-0.4477787-0.5410347-0.6470871-0.8161545
			c0.1196175,0.2800026,0.2659111,0.5533371,0.4331913,0.8187256
			C22.0360203,51.0114784,21.6279583,51.0416946,21.2175598,51.0973091L21.2175598,51.0973091z M36.8795815,57.0232964
			c1.3571815,0.180603,2.7212906-0.3207397,4.1315155-0.4080887c-0.7657051-1.9763641-3.1888237-2.6831284-5.3621521-2.7056618
			c-0.4342232-0.0046158-0.8830223,0.0010223-1.3346558,0.0261269c-0.2313118,0.1050339-0.4613686,0.2228661-0.6893463,0.3522148
			c2.0457726-0.1449814,4.3103142,0.0973473,6.0002747,1.0597954c-1.9118042-0.584343-4.2265549-0.7956657-6.0199966-0.7326546
			c0.1721268,0.1508827,0.3445244,0.306385,0.5233459,0.4667435C34.8881111,55.7642174,35.8467026,56.474575,36.8795815,57.0232964
			L36.8795815,57.0232964z M38.7824135,51.0973091c0.4887772-1.0272675,0.6849937-2.2911949,0.5896912-3.4731789
			c-1.2595749,1.6994324-3.5953369,1.7373619-4.6115608,3.5289993c0.8653374-0.1249962,1.7504005-0.1588097,2.5939636-0.1529312
			c0.2305527-0.2681961,0.44804-0.5410347,0.6473503-0.8161545c-0.1198807,0.2800026-0.2659073,0.5530739-0.4334297,0.8187256
			C37.9721375,51.0114784,38.3792038,51.0422211,38.7824135,51.0973091L38.7824135,51.0973091z M37.6427193,2.9479966
			c-0.1283531-2.3723831-1.9615097-1.799348-2.9595604-2.8806252c0.0217743,0.8200079,0.3207436,1.6881512,0.8556328,2.2074108
			c0.2021179,0.1962407,0.4265099,0.3525038,0.668335,0.4726458c-0.2958641-0.0182049-0.5904808,0.0199623-0.8807068,0.1214273
			c-0.5948334,0.2085152-1.1320114,0.7682524-1.4399452,1.3897111c1.1496925-0.4751899,2.3529472,0.6150584,3.2933311-1.1596859
			c-0.6647682,0.045855-1.51754,0.2154441-2.2040825,0.5090048c0.5330849-0.384769,1.2657394-0.5663722,1.9663696-0.6163437
			c0.1923828,0.0371442,0.3911667,0.0578938,0.5976448,0.063035c-0.7995262-0.4060428-1.59338-1.0059917-2.0099182-1.7473565
			C36.1210594,1.9635413,36.9520836,2.5693922,37.6427193,2.9479966L37.6427193,2.9479966z M43.9122429,54.5894241
			c1.4980698-0.3691597,2.8990593-1.3336258,4.608223-1.1819801c-1.2357559-1.2903481-2.987442-2.2512207-4.6090126-2.3057823
			c-0.6127548-0.0205116-1.2032318,0.0550613-1.7691078,0.216465c0.5033646-0.4039955,0.9234962-0.8968658,1.2419243-1.4850388
			c0.6529617-1.2057991,0.7006264-2.8939476,0.2866402-4.3469582c-1.0720749,2.2701836-4.1873703,2.4390106-3.774929,5.8268547
			c0.2482338,0.0635338,0.495945,0.1388474,0.738533,0.2262001c0.8366661-0.9803658,1.6830635-2.2094574,2.2335625-3.4096184
			c-0.2659111,1.2544594-1.0280266,2.482296-1.9445915,3.5195274c0.4372826,0.1770134,0.8576508,0.3970451,1.243206,0.6662903
			c1.1045952-0.0765953,2.2015076,0.0076866,3.1747093,0.3319893c-0.8835373-0.088871-1.8352051-0.085804-2.7671471-0.0166283
			c0.0911903,0.0781174,0.1800842,0.1593323,0.2651253,0.2446365C43.3499298,53.3823395,43.7003632,53.961277,43.9122429,54.5894241
			L43.9122429,54.5894241z M44.7327423,50.3646507c4.2239876,2.5289116,5.3642044-1.2847023,8.3782997-1.7452812
			c-1.434803-0.9140244-3.2720566-1.40485-4.7834549-1.0882301c-0.5710182,0.1201401-1.0994873,0.3235435-1.5872421,0.6009712
			c0.3747749-0.4872284,0.6511803-1.0377312,0.8123245-1.6540756c0.3304405-1.2626724-0.0076866-2.8340111-0.719593-4.0836182
			c-0.5141182,2.5253143-3.7813225,3.3294525-1.8226433,7.0008888c0.6916542-1.1940231,1.387928-2.8557816,1.6797066-4.3751335
			c0.0427818,1.3605156-0.4928703,2.8304176-1.2196236,4.090519c-0.2866631,0.2874222-0.5533333,0.6063499-0.800808,0.9544983
			c1.6236191-0.9024811,3.5746155-1.5718651,5.3296356-1.4291916
			C48.1879768,48.8921776,46.1839409,49.6176491,44.7327423,50.3646507L44.7327423,50.3646507z M49.0028458,46.8159256
			c4.399971,1.6151505,4.7893639-2.1533699,7.5262871-3.1193848c-1.5042419-0.5997124-3.3094635-0.7334175-4.6664124-0.1685677
			c-0.5130959,0.2128716-0.9711304,0.4974899-1.3779335,0.8435669c0.2636032-0.522068,0.424221-1.0866814,0.4662514-1.692009
			c0.0850372-1.2388268-0.5105591-2.6487885-1.3974304-3.6903763c-0.0330505,2.4525719-2.9462051,3.7836304-0.4621277,6.870491
			c0.4344521-1.240139,0.7907867-2.9172707,0.7936211-4.3897438c0.2820435,1.2647171,0.0414963,2.7346191-0.4134674,4.0421181
			c-0.2174873,0.319191-0.4111595,0.6647415-0.5802231,1.0341377c1.357708-1.1320076,3.064064-2.1036606,4.7309685-2.2822227
			C51.9728928,44.824955,50.2281075,45.8596458,49.0028458,46.8159256L49.0028458,46.8159256z M52.2920837,42.6528778
			c4.4312172,0.52005,3.9557648-3.0560875,6.2751312-4.556736c-1.5247269-0.2218399-3.2259407,0.0550613-4.3571892,0.8786621
			c-0.4270287,0.3112411-0.7889977,0.6755257-1.0877037,1.0861588c0.1278267-0.5417938,0.1514091-1.0997467,0.0561104-1.6692123
			c-0.1962433-1.1658211-1.0602913-2.3390961-2.1124001-3.106823c0.5136185,2.2781067-1.8879585,4.1571198,1.0953903,6.462925
			c0.1275635-1.2439651,0.0858307-2.8757706-0.2382317-4.2393799c0.5415497,1.1076927,0.6442757,2.5217476,0.5131149,3.8338623
			c-0.130394,0.3435059-0.2325974,0.7062416-0.3076744,1.0858955c1.0064926-1.349762,2.3703651-2.6275406,3.8738174-3.1621742
			C54.6006737,40.1513824,53.2142906,41.4960289,52.2920837,42.6528778L52.2920837,42.6528778z M54.617588,38.1965599
			c4.2455215-0.1045341,3.3184357-3.410141,5.3029823-5.1352005c-1.466835-0.0046196-3.0330582,0.4841614-3.9880562,1.4120064
			c-0.3619728,0.350956-0.6529884,0.7428856-0.8802109,1.1696777c0.0484238-0.5277061-0.0040932-1.0566978-0.1711082-1.5803108
			c-0.3407021-1.0725937-1.3121185-2.062191-2.4069824-2.6449585c0.7890015,2.0782967-1.2214088,4.1701851,1.8992386,5.9439049
			c-0.0463524-1.1893806-0.3050766-2.7215576-0.7933578-3.9634514c0.6586304,0.9721527,0.9455261,2.2901459,0.9975471,3.5438461
			c-0.0765991,0.3414841-0.1242638,0.6970596-0.1439896,1.0649071c0.767231-1.4063683,1.880825-2.7937965,3.2267303-3.4995384
			C56.4579124,35.5295639,55.3312798,36.982811,54.617588,38.1965599L54.617588,38.1965599z M55.9863167,33.5683136
			C59.9326096,32.6940079,58.4619484,29.776474,60,27.8019218c-1.3710327,0.2643661-2.7441139,1.007513-3.4665146,2.0480785
			c-0.2735977,0.3940029-0.4741669,0.8130836-0.6081314,1.2539616c-0.0512581-0.5018406-0.1970024-0.9865284-0.4485664-1.4450607
			c-0.5149002-0.9393883-1.6026077-1.6858692-2.7318115-2.0298996c1.1171608,1.7962799-0.3778419,4.1181927,2.8606644,5.2038498
			c-0.2607689-1.1022892-0.7826042-2.4863853-1.4658127-3.5564117c0.7933578,0.7864323,1.3023872,1.9658432,1.5800514,3.1270752
			c-0.0092087,0.3335381,0.0112801,0.6739769,0.060463,1.0211029c0.4593201-1.4537716,1.2455177-2.9531574,2.3731766-3.8584461
			C57.2172203,30.7404404,56.4310226,32.3035965,55.9863167,33.5683136L55.9863167,33.5683136z M56.4907036,28.9723625
			c3.5190277-1.5495701,1.6036301-3.9983139,2.6710854-6.1265831c-1.2301178,0.5021038-2.3723831,1.450964-2.8527145,2.5560856
			c-0.1816063,0.4180565-0.291256,0.8468933-0.3337746,1.2828941c-0.1416779-0.4585323-0.3673515-0.8832779-0.6873016-1.2647152
			c-0.6550369-0.7808189-1.8093414-1.2747116-2.926506-1.3856201c1.3766785,1.4683552,0.4132042,3.91222,3.6368637,4.3228798
			c-0.4488258-0.9801273-1.1927376-2.1741238-2.0288773-3.0450993c0.885849,0.5866222,1.5808372,1.5913296,2.0555038,2.6234474
			c0.0533028,0.3122654,0.1360359,0.6265755,0.2461853,0.9414101c0.1578102-1.4417305,0.6130104-2.987442,1.4962921-4.0410976
			C57.1126862,26.1055603,56.6702843,27.709692,56.4907036,28.9723625L56.4907036,28.9723625z M56.2368546,24.5603466
			c3.0947838-1.94664,0.9529533-3.9839649,1.6612663-6.1350288c-1.0869446,0.6432323-2.0301628,1.6945515-2.3283424,2.8012218
			c-0.1127167,0.4188442-0.1565247,0.8374252-0.1360359,1.2537003c-0.1969757-0.4121819-0.4682655-0.7805557-0.8225517-1.0946293
			c-0.7244453-0.6432323-1.8795357-0.9480724-2.945446-0.8971062c1.4986,1.1906929,0.9327011,3.6240387,4.0226288,3.5620518
			c-0.5581856-0.86022-1.4243088-1.8797741-2.3324318-2.5832081c0.9150467,0.4285507,1.7084045,1.2775173,2.2988815,2.1825695
			c0.0932541,0.2866364,0.2154427,0.5704899,0.3624725,0.8509884c-0.0517311-1.3781967,0.1614037-2.8949757,0.8458786-4.0098286
			C56.4233398,21.7775669,56.2304306,23.3478832,56.2368546,24.5603466L56.2368546,24.5603466z M55.3082237,20.4155025
			c2.6431732-2.2563591,0.3494072-3.87817,0.7195892-5.9984913c-0.9340096,0.7541656-1.6768951,1.8726139-1.8052483,2.9546776
			c-0.0483971,0.4096107-0.0315056,0.808466,0.0448303,1.1975899c-0.241806-0.3601627-0.5481949-0.669384-0.9239922-0.916069
			c-0.7700615-0.5054092-1.8977165-0.6332378-2.8937149-0.4390697c1.5739136,0.9132347,1.3753929,3.2800064,4.2731972,2.7963428
			c-0.6440201-0.7316055-1.5985184-1.5713406-2.5488968-2.108778c0.9196358,0.2779255,1.7821693,0.9675617,2.4617805,1.7373352
			c0.1275902,0.256443,0.2805214,0.5064583,0.4580345,0.7505989c-0.2379761-1.2893238-0.2461586-2.7451382,0.2446365-3.8876667
			C55.1012535,17.7720661,55.1355629,19.2758064,55.3082237,20.4155025L55.3082237,20.4155025z M53.7962952,16.6159763
			c2.1818161-2.4774179-0.1941681-3.6934729-0.1311569-5.7364359c-0.7769623,0.8343563-1.324894,1.9858561-1.2992897,3.021018
			c0.0089684,0.3909321,0.0791664,0.7641602,0.2031364,1.1194706c-0.2764053-0.3063612-0.6058235-0.5553808-0.9921417-0.7369833
			c-0.7925949-0.3719683-1.8697777-0.3397026-2.7799683-0.0228224c1.6023445,0.6465893,1.7342911,2.8985691,4.3933334,2.0539818
			c-0.7026711-0.6012354-1.7137794-1.2624092-2.6795311-1.6392298c0.9019547,0.1365366,1.8059883,0.669385,2.5483742,1.3018608
			c0.1544838,0.2238894,0.3325119,0.4383078,0.5317955,0.6437559c-0.397831-1.1799345-0.6009712-2.5481377-0.2930336-3.6880941
			C53.2458,14.158287,53.4802017,15.5677242,53.7962952,16.6159763L53.7962952,16.6159763z M51.7974014,13.2186356
			c1.723278-2.6165237-0.6703796-3.4460011-0.8807068-5.3749609c-0.6199379,0.8873711-0.9824066,2.0419407-0.8225517,3.0110245
			c0.0604362,0.3663273,0.1754646,0.708312,0.338913,1.0254555c-0.2997246-0.2510386-0.6424942-0.4419031-1.0303345-0.5612583
			c-0.793354-0.245162-1.8016281-0.0727654-2.6157608,0.3450556c1.5918541,0.3962841,2.013504,2.4958544,4.4012871,1.3512812
			c-0.7406006-0.472621-1.7778397-0.9608727-2.7356682-1.1873322c0.86586,0.009469,1.7860222,0.3904085,2.5673637,0.88661
			c0.1752014,0.1903391,0.3701591,0.3688726,0.5848122,0.5353928c-0.5292282-1.056962-0.9011955-2.3155384-0.7623482-3.4278221
			C50.9553871,10.9812412,51.3621635,12.2746553,51.7974014,13.2186356L51.7974014,13.2186356z M49.4081001,10.2575827
			c1.2800941-2.6810794-1.0764236-3.1503935-1.5237045-4.9351306c-0.4677658,0.9140215-0.6583405,2.0455079-0.3829575,2.9359727
			c0.1045113,0.3358221,0.2566795,0.64221,0.4516335,0.9191399c-0.3140678-0.1972637-0.6604118-0.332016-1.0405655-0.394002
			c-0.7772255-0.1270676-1.7022629,0.1654968-2.4126244,0.663744c1.5465012,0.1659937,2.2148361,2.0834398,4.3095551,0.6983185
			C48.0527,9.7974758,47.0149689,9.4736967,46.0855713,9.3842964c0.8148956-0.1024866,1.7286606,0.1357517,2.5273895,0.5007944
			c0.1885262,0.1560268,0.3949966,0.2987022,0.6186523,0.427289c-0.6347847-0.9245138-1.1466217-2.0585699-1.1614952-3.1214323
			C48.3270645,8.2648277,48.8768005,9.4280787,49.4081001,10.2575827L49.4081001,10.2575827z M46.7188377,7.7514434
			c0.856102-2.6810794-1.4153404-2.8178525-2.0652618-4.4360957C44.3323402,4.2334628,44.29879,5.320406,44.6717796,6.1206613
			c0.1416512,0.3020339,0.3240433,0.5694675,0.542057,0.8043985c-0.3204765-0.1447458-0.6627235-0.2264581-1.0272408-0.2359543
			c-0.7457199-0.0192013-1.5767441,0.3742762-2.1790009,0.9332509c1.4727325-0.0430465,2.3465157,1.6707335,4.1348495,0.101439
			c-0.7554474-0.2295289-1.7709122-0.4006658-2.6544304-0.3642821c0.7516022-0.2013555,1.639492-0.0947757,2.4361801,0.1447458
			c0.1970024,0.1224518,0.4096107,0.2290044,0.6355438,0.3217354c-0.7139473-0.7864313-1.3410492-1.7852354-1.4909134-2.780972
			C45.4471931,6.020246,46.1137466,7.0410848,46.7188377,7.7514434L46.7188377,7.7514434z M43.8107719,5.7049127
			c0.4585609-2.6237106-1.6889114-2.4607844-2.5058517-3.8938048c-0.1831512,0.9019825-0.0750465,1.9253924,0.378109,2.6275403
			c0.1708717,0.2648892,0.3757973,0.492372,0.610466,0.684494c-0.3181648-0.0942769-0.6499214-0.1270671-0.9929276-0.0886374
			c-0.7019119,0.0771217-1.4299507,0.5533347-1.9233208,1.1545691c1.3748627-0.2300534,2.4149055,1.2647166,3.8899536-0.4362621
			c-0.7377777-0.1180973-1.7120018-0.1478167-2.5358353,0c0.6785889-0.2861371,1.5252228-0.2997251,2.3029709-0.177537
			c0.2005692,0.0896602,0.4137001,0.1624274,0.6373596,0.2197967c-0.7708282-0.6450152-1.4865608-1.5011444-1.7552834-2.4156659
			C42.3967171,4.2455029,43.1521683,5.1167417,43.8107719,5.7049127L43.8107719,5.7049127z M40.7585106,4.1122975
			c0.0899239-2.5161071-1.8997612-2.0852227-2.8501434-3.3212416c-0.0545616,0.8681434,0.1787987,1.8123853,0.6937027,2.4113111
			c0.1949577,0.2259612,0.4165344,0.4121811,0.6611748,0.5620437c-0.310482-0.047637-0.6253166-0.0348358-0.9416733,0.0448287
			c-0.6465874,0.1634524-1.267025,0.7031994-1.6507721,1.3300357c1.2580566-0.3926911,2.4244041,0.8717632,3.5848465-0.9119506
			c-0.7055016-0.0151095-1.6213112,0.0837584-2.3736687,0.327898c0.5986633-0.3550482,1.3892136-0.4777608,2.1333847-0.4634118
			c0.1987877,0.0573692,0.4073029,0.0983696,0.6245308,0.1229486C39.835022,3.71087,39.0537033,3.0020607,38.6840439,2.1802688
			C39.2460861,2.9290574,40.0655708,3.6468396,40.7585106,4.1122975L40.7585106,4.1122975z M22.357523,2.9479966
			c0.1275864-2.3723831,1.9612465-1.799348,2.9592896-2.8806252c-0.0217724,0.8200079-0.3209991,1.6881512-0.8556042,2.2074108
			c-0.2018757,0.1962407-0.4265289,0.3525038-0.6683617,0.4726458c0.2958698-0.0182049,0.5904789,0.0199623,0.8807087,0.1214273
			c0.5948334,0.2085152,1.1320362,0.7682524,1.4399452,1.3897111c-1.1496887-0.4751899-2.3529186,0.6150584-3.2933311-1.1596859
			c0.6647682,0.045855,1.5178013,0.2154441,2.2043457,0.5090048c-0.53335-0.384769-1.2659798-0.5663722-1.9666023-0.6163437
			c-0.192152,0.0371442-0.3911991,0.0578938-0.5974083,0.063035c0.7995205-0.4060428,1.5931396-1.0059917,2.0099106-1.7473565
			C23.8791752,1.9635413,23.048151,2.5693922,22.357523,2.9479966L22.357523,2.9479966z M16.0877628,54.5894241
			c-1.497839-0.3691597-2.8990927-1.3336258-4.6079931-1.1819801c1.2354946-1.2903481,2.9872093-2.2512207,4.6087542-2.3057823
			c0.6127491-0.0205116,1.2032299,0.0550613,1.7693653,0.216465c-0.5033627-0.4039955-0.9237556-0.8968658-1.2419205-1.4850388
			c-0.6529646-1.2057991-0.7006273-2.8939476-0.2868996-4.3469582c1.0723324,2.2701836,4.1873665,2.4390106,3.7751846,5.8268547
			c-0.2497749,0.0645599-0.496727,0.13937-0.7385311,0.2262001c-0.8366661-0.9798393-1.6832981-2.2094574-2.2338276-3.4096184
			c0.265913,1.2549858,1.0287933,2.4827919,1.9445953,3.5195274c-0.4408531,0.1795578-0.8602219,0.3993568-1.2424202,0.6662903
			c-1.1051178-0.0765953-2.202033,0.0076866-3.1754971,0.3319893c0.8843021-0.088871,1.835207-0.0853043,2.7671719-0.0166283
			c-0.0909462,0.0781174-0.1801071,0.1598282-0.265152,0.2446365
			C16.6510658,53.3823395,16.3003731,53.9617996,16.0877628,54.5894241L16.0877628,54.5894241z M15.267231,50.3646507
			c-4.2239857,2.5289116-5.3642054-1.2847023-8.3782988-1.7452812c1.43507-0.9140244,3.2720575-1.40485,4.7834578-1.0882301
			c0.5710154,0.1201401,1.0997486,0.3235435,1.5872374,0.6009712c-0.3745117-0.4872284-0.6509132-1.0377312-0.8123217-1.6540756
			c-0.3302069-1.2626724,0.0076904-2.8340111,0.7198544-4.0836182c0.5138826,2.5253143,3.7810612,3.3294525,1.8223801,7.0008888
			c-0.6916552-1.1940231-1.387928-2.8557816-1.6794424-4.3751335c-0.043046,1.3605156,0.4928703,2.8304176,1.2186012,4.090519
			c0.2876892,0.2874222,0.5540953,0.6063499,0.8015709,0.9544983c-1.6236248-0.9024811-3.5743532-1.5718651-5.3296356-1.4291916
			C11.8120222,48.8921776,13.8162937,49.6176491,15.267231,50.3646507L15.267231,50.3646507z M10.9971294,46.8159256
			c-4.3999705,1.6151505-4.7890978-2.1533699-7.5262833-3.1193848c1.5042357-0.5997124,3.3094597-0.7334175,4.6664076-0.1685677
			c0.5133572,0.2128716,0.9713917,0.4974899,1.3774128,0.8435669c-0.2630835-0.522068-0.423439-1.0866814-0.4656982-1.692009
			c-0.0850697-1.2388268,0.5105247-2.6487885,1.3976593-3.6903763c0.0330524,2.4525719,2.9454451,3.7836304,0.4621267,6.870491
			c-0.4347143-1.240139-0.791048-2.9172707-0.7938805-4.3897438c-0.2820454,1.2647171-0.0412369,2.7346191,0.4137287,4.0421181
			c0.217226,0.319191,0.4103708,0.6647415,0.5799599,1.0341377c-1.357708-1.1320076-3.0638018-2.1036606-4.7309418-2.2822227
			C8.0273428,44.824955,9.7718658,45.8596458,10.9971294,46.8159256L10.9971294,46.8159256z M7.7079172,42.6528778
			c-4.4312429,0.52005-3.9557908-3.0560875-6.2748971-4.556736c1.5247306-0.2218399,3.2259417,0.0550613,4.3569283,0.8786621
			c0.4270544,0.3112411,0.7882409,0.6755257,1.0877042,1.0861588c-0.127562-0.5417938-0.1513844-1.0997467-0.0561104-1.6692123
			c0.1962409-1.1658211,1.0605545-2.3390961,2.1123996-3.106823c-0.5133839,2.2781067,1.8879595,4.1571198-1.0953903,6.462925
			c-0.1275654-1.2439651-0.0858045-2.8757706,0.2385006-4.2393799c-0.5415573,1.1076927-0.6445432,2.5217476-0.5133839,3.8338623
			c0.1303983,0.3435059,0.2328601,0.7062416,0.3076735,1.0858955c-1.006228-1.349762-2.370337-2.6275406-3.8738163-3.1621742
			C5.3993034,40.1513824,6.7859459,41.4960289,7.7079172,42.6528778L7.7079172,42.6528778z M5.3818855,38.1965599
			c-4.2450228-0.1045341-3.3179367-3.410141-5.3027439-5.1352005c1.4673578-0.0046196,3.0333209,0.4841614,3.9885802,1.4120064
			c0.3619733,0.350956,0.6529899,0.7428856,0.8799477,1.1696777c-0.0481615-0.5277061,0.0043545-1.0566978,0.1711106-1.5803108
			c0.3409657-1.0725937,1.3121176-2.062191,2.4069867-2.6449585c-0.7890058,2.0782967,1.2216659,4.1701851-1.8992429,5.9439049
			c0.0466142-1.1893806,0.3053389-2.7215576,0.7933564-3.9634514c-0.6586032,0.9721527-0.9452653,2.2901459-0.997283,3.5438461
			c0.0763612,0.3414841,0.1239982,0.6970596,0.1437244,1.0649071c-0.7672296-1.4063683-1.8815851-2.7937965-3.2267287-3.4995384
			C3.5423241,35.5295639,4.668694,36.982811,5.3818855,38.1965599L5.3818855,38.1965599z M4.013658,33.5683136
			C0.0673634,32.6940079,1.5380263,29.776474,0,27.8019218c1.3710082,0.2643661,2.7443509,1.007513,3.4664876,2.0480785
			c0.2738607,0.3940029,0.4741709,0.8130836,0.6081593,1.2539616c0.0512309-0.5018406,0.1969752-0.9865284,0.448801-1.4450607
			c0.5146427-0.9393883,1.6026092-1.6858692,2.7315497-2.0298996c-1.1171584,1.7962799,0.3781061,4.1181927-2.8604007,5.2038498
			c0.2607708-1.1022892,0.7826014-2.4863853,1.465548-3.5564117c-0.7930903,0.7864323-1.3021235,1.9658432-1.579814,3.1270752
			c0.0089712,0.3335381-0.0115118,0.6739769-0.0607004,1.0211029c-0.4593198-1.4537716-1.2454886-2.9531574-2.3731701-3.8584461
			C2.7827845,30.7404404,3.5689533,32.3035965,4.013658,33.5683136L4.013658,33.5683136z M3.5095341,28.9723625
			c-3.5192661-1.5495701-1.6038945-3.9983139-2.6713476-6.1265831c1.2293562,0.5021038,2.3723831,1.450964,2.8529768,2.5560856
			c0.1816032,0.4180565,0.2909901,0.8468933,0.3335118,1.2828941c0.1419406-0.4585323,0.3676133-0.8832779,0.6873274-1.2647152
			c0.6550093-0.7808189,1.8095784-1.2747116,2.9264784-1.3856201c-1.3764119,1.4683552-0.4129419,3.91222-3.636601,4.3228798
			c0.447804-0.9801273,1.1927361-2.1741238,2.0288768-3.0450993c-0.88585,0.5866222-1.5810728,1.5913296-2.0557647,2.6234474
			c-0.0530407,0.3122654-0.135776,0.6265755-0.246186,0.9414101c-0.1578109-1.4417305-0.6127501-2.987442-1.4962914-4.0410976
			C2.8875506,26.1055603,3.3299508,27.709692,3.5095341,28.9723625L3.5095341,28.9723625z M3.7631438,24.5603466
			c-3.0948086-1.94664-0.952951-3.9839649-1.6612637-6.1350288c1.0869172,0.6432323,2.0303984,1.6945515,2.3283138,2.8012218
			c0.1129804,0.4188442,0.1565251,0.8374252,0.1360383,1.2537003c0.1970015-0.4121819,0.4685273-0.7805557,0.8225522-1.0946293
			c0.7247076-0.6432323,1.879539-0.9480724,2.9454489-0.8971062c-1.4985781,1.1906929-0.9327044,3.6240387-4.0223713,3.5620518
			c0.5581913-0.86022,1.4243112-1.8797741,2.3321695-2.5832081c-0.9150457,0.4285507-1.7081361,1.2775173-2.2986155,2.1825695
			c-0.0935202,0.2866364-0.215446,0.5704899-0.3624754,0.8509884c0.0517292-1.3781967-0.1614048-2.8949757-0.8458989-4.0098286
			C3.5768976,21.7775669,3.7695444,23.3478832,3.7631438,24.5603466L3.7631438,24.5603466z M4.6920137,20.4155025
			c-2.6434367-2.2563591-0.3494081-3.87817-0.7198546-5.9984913c0.9340117,0.7541656,1.6768978,1.8726139,1.8052542,2.9546776
			c0.0483942,0.4096107,0.0315008,0.808466-0.0448341,1.1975899c0.2418356-0.3601627,0.5481935-0.669384,0.9239912-0.916069
			c0.7700624-0.5054092,1.8977175-0.6332378,2.8939772-0.4390697c-1.5739117,0.9132347-1.3753891,3.2800064-4.2731957,2.7963428
			c0.6437559-0.7316055,1.5982547-1.5713406,2.5486345-2.108778c-0.9196362,0.2779255-1.782166,0.9675617-2.461781,1.7373352
			c-0.1275654,0.256443-0.280261,0.5064583-0.4580345,0.7505989c0.2379756-1.2893238,0.2461858-2.7451382-0.2446384-3.8876667
			C4.8987474,17.7720661,4.8644099,19.2758064,4.6920137,20.4155025L4.6920137,20.4155025z M6.203681,16.6159763
			c-2.1818123-2.4774179,0.1941643-3.6934729,0.1311593-5.7364359c0.7772202,0.8343563,1.3249149,1.9858561,1.2995486,3.021018
			c-0.0092335,0.3909321-0.0794301,0.7641602-0.2034016,1.1194706c0.2764049-0.3063612,0.6058512-0.5553808,0.9921417-0.7369833
			c0.7920704-0.3719683,1.8697805-0.3397026,2.7802095-0.0228224c-1.6025829,0.6465893-1.7342672,2.8985691-4.3935742,2.0539818
			c0.702673-0.6012354,1.7137799-1.2624092,2.6795583-1.6392298c-0.9019823,0.1365366-1.8057489,0.669385-2.548399,1.3018608
			c-0.1544533,0.2238894-0.3325152,0.4383078-0.5315361,0.6437559c0.3975701-1.1799345,0.6009717-2.5481377,0.293036-3.6880941
			C6.754179,14.158287,6.5200377,15.5677242,6.203681,16.6159763L6.203681,16.6159763z M8.2025709,13.2186356
			c-1.7232494-2.6165237,0.6704082-3.4460011,0.8807087-5.3749609c0.6199379,0.8873711,0.9824095,2.0419407,0.8225784,3.0110245
			c-0.0602016,0.3663273-0.1752291,0.708312-0.3386793,1.0254555c0.2994633-0.2510386,0.6422348-0.4419031,1.0303392-0.5612583
			c0.7930899-0.245162,1.8013897-0.0727654,2.6157579,0.3450556c-1.5921164,0.3962841-2.013505,2.4958544-4.4012861,1.3512812
			c0.7403421-0.472621,1.7775755-0.9608727,2.7356462-1.1873322c-0.8661013,0.009469-1.7860003,0.3904085-2.5683613,0.88661
			c-0.1744423,0.1903391-0.3694019,0.3688726-0.5840569,0.5353928c0.5294943-1.056962,0.9011993-2.3155384,0.7626123-3.4278221
			C9.0448542,10.9812412,8.6378098,12.2746553,8.2025709,13.2186356L8.2025709,13.2186356z M10.5918741,10.2575827
			C9.3117857,7.5765033,11.6683025,7.1071892,12.11584,5.3224521c0.4675045,0.9140215,0.6583405,2.0455079,0.3827009,2.9359727
			c-0.1045122,0.3358221-0.2566833,0.64221-0.4516125,0.9191399c0.3143101-0.1972637,0.6606493-0.332016,1.0405655-0.394002
			c0.7772236-0.1270676,1.7022381,0.1654968,2.4125967,0.663744c-1.5464993,0.1659937-2.2148342,2.0834398-4.3095531,0.6983185
			c0.7567368-0.3481493,1.7947311-0.6719284,2.7241259-0.7613287c-0.814889-0.1024866-1.728653,0.1357517-2.5276489,0.5007944
			c-0.1885252,0.1560268-0.3949995,0.2987022-0.6186523,0.427289c0.6348104-0.9245138,1.1466208-2.0585699,1.1607075-3.1214323
			C11.6731777,8.2648277,11.1231737,9.4280787,10.5918741,10.2575827L10.5918741,10.2575827z M13.2813997,7.7514434
			c-0.8563652-2.6810794,1.4151087-2.8178525,2.0649986-4.4360957c0.3214979,0.9181151,0.355052,2.0050583-0.0189657,2.8053136
			c-0.1408911,0.3020339-0.3232813,0.5694675-0.5410318,0.8043985c0.3202124-0.1447458,0.6624594-0.2264581,1.0272398-0.2359543
			c0.7454567-0.0192013,1.5764809,0.3742762,2.1790009,0.9332509c-1.4727345-0.0430465-2.3467798,1.6707335-4.1351109,0.101439
			c0.7554512-0.2295289,1.7709122-0.4006658,2.6544533-0.3642821c-0.7516203-0.2013555-1.6394901-0.0947757-2.436204,0.1447458
			c-0.1969757,0.1224518-0.4096107,0.2290044-0.6352835,0.3217354c0.7136898-0.7864313,1.3407888-1.7852354,1.4909134-2.780972
			C14.5527792,6.020246,13.8864908,7.0410848,13.2813997,7.7514434L13.2813997,7.7514434z M16.18894,5.7049127
			c-0.4587955-2.6237106,1.689436-2.4607844,2.5063744-3.8938048c0.1829147,0.9019825,0.0748138,1.9253924-0.3781052,2.6275403
			c-0.1711369,0.2648892-0.3757973,0.492372-0.6109676,0.684494c0.3186665-0.0942769,0.6501579-0.1270671,0.993166-0.0886374
			c0.7019119,0.0771217,1.4299507,0.5533347,1.9235821,1.1545691c-1.3758869-0.2300534-2.4151669,1.2647166-3.8899498-0.4362621
			c0.737772-0.1180973,1.7117386-0.1478167,2.5358353,0c-0.679615-0.2861371-1.5252266-0.2997251-2.303236-0.177537
			c-0.2003078,0.0896602-0.4134407,0.1624274-0.6373291,0.2197967c0.7707958-0.6450152,1.4865322-1.5011444,1.7552776-2.4156659
			C17.60326,4.2455029,16.8480663,5.1167417,16.18894,5.7049127L16.18894,5.7049127z M19.2407017,4.1122975
			c-0.0888996-2.5161071,1.9005241-2.0852227,2.8509312-3.3212416c0.0547981,0.8681434-0.1788235,1.8123853-0.6937275,2.4113111
			c-0.1949291,0.2259612-0.4165363,0.4121811-0.6611748,0.5620437c0.3107433-0.047637,0.6255779-0.0348358,0.9416981,0.0448287
			c0.6468296,0.1634524,1.2672596,0.7031994,1.6507435,1.3300357c-1.2580528-0.3926911-2.4241371,0.8717632-3.5845833-0.9119506
			c0.7052441-0.0151095,1.6210499,0.0837584,2.3734074,0.327898c-0.5986652-0.3550482-1.3892097-0.4777608-2.1331234-0.4634118
			c-0.1990471,0.0573692-0.4073029,0.0983696-0.6247902,0.1229486C20.1652164,3.71087,20.94627,3.0020607,21.3156948,2.1802688
			C20.7541485,2.9290574,19.9344025,3.6468396,19.2407017,4.1122975L19.2407017,4.1122975z"/>
		<g>
			<path class="st0" d="M28.413147,53.8196259c-0.9355373-0.2925644-2.2022991-0.4893036-4.068512-0.4695778
				c-2.7461357,0.0292206-6.334837,1.1707001-6.1544933,4.9156647c0.5420551,0.1918602,1.111784,0.2956352,1.5582771,0.2956352
				c2.3158016,0,4.8262691-1.5616341,6.4975262-3.0633049C27.0825844,54.7461853,27.5685558,54.2978821,28.413147,53.8196259
				L28.413147,53.8196259z M18.619482,59.2670898l-1.7895927-1.7896156
				c-0.2380028-0.2377129-0.3927174-0.5095291-0.4173241-0.8107758c-0.3130245-3.8973732,3.349966-5.0767822,6.1427155-5.1059799
				c4.3374901-0.0458527,5.6367798,0.8358803,6.6509571,1.8497925l1.7896156,1.7898788
				c-1.3968983,0.6637192-1.893364,1.1289406-2.9608173,2.0872688c-1.670496,1.5011444-4.1812267,3.0635414-6.4974995,3.063015
				C20.6596355,60.3512001,19.3011665,59.9490128,18.619482,59.2670898L18.619482,59.2670898z"/>
			<path class="st0" d="M31.5870934,53.8196259c0.935276-0.2925644,2.2028198-0.4893036,4.0682449-0.4695778
				c2.7461357,0.0292206,6.3348389,1.1707001,6.1552544,4.9156647c-0.5428162,0.1918602-1.112278,0.2956352-1.5590363,0.2956352
				c-2.3147545,0-4.8262711-1.5616341-6.4967422-3.0633049C32.9178886,54.7461853,32.4314423,54.2978821,31.5870934,53.8196259
				L31.5870934,53.8196259z M41.380497,59.2670898l1.7898521-1.7896156c0.2377396-0.2377129,0.3934746-0.5095291,0.417057-0.8107758
				c0.3130302-3.8973732-3.3499374-5.0767822-6.1424522-5.1059799c-4.3367271-0.0458527-5.6370411,0.8358803-6.6512165,1.8497925
				l-1.7885933,1.7898788c1.3958759,0.6637192,1.892601,1.1289406,2.9600601,2.0872688
				c1.6709919,1.5011444,4.1817188,3.0635414,6.4972591,3.063015C39.3406029,60.3512001,40.69907,59.9490128,41.380497,59.2670898
				L41.380497,59.2670898z"/>
		</g>
		<path class="st0" d="M21.082571,14.6537018l0.0115166-0.1716356c-0.014843-2.1618195-0.9114475-4.069768-1.8672104-5.9336729
			c0.5379372,0.3576193,4.4576054,1.2388525,2.3741665,3.5553875c0.2600365,1.4970789,1.3187809,1.8936262,2.2351112,1.8062735
			c0.5712528-0.1411533,1.2588158-0.5689688,1.111763-1.4714499c-1.6797085-0.9265614-0.1285915-2.1866617,0.1132393-2.5040665
			c0.3053398,0.2559175,2.0972633,1.1402197,0.665266,2.4169769c0.0566082,0.9245157,0.8433018,1.1837654,1.4368496,1.1883554
			c0.968586-0.1073141,2.2781334-0.7188053,2.200779-2.2506933c-2.5432606-1.8003712,0.1895466-3.5528431,0.6360664-4.0206094
			c0.4462605,0.4677663,3.1790657,2.2202382,0.6360703,4.0206094c-0.0760727,1.531888,1.2332115,2.1433792,2.2007751,2.2506933
			c0.5932884-0.00459,1.379982-0.2638397,1.4365883-1.1883554c-1.4319992-1.2767572,0.3599243-2.1610594,0.6655273-2.4169769
			c0.2415695,0.3174047,1.7939682,1.5775051,0.1129799,2.5040665c-0.1467896,0.9024811,0.5405083,1.3302965,1.1117859,1.4714499
			c0.9163094,0.0873528,1.9750748-0.3091946,2.2350845-1.8062735c-2.0829391-2.316535,1.8364944-3.1977682,2.3741951-3.5553875
			c-0.9542389,1.863905-1.8523903,3.7718534-1.8672333,5.9336729l0.0117722,0.1716356
			c-0.0338058-0.0125408-0.0696716-0.02075-0.1052933-0.0243168c-1.4657822-0.1588345-2.9331436-0.3030567-4.4022827-0.4065418
			c-2.9382839-0.2082806-5.8816814-0.2082806-8.8202,0c-1.4691429,0.1034851-2.9362373,0.2477074-4.4009933,0.4065418
			C21.1519814,14.6329517,21.1163845,14.641161,21.082571,14.6537018L21.082571,14.6537018z M34.3965263,18.6630306
			c1.4642601,0.1045341,2.9303322,0.2487583,4.3948593,0.4085884c0.0092049,0.0010223,0.0184402,0.0015469,0.0276489,0.0010223
			c0.0361214-0.0020466,0.0661011-0.0145836,0.0894241-0.0363579c0.0227928-0.0197258,0.0379028-0.0489216,0.0417328-0.0832596
			c0.0007858-0.0089703,0.0007858-0.0176792,0.0007858-0.0261269l-0.0007858-0.0082092
			c0-0.0235577-0.0012589-0.048399-0.00383-0.0719814c-0.0059013-0.0504704-0.0325279-0.0993919-0.0691719-0.1372967
			c-0.0384293-0.0379314-0.085804-0.0635338-0.1357727-0.0696716c-1.4552956-0.1598568-2.9129219-0.3035812-4.3705215-0.4075909
			c-2.9457054-0.2103004-5.7950878-0.2103004-8.7418175,0c-1.4575996,0.1040096-2.9149628,0.2477341-4.3705177,0.4075909
			c-0.0499706,0.0061378-0.0973454,0.0317402-0.134491,0.0696716c-0.0376682,0.0379047-0.0645561,0.0868263-0.0694351,0.1372967
			c-0.0033302,0.0235825-0.004591,0.0484238-0.004591,0.0719814l-0.0007858,0.0082092c0,0.0084476,0,0.0171566,0.0007858,0.0261269
			c0.0035686,0.034338,0.01894,0.0635338,0.0415001,0.0832596c0.0235558,0.0217743,0.0535431,0.0343113,0.0896606,0.0363579
			c0.0089436,0.0005245,0.0184441,0,0.0273857-0.0010223c1.46455-0.1598301,2.9306011-0.3040543,4.394886-0.4085884
			C28.5412331,18.4547768,31.4587402,18.4547768,34.3965263,18.6630306L34.3965263,18.6630306z M34.3775597,14.9342251
			c1.4581223,0.1037474,2.9170074,0.2477074,4.373085,0.4065399c0.0486603,0.005641,0.0950394-0.0089703,0.1298752-0.0363827
			c0.0345726-0.0276747,0.058918-0.0681496,0.0658417-0.1165495c0.0012856-0.0166559,0.0025711-0.0297194,0.00383-0.0397129
			c0.0007858-0.0123034,0.0020714-0.0253668,0.0030975-0.038928c0.0012589-0.0489492-0.0174179-0.0963249-0.048687-0.1332054
			c-0.0312386-0.0366459-0.0747833-0.0625105-0.1234741-0.0681505c-1.4627419-0.1588345-2.9272652-0.3020334-4.3917885-0.4050198
			c-2.9323826-0.2077303-5.8457985-0.2077303-8.7784405,0c-1.4647884,0.1029863-2.9293118,0.2461853-4.3920536,0.4050198
			c-0.0486603,0.00564-0.0922298,0.0315046-0.1234722,0.0681505c-0.0312424,0.0368805-0.0499458,0.0842562-0.0474014,0.1332054
			c0,0.0135612,0.0012856,0.0266247,0.0020714,0.038928c0.0012608,0.0099936,0.0025444,0.023057,0.004591,0.0397129
			c0.0059032,0.0483999,0.0304813,0.0888748,0.0648193,0.1165495c0.0348358,0.0274124,0.081213,0.0420237,0.1298733,0.0363827
			c1.4560795-0.1588326,2.9149628-0.3027925,4.3730869-0.4065399
			C28.5724754,14.7249212,31.4287834,14.7249212,34.3775597,14.9342251L34.3775597,14.9342251z M34.3775597,18.0031433
			c1.4581223,0.1040077,2.9170074,0.2477074,4.373085,0.4080887c0.0130692,0.0020466,0.0258675,0.0035667,0.0371475,0.0071602
			c-0.0832596-0.4762135-0.1931458-0.9503803-0.1931458-1.4281406c0-0.4793091,0.1121941-0.9557838,0.1967392-1.4335442
			c-0.0161591,0.0015469-0.0325546,0.0015469-0.0499687-0.0010233c-1.4552956-0.1588078-2.9116364-0.3022709-4.3697586-0.4060173
			c-2.934927-0.2085428-5.8081551-0.2085428-8.7433414,0c-1.4581242,0.1037464-2.9142017,0.2472095-4.3697567,0.4060173
			c-0.0161324,0.0025702-0.0338116,0.0025702-0.0499706,0.0010233c0.0845451,0.4777603,0.1967392,0.9542351,0.1967392,1.4335442
			c0,0.4777603-0.109623,0.9519272-0.1928825,1.4281406c0.0110168-0.0035934,0.0240803-0.0051136,0.0368805-0.0071602
			c1.4560795-0.1603813,2.9149628-0.304081,4.3730869-0.4080887C28.5724754,17.7923164,31.4274979,17.7923164,34.3775597,18.0031433
			L34.3775597,18.0031433z"/>
		<g>
			<path class="st0" d="M31.3360538,56.0170403c-2.9895134,8.2394829-10.4922447,7.5424461-12.531353,5.747715
				c-1.0351868-0.9106903-4.2862587-3.68964-5.461813-4.4996567c-2.5793791-1.7767868-5.2632914-2.1474686-6.6145697-1.1537819
				c-1.4286695,1.0508232-1.7089305,3.1593666-1.1473813,4.6702423c2.2868109,0.9442444,4.3292756-0.1247597,4.433023-1.3395042
				c0.3632326,0.6058273,0.5197582,1.2933884,0.1918592,2.1753845c0.6504192,0.075573,1.1643019-0.0852814,1.5977306-0.3855324
				c-0.1127186,1.3272285-2.5429955,2.4817963-5.0767832,1.0216255c-0.163949-0.0945396-0.3155913-0.2128944-0.4528928-0.350193
				l-1.7832155-1.7837143l-0.0064006-0.0061646c-1.3213251-1.321064-1.3879278-4.4368553,0.4541783-5.7914963
				c1.352335-0.9936905,4.0354571-0.6232681,6.6148353,1.1538086c1.1758471,0.8094902,4.4266262,3.5886765,5.4615526,4.4991035
				c2.0396309,1.7957573,9.5418377,2.4920273,12.5321388-5.7471886L31.3360538,56.0170403L31.3360538,56.0170403z"/>
			<path class="st0" d="M28.6639233,56.0170403c2.9897728,8.2394829,10.4930058,7.5424461,12.5321369,5.747715
				c1.0344009-0.9106903,4.2854729-3.68964,5.4612885-4.4996567c2.5799026-1.7767868,5.2630272-2.1474686,6.6143112-1.1537819
				c1.4286652,1.0508232,1.7091904,3.1593666,1.1474075,4.6702423c-2.2868423,0.9442444-4.3290443-0.1247597-4.4330254-1.3395042
				c-0.3624992,0.6058273-0.5195236,1.2933884-0.1913643,2.1753845c-0.6506805,0.075573-1.1648254-0.0852814-1.5982475-0.3855324
				c0.1137352,1.3272285,2.5435143,2.4817963,5.0765152,1.0216255c0.1642113-0.0945396,0.3158569-0.2128944,0.4531822-0.350193
				l1.7834511-1.7837143l0.0061378-0.0061646c1.3213234-1.321064,1.387928-4.4368553-0.4541779-5.7914963
				c-1.3520699-0.9936905-4.0351944-0.6232681-6.6148376,1.1538086c-1.1753159,0.8094902-4.4263611,3.5886765-5.4615517,4.4991035
				c-2.0393677,1.7957573-9.5418358,2.4920273-12.5313511-5.7471886L28.6639233,56.0170403L28.6639233,56.0170403z"/>
		</g>
	</g>
	<g>
		<path class="st1" d="M26.5202465,23.8586235c0,0.2021236-0.0708981,0.3031368-0.2122955,0.3031368
			c-0.5660381,0.0518513-0.9953651,0.190855-1.2879314,0.4169617c-0.2927666,0.226305-0.6126537,0.7401905-0.9599648,1.5415592
			l-4.8432541,11.0853691c-0.0450706,0.1028099-0.1350651,0.1543617-0.2701302,0.1543617
			c-0.1287327,0-0.2122459-0.0546951-0.2508354-0.1639824l-4.322237-11.0757484
			c-0.2380219-0.6269646-0.4358091-1.0422821-0.5933599-1.2459507c-0.1576509-0.2034721-0.3682508-0.3554382-0.6318998-0.4557018
			c-0.2638483-0.1000652-0.6915302-0.1857224-1.2831945-0.2568684c-0.0450716,0-0.0884981-0.026825-0.130229-0.080471
			c-0.0419312-0.0536976-0.0627213-0.1153221-0.0627213-0.184824c0-0.1768456,0.0450716-0.2653446,0.1353636-0.2653446
			c0.4320698,0,0.9094601,0.0192947,1.4319715,0.0578861c0.4965353,0.0385895,0.9415674,0.0578842,1.3349972,0.0578842
			c0.3934784,0,0.8803921-0.0192947,1.4608879-0.0578842c0.6049767-0.0385914,1.1229515-0.0578861,1.5539227-0.0578861
			c0.102808,0,0.1543617,0.0884991,0.1543617,0.2653446c0,0.1769466-0.032259,0.265295-0.0964756,0.265295
			c-0.5660877,0.0259247-0.9745731,0.1001148-1.2256088,0.2226658c-0.2510853,0.1225491-0.3765278,0.3128071-0.3765278,0.5708733
			c0,0.1612892,0.0773296,0.4418411,0.2321396,0.8418007l3.3317089,8.7767982l3.4573517-8.516489
			c0.1157703-0.3777733,0.1737041-0.6578751,0.1737041-0.8402557c0-0.6384315-0.5596046-0.9902802-1.6787186-1.0553932
			c-0.077179,0-0.1158199-0.0883484-0.1158199-0.265295c0-0.1768456,0.0578861-0.2653446,0.1736565-0.2653446
			c0.3022385,0,0.6978111,0.0192947,1.1867199,0.0578861c0.5402603,0.0385895,0.987236,0.0578842,1.3410282,0.0578842
			c0.2894268,0,0.6592236-0.0192947,1.1094894-0.0578842c0.4630814-0.0385914,0.8456917-0.0578861,1.1481304-0.0578861
			C26.481657,23.6311207,26.5202465,23.706955,26.5202465,23.8586235z"/>
		<path class="st1" d="M33.9199181,36.7811623c0,0.179985-0.0515556,0.2701302-0.1543617,0.2701302
			c-0.4310226,0-0.9423141-0.0192947-1.5339813-0.0578842c-0.5660858-0.0385933-1.0453205-0.057888-1.4375534-0.057888
			c-0.3924313,0-0.8716164,0.0192947-1.4375553,0.057888c-0.5981464,0.0385895-1.1159706,0.0578842-1.5532742,0.0578842
			c-0.1029568,0-0.1543617-0.0901451-0.1543617-0.2701302c0-0.1606941,0.051405-0.2475471,0.1543617-0.2605095
			c0.778183-0.0901413,1.3072758-0.2348289,1.5870781-0.4344635c0.2798023-0.1995811,0.4197044-0.5985947,0.4197044-1.1972389
			V25.803133c0-0.4504662-0.0564384-0.7674637-0.168869-0.9509411c-0.1126289-0.1834774-0.3103657-0.3283138-0.593359-0.4346104
			c-0.2830944-0.1060982-0.6979618-0.1914558-1.2445545-0.2558212c-0.1029568,0-0.1543617-0.0883484-0.1543617-0.265295
			c0-0.1768456,0.051405-0.2653446,0.1543617-0.2653446c0.4373035,0,0.9551277,0.0192947,1.5532742,0.0578861
			c0.5659389,0.0385895,1.0451241,0.0578842,1.4375553,0.0578842c0.3922329,0,0.8714676-0.0192947,1.4375534-0.0578842
			c0.5916672-0.0385914,1.1029587-0.0578861,1.5339813-0.0578861c0.1028061,0,0.1543617,0.0884991,0.1543617,0.2653446
			c0,0.1769466-0.0515556,0.265295-0.1543617,0.265295c-0.5403099,0.0643654-0.9519386,0.1497231-1.2349319,0.2558212
			c-0.2830925,0.1062965-0.4792328,0.2494888-0.5885239,0.4297752c-0.1094379,0.1802864-0.164032,0.4988289-0.164032,0.9557762
			v9.0858173c0,0.4441376,0.054594,0.7579918,0.164032,0.9414177c0.1092911,0.1834793,0.303936,0.3283653,0.5837364,0.4344635
			c0.2797546,0.1061478,0.689785,0.1914558,1.2300987,0.2558212C33.8652229,36.5336151,33.9199181,36.6204681,33.9199181,36.7811623
			z"/>
		<path class="st1" d="M46.5390205,27.5674572c0,1.1321259-0.4351616,2.0824184-1.305481,2.8509293
			c-0.8702202,0.7686596-1.9476509,1.152916-3.2321434,1.152916c-0.7709541,0-1.5287437-0.0321083-2.2737732-0.0964756v3.4153709
			c0,0.4502678,0.0562401,0.7654686,0.168869,0.9454575c0.1124306,0.1801376,0.3087692,0.3232269,0.5885239,0.4293251
			c0.2797508,0.1061478,0.689785,0.1914558,1.2300949,0.2556725c0.1028061,0.0129623,0.1543617,0.0998154,0.1543617,0.2605095
			c0,0.179985-0.0515556,0.2701302-0.1543617,0.2701302c-0.4309731,0-0.9423141-0.0192947-1.5339813-0.0578842
			c-0.5660858-0.0385933-1.0453224-0.057888-1.4375534-0.057888c-0.3923836,0-0.8747597,0.0192947-1.4471779,0.057888
			c-0.5981445,0.0385895-1.1127777,0.0578842-1.5436516,0.0578842c-0.1029587,0-0.1543617-0.0901451-0.1543617-0.2701302
			c0-0.1606941,0.051403-0.2475471,0.1543617-0.2605095c0.778183-0.0901413,1.3072739-0.2348289,1.5870781-0.4344635
			c0.2798042-0.1995811,0.4197044-0.5985947,0.4197044-1.1972389V25.803133c0-0.4504662-0.0564384-0.7674637-0.168869-0.9509411
			c-0.1126289-0.1834774-0.3103638-0.3283138-0.5933609-0.4346104c-0.2830925-0.1060982-0.6979103-0.1914558-1.2445526-0.2558212
			c-0.1029587,0-0.1543617-0.0883484-0.1543617-0.265295c0-0.1768456,0.051403-0.2653446,0.1543617-0.2653446
			c0.4308739,0,0.945507,0.0192947,1.5436516,0.0578861c0.5721207,0.0385895,1.0541458,0.0578842,1.4461327,0.0578842
			c0.3919334,0,0.8705673-0.0192947,1.4358597-0.0578842c0.5910645-0.0385914,1.1018105-0.0578861,1.532383-0.0578861
			c1.5803986,0,2.7803802,0.334547,3.5995445,1.0033913C46.1294861,25.3035069,46.5390205,26.2811222,46.5390205,27.5674572z
			 M44.4068947,27.5673084c0-1.032011-0.252533-1.8383636-0.7573929-2.4189091
			c-0.5050125-0.5804977-1.1755028-0.8708687-2.01157-0.8708687c-0.5017204,0-0.889267,0.0387383-1.1625404,0.1160679
			c-0.273468,0.0774803-0.4664688,0.2032223-0.5788994,0.3773251c-0.1126289,0.174305-0.168869,0.5193214-0.168869,1.0353508
			v4.441349c0,0.277359,0.086853,0.4629307,0.2605591,0.5563641c0.1736031,0.0934849,0.5499306,0.1402016,1.1287842,0.1402016
			c1.0483131,0,1.8587036-0.2997971,2.4312744-0.8997879C44.1206093,29.4444103,44.4068947,28.618763,44.4068947,27.5673084z"/>
	</g>
	<polygon class="st0" points="24.4348831,41.210083 24.9355621,42.2245636 26.0551109,42.3872452 25.244997,43.1769104 
		25.4362392,44.291935 24.4348831,43.7654915 23.4335289,44.291935 23.6247711,43.1769104 22.8146572,42.3872452 
		23.934206,42.2245636 	"/>
	<polygon class="st0" points="29.6667099,41.210083 30.167387,42.2245636 31.2869358,42.3872452 30.4768238,43.1769104 
		30.6680641,44.291935 29.6667099,43.7654915 28.6653538,44.291935 28.856596,43.1769104 28.0464821,42.3872452 
		29.1660309,42.2245636 	"/>
	<polygon class="st0" points="34.8349953,41.210083 35.3356743,42.2245636 36.4552231,42.3872452 35.6451111,43.1769104 
		35.8363533,44.291935 34.8349953,43.7654915 33.8336411,44.291935 34.0248833,43.1769104 33.2147675,42.3872452 
		34.3343201,42.2245636 	"/>
</g>
</svg>
