<?xml version="1.0" encoding="utf-8"?>
<!-- Generator: Adobe Illustrator 19.1.0, SVG Export Plug-In . SVG Version: 6.00 Build 0)  -->
<svg version="1.1" id="Слой_1" xmlns="http://www.w3.org/2000/svg" xmlns:xlink="http://www.w3.org/1999/xlink" x="0px" y="0px"
	 viewBox="0 0 52 52" style="enable-background:new 0 0 52 52;" xml:space="preserve">
<style type="text/css">
	.st0{fill:#4C75A3;}
</style>
<path id="path9_3_" class="st0" d="M25.7,35h1.9c0,0,0.6-0.1,0.9-0.4c0.3-0.3,0.3-0.8,0.3-0.8s0-2.6,1.1-2.9
	c1.2-0.4,2.7,2.5,4.3,3.6c1.2,0.8,2.1,0.6,2.1,0.6l4.3-0.1c0,0,2.2-0.1,1.2-1.9c-0.1-0.1-0.6-1.3-3.2-3.7c-2.7-2.5-2.3-2.1,0.9-6.4
	c2-2.6,2.7-4.2,2.5-4.9c-0.2-0.7-1.7-0.5-1.7-0.5l-4.8,0c0,0-0.4,0-0.6,0.1c-0.3,0.2-0.4,0.5-0.4,0.5s-0.8,2-1.8,3.7
	c-2.1,3.6-3,3.8-3.3,3.6c-0.8-0.5-0.6-2.1-0.6-3.2c0-3.5,0.5-5-1-5.4c-0.5-0.1-0.9-0.2-2.2-0.2c-1.7,0-3.2,0-4,0.4
	c-0.5,0.3-1,0.9-0.7,0.9c0.3,0,1,0.2,1.4,0.7c0.5,0.7,0.5,2.2,0.5,2.2s0.3,4.1-0.7,4.6c-0.6,0.4-1.5-0.4-3.4-3.7
	c-1-1.7-1.7-3.5-1.7-3.5s-0.1-0.3-0.4-0.5c-0.3-0.2-0.7-0.3-0.7-0.3l-4.6,0c0,0-0.7,0-0.9,0.3c-0.2,0.3,0,0.8,0,0.8
	s3.6,8.3,7.6,12.5C21.5,35.3,25.7,35,25.7,35L25.7,35L25.7,35z"/>
<path class="st0" d="M26,52C11.7,52,0,40.3,0,26C0,11.7,11.7,0,26,0s26,11.7,26,26C52,40.3,40.3,52,26,52z M26,1C12.2,1,1,12.2,1,26
	s11.2,25,25,25s25-11.2,25-25S39.8,1,26,1z"/>
</svg>
