<?xml version="1.0" encoding="utf-8"?>
<!-- Generator: Adobe Illustrator 17.0.0, SVG Export Plug-In . SVG Version: 6.00 Build 0)  -->
<!DOCTYPE svg PUBLIC "-//W3C//DTD SVG 1.1//EN" "http://www.w3.org/Graphics/SVG/1.1/DTD/svg11.dtd">
<svg version="1.1" id="Layer_1" xmlns="http://www.w3.org/2000/svg" xmlns:xlink="http://www.w3.org/1999/xlink" x="0px" y="0px"
	 width="44px" height="44px" viewBox="0 0 44 44" enable-background="new 0 0 44 44" xml:space="preserve">
<g>
	<path d="M33.216,16.394c-1.443-1.799-3.469-2.839-5.38-2.839c-2.529,0-3.597,1.202-5.352,1.202c-1.808,0-3.183-1.2-5.371-1.2
		c-2.149,0-4.433,1.305-5.881,3.536c-2.038,3.137-1.693,9.038,1.612,14.068c1.182,1.798,2.76,3.821,4.824,3.84
		c1.834,0.017,2.353-1.17,4.842-1.184c2.489-0.014,2.96,1.197,4.794,1.18c2.064-0.02,3.729-2.259,4.91-4.058
		c0.847-1.288,1.162-1.939,1.82-3.395C29.256,25.737,28.488,18.986,33.216,16.394z"/>
	<path d="M25.918,11.546c0.919-1.179,1.617-2.844,1.363-4.546C25.78,7.104,24.025,8.058,23,9.303c-0.93,1.13-1.699,2.805-1.4,4.434
		C23.239,13.788,24.934,12.809,25.918,11.546z"/>
</g>
</svg>
