<?xml version="1.0" encoding="utf-8"?>
<!-- Generator: Adobe Illustrator 19.1.0, SVG Export Plug-In . SVG Version: 6.00 Build 0)  -->
<svg version="1.1" id="Слой_1" xmlns="http://www.w3.org/2000/svg" xmlns:xlink="http://www.w3.org/1999/xlink" x="0px" y="0px"
	 viewBox="0 0 12 11" style="enable-background:new 0 0 12 11;" xml:space="preserve">
<style type="text/css">
	.st0{fill:#F65050;}
</style>
<path class="st0" d="M6,10.8c-0.1,0-0.1,0-0.2-0.1L1,5.9C0.8,5.7,0.6,5.5,0.5,5.3c-0.8-1.3-0.6-3,0.5-4c0.6-0.6,1.5-1,2.4-1
	c0.6,0,1.2,0.2,1.7,0.5C5.3,0.8,5.5,1,5.7,1.2C5.8,1.3,5.9,1.4,6,1.5c0.1-0.1,0.2-0.2,0.3-0.3C6.5,1,6.7,0.9,6.9,0.7
	C7.4,0.4,8,0.2,8.6,0.2c0.9,0,1.7,0.4,2.4,1c1.1,1.1,1.3,2.7,0.5,4c-0.1,0.2-0.3,0.5-0.5,0.6l-4.8,4.8C6.1,10.7,6.1,10.8,6,10.8z
	 M3.4,0.8c-0.7,0-1.4,0.3-2,0.8C0.5,2.5,0.3,3.9,1,5c0.1,0.2,0.3,0.4,0.4,0.5L6,10.1l4.6-4.6C10.8,5.3,10.9,5.2,11,5
	c0.6-1.1,0.5-2.5-0.4-3.3c-0.5-0.5-1.2-0.8-2-0.8c-0.5,0-1,0.1-1.4,0.4C7,1.3,6.8,1.5,6.7,1.6C6.5,1.8,6.4,2,6.3,2.2
	C6.2,2.3,6.1,2.3,6,2.3l0,0c-0.1,0-0.2-0.1-0.2-0.1C5.6,2,5.5,1.8,5.3,1.6C5.2,1.5,5,1.3,4.8,1.2C4.4,1,3.9,0.8,3.4,0.8z"/>
</svg>
