<?xml version="1.0" encoding="utf-8"?>
<!-- Generator: Adobe Illustrator 19.1.0, SVG Export Plug-In . SVG Version: 6.00 Build 0)  -->
<svg version="1.1" id="Слой_1" xmlns="http://www.w3.org/2000/svg" xmlns:xlink="http://www.w3.org/1999/xlink" x="0px" y="0px"
	 viewBox="0 0 12 11" style="enable-background:new 0 0 12 11;" xml:space="preserve">
<style type="text/css">
	.st0{fill:#FFCF06;}
</style>
<g>
	<path class="st0" d="M11.5,0c0,0.3,0,0.5-0.1,0.8c-0.1,0.8-0.3,1.7-0.7,2.4C10.4,3.9,10,4.5,9.5,4.9c-1,0.9-2,1.8-3,2.6
		c-0.1,0-0.1,0.1-0.1,0.2c0,0.6,0,1.1,0,1.7c0,0.1,0,0.2-0.1,0.2c-0.4,0.3-0.8,0.6-1.2,0.9C5,10.7,5,10.7,5,10.6
		c-0.1-0.5-0.2-1-0.3-1.5c0,0,0,0,0,0C4.5,9,4.3,9,4.2,9.1C4.1,9.2,4,9.2,3.9,9.3c-0.1,0.1-0.2,0.1-0.3,0C3.3,9.1,3.1,8.9,2.9,8.7
		C2.6,8.5,2.5,8.2,2.3,8c-0.1-0.1-0.1-0.2,0-0.4c0.1-0.1,0.1-0.3,0.2-0.4c0-0.1,0-0.1,0-0.2c0-0.1-0.1-0.1-0.1-0.2
		C1.9,6.7,1.4,6.6,1,6.5c-0.1,0-0.2-0.1-0.1-0.2C1.2,6,1.5,5.6,1.8,5.2C1.9,5.1,1.9,5.1,2,5.1c0.6,0,1.1,0,1.7,0c0,0,0.1,0,0.1-0.1
		C4.6,4.2,5.3,3.4,6,2.6c0.4-0.4,0.7-0.8,1.1-1.1c0.7-0.6,1.5-0.9,2.4-1.2C10.1,0.1,10.7,0,11.4,0C11.4,0,11.4,0,11.5,0z M8.2,4.2
		C8.6,4.2,9,3.8,9,3.3c0-0.5-0.4-0.9-0.9-0.9c-0.5,0-0.9,0.4-0.9,0.9C7.3,3.8,7.7,4.2,8.2,4.2z"/>
	<path class="st0" d="M3.5,9.8c-0.8,1-1.9,1.2-3,1.2c0-0.6,0-1.1,0.2-1.7c0.2-0.5,0.5-1,0.9-1.3c0,0,0.1,0.1,0.1,0.1
		c0,0,0,0.1,0,0.1c-0.4,0.6-0.5,1.3-0.5,2c0,0.1,0,0.1,0.1,0.1c0.7,0,1.4-0.1,2-0.5C3.4,9.7,3.4,9.8,3.5,9.8z"/>
</g>
</svg>
