<?xml version="1.0" encoding="utf-8"?>
<!-- Generator: Adobe Illustrator 19.1.0, SVG Export Plug-In . SVG Version: 6.00 Build 0)  -->
<svg version="1.1" id="Слой_1" xmlns="http://www.w3.org/2000/svg" xmlns:xlink="http://www.w3.org/1999/xlink" x="0px" y="0px"
	 viewBox="0 0 12 11" style="enable-background:new 0 0 12 11;" xml:space="preserve">
<style type="text/css">
	.st0{fill:#F65050;}
</style>
<path class="st0" d="M11,1.2c-0.6-0.6-1.5-1-2.4-1c-0.6,0-1.2,0.2-1.7,0.5C6.7,0.9,6.5,1,6.3,1.2C6.2,1.3,6.1,1.4,6,1.5
	C5.9,1.4,5.8,1.3,5.7,1.2C5.5,1,5.3,0.8,5.1,0.7C4.6,0.4,4,0.2,3.4,0.2c-0.9,0-1.7,0.4-2.4,1c-1.1,1.1-1.3,2.7-0.5,4
	C0.6,5.5,0.8,5.7,1,5.9l4.8,4.8c0.1,0.1,0.1,0.1,0.2,0.1c0.1,0,0.1,0,0.2-0.1L11,5.9c0.2-0.2,0.4-0.4,0.5-0.6
	C12.3,4,12.1,2.3,11,1.2z"/>
</svg>
