<?xml version="1.0" encoding="utf-8"?>
<!-- Generator: Adobe Illustrator 19.1.0, SVG Export Plug-In . SVG Version: 6.00 Build 0)  -->
<svg version="1.1" id="Слой_1" xmlns="http://www.w3.org/2000/svg" xmlns:xlink="http://www.w3.org/1999/xlink" x="0px" y="0px"
	 viewBox="0 0 12 11" style="enable-background:new 0 0 12 11;" xml:space="preserve">
<style type="text/css">
	.st0{fill:#5B9CF3;}
</style>
<path class="st0" d="M10.2,2.2C9.1,1.3,7.6,0.9,6,0.9c-3.3,0-6,2-6,4.5c0,1.2,0.6,2.4,1.8,3.2C1.7,8.9,1.5,9.2,1.2,9.6
	c0,0-0.1,0.1-0.1,0.1c-0.1,0.1-0.3,0.3-0.2,0.6c0.1,0.2,0.4,0.2,0.5,0.2c0.5,0,1.6-0.3,2.3-0.9C4.4,9.8,5.2,10,6,10c3.3,0,6-2,6-4.5
	C12,4.2,11.4,3,10.2,2.2z"/>
</svg>
