<?xml version="1.0" encoding="utf-8"?>
<!-- Generator: Adobe Illustrator 17.0.0, SVG Export Plug-In . SVG Version: 6.00 Build 0)  -->
<!DOCTYPE svg PUBLIC "-//W3C//DTD SVG 1.1//EN" "http://www.w3.org/Graphics/SVG/1.1/DTD/svg11.dtd">
<svg version="1.1" id="Слой_1" xmlns="http://www.w3.org/2000/svg" xmlns:xlink="http://www.w3.org/1999/xlink" x="0px" y="0px"
	 width="50px" height="50px" viewBox="0 0 50 50" enable-background="new 0 0 50 50" xml:space="preserve">
<g>
	<defs>
		<circle id="SVGID_1_" cx="25" cy="25" r="25"/>
	</defs>
	<clipPath id="SVGID_2_">
		<use xlink:href="#SVGID_1_"  overflow="visible"/>
	</clipPath>
	<rect id="rect2987_7_" y="0.0000153" clip-path="url(#SVGID_2_)" fill="none" width="50" height="50"/>
</g>
<g id="g7980" transform="matrix(1.3569974,0,0,1.3569974,-1327.8679,-536.34264)">
	<path id="path9_1_" d="M996.9574585,413.8078613c3.2188721,0,5.8279419-2.6094666,5.8279419-5.8284607
		c0-3.2188721-2.6090698-5.8284302-5.8279419-5.8284302c-3.2193604,0-5.8284302,2.6095581-5.8284302,5.8284302
		C991.1290283,411.1983032,993.7380981,413.8078613,996.9574585,413.8078613z M996.9574585,405.1120911
		c1.583252,0,2.8673096,1.2835693,2.8673096,2.8673096c0,1.5837708-1.2840576,2.8673401-2.8673096,2.8673401
		c-1.5837402,0-2.8677979-1.2835693-2.8677979-2.8673401c0-1.5837402,1.2840576-2.8673401,2.8677979-2.8673401V405.1120911z"/>
	<path id="path11-0" d="M1001.2242432,414.2622681c-1.6373901,1.2902222-4.2667847,1.2902222-4.2667847,1.2902222
		s-2.6299438,0-4.2670898-1.2902222c-1.2113037-0.9542542-2.1226196-0.4046326-2.4515991,0.2568054
		c-0.5736694,1.1522522,0.0743408,1.7093201,1.5372314,2.6481628c1.2495728,0.8022766,2.9661255,1.1019897,4.074585,1.2138977
		l-0.9255981,0.9254456c-1.3034668,1.3029785-2.5615234,2.5613708-3.4343262,3.4342957
		c-0.5219727,0.5216675-0.5219727,1.3684387,0,1.8900146l0.1574707,0.1573792c0.5221558,0.5220032,1.3682861,0.5220032,1.8899536,0
		l3.4347534-3.4342346c1.3035278,1.3034058,2.5615845,2.5614624,3.4343262,3.4342346
		c0.5219727,0.5220032,1.368103,0.5220032,1.8902588,0l0.1574707-0.1573792c0.5216675-0.5223999,0.5216675-1.3683472,0-1.8900146
		l-3.4350586-3.4347839l-0.9281006-0.9281616c1.1094971-0.1140137,2.8079224-0.4150696,4.0465698-1.2107544
		c1.4627075-0.9388428,2.111084-1.4959412,1.5372925-2.6481628
		C1003.3468018,413.8577271,1002.4349365,413.3080139,1001.2242432,414.2622681L1001.2242432,414.2622681z"/>
</g>
</svg>
