<?xml version="1.0" standalone="no"?>
<!DOCTYPE svg PUBLIC "-//W3C//DTD SVG 20010904//EN"
 "http://www.w3.org/TR/2001/REC-SVG-20010904/DTD/svg10.dtd">
<svg version="1.0" xmlns="http://www.w3.org/2000/svg"
 width="500.000000pt" height="500.000000pt" viewBox="0 0 500.000000 500.000000"
 preserveAspectRatio="xMidYMid meet">
<metadata>
Created by potrace 1.11, written by Peter Selinger 2001-2013
</metadata>
<g transform="translate(0.000000,500.000000) scale(0.100000,-0.100000)"
fill="#000000" stroke="none">
<path d="M2460 4883 c-55 -38 -114 -133 -149 -241 -27 -82 -34 -111 -47 -202
-3 -19 -7 -46 -9 -60 -16 -91 -23 -503 -11 -715 3 -55 8 -156 12 -225 6 -111
10 -194 13 -240 1 -14 31 -16 231 -16 l230 0 1 36 c3 60 16 309 25 440 6 95 5
482 -1 570 -22 317 -75 500 -180 615 -47 52 -80 63 -115 38z"/>
<path d="M1905 4832 c-280 -115 -456 -271 -573 -507 -91 -185 -126 -354 -127
-615 0 -190 2 -220 29 -375 8 -49 16 -103 18 -120 l3 -30 218 -1 219 0 -6 70
c-6 72 -13 136 -21 191 -17 115 -23 410 -12 555 30 359 125 606 311 806 44 47
54 65 39 63 -5 0 -48 -17 -98 -37z"/>
<path d="M2990 4867 c0 -2 21 -26 48 -53 85 -88 140 -168 189 -275 56 -121
104 -322 121 -504 14 -145 6 -532 -13 -670 -2 -16 -7 -57 -11 -90 -3 -33 -8
-67 -9 -76 -3 -13 23 -15 215 -15 l218 0 7 46 c4 25 9 59 11 75 2 17 6 47 10
68 61 371 19 711 -121 974 -112 211 -290 372 -517 467 -111 47 -148 60 -148
53z"/>
<path d="M938 4402 c-83 -87 -139 -165 -187 -259 -30 -61 -75 -183 -85 -233
-2 -14 -10 -50 -17 -80 -17 -82 -19 -340 -3 -440 8 -47 16 -105 20 -130 9 -78
9 -77 68 -76 30 1 57 4 61 7 3 4 -1 47 -9 95 -43 257 -37 483 20 712 39 160
88 269 188 425 20 31 33 57 28 57 -5 0 -43 -35 -84 -78z"/>
<path d="M3985 4460 c5 -8 25 -40 46 -71 114 -170 179 -347 207 -568 11 -87 7
-370 -6 -426 -12 -48 -15 -68 -27 -166 l-5 -46 61 -1 c67 0 71 4 83 84 4 21 9
53 12 69 21 115 19 405 -2 477 -3 10 -7 30 -10 45 -18 105 -84 267 -149 369
-33 52 -110 150 -141 179 -43 42 -76 68 -69 55z"/>
<path d="M4515 3258 c-27 -15 -35 -28 -35 -60 0 -35 39 -63 75 -54 52 13 59
92 10 114 -30 14 -25 14 -50 0z m63 -21 c21 -16 14 -55 -13 -73 -54 -36 -101
30 -55 76 19 19 40 18 68 -3z"/>
<path d="M4527 3233 c-13 -12 -7 -33 8 -33 8 0 15 -6 16 -12 0 -7 4 -4 8 7 12
28 -13 57 -32 38z m28 -13 c3 -5 -1 -10 -9 -10 -9 0 -16 5 -16 10 0 6 4 10 9
10 6 0 13 -4 16 -10z"/>
<path d="M4515 3180 c-3 -5 -1 -10 4 -10 6 0 11 5 11 10 0 6 -2 10 -4 10 -3 0
-8 -4 -11 -10z"/>
<path d="M4185 3065 c-112 -29 -154 -157 -72 -219 31 -23 88 -43 152 -53 52
-8 98 -37 106 -67 18 -67 -37 -111 -128 -104 -64 6 -104 31 -119 78 -9 27 -17
34 -38 36 -23 1 -26 -3 -26 -29 0 -71 75 -133 170 -140 112 -9 196 41 207 122
12 89 -47 146 -174 167 -56 9 -110 35 -119 57 -24 55 16 100 90 103 64 2 93
-13 113 -57 14 -33 22 -39 46 -39 28 0 29 2 23 33 -18 92 -118 140 -231 112z"/>
<path d="M540 3062 c-6 -2 -10 -93 -10 -246 l0 -242 30 0 30 0 1 200 0 201 75
-201 c73 -194 76 -201 102 -199 26 1 30 10 90 170 95 258 87 255 87 29 0 -184
1 -197 19 -200 42 -6 42 -3 42 240 -1 129 -4 237 -7 240 -4 4 -23 8 -42 9
l-37 3 -28 -75 c-16 -42 -49 -131 -73 -198 -24 -68 -47 -123 -51 -123 -4 0
-15 23 -25 51 -10 28 -43 117 -73 197 l-55 145 -33 1 c-17 1 -37 0 -42 -2z"/>
<path d="M1078 3061 c-12 -5 5 -37 76 -148 l92 -141 -1 -89 c-1 -48 0 -93 2
-99 4 -10 21 -11 56 -5 4 0 7 45 7 99 l0 97 89 140 c72 113 87 141 74 146 -41
14 -59 -3 -123 -112 -35 -60 -67 -109 -70 -109 -4 0 -37 49 -73 109 -67 109
-88 127 -129 112z"/>
<path d="M1730 2824 c0 -184 3 -243 13 -246 29 -11 224 1 258 16 100 42 149
188 110 327 -28 102 -97 139 -266 142 l-115 2 0 -241z m257 162 c48 -24 67
-68 67 -156 2 -145 -50 -200 -190 -200 l-70 0 1 178 c0 97 4 182 8 189 11 17
145 10 184 -11z"/>
<path d="M2216 3062 c-15 -3 -16 -26 -14 -244 3 -231 4 -241 23 -244 36 -5 42
12 40 111 -1 89 0 95 20 96 11 0 53 1 93 1 104 0 113 -11 127 -151 5 -48 18
-62 50 -57 13 2 19 10 18 22 -2 11 -5 42 -9 69 -12 100 -18 116 -51 138 -9 5
-4 16 18 35 24 21 32 39 36 75 9 79 -27 133 -99 144 -37 6 -228 9 -252 5z
m256 -66 c16 -7 28 -29 35 -66 5 -27 -18 -68 -45 -79 -31 -13 -178 -18 -189
-8 -10 11 -10 151 0 158 12 9 177 4 199 -5z"/>
<path d="M2683 3062 l-23 -3 0 -242 0 -242 165 0 165 0 0 27 0 27 -132 3 -133
3 0 80 0 80 105 2 c58 1 113 2 123 2 11 1 17 9 17 26 0 28 10 26 -145 29
l-100 1 0 75 0 75 125 2 c69 0 128 1 133 2 4 1 7 12 7 26 0 17 -6 25 -17 26
-79 3 -272 3 -290 1z"/>
<path d="M3155 2951 c-24 -64 -67 -173 -93 -243 -51 -129 -51 -140 -6 -134 17
2 52 68 67 129 5 15 19 17 111 17 80 0 106 -3 106 -13 0 -7 10 -39 23 -72 21
-55 26 -60 55 -61 18 -1 32 2 32 6 0 4 -40 113 -89 241 l-89 234 -36 6 -36 6
-45 -116z m151 -169 c-4 -3 -103 -6 -137 -3 -14 1 -11 17 22 108 22 59 39 109
40 112 0 4 18 -43 39 -104 22 -60 38 -111 36 -113z"/>
<path d="M3516 3056 c-12 -9 -14 -53 -13 -246 l2 -235 30 0 29 1 0 187 c0 103
2 187 5 187 4 0 30 -66 60 -148 82 -224 86 -232 112 -227 30 6 31 7 68 110 18
50 36 99 41 110 5 11 19 49 31 85 12 36 26 69 30 74 4 5 8 -72 7 -170 0 -99 1
-186 1 -195 1 -11 10 -16 29 -15 l27 1 0 245 0 245 -39 -2 c-22 -2 -43 -6 -46
-10 -4 -5 -38 -92 -76 -195 -37 -104 -71 -188 -74 -188 -3 0 -12 17 -19 38
-42 120 -125 338 -131 345 -12 13 -59 15 -74 3z"/>
<path d="M1013 2406 c6 -16 280 -441 334 -518 89 -128 109 -155 149 -205 24
-30 44 -51 44 -49 0 3 -73 128 -162 278 -89 149 -189 324 -222 387 l-61 116
-44 3 c-35 3 -43 0 -38 -12z"/>
<path d="M1521 2368 c32 -83 98 -236 135 -315 19 -40 50 -108 70 -150 62 -135
173 -351 264 -517 48 -89 113 -208 145 -266 75 -138 76 -139 103 -121 11 7 -3
60 -66 257 -101 313 -135 426 -166 545 -14 52 -32 121 -41 154 -9 33 -32 121
-51 195 -19 74 -44 165 -56 203 l-20 67 -169 0 -169 0 21 -52z"/>
<path d="M2337 2413 c-3 -5 -4 -19 -2 -33 1 -14 5 -54 9 -90 21 -218 47 -481
51 -515 2 -22 7 -67 10 -100 3 -33 8 -76 10 -95 2 -19 6 -57 9 -85 3 -27 8
-70 10 -95 6 -48 22 -181 41 -340 4 -30 11 -59 16 -65 15 -14 39 22 40 59 0
17 2 38 3 46 2 8 6 47 10 85 3 39 8 81 10 95 3 14 7 55 11 92 3 37 8 77 10 90
4 22 48 444 60 573 5 59 12 129 21 212 2 24 6 72 9 108 l6 65 -165 0 c-91 0
-167 -3 -169 -7z"/>
<path d="M3160 2401 c0 -53 -283 -1026 -385 -1320 -27 -81 -23 -105 16 -80 25
17 285 485 417 749 87 175 112 227 192 415 24 55 58 133 76 173 19 41 34 76
34 78 0 3 -79 4 -175 4 -157 -2 -175 -3 -175 -19z"/>
<path d="M3892 2397 c-12 -13 -45 -74 -72 -135 -54 -123 -87 -182 -230 -412
-53 -85 -104 -168 -114 -185 l-18 -30 24 29 c201 250 508 698 508 743 0 24
-74 16 -98 -10z"/>
<path d="M2242 783 c-18 -9 -45 -32 -60 -51 l-27 -35 0 -252 0 -252 27 -35
c48 -63 70 -68 312 -68 232 0 262 5 306 51 12 13 27 35 33 49 13 33 18 432 5
485 -11 47 -50 92 -95 111 -51 22 -456 19 -501 -3z m497 -37 c62 -33 66 -49
67 -292 1 -247 -3 -270 -58 -304 -30 -18 -50 -20 -252 -20 -212 0 -221 1 -253
22 -18 13 -38 35 -44 49 -6 17 -11 110 -11 248 0 320 -9 310 310 311 167 0
219 -3 241 -14z"/>
<path d="M2398 614 l-77 -24 13 -43 c7 -23 32 -101 55 -174 l43 -131 66 23
c98 33 117 44 143 79 52 68 18 222 -60 273 -43 29 -86 29 -183 -3z m158 -34
c30 -18 55 -74 61 -135 5 -44 2 -55 -21 -82 -23 -27 -120 -73 -131 -62 -6 7
-85 262 -82 265 7 8 114 31 132 29 11 -1 30 -8 41 -15z"/>
</g>
</svg>
