<?xml version="1.0" encoding="UTF-8" standalone="no"?>
<svg width="30px" height="30px" viewBox="0 0 30 30" version="1.1" xmlns="http://www.w3.org/2000/svg" xmlns:xlink="http://www.w3.org/1999/xlink">
    <!-- Generator: Sketch 3.7 (28169) - http://www.bohemiancoding.com/sketch -->
    <title>inst</title>
    <desc>Created with Sketch.</desc>
    <defs></defs>
    <g id="Page-1" stroke="none" stroke-width="1" fill="none" fill-rule="evenodd">
        <g id="inst" fill="#839098">
            <path d="M20.1498378,18.9248515 C20.1498378,19.574735 19.6178799,20.1045313 18.9653448,20.1045313 L11.3902642,20.1045313 C10.7377292,20.1045313 10.2057713,19.574735 10.2057713,18.9248515 L10.2057713,13.8882543 L12.049892,13.8882543 C11.8867583,14.2767716 11.801645,14.7076726 11.801645,15.1527015 C11.801645,17.0034567 13.3124055,18.5151423 15.1778045,18.5151423 C17.0432036,18.5151423 18.5539641,17.0034567 18.5539641,15.1527015 C18.5539641,14.7076726 18.461758,14.2767716 18.305717,13.8882543 L20.1498378,13.8882543 L20.1498378,18.9248515 L20.1498378,18.9248515 Z M13.4117043,13.8882543 C13.8088995,13.34433 14.4543418,12.9840685 15.1778045,12.9840685 C15.9012673,12.9840685 16.5467096,13.34433 16.936812,13.8882543 C17.1992446,14.2414518 17.3481928,14.6794168 17.3481928,15.1527015 C17.3481928,16.3465093 16.376483,17.3142706 15.1778045,17.3142706 C13.979126,17.3142706 13.0003235,16.3465093 13.0003235,15.1527015 C13.0003235,14.6794168 13.1563645,14.2414518 13.4117043,13.8882543 L13.4117043,13.8882543 Z M19.6533437,10.4198542 L19.9228691,10.4198542 L19.9228691,10.6882843 L19.9228691,12.5037198 L17.8375941,12.5107838 L17.8305013,10.4198542 L19.6533437,10.4198542 L19.6533437,10.4198542 Z M18.9653448,9 L11.3902642,9 C10.0710086,9 9,10.0666566 9,11.3805516 L9,13.8882543 L9,18.9248515 C9,20.2387464 10.0710086,21.305403 11.3902642,21.305403 L18.9653448,21.305403 C20.2846005,21.305403 21.3556091,20.2387464 21.3556091,18.9248515 L21.3556091,13.8882543 L21.3556091,11.3734876 C21.3556091,10.0666566 20.2846005,9 18.9653448,9 L18.9653448,9 Z" id="Fill-32"></path>
        </g>
    </g>
</svg>