<?xml version="1.0" encoding="UTF-8" standalone="no"?>
<svg width="30px" height="30px" viewBox="0 0 30 30" version="1.1" xmlns="http://www.w3.org/2000/svg" xmlns:xlink="http://www.w3.org/1999/xlink">
    <!-- Generator: Sketch 3.7 (28169) - http://www.bohemiancoding.com/sketch -->
    <title>ok</title>
    <desc>Created with Sketch.</desc>
    <defs></defs>
    <g id="Page-1" stroke="none" stroke-width="1" fill="none" fill-rule="evenodd">
        <g id="ok" fill="#F48420">
            <path d="M15.1754553,9.75892386 C16.118794,9.75892386 16.8848134,10.5218306 16.8848134,11.4613361 C16.8848134,12.4008416 16.118794,13.1637484 15.1754553,13.1637484 C14.2321166,13.1637484 13.4660972,12.4008416 13.4660972,11.4613361 C13.4660972,10.5218306 14.2321166,9.75892386 15.1754553,9.75892386 L15.1754553,9.75892386 Z M15.1754553,14.9226722 C17.0905038,14.9226722 18.6509136,13.3686029 18.6509136,11.4613361 C18.6509136,9.54700532 17.0905038,8 15.1754553,8 C13.253314,8 11.6999969,9.54700532 11.6999969,11.4613361 C11.6999969,13.3686029 13.253314,14.9226722 15.1754553,14.9226722 Z M17.6700263,15.303686 C16.6912237,16.0665928 15.1237211,16.0665928 15.1237211,16.0665928 C15.1237211,16.0665928 13.5562184,16.0665928 12.5845086,15.303686 C11.8610459,14.7385699 11.3219952,15.0635117 11.1233976,15.459093 C10.7829445,16.1372323 11.1659542,16.469238 12.0383652,17.0272901 C12.7831063,17.5076388 13.8044654,17.6842376 14.4640933,17.7478132 L13.9179498,18.2988014 C13.1377449,19.068772 12.385911,19.8175509 11.8681387,20.3332193 C11.5560567,20.6440332 11.5560567,21.1455737 11.8681387,21.4563876 L11.9603447,21.5552829 C12.2724267,21.8590328 12.7760135,21.8590328 13.0880955,21.5552829 L15.1379066,19.513801 C15.9110188,20.2837717 16.6628526,21.0325505 17.180625,21.5552829 C17.492707,21.8590328 17.9962938,21.8590328 18.3083758,21.5552829 L18.4005818,21.4563876 C18.7126638,21.1455737 18.7126638,20.6440332 18.4005818,20.3332193 L16.3578634,18.2988014 L15.8046272,17.7478132 C16.464255,17.6771736 17.4785214,17.5005749 18.2161697,17.0272901 C19.0885807,16.469238 19.4715904,16.1372323 19.1311373,15.459093 C18.9325397,15.0635117 18.393489,14.7385699 17.6700263,15.303686 Z" id="Fill-56"></path>
        </g>
    </g>
</svg>