<?xml version="1.0" encoding="UTF-8" standalone="no"?>
<svg width="30px" height="30px" viewBox="0 0 30 30" version="1.1" xmlns="http://www.w3.org/2000/svg" xmlns:xlink="http://www.w3.org/1999/xlink">
    <!-- Generator: Sketch 3.7 (28169) - http://www.bohemiancoding.com/sketch -->
    <title>tw</title>
    <desc>Created with Sketch.</desc>
    <defs></defs>
    <g id="Page-1" stroke="none" stroke-width="1" fill="none" fill-rule="evenodd">
        <g id="tw" fill="#9D9DCE">
            <path d="M21.7245141,10.3138949 C21.2209273,10.5399414 20.6747838,10.6882843 20.107362,10.7589239 C20.6889693,10.4057263 21.135814,9.86180205 21.3485972,9.20485459 C20.8024537,9.52273239 20.1995681,9.75584278 19.5541258,9.8829939 C19.0434462,9.33906966 18.3128907,9 17.5043147,9 C15.9439048,9 14.6884841,10.2573833 14.6884841,11.8043886 C14.6884841,12.0233711 14.7097624,12.2352897 14.7594118,12.4401443 C12.418797,12.327121 10.3406148,11.2110167 8.95752424,9.50860449 C8.70927721,9.92537761 8.57451454,10.4057263 8.57451454,10.9213947 C8.57451454,11.89622 9.07100859,12.7509581 9.82284244,13.2595626 C9.36181225,13.2383707 8.92915315,13.1182836 8.55323623,12.906365 L8.55323623,12.9416848 C8.55323623,14.2979634 9.51785324,15.4352596 10.8087378,15.6895618 C10.5746763,15.7531374 10.3264293,15.7884571 10.0639967,15.7884571 C9.88667739,15.7884571 9.70935808,15.7743292 9.53913155,15.7390095 C9.89377016,16.8551138 10.9364077,17.6674682 12.17055,17.68866 C11.205933,18.4374388 9.99306897,18.8895317 8.67381335,18.8895317 C8.44684464,18.8895317 8.21987594,18.8754038 8,18.847148 C9.2483279,19.6453745 10.7236245,20.1115953 12.3124055,20.1115953 C17.4972219,20.1115953 20.327238,15.8379048 20.327238,12.1293304 C20.327238,12.0092432 20.327238,11.8891561 20.3201452,11.7690689 C20.8662887,11.3734876 21.3485972,10.879011 21.7245141,10.3138949 L21.7245141,10.3138949 Z" id="Fill-48"></path>
        </g>
    </g>
</svg>
