<?xml version="1.0" encoding="UTF-8" standalone="no"?>
<svg width="30px" height="30px" viewBox="0 0 30 30" version="1.1" xmlns="http://www.w3.org/2000/svg" xmlns:xlink="http://www.w3.org/1999/xlink">
    <!-- Generator: Sketch 3.7 (28169) - http://www.bohemiancoding.com/sketch -->
    <title>vk</title>
    <desc>Created with Sketch.</desc>
    <defs></defs>
    <g id="Page-1" stroke="none" stroke-width="1" fill="none" fill-rule="evenodd">
        <g id="vk" fill="#9D9DCE">
            <path d="M14.7153423,18.7649922 L15.5381039,18.7649922 C15.5381039,18.7649922 15.7863509,18.7367364 15.9069281,18.6025213 C16.0275052,18.4753702 16.0204124,18.2422598 16.0204124,18.2422598 C16.0204124,18.2422598 16.0062269,17.1473474 16.5169065,16.9848765 C17.0204933,16.8294696 17.6659356,18.0444692 18.3539345,18.5106899 C18.8717068,18.8709515 19.2689021,18.793248 19.2689021,18.793248 L21.0988373,18.7649922 C21.0988373,18.7649922 22.0563615,18.7084806 21.6024241,17.9526378 C21.5669602,17.8961262 21.3399915,17.4016496 20.2406118,16.3844406 C19.0915828,15.3248479 19.2476237,15.4943828 20.6307143,13.6577554 C21.4747542,12.5345872 21.8081145,11.8564479 21.7017229,11.5597619 C21.6024241,11.2842678 20.9853529,11.3549073 20.9853529,11.3549073 L18.9213562,11.3690352 C18.9213562,11.3690352 18.7653152,11.3478434 18.6518309,11.4184829 C18.5454393,11.4820585 18.4745116,11.6374654 18.4745116,11.6374654 C18.4745116,11.6374654 18.1411513,12.4992674 17.7084922,13.2409823 C16.7864318,14.7950516 16.4247004,14.8727551 16.2686594,14.7809237 C15.9211136,14.5548773 16.0133196,13.8767379 16.0133196,13.3963893 C16.0133196,11.8847037 16.2402884,11.256012 15.566475,11.0935411 C15.3395063,11.0440935 15.1763725,11.0087737 14.601858,11.0017098 C13.8642097,10.9946458 13.2400457,11.0017098 12.8854071,11.1783086 C12.6513457,11.2913318 12.4740264,11.545634 12.5804179,11.5597619 C12.7151806,11.5809538 13.0272626,11.6445293 13.1903963,11.8635118 C13.4031795,12.1531338 13.3960867,12.7959534 13.3960867,12.7959534 C13.3960867,12.7959534 13.5166639,14.5690052 13.1123758,14.7879876 C12.8357577,14.9363306 12.452748,14.6325807 11.6299865,13.2197905 C11.2115129,12.4992674 10.8923382,11.701041 10.8923382,11.701041 C10.8923382,11.701041 10.835596,11.552698 10.7221116,11.4679306 C10.5944417,11.3760992 10.4100297,11.3407794 10.4100297,11.3407794 L8.44533178,11.3549073 C8.44533178,11.3549073 8.15452812,11.3619713 8.04813654,11.4891224 C7.94883773,11.6021456 8.033951,11.84232 8.033951,11.84232 C8.033951,11.84232 9.57308255,15.4166793 11.3108117,17.2179869 C12.9066855,18.8709515 14.7153423,18.7649922 14.7153423,18.7649922 L14.7153423,18.7649922 Z" id="Fill-22"></path>
        </g>
    </g>
</svg>
